%TF.GenerationSoftware,KiCad,Pcbnew,(6.0.1)*%
%TF.CreationDate,2023-06-10T19:21:27+02:00*%
%TF.ProjectId,mixerfront,6d697865-7266-4726-9f6e-742e6b696361,rev?*%
%TF.SameCoordinates,Original*%
%TF.FileFunction,Legend,Bot*%
%TF.FilePolarity,Positive*%
%FSLAX46Y46*%
G04 Gerber Fmt 4.6, Leading zero omitted, Abs format (unit mm)*
G04 Created by KiCad (PCBNEW (6.0.1)) date 2023-06-10 19:21:27*
%MOMM*%
%LPD*%
G01*
G04 APERTURE LIST*
%ADD10C,0.086743*%
%ADD11C,0.285014*%
%ADD12C,0.285013*%
%ADD13C,0.008261*%
%ADD14C,0.080547*%
%TA.AperFunction,Profile*%
%ADD15C,0.100000*%
%TD*%
%ADD16C,0.150000*%
G04 APERTURE END LIST*
D10*
X91118637Y-138050883D02*
X91151004Y-138085065D01*
X90689751Y-137790052D02*
X90748420Y-137814293D01*
D11*
X91486866Y-139037858D02*
X91453535Y-139047063D01*
D10*
X91269657Y-138306585D02*
X91275897Y-138345793D01*
D11*
X93643393Y-139057681D02*
X93676833Y-139046983D01*
D10*
X90565264Y-137745655D02*
X90628665Y-137767156D01*
D12*
X92857972Y-138809554D02*
X92837983Y-138782135D01*
D11*
X90618211Y-138620374D02*
X90607169Y-138588638D01*
D10*
X90956909Y-137923753D02*
X91001978Y-137953999D01*
X92340505Y-139140199D02*
X92266934Y-139125825D01*
D11*
X90758057Y-138844784D02*
X90735980Y-138820000D01*
X91911132Y-138681648D02*
X91895620Y-138711100D01*
X91206178Y-137706018D02*
X91241851Y-137703380D01*
X91102449Y-137723994D02*
X91136433Y-137716367D01*
X91937776Y-138620374D02*
X91925199Y-138651392D01*
X91314144Y-139067678D02*
X91277999Y-139068567D01*
X91136433Y-139054690D02*
X91102449Y-139047063D01*
X90677276Y-138031338D02*
X90695546Y-138003626D01*
X90913765Y-138969679D02*
X90885266Y-138951912D01*
X91036479Y-139027119D02*
X91004581Y-139014889D01*
X91277999Y-137702491D02*
X91314143Y-137703380D01*
X93539066Y-139080143D02*
X93574465Y-139074305D01*
X92715559Y-138390934D02*
X92715559Y-136451776D01*
X90630787Y-138651392D02*
X90618211Y-138620374D01*
X91958284Y-138214818D02*
X91966128Y-138247864D01*
X93709529Y-139034752D02*
X93741436Y-139021032D01*
D10*
X92571074Y-139172599D02*
X92492676Y-139163636D01*
D11*
X93429677Y-139087246D02*
X93466627Y-139086657D01*
X93802702Y-138989295D02*
X93831971Y-138971366D01*
X91642213Y-138969679D02*
X91612799Y-138986126D01*
X91698250Y-138932868D02*
X91670712Y-138951912D01*
D12*
X92976466Y-138930754D02*
X92950444Y-138908779D01*
D11*
X91241851Y-137703380D02*
X91277999Y-137702491D01*
X90857728Y-138932868D02*
X90831193Y-138912591D01*
X91136433Y-137716367D02*
X91171024Y-137710361D01*
D13*
X87308466Y-138828137D02*
X87308868Y-138843630D01*
X87308868Y-138843630D02*
X87310060Y-138858917D01*
X87310060Y-138858917D02*
X87312024Y-138873980D01*
X87312024Y-138873980D02*
X87314739Y-138888799D01*
X87314739Y-138888799D02*
X87318187Y-138903357D01*
X87318187Y-138903357D02*
X87322349Y-138917633D01*
X87322349Y-138917633D02*
X87327204Y-138931611D01*
X87327204Y-138931611D02*
X87332735Y-138945270D01*
X87332735Y-138945270D02*
X87338920Y-138958591D01*
X87338920Y-138958591D02*
X87345742Y-138971557D01*
X87345742Y-138971557D02*
X87353180Y-138984149D01*
X87353180Y-138984149D02*
X87361217Y-138996347D01*
X87361217Y-138996347D02*
X87369831Y-139008133D01*
X87369831Y-139008133D02*
X87379004Y-139019488D01*
X87379004Y-139019488D02*
X87388717Y-139030393D01*
X87388717Y-139030393D02*
X87398950Y-139040830D01*
X87398950Y-139040830D02*
X87409684Y-139050780D01*
X87409684Y-139050780D02*
X87420900Y-139060224D01*
X87420900Y-139060224D02*
X87432578Y-139069143D01*
X87432578Y-139069143D02*
X87444699Y-139077518D01*
X87444699Y-139077518D02*
X87457244Y-139085332D01*
X87457244Y-139085332D02*
X87470193Y-139092564D01*
X87470193Y-139092564D02*
X87483528Y-139099197D01*
X87483528Y-139099197D02*
X87497228Y-139105211D01*
X87497228Y-139105211D02*
X87511275Y-139110588D01*
X87511275Y-139110588D02*
X87525649Y-139115309D01*
X87525649Y-139115309D02*
X87540331Y-139119355D01*
X87540331Y-139119355D02*
X87555302Y-139122708D01*
X87555302Y-139122708D02*
X87570542Y-139125348D01*
X87570542Y-139125348D02*
X87586032Y-139127257D01*
X87586032Y-139127257D02*
X87601753Y-139128416D01*
X87601753Y-139128416D02*
X87617685Y-139128807D01*
X87617685Y-139128807D02*
X87633542Y-139128416D01*
X87633542Y-139128416D02*
X87649197Y-139127257D01*
X87649197Y-139127257D02*
X87664631Y-139125348D01*
X87664631Y-139125348D02*
X87679823Y-139122708D01*
X87679823Y-139122708D02*
X87694754Y-139119355D01*
X87694754Y-139119355D02*
X87709404Y-139115309D01*
X87709404Y-139115309D02*
X87723753Y-139110588D01*
X87723753Y-139110588D02*
X87737782Y-139105211D01*
X87737782Y-139105211D02*
X87751471Y-139099197D01*
X87751471Y-139099197D02*
X87764799Y-139092564D01*
X87764799Y-139092564D02*
X87777748Y-139085332D01*
X87777748Y-139085332D02*
X87790296Y-139077518D01*
X87790296Y-139077518D02*
X87802426Y-139069143D01*
X87802426Y-139069143D02*
X87814116Y-139060224D01*
X87814116Y-139060224D02*
X87825348Y-139050780D01*
X87825348Y-139050780D02*
X87836101Y-139040830D01*
X87836101Y-139040830D02*
X87846355Y-139030393D01*
X87846355Y-139030393D02*
X87856091Y-139019488D01*
X87856091Y-139019488D02*
X87865289Y-139008133D01*
X87865289Y-139008133D02*
X87873929Y-138996347D01*
X87873929Y-138996347D02*
X87881991Y-138984149D01*
X87881991Y-138984149D02*
X87889457Y-138971557D01*
X87889457Y-138971557D02*
X87896305Y-138958591D01*
X87896305Y-138958591D02*
X87902516Y-138945270D01*
X87902516Y-138945270D02*
X87908071Y-138931611D01*
X87908071Y-138931611D02*
X87912949Y-138917633D01*
X87912949Y-138917633D02*
X87917130Y-138903357D01*
X87917130Y-138903357D02*
X87920596Y-138888799D01*
X87920596Y-138888799D02*
X87923326Y-138873980D01*
X87923326Y-138873980D02*
X87925301Y-138858917D01*
X87925301Y-138858917D02*
X87926500Y-138843630D01*
X87926500Y-138843630D02*
X87926904Y-138828137D01*
X87926904Y-138828137D02*
X87926500Y-138812714D01*
X87926500Y-138812714D02*
X87925301Y-138797487D01*
X87925301Y-138797487D02*
X87923326Y-138782477D01*
X87923326Y-138782477D02*
X87920596Y-138767701D01*
X87920596Y-138767701D02*
X87917130Y-138753179D01*
X87917130Y-138753179D02*
X87912949Y-138738931D01*
X87912949Y-138738931D02*
X87908071Y-138724976D01*
X87908071Y-138724976D02*
X87902516Y-138711332D01*
X87902516Y-138711332D02*
X87896305Y-138698019D01*
X87896305Y-138698019D02*
X87889457Y-138685057D01*
X87889457Y-138685057D02*
X87881991Y-138672464D01*
X87881991Y-138672464D02*
X87873929Y-138660259D01*
X87873929Y-138660259D02*
X87865289Y-138648463D01*
X87865289Y-138648463D02*
X87856091Y-138637094D01*
X87856091Y-138637094D02*
X87846355Y-138626171D01*
X87846355Y-138626171D02*
X87836101Y-138615714D01*
X87836101Y-138615714D02*
X87825348Y-138605742D01*
X87825348Y-138605742D02*
X87814116Y-138596274D01*
X87814116Y-138596274D02*
X87802426Y-138587329D01*
X87802426Y-138587329D02*
X87790296Y-138578926D01*
X87790296Y-138578926D02*
X87777748Y-138571086D01*
X87777748Y-138571086D02*
X87764799Y-138563826D01*
X87764799Y-138563826D02*
X87751471Y-138557166D01*
X87751471Y-138557166D02*
X87737782Y-138551126D01*
X87737782Y-138551126D02*
X87723753Y-138545725D01*
X87723753Y-138545725D02*
X87709404Y-138540981D01*
X87709404Y-138540981D02*
X87694754Y-138536914D01*
X87694754Y-138536914D02*
X87679823Y-138533544D01*
X87679823Y-138533544D02*
X87664631Y-138530889D01*
X87664631Y-138530889D02*
X87649197Y-138528969D01*
X87649197Y-138528969D02*
X87633542Y-138527803D01*
X87633542Y-138527803D02*
X87617685Y-138527410D01*
X87617685Y-138527410D02*
X87601753Y-138527803D01*
X87601753Y-138527803D02*
X87586032Y-138528969D01*
X87586032Y-138528969D02*
X87570542Y-138530889D01*
X87570542Y-138530889D02*
X87555302Y-138533544D01*
X87555302Y-138533544D02*
X87540331Y-138536914D01*
X87540331Y-138536914D02*
X87525649Y-138540981D01*
X87525649Y-138540981D02*
X87511275Y-138545725D01*
X87511275Y-138545725D02*
X87497228Y-138551126D01*
X87497228Y-138551126D02*
X87483527Y-138557166D01*
X87483527Y-138557166D02*
X87470193Y-138563826D01*
X87470193Y-138563826D02*
X87457243Y-138571086D01*
X87457243Y-138571086D02*
X87444698Y-138578926D01*
X87444698Y-138578926D02*
X87432577Y-138587329D01*
X87432577Y-138587329D02*
X87420899Y-138596274D01*
X87420899Y-138596274D02*
X87409684Y-138605742D01*
X87409684Y-138605742D02*
X87398950Y-138615714D01*
X87398950Y-138615714D02*
X87388716Y-138626171D01*
X87388716Y-138626171D02*
X87379004Y-138637094D01*
X87379004Y-138637094D02*
X87369831Y-138648463D01*
X87369831Y-138648463D02*
X87361216Y-138660259D01*
X87361216Y-138660259D02*
X87353180Y-138672464D01*
X87353180Y-138672464D02*
X87345742Y-138685057D01*
X87345742Y-138685057D02*
X87338920Y-138698019D01*
X87338920Y-138698019D02*
X87332734Y-138711332D01*
X87332734Y-138711332D02*
X87327204Y-138724976D01*
X87327204Y-138724976D02*
X87322349Y-138738931D01*
X87322349Y-138738931D02*
X87318187Y-138753179D01*
X87318187Y-138753179D02*
X87314739Y-138767701D01*
X87314739Y-138767701D02*
X87312024Y-138782477D01*
X87312024Y-138782477D02*
X87310060Y-138797487D01*
X87310060Y-138797487D02*
X87308868Y-138812714D01*
X87308868Y-138812714D02*
X87308466Y-138828137D01*
X87308466Y-138828137D02*
X87308466Y-138828137D01*
G36*
X87633542Y-138527803D02*
G01*
X87649197Y-138528969D01*
X87664631Y-138530889D01*
X87679823Y-138533544D01*
X87694754Y-138536914D01*
X87709404Y-138540981D01*
X87723753Y-138545725D01*
X87737782Y-138551126D01*
X87751471Y-138557166D01*
X87764799Y-138563826D01*
X87777748Y-138571086D01*
X87790296Y-138578926D01*
X87802426Y-138587329D01*
X87814116Y-138596274D01*
X87825348Y-138605742D01*
X87836101Y-138615714D01*
X87846355Y-138626171D01*
X87856091Y-138637094D01*
X87865289Y-138648463D01*
X87873929Y-138660259D01*
X87881991Y-138672464D01*
X87889457Y-138685057D01*
X87896305Y-138698019D01*
X87902516Y-138711332D01*
X87908071Y-138724976D01*
X87912949Y-138738931D01*
X87917130Y-138753179D01*
X87920596Y-138767701D01*
X87923326Y-138782477D01*
X87925301Y-138797487D01*
X87926500Y-138812714D01*
X87926904Y-138828137D01*
X87926500Y-138843630D01*
X87925301Y-138858917D01*
X87923326Y-138873980D01*
X87920596Y-138888799D01*
X87917130Y-138903357D01*
X87912949Y-138917633D01*
X87908071Y-138931611D01*
X87902516Y-138945270D01*
X87896305Y-138958591D01*
X87889457Y-138971557D01*
X87881991Y-138984149D01*
X87873929Y-138996347D01*
X87865289Y-139008133D01*
X87856091Y-139019488D01*
X87846355Y-139030393D01*
X87836101Y-139040830D01*
X87825348Y-139050780D01*
X87814116Y-139060224D01*
X87802426Y-139069143D01*
X87790296Y-139077518D01*
X87777748Y-139085332D01*
X87764799Y-139092564D01*
X87751471Y-139099197D01*
X87737782Y-139105211D01*
X87723753Y-139110588D01*
X87709404Y-139115309D01*
X87694754Y-139119355D01*
X87679823Y-139122708D01*
X87664631Y-139125348D01*
X87649197Y-139127257D01*
X87633542Y-139128416D01*
X87617685Y-139128807D01*
X87601753Y-139128416D01*
X87586032Y-139127257D01*
X87570542Y-139125348D01*
X87555302Y-139122708D01*
X87540331Y-139119355D01*
X87525649Y-139115309D01*
X87511275Y-139110588D01*
X87497228Y-139105211D01*
X87483528Y-139099197D01*
X87470193Y-139092564D01*
X87457244Y-139085332D01*
X87444699Y-139077518D01*
X87432578Y-139069143D01*
X87420900Y-139060224D01*
X87409684Y-139050780D01*
X87398950Y-139040830D01*
X87388717Y-139030393D01*
X87379004Y-139019488D01*
X87369831Y-139008133D01*
X87361217Y-138996347D01*
X87353180Y-138984149D01*
X87345742Y-138971557D01*
X87338920Y-138958591D01*
X87332735Y-138945270D01*
X87327204Y-138931611D01*
X87322349Y-138917633D01*
X87318187Y-138903357D01*
X87314739Y-138888799D01*
X87312024Y-138873980D01*
X87310060Y-138858917D01*
X87308868Y-138843630D01*
X87308466Y-138828137D01*
X87308868Y-138812714D01*
X87310060Y-138797487D01*
X87312024Y-138782477D01*
X87314739Y-138767701D01*
X87318187Y-138753179D01*
X87322349Y-138738931D01*
X87327204Y-138724976D01*
X87332734Y-138711332D01*
X87338920Y-138698019D01*
X87345742Y-138685057D01*
X87353180Y-138672464D01*
X87361216Y-138660259D01*
X87369831Y-138648463D01*
X87379004Y-138637094D01*
X87388716Y-138626171D01*
X87398950Y-138615714D01*
X87409684Y-138605742D01*
X87420899Y-138596274D01*
X87432577Y-138587329D01*
X87444698Y-138578926D01*
X87457243Y-138571086D01*
X87470193Y-138563826D01*
X87483527Y-138557166D01*
X87497228Y-138551126D01*
X87511275Y-138545725D01*
X87525649Y-138540981D01*
X87540331Y-138536914D01*
X87555302Y-138533544D01*
X87570542Y-138530889D01*
X87586032Y-138528969D01*
X87601753Y-138527803D01*
X87617685Y-138527410D01*
X87633542Y-138527803D01*
G37*
X87633542Y-138527803D02*
X87649197Y-138528969D01*
X87664631Y-138530889D01*
X87679823Y-138533544D01*
X87694754Y-138536914D01*
X87709404Y-138540981D01*
X87723753Y-138545725D01*
X87737782Y-138551126D01*
X87751471Y-138557166D01*
X87764799Y-138563826D01*
X87777748Y-138571086D01*
X87790296Y-138578926D01*
X87802426Y-138587329D01*
X87814116Y-138596274D01*
X87825348Y-138605742D01*
X87836101Y-138615714D01*
X87846355Y-138626171D01*
X87856091Y-138637094D01*
X87865289Y-138648463D01*
X87873929Y-138660259D01*
X87881991Y-138672464D01*
X87889457Y-138685057D01*
X87896305Y-138698019D01*
X87902516Y-138711332D01*
X87908071Y-138724976D01*
X87912949Y-138738931D01*
X87917130Y-138753179D01*
X87920596Y-138767701D01*
X87923326Y-138782477D01*
X87925301Y-138797487D01*
X87926500Y-138812714D01*
X87926904Y-138828137D01*
X87926500Y-138843630D01*
X87925301Y-138858917D01*
X87923326Y-138873980D01*
X87920596Y-138888799D01*
X87917130Y-138903357D01*
X87912949Y-138917633D01*
X87908071Y-138931611D01*
X87902516Y-138945270D01*
X87896305Y-138958591D01*
X87889457Y-138971557D01*
X87881991Y-138984149D01*
X87873929Y-138996347D01*
X87865289Y-139008133D01*
X87856091Y-139019488D01*
X87846355Y-139030393D01*
X87836101Y-139040830D01*
X87825348Y-139050780D01*
X87814116Y-139060224D01*
X87802426Y-139069143D01*
X87790296Y-139077518D01*
X87777748Y-139085332D01*
X87764799Y-139092564D01*
X87751471Y-139099197D01*
X87737782Y-139105211D01*
X87723753Y-139110588D01*
X87709404Y-139115309D01*
X87694754Y-139119355D01*
X87679823Y-139122708D01*
X87664631Y-139125348D01*
X87649197Y-139127257D01*
X87633542Y-139128416D01*
X87617685Y-139128807D01*
X87601753Y-139128416D01*
X87586032Y-139127257D01*
X87570542Y-139125348D01*
X87555302Y-139122708D01*
X87540331Y-139119355D01*
X87525649Y-139115309D01*
X87511275Y-139110588D01*
X87497228Y-139105211D01*
X87483528Y-139099197D01*
X87470193Y-139092564D01*
X87457244Y-139085332D01*
X87444699Y-139077518D01*
X87432578Y-139069143D01*
X87420900Y-139060224D01*
X87409684Y-139050780D01*
X87398950Y-139040830D01*
X87388717Y-139030393D01*
X87379004Y-139019488D01*
X87369831Y-139008133D01*
X87361217Y-138996347D01*
X87353180Y-138984149D01*
X87345742Y-138971557D01*
X87338920Y-138958591D01*
X87332735Y-138945270D01*
X87327204Y-138931611D01*
X87322349Y-138917633D01*
X87318187Y-138903357D01*
X87314739Y-138888799D01*
X87312024Y-138873980D01*
X87310060Y-138858917D01*
X87308868Y-138843630D01*
X87308466Y-138828137D01*
X87308868Y-138812714D01*
X87310060Y-138797487D01*
X87312024Y-138782477D01*
X87314739Y-138767701D01*
X87318187Y-138753179D01*
X87322349Y-138738931D01*
X87327204Y-138724976D01*
X87332734Y-138711332D01*
X87338920Y-138698019D01*
X87345742Y-138685057D01*
X87353180Y-138672464D01*
X87361216Y-138660259D01*
X87369831Y-138648463D01*
X87379004Y-138637094D01*
X87388716Y-138626171D01*
X87398950Y-138615714D01*
X87409684Y-138605742D01*
X87420899Y-138596274D01*
X87432577Y-138587329D01*
X87444698Y-138578926D01*
X87457243Y-138571086D01*
X87470193Y-138563826D01*
X87483527Y-138557166D01*
X87497228Y-138551126D01*
X87511275Y-138545725D01*
X87525649Y-138540981D01*
X87540331Y-138536914D01*
X87555302Y-138533544D01*
X87570542Y-138530889D01*
X87586032Y-138528969D01*
X87601753Y-138527803D01*
X87617685Y-138527410D01*
X87633542Y-138527803D01*
D10*
X91280105Y-138426901D02*
X91277999Y-138385525D01*
D12*
X93153535Y-139035447D02*
X93121755Y-139021449D01*
D11*
X91277999Y-139068567D02*
X91277999Y-139068567D01*
D12*
X92802072Y-138724468D02*
X92786241Y-138694308D01*
D10*
X91245171Y-138229937D02*
X91259381Y-138267950D01*
X91259381Y-138267950D02*
X91269657Y-138306585D01*
D11*
X91102449Y-139047063D02*
X91069116Y-139037858D01*
D10*
X91205350Y-138155968D02*
X91227126Y-138192594D01*
D11*
X90575592Y-138385525D02*
X90575592Y-138385525D01*
X91419553Y-137716367D02*
X91453535Y-137723994D01*
D10*
X90908917Y-137894610D02*
X90956909Y-137923753D01*
D13*
X89872146Y-138717247D02*
X89872198Y-138715288D01*
X89872198Y-138715288D02*
X89872355Y-138713352D01*
X89872355Y-138713352D02*
X89872612Y-138711441D01*
X89872612Y-138711441D02*
X89872967Y-138709558D01*
X89872967Y-138709558D02*
X89873418Y-138707704D01*
X89873418Y-138707704D02*
X89873961Y-138705884D01*
X89873961Y-138705884D02*
X89874595Y-138704099D01*
X89874595Y-138704099D02*
X89875316Y-138702352D01*
X89875316Y-138702352D02*
X89876121Y-138700646D01*
X89876121Y-138700646D02*
X89877009Y-138698982D01*
X89877009Y-138698982D02*
X89877976Y-138697365D01*
X89877976Y-138697365D02*
X89879020Y-138695796D01*
X89879020Y-138695796D02*
X89880138Y-138694279D01*
X89880138Y-138694279D02*
X89881327Y-138692815D01*
X89881327Y-138692815D02*
X89882585Y-138691407D01*
X89882585Y-138691407D02*
X89883909Y-138690058D01*
X89883909Y-138690058D02*
X89885296Y-138688771D01*
X89885296Y-138688771D02*
X89886744Y-138687548D01*
X89886744Y-138687548D02*
X89888249Y-138686391D01*
X89888249Y-138686391D02*
X89889810Y-138685304D01*
X89889810Y-138685304D02*
X89891423Y-138684289D01*
X89891423Y-138684289D02*
X89893086Y-138683348D01*
X89893086Y-138683348D02*
X89894796Y-138682485D01*
X89894796Y-138682485D02*
X89896551Y-138681702D01*
X89896551Y-138681702D02*
X89898348Y-138681000D01*
X89898348Y-138681000D02*
X89900183Y-138680384D01*
X89900183Y-138680384D02*
X89902056Y-138679856D01*
X89902056Y-138679856D02*
X89903961Y-138679417D01*
X89903961Y-138679417D02*
X89905898Y-138679072D01*
X89905898Y-138679072D02*
X89907863Y-138678822D01*
X89907863Y-138678822D02*
X89909854Y-138678670D01*
X89909854Y-138678670D02*
X89911868Y-138678619D01*
X89911868Y-138678619D02*
X90109669Y-138678619D01*
X90109669Y-138678619D02*
X90109669Y-138756736D01*
X90109669Y-138756736D02*
X89911868Y-138756736D01*
X89911868Y-138756736D02*
X89909854Y-138756685D01*
X89909854Y-138756685D02*
X89907863Y-138756533D01*
X89907863Y-138756533D02*
X89905898Y-138756283D01*
X89905898Y-138756283D02*
X89903961Y-138755936D01*
X89903961Y-138755936D02*
X89902056Y-138755496D01*
X89902056Y-138755496D02*
X89900183Y-138754965D01*
X89900183Y-138754965D02*
X89898348Y-138754346D01*
X89898348Y-138754346D02*
X89896551Y-138753641D01*
X89896551Y-138753641D02*
X89894796Y-138752851D01*
X89894796Y-138752851D02*
X89893086Y-138751981D01*
X89893086Y-138751981D02*
X89891423Y-138751032D01*
X89891423Y-138751032D02*
X89889810Y-138750006D01*
X89889810Y-138750006D02*
X89888249Y-138748907D01*
X89888249Y-138748907D02*
X89886744Y-138747736D01*
X89886744Y-138747736D02*
X89885296Y-138746496D01*
X89885296Y-138746496D02*
X89883909Y-138745190D01*
X89883909Y-138745190D02*
X89882585Y-138743820D01*
X89882585Y-138743820D02*
X89881327Y-138742388D01*
X89881327Y-138742388D02*
X89880138Y-138740897D01*
X89880138Y-138740897D02*
X89879020Y-138739349D01*
X89879020Y-138739349D02*
X89877976Y-138737747D01*
X89877976Y-138737747D02*
X89877009Y-138736093D01*
X89877009Y-138736093D02*
X89876121Y-138734390D01*
X89876121Y-138734390D02*
X89875316Y-138732640D01*
X89875316Y-138732640D02*
X89874595Y-138730846D01*
X89874595Y-138730846D02*
X89873961Y-138729009D01*
X89873961Y-138729009D02*
X89873418Y-138727133D01*
X89873418Y-138727133D02*
X89872967Y-138725220D01*
X89872967Y-138725220D02*
X89872612Y-138723273D01*
X89872612Y-138723273D02*
X89872355Y-138721293D01*
X89872355Y-138721293D02*
X89872198Y-138719283D01*
X89872198Y-138719283D02*
X89872146Y-138717247D01*
X89872146Y-138717247D02*
X89872146Y-138717247D01*
G36*
X90109669Y-138756736D02*
G01*
X89911868Y-138756736D01*
X89909854Y-138756685D01*
X89907863Y-138756533D01*
X89905898Y-138756283D01*
X89903961Y-138755936D01*
X89902056Y-138755496D01*
X89900183Y-138754965D01*
X89898348Y-138754346D01*
X89896551Y-138753641D01*
X89894796Y-138752851D01*
X89893086Y-138751981D01*
X89891423Y-138751032D01*
X89889810Y-138750006D01*
X89888249Y-138748907D01*
X89886744Y-138747736D01*
X89885296Y-138746496D01*
X89883909Y-138745190D01*
X89882585Y-138743820D01*
X89881327Y-138742388D01*
X89880138Y-138740897D01*
X89879020Y-138739349D01*
X89877976Y-138737747D01*
X89877009Y-138736093D01*
X89876121Y-138734390D01*
X89875316Y-138732640D01*
X89874595Y-138730846D01*
X89873961Y-138729009D01*
X89873418Y-138727133D01*
X89872967Y-138725220D01*
X89872612Y-138723273D01*
X89872355Y-138721293D01*
X89872198Y-138719283D01*
X89872146Y-138717247D01*
X89872198Y-138715288D01*
X89872355Y-138713352D01*
X89872612Y-138711441D01*
X89872967Y-138709558D01*
X89873418Y-138707704D01*
X89873961Y-138705884D01*
X89874595Y-138704099D01*
X89875316Y-138702352D01*
X89876121Y-138700646D01*
X89877009Y-138698982D01*
X89877976Y-138697365D01*
X89879020Y-138695796D01*
X89880138Y-138694279D01*
X89881327Y-138692815D01*
X89882585Y-138691407D01*
X89883909Y-138690058D01*
X89885296Y-138688771D01*
X89886744Y-138687548D01*
X89888249Y-138686391D01*
X89889810Y-138685304D01*
X89891423Y-138684289D01*
X89893086Y-138683348D01*
X89894796Y-138682485D01*
X89896551Y-138681702D01*
X89898348Y-138681000D01*
X89900183Y-138680384D01*
X89902056Y-138679856D01*
X89903961Y-138679417D01*
X89905898Y-138679072D01*
X89907863Y-138678822D01*
X89909854Y-138678670D01*
X89911868Y-138678619D01*
X90109669Y-138678619D01*
X90109669Y-138756736D01*
G37*
X90109669Y-138756736D02*
X89911868Y-138756736D01*
X89909854Y-138756685D01*
X89907863Y-138756533D01*
X89905898Y-138756283D01*
X89903961Y-138755936D01*
X89902056Y-138755496D01*
X89900183Y-138754965D01*
X89898348Y-138754346D01*
X89896551Y-138753641D01*
X89894796Y-138752851D01*
X89893086Y-138751981D01*
X89891423Y-138751032D01*
X89889810Y-138750006D01*
X89888249Y-138748907D01*
X89886744Y-138747736D01*
X89885296Y-138746496D01*
X89883909Y-138745190D01*
X89882585Y-138743820D01*
X89881327Y-138742388D01*
X89880138Y-138740897D01*
X89879020Y-138739349D01*
X89877976Y-138737747D01*
X89877009Y-138736093D01*
X89876121Y-138734390D01*
X89875316Y-138732640D01*
X89874595Y-138730846D01*
X89873961Y-138729009D01*
X89873418Y-138727133D01*
X89872967Y-138725220D01*
X89872612Y-138723273D01*
X89872355Y-138721293D01*
X89872198Y-138719283D01*
X89872146Y-138717247D01*
X89872198Y-138715288D01*
X89872355Y-138713352D01*
X89872612Y-138711441D01*
X89872967Y-138709558D01*
X89873418Y-138707704D01*
X89873961Y-138705884D01*
X89874595Y-138704099D01*
X89875316Y-138702352D01*
X89876121Y-138700646D01*
X89877009Y-138698982D01*
X89877976Y-138697365D01*
X89879020Y-138695796D01*
X89880138Y-138694279D01*
X89881327Y-138692815D01*
X89882585Y-138691407D01*
X89883909Y-138690058D01*
X89885296Y-138688771D01*
X89886744Y-138687548D01*
X89888249Y-138686391D01*
X89889810Y-138685304D01*
X89891423Y-138684289D01*
X89893086Y-138683348D01*
X89894796Y-138682485D01*
X89896551Y-138681702D01*
X89898348Y-138681000D01*
X89900183Y-138680384D01*
X89902056Y-138679856D01*
X89903961Y-138679417D01*
X89905898Y-138679072D01*
X89907863Y-138678822D01*
X89909854Y-138678670D01*
X89911868Y-138678619D01*
X90109669Y-138678619D01*
X90109669Y-138756736D01*
D11*
X91820000Y-137951044D02*
X91840853Y-137976846D01*
X90576506Y-138420674D02*
X90575592Y-138385525D01*
D10*
X91991788Y-139051801D02*
X91928292Y-139029414D01*
D11*
X94027396Y-138784195D02*
X94046304Y-138755982D01*
D12*
X93219456Y-139058949D02*
X93186117Y-139047961D01*
D10*
X92731989Y-139184761D02*
X92650879Y-139179657D01*
D11*
X91878707Y-138031338D02*
X91895620Y-138059942D01*
D10*
X91001978Y-137953999D02*
X91044023Y-137985302D01*
D11*
X91349813Y-139065041D02*
X91314144Y-139067678D01*
D12*
X93288227Y-139076169D02*
X93253508Y-139068366D01*
D10*
X91082943Y-138017613D02*
X91118637Y-138050883D01*
D13*
X89080048Y-138535815D02*
X89080048Y-138678619D01*
X89080048Y-138678619D02*
X89270067Y-138678619D01*
X89270067Y-138678619D02*
X89270067Y-139122949D01*
X89270067Y-139122949D02*
X89416920Y-139122949D01*
X89416920Y-139122949D02*
X89416920Y-138678619D01*
X89416920Y-138678619D02*
X89606930Y-138678619D01*
X89606930Y-138678619D02*
X89606930Y-138535815D01*
X89606930Y-138535815D02*
X89080048Y-138535815D01*
X89080048Y-138535815D02*
X89080048Y-138535815D01*
G36*
X89606930Y-138678619D02*
G01*
X89416920Y-138678619D01*
X89416920Y-139122949D01*
X89270067Y-139122949D01*
X89270067Y-138678619D01*
X89080048Y-138678619D01*
X89080048Y-138535815D01*
X89606930Y-138535815D01*
X89606930Y-138678619D01*
G37*
X89606930Y-138678619D02*
X89416920Y-138678619D01*
X89416920Y-139122949D01*
X89270067Y-139122949D01*
X89270067Y-138678619D01*
X89080048Y-138678619D01*
X89080048Y-138535815D01*
X89606930Y-138535815D01*
X89606930Y-138678619D01*
D10*
X91179942Y-138120109D02*
X91205350Y-138155968D01*
D11*
X90943180Y-138986126D02*
X90913765Y-138969679D01*
D12*
X92759050Y-138631552D02*
X92747781Y-138599044D01*
D10*
X92195176Y-139109748D02*
X92125332Y-139092018D01*
D11*
X94144174Y-138500597D02*
X94149053Y-138465615D01*
X91860436Y-138767416D02*
X91840853Y-138794196D01*
X91612798Y-137784926D02*
X91642213Y-137801372D01*
X90579218Y-138455361D02*
X90576506Y-138420674D01*
D12*
X93395944Y-139089457D02*
X93359490Y-139086758D01*
D10*
X92492676Y-139163636D02*
X92415785Y-139152819D01*
D11*
X91036478Y-137743935D02*
X91069116Y-137733197D01*
X90576506Y-138350374D02*
X90579218Y-138315686D01*
X93574465Y-139074305D02*
X93609256Y-139066803D01*
X91277999Y-139068567D02*
X91241852Y-139067678D01*
X93938893Y-138886921D02*
X93962859Y-138862845D01*
X90805707Y-137879924D02*
X90831193Y-137858457D01*
X90597704Y-138556225D02*
X90589861Y-138523179D01*
X91519502Y-137743935D02*
X91551399Y-137756165D01*
D13*
X85996390Y-138828137D02*
X85996791Y-138843630D01*
X85996791Y-138843630D02*
X85997984Y-138858917D01*
X85997984Y-138858917D02*
X85999947Y-138873980D01*
X85999947Y-138873980D02*
X86002663Y-138888799D01*
X86002663Y-138888799D02*
X86006111Y-138903357D01*
X86006111Y-138903357D02*
X86010272Y-138917633D01*
X86010272Y-138917633D02*
X86015128Y-138931611D01*
X86015128Y-138931611D02*
X86020658Y-138945270D01*
X86020658Y-138945270D02*
X86026844Y-138958591D01*
X86026844Y-138958591D02*
X86033665Y-138971557D01*
X86033665Y-138971557D02*
X86041104Y-138984149D01*
X86041104Y-138984149D02*
X86049140Y-138996347D01*
X86049140Y-138996347D02*
X86057754Y-139008133D01*
X86057754Y-139008133D02*
X86066927Y-139019488D01*
X86066927Y-139019488D02*
X86076640Y-139030393D01*
X86076640Y-139030393D02*
X86086873Y-139040830D01*
X86086873Y-139040830D02*
X86097607Y-139050780D01*
X86097607Y-139050780D02*
X86108823Y-139060224D01*
X86108823Y-139060224D02*
X86120501Y-139069143D01*
X86120501Y-139069143D02*
X86132622Y-139077518D01*
X86132622Y-139077518D02*
X86145167Y-139085332D01*
X86145167Y-139085332D02*
X86158117Y-139092564D01*
X86158117Y-139092564D02*
X86171451Y-139099197D01*
X86171451Y-139099197D02*
X86185152Y-139105211D01*
X86185152Y-139105211D02*
X86199199Y-139110588D01*
X86199199Y-139110588D02*
X86213573Y-139115309D01*
X86213573Y-139115309D02*
X86228255Y-139119355D01*
X86228255Y-139119355D02*
X86243226Y-139122708D01*
X86243226Y-139122708D02*
X86258466Y-139125348D01*
X86258466Y-139125348D02*
X86273956Y-139127257D01*
X86273956Y-139127257D02*
X86289677Y-139128416D01*
X86289677Y-139128416D02*
X86305609Y-139128807D01*
X86305609Y-139128807D02*
X86321467Y-139128416D01*
X86321467Y-139128416D02*
X86337123Y-139127257D01*
X86337123Y-139127257D02*
X86352557Y-139125348D01*
X86352557Y-139125348D02*
X86367750Y-139122708D01*
X86367750Y-139122708D02*
X86382681Y-139119355D01*
X86382681Y-139119355D02*
X86397331Y-139115309D01*
X86397331Y-139115309D02*
X86411681Y-139110588D01*
X86411681Y-139110588D02*
X86425710Y-139105211D01*
X86425710Y-139105211D02*
X86439398Y-139099197D01*
X86439398Y-139099197D02*
X86452727Y-139092564D01*
X86452727Y-139092564D02*
X86465675Y-139085332D01*
X86465675Y-139085332D02*
X86478224Y-139077518D01*
X86478224Y-139077518D02*
X86490353Y-139069143D01*
X86490353Y-139069143D02*
X86502044Y-139060224D01*
X86502044Y-139060224D02*
X86513275Y-139050780D01*
X86513275Y-139050780D02*
X86524028Y-139040830D01*
X86524028Y-139040830D02*
X86534282Y-139030393D01*
X86534282Y-139030393D02*
X86544017Y-139019488D01*
X86544017Y-139019488D02*
X86553215Y-139008133D01*
X86553215Y-139008133D02*
X86561855Y-138996347D01*
X86561855Y-138996347D02*
X86569917Y-138984149D01*
X86569917Y-138984149D02*
X86577382Y-138971557D01*
X86577382Y-138971557D02*
X86584230Y-138958591D01*
X86584230Y-138958591D02*
X86590441Y-138945270D01*
X86590441Y-138945270D02*
X86595996Y-138931611D01*
X86595996Y-138931611D02*
X86600873Y-138917633D01*
X86600873Y-138917633D02*
X86605055Y-138903357D01*
X86605055Y-138903357D02*
X86608521Y-138888799D01*
X86608521Y-138888799D02*
X86611251Y-138873980D01*
X86611251Y-138873980D02*
X86613225Y-138858917D01*
X86613225Y-138858917D02*
X86614424Y-138843630D01*
X86614424Y-138843630D02*
X86614828Y-138828137D01*
X86614828Y-138828137D02*
X86614424Y-138812714D01*
X86614424Y-138812714D02*
X86613225Y-138797487D01*
X86613225Y-138797487D02*
X86611251Y-138782477D01*
X86611251Y-138782477D02*
X86608521Y-138767701D01*
X86608521Y-138767701D02*
X86605055Y-138753179D01*
X86605055Y-138753179D02*
X86600873Y-138738931D01*
X86600873Y-138738931D02*
X86595996Y-138724976D01*
X86595996Y-138724976D02*
X86590441Y-138711332D01*
X86590441Y-138711332D02*
X86584230Y-138698019D01*
X86584230Y-138698019D02*
X86577382Y-138685057D01*
X86577382Y-138685057D02*
X86569917Y-138672464D01*
X86569917Y-138672464D02*
X86561855Y-138660259D01*
X86561855Y-138660259D02*
X86553215Y-138648463D01*
X86553215Y-138648463D02*
X86544017Y-138637094D01*
X86544017Y-138637094D02*
X86534282Y-138626171D01*
X86534282Y-138626171D02*
X86524028Y-138615714D01*
X86524028Y-138615714D02*
X86513275Y-138605742D01*
X86513275Y-138605742D02*
X86502044Y-138596274D01*
X86502044Y-138596274D02*
X86490353Y-138587329D01*
X86490353Y-138587329D02*
X86478224Y-138578926D01*
X86478224Y-138578926D02*
X86465675Y-138571086D01*
X86465675Y-138571086D02*
X86452727Y-138563826D01*
X86452727Y-138563826D02*
X86439398Y-138557166D01*
X86439398Y-138557166D02*
X86425710Y-138551126D01*
X86425710Y-138551126D02*
X86411681Y-138545725D01*
X86411681Y-138545725D02*
X86397331Y-138540981D01*
X86397331Y-138540981D02*
X86382681Y-138536914D01*
X86382681Y-138536914D02*
X86367750Y-138533544D01*
X86367750Y-138533544D02*
X86352557Y-138530889D01*
X86352557Y-138530889D02*
X86337123Y-138528969D01*
X86337123Y-138528969D02*
X86321467Y-138527803D01*
X86321467Y-138527803D02*
X86305609Y-138527410D01*
X86305609Y-138527410D02*
X86289677Y-138527803D01*
X86289677Y-138527803D02*
X86273956Y-138528969D01*
X86273956Y-138528969D02*
X86258466Y-138530889D01*
X86258466Y-138530889D02*
X86243226Y-138533544D01*
X86243226Y-138533544D02*
X86228255Y-138536914D01*
X86228255Y-138536914D02*
X86213573Y-138540981D01*
X86213573Y-138540981D02*
X86199199Y-138545725D01*
X86199199Y-138545725D02*
X86185152Y-138551126D01*
X86185152Y-138551126D02*
X86171451Y-138557166D01*
X86171451Y-138557166D02*
X86158117Y-138563826D01*
X86158117Y-138563826D02*
X86145167Y-138571086D01*
X86145167Y-138571086D02*
X86132622Y-138578926D01*
X86132622Y-138578926D02*
X86120501Y-138587329D01*
X86120501Y-138587329D02*
X86108823Y-138596274D01*
X86108823Y-138596274D02*
X86097607Y-138605742D01*
X86097607Y-138605742D02*
X86086873Y-138615714D01*
X86086873Y-138615714D02*
X86076640Y-138626171D01*
X86076640Y-138626171D02*
X86066927Y-138637094D01*
X86066927Y-138637094D02*
X86057754Y-138648463D01*
X86057754Y-138648463D02*
X86049140Y-138660259D01*
X86049140Y-138660259D02*
X86041104Y-138672464D01*
X86041104Y-138672464D02*
X86033665Y-138685057D01*
X86033665Y-138685057D02*
X86026844Y-138698019D01*
X86026844Y-138698019D02*
X86020658Y-138711332D01*
X86020658Y-138711332D02*
X86015128Y-138724976D01*
X86015128Y-138724976D02*
X86010272Y-138738931D01*
X86010272Y-138738931D02*
X86006111Y-138753179D01*
X86006111Y-138753179D02*
X86002663Y-138767701D01*
X86002663Y-138767701D02*
X85999947Y-138782477D01*
X85999947Y-138782477D02*
X85997984Y-138797487D01*
X85997984Y-138797487D02*
X85996791Y-138812714D01*
X85996791Y-138812714D02*
X85996390Y-138828137D01*
X85996390Y-138828137D02*
X85996390Y-138828137D01*
G36*
X86321467Y-138527803D02*
G01*
X86337123Y-138528969D01*
X86352557Y-138530889D01*
X86367750Y-138533544D01*
X86382681Y-138536914D01*
X86397331Y-138540981D01*
X86411681Y-138545725D01*
X86425710Y-138551126D01*
X86439398Y-138557166D01*
X86452727Y-138563826D01*
X86465675Y-138571086D01*
X86478224Y-138578926D01*
X86490353Y-138587329D01*
X86502044Y-138596274D01*
X86513275Y-138605742D01*
X86524028Y-138615714D01*
X86534282Y-138626171D01*
X86544017Y-138637094D01*
X86553215Y-138648463D01*
X86561855Y-138660259D01*
X86569917Y-138672464D01*
X86577382Y-138685057D01*
X86584230Y-138698019D01*
X86590441Y-138711332D01*
X86595996Y-138724976D01*
X86600873Y-138738931D01*
X86605055Y-138753179D01*
X86608521Y-138767701D01*
X86611251Y-138782477D01*
X86613225Y-138797487D01*
X86614424Y-138812714D01*
X86614828Y-138828137D01*
X86614424Y-138843630D01*
X86613225Y-138858917D01*
X86611251Y-138873980D01*
X86608521Y-138888799D01*
X86605055Y-138903357D01*
X86600873Y-138917633D01*
X86595996Y-138931611D01*
X86590441Y-138945270D01*
X86584230Y-138958591D01*
X86577382Y-138971557D01*
X86569917Y-138984149D01*
X86561855Y-138996347D01*
X86553215Y-139008133D01*
X86544017Y-139019488D01*
X86534282Y-139030393D01*
X86524028Y-139040830D01*
X86513275Y-139050780D01*
X86502044Y-139060224D01*
X86490353Y-139069143D01*
X86478224Y-139077518D01*
X86465675Y-139085332D01*
X86452727Y-139092564D01*
X86439398Y-139099197D01*
X86425710Y-139105211D01*
X86411681Y-139110588D01*
X86397331Y-139115309D01*
X86382681Y-139119355D01*
X86367750Y-139122708D01*
X86352557Y-139125348D01*
X86337123Y-139127257D01*
X86321467Y-139128416D01*
X86305609Y-139128807D01*
X86289677Y-139128416D01*
X86273956Y-139127257D01*
X86258466Y-139125348D01*
X86243226Y-139122708D01*
X86228255Y-139119355D01*
X86213573Y-139115309D01*
X86199199Y-139110588D01*
X86185152Y-139105211D01*
X86171451Y-139099197D01*
X86158117Y-139092564D01*
X86145167Y-139085332D01*
X86132622Y-139077518D01*
X86120501Y-139069143D01*
X86108823Y-139060224D01*
X86097607Y-139050780D01*
X86086873Y-139040830D01*
X86076640Y-139030393D01*
X86066927Y-139019488D01*
X86057754Y-139008133D01*
X86049140Y-138996347D01*
X86041104Y-138984149D01*
X86033665Y-138971557D01*
X86026844Y-138958591D01*
X86020658Y-138945270D01*
X86015128Y-138931611D01*
X86010272Y-138917633D01*
X86006111Y-138903357D01*
X86002663Y-138888799D01*
X85999947Y-138873980D01*
X85997984Y-138858917D01*
X85996791Y-138843630D01*
X85996390Y-138828137D01*
X85996791Y-138812714D01*
X85997984Y-138797487D01*
X85999947Y-138782477D01*
X86002663Y-138767701D01*
X86006111Y-138753179D01*
X86010272Y-138738931D01*
X86015128Y-138724976D01*
X86020658Y-138711332D01*
X86026844Y-138698019D01*
X86033665Y-138685057D01*
X86041104Y-138672464D01*
X86049140Y-138660259D01*
X86057754Y-138648463D01*
X86066927Y-138637094D01*
X86076640Y-138626171D01*
X86086873Y-138615714D01*
X86097607Y-138605742D01*
X86108823Y-138596274D01*
X86120501Y-138587329D01*
X86132622Y-138578926D01*
X86145167Y-138571086D01*
X86158117Y-138563826D01*
X86171451Y-138557166D01*
X86185152Y-138551126D01*
X86199199Y-138545725D01*
X86213573Y-138540981D01*
X86228255Y-138536914D01*
X86243226Y-138533544D01*
X86258466Y-138530889D01*
X86273956Y-138528969D01*
X86289677Y-138527803D01*
X86305609Y-138527410D01*
X86321467Y-138527803D01*
G37*
X86321467Y-138527803D02*
X86337123Y-138528969D01*
X86352557Y-138530889D01*
X86367750Y-138533544D01*
X86382681Y-138536914D01*
X86397331Y-138540981D01*
X86411681Y-138545725D01*
X86425710Y-138551126D01*
X86439398Y-138557166D01*
X86452727Y-138563826D01*
X86465675Y-138571086D01*
X86478224Y-138578926D01*
X86490353Y-138587329D01*
X86502044Y-138596274D01*
X86513275Y-138605742D01*
X86524028Y-138615714D01*
X86534282Y-138626171D01*
X86544017Y-138637094D01*
X86553215Y-138648463D01*
X86561855Y-138660259D01*
X86569917Y-138672464D01*
X86577382Y-138685057D01*
X86584230Y-138698019D01*
X86590441Y-138711332D01*
X86595996Y-138724976D01*
X86600873Y-138738931D01*
X86605055Y-138753179D01*
X86608521Y-138767701D01*
X86611251Y-138782477D01*
X86613225Y-138797487D01*
X86614424Y-138812714D01*
X86614828Y-138828137D01*
X86614424Y-138843630D01*
X86613225Y-138858917D01*
X86611251Y-138873980D01*
X86608521Y-138888799D01*
X86605055Y-138903357D01*
X86600873Y-138917633D01*
X86595996Y-138931611D01*
X86590441Y-138945270D01*
X86584230Y-138958591D01*
X86577382Y-138971557D01*
X86569917Y-138984149D01*
X86561855Y-138996347D01*
X86553215Y-139008133D01*
X86544017Y-139019488D01*
X86534282Y-139030393D01*
X86524028Y-139040830D01*
X86513275Y-139050780D01*
X86502044Y-139060224D01*
X86490353Y-139069143D01*
X86478224Y-139077518D01*
X86465675Y-139085332D01*
X86452727Y-139092564D01*
X86439398Y-139099197D01*
X86425710Y-139105211D01*
X86411681Y-139110588D01*
X86397331Y-139115309D01*
X86382681Y-139119355D01*
X86367750Y-139122708D01*
X86352557Y-139125348D01*
X86337123Y-139127257D01*
X86321467Y-139128416D01*
X86305609Y-139128807D01*
X86289677Y-139128416D01*
X86273956Y-139127257D01*
X86258466Y-139125348D01*
X86243226Y-139122708D01*
X86228255Y-139119355D01*
X86213573Y-139115309D01*
X86199199Y-139110588D01*
X86185152Y-139105211D01*
X86171451Y-139099197D01*
X86158117Y-139092564D01*
X86145167Y-139085332D01*
X86132622Y-139077518D01*
X86120501Y-139069143D01*
X86108823Y-139060224D01*
X86097607Y-139050780D01*
X86086873Y-139040830D01*
X86076640Y-139030393D01*
X86066927Y-139019488D01*
X86057754Y-139008133D01*
X86049140Y-138996347D01*
X86041104Y-138984149D01*
X86033665Y-138971557D01*
X86026844Y-138958591D01*
X86020658Y-138945270D01*
X86015128Y-138931611D01*
X86010272Y-138917633D01*
X86006111Y-138903357D01*
X86002663Y-138888799D01*
X85999947Y-138873980D01*
X85997984Y-138858917D01*
X85996791Y-138843630D01*
X85996390Y-138828137D01*
X85996791Y-138812714D01*
X85997984Y-138797487D01*
X85999947Y-138782477D01*
X86002663Y-138767701D01*
X86006111Y-138753179D01*
X86010272Y-138738931D01*
X86015128Y-138724976D01*
X86020658Y-138711332D01*
X86026844Y-138698019D01*
X86033665Y-138685057D01*
X86041104Y-138672464D01*
X86049140Y-138660259D01*
X86057754Y-138648463D01*
X86066927Y-138637094D01*
X86076640Y-138626171D01*
X86086873Y-138615714D01*
X86097607Y-138605742D01*
X86108823Y-138596274D01*
X86120501Y-138587329D01*
X86132622Y-138578926D01*
X86145167Y-138571086D01*
X86158117Y-138563826D01*
X86171451Y-138557166D01*
X86185152Y-138551126D01*
X86199199Y-138545725D01*
X86213573Y-138540981D01*
X86228255Y-138536914D01*
X86243226Y-138533544D01*
X86258466Y-138530889D01*
X86273956Y-138528969D01*
X86289677Y-138527803D01*
X86305609Y-138527410D01*
X86321467Y-138527803D01*
D11*
X91774666Y-138868505D02*
X91750271Y-138891122D01*
X93741436Y-139021032D02*
X93772509Y-139005865D01*
X91774665Y-137902540D02*
X91797923Y-137926261D01*
D10*
X89986862Y-137629632D02*
X90065139Y-137638241D01*
D11*
X94152148Y-138430097D02*
X94153412Y-138394087D01*
X94079943Y-138696823D02*
X94094583Y-138665963D01*
D10*
X91867115Y-139005575D02*
X91808358Y-138980335D01*
D13*
X88325982Y-138781933D02*
X88056485Y-138781933D01*
X88056485Y-138781933D02*
X88056485Y-139016255D01*
X88056485Y-139016255D02*
X88077225Y-139037255D01*
X88077225Y-139037255D02*
X88088014Y-139047419D01*
X88088014Y-139047419D02*
X88099615Y-139057104D01*
X88099615Y-139057104D02*
X88111967Y-139066288D01*
X88111967Y-139066288D02*
X88125012Y-139074945D01*
X88125012Y-139074945D02*
X88138689Y-139083052D01*
X88138689Y-139083052D02*
X88152940Y-139090582D01*
X88152940Y-139090582D02*
X88167704Y-139097512D01*
X88167704Y-139097512D02*
X88182923Y-139103817D01*
X88182923Y-139103817D02*
X88198536Y-139109473D01*
X88198536Y-139109473D02*
X88214484Y-139114454D01*
X88214484Y-139114454D02*
X88230707Y-139118737D01*
X88230707Y-139118737D02*
X88247146Y-139122296D01*
X88247146Y-139122296D02*
X88263741Y-139125107D01*
X88263741Y-139125107D02*
X88280434Y-139127145D01*
X88280434Y-139127145D02*
X88297163Y-139128386D01*
X88297163Y-139128386D02*
X88313869Y-139128805D01*
X88313869Y-139128805D02*
X88329728Y-139128415D01*
X88329728Y-139128415D02*
X88345379Y-139127256D01*
X88345379Y-139127256D02*
X88360804Y-139125347D01*
X88360804Y-139125347D02*
X88375983Y-139122708D01*
X88375983Y-139122708D02*
X88390897Y-139119357D01*
X88390897Y-139119357D02*
X88405526Y-139115313D01*
X88405526Y-139115313D02*
X88419851Y-139110595D01*
X88419851Y-139110595D02*
X88433852Y-139105223D01*
X88433852Y-139105223D02*
X88447510Y-139099214D01*
X88447510Y-139099214D02*
X88460806Y-139092588D01*
X88460806Y-139092588D02*
X88473719Y-139085364D01*
X88473719Y-139085364D02*
X88486231Y-139077561D01*
X88486231Y-139077561D02*
X88498323Y-139069197D01*
X88498323Y-139069197D02*
X88509974Y-139060292D01*
X88509974Y-139060292D02*
X88521165Y-139050864D01*
X88521165Y-139050864D02*
X88531877Y-139040932D01*
X88531877Y-139040932D02*
X88542091Y-139030516D01*
X88542091Y-139030516D02*
X88551787Y-139019634D01*
X88551787Y-139019634D02*
X88560945Y-139008305D01*
X88560945Y-139008305D02*
X88569546Y-138996548D01*
X88569546Y-138996548D02*
X88577571Y-138984382D01*
X88577571Y-138984382D02*
X88585000Y-138971826D01*
X88585000Y-138971826D02*
X88591813Y-138958899D01*
X88591813Y-138958899D02*
X88597992Y-138945619D01*
X88597992Y-138945619D02*
X88603517Y-138932006D01*
X88603517Y-138932006D02*
X88608369Y-138918078D01*
X88608369Y-138918078D02*
X88612527Y-138903855D01*
X88612527Y-138903855D02*
X88615973Y-138889355D01*
X88615973Y-138889355D02*
X88618687Y-138874597D01*
X88618687Y-138874597D02*
X88620649Y-138859601D01*
X88620649Y-138859601D02*
X88621841Y-138844384D01*
X88621841Y-138844384D02*
X88622243Y-138828967D01*
X88622243Y-138828967D02*
X88621841Y-138813549D01*
X88621841Y-138813549D02*
X88620649Y-138798331D01*
X88620649Y-138798331D02*
X88618687Y-138783334D01*
X88618687Y-138783334D02*
X88615973Y-138768575D01*
X88615973Y-138768575D02*
X88612527Y-138754074D01*
X88612527Y-138754074D02*
X88608369Y-138739849D01*
X88608369Y-138739849D02*
X88603517Y-138725920D01*
X88603517Y-138725920D02*
X88597992Y-138712306D01*
X88597992Y-138712306D02*
X88591813Y-138699025D01*
X88591813Y-138699025D02*
X88585000Y-138686096D01*
X88585000Y-138686096D02*
X88577571Y-138673538D01*
X88577571Y-138673538D02*
X88569546Y-138661371D01*
X88569546Y-138661371D02*
X88560945Y-138649612D01*
X88560945Y-138649612D02*
X88551787Y-138638282D01*
X88551787Y-138638282D02*
X88542091Y-138627399D01*
X88542091Y-138627399D02*
X88531877Y-138616981D01*
X88531877Y-138616981D02*
X88521165Y-138607048D01*
X88521165Y-138607048D02*
X88509974Y-138597619D01*
X88509974Y-138597619D02*
X88498323Y-138588713D01*
X88498323Y-138588713D02*
X88486231Y-138580348D01*
X88486231Y-138580348D02*
X88473719Y-138572543D01*
X88473719Y-138572543D02*
X88460806Y-138565318D01*
X88460806Y-138565318D02*
X88447510Y-138558691D01*
X88447510Y-138558691D02*
X88433852Y-138552681D01*
X88433852Y-138552681D02*
X88419851Y-138547308D01*
X88419851Y-138547308D02*
X88405526Y-138542589D01*
X88405526Y-138542589D02*
X88390897Y-138538545D01*
X88390897Y-138538545D02*
X88375983Y-138535193D01*
X88375983Y-138535193D02*
X88360804Y-138532554D01*
X88360804Y-138532554D02*
X88345379Y-138530645D01*
X88345379Y-138530645D02*
X88329728Y-138529486D01*
X88329728Y-138529486D02*
X88313869Y-138529095D01*
X88313869Y-138529095D02*
X88297085Y-138529545D01*
X88297085Y-138529545D02*
X88280434Y-138530885D01*
X88280434Y-138530885D02*
X88263951Y-138533098D01*
X88263951Y-138533098D02*
X88247667Y-138536169D01*
X88247667Y-138536169D02*
X88231616Y-138540081D01*
X88231616Y-138540081D02*
X88215830Y-138544820D01*
X88215830Y-138544820D02*
X88200343Y-138550368D01*
X88200343Y-138550368D02*
X88185187Y-138556709D01*
X88185187Y-138556709D02*
X88170396Y-138563829D01*
X88170396Y-138563829D02*
X88156001Y-138571710D01*
X88156001Y-138571710D02*
X88142037Y-138580337D01*
X88142037Y-138580337D02*
X88128535Y-138589694D01*
X88128535Y-138589694D02*
X88115529Y-138599766D01*
X88115529Y-138599766D02*
X88103052Y-138610535D01*
X88103052Y-138610535D02*
X88091136Y-138621986D01*
X88091136Y-138621986D02*
X88079814Y-138634103D01*
X88079814Y-138634103D02*
X88191234Y-138727331D01*
X88191234Y-138727331D02*
X88197222Y-138720893D01*
X88197222Y-138720893D02*
X88203516Y-138714818D01*
X88203516Y-138714818D02*
X88210099Y-138709113D01*
X88210099Y-138709113D02*
X88216953Y-138703784D01*
X88216953Y-138703784D02*
X88224061Y-138698840D01*
X88224061Y-138698840D02*
X88231403Y-138694287D01*
X88231403Y-138694287D02*
X88238964Y-138690134D01*
X88238964Y-138690134D02*
X88246724Y-138686386D01*
X88246724Y-138686386D02*
X88254667Y-138683052D01*
X88254667Y-138683052D02*
X88262774Y-138680139D01*
X88262774Y-138680139D02*
X88271027Y-138677654D01*
X88271027Y-138677654D02*
X88279409Y-138675604D01*
X88279409Y-138675604D02*
X88287902Y-138673998D01*
X88287902Y-138673998D02*
X88296488Y-138672841D01*
X88296488Y-138672841D02*
X88305150Y-138672141D01*
X88305150Y-138672141D02*
X88313869Y-138671907D01*
X88313869Y-138671907D02*
X88322160Y-138672112D01*
X88322160Y-138672112D02*
X88330345Y-138672720D01*
X88330345Y-138672720D02*
X88338413Y-138673722D01*
X88338413Y-138673722D02*
X88346353Y-138675107D01*
X88346353Y-138675107D02*
X88354157Y-138676865D01*
X88354157Y-138676865D02*
X88361812Y-138678987D01*
X88361812Y-138678987D02*
X88369310Y-138681462D01*
X88369310Y-138681462D02*
X88376640Y-138684281D01*
X88376640Y-138684281D02*
X88383791Y-138687433D01*
X88383791Y-138687433D02*
X88390753Y-138690908D01*
X88390753Y-138690908D02*
X88397517Y-138694697D01*
X88397517Y-138694697D02*
X88404071Y-138698789D01*
X88404071Y-138698789D02*
X88410405Y-138703175D01*
X88410405Y-138703175D02*
X88416510Y-138707844D01*
X88416510Y-138707844D02*
X88422375Y-138712787D01*
X88422375Y-138712787D02*
X88427989Y-138717993D01*
X88427989Y-138717993D02*
X88433343Y-138723452D01*
X88433343Y-138723452D02*
X88438425Y-138729155D01*
X88438425Y-138729155D02*
X88443227Y-138735092D01*
X88443227Y-138735092D02*
X88447737Y-138741252D01*
X88447737Y-138741252D02*
X88451945Y-138747625D01*
X88451945Y-138747625D02*
X88455841Y-138754202D01*
X88455841Y-138754202D02*
X88459415Y-138760973D01*
X88459415Y-138760973D02*
X88462657Y-138767927D01*
X88462657Y-138767927D02*
X88465555Y-138775054D01*
X88465555Y-138775054D02*
X88468100Y-138782345D01*
X88468100Y-138782345D02*
X88470282Y-138789790D01*
X88470282Y-138789790D02*
X88472091Y-138797378D01*
X88472091Y-138797378D02*
X88473515Y-138805100D01*
X88473515Y-138805100D02*
X88474545Y-138812945D01*
X88474545Y-138812945D02*
X88475171Y-138820904D01*
X88475171Y-138820904D02*
X88475381Y-138828967D01*
X88475381Y-138828967D02*
X88475171Y-138837027D01*
X88475171Y-138837027D02*
X88474545Y-138844979D01*
X88474545Y-138844979D02*
X88473515Y-138852813D01*
X88473515Y-138852813D02*
X88472091Y-138860520D01*
X88472091Y-138860520D02*
X88470282Y-138868089D01*
X88470282Y-138868089D02*
X88468100Y-138875512D01*
X88468100Y-138875512D02*
X88465555Y-138882778D01*
X88465555Y-138882778D02*
X88462657Y-138889878D01*
X88462657Y-138889878D02*
X88459415Y-138896802D01*
X88459415Y-138896802D02*
X88455841Y-138903540D01*
X88455841Y-138903540D02*
X88451945Y-138910083D01*
X88451945Y-138910083D02*
X88447737Y-138916421D01*
X88447737Y-138916421D02*
X88443227Y-138922544D01*
X88443227Y-138922544D02*
X88438425Y-138928443D01*
X88438425Y-138928443D02*
X88433343Y-138934107D01*
X88433343Y-138934107D02*
X88427989Y-138939528D01*
X88427989Y-138939528D02*
X88422375Y-138944696D01*
X88422375Y-138944696D02*
X88416510Y-138949600D01*
X88416510Y-138949600D02*
X88410405Y-138954232D01*
X88410405Y-138954232D02*
X88404071Y-138958581D01*
X88404071Y-138958581D02*
X88397517Y-138962638D01*
X88397517Y-138962638D02*
X88390753Y-138966392D01*
X88390753Y-138966392D02*
X88383791Y-138969836D01*
X88383791Y-138969836D02*
X88376640Y-138972957D01*
X88376640Y-138972957D02*
X88369310Y-138975748D01*
X88369310Y-138975748D02*
X88361812Y-138978199D01*
X88361812Y-138978199D02*
X88354157Y-138980299D01*
X88354157Y-138980299D02*
X88346353Y-138982038D01*
X88346353Y-138982038D02*
X88338413Y-138983408D01*
X88338413Y-138983408D02*
X88330345Y-138984399D01*
X88330345Y-138984399D02*
X88322160Y-138985000D01*
X88322160Y-138985000D02*
X88313869Y-138985203D01*
X88313869Y-138985203D02*
X88306699Y-138985057D01*
X88306699Y-138985057D02*
X88299452Y-138984626D01*
X88299452Y-138984626D02*
X88292150Y-138983918D01*
X88292150Y-138983918D02*
X88284818Y-138982945D01*
X88284818Y-138982945D02*
X88277481Y-138981716D01*
X88277481Y-138981716D02*
X88270163Y-138980241D01*
X88270163Y-138980241D02*
X88262887Y-138978529D01*
X88262887Y-138978529D02*
X88255678Y-138976591D01*
X88255678Y-138976591D02*
X88248560Y-138974436D01*
X88248560Y-138974436D02*
X88241556Y-138972074D01*
X88241556Y-138972074D02*
X88234692Y-138969515D01*
X88234692Y-138969515D02*
X88227992Y-138966769D01*
X88227992Y-138966769D02*
X88221478Y-138963846D01*
X88221478Y-138963846D02*
X88215177Y-138960755D01*
X88215177Y-138960755D02*
X88209111Y-138957507D01*
X88209111Y-138957507D02*
X88203304Y-138954110D01*
X88203304Y-138954110D02*
X88203304Y-138924713D01*
X88203304Y-138924713D02*
X88325982Y-138924713D01*
X88325982Y-138924713D02*
X88325982Y-138781933D01*
X88325982Y-138781933D02*
X88325982Y-138781933D01*
G36*
X88329728Y-138529486D02*
G01*
X88345379Y-138530645D01*
X88360804Y-138532554D01*
X88375983Y-138535193D01*
X88390897Y-138538545D01*
X88405526Y-138542589D01*
X88419851Y-138547308D01*
X88433852Y-138552681D01*
X88447510Y-138558691D01*
X88460806Y-138565318D01*
X88473719Y-138572543D01*
X88486231Y-138580348D01*
X88498323Y-138588713D01*
X88509974Y-138597619D01*
X88521165Y-138607048D01*
X88531877Y-138616981D01*
X88542091Y-138627399D01*
X88551787Y-138638282D01*
X88560945Y-138649612D01*
X88569546Y-138661371D01*
X88577571Y-138673538D01*
X88585000Y-138686096D01*
X88591813Y-138699025D01*
X88597992Y-138712306D01*
X88603517Y-138725920D01*
X88608369Y-138739849D01*
X88612527Y-138754074D01*
X88615973Y-138768575D01*
X88618687Y-138783334D01*
X88620649Y-138798331D01*
X88621841Y-138813549D01*
X88622243Y-138828967D01*
X88621841Y-138844384D01*
X88620649Y-138859601D01*
X88618687Y-138874597D01*
X88615973Y-138889355D01*
X88612527Y-138903855D01*
X88608369Y-138918078D01*
X88603517Y-138932006D01*
X88597992Y-138945619D01*
X88591813Y-138958899D01*
X88585000Y-138971826D01*
X88577571Y-138984382D01*
X88569546Y-138996548D01*
X88560945Y-139008305D01*
X88551787Y-139019634D01*
X88542091Y-139030516D01*
X88531877Y-139040932D01*
X88521165Y-139050864D01*
X88509974Y-139060292D01*
X88498323Y-139069197D01*
X88486231Y-139077561D01*
X88473719Y-139085364D01*
X88460806Y-139092588D01*
X88447510Y-139099214D01*
X88433852Y-139105223D01*
X88419851Y-139110595D01*
X88405526Y-139115313D01*
X88390897Y-139119357D01*
X88375983Y-139122708D01*
X88360804Y-139125347D01*
X88345379Y-139127256D01*
X88329728Y-139128415D01*
X88313869Y-139128805D01*
X88297163Y-139128386D01*
X88280434Y-139127145D01*
X88263741Y-139125107D01*
X88247146Y-139122296D01*
X88230707Y-139118737D01*
X88214484Y-139114454D01*
X88198536Y-139109473D01*
X88182923Y-139103817D01*
X88167704Y-139097512D01*
X88152940Y-139090582D01*
X88138689Y-139083052D01*
X88125012Y-139074945D01*
X88111967Y-139066288D01*
X88099615Y-139057104D01*
X88088014Y-139047419D01*
X88077225Y-139037255D01*
X88056485Y-139016255D01*
X88056485Y-138781933D01*
X88325982Y-138781933D01*
X88325982Y-138924713D01*
X88203304Y-138924713D01*
X88203304Y-138954110D01*
X88209111Y-138957507D01*
X88215177Y-138960755D01*
X88221478Y-138963846D01*
X88227992Y-138966769D01*
X88234692Y-138969515D01*
X88241556Y-138972074D01*
X88248560Y-138974436D01*
X88255678Y-138976591D01*
X88262887Y-138978529D01*
X88270163Y-138980241D01*
X88277481Y-138981716D01*
X88284818Y-138982945D01*
X88292150Y-138983918D01*
X88299452Y-138984626D01*
X88306699Y-138985057D01*
X88313869Y-138985203D01*
X88322160Y-138985000D01*
X88330345Y-138984399D01*
X88338413Y-138983408D01*
X88346353Y-138982038D01*
X88354157Y-138980299D01*
X88361812Y-138978199D01*
X88369310Y-138975748D01*
X88376640Y-138972957D01*
X88383791Y-138969836D01*
X88390753Y-138966392D01*
X88397517Y-138962638D01*
X88404071Y-138958581D01*
X88410405Y-138954232D01*
X88416510Y-138949600D01*
X88422375Y-138944696D01*
X88427989Y-138939528D01*
X88433343Y-138934107D01*
X88438425Y-138928443D01*
X88443227Y-138922544D01*
X88447737Y-138916421D01*
X88451945Y-138910083D01*
X88455841Y-138903540D01*
X88459415Y-138896802D01*
X88462657Y-138889878D01*
X88465555Y-138882778D01*
X88468100Y-138875512D01*
X88470282Y-138868089D01*
X88472091Y-138860520D01*
X88473515Y-138852813D01*
X88474545Y-138844979D01*
X88475171Y-138837027D01*
X88475381Y-138828967D01*
X88475171Y-138820904D01*
X88474545Y-138812945D01*
X88473515Y-138805100D01*
X88472091Y-138797378D01*
X88470282Y-138789790D01*
X88468100Y-138782345D01*
X88465555Y-138775054D01*
X88462657Y-138767927D01*
X88459415Y-138760973D01*
X88455841Y-138754202D01*
X88451945Y-138747625D01*
X88447737Y-138741252D01*
X88443227Y-138735092D01*
X88438425Y-138729155D01*
X88433343Y-138723452D01*
X88427989Y-138717993D01*
X88422375Y-138712787D01*
X88416510Y-138707844D01*
X88410405Y-138703175D01*
X88404071Y-138698789D01*
X88397517Y-138694697D01*
X88390753Y-138690908D01*
X88383791Y-138687433D01*
X88376640Y-138684281D01*
X88369310Y-138681462D01*
X88361812Y-138678987D01*
X88354157Y-138676865D01*
X88346353Y-138675107D01*
X88338413Y-138673722D01*
X88330345Y-138672720D01*
X88322160Y-138672112D01*
X88313869Y-138671907D01*
X88305150Y-138672141D01*
X88296488Y-138672841D01*
X88287902Y-138673998D01*
X88279409Y-138675604D01*
X88271027Y-138677654D01*
X88262774Y-138680139D01*
X88254667Y-138683052D01*
X88246724Y-138686386D01*
X88238964Y-138690134D01*
X88231403Y-138694287D01*
X88224061Y-138698840D01*
X88216953Y-138703784D01*
X88210099Y-138709113D01*
X88203516Y-138714818D01*
X88197222Y-138720893D01*
X88191234Y-138727331D01*
X88079814Y-138634103D01*
X88091136Y-138621986D01*
X88103052Y-138610535D01*
X88115529Y-138599766D01*
X88128535Y-138589694D01*
X88142037Y-138580337D01*
X88156001Y-138571710D01*
X88170396Y-138563829D01*
X88185187Y-138556709D01*
X88200343Y-138550368D01*
X88215830Y-138544820D01*
X88231616Y-138540081D01*
X88247667Y-138536169D01*
X88263951Y-138533098D01*
X88280434Y-138530885D01*
X88297085Y-138529545D01*
X88313869Y-138529095D01*
X88329728Y-138529486D01*
G37*
X88329728Y-138529486D02*
X88345379Y-138530645D01*
X88360804Y-138532554D01*
X88375983Y-138535193D01*
X88390897Y-138538545D01*
X88405526Y-138542589D01*
X88419851Y-138547308D01*
X88433852Y-138552681D01*
X88447510Y-138558691D01*
X88460806Y-138565318D01*
X88473719Y-138572543D01*
X88486231Y-138580348D01*
X88498323Y-138588713D01*
X88509974Y-138597619D01*
X88521165Y-138607048D01*
X88531877Y-138616981D01*
X88542091Y-138627399D01*
X88551787Y-138638282D01*
X88560945Y-138649612D01*
X88569546Y-138661371D01*
X88577571Y-138673538D01*
X88585000Y-138686096D01*
X88591813Y-138699025D01*
X88597992Y-138712306D01*
X88603517Y-138725920D01*
X88608369Y-138739849D01*
X88612527Y-138754074D01*
X88615973Y-138768575D01*
X88618687Y-138783334D01*
X88620649Y-138798331D01*
X88621841Y-138813549D01*
X88622243Y-138828967D01*
X88621841Y-138844384D01*
X88620649Y-138859601D01*
X88618687Y-138874597D01*
X88615973Y-138889355D01*
X88612527Y-138903855D01*
X88608369Y-138918078D01*
X88603517Y-138932006D01*
X88597992Y-138945619D01*
X88591813Y-138958899D01*
X88585000Y-138971826D01*
X88577571Y-138984382D01*
X88569546Y-138996548D01*
X88560945Y-139008305D01*
X88551787Y-139019634D01*
X88542091Y-139030516D01*
X88531877Y-139040932D01*
X88521165Y-139050864D01*
X88509974Y-139060292D01*
X88498323Y-139069197D01*
X88486231Y-139077561D01*
X88473719Y-139085364D01*
X88460806Y-139092588D01*
X88447510Y-139099214D01*
X88433852Y-139105223D01*
X88419851Y-139110595D01*
X88405526Y-139115313D01*
X88390897Y-139119357D01*
X88375983Y-139122708D01*
X88360804Y-139125347D01*
X88345379Y-139127256D01*
X88329728Y-139128415D01*
X88313869Y-139128805D01*
X88297163Y-139128386D01*
X88280434Y-139127145D01*
X88263741Y-139125107D01*
X88247146Y-139122296D01*
X88230707Y-139118737D01*
X88214484Y-139114454D01*
X88198536Y-139109473D01*
X88182923Y-139103817D01*
X88167704Y-139097512D01*
X88152940Y-139090582D01*
X88138689Y-139083052D01*
X88125012Y-139074945D01*
X88111967Y-139066288D01*
X88099615Y-139057104D01*
X88088014Y-139047419D01*
X88077225Y-139037255D01*
X88056485Y-139016255D01*
X88056485Y-138781933D01*
X88325982Y-138781933D01*
X88325982Y-138924713D01*
X88203304Y-138924713D01*
X88203304Y-138954110D01*
X88209111Y-138957507D01*
X88215177Y-138960755D01*
X88221478Y-138963846D01*
X88227992Y-138966769D01*
X88234692Y-138969515D01*
X88241556Y-138972074D01*
X88248560Y-138974436D01*
X88255678Y-138976591D01*
X88262887Y-138978529D01*
X88270163Y-138980241D01*
X88277481Y-138981716D01*
X88284818Y-138982945D01*
X88292150Y-138983918D01*
X88299452Y-138984626D01*
X88306699Y-138985057D01*
X88313869Y-138985203D01*
X88322160Y-138985000D01*
X88330345Y-138984399D01*
X88338413Y-138983408D01*
X88346353Y-138982038D01*
X88354157Y-138980299D01*
X88361812Y-138978199D01*
X88369310Y-138975748D01*
X88376640Y-138972957D01*
X88383791Y-138969836D01*
X88390753Y-138966392D01*
X88397517Y-138962638D01*
X88404071Y-138958581D01*
X88410405Y-138954232D01*
X88416510Y-138949600D01*
X88422375Y-138944696D01*
X88427989Y-138939528D01*
X88433343Y-138934107D01*
X88438425Y-138928443D01*
X88443227Y-138922544D01*
X88447737Y-138916421D01*
X88451945Y-138910083D01*
X88455841Y-138903540D01*
X88459415Y-138896802D01*
X88462657Y-138889878D01*
X88465555Y-138882778D01*
X88468100Y-138875512D01*
X88470282Y-138868089D01*
X88472091Y-138860520D01*
X88473515Y-138852813D01*
X88474545Y-138844979D01*
X88475171Y-138837027D01*
X88475381Y-138828967D01*
X88475171Y-138820904D01*
X88474545Y-138812945D01*
X88473515Y-138805100D01*
X88472091Y-138797378D01*
X88470282Y-138789790D01*
X88468100Y-138782345D01*
X88465555Y-138775054D01*
X88462657Y-138767927D01*
X88459415Y-138760973D01*
X88455841Y-138754202D01*
X88451945Y-138747625D01*
X88447737Y-138741252D01*
X88443227Y-138735092D01*
X88438425Y-138729155D01*
X88433343Y-138723452D01*
X88427989Y-138717993D01*
X88422375Y-138712787D01*
X88416510Y-138707844D01*
X88410405Y-138703175D01*
X88404071Y-138698789D01*
X88397517Y-138694697D01*
X88390753Y-138690908D01*
X88383791Y-138687433D01*
X88376640Y-138684281D01*
X88369310Y-138681462D01*
X88361812Y-138678987D01*
X88354157Y-138676865D01*
X88346353Y-138675107D01*
X88338413Y-138673722D01*
X88330345Y-138672720D01*
X88322160Y-138672112D01*
X88313869Y-138671907D01*
X88305150Y-138672141D01*
X88296488Y-138672841D01*
X88287902Y-138673998D01*
X88279409Y-138675604D01*
X88271027Y-138677654D01*
X88262774Y-138680139D01*
X88254667Y-138683052D01*
X88246724Y-138686386D01*
X88238964Y-138690134D01*
X88231403Y-138694287D01*
X88224061Y-138698840D01*
X88216953Y-138703784D01*
X88210099Y-138709113D01*
X88203516Y-138714818D01*
X88197222Y-138720893D01*
X88191234Y-138727331D01*
X88079814Y-138634103D01*
X88091136Y-138621986D01*
X88103052Y-138610535D01*
X88115529Y-138599766D01*
X88128535Y-138589694D01*
X88142037Y-138580337D01*
X88156001Y-138571710D01*
X88170396Y-138563829D01*
X88185187Y-138556709D01*
X88200343Y-138550368D01*
X88215830Y-138544820D01*
X88231616Y-138540081D01*
X88247667Y-138536169D01*
X88263951Y-138533098D01*
X88280434Y-138530885D01*
X88297085Y-138529545D01*
X88313869Y-138529095D01*
X88329728Y-138529486D01*
D11*
X91724785Y-137858457D02*
X91750271Y-137879924D01*
X93985628Y-138837670D02*
X94007155Y-138811438D01*
X90583685Y-138489544D02*
X90579218Y-138455361D01*
X91171024Y-139060697D02*
X91136433Y-139054690D01*
D10*
X90290535Y-137674558D02*
X90362184Y-137689999D01*
D11*
X94107709Y-138634307D02*
X94119276Y-138601900D01*
X91453535Y-137723994D02*
X91486866Y-137733197D01*
D10*
X91554424Y-138834870D02*
X91512317Y-138802276D01*
X91227126Y-138192594D02*
X91245171Y-138229937D01*
X91698510Y-138925851D02*
X91647622Y-138896708D01*
D11*
X91972305Y-138281501D02*
X91976772Y-138315686D01*
X93676833Y-139046983D02*
X93709529Y-139034752D01*
X90973466Y-137769842D02*
X91004580Y-137756165D01*
X91419554Y-139054690D02*
X91384965Y-139060697D01*
X91206179Y-139065041D02*
X91171024Y-139060697D01*
X90913765Y-137801372D02*
X90943180Y-137784926D01*
X91642213Y-137801372D02*
X91670711Y-137819137D01*
X93887553Y-138931602D02*
X93913776Y-138909855D01*
D12*
X93323570Y-139082315D02*
X93288227Y-139076169D01*
D11*
X91860436Y-138003626D02*
X91878707Y-138031338D01*
D10*
X89826197Y-137617950D02*
X89907181Y-137622853D01*
D11*
X91750271Y-138891122D02*
X91724785Y-138912591D01*
X90695546Y-138003626D02*
X90715128Y-137976846D01*
X90715128Y-137976846D02*
X90735980Y-137951044D01*
X91980399Y-138385525D02*
X91980399Y-138385525D01*
D10*
X90141911Y-137648630D02*
X90217077Y-137660752D01*
D12*
X92879258Y-138835972D02*
X92857972Y-138809554D01*
D11*
X94063835Y-138726843D02*
X94079943Y-138696823D01*
X91069116Y-139037858D02*
X91036479Y-139027119D01*
D10*
X92650879Y-139179657D02*
X92571074Y-139172599D01*
D11*
X94129240Y-138568783D02*
X94137554Y-138535001D01*
D10*
X91275897Y-138345793D02*
X91277999Y-138385525D01*
D11*
X93913776Y-138909855D02*
X93938893Y-138886921D01*
X91878707Y-138739703D02*
X91860436Y-138767416D01*
X90857727Y-137838180D02*
X90885266Y-137819137D01*
X90589861Y-138247864D02*
X90597704Y-138214818D01*
D12*
X93003560Y-138951509D02*
X92976466Y-138930754D01*
D11*
X93609256Y-139066803D02*
X93643393Y-139057681D01*
X93503105Y-139084275D02*
X93539066Y-139080143D01*
X90973467Y-139001210D02*
X90943180Y-138986126D01*
X91486866Y-137733197D02*
X91519502Y-137743935D01*
D12*
X92925539Y-138885628D02*
X92901796Y-138861344D01*
D11*
X90677276Y-138739703D02*
X90660364Y-138711100D01*
D12*
X92786241Y-138694308D02*
X92771885Y-138663321D01*
D11*
X91820000Y-138820000D02*
X91797923Y-138844784D01*
X91895620Y-138711100D02*
X91878707Y-138739703D01*
X91797923Y-138844784D02*
X91774666Y-138868505D01*
X91241852Y-139067678D02*
X91206179Y-139065041D01*
X91958284Y-138556225D02*
X91948819Y-138588638D01*
X91277999Y-137702491D02*
X91277999Y-137702491D01*
D10*
X90628665Y-137767156D02*
X90689751Y-137790052D01*
X92266934Y-139125825D02*
X92195176Y-139109748D01*
D11*
X90575592Y-138385525D02*
X90576506Y-138350374D01*
D10*
X91296644Y-138507960D02*
X91286354Y-138467729D01*
X91328946Y-138586430D02*
X91310876Y-138547544D01*
X91512317Y-138802276D02*
X91473340Y-138768633D01*
D11*
X91972305Y-138489544D02*
X91966128Y-138523179D01*
D12*
X93432886Y-139090366D02*
X93395944Y-139089457D01*
D11*
X90831193Y-138912591D02*
X90805707Y-138891122D01*
X91980399Y-138385525D02*
X91979485Y-138420674D01*
X90885266Y-137819137D02*
X90913765Y-137801372D01*
D10*
X90065139Y-137638241D02*
X90141911Y-137648630D01*
D12*
X92716492Y-138426955D02*
X92715559Y-138390934D01*
D11*
X94094583Y-138665963D02*
X94107709Y-138634307D01*
X90583684Y-138281501D02*
X90589861Y-138247864D01*
X91582512Y-137769842D02*
X91612798Y-137784926D01*
D10*
X90362184Y-137689999D02*
X90431922Y-137707028D01*
D12*
X93253508Y-139068366D02*
X93219456Y-139058949D01*
D11*
X91840853Y-137976846D02*
X91860436Y-138003626D01*
D13*
X89814254Y-138872619D02*
X89710625Y-139122949D01*
X89710625Y-139122949D02*
X89872146Y-139122949D01*
X89872146Y-139122949D02*
X89961961Y-138899510D01*
X89961961Y-138899510D02*
X90109669Y-138899510D01*
X90109669Y-138899510D02*
X90109669Y-139122949D01*
X90109669Y-139122949D02*
X90256488Y-139122949D01*
X90256488Y-139122949D02*
X90256488Y-138535815D01*
X90256488Y-138535815D02*
X89911868Y-138535815D01*
X89911868Y-138535815D02*
X89902288Y-138536052D01*
X89902288Y-138536052D02*
X89892825Y-138536755D01*
X89892825Y-138536755D02*
X89883494Y-138537912D01*
X89883494Y-138537912D02*
X89874305Y-138539512D01*
X89874305Y-138539512D02*
X89865271Y-138541543D01*
X89865271Y-138541543D02*
X89856404Y-138543994D01*
X89856404Y-138543994D02*
X89847717Y-138546854D01*
X89847717Y-138546854D02*
X89839221Y-138550110D01*
X89839221Y-138550110D02*
X89830929Y-138553751D01*
X89830929Y-138553751D02*
X89822853Y-138557765D01*
X89822853Y-138557765D02*
X89815004Y-138562142D01*
X89815004Y-138562142D02*
X89807396Y-138566870D01*
X89807396Y-138566870D02*
X89800041Y-138571936D01*
X89800041Y-138571936D02*
X89792950Y-138577330D01*
X89792950Y-138577330D02*
X89786135Y-138583039D01*
X89786135Y-138583039D02*
X89779610Y-138589053D01*
X89779610Y-138589053D02*
X89773386Y-138595360D01*
X89773386Y-138595360D02*
X89767475Y-138601948D01*
X89767475Y-138601948D02*
X89761889Y-138608805D01*
X89761889Y-138608805D02*
X89756642Y-138615921D01*
X89756642Y-138615921D02*
X89751744Y-138623284D01*
X89751744Y-138623284D02*
X89747208Y-138630881D01*
X89747208Y-138630881D02*
X89743046Y-138638702D01*
X89743046Y-138638702D02*
X89739271Y-138646735D01*
X89739271Y-138646735D02*
X89735894Y-138654969D01*
X89735894Y-138654969D02*
X89732928Y-138663391D01*
X89732928Y-138663391D02*
X89730384Y-138671991D01*
X89730384Y-138671991D02*
X89728276Y-138680757D01*
X89728276Y-138680757D02*
X89726616Y-138689677D01*
X89726616Y-138689677D02*
X89725414Y-138698739D01*
X89725414Y-138698739D02*
X89724684Y-138707933D01*
X89724684Y-138707933D02*
X89724438Y-138717247D01*
X89724438Y-138717247D02*
X89724859Y-138729438D01*
X89724859Y-138729438D02*
X89726102Y-138741424D01*
X89726102Y-138741424D02*
X89728140Y-138753179D01*
X89728140Y-138753179D02*
X89730945Y-138764675D01*
X89730945Y-138764675D02*
X89734489Y-138775886D01*
X89734489Y-138775886D02*
X89738743Y-138786784D01*
X89738743Y-138786784D02*
X89743681Y-138797342D01*
X89743681Y-138797342D02*
X89749274Y-138807533D01*
X89749274Y-138807533D02*
X89755494Y-138817331D01*
X89755494Y-138817331D02*
X89762313Y-138826708D01*
X89762313Y-138826708D02*
X89769704Y-138835637D01*
X89769704Y-138835637D02*
X89777639Y-138844091D01*
X89777639Y-138844091D02*
X89786089Y-138852044D01*
X89786089Y-138852044D02*
X89795027Y-138859467D01*
X89795027Y-138859467D02*
X89804425Y-138866335D01*
X89804425Y-138866335D02*
X89814255Y-138872619D01*
X89814255Y-138872619D02*
X89814254Y-138872619D01*
X89814254Y-138872619D02*
X89814254Y-138872619D01*
G36*
X90256488Y-139122949D02*
G01*
X90109669Y-139122949D01*
X90109669Y-138899510D01*
X89961961Y-138899510D01*
X89872146Y-139122949D01*
X89710625Y-139122949D01*
X89814254Y-138872619D01*
X89814255Y-138872619D01*
X89804425Y-138866335D01*
X89795027Y-138859467D01*
X89786089Y-138852044D01*
X89777639Y-138844091D01*
X89769704Y-138835637D01*
X89762313Y-138826708D01*
X89755494Y-138817331D01*
X89749274Y-138807533D01*
X89743681Y-138797342D01*
X89738743Y-138786784D01*
X89734489Y-138775886D01*
X89730945Y-138764675D01*
X89728140Y-138753179D01*
X89726102Y-138741424D01*
X89724859Y-138729438D01*
X89724438Y-138717247D01*
X89724684Y-138707933D01*
X89725414Y-138698739D01*
X89726616Y-138689677D01*
X89728276Y-138680757D01*
X89730384Y-138671991D01*
X89732928Y-138663391D01*
X89735894Y-138654969D01*
X89739271Y-138646735D01*
X89743046Y-138638702D01*
X89747208Y-138630881D01*
X89751744Y-138623284D01*
X89756642Y-138615921D01*
X89761889Y-138608805D01*
X89767475Y-138601948D01*
X89773386Y-138595360D01*
X89779610Y-138589053D01*
X89786135Y-138583039D01*
X89792950Y-138577330D01*
X89800041Y-138571936D01*
X89807396Y-138566870D01*
X89815004Y-138562142D01*
X89822853Y-138557765D01*
X89830929Y-138553751D01*
X89839221Y-138550110D01*
X89847717Y-138546854D01*
X89856404Y-138543994D01*
X89865271Y-138541543D01*
X89874305Y-138539512D01*
X89883494Y-138537912D01*
X89892825Y-138536755D01*
X89902288Y-138536052D01*
X89911868Y-138535815D01*
X90256488Y-138535815D01*
X90256488Y-139122949D01*
G37*
X90256488Y-139122949D02*
X90109669Y-139122949D01*
X90109669Y-138899510D01*
X89961961Y-138899510D01*
X89872146Y-139122949D01*
X89710625Y-139122949D01*
X89814254Y-138872619D01*
X89814255Y-138872619D01*
X89804425Y-138866335D01*
X89795027Y-138859467D01*
X89786089Y-138852044D01*
X89777639Y-138844091D01*
X89769704Y-138835637D01*
X89762313Y-138826708D01*
X89755494Y-138817331D01*
X89749274Y-138807533D01*
X89743681Y-138797342D01*
X89738743Y-138786784D01*
X89734489Y-138775886D01*
X89730945Y-138764675D01*
X89728140Y-138753179D01*
X89726102Y-138741424D01*
X89724859Y-138729438D01*
X89724438Y-138717247D01*
X89724684Y-138707933D01*
X89725414Y-138698739D01*
X89726616Y-138689677D01*
X89728276Y-138680757D01*
X89730384Y-138671991D01*
X89732928Y-138663391D01*
X89735894Y-138654969D01*
X89739271Y-138646735D01*
X89743046Y-138638702D01*
X89747208Y-138630881D01*
X89751744Y-138623284D01*
X89756642Y-138615921D01*
X89761889Y-138608805D01*
X89767475Y-138601948D01*
X89773386Y-138595360D01*
X89779610Y-138589053D01*
X89786135Y-138583039D01*
X89792950Y-138577330D01*
X89800041Y-138571936D01*
X89807396Y-138566870D01*
X89815004Y-138562142D01*
X89822853Y-138557765D01*
X89830929Y-138553751D01*
X89839221Y-138550110D01*
X89847717Y-138546854D01*
X89856404Y-138543994D01*
X89865271Y-138541543D01*
X89874305Y-138539512D01*
X89883494Y-138537912D01*
X89892825Y-138536755D01*
X89902288Y-138536052D01*
X89911868Y-138535815D01*
X90256488Y-138535815D01*
X90256488Y-139122949D01*
D11*
X90831193Y-137858457D02*
X90857727Y-137838180D01*
X90735980Y-137951044D02*
X90758056Y-137926261D01*
X91384964Y-137710361D02*
X91419553Y-137716367D01*
X91979485Y-138350374D02*
X91980399Y-138385525D01*
X91171024Y-137710361D02*
X91206178Y-137706018D01*
D10*
X91286354Y-138467729D02*
X91280105Y-138426901D01*
D11*
X93831971Y-138971366D02*
X93860270Y-138952120D01*
X90644853Y-138089393D02*
X90660364Y-138059942D01*
D13*
X86143243Y-138828137D02*
X86143453Y-138819996D01*
X86143453Y-138819996D02*
X86144079Y-138811965D01*
X86144079Y-138811965D02*
X86145110Y-138804051D01*
X86145110Y-138804051D02*
X86146535Y-138796266D01*
X86146535Y-138796266D02*
X86148345Y-138788618D01*
X86148345Y-138788618D02*
X86150529Y-138781119D01*
X86150529Y-138781119D02*
X86153078Y-138773777D01*
X86153078Y-138773777D02*
X86155981Y-138766602D01*
X86155981Y-138766602D02*
X86159228Y-138759605D01*
X86159228Y-138759605D02*
X86162809Y-138752795D01*
X86162809Y-138752795D02*
X86166714Y-138746181D01*
X86166714Y-138746181D02*
X86170932Y-138739775D01*
X86170932Y-138739775D02*
X86175455Y-138733585D01*
X86175455Y-138733585D02*
X86180270Y-138727622D01*
X86180270Y-138727622D02*
X86185369Y-138721895D01*
X86185369Y-138721895D02*
X86190742Y-138716414D01*
X86190742Y-138716414D02*
X86196377Y-138711190D01*
X86196377Y-138711190D02*
X86202266Y-138706231D01*
X86202266Y-138706231D02*
X86208398Y-138701547D01*
X86208398Y-138701547D02*
X86214762Y-138697149D01*
X86214762Y-138697149D02*
X86221349Y-138693047D01*
X86221349Y-138693047D02*
X86228149Y-138689249D01*
X86228149Y-138689249D02*
X86235151Y-138685767D01*
X86235151Y-138685767D02*
X86242345Y-138682609D01*
X86242345Y-138682609D02*
X86249721Y-138679786D01*
X86249721Y-138679786D02*
X86257270Y-138677308D01*
X86257270Y-138677308D02*
X86264981Y-138675184D01*
X86264981Y-138675184D02*
X86272843Y-138673424D01*
X86272843Y-138673424D02*
X86280847Y-138672038D01*
X86280847Y-138672038D02*
X86288983Y-138671036D01*
X86288983Y-138671036D02*
X86297240Y-138670427D01*
X86297240Y-138670427D02*
X86305609Y-138670222D01*
X86305609Y-138670222D02*
X86313903Y-138670427D01*
X86313903Y-138670427D02*
X86322095Y-138671036D01*
X86322095Y-138671036D02*
X86330174Y-138672038D01*
X86330174Y-138672038D02*
X86338131Y-138673424D01*
X86338131Y-138673424D02*
X86345955Y-138675184D01*
X86345955Y-138675184D02*
X86353634Y-138677308D01*
X86353634Y-138677308D02*
X86361159Y-138679786D01*
X86361159Y-138679786D02*
X86368518Y-138682609D01*
X86368518Y-138682609D02*
X86375702Y-138685767D01*
X86375702Y-138685767D02*
X86382699Y-138689249D01*
X86382699Y-138689249D02*
X86389499Y-138693047D01*
X86389499Y-138693047D02*
X86396091Y-138697149D01*
X86396091Y-138697149D02*
X86402466Y-138701547D01*
X86402466Y-138701547D02*
X86408611Y-138706231D01*
X86408611Y-138706231D02*
X86414517Y-138711190D01*
X86414517Y-138711190D02*
X86420173Y-138716414D01*
X86420173Y-138716414D02*
X86425568Y-138721895D01*
X86425568Y-138721895D02*
X86430692Y-138727622D01*
X86430692Y-138727622D02*
X86435534Y-138733585D01*
X86435534Y-138733585D02*
X86440084Y-138739775D01*
X86440084Y-138739775D02*
X86444330Y-138746181D01*
X86444330Y-138746181D02*
X86448263Y-138752795D01*
X86448263Y-138752795D02*
X86451872Y-138759605D01*
X86451872Y-138759605D02*
X86455145Y-138766602D01*
X86455145Y-138766602D02*
X86458074Y-138773777D01*
X86458074Y-138773777D02*
X86460646Y-138781119D01*
X86460646Y-138781119D02*
X86462852Y-138788618D01*
X86462852Y-138788618D02*
X86464680Y-138796266D01*
X86464680Y-138796266D02*
X86466121Y-138804051D01*
X86466121Y-138804051D02*
X86467163Y-138811965D01*
X86467163Y-138811965D02*
X86467796Y-138819996D01*
X86467796Y-138819996D02*
X86468009Y-138828137D01*
X86468009Y-138828137D02*
X86467796Y-138836275D01*
X86467796Y-138836275D02*
X86467163Y-138844304D01*
X86467163Y-138844304D02*
X86466121Y-138852216D01*
X86466121Y-138852216D02*
X86464680Y-138859999D01*
X86464680Y-138859999D02*
X86462852Y-138867645D01*
X86462852Y-138867645D02*
X86460646Y-138875143D01*
X86460646Y-138875143D02*
X86458074Y-138882484D01*
X86458074Y-138882484D02*
X86455145Y-138889657D01*
X86455145Y-138889657D02*
X86451872Y-138896653D01*
X86451872Y-138896653D02*
X86448263Y-138903462D01*
X86448263Y-138903462D02*
X86444330Y-138910074D01*
X86444330Y-138910074D02*
X86440084Y-138916479D01*
X86440084Y-138916479D02*
X86435534Y-138922668D01*
X86435534Y-138922668D02*
X86430692Y-138928631D01*
X86430692Y-138928631D02*
X86425568Y-138934357D01*
X86425568Y-138934357D02*
X86420173Y-138939837D01*
X86420173Y-138939837D02*
X86414517Y-138945062D01*
X86414517Y-138945062D02*
X86408611Y-138950020D01*
X86408611Y-138950020D02*
X86402466Y-138954703D01*
X86402466Y-138954703D02*
X86396091Y-138959101D01*
X86396091Y-138959101D02*
X86389499Y-138963203D01*
X86389499Y-138963203D02*
X86382699Y-138967000D01*
X86382699Y-138967000D02*
X86375702Y-138970482D01*
X86375702Y-138970482D02*
X86368518Y-138973640D01*
X86368518Y-138973640D02*
X86361159Y-138976463D01*
X86361159Y-138976463D02*
X86353634Y-138978941D01*
X86353634Y-138978941D02*
X86345955Y-138981065D01*
X86345955Y-138981065D02*
X86338131Y-138982825D01*
X86338131Y-138982825D02*
X86330174Y-138984211D01*
X86330174Y-138984211D02*
X86322095Y-138985214D01*
X86322095Y-138985214D02*
X86313903Y-138985822D01*
X86313903Y-138985822D02*
X86305609Y-138986027D01*
X86305609Y-138986027D02*
X86297240Y-138985822D01*
X86297240Y-138985822D02*
X86288983Y-138985214D01*
X86288983Y-138985214D02*
X86280847Y-138984211D01*
X86280847Y-138984211D02*
X86272843Y-138982825D01*
X86272843Y-138982825D02*
X86264981Y-138981065D01*
X86264981Y-138981065D02*
X86257270Y-138978941D01*
X86257270Y-138978941D02*
X86249721Y-138976463D01*
X86249721Y-138976463D02*
X86242345Y-138973640D01*
X86242345Y-138973640D02*
X86235151Y-138970482D01*
X86235151Y-138970482D02*
X86228149Y-138967000D01*
X86228149Y-138967000D02*
X86221349Y-138963203D01*
X86221349Y-138963203D02*
X86214762Y-138959101D01*
X86214762Y-138959101D02*
X86208398Y-138954703D01*
X86208398Y-138954703D02*
X86202266Y-138950020D01*
X86202266Y-138950020D02*
X86196377Y-138945062D01*
X86196377Y-138945062D02*
X86190742Y-138939837D01*
X86190742Y-138939837D02*
X86185369Y-138934357D01*
X86185369Y-138934357D02*
X86180270Y-138928631D01*
X86180270Y-138928631D02*
X86175455Y-138922668D01*
X86175455Y-138922668D02*
X86170932Y-138916479D01*
X86170932Y-138916479D02*
X86166714Y-138910074D01*
X86166714Y-138910074D02*
X86162809Y-138903462D01*
X86162809Y-138903462D02*
X86159228Y-138896653D01*
X86159228Y-138896653D02*
X86155981Y-138889657D01*
X86155981Y-138889657D02*
X86153078Y-138882484D01*
X86153078Y-138882484D02*
X86150529Y-138875143D01*
X86150529Y-138875143D02*
X86148345Y-138867645D01*
X86148345Y-138867645D02*
X86146535Y-138859999D01*
X86146535Y-138859999D02*
X86145110Y-138852216D01*
X86145110Y-138852216D02*
X86144079Y-138844304D01*
X86144079Y-138844304D02*
X86143453Y-138836275D01*
X86143453Y-138836275D02*
X86143243Y-138828137D01*
X86143243Y-138828137D02*
X86143243Y-138828137D01*
G36*
X86313903Y-138670427D02*
G01*
X86322095Y-138671036D01*
X86330174Y-138672038D01*
X86338131Y-138673424D01*
X86345955Y-138675184D01*
X86353634Y-138677308D01*
X86361159Y-138679786D01*
X86368518Y-138682609D01*
X86375702Y-138685767D01*
X86382699Y-138689249D01*
X86389499Y-138693047D01*
X86396091Y-138697149D01*
X86402466Y-138701547D01*
X86408611Y-138706231D01*
X86414517Y-138711190D01*
X86420173Y-138716414D01*
X86425568Y-138721895D01*
X86430692Y-138727622D01*
X86435534Y-138733585D01*
X86440084Y-138739775D01*
X86444330Y-138746181D01*
X86448263Y-138752795D01*
X86451872Y-138759605D01*
X86455145Y-138766602D01*
X86458074Y-138773777D01*
X86460646Y-138781119D01*
X86462852Y-138788618D01*
X86464680Y-138796266D01*
X86466121Y-138804051D01*
X86467163Y-138811965D01*
X86467796Y-138819996D01*
X86468009Y-138828137D01*
X86467796Y-138836275D01*
X86467163Y-138844304D01*
X86466121Y-138852216D01*
X86464680Y-138859999D01*
X86462852Y-138867645D01*
X86460646Y-138875143D01*
X86458074Y-138882484D01*
X86455145Y-138889657D01*
X86451872Y-138896653D01*
X86448263Y-138903462D01*
X86444330Y-138910074D01*
X86440084Y-138916479D01*
X86435534Y-138922668D01*
X86430692Y-138928631D01*
X86425568Y-138934357D01*
X86420173Y-138939837D01*
X86414517Y-138945062D01*
X86408611Y-138950020D01*
X86402466Y-138954703D01*
X86396091Y-138959101D01*
X86389499Y-138963203D01*
X86382699Y-138967000D01*
X86375702Y-138970482D01*
X86368518Y-138973640D01*
X86361159Y-138976463D01*
X86353634Y-138978941D01*
X86345955Y-138981065D01*
X86338131Y-138982825D01*
X86330174Y-138984211D01*
X86322095Y-138985214D01*
X86313903Y-138985822D01*
X86305609Y-138986027D01*
X86297240Y-138985822D01*
X86288983Y-138985214D01*
X86280847Y-138984211D01*
X86272843Y-138982825D01*
X86264981Y-138981065D01*
X86257270Y-138978941D01*
X86249721Y-138976463D01*
X86242345Y-138973640D01*
X86235151Y-138970482D01*
X86228149Y-138967000D01*
X86221349Y-138963203D01*
X86214762Y-138959101D01*
X86208398Y-138954703D01*
X86202266Y-138950020D01*
X86196377Y-138945062D01*
X86190742Y-138939837D01*
X86185369Y-138934357D01*
X86180270Y-138928631D01*
X86175455Y-138922668D01*
X86170932Y-138916479D01*
X86166714Y-138910074D01*
X86162809Y-138903462D01*
X86159228Y-138896653D01*
X86155981Y-138889657D01*
X86153078Y-138882484D01*
X86150529Y-138875143D01*
X86148345Y-138867645D01*
X86146535Y-138859999D01*
X86145110Y-138852216D01*
X86144079Y-138844304D01*
X86143453Y-138836275D01*
X86143243Y-138828137D01*
X86143453Y-138819996D01*
X86144079Y-138811965D01*
X86145110Y-138804051D01*
X86146535Y-138796266D01*
X86148345Y-138788618D01*
X86150529Y-138781119D01*
X86153078Y-138773777D01*
X86155981Y-138766602D01*
X86159228Y-138759605D01*
X86162809Y-138752795D01*
X86166714Y-138746181D01*
X86170932Y-138739775D01*
X86175455Y-138733585D01*
X86180270Y-138727622D01*
X86185369Y-138721895D01*
X86190742Y-138716414D01*
X86196377Y-138711190D01*
X86202266Y-138706231D01*
X86208398Y-138701547D01*
X86214762Y-138697149D01*
X86221349Y-138693047D01*
X86228149Y-138689249D01*
X86235151Y-138685767D01*
X86242345Y-138682609D01*
X86249721Y-138679786D01*
X86257270Y-138677308D01*
X86264981Y-138675184D01*
X86272843Y-138673424D01*
X86280847Y-138672038D01*
X86288983Y-138671036D01*
X86297240Y-138670427D01*
X86305609Y-138670222D01*
X86313903Y-138670427D01*
G37*
X86313903Y-138670427D02*
X86322095Y-138671036D01*
X86330174Y-138672038D01*
X86338131Y-138673424D01*
X86345955Y-138675184D01*
X86353634Y-138677308D01*
X86361159Y-138679786D01*
X86368518Y-138682609D01*
X86375702Y-138685767D01*
X86382699Y-138689249D01*
X86389499Y-138693047D01*
X86396091Y-138697149D01*
X86402466Y-138701547D01*
X86408611Y-138706231D01*
X86414517Y-138711190D01*
X86420173Y-138716414D01*
X86425568Y-138721895D01*
X86430692Y-138727622D01*
X86435534Y-138733585D01*
X86440084Y-138739775D01*
X86444330Y-138746181D01*
X86448263Y-138752795D01*
X86451872Y-138759605D01*
X86455145Y-138766602D01*
X86458074Y-138773777D01*
X86460646Y-138781119D01*
X86462852Y-138788618D01*
X86464680Y-138796266D01*
X86466121Y-138804051D01*
X86467163Y-138811965D01*
X86467796Y-138819996D01*
X86468009Y-138828137D01*
X86467796Y-138836275D01*
X86467163Y-138844304D01*
X86466121Y-138852216D01*
X86464680Y-138859999D01*
X86462852Y-138867645D01*
X86460646Y-138875143D01*
X86458074Y-138882484D01*
X86455145Y-138889657D01*
X86451872Y-138896653D01*
X86448263Y-138903462D01*
X86444330Y-138910074D01*
X86440084Y-138916479D01*
X86435534Y-138922668D01*
X86430692Y-138928631D01*
X86425568Y-138934357D01*
X86420173Y-138939837D01*
X86414517Y-138945062D01*
X86408611Y-138950020D01*
X86402466Y-138954703D01*
X86396091Y-138959101D01*
X86389499Y-138963203D01*
X86382699Y-138967000D01*
X86375702Y-138970482D01*
X86368518Y-138973640D01*
X86361159Y-138976463D01*
X86353634Y-138978941D01*
X86345955Y-138981065D01*
X86338131Y-138982825D01*
X86330174Y-138984211D01*
X86322095Y-138985214D01*
X86313903Y-138985822D01*
X86305609Y-138986027D01*
X86297240Y-138985822D01*
X86288983Y-138985214D01*
X86280847Y-138984211D01*
X86272843Y-138982825D01*
X86264981Y-138981065D01*
X86257270Y-138978941D01*
X86249721Y-138976463D01*
X86242345Y-138973640D01*
X86235151Y-138970482D01*
X86228149Y-138967000D01*
X86221349Y-138963203D01*
X86214762Y-138959101D01*
X86208398Y-138954703D01*
X86202266Y-138950020D01*
X86196377Y-138945062D01*
X86190742Y-138939837D01*
X86185369Y-138934357D01*
X86180270Y-138928631D01*
X86175455Y-138922668D01*
X86170932Y-138916479D01*
X86166714Y-138910074D01*
X86162809Y-138903462D01*
X86159228Y-138896653D01*
X86155981Y-138889657D01*
X86153078Y-138882484D01*
X86150529Y-138875143D01*
X86148345Y-138867645D01*
X86146535Y-138859999D01*
X86145110Y-138852216D01*
X86144079Y-138844304D01*
X86143453Y-138836275D01*
X86143243Y-138828137D01*
X86143453Y-138819996D01*
X86144079Y-138811965D01*
X86145110Y-138804051D01*
X86146535Y-138796266D01*
X86148345Y-138788618D01*
X86150529Y-138781119D01*
X86153078Y-138773777D01*
X86155981Y-138766602D01*
X86159228Y-138759605D01*
X86162809Y-138752795D01*
X86166714Y-138746181D01*
X86170932Y-138739775D01*
X86175455Y-138733585D01*
X86180270Y-138727622D01*
X86185369Y-138721895D01*
X86190742Y-138716414D01*
X86196377Y-138711190D01*
X86202266Y-138706231D01*
X86208398Y-138701547D01*
X86214762Y-138697149D01*
X86221349Y-138693047D01*
X86228149Y-138689249D01*
X86235151Y-138685767D01*
X86242345Y-138682609D01*
X86249721Y-138679786D01*
X86257270Y-138677308D01*
X86264981Y-138675184D01*
X86272843Y-138673424D01*
X86280847Y-138672038D01*
X86288983Y-138671036D01*
X86297240Y-138670427D01*
X86305609Y-138670222D01*
X86313903Y-138670427D01*
D11*
X93860270Y-138952120D02*
X93887553Y-138931602D01*
X91750271Y-137879924D02*
X91774665Y-137902540D01*
X90735980Y-138820000D02*
X90715129Y-138794196D01*
X90607168Y-138182404D02*
X90618211Y-138150667D01*
X93962859Y-138862845D02*
X93985628Y-138837670D01*
D10*
X91808358Y-138980335D02*
X91752123Y-138953744D01*
D12*
X92738123Y-138565841D02*
X92730120Y-138531987D01*
X92901796Y-138861344D02*
X92879258Y-138835972D01*
D13*
X88915914Y-138535815D02*
X88769095Y-138535815D01*
X88769095Y-138535815D02*
X88769095Y-139121263D01*
X88769095Y-139121263D02*
X88915914Y-139121263D01*
X88915914Y-139121263D02*
X88915914Y-138535815D01*
X88915914Y-138535815D02*
X88915914Y-138535815D01*
G36*
X88915914Y-139121263D02*
G01*
X88769095Y-139121263D01*
X88769095Y-138535815D01*
X88915914Y-138535815D01*
X88915914Y-139121263D01*
G37*
X88915914Y-139121263D02*
X88769095Y-139121263D01*
X88769095Y-138535815D01*
X88915914Y-138535815D01*
X88915914Y-139121263D01*
D10*
X92125332Y-139092018D02*
X92057502Y-139072686D01*
D12*
X92747781Y-138599044D02*
X92738123Y-138565841D01*
D11*
X91670712Y-138951912D02*
X91642213Y-138969679D01*
D10*
X89907181Y-137622853D02*
X89986862Y-137629632D01*
D11*
X91384965Y-139060697D02*
X91349813Y-139065041D01*
X91948819Y-138588638D02*
X91937776Y-138620374D01*
X91895620Y-138059942D02*
X91911132Y-138089393D01*
X91004580Y-137756165D02*
X91036478Y-137743935D01*
D14*
X91277999Y-139549301D02*
X91277999Y-137221759D01*
D11*
X90607169Y-138588638D02*
X90597704Y-138556225D01*
X91612799Y-138986126D02*
X91582513Y-139001210D01*
X91797923Y-137926261D02*
X91820000Y-137951044D01*
D10*
X91350754Y-138624568D02*
X91328946Y-138586430D01*
D11*
X90575592Y-138385525D02*
X90575592Y-138385525D01*
X91551399Y-139014889D02*
X91519502Y-139027119D01*
X91349813Y-137706018D02*
X91384964Y-137710361D01*
X94007155Y-138811438D02*
X94027396Y-138784195D01*
X91937776Y-138150667D02*
X91948819Y-138182404D01*
X91966128Y-138523179D02*
X91958284Y-138556225D01*
X91724785Y-138912591D02*
X91698250Y-138932868D01*
D12*
X92950444Y-138908779D02*
X92925539Y-138885628D01*
X93359490Y-139086758D02*
X93323570Y-139082315D01*
D11*
X90943180Y-137784926D02*
X90973466Y-137769842D01*
D10*
X89744011Y-137614974D02*
X89826197Y-137617950D01*
X91437593Y-138733990D02*
X91405179Y-138698398D01*
X90431922Y-137707028D02*
X90499650Y-137725596D01*
D12*
X93060784Y-138989182D02*
X93031681Y-138970999D01*
D11*
X91948819Y-138182404D02*
X91958284Y-138214818D01*
D10*
X90804572Y-137839832D02*
X90858104Y-137866621D01*
D12*
X93121755Y-139021449D02*
X93090823Y-139006013D01*
X92771885Y-138663321D02*
X92759050Y-138631552D01*
D11*
X91979485Y-138420674D02*
X91976772Y-138455361D01*
D14*
X90128357Y-138385525D02*
X92427642Y-138385525D01*
D11*
X90781314Y-138868505D02*
X90758057Y-138844784D01*
D10*
X92057502Y-139072686D02*
X91991788Y-139051801D01*
D11*
X91698250Y-137838180D02*
X91724785Y-137858457D01*
D13*
X87038081Y-138702958D02*
X87035501Y-138708848D01*
X87035501Y-138708848D02*
X87034424Y-138710622D01*
X87034424Y-138710622D02*
X87033297Y-138712325D01*
X87033297Y-138712325D02*
X87032124Y-138713959D01*
X87032124Y-138713959D02*
X87030904Y-138715526D01*
X87030904Y-138715526D02*
X87029640Y-138717029D01*
X87029640Y-138717029D02*
X87028333Y-138718469D01*
X87028333Y-138718469D02*
X87026986Y-138719850D01*
X87026986Y-138719850D02*
X87025598Y-138721173D01*
X87025598Y-138721173D02*
X87024173Y-138722441D01*
X87024173Y-138722441D02*
X87022711Y-138723656D01*
X87022711Y-138723656D02*
X87019685Y-138725935D01*
X87019685Y-138725935D02*
X87016533Y-138728030D01*
X87016533Y-138728030D02*
X87013266Y-138729960D01*
X87013266Y-138729960D02*
X87009899Y-138731741D01*
X87009899Y-138731741D02*
X87006442Y-138733393D01*
X87006442Y-138733393D02*
X87002910Y-138734935D01*
X87002910Y-138734935D02*
X86999315Y-138736383D01*
X86999315Y-138736383D02*
X86995669Y-138737758D01*
X86995669Y-138737758D02*
X86991985Y-138739076D01*
X86991985Y-138739076D02*
X86984554Y-138741619D01*
X86984554Y-138741619D02*
X86967266Y-138746794D01*
X86967266Y-138746794D02*
X86949811Y-138751726D01*
X86949811Y-138751726D02*
X86914676Y-138761449D01*
X86914676Y-138761449D02*
X86897137Y-138766534D01*
X86897137Y-138766534D02*
X86879712Y-138771964D01*
X86879712Y-138771964D02*
X86862470Y-138777887D01*
X86862470Y-138777887D02*
X86853940Y-138781079D01*
X86853940Y-138781079D02*
X86845483Y-138784449D01*
X86845483Y-138784449D02*
X86838677Y-138787359D01*
X86838677Y-138787359D02*
X86831895Y-138790428D01*
X86831895Y-138790428D02*
X86825154Y-138793657D01*
X86825154Y-138793657D02*
X86818475Y-138797045D01*
X86818475Y-138797045D02*
X86811877Y-138800590D01*
X86811877Y-138800590D02*
X86805380Y-138804292D01*
X86805380Y-138804292D02*
X86799004Y-138808149D01*
X86799004Y-138808149D02*
X86792767Y-138812162D01*
X86792767Y-138812162D02*
X86788431Y-138815206D01*
X86788431Y-138815206D02*
X86784161Y-138818349D01*
X86784161Y-138818349D02*
X86779967Y-138821593D01*
X86779967Y-138821593D02*
X86775855Y-138824938D01*
X86775855Y-138824938D02*
X86771834Y-138828386D01*
X86771834Y-138828386D02*
X86767911Y-138831939D01*
X86767911Y-138831939D02*
X86764094Y-138835597D01*
X86764094Y-138835597D02*
X86760390Y-138839361D01*
X86760390Y-138839361D02*
X86756808Y-138843234D01*
X86756808Y-138843234D02*
X86753354Y-138847217D01*
X86753354Y-138847217D02*
X86750037Y-138851310D01*
X86750037Y-138851310D02*
X86746865Y-138855515D01*
X86746865Y-138855515D02*
X86743844Y-138859834D01*
X86743844Y-138859834D02*
X86740984Y-138864267D01*
X86740984Y-138864267D02*
X86738290Y-138868816D01*
X86738290Y-138868816D02*
X86735772Y-138873483D01*
X86735772Y-138873483D02*
X86731540Y-138882107D01*
X86731540Y-138882107D02*
X86727911Y-138890957D01*
X86727911Y-138890957D02*
X86724879Y-138900003D01*
X86724879Y-138900003D02*
X86722440Y-138909212D01*
X86722440Y-138909212D02*
X86720587Y-138918555D01*
X86720587Y-138918555D02*
X86719316Y-138928000D01*
X86719316Y-138928000D02*
X86718623Y-138937517D01*
X86718623Y-138937517D02*
X86718501Y-138947075D01*
X86718501Y-138947075D02*
X86718946Y-138956643D01*
X86718946Y-138956643D02*
X86719953Y-138966190D01*
X86719953Y-138966190D02*
X86721517Y-138975686D01*
X86721517Y-138975686D02*
X86723632Y-138985099D01*
X86723632Y-138985099D02*
X86726293Y-138994399D01*
X86726293Y-138994399D02*
X86729496Y-139003556D01*
X86729496Y-139003556D02*
X86733236Y-139012537D01*
X86733236Y-139012537D02*
X86737506Y-139021313D01*
X86737506Y-139021313D02*
X86742109Y-139029697D01*
X86742109Y-139029697D02*
X86747155Y-139037837D01*
X86747155Y-139037837D02*
X86752624Y-139045727D01*
X86752624Y-139045727D02*
X86758493Y-139053358D01*
X86758493Y-139053358D02*
X86764741Y-139060724D01*
X86764741Y-139060724D02*
X86771347Y-139067817D01*
X86771347Y-139067817D02*
X86778289Y-139074629D01*
X86778289Y-139074629D02*
X86785547Y-139081154D01*
X86785547Y-139081154D02*
X86793098Y-139087383D01*
X86793098Y-139087383D02*
X86800922Y-139093308D01*
X86800922Y-139093308D02*
X86808996Y-139098924D01*
X86808996Y-139098924D02*
X86817300Y-139104222D01*
X86817300Y-139104222D02*
X86825813Y-139109194D01*
X86825813Y-139109194D02*
X86834512Y-139113834D01*
X86834512Y-139113834D02*
X86843376Y-139118133D01*
X86843376Y-139118133D02*
X86852385Y-139122085D01*
X86852385Y-139122085D02*
X86861523Y-139125692D01*
X86861523Y-139125692D02*
X86870789Y-139128954D01*
X86870789Y-139128954D02*
X86880173Y-139131881D01*
X86880173Y-139131881D02*
X86889660Y-139134482D01*
X86889660Y-139134482D02*
X86899238Y-139136768D01*
X86899238Y-139136768D02*
X86908895Y-139138748D01*
X86908895Y-139138748D02*
X86918618Y-139140433D01*
X86918618Y-139140433D02*
X86928394Y-139141831D01*
X86928394Y-139141831D02*
X86938210Y-139142954D01*
X86938210Y-139142954D02*
X86948055Y-139143810D01*
X86948055Y-139143810D02*
X86957915Y-139144411D01*
X86957915Y-139144411D02*
X86967778Y-139144765D01*
X86967778Y-139144765D02*
X86977631Y-139144882D01*
X86977631Y-139144882D02*
X86987461Y-139144774D01*
X86987461Y-139144774D02*
X86997256Y-139144448D01*
X86997256Y-139144448D02*
X87007003Y-139143916D01*
X87007003Y-139143916D02*
X87023019Y-139142531D01*
X87023019Y-139142531D02*
X87038984Y-139140571D01*
X87038984Y-139140571D02*
X87054865Y-139138032D01*
X87054865Y-139138032D02*
X87070631Y-139134909D01*
X87070631Y-139134909D02*
X87086251Y-139131201D01*
X87086251Y-139131201D02*
X87101692Y-139126902D01*
X87101692Y-139126902D02*
X87116923Y-139122011D01*
X87116923Y-139122011D02*
X87131912Y-139116522D01*
X87131912Y-139116522D02*
X87146628Y-139110432D01*
X87146628Y-139110432D02*
X87161039Y-139103738D01*
X87161039Y-139103738D02*
X87175113Y-139096437D01*
X87175113Y-139096437D02*
X87188819Y-139088524D01*
X87188819Y-139088524D02*
X87202124Y-139079996D01*
X87202124Y-139079996D02*
X87214998Y-139070850D01*
X87214998Y-139070850D02*
X87227409Y-139061082D01*
X87227409Y-139061082D02*
X87239324Y-139050688D01*
X87239324Y-139050688D02*
X87121002Y-138944026D01*
X87121002Y-138944026D02*
X87112361Y-138951998D01*
X87112361Y-138951998D02*
X87103305Y-138959524D01*
X87103305Y-138959524D02*
X87093861Y-138966592D01*
X87093861Y-138966592D02*
X87084060Y-138973189D01*
X87084060Y-138973189D02*
X87073930Y-138979303D01*
X87073930Y-138979303D02*
X87063500Y-138984923D01*
X87063500Y-138984923D02*
X87052800Y-138990036D01*
X87052800Y-138990036D02*
X87041858Y-138994630D01*
X87041858Y-138994630D02*
X87030703Y-138998692D01*
X87030703Y-138998692D02*
X87019365Y-139002211D01*
X87019365Y-139002211D02*
X87007873Y-139005174D01*
X87007873Y-139005174D02*
X86996255Y-139007569D01*
X86996255Y-139007569D02*
X86984541Y-139009384D01*
X86984541Y-139009384D02*
X86972760Y-139010608D01*
X86972760Y-139010608D02*
X86960940Y-139011226D01*
X86960940Y-139011226D02*
X86949111Y-139011229D01*
X86949111Y-139011229D02*
X86942565Y-139010897D01*
X86942565Y-139010897D02*
X86935936Y-139010217D01*
X86935936Y-139010217D02*
X86929305Y-139009174D01*
X86929305Y-139009174D02*
X86922752Y-139007752D01*
X86922752Y-139007752D02*
X86916355Y-139005937D01*
X86916355Y-139005937D02*
X86910196Y-139003714D01*
X86910196Y-139003714D02*
X86904353Y-139001068D01*
X86904353Y-139001068D02*
X86898905Y-138997985D01*
X86898905Y-138997985D02*
X86896355Y-138996275D01*
X86896355Y-138996275D02*
X86893934Y-138994450D01*
X86893934Y-138994450D02*
X86891652Y-138992508D01*
X86891652Y-138992508D02*
X86889519Y-138990448D01*
X86889519Y-138990448D02*
X86887544Y-138988267D01*
X86887544Y-138988267D02*
X86885738Y-138985963D01*
X86885738Y-138985963D02*
X86884111Y-138983536D01*
X86884111Y-138983536D02*
X86882673Y-138980982D01*
X86882673Y-138980982D02*
X86881434Y-138978301D01*
X86881434Y-138978301D02*
X86880403Y-138975490D01*
X86880403Y-138975490D02*
X86879590Y-138972547D01*
X86879590Y-138972547D02*
X86879007Y-138969471D01*
X86879007Y-138969471D02*
X86878661Y-138966260D01*
X86878661Y-138966260D02*
X86878565Y-138962912D01*
X86878565Y-138962912D02*
X86878726Y-138959425D01*
X86878726Y-138959425D02*
X86879156Y-138955796D01*
X86879156Y-138955796D02*
X86879476Y-138954572D01*
X86879476Y-138954572D02*
X86879798Y-138953429D01*
X86879798Y-138953429D02*
X86880122Y-138952365D01*
X86880122Y-138952365D02*
X86880447Y-138951381D01*
X86880447Y-138951381D02*
X86880772Y-138950476D01*
X86880772Y-138950476D02*
X86881096Y-138949649D01*
X86881096Y-138949649D02*
X86881418Y-138948900D01*
X86881418Y-138948900D02*
X86881737Y-138948230D01*
X86881737Y-138948230D02*
X86882910Y-138945835D01*
X86882910Y-138945835D02*
X86884156Y-138943532D01*
X86884156Y-138943532D02*
X86885473Y-138941317D01*
X86885473Y-138941317D02*
X86886858Y-138939188D01*
X86886858Y-138939188D02*
X86888308Y-138937143D01*
X86888308Y-138937143D02*
X86889822Y-138935179D01*
X86889822Y-138935179D02*
X86891396Y-138933294D01*
X86891396Y-138933294D02*
X86893028Y-138931485D01*
X86893028Y-138931485D02*
X86894716Y-138929750D01*
X86894716Y-138929750D02*
X86896457Y-138928086D01*
X86896457Y-138928086D02*
X86898248Y-138926491D01*
X86898248Y-138926491D02*
X86900087Y-138924962D01*
X86900087Y-138924962D02*
X86901972Y-138923498D01*
X86901972Y-138923498D02*
X86903899Y-138922095D01*
X86903899Y-138922095D02*
X86907873Y-138919464D01*
X86907873Y-138919464D02*
X86911989Y-138917050D01*
X86911989Y-138917050D02*
X86916225Y-138914832D01*
X86916225Y-138914832D02*
X86920563Y-138912793D01*
X86920563Y-138912793D02*
X86924982Y-138910910D01*
X86924982Y-138910910D02*
X86929461Y-138909166D01*
X86929461Y-138909166D02*
X86933982Y-138907541D01*
X86933982Y-138907541D02*
X86938522Y-138906014D01*
X86938522Y-138906014D02*
X86943063Y-138904567D01*
X86943063Y-138904567D02*
X87058797Y-138871797D01*
X87058797Y-138871797D02*
X87072995Y-138866822D01*
X87072995Y-138866822D02*
X87080029Y-138864134D01*
X87080029Y-138864134D02*
X87087000Y-138861297D01*
X87087000Y-138861297D02*
X87093895Y-138858304D01*
X87093895Y-138858304D02*
X87100699Y-138855143D01*
X87100699Y-138855143D02*
X87107400Y-138851805D01*
X87107400Y-138851805D02*
X87113983Y-138848280D01*
X87113983Y-138848280D02*
X87120433Y-138844559D01*
X87120433Y-138844559D02*
X87126738Y-138840630D01*
X87126738Y-138840630D02*
X87132883Y-138836485D01*
X87132883Y-138836485D02*
X87138854Y-138832113D01*
X87138854Y-138832113D02*
X87144638Y-138827504D01*
X87144638Y-138827504D02*
X87150220Y-138822649D01*
X87150220Y-138822649D02*
X87155587Y-138817538D01*
X87155587Y-138817538D02*
X87160725Y-138812161D01*
X87160725Y-138812161D02*
X87165906Y-138806524D01*
X87165906Y-138806524D02*
X87170763Y-138800646D01*
X87170763Y-138800646D02*
X87175293Y-138794545D01*
X87175293Y-138794545D02*
X87179496Y-138788236D01*
X87179496Y-138788236D02*
X87183370Y-138781736D01*
X87183370Y-138781736D02*
X87186914Y-138775059D01*
X87186914Y-138775059D02*
X87190127Y-138768222D01*
X87190127Y-138768222D02*
X87193007Y-138761242D01*
X87193007Y-138761242D02*
X87195553Y-138754133D01*
X87195553Y-138754133D02*
X87197764Y-138746913D01*
X87197764Y-138746913D02*
X87199638Y-138739597D01*
X87199638Y-138739597D02*
X87201174Y-138732201D01*
X87201174Y-138732201D02*
X87202372Y-138724740D01*
X87202372Y-138724740D02*
X87203228Y-138717232D01*
X87203228Y-138717232D02*
X87203743Y-138709692D01*
X87203743Y-138709692D02*
X87203915Y-138702136D01*
X87203915Y-138702136D02*
X87203575Y-138694578D01*
X87203575Y-138694578D02*
X87202875Y-138687037D01*
X87202875Y-138687037D02*
X87201819Y-138679528D01*
X87201819Y-138679528D02*
X87200414Y-138672067D01*
X87200414Y-138672067D02*
X87198665Y-138664670D01*
X87198665Y-138664670D02*
X87196575Y-138657353D01*
X87196575Y-138657353D02*
X87194152Y-138650132D01*
X87194152Y-138650132D02*
X87191399Y-138643023D01*
X87191399Y-138643023D02*
X87188322Y-138636042D01*
X87188322Y-138636042D02*
X87184926Y-138629205D01*
X87184926Y-138629205D02*
X87181216Y-138622528D01*
X87181216Y-138622528D02*
X87177197Y-138616027D01*
X87177197Y-138616027D02*
X87172874Y-138609718D01*
X87172874Y-138609718D02*
X87168254Y-138603617D01*
X87168254Y-138603617D02*
X87163339Y-138597739D01*
X87163339Y-138597739D02*
X87158137Y-138592102D01*
X87158137Y-138592102D02*
X87152319Y-138585958D01*
X87152319Y-138585958D02*
X87146214Y-138580122D01*
X87146214Y-138580122D02*
X87139839Y-138574587D01*
X87139839Y-138574587D02*
X87133209Y-138569345D01*
X87133209Y-138569345D02*
X87126341Y-138564388D01*
X87126341Y-138564388D02*
X87119252Y-138559709D01*
X87119252Y-138559709D02*
X87111959Y-138555302D01*
X87111959Y-138555302D02*
X87104476Y-138551157D01*
X87104476Y-138551157D02*
X87096822Y-138547268D01*
X87096822Y-138547268D02*
X87089013Y-138543628D01*
X87089013Y-138543628D02*
X87081064Y-138540229D01*
X87081064Y-138540229D02*
X87072994Y-138537063D01*
X87072994Y-138537063D02*
X87064817Y-138534123D01*
X87064817Y-138534123D02*
X87056551Y-138531401D01*
X87056551Y-138531401D02*
X87048211Y-138528891D01*
X87048211Y-138528891D02*
X87039815Y-138526585D01*
X87039815Y-138526585D02*
X87029409Y-138523917D01*
X87029409Y-138523917D02*
X87018932Y-138521579D01*
X87018932Y-138521579D02*
X87008392Y-138519569D01*
X87008392Y-138519569D02*
X86997798Y-138517882D01*
X86997798Y-138517882D02*
X86987160Y-138516515D01*
X86987160Y-138516515D02*
X86976485Y-138515464D01*
X86976485Y-138515464D02*
X86965783Y-138514726D01*
X86965783Y-138514726D02*
X86955062Y-138514297D01*
X86955062Y-138514297D02*
X86944331Y-138514174D01*
X86944331Y-138514174D02*
X86933598Y-138514352D01*
X86933598Y-138514352D02*
X86922874Y-138514829D01*
X86922874Y-138514829D02*
X86912165Y-138515600D01*
X86912165Y-138515600D02*
X86901481Y-138516662D01*
X86901481Y-138516662D02*
X86890831Y-138518012D01*
X86890831Y-138518012D02*
X86880224Y-138519646D01*
X86880224Y-138519646D02*
X86869667Y-138521559D01*
X86869667Y-138521559D02*
X86858846Y-138523762D01*
X86858846Y-138523762D02*
X86848095Y-138526276D01*
X86848095Y-138526276D02*
X86837423Y-138529101D01*
X86837423Y-138529101D02*
X86826838Y-138532234D01*
X86826838Y-138532234D02*
X86816350Y-138535671D01*
X86816350Y-138535671D02*
X86805967Y-138539412D01*
X86805967Y-138539412D02*
X86795698Y-138543452D01*
X86795698Y-138543452D02*
X86785552Y-138547791D01*
X86785552Y-138547791D02*
X86775537Y-138552425D01*
X86775537Y-138552425D02*
X86765663Y-138557351D01*
X86765663Y-138557351D02*
X86755938Y-138562568D01*
X86755938Y-138562568D02*
X86746370Y-138568074D01*
X86746370Y-138568074D02*
X86736970Y-138573864D01*
X86736970Y-138573864D02*
X86727744Y-138579938D01*
X86727744Y-138579938D02*
X86718704Y-138586292D01*
X86718704Y-138586292D02*
X86709856Y-138592925D01*
X86709856Y-138592925D02*
X86759102Y-138639128D01*
X86759102Y-138639128D02*
X86767275Y-138647003D01*
X86767275Y-138647003D02*
X86775578Y-138654878D01*
X86775578Y-138654878D02*
X86792456Y-138670629D01*
X86792456Y-138670629D02*
X86826476Y-138702136D01*
X86826476Y-138702136D02*
X86834385Y-138694067D01*
X86834385Y-138694067D02*
X86842852Y-138686568D01*
X86842852Y-138686568D02*
X86851830Y-138679653D01*
X86851830Y-138679653D02*
X86861270Y-138673342D01*
X86861270Y-138673342D02*
X86871125Y-138667651D01*
X86871125Y-138667651D02*
X86881347Y-138662597D01*
X86881347Y-138662597D02*
X86891888Y-138658197D01*
X86891888Y-138658197D02*
X86902698Y-138654470D01*
X86902698Y-138654470D02*
X86913732Y-138651432D01*
X86913732Y-138651432D02*
X86924940Y-138649100D01*
X86924940Y-138649100D02*
X86936274Y-138647491D01*
X86936274Y-138647491D02*
X86947686Y-138646624D01*
X86947686Y-138646624D02*
X86959129Y-138646515D01*
X86959129Y-138646515D02*
X86970553Y-138647181D01*
X86970553Y-138647181D02*
X86981912Y-138648639D01*
X86981912Y-138648639D02*
X86993157Y-138650907D01*
X86993157Y-138650907D02*
X86997887Y-138652139D01*
X86997887Y-138652139D02*
X87002638Y-138653628D01*
X87002638Y-138653628D02*
X87007351Y-138655378D01*
X87007351Y-138655378D02*
X87011966Y-138657392D01*
X87011966Y-138657392D02*
X87016424Y-138659671D01*
X87016424Y-138659671D02*
X87020665Y-138662218D01*
X87020665Y-138662218D02*
X87024630Y-138665036D01*
X87024630Y-138665036D02*
X87026491Y-138666547D01*
X87026491Y-138666547D02*
X87028260Y-138668126D01*
X87028260Y-138668126D02*
X87029930Y-138669774D01*
X87029930Y-138669774D02*
X87031494Y-138671492D01*
X87031494Y-138671492D02*
X87032945Y-138673278D01*
X87032945Y-138673278D02*
X87034275Y-138675135D01*
X87034275Y-138675135D02*
X87035476Y-138677061D01*
X87035476Y-138677061D02*
X87036541Y-138679058D01*
X87036541Y-138679058D02*
X87037463Y-138681125D01*
X87037463Y-138681125D02*
X87038234Y-138683264D01*
X87038234Y-138683264D02*
X87038846Y-138685473D01*
X87038846Y-138685473D02*
X87039293Y-138687754D01*
X87039293Y-138687754D02*
X87039567Y-138690107D01*
X87039567Y-138690107D02*
X87039661Y-138692532D01*
X87039661Y-138692532D02*
X87039567Y-138695029D01*
X87039567Y-138695029D02*
X87039277Y-138697599D01*
X87039277Y-138697599D02*
X87038784Y-138700242D01*
X87038784Y-138700242D02*
X87038081Y-138702958D01*
X87038081Y-138702958D02*
X87038081Y-138702958D01*
G36*
X86955062Y-138514297D02*
G01*
X86965783Y-138514726D01*
X86976485Y-138515464D01*
X86987160Y-138516515D01*
X86997798Y-138517882D01*
X87008392Y-138519569D01*
X87018932Y-138521579D01*
X87029409Y-138523917D01*
X87039815Y-138526585D01*
X87048211Y-138528891D01*
X87056551Y-138531401D01*
X87064817Y-138534123D01*
X87072994Y-138537063D01*
X87081064Y-138540229D01*
X87089013Y-138543628D01*
X87096822Y-138547268D01*
X87104476Y-138551157D01*
X87111959Y-138555302D01*
X87119252Y-138559709D01*
X87126341Y-138564388D01*
X87133209Y-138569345D01*
X87139839Y-138574587D01*
X87146214Y-138580122D01*
X87152319Y-138585958D01*
X87158137Y-138592102D01*
X87163339Y-138597739D01*
X87168254Y-138603617D01*
X87172874Y-138609718D01*
X87177197Y-138616027D01*
X87181216Y-138622528D01*
X87184926Y-138629205D01*
X87188322Y-138636042D01*
X87191399Y-138643023D01*
X87194152Y-138650132D01*
X87196575Y-138657353D01*
X87198665Y-138664670D01*
X87200414Y-138672067D01*
X87201819Y-138679528D01*
X87202875Y-138687037D01*
X87203575Y-138694578D01*
X87203915Y-138702136D01*
X87203743Y-138709692D01*
X87203228Y-138717232D01*
X87202372Y-138724740D01*
X87201174Y-138732201D01*
X87199638Y-138739597D01*
X87197764Y-138746913D01*
X87195553Y-138754133D01*
X87193007Y-138761242D01*
X87190127Y-138768222D01*
X87186914Y-138775059D01*
X87183370Y-138781736D01*
X87179496Y-138788236D01*
X87175293Y-138794545D01*
X87170763Y-138800646D01*
X87165906Y-138806524D01*
X87160725Y-138812161D01*
X87155587Y-138817538D01*
X87150220Y-138822649D01*
X87144638Y-138827504D01*
X87138854Y-138832113D01*
X87132883Y-138836485D01*
X87126738Y-138840630D01*
X87120433Y-138844559D01*
X87113983Y-138848280D01*
X87107400Y-138851805D01*
X87100699Y-138855143D01*
X87093895Y-138858304D01*
X87087000Y-138861297D01*
X87080029Y-138864134D01*
X87072995Y-138866822D01*
X87058797Y-138871797D01*
X86943063Y-138904567D01*
X86938522Y-138906014D01*
X86933982Y-138907541D01*
X86929461Y-138909166D01*
X86924982Y-138910910D01*
X86920563Y-138912793D01*
X86916225Y-138914832D01*
X86911989Y-138917050D01*
X86907873Y-138919464D01*
X86903899Y-138922095D01*
X86901972Y-138923498D01*
X86900087Y-138924962D01*
X86898248Y-138926491D01*
X86896457Y-138928086D01*
X86894716Y-138929750D01*
X86893028Y-138931485D01*
X86891396Y-138933294D01*
X86889822Y-138935179D01*
X86888308Y-138937143D01*
X86886858Y-138939188D01*
X86885473Y-138941317D01*
X86884156Y-138943532D01*
X86882910Y-138945835D01*
X86881737Y-138948230D01*
X86881418Y-138948900D01*
X86881096Y-138949649D01*
X86880772Y-138950476D01*
X86880447Y-138951381D01*
X86880122Y-138952365D01*
X86879798Y-138953429D01*
X86879476Y-138954572D01*
X86879156Y-138955796D01*
X86878726Y-138959425D01*
X86878565Y-138962912D01*
X86878661Y-138966260D01*
X86879007Y-138969471D01*
X86879590Y-138972547D01*
X86880403Y-138975490D01*
X86881434Y-138978301D01*
X86882673Y-138980982D01*
X86884111Y-138983536D01*
X86885738Y-138985963D01*
X86887544Y-138988267D01*
X86889519Y-138990448D01*
X86891652Y-138992508D01*
X86893934Y-138994450D01*
X86896355Y-138996275D01*
X86898905Y-138997985D01*
X86904353Y-139001068D01*
X86910196Y-139003714D01*
X86916355Y-139005937D01*
X86922752Y-139007752D01*
X86929305Y-139009174D01*
X86935936Y-139010217D01*
X86942565Y-139010897D01*
X86949111Y-139011229D01*
X86960940Y-139011226D01*
X86972760Y-139010608D01*
X86984541Y-139009384D01*
X86996255Y-139007569D01*
X87007873Y-139005174D01*
X87019365Y-139002211D01*
X87030703Y-138998692D01*
X87041858Y-138994630D01*
X87052800Y-138990036D01*
X87063500Y-138984923D01*
X87073930Y-138979303D01*
X87084060Y-138973189D01*
X87093861Y-138966592D01*
X87103305Y-138959524D01*
X87112361Y-138951998D01*
X87121002Y-138944026D01*
X87239324Y-139050688D01*
X87227409Y-139061082D01*
X87214998Y-139070850D01*
X87202124Y-139079996D01*
X87188819Y-139088524D01*
X87175113Y-139096437D01*
X87161039Y-139103738D01*
X87146628Y-139110432D01*
X87131912Y-139116522D01*
X87116923Y-139122011D01*
X87101692Y-139126902D01*
X87086251Y-139131201D01*
X87070631Y-139134909D01*
X87054865Y-139138032D01*
X87038984Y-139140571D01*
X87023019Y-139142531D01*
X87007003Y-139143916D01*
X86997256Y-139144448D01*
X86987461Y-139144774D01*
X86977631Y-139144882D01*
X86967778Y-139144765D01*
X86957915Y-139144411D01*
X86948055Y-139143810D01*
X86938210Y-139142954D01*
X86928394Y-139141831D01*
X86918618Y-139140433D01*
X86908895Y-139138748D01*
X86899238Y-139136768D01*
X86889660Y-139134482D01*
X86880173Y-139131881D01*
X86870789Y-139128954D01*
X86861523Y-139125692D01*
X86852385Y-139122085D01*
X86843376Y-139118133D01*
X86834512Y-139113834D01*
X86825813Y-139109194D01*
X86817300Y-139104222D01*
X86808996Y-139098924D01*
X86800922Y-139093308D01*
X86793098Y-139087383D01*
X86785547Y-139081154D01*
X86778289Y-139074629D01*
X86771347Y-139067817D01*
X86764741Y-139060724D01*
X86758493Y-139053358D01*
X86752624Y-139045727D01*
X86747155Y-139037837D01*
X86742109Y-139029697D01*
X86737506Y-139021313D01*
X86733236Y-139012537D01*
X86729496Y-139003556D01*
X86726293Y-138994399D01*
X86723632Y-138985099D01*
X86721517Y-138975686D01*
X86719953Y-138966190D01*
X86718946Y-138956643D01*
X86718501Y-138947075D01*
X86718623Y-138937517D01*
X86719316Y-138928000D01*
X86720587Y-138918555D01*
X86722440Y-138909212D01*
X86724879Y-138900003D01*
X86727911Y-138890957D01*
X86731540Y-138882107D01*
X86735772Y-138873483D01*
X86738290Y-138868816D01*
X86740984Y-138864267D01*
X86743844Y-138859834D01*
X86746865Y-138855515D01*
X86750037Y-138851310D01*
X86753354Y-138847217D01*
X86756808Y-138843234D01*
X86760390Y-138839361D01*
X86764094Y-138835597D01*
X86767911Y-138831939D01*
X86771834Y-138828386D01*
X86775855Y-138824938D01*
X86779967Y-138821593D01*
X86784161Y-138818349D01*
X86788431Y-138815206D01*
X86792767Y-138812162D01*
X86799004Y-138808149D01*
X86805380Y-138804292D01*
X86811877Y-138800590D01*
X86818475Y-138797045D01*
X86825154Y-138793657D01*
X86831895Y-138790428D01*
X86838677Y-138787359D01*
X86845483Y-138784449D01*
X86853940Y-138781079D01*
X86862470Y-138777887D01*
X86879712Y-138771964D01*
X86897137Y-138766534D01*
X86914676Y-138761449D01*
X86949811Y-138751726D01*
X86967266Y-138746794D01*
X86984554Y-138741619D01*
X86991985Y-138739076D01*
X86995669Y-138737758D01*
X86999315Y-138736383D01*
X87002910Y-138734935D01*
X87006442Y-138733393D01*
X87009899Y-138731741D01*
X87013266Y-138729960D01*
X87016533Y-138728030D01*
X87019685Y-138725935D01*
X87022711Y-138723656D01*
X87024173Y-138722441D01*
X87025598Y-138721173D01*
X87026986Y-138719850D01*
X87028333Y-138718469D01*
X87029640Y-138717029D01*
X87030904Y-138715526D01*
X87032124Y-138713959D01*
X87033297Y-138712325D01*
X87034424Y-138710622D01*
X87035501Y-138708848D01*
X87038081Y-138702958D01*
X87038784Y-138700242D01*
X87039277Y-138697599D01*
X87039567Y-138695029D01*
X87039661Y-138692532D01*
X87039567Y-138690107D01*
X87039293Y-138687754D01*
X87038846Y-138685473D01*
X87038234Y-138683264D01*
X87037463Y-138681125D01*
X87036541Y-138679058D01*
X87035476Y-138677061D01*
X87034275Y-138675135D01*
X87032945Y-138673278D01*
X87031494Y-138671492D01*
X87029930Y-138669774D01*
X87028260Y-138668126D01*
X87026491Y-138666547D01*
X87024630Y-138665036D01*
X87020665Y-138662218D01*
X87016424Y-138659671D01*
X87011966Y-138657392D01*
X87007351Y-138655378D01*
X87002638Y-138653628D01*
X86997887Y-138652139D01*
X86993157Y-138650907D01*
X86981912Y-138648639D01*
X86970553Y-138647181D01*
X86959129Y-138646515D01*
X86947686Y-138646624D01*
X86936274Y-138647491D01*
X86924940Y-138649100D01*
X86913732Y-138651432D01*
X86902698Y-138654470D01*
X86891888Y-138658197D01*
X86881347Y-138662597D01*
X86871125Y-138667651D01*
X86861270Y-138673342D01*
X86851830Y-138679653D01*
X86842852Y-138686568D01*
X86834385Y-138694067D01*
X86826476Y-138702136D01*
X86792456Y-138670629D01*
X86775578Y-138654878D01*
X86767275Y-138647003D01*
X86759102Y-138639128D01*
X86709856Y-138592925D01*
X86718704Y-138586292D01*
X86727744Y-138579938D01*
X86736970Y-138573864D01*
X86746370Y-138568074D01*
X86755938Y-138562568D01*
X86765663Y-138557351D01*
X86775537Y-138552425D01*
X86785552Y-138547791D01*
X86795698Y-138543452D01*
X86805967Y-138539412D01*
X86816350Y-138535671D01*
X86826838Y-138532234D01*
X86837423Y-138529101D01*
X86848095Y-138526276D01*
X86858846Y-138523762D01*
X86869667Y-138521559D01*
X86880224Y-138519646D01*
X86890831Y-138518012D01*
X86901481Y-138516662D01*
X86912165Y-138515600D01*
X86922874Y-138514829D01*
X86933598Y-138514352D01*
X86944331Y-138514174D01*
X86955062Y-138514297D01*
G37*
X86955062Y-138514297D02*
X86965783Y-138514726D01*
X86976485Y-138515464D01*
X86987160Y-138516515D01*
X86997798Y-138517882D01*
X87008392Y-138519569D01*
X87018932Y-138521579D01*
X87029409Y-138523917D01*
X87039815Y-138526585D01*
X87048211Y-138528891D01*
X87056551Y-138531401D01*
X87064817Y-138534123D01*
X87072994Y-138537063D01*
X87081064Y-138540229D01*
X87089013Y-138543628D01*
X87096822Y-138547268D01*
X87104476Y-138551157D01*
X87111959Y-138555302D01*
X87119252Y-138559709D01*
X87126341Y-138564388D01*
X87133209Y-138569345D01*
X87139839Y-138574587D01*
X87146214Y-138580122D01*
X87152319Y-138585958D01*
X87158137Y-138592102D01*
X87163339Y-138597739D01*
X87168254Y-138603617D01*
X87172874Y-138609718D01*
X87177197Y-138616027D01*
X87181216Y-138622528D01*
X87184926Y-138629205D01*
X87188322Y-138636042D01*
X87191399Y-138643023D01*
X87194152Y-138650132D01*
X87196575Y-138657353D01*
X87198665Y-138664670D01*
X87200414Y-138672067D01*
X87201819Y-138679528D01*
X87202875Y-138687037D01*
X87203575Y-138694578D01*
X87203915Y-138702136D01*
X87203743Y-138709692D01*
X87203228Y-138717232D01*
X87202372Y-138724740D01*
X87201174Y-138732201D01*
X87199638Y-138739597D01*
X87197764Y-138746913D01*
X87195553Y-138754133D01*
X87193007Y-138761242D01*
X87190127Y-138768222D01*
X87186914Y-138775059D01*
X87183370Y-138781736D01*
X87179496Y-138788236D01*
X87175293Y-138794545D01*
X87170763Y-138800646D01*
X87165906Y-138806524D01*
X87160725Y-138812161D01*
X87155587Y-138817538D01*
X87150220Y-138822649D01*
X87144638Y-138827504D01*
X87138854Y-138832113D01*
X87132883Y-138836485D01*
X87126738Y-138840630D01*
X87120433Y-138844559D01*
X87113983Y-138848280D01*
X87107400Y-138851805D01*
X87100699Y-138855143D01*
X87093895Y-138858304D01*
X87087000Y-138861297D01*
X87080029Y-138864134D01*
X87072995Y-138866822D01*
X87058797Y-138871797D01*
X86943063Y-138904567D01*
X86938522Y-138906014D01*
X86933982Y-138907541D01*
X86929461Y-138909166D01*
X86924982Y-138910910D01*
X86920563Y-138912793D01*
X86916225Y-138914832D01*
X86911989Y-138917050D01*
X86907873Y-138919464D01*
X86903899Y-138922095D01*
X86901972Y-138923498D01*
X86900087Y-138924962D01*
X86898248Y-138926491D01*
X86896457Y-138928086D01*
X86894716Y-138929750D01*
X86893028Y-138931485D01*
X86891396Y-138933294D01*
X86889822Y-138935179D01*
X86888308Y-138937143D01*
X86886858Y-138939188D01*
X86885473Y-138941317D01*
X86884156Y-138943532D01*
X86882910Y-138945835D01*
X86881737Y-138948230D01*
X86881418Y-138948900D01*
X86881096Y-138949649D01*
X86880772Y-138950476D01*
X86880447Y-138951381D01*
X86880122Y-138952365D01*
X86879798Y-138953429D01*
X86879476Y-138954572D01*
X86879156Y-138955796D01*
X86878726Y-138959425D01*
X86878565Y-138962912D01*
X86878661Y-138966260D01*
X86879007Y-138969471D01*
X86879590Y-138972547D01*
X86880403Y-138975490D01*
X86881434Y-138978301D01*
X86882673Y-138980982D01*
X86884111Y-138983536D01*
X86885738Y-138985963D01*
X86887544Y-138988267D01*
X86889519Y-138990448D01*
X86891652Y-138992508D01*
X86893934Y-138994450D01*
X86896355Y-138996275D01*
X86898905Y-138997985D01*
X86904353Y-139001068D01*
X86910196Y-139003714D01*
X86916355Y-139005937D01*
X86922752Y-139007752D01*
X86929305Y-139009174D01*
X86935936Y-139010217D01*
X86942565Y-139010897D01*
X86949111Y-139011229D01*
X86960940Y-139011226D01*
X86972760Y-139010608D01*
X86984541Y-139009384D01*
X86996255Y-139007569D01*
X87007873Y-139005174D01*
X87019365Y-139002211D01*
X87030703Y-138998692D01*
X87041858Y-138994630D01*
X87052800Y-138990036D01*
X87063500Y-138984923D01*
X87073930Y-138979303D01*
X87084060Y-138973189D01*
X87093861Y-138966592D01*
X87103305Y-138959524D01*
X87112361Y-138951998D01*
X87121002Y-138944026D01*
X87239324Y-139050688D01*
X87227409Y-139061082D01*
X87214998Y-139070850D01*
X87202124Y-139079996D01*
X87188819Y-139088524D01*
X87175113Y-139096437D01*
X87161039Y-139103738D01*
X87146628Y-139110432D01*
X87131912Y-139116522D01*
X87116923Y-139122011D01*
X87101692Y-139126902D01*
X87086251Y-139131201D01*
X87070631Y-139134909D01*
X87054865Y-139138032D01*
X87038984Y-139140571D01*
X87023019Y-139142531D01*
X87007003Y-139143916D01*
X86997256Y-139144448D01*
X86987461Y-139144774D01*
X86977631Y-139144882D01*
X86967778Y-139144765D01*
X86957915Y-139144411D01*
X86948055Y-139143810D01*
X86938210Y-139142954D01*
X86928394Y-139141831D01*
X86918618Y-139140433D01*
X86908895Y-139138748D01*
X86899238Y-139136768D01*
X86889660Y-139134482D01*
X86880173Y-139131881D01*
X86870789Y-139128954D01*
X86861523Y-139125692D01*
X86852385Y-139122085D01*
X86843376Y-139118133D01*
X86834512Y-139113834D01*
X86825813Y-139109194D01*
X86817300Y-139104222D01*
X86808996Y-139098924D01*
X86800922Y-139093308D01*
X86793098Y-139087383D01*
X86785547Y-139081154D01*
X86778289Y-139074629D01*
X86771347Y-139067817D01*
X86764741Y-139060724D01*
X86758493Y-139053358D01*
X86752624Y-139045727D01*
X86747155Y-139037837D01*
X86742109Y-139029697D01*
X86737506Y-139021313D01*
X86733236Y-139012537D01*
X86729496Y-139003556D01*
X86726293Y-138994399D01*
X86723632Y-138985099D01*
X86721517Y-138975686D01*
X86719953Y-138966190D01*
X86718946Y-138956643D01*
X86718501Y-138947075D01*
X86718623Y-138937517D01*
X86719316Y-138928000D01*
X86720587Y-138918555D01*
X86722440Y-138909212D01*
X86724879Y-138900003D01*
X86727911Y-138890957D01*
X86731540Y-138882107D01*
X86735772Y-138873483D01*
X86738290Y-138868816D01*
X86740984Y-138864267D01*
X86743844Y-138859834D01*
X86746865Y-138855515D01*
X86750037Y-138851310D01*
X86753354Y-138847217D01*
X86756808Y-138843234D01*
X86760390Y-138839361D01*
X86764094Y-138835597D01*
X86767911Y-138831939D01*
X86771834Y-138828386D01*
X86775855Y-138824938D01*
X86779967Y-138821593D01*
X86784161Y-138818349D01*
X86788431Y-138815206D01*
X86792767Y-138812162D01*
X86799004Y-138808149D01*
X86805380Y-138804292D01*
X86811877Y-138800590D01*
X86818475Y-138797045D01*
X86825154Y-138793657D01*
X86831895Y-138790428D01*
X86838677Y-138787359D01*
X86845483Y-138784449D01*
X86853940Y-138781079D01*
X86862470Y-138777887D01*
X86879712Y-138771964D01*
X86897137Y-138766534D01*
X86914676Y-138761449D01*
X86949811Y-138751726D01*
X86967266Y-138746794D01*
X86984554Y-138741619D01*
X86991985Y-138739076D01*
X86995669Y-138737758D01*
X86999315Y-138736383D01*
X87002910Y-138734935D01*
X87006442Y-138733393D01*
X87009899Y-138731741D01*
X87013266Y-138729960D01*
X87016533Y-138728030D01*
X87019685Y-138725935D01*
X87022711Y-138723656D01*
X87024173Y-138722441D01*
X87025598Y-138721173D01*
X87026986Y-138719850D01*
X87028333Y-138718469D01*
X87029640Y-138717029D01*
X87030904Y-138715526D01*
X87032124Y-138713959D01*
X87033297Y-138712325D01*
X87034424Y-138710622D01*
X87035501Y-138708848D01*
X87038081Y-138702958D01*
X87038784Y-138700242D01*
X87039277Y-138697599D01*
X87039567Y-138695029D01*
X87039661Y-138692532D01*
X87039567Y-138690107D01*
X87039293Y-138687754D01*
X87038846Y-138685473D01*
X87038234Y-138683264D01*
X87037463Y-138681125D01*
X87036541Y-138679058D01*
X87035476Y-138677061D01*
X87034275Y-138675135D01*
X87032945Y-138673278D01*
X87031494Y-138671492D01*
X87029930Y-138669774D01*
X87028260Y-138668126D01*
X87026491Y-138666547D01*
X87024630Y-138665036D01*
X87020665Y-138662218D01*
X87016424Y-138659671D01*
X87011966Y-138657392D01*
X87007351Y-138655378D01*
X87002638Y-138653628D01*
X86997887Y-138652139D01*
X86993157Y-138650907D01*
X86981912Y-138648639D01*
X86970553Y-138647181D01*
X86959129Y-138646515D01*
X86947686Y-138646624D01*
X86936274Y-138647491D01*
X86924940Y-138649100D01*
X86913732Y-138651432D01*
X86902698Y-138654470D01*
X86891888Y-138658197D01*
X86881347Y-138662597D01*
X86871125Y-138667651D01*
X86861270Y-138673342D01*
X86851830Y-138679653D01*
X86842852Y-138686568D01*
X86834385Y-138694067D01*
X86826476Y-138702136D01*
X86792456Y-138670629D01*
X86775578Y-138654878D01*
X86767275Y-138647003D01*
X86759102Y-138639128D01*
X86709856Y-138592925D01*
X86718704Y-138586292D01*
X86727744Y-138579938D01*
X86736970Y-138573864D01*
X86746370Y-138568074D01*
X86755938Y-138562568D01*
X86765663Y-138557351D01*
X86775537Y-138552425D01*
X86785552Y-138547791D01*
X86795698Y-138543452D01*
X86805967Y-138539412D01*
X86816350Y-138535671D01*
X86826838Y-138532234D01*
X86837423Y-138529101D01*
X86848095Y-138526276D01*
X86858846Y-138523762D01*
X86869667Y-138521559D01*
X86880224Y-138519646D01*
X86890831Y-138518012D01*
X86901481Y-138516662D01*
X86912165Y-138515600D01*
X86922874Y-138514829D01*
X86933598Y-138514352D01*
X86944331Y-138514174D01*
X86955062Y-138514297D01*
D11*
X94046304Y-138755982D02*
X94063835Y-138726843D01*
D10*
X90499650Y-137725596D02*
X90565264Y-137745655D01*
X91752123Y-138953744D02*
X91698510Y-138925851D01*
D12*
X92723817Y-138497525D02*
X92719259Y-138462500D01*
D10*
X91310876Y-138547544D02*
X91296644Y-138507960D01*
D11*
X93466627Y-139086657D02*
X93503105Y-139084275D01*
X90579218Y-138315686D02*
X90583684Y-138281501D01*
X91069116Y-137733197D02*
X91102449Y-137723994D01*
X94149053Y-138465615D02*
X94152148Y-138430097D01*
X90758056Y-137926261D02*
X90781313Y-137902540D01*
D10*
X91151004Y-138085065D02*
X91179942Y-138120109D01*
D11*
X90589861Y-138523179D02*
X90583685Y-138489544D01*
D10*
X91405179Y-138698398D02*
X91376199Y-138661907D01*
D11*
X90618211Y-138150667D02*
X90630787Y-138119649D01*
X90885266Y-138951912D02*
X90857728Y-138932868D01*
D10*
X92897720Y-139188905D02*
X92814303Y-139187861D01*
D11*
X94119276Y-138601900D02*
X94129240Y-138568783D01*
X91670711Y-137819137D02*
X91698250Y-137838180D01*
D10*
X92415785Y-139152819D02*
X92340505Y-139140199D01*
D11*
X90660364Y-138711100D02*
X90644853Y-138681648D01*
X90644853Y-138681648D02*
X90630787Y-138651392D01*
X90660364Y-138059942D02*
X90677276Y-138031338D01*
X91925199Y-138651392D02*
X91911132Y-138681648D01*
X90805707Y-138891122D02*
X90781314Y-138868505D01*
D10*
X90748420Y-137814293D02*
X90804572Y-137839832D01*
D11*
X91976772Y-138455361D02*
X91972305Y-138489544D01*
X91966128Y-138247864D02*
X91972305Y-138281501D01*
D12*
X92819334Y-138753758D02*
X92802072Y-138724468D01*
D10*
X91376199Y-138661907D02*
X91350754Y-138624568D01*
D11*
X90597704Y-138214818D02*
X90607168Y-138182404D01*
X90715129Y-138794196D02*
X90695546Y-138767416D01*
D10*
X91928292Y-139029414D02*
X91867115Y-139005575D01*
D12*
X92837983Y-138782135D02*
X92819334Y-138753758D01*
D11*
X91582513Y-139001210D02*
X91551399Y-139014889D01*
D12*
X93090823Y-139006013D02*
X93060784Y-138989182D01*
D13*
X93365411Y-139057717D02*
X93365388Y-139055581D01*
X93365388Y-139055581D02*
X93365318Y-139053446D01*
X93365318Y-139053446D02*
X93365201Y-139051311D01*
X93365201Y-139051311D02*
X93365034Y-139049178D01*
X93365034Y-139049178D02*
X93364815Y-139047045D01*
X93364815Y-139047045D02*
X93364544Y-139044912D01*
X93364544Y-139044912D02*
X93364219Y-139042780D01*
X93364219Y-139042780D02*
X93363838Y-139040648D01*
X93363838Y-139040648D02*
X93363400Y-139038517D01*
X93363400Y-139038517D02*
X93362904Y-139036386D01*
X93362904Y-139036386D02*
X93362347Y-139034255D01*
X93362347Y-139034255D02*
X93361728Y-139032124D01*
X93361728Y-139032124D02*
X93361047Y-139029994D01*
X93361047Y-139029994D02*
X93360301Y-139027863D01*
X93360301Y-139027863D02*
X93359489Y-139025733D01*
X93359489Y-139025733D02*
X93358609Y-139023602D01*
X93358609Y-139023602D02*
X93356732Y-139019747D01*
X93356732Y-139019747D02*
X93354742Y-139015989D01*
X93354742Y-139015989D02*
X93353698Y-139014151D01*
X93353698Y-139014151D02*
X93352617Y-139012341D01*
X93352617Y-139012341D02*
X93351496Y-139010561D01*
X93351496Y-139010561D02*
X93350332Y-139008814D01*
X93350332Y-139008814D02*
X93349122Y-139007099D01*
X93349122Y-139007099D02*
X93347864Y-139005419D01*
X93347864Y-139005419D02*
X93346554Y-139003774D01*
X93346554Y-139003774D02*
X93345191Y-139002168D01*
X93345191Y-139002168D02*
X93343769Y-139000600D01*
X93343769Y-139000600D02*
X93342288Y-138999072D01*
X93342288Y-138999072D02*
X93340744Y-138997586D01*
X93340744Y-138997586D02*
X93339133Y-138996144D01*
X93339133Y-138996144D02*
X93337651Y-138994577D01*
X93337651Y-138994577D02*
X93336124Y-138993076D01*
X93336124Y-138993076D02*
X93334555Y-138991635D01*
X93334555Y-138991635D02*
X93332943Y-138990254D01*
X93332943Y-138990254D02*
X93331292Y-138988928D01*
X93331292Y-138988928D02*
X93329601Y-138987655D01*
X93329601Y-138987655D02*
X93327874Y-138986433D01*
X93327874Y-138986433D02*
X93326110Y-138985257D01*
X93326110Y-138985257D02*
X93324313Y-138984126D01*
X93324313Y-138984126D02*
X93322482Y-138983037D01*
X93322482Y-138983037D02*
X93320621Y-138981986D01*
X93320621Y-138981986D02*
X93318729Y-138980971D01*
X93318729Y-138980971D02*
X93316809Y-138979989D01*
X93316809Y-138979989D02*
X93314863Y-138979037D01*
X93314863Y-138979037D02*
X93310895Y-138977212D01*
X93310895Y-138977212D02*
X93306827Y-138975840D01*
X93306827Y-138975840D02*
X93302669Y-138974580D01*
X93302669Y-138974580D02*
X93298422Y-138973454D01*
X93298422Y-138973454D02*
X93296264Y-138972948D01*
X93296264Y-138972948D02*
X93294084Y-138972484D01*
X93294084Y-138972484D02*
X93291881Y-138972064D01*
X93291881Y-138972064D02*
X93289656Y-138971691D01*
X93289656Y-138971691D02*
X93287407Y-138971368D01*
X93287407Y-138971368D02*
X93285136Y-138971098D01*
X93285136Y-138971098D02*
X93282842Y-138970883D01*
X93282842Y-138970883D02*
X93280525Y-138970726D01*
X93280525Y-138970726D02*
X93278185Y-138970630D01*
X93278185Y-138970630D02*
X93275821Y-138970597D01*
X93275821Y-138970597D02*
X93273464Y-138970630D01*
X93273464Y-138970630D02*
X93271128Y-138970726D01*
X93271128Y-138970726D02*
X93268814Y-138970883D01*
X93268814Y-138970883D02*
X93266521Y-138971098D01*
X93266521Y-138971098D02*
X93264251Y-138971368D01*
X93264251Y-138971368D02*
X93262003Y-138971691D01*
X93262003Y-138971691D02*
X93259778Y-138972064D01*
X93259778Y-138972064D02*
X93257575Y-138972484D01*
X93257575Y-138972484D02*
X93253236Y-138973454D01*
X93253236Y-138973454D02*
X93248989Y-138974580D01*
X93248989Y-138974580D02*
X93244835Y-138975840D01*
X93244835Y-138975840D02*
X93240773Y-138977212D01*
X93240773Y-138977212D02*
X93236806Y-138979037D01*
X93236806Y-138979037D02*
X93232928Y-138980971D01*
X93232928Y-138980971D02*
X93231023Y-138981986D01*
X93231023Y-138981986D02*
X93229140Y-138983037D01*
X93229140Y-138983037D02*
X93227280Y-138984126D01*
X93227280Y-138984126D02*
X93225442Y-138985257D01*
X93225442Y-138985257D02*
X93223626Y-138986433D01*
X93223626Y-138986433D02*
X93221833Y-138987655D01*
X93221833Y-138987655D02*
X93220063Y-138988928D01*
X93220063Y-138988928D02*
X93218316Y-138990254D01*
X93218316Y-138990254D02*
X93216592Y-138991635D01*
X93216592Y-138991635D02*
X93214890Y-138993076D01*
X93214890Y-138993076D02*
X93213211Y-138994577D01*
X93213211Y-138994577D02*
X93211555Y-138996144D01*
X93211555Y-138996144D02*
X93210117Y-138997586D01*
X93210117Y-138997586D02*
X93208724Y-138999072D01*
X93208724Y-138999072D02*
X93207374Y-139000599D01*
X93207374Y-139000599D02*
X93206065Y-139002167D01*
X93206065Y-139002167D02*
X93204797Y-139003773D01*
X93204797Y-139003773D02*
X93203567Y-139005418D01*
X93203567Y-139005418D02*
X93202375Y-139007098D01*
X93202375Y-139007098D02*
X93201218Y-139008812D01*
X93201218Y-139008812D02*
X93200095Y-139010560D01*
X93200095Y-139010560D02*
X93199005Y-139012340D01*
X93199005Y-139012340D02*
X93197947Y-139014150D01*
X93197947Y-139014150D02*
X93196917Y-139015988D01*
X93196917Y-139015988D02*
X93195916Y-139017854D01*
X93195916Y-139017854D02*
X93194942Y-139019746D01*
X93194942Y-139019746D02*
X93193068Y-139023602D01*
X93193068Y-139023602D02*
X93192187Y-139025733D01*
X93192187Y-139025733D02*
X93191374Y-139027863D01*
X93191374Y-139027863D02*
X93190626Y-139029994D01*
X93190626Y-139029994D02*
X93189943Y-139032124D01*
X93189943Y-139032124D02*
X93189322Y-139034255D01*
X93189322Y-139034255D02*
X93188762Y-139036386D01*
X93188762Y-139036386D02*
X93188263Y-139038517D01*
X93188263Y-139038517D02*
X93187822Y-139040648D01*
X93187822Y-139040648D02*
X93187438Y-139042780D01*
X93187438Y-139042780D02*
X93187109Y-139044912D01*
X93187109Y-139044912D02*
X93186836Y-139047045D01*
X93186836Y-139047045D02*
X93186615Y-139049178D01*
X93186615Y-139049178D02*
X93186445Y-139051311D01*
X93186445Y-139051311D02*
X93186326Y-139053446D01*
X93186326Y-139053446D02*
X93186255Y-139055581D01*
X93186255Y-139055581D02*
X93186232Y-139057717D01*
X93186232Y-139057717D02*
X93186255Y-139060010D01*
X93186255Y-139060010D02*
X93186326Y-139062282D01*
X93186326Y-139062282D02*
X93186445Y-139064532D01*
X93186445Y-139064532D02*
X93186615Y-139066761D01*
X93186615Y-139066761D02*
X93186836Y-139068968D01*
X93186836Y-139068968D02*
X93187109Y-139071154D01*
X93187109Y-139071154D02*
X93187438Y-139073318D01*
X93187438Y-139073318D02*
X93187822Y-139075461D01*
X93187822Y-139075461D02*
X93188263Y-139077581D01*
X93188263Y-139077581D02*
X93188762Y-139079679D01*
X93188762Y-139079679D02*
X93189322Y-139081755D01*
X93189322Y-139081755D02*
X93189943Y-139083809D01*
X93189943Y-139083809D02*
X93190626Y-139085841D01*
X93190626Y-139085841D02*
X93191374Y-139087850D01*
X93191374Y-139087850D02*
X93192187Y-139089836D01*
X93192187Y-139089836D02*
X93193068Y-139091799D01*
X93193068Y-139091799D02*
X93193993Y-139093896D01*
X93193993Y-139093896D02*
X93194942Y-139095930D01*
X93194942Y-139095930D02*
X93195916Y-139097907D01*
X93195916Y-139097907D02*
X93196917Y-139099830D01*
X93196917Y-139099830D02*
X93197947Y-139101703D01*
X93197947Y-139101703D02*
X93199005Y-139103530D01*
X93199005Y-139103530D02*
X93200095Y-139105316D01*
X93200095Y-139105316D02*
X93201218Y-139107065D01*
X93201218Y-139107065D02*
X93202375Y-139108781D01*
X93202375Y-139108781D02*
X93203567Y-139110468D01*
X93203567Y-139110468D02*
X93204797Y-139112130D01*
X93204797Y-139112130D02*
X93206065Y-139113771D01*
X93206065Y-139113771D02*
X93207374Y-139115396D01*
X93207374Y-139115396D02*
X93208724Y-139117008D01*
X93208724Y-139117008D02*
X93211555Y-139120211D01*
X93211555Y-139120211D02*
X93214890Y-139123001D01*
X93214890Y-139123001D02*
X93216592Y-139124356D01*
X93216592Y-139124356D02*
X93218316Y-139125681D01*
X93218316Y-139125681D02*
X93220063Y-139126972D01*
X93220063Y-139126972D02*
X93221833Y-139128227D01*
X93221833Y-139128227D02*
X93223626Y-139129443D01*
X93223626Y-139129443D02*
X93225442Y-139130618D01*
X93225442Y-139130618D02*
X93227280Y-139131749D01*
X93227280Y-139131749D02*
X93229140Y-139132832D01*
X93229140Y-139132832D02*
X93231023Y-139133866D01*
X93231023Y-139133866D02*
X93232928Y-139134847D01*
X93232928Y-139134847D02*
X93234856Y-139135772D01*
X93234856Y-139135772D02*
X93236806Y-139136640D01*
X93236806Y-139136640D02*
X93238779Y-139137446D01*
X93238779Y-139137446D02*
X93240773Y-139138189D01*
X93240773Y-139138189D02*
X93242792Y-139139045D01*
X93242792Y-139139045D02*
X93244835Y-139139835D01*
X93244835Y-139139835D02*
X93246900Y-139140561D01*
X93246900Y-139140561D02*
X93248989Y-139141224D01*
X93248989Y-139141224D02*
X93251101Y-139141825D01*
X93251101Y-139141825D02*
X93253236Y-139142366D01*
X93253236Y-139142366D02*
X93255394Y-139142849D01*
X93255394Y-139142849D02*
X93257575Y-139143275D01*
X93257575Y-139143275D02*
X93259778Y-139143645D01*
X93259778Y-139143645D02*
X93262003Y-139143961D01*
X93262003Y-139143961D02*
X93264251Y-139144225D01*
X93264251Y-139144225D02*
X93266521Y-139144437D01*
X93266521Y-139144437D02*
X93268814Y-139144600D01*
X93268814Y-139144600D02*
X93271128Y-139144714D01*
X93271128Y-139144714D02*
X93273464Y-139144782D01*
X93273464Y-139144782D02*
X93275821Y-139144804D01*
X93275821Y-139144804D02*
X93280525Y-139144714D01*
X93280525Y-139144714D02*
X93282842Y-139144600D01*
X93282842Y-139144600D02*
X93285136Y-139144437D01*
X93285136Y-139144437D02*
X93287407Y-139144225D01*
X93287407Y-139144225D02*
X93289656Y-139143961D01*
X93289656Y-139143961D02*
X93291881Y-139143645D01*
X93291881Y-139143645D02*
X93294084Y-139143275D01*
X93294084Y-139143275D02*
X93296264Y-139142849D01*
X93296264Y-139142849D02*
X93298422Y-139142366D01*
X93298422Y-139142366D02*
X93300556Y-139141825D01*
X93300556Y-139141825D02*
X93302669Y-139141224D01*
X93302669Y-139141224D02*
X93304759Y-139140561D01*
X93304759Y-139140561D02*
X93306827Y-139139835D01*
X93306827Y-139139835D02*
X93308872Y-139139045D01*
X93308872Y-139139045D02*
X93310895Y-139138189D01*
X93310895Y-139138189D02*
X93312891Y-139137446D01*
X93312891Y-139137446D02*
X93314863Y-139136640D01*
X93314863Y-139136640D02*
X93316809Y-139135772D01*
X93316809Y-139135772D02*
X93318729Y-139134847D01*
X93318729Y-139134847D02*
X93320621Y-139133866D01*
X93320621Y-139133866D02*
X93322482Y-139132832D01*
X93322482Y-139132832D02*
X93324313Y-139131749D01*
X93324313Y-139131749D02*
X93326110Y-139130618D01*
X93326110Y-139130618D02*
X93327874Y-139129443D01*
X93327874Y-139129443D02*
X93329601Y-139128227D01*
X93329601Y-139128227D02*
X93331292Y-139126972D01*
X93331292Y-139126972D02*
X93332943Y-139125681D01*
X93332943Y-139125681D02*
X93334555Y-139124356D01*
X93334555Y-139124356D02*
X93336125Y-139123001D01*
X93336125Y-139123001D02*
X93337651Y-139121619D01*
X93337651Y-139121619D02*
X93339133Y-139120211D01*
X93339133Y-139120211D02*
X93340744Y-139118612D01*
X93340744Y-139118612D02*
X93342288Y-139117008D01*
X93342288Y-139117008D02*
X93343769Y-139115396D01*
X93343769Y-139115396D02*
X93345191Y-139113771D01*
X93345191Y-139113771D02*
X93346554Y-139112130D01*
X93346554Y-139112130D02*
X93347864Y-139110468D01*
X93347864Y-139110468D02*
X93349122Y-139108781D01*
X93349122Y-139108781D02*
X93350332Y-139107066D01*
X93350332Y-139107066D02*
X93351496Y-139105317D01*
X93351496Y-139105317D02*
X93352617Y-139103531D01*
X93352617Y-139103531D02*
X93353698Y-139101703D01*
X93353698Y-139101703D02*
X93354742Y-139099830D01*
X93354742Y-139099830D02*
X93355753Y-139097907D01*
X93355753Y-139097907D02*
X93356732Y-139095931D01*
X93356732Y-139095931D02*
X93357683Y-139093896D01*
X93357683Y-139093896D02*
X93358609Y-139091799D01*
X93358609Y-139091799D02*
X93359489Y-139089836D01*
X93359489Y-139089836D02*
X93360301Y-139087850D01*
X93360301Y-139087850D02*
X93361047Y-139085841D01*
X93361047Y-139085841D02*
X93361728Y-139083809D01*
X93361728Y-139083809D02*
X93362347Y-139081755D01*
X93362347Y-139081755D02*
X93362904Y-139079679D01*
X93362904Y-139079679D02*
X93363400Y-139077581D01*
X93363400Y-139077581D02*
X93363838Y-139075461D01*
X93363838Y-139075461D02*
X93364219Y-139073318D01*
X93364219Y-139073318D02*
X93364544Y-139071154D01*
X93364544Y-139071154D02*
X93364815Y-139068968D01*
X93364815Y-139068968D02*
X93365034Y-139066761D01*
X93365034Y-139066761D02*
X93365201Y-139064532D01*
X93365201Y-139064532D02*
X93365318Y-139062282D01*
X93365318Y-139062282D02*
X93365388Y-139060010D01*
X93365388Y-139060010D02*
X93365411Y-139057717D01*
X93365411Y-139057717D02*
X93365411Y-139057717D01*
G36*
X93278185Y-138970630D02*
G01*
X93280525Y-138970726D01*
X93282842Y-138970883D01*
X93285136Y-138971098D01*
X93287407Y-138971368D01*
X93289656Y-138971691D01*
X93291881Y-138972064D01*
X93294084Y-138972484D01*
X93296264Y-138972948D01*
X93298422Y-138973454D01*
X93302669Y-138974580D01*
X93306827Y-138975840D01*
X93310895Y-138977212D01*
X93314863Y-138979037D01*
X93316809Y-138979989D01*
X93318729Y-138980971D01*
X93320621Y-138981986D01*
X93322482Y-138983037D01*
X93324313Y-138984126D01*
X93326110Y-138985257D01*
X93327874Y-138986433D01*
X93329601Y-138987655D01*
X93331292Y-138988928D01*
X93332943Y-138990254D01*
X93334555Y-138991635D01*
X93336124Y-138993076D01*
X93337651Y-138994577D01*
X93339133Y-138996144D01*
X93340744Y-138997586D01*
X93342288Y-138999072D01*
X93343769Y-139000600D01*
X93345191Y-139002168D01*
X93346554Y-139003774D01*
X93347864Y-139005419D01*
X93349122Y-139007099D01*
X93350332Y-139008814D01*
X93351496Y-139010561D01*
X93352617Y-139012341D01*
X93353698Y-139014151D01*
X93354742Y-139015989D01*
X93356732Y-139019747D01*
X93358609Y-139023602D01*
X93359489Y-139025733D01*
X93360301Y-139027863D01*
X93361047Y-139029994D01*
X93361728Y-139032124D01*
X93362347Y-139034255D01*
X93362904Y-139036386D01*
X93363400Y-139038517D01*
X93363838Y-139040648D01*
X93364219Y-139042780D01*
X93364544Y-139044912D01*
X93364815Y-139047045D01*
X93365034Y-139049178D01*
X93365201Y-139051311D01*
X93365318Y-139053446D01*
X93365388Y-139055581D01*
X93365411Y-139057717D01*
X93365388Y-139060010D01*
X93365318Y-139062282D01*
X93365201Y-139064532D01*
X93365034Y-139066761D01*
X93364815Y-139068968D01*
X93364544Y-139071154D01*
X93364219Y-139073318D01*
X93363838Y-139075461D01*
X93363400Y-139077581D01*
X93362904Y-139079679D01*
X93362347Y-139081755D01*
X93361728Y-139083809D01*
X93361047Y-139085841D01*
X93360301Y-139087850D01*
X93359489Y-139089836D01*
X93358609Y-139091799D01*
X93357683Y-139093896D01*
X93356732Y-139095931D01*
X93355753Y-139097907D01*
X93354742Y-139099830D01*
X93353698Y-139101703D01*
X93352617Y-139103531D01*
X93351496Y-139105317D01*
X93350332Y-139107066D01*
X93349122Y-139108781D01*
X93347864Y-139110468D01*
X93346554Y-139112130D01*
X93345191Y-139113771D01*
X93343769Y-139115396D01*
X93342288Y-139117008D01*
X93340744Y-139118612D01*
X93339133Y-139120211D01*
X93337651Y-139121619D01*
X93336125Y-139123001D01*
X93334555Y-139124356D01*
X93332943Y-139125681D01*
X93331292Y-139126972D01*
X93329601Y-139128227D01*
X93327874Y-139129443D01*
X93326110Y-139130618D01*
X93324313Y-139131749D01*
X93322482Y-139132832D01*
X93320621Y-139133866D01*
X93318729Y-139134847D01*
X93316809Y-139135772D01*
X93314863Y-139136640D01*
X93312891Y-139137446D01*
X93310895Y-139138189D01*
X93308872Y-139139045D01*
X93306827Y-139139835D01*
X93304759Y-139140561D01*
X93302669Y-139141224D01*
X93300556Y-139141825D01*
X93298422Y-139142366D01*
X93296264Y-139142849D01*
X93294084Y-139143275D01*
X93291881Y-139143645D01*
X93289656Y-139143961D01*
X93287407Y-139144225D01*
X93285136Y-139144437D01*
X93282842Y-139144600D01*
X93280525Y-139144714D01*
X93275821Y-139144804D01*
X93273464Y-139144782D01*
X93271128Y-139144714D01*
X93268814Y-139144600D01*
X93266521Y-139144437D01*
X93264251Y-139144225D01*
X93262003Y-139143961D01*
X93259778Y-139143645D01*
X93257575Y-139143275D01*
X93255394Y-139142849D01*
X93253236Y-139142366D01*
X93251101Y-139141825D01*
X93248989Y-139141224D01*
X93246900Y-139140561D01*
X93244835Y-139139835D01*
X93242792Y-139139045D01*
X93240773Y-139138189D01*
X93238779Y-139137446D01*
X93236806Y-139136640D01*
X93234856Y-139135772D01*
X93232928Y-139134847D01*
X93231023Y-139133866D01*
X93229140Y-139132832D01*
X93227280Y-139131749D01*
X93225442Y-139130618D01*
X93223626Y-139129443D01*
X93221833Y-139128227D01*
X93220063Y-139126972D01*
X93218316Y-139125681D01*
X93216592Y-139124356D01*
X93214890Y-139123001D01*
X93211555Y-139120211D01*
X93208724Y-139117008D01*
X93207374Y-139115396D01*
X93206065Y-139113771D01*
X93204797Y-139112130D01*
X93203567Y-139110468D01*
X93202375Y-139108781D01*
X93201218Y-139107065D01*
X93200095Y-139105316D01*
X93199005Y-139103530D01*
X93197947Y-139101703D01*
X93196917Y-139099830D01*
X93195916Y-139097907D01*
X93194942Y-139095930D01*
X93193993Y-139093896D01*
X93193068Y-139091799D01*
X93192187Y-139089836D01*
X93191374Y-139087850D01*
X93190626Y-139085841D01*
X93189943Y-139083809D01*
X93189322Y-139081755D01*
X93188762Y-139079679D01*
X93188263Y-139077581D01*
X93187822Y-139075461D01*
X93187438Y-139073318D01*
X93187109Y-139071154D01*
X93186836Y-139068968D01*
X93186615Y-139066761D01*
X93186445Y-139064532D01*
X93186326Y-139062282D01*
X93186255Y-139060010D01*
X93186232Y-139057717D01*
X93186255Y-139055581D01*
X93186326Y-139053446D01*
X93186445Y-139051311D01*
X93186615Y-139049178D01*
X93186836Y-139047045D01*
X93187109Y-139044912D01*
X93187438Y-139042780D01*
X93187822Y-139040648D01*
X93188263Y-139038517D01*
X93188762Y-139036386D01*
X93189322Y-139034255D01*
X93189943Y-139032124D01*
X93190626Y-139029994D01*
X93191374Y-139027863D01*
X93192187Y-139025733D01*
X93193068Y-139023602D01*
X93194942Y-139019746D01*
X93195916Y-139017854D01*
X93196917Y-139015988D01*
X93197947Y-139014150D01*
X93199005Y-139012340D01*
X93200095Y-139010560D01*
X93201218Y-139008812D01*
X93202375Y-139007098D01*
X93203567Y-139005418D01*
X93204797Y-139003773D01*
X93206065Y-139002167D01*
X93207374Y-139000599D01*
X93208724Y-138999072D01*
X93210117Y-138997586D01*
X93211555Y-138996144D01*
X93213211Y-138994577D01*
X93214890Y-138993076D01*
X93216592Y-138991635D01*
X93218316Y-138990254D01*
X93220063Y-138988928D01*
X93221833Y-138987655D01*
X93223626Y-138986433D01*
X93225442Y-138985257D01*
X93227280Y-138984126D01*
X93229140Y-138983037D01*
X93231023Y-138981986D01*
X93232928Y-138980971D01*
X93236806Y-138979037D01*
X93240773Y-138977212D01*
X93244835Y-138975840D01*
X93248989Y-138974580D01*
X93253236Y-138973454D01*
X93257575Y-138972484D01*
X93259778Y-138972064D01*
X93262003Y-138971691D01*
X93264251Y-138971368D01*
X93266521Y-138971098D01*
X93268814Y-138970883D01*
X93271128Y-138970726D01*
X93273464Y-138970630D01*
X93275821Y-138970597D01*
X93278185Y-138970630D01*
G37*
X93278185Y-138970630D02*
X93280525Y-138970726D01*
X93282842Y-138970883D01*
X93285136Y-138971098D01*
X93287407Y-138971368D01*
X93289656Y-138971691D01*
X93291881Y-138972064D01*
X93294084Y-138972484D01*
X93296264Y-138972948D01*
X93298422Y-138973454D01*
X93302669Y-138974580D01*
X93306827Y-138975840D01*
X93310895Y-138977212D01*
X93314863Y-138979037D01*
X93316809Y-138979989D01*
X93318729Y-138980971D01*
X93320621Y-138981986D01*
X93322482Y-138983037D01*
X93324313Y-138984126D01*
X93326110Y-138985257D01*
X93327874Y-138986433D01*
X93329601Y-138987655D01*
X93331292Y-138988928D01*
X93332943Y-138990254D01*
X93334555Y-138991635D01*
X93336124Y-138993076D01*
X93337651Y-138994577D01*
X93339133Y-138996144D01*
X93340744Y-138997586D01*
X93342288Y-138999072D01*
X93343769Y-139000600D01*
X93345191Y-139002168D01*
X93346554Y-139003774D01*
X93347864Y-139005419D01*
X93349122Y-139007099D01*
X93350332Y-139008814D01*
X93351496Y-139010561D01*
X93352617Y-139012341D01*
X93353698Y-139014151D01*
X93354742Y-139015989D01*
X93356732Y-139019747D01*
X93358609Y-139023602D01*
X93359489Y-139025733D01*
X93360301Y-139027863D01*
X93361047Y-139029994D01*
X93361728Y-139032124D01*
X93362347Y-139034255D01*
X93362904Y-139036386D01*
X93363400Y-139038517D01*
X93363838Y-139040648D01*
X93364219Y-139042780D01*
X93364544Y-139044912D01*
X93364815Y-139047045D01*
X93365034Y-139049178D01*
X93365201Y-139051311D01*
X93365318Y-139053446D01*
X93365388Y-139055581D01*
X93365411Y-139057717D01*
X93365388Y-139060010D01*
X93365318Y-139062282D01*
X93365201Y-139064532D01*
X93365034Y-139066761D01*
X93364815Y-139068968D01*
X93364544Y-139071154D01*
X93364219Y-139073318D01*
X93363838Y-139075461D01*
X93363400Y-139077581D01*
X93362904Y-139079679D01*
X93362347Y-139081755D01*
X93361728Y-139083809D01*
X93361047Y-139085841D01*
X93360301Y-139087850D01*
X93359489Y-139089836D01*
X93358609Y-139091799D01*
X93357683Y-139093896D01*
X93356732Y-139095931D01*
X93355753Y-139097907D01*
X93354742Y-139099830D01*
X93353698Y-139101703D01*
X93352617Y-139103531D01*
X93351496Y-139105317D01*
X93350332Y-139107066D01*
X93349122Y-139108781D01*
X93347864Y-139110468D01*
X93346554Y-139112130D01*
X93345191Y-139113771D01*
X93343769Y-139115396D01*
X93342288Y-139117008D01*
X93340744Y-139118612D01*
X93339133Y-139120211D01*
X93337651Y-139121619D01*
X93336125Y-139123001D01*
X93334555Y-139124356D01*
X93332943Y-139125681D01*
X93331292Y-139126972D01*
X93329601Y-139128227D01*
X93327874Y-139129443D01*
X93326110Y-139130618D01*
X93324313Y-139131749D01*
X93322482Y-139132832D01*
X93320621Y-139133866D01*
X93318729Y-139134847D01*
X93316809Y-139135772D01*
X93314863Y-139136640D01*
X93312891Y-139137446D01*
X93310895Y-139138189D01*
X93308872Y-139139045D01*
X93306827Y-139139835D01*
X93304759Y-139140561D01*
X93302669Y-139141224D01*
X93300556Y-139141825D01*
X93298422Y-139142366D01*
X93296264Y-139142849D01*
X93294084Y-139143275D01*
X93291881Y-139143645D01*
X93289656Y-139143961D01*
X93287407Y-139144225D01*
X93285136Y-139144437D01*
X93282842Y-139144600D01*
X93280525Y-139144714D01*
X93275821Y-139144804D01*
X93273464Y-139144782D01*
X93271128Y-139144714D01*
X93268814Y-139144600D01*
X93266521Y-139144437D01*
X93264251Y-139144225D01*
X93262003Y-139143961D01*
X93259778Y-139143645D01*
X93257575Y-139143275D01*
X93255394Y-139142849D01*
X93253236Y-139142366D01*
X93251101Y-139141825D01*
X93248989Y-139141224D01*
X93246900Y-139140561D01*
X93244835Y-139139835D01*
X93242792Y-139139045D01*
X93240773Y-139138189D01*
X93238779Y-139137446D01*
X93236806Y-139136640D01*
X93234856Y-139135772D01*
X93232928Y-139134847D01*
X93231023Y-139133866D01*
X93229140Y-139132832D01*
X93227280Y-139131749D01*
X93225442Y-139130618D01*
X93223626Y-139129443D01*
X93221833Y-139128227D01*
X93220063Y-139126972D01*
X93218316Y-139125681D01*
X93216592Y-139124356D01*
X93214890Y-139123001D01*
X93211555Y-139120211D01*
X93208724Y-139117008D01*
X93207374Y-139115396D01*
X93206065Y-139113771D01*
X93204797Y-139112130D01*
X93203567Y-139110468D01*
X93202375Y-139108781D01*
X93201218Y-139107065D01*
X93200095Y-139105316D01*
X93199005Y-139103530D01*
X93197947Y-139101703D01*
X93196917Y-139099830D01*
X93195916Y-139097907D01*
X93194942Y-139095930D01*
X93193993Y-139093896D01*
X93193068Y-139091799D01*
X93192187Y-139089836D01*
X93191374Y-139087850D01*
X93190626Y-139085841D01*
X93189943Y-139083809D01*
X93189322Y-139081755D01*
X93188762Y-139079679D01*
X93188263Y-139077581D01*
X93187822Y-139075461D01*
X93187438Y-139073318D01*
X93187109Y-139071154D01*
X93186836Y-139068968D01*
X93186615Y-139066761D01*
X93186445Y-139064532D01*
X93186326Y-139062282D01*
X93186255Y-139060010D01*
X93186232Y-139057717D01*
X93186255Y-139055581D01*
X93186326Y-139053446D01*
X93186445Y-139051311D01*
X93186615Y-139049178D01*
X93186836Y-139047045D01*
X93187109Y-139044912D01*
X93187438Y-139042780D01*
X93187822Y-139040648D01*
X93188263Y-139038517D01*
X93188762Y-139036386D01*
X93189322Y-139034255D01*
X93189943Y-139032124D01*
X93190626Y-139029994D01*
X93191374Y-139027863D01*
X93192187Y-139025733D01*
X93193068Y-139023602D01*
X93194942Y-139019746D01*
X93195916Y-139017854D01*
X93196917Y-139015988D01*
X93197947Y-139014150D01*
X93199005Y-139012340D01*
X93200095Y-139010560D01*
X93201218Y-139008812D01*
X93202375Y-139007098D01*
X93203567Y-139005418D01*
X93204797Y-139003773D01*
X93206065Y-139002167D01*
X93207374Y-139000599D01*
X93208724Y-138999072D01*
X93210117Y-138997586D01*
X93211555Y-138996144D01*
X93213211Y-138994577D01*
X93214890Y-138993076D01*
X93216592Y-138991635D01*
X93218316Y-138990254D01*
X93220063Y-138988928D01*
X93221833Y-138987655D01*
X93223626Y-138986433D01*
X93225442Y-138985257D01*
X93227280Y-138984126D01*
X93229140Y-138983037D01*
X93231023Y-138981986D01*
X93232928Y-138980971D01*
X93236806Y-138979037D01*
X93240773Y-138977212D01*
X93244835Y-138975840D01*
X93248989Y-138974580D01*
X93253236Y-138973454D01*
X93257575Y-138972484D01*
X93259778Y-138972064D01*
X93262003Y-138971691D01*
X93264251Y-138971368D01*
X93266521Y-138971098D01*
X93268814Y-138970883D01*
X93271128Y-138970726D01*
X93273464Y-138970630D01*
X93275821Y-138970597D01*
X93278185Y-138970630D01*
D12*
X92719259Y-138462500D02*
X92716492Y-138426955D01*
D10*
X91599560Y-138866364D02*
X91554424Y-138834870D01*
D12*
X93031681Y-138970999D02*
X93003560Y-138951509D01*
D11*
X91911132Y-138089393D02*
X91925199Y-138119649D01*
D10*
X90217077Y-137660752D02*
X90290535Y-137674558D01*
X91044023Y-137985302D02*
X91082943Y-138017613D01*
D11*
X94137554Y-138535001D02*
X94144174Y-138500597D01*
X91976772Y-138315686D02*
X91979485Y-138350374D01*
D10*
X92814303Y-139187861D02*
X92731989Y-139184761D01*
D11*
X93772509Y-139005865D02*
X93802702Y-138989295D01*
D10*
X91473340Y-138768633D02*
X91437593Y-138733990D01*
D11*
X90630787Y-138119649D02*
X90644853Y-138089393D01*
D12*
X92730120Y-138531987D02*
X92723817Y-138497525D01*
D11*
X91453535Y-139047063D02*
X91419554Y-139054690D01*
D10*
X91647622Y-138896708D02*
X91599560Y-138866364D01*
D12*
X93186117Y-139047961D02*
X93153535Y-139035447D01*
D10*
X89660725Y-137613971D02*
X89744011Y-137614974D01*
D13*
X87455318Y-138828137D02*
X87455529Y-138819996D01*
X87455529Y-138819996D02*
X87456155Y-138811965D01*
X87456155Y-138811965D02*
X87457186Y-138804051D01*
X87457186Y-138804051D02*
X87458611Y-138796266D01*
X87458611Y-138796266D02*
X87460421Y-138788618D01*
X87460421Y-138788618D02*
X87462605Y-138781119D01*
X87462605Y-138781119D02*
X87465154Y-138773777D01*
X87465154Y-138773777D02*
X87468057Y-138766602D01*
X87468057Y-138766602D02*
X87471304Y-138759605D01*
X87471304Y-138759605D02*
X87474885Y-138752795D01*
X87474885Y-138752795D02*
X87478790Y-138746181D01*
X87478790Y-138746181D02*
X87483008Y-138739775D01*
X87483008Y-138739775D02*
X87487530Y-138733585D01*
X87487530Y-138733585D02*
X87492346Y-138727622D01*
X87492346Y-138727622D02*
X87497445Y-138721895D01*
X87497445Y-138721895D02*
X87502818Y-138716414D01*
X87502818Y-138716414D02*
X87508453Y-138711190D01*
X87508453Y-138711190D02*
X87514342Y-138706231D01*
X87514342Y-138706231D02*
X87520473Y-138701547D01*
X87520473Y-138701547D02*
X87526838Y-138697149D01*
X87526838Y-138697149D02*
X87533425Y-138693047D01*
X87533425Y-138693047D02*
X87540224Y-138689249D01*
X87540224Y-138689249D02*
X87547226Y-138685767D01*
X87547226Y-138685767D02*
X87554421Y-138682609D01*
X87554421Y-138682609D02*
X87561797Y-138679786D01*
X87561797Y-138679786D02*
X87569346Y-138677308D01*
X87569346Y-138677308D02*
X87577056Y-138675184D01*
X87577056Y-138675184D02*
X87584919Y-138673424D01*
X87584919Y-138673424D02*
X87592923Y-138672038D01*
X87592923Y-138672038D02*
X87601059Y-138671036D01*
X87601059Y-138671036D02*
X87609316Y-138670427D01*
X87609316Y-138670427D02*
X87617685Y-138670222D01*
X87617685Y-138670222D02*
X87625979Y-138670427D01*
X87625979Y-138670427D02*
X87634171Y-138671036D01*
X87634171Y-138671036D02*
X87642250Y-138672038D01*
X87642250Y-138672038D02*
X87650207Y-138673424D01*
X87650207Y-138673424D02*
X87658031Y-138675184D01*
X87658031Y-138675184D02*
X87665710Y-138677308D01*
X87665710Y-138677308D02*
X87673235Y-138679786D01*
X87673235Y-138679786D02*
X87680594Y-138682609D01*
X87680594Y-138682609D02*
X87687778Y-138685767D01*
X87687778Y-138685767D02*
X87694775Y-138689249D01*
X87694775Y-138689249D02*
X87701575Y-138693047D01*
X87701575Y-138693047D02*
X87708168Y-138697149D01*
X87708168Y-138697149D02*
X87714542Y-138701547D01*
X87714542Y-138701547D02*
X87720687Y-138706231D01*
X87720687Y-138706231D02*
X87726593Y-138711190D01*
X87726593Y-138711190D02*
X87732249Y-138716414D01*
X87732249Y-138716414D02*
X87737644Y-138721895D01*
X87737644Y-138721895D02*
X87742768Y-138727622D01*
X87742768Y-138727622D02*
X87747610Y-138733585D01*
X87747610Y-138733585D02*
X87752160Y-138739775D01*
X87752160Y-138739775D02*
X87756406Y-138746181D01*
X87756406Y-138746181D02*
X87760339Y-138752795D01*
X87760339Y-138752795D02*
X87763948Y-138759605D01*
X87763948Y-138759605D02*
X87767221Y-138766602D01*
X87767221Y-138766602D02*
X87770150Y-138773777D01*
X87770150Y-138773777D02*
X87772722Y-138781119D01*
X87772722Y-138781119D02*
X87774928Y-138788618D01*
X87774928Y-138788618D02*
X87776756Y-138796266D01*
X87776756Y-138796266D02*
X87778197Y-138804051D01*
X87778197Y-138804051D02*
X87779239Y-138811965D01*
X87779239Y-138811965D02*
X87779872Y-138819996D01*
X87779872Y-138819996D02*
X87780085Y-138828137D01*
X87780085Y-138828137D02*
X87779872Y-138836275D01*
X87779872Y-138836275D02*
X87779239Y-138844304D01*
X87779239Y-138844304D02*
X87778197Y-138852216D01*
X87778197Y-138852216D02*
X87776756Y-138859999D01*
X87776756Y-138859999D02*
X87774928Y-138867645D01*
X87774928Y-138867645D02*
X87772722Y-138875143D01*
X87772722Y-138875143D02*
X87770150Y-138882484D01*
X87770150Y-138882484D02*
X87767221Y-138889657D01*
X87767221Y-138889657D02*
X87763948Y-138896653D01*
X87763948Y-138896653D02*
X87760339Y-138903462D01*
X87760339Y-138903462D02*
X87756406Y-138910074D01*
X87756406Y-138910074D02*
X87752160Y-138916479D01*
X87752160Y-138916479D02*
X87747610Y-138922668D01*
X87747610Y-138922668D02*
X87742768Y-138928631D01*
X87742768Y-138928631D02*
X87737644Y-138934357D01*
X87737644Y-138934357D02*
X87732249Y-138939837D01*
X87732249Y-138939837D02*
X87726593Y-138945062D01*
X87726593Y-138945062D02*
X87720687Y-138950020D01*
X87720687Y-138950020D02*
X87714542Y-138954703D01*
X87714542Y-138954703D02*
X87708168Y-138959101D01*
X87708168Y-138959101D02*
X87701575Y-138963203D01*
X87701575Y-138963203D02*
X87694775Y-138967000D01*
X87694775Y-138967000D02*
X87687778Y-138970482D01*
X87687778Y-138970482D02*
X87680594Y-138973640D01*
X87680594Y-138973640D02*
X87673235Y-138976463D01*
X87673235Y-138976463D02*
X87665710Y-138978941D01*
X87665710Y-138978941D02*
X87658031Y-138981065D01*
X87658031Y-138981065D02*
X87650207Y-138982825D01*
X87650207Y-138982825D02*
X87642250Y-138984211D01*
X87642250Y-138984211D02*
X87634171Y-138985214D01*
X87634171Y-138985214D02*
X87625979Y-138985822D01*
X87625979Y-138985822D02*
X87617685Y-138986027D01*
X87617685Y-138986027D02*
X87609316Y-138985822D01*
X87609316Y-138985822D02*
X87601059Y-138985214D01*
X87601059Y-138985214D02*
X87592923Y-138984211D01*
X87592923Y-138984211D02*
X87584919Y-138982825D01*
X87584919Y-138982825D02*
X87577056Y-138981065D01*
X87577056Y-138981065D02*
X87569346Y-138978941D01*
X87569346Y-138978941D02*
X87561797Y-138976463D01*
X87561797Y-138976463D02*
X87554421Y-138973640D01*
X87554421Y-138973640D02*
X87547226Y-138970482D01*
X87547226Y-138970482D02*
X87540224Y-138967000D01*
X87540224Y-138967000D02*
X87533425Y-138963203D01*
X87533425Y-138963203D02*
X87526838Y-138959101D01*
X87526838Y-138959101D02*
X87520473Y-138954703D01*
X87520473Y-138954703D02*
X87514342Y-138950020D01*
X87514342Y-138950020D02*
X87508453Y-138945062D01*
X87508453Y-138945062D02*
X87502818Y-138939837D01*
X87502818Y-138939837D02*
X87497445Y-138934357D01*
X87497445Y-138934357D02*
X87492346Y-138928631D01*
X87492346Y-138928631D02*
X87487530Y-138922668D01*
X87487530Y-138922668D02*
X87483008Y-138916479D01*
X87483008Y-138916479D02*
X87478790Y-138910074D01*
X87478790Y-138910074D02*
X87474885Y-138903462D01*
X87474885Y-138903462D02*
X87471304Y-138896653D01*
X87471304Y-138896653D02*
X87468057Y-138889657D01*
X87468057Y-138889657D02*
X87465154Y-138882484D01*
X87465154Y-138882484D02*
X87462605Y-138875143D01*
X87462605Y-138875143D02*
X87460421Y-138867645D01*
X87460421Y-138867645D02*
X87458611Y-138859999D01*
X87458611Y-138859999D02*
X87457186Y-138852216D01*
X87457186Y-138852216D02*
X87456155Y-138844304D01*
X87456155Y-138844304D02*
X87455529Y-138836275D01*
X87455529Y-138836275D02*
X87455318Y-138828137D01*
X87455318Y-138828137D02*
X87455318Y-138828137D01*
G36*
X87625979Y-138670427D02*
G01*
X87634171Y-138671036D01*
X87642250Y-138672038D01*
X87650207Y-138673424D01*
X87658031Y-138675184D01*
X87665710Y-138677308D01*
X87673235Y-138679786D01*
X87680594Y-138682609D01*
X87687778Y-138685767D01*
X87694775Y-138689249D01*
X87701575Y-138693047D01*
X87708168Y-138697149D01*
X87714542Y-138701547D01*
X87720687Y-138706231D01*
X87726593Y-138711190D01*
X87732249Y-138716414D01*
X87737644Y-138721895D01*
X87742768Y-138727622D01*
X87747610Y-138733585D01*
X87752160Y-138739775D01*
X87756406Y-138746181D01*
X87760339Y-138752795D01*
X87763948Y-138759605D01*
X87767221Y-138766602D01*
X87770150Y-138773777D01*
X87772722Y-138781119D01*
X87774928Y-138788618D01*
X87776756Y-138796266D01*
X87778197Y-138804051D01*
X87779239Y-138811965D01*
X87779872Y-138819996D01*
X87780085Y-138828137D01*
X87779872Y-138836275D01*
X87779239Y-138844304D01*
X87778197Y-138852216D01*
X87776756Y-138859999D01*
X87774928Y-138867645D01*
X87772722Y-138875143D01*
X87770150Y-138882484D01*
X87767221Y-138889657D01*
X87763948Y-138896653D01*
X87760339Y-138903462D01*
X87756406Y-138910074D01*
X87752160Y-138916479D01*
X87747610Y-138922668D01*
X87742768Y-138928631D01*
X87737644Y-138934357D01*
X87732249Y-138939837D01*
X87726593Y-138945062D01*
X87720687Y-138950020D01*
X87714542Y-138954703D01*
X87708168Y-138959101D01*
X87701575Y-138963203D01*
X87694775Y-138967000D01*
X87687778Y-138970482D01*
X87680594Y-138973640D01*
X87673235Y-138976463D01*
X87665710Y-138978941D01*
X87658031Y-138981065D01*
X87650207Y-138982825D01*
X87642250Y-138984211D01*
X87634171Y-138985214D01*
X87625979Y-138985822D01*
X87617685Y-138986027D01*
X87609316Y-138985822D01*
X87601059Y-138985214D01*
X87592923Y-138984211D01*
X87584919Y-138982825D01*
X87577056Y-138981065D01*
X87569346Y-138978941D01*
X87561797Y-138976463D01*
X87554421Y-138973640D01*
X87547226Y-138970482D01*
X87540224Y-138967000D01*
X87533425Y-138963203D01*
X87526838Y-138959101D01*
X87520473Y-138954703D01*
X87514342Y-138950020D01*
X87508453Y-138945062D01*
X87502818Y-138939837D01*
X87497445Y-138934357D01*
X87492346Y-138928631D01*
X87487530Y-138922668D01*
X87483008Y-138916479D01*
X87478790Y-138910074D01*
X87474885Y-138903462D01*
X87471304Y-138896653D01*
X87468057Y-138889657D01*
X87465154Y-138882484D01*
X87462605Y-138875143D01*
X87460421Y-138867645D01*
X87458611Y-138859999D01*
X87457186Y-138852216D01*
X87456155Y-138844304D01*
X87455529Y-138836275D01*
X87455318Y-138828137D01*
X87455529Y-138819996D01*
X87456155Y-138811965D01*
X87457186Y-138804051D01*
X87458611Y-138796266D01*
X87460421Y-138788618D01*
X87462605Y-138781119D01*
X87465154Y-138773777D01*
X87468057Y-138766602D01*
X87471304Y-138759605D01*
X87474885Y-138752795D01*
X87478790Y-138746181D01*
X87483008Y-138739775D01*
X87487530Y-138733585D01*
X87492346Y-138727622D01*
X87497445Y-138721895D01*
X87502818Y-138716414D01*
X87508453Y-138711190D01*
X87514342Y-138706231D01*
X87520473Y-138701547D01*
X87526838Y-138697149D01*
X87533425Y-138693047D01*
X87540224Y-138689249D01*
X87547226Y-138685767D01*
X87554421Y-138682609D01*
X87561797Y-138679786D01*
X87569346Y-138677308D01*
X87577056Y-138675184D01*
X87584919Y-138673424D01*
X87592923Y-138672038D01*
X87601059Y-138671036D01*
X87609316Y-138670427D01*
X87617685Y-138670222D01*
X87625979Y-138670427D01*
G37*
X87625979Y-138670427D02*
X87634171Y-138671036D01*
X87642250Y-138672038D01*
X87650207Y-138673424D01*
X87658031Y-138675184D01*
X87665710Y-138677308D01*
X87673235Y-138679786D01*
X87680594Y-138682609D01*
X87687778Y-138685767D01*
X87694775Y-138689249D01*
X87701575Y-138693047D01*
X87708168Y-138697149D01*
X87714542Y-138701547D01*
X87720687Y-138706231D01*
X87726593Y-138711190D01*
X87732249Y-138716414D01*
X87737644Y-138721895D01*
X87742768Y-138727622D01*
X87747610Y-138733585D01*
X87752160Y-138739775D01*
X87756406Y-138746181D01*
X87760339Y-138752795D01*
X87763948Y-138759605D01*
X87767221Y-138766602D01*
X87770150Y-138773777D01*
X87772722Y-138781119D01*
X87774928Y-138788618D01*
X87776756Y-138796266D01*
X87778197Y-138804051D01*
X87779239Y-138811965D01*
X87779872Y-138819996D01*
X87780085Y-138828137D01*
X87779872Y-138836275D01*
X87779239Y-138844304D01*
X87778197Y-138852216D01*
X87776756Y-138859999D01*
X87774928Y-138867645D01*
X87772722Y-138875143D01*
X87770150Y-138882484D01*
X87767221Y-138889657D01*
X87763948Y-138896653D01*
X87760339Y-138903462D01*
X87756406Y-138910074D01*
X87752160Y-138916479D01*
X87747610Y-138922668D01*
X87742768Y-138928631D01*
X87737644Y-138934357D01*
X87732249Y-138939837D01*
X87726593Y-138945062D01*
X87720687Y-138950020D01*
X87714542Y-138954703D01*
X87708168Y-138959101D01*
X87701575Y-138963203D01*
X87694775Y-138967000D01*
X87687778Y-138970482D01*
X87680594Y-138973640D01*
X87673235Y-138976463D01*
X87665710Y-138978941D01*
X87658031Y-138981065D01*
X87650207Y-138982825D01*
X87642250Y-138984211D01*
X87634171Y-138985214D01*
X87625979Y-138985822D01*
X87617685Y-138986027D01*
X87609316Y-138985822D01*
X87601059Y-138985214D01*
X87592923Y-138984211D01*
X87584919Y-138982825D01*
X87577056Y-138981065D01*
X87569346Y-138978941D01*
X87561797Y-138976463D01*
X87554421Y-138973640D01*
X87547226Y-138970482D01*
X87540224Y-138967000D01*
X87533425Y-138963203D01*
X87526838Y-138959101D01*
X87520473Y-138954703D01*
X87514342Y-138950020D01*
X87508453Y-138945062D01*
X87502818Y-138939837D01*
X87497445Y-138934357D01*
X87492346Y-138928631D01*
X87487530Y-138922668D01*
X87483008Y-138916479D01*
X87478790Y-138910074D01*
X87474885Y-138903462D01*
X87471304Y-138896653D01*
X87468057Y-138889657D01*
X87465154Y-138882484D01*
X87462605Y-138875143D01*
X87460421Y-138867645D01*
X87458611Y-138859999D01*
X87457186Y-138852216D01*
X87456155Y-138844304D01*
X87455529Y-138836275D01*
X87455318Y-138828137D01*
X87455529Y-138819996D01*
X87456155Y-138811965D01*
X87457186Y-138804051D01*
X87458611Y-138796266D01*
X87460421Y-138788618D01*
X87462605Y-138781119D01*
X87465154Y-138773777D01*
X87468057Y-138766602D01*
X87471304Y-138759605D01*
X87474885Y-138752795D01*
X87478790Y-138746181D01*
X87483008Y-138739775D01*
X87487530Y-138733585D01*
X87492346Y-138727622D01*
X87497445Y-138721895D01*
X87502818Y-138716414D01*
X87508453Y-138711190D01*
X87514342Y-138706231D01*
X87520473Y-138701547D01*
X87526838Y-138697149D01*
X87533425Y-138693047D01*
X87540224Y-138689249D01*
X87547226Y-138685767D01*
X87554421Y-138682609D01*
X87561797Y-138679786D01*
X87569346Y-138677308D01*
X87577056Y-138675184D01*
X87584919Y-138673424D01*
X87592923Y-138672038D01*
X87601059Y-138671036D01*
X87609316Y-138670427D01*
X87617685Y-138670222D01*
X87625979Y-138670427D01*
D11*
X90781313Y-137902540D02*
X90805707Y-137879924D01*
X90695546Y-138767416D02*
X90677276Y-138739703D01*
D10*
X90858104Y-137866621D02*
X90908917Y-137894610D01*
D11*
X91519502Y-139027119D02*
X91486866Y-139037858D01*
X91314143Y-137703380D02*
X91349813Y-137706018D01*
X91925199Y-138119649D02*
X91937776Y-138150667D01*
X91551399Y-137756165D02*
X91582512Y-137769842D01*
X91004581Y-139014889D02*
X90973467Y-139001210D01*
X91840853Y-138794196D02*
X91820000Y-138820000D01*
D15*
X100600000Y-123250000D02*
G75*
G03*
X100600000Y-123250000I-3600000J0D01*
G01*
X82500000Y-173900000D02*
X84100000Y-173900000D01*
X100600000Y-84250000D02*
G75*
G03*
X100600000Y-84250000I-3600000J0D01*
G01*
X75000000Y-169249999D02*
X75000000Y-178499999D01*
X100600000Y-103750000D02*
G75*
G03*
X100600000Y-103750000I-3600000J0D01*
G01*
X105000000Y-178499998D02*
X105000000Y-169250000D01*
X82500000Y-177100000D02*
X84100000Y-177100000D01*
X97500000Y-54600000D02*
X95900000Y-54600000D01*
X105000000Y-59250000D02*
X105000000Y-50000000D01*
X105000000Y-59250000D02*
X105000000Y-169250000D01*
X97500000Y-51400000D02*
X95900000Y-51400000D01*
X86100000Y-123250000D02*
G75*
G03*
X86100000Y-123250000I-3100000J0D01*
G01*
X86100000Y-103750000D02*
G75*
G03*
X86100000Y-103750000I-3100000J0D01*
G01*
X86100000Y-84250000D02*
G75*
G03*
X86100000Y-84250000I-3100000J0D01*
G01*
X75000000Y-50000000D02*
X75000000Y-59250000D01*
X84100000Y-177100000D02*
G75*
G03*
X84100000Y-173900000I0J1600000D01*
G01*
X105000000Y-50000000D02*
X75000000Y-50000000D01*
X75000000Y-169250000D02*
X75000000Y-59250000D01*
X86100000Y-160250000D02*
G75*
G03*
X86100000Y-160250000I-3100000J0D01*
G01*
X75000000Y-178499999D02*
X105000000Y-178499998D01*
X82500000Y-173900000D02*
G75*
G03*
X82500000Y-177100000I0J-1600000D01*
G01*
X100100000Y-160250000D02*
G75*
G03*
X100100000Y-160250000I-3100000J0D01*
G01*
X95900000Y-51400000D02*
G75*
G03*
X95900000Y-54600000I0J-1600000D01*
G01*
X97500000Y-54600000D02*
G75*
G03*
X97500000Y-51400000I0J1600000D01*
G01*
D16*
X94443333Y-141707380D02*
X94443333Y-140707380D01*
X94205238Y-140707380D01*
X94062380Y-140755000D01*
X93967142Y-140850238D01*
X93919523Y-140945476D01*
X93871904Y-141135952D01*
X93871904Y-141278809D01*
X93919523Y-141469285D01*
X93967142Y-141564523D01*
X94062380Y-141659761D01*
X94205238Y-141707380D01*
X94443333Y-141707380D01*
X93062380Y-141659761D02*
X93157619Y-141707380D01*
X93348095Y-141707380D01*
X93443333Y-141659761D01*
X93490952Y-141564523D01*
X93490952Y-141183571D01*
X93443333Y-141088333D01*
X93348095Y-141040714D01*
X93157619Y-141040714D01*
X93062380Y-141088333D01*
X93014761Y-141183571D01*
X93014761Y-141278809D01*
X93490952Y-141374047D01*
X92633809Y-141659761D02*
X92538571Y-141707380D01*
X92348095Y-141707380D01*
X92252857Y-141659761D01*
X92205238Y-141564523D01*
X92205238Y-141516904D01*
X92252857Y-141421666D01*
X92348095Y-141374047D01*
X92490952Y-141374047D01*
X92586190Y-141326428D01*
X92633809Y-141231190D01*
X92633809Y-141183571D01*
X92586190Y-141088333D01*
X92490952Y-141040714D01*
X92348095Y-141040714D01*
X92252857Y-141088333D01*
X91776666Y-141707380D02*
X91776666Y-141040714D01*
X91776666Y-140707380D02*
X91824285Y-140755000D01*
X91776666Y-140802619D01*
X91729047Y-140755000D01*
X91776666Y-140707380D01*
X91776666Y-140802619D01*
X90871904Y-141040714D02*
X90871904Y-141850238D01*
X90919523Y-141945476D01*
X90967142Y-141993095D01*
X91062380Y-142040714D01*
X91205238Y-142040714D01*
X91300476Y-141993095D01*
X90871904Y-141659761D02*
X90967142Y-141707380D01*
X91157619Y-141707380D01*
X91252857Y-141659761D01*
X91300476Y-141612142D01*
X91348095Y-141516904D01*
X91348095Y-141231190D01*
X91300476Y-141135952D01*
X91252857Y-141088333D01*
X91157619Y-141040714D01*
X90967142Y-141040714D01*
X90871904Y-141088333D01*
X90395714Y-141040714D02*
X90395714Y-141707380D01*
X90395714Y-141135952D02*
X90348095Y-141088333D01*
X90252857Y-141040714D01*
X90110000Y-141040714D01*
X90014761Y-141088333D01*
X89967142Y-141183571D01*
X89967142Y-141707380D01*
X89110000Y-141659761D02*
X89205238Y-141707380D01*
X89395714Y-141707380D01*
X89490952Y-141659761D01*
X89538571Y-141564523D01*
X89538571Y-141183571D01*
X89490952Y-141088333D01*
X89395714Y-141040714D01*
X89205238Y-141040714D01*
X89110000Y-141088333D01*
X89062380Y-141183571D01*
X89062380Y-141278809D01*
X89538571Y-141374047D01*
X88205238Y-141707380D02*
X88205238Y-140707380D01*
X88205238Y-141659761D02*
X88300476Y-141707380D01*
X88490952Y-141707380D01*
X88586190Y-141659761D01*
X88633809Y-141612142D01*
X88681428Y-141516904D01*
X88681428Y-141231190D01*
X88633809Y-141135952D01*
X88586190Y-141088333D01*
X88490952Y-141040714D01*
X88300476Y-141040714D01*
X88205238Y-141088333D01*
X86967142Y-141707380D02*
X86967142Y-140707380D01*
X86967142Y-141088333D02*
X86871904Y-141040714D01*
X86681428Y-141040714D01*
X86586190Y-141088333D01*
X86538571Y-141135952D01*
X86490952Y-141231190D01*
X86490952Y-141516904D01*
X86538571Y-141612142D01*
X86586190Y-141659761D01*
X86681428Y-141707380D01*
X86871904Y-141707380D01*
X86967142Y-141659761D01*
X86157619Y-141040714D02*
X85919523Y-141707380D01*
X85681428Y-141040714D02*
X85919523Y-141707380D01*
X86014761Y-141945476D01*
X86062380Y-141993095D01*
X86157619Y-142040714D01*
X95110000Y-142317380D02*
X95110000Y-143031666D01*
X95157619Y-143174523D01*
X95252857Y-143269761D01*
X95395714Y-143317380D01*
X95490952Y-143317380D01*
X94490952Y-143317380D02*
X94586190Y-143269761D01*
X94633809Y-143222142D01*
X94681428Y-143126904D01*
X94681428Y-142841190D01*
X94633809Y-142745952D01*
X94586190Y-142698333D01*
X94490952Y-142650714D01*
X94348095Y-142650714D01*
X94252857Y-142698333D01*
X94205238Y-142745952D01*
X94157619Y-142841190D01*
X94157619Y-143126904D01*
X94205238Y-143222142D01*
X94252857Y-143269761D01*
X94348095Y-143317380D01*
X94490952Y-143317380D01*
X93729047Y-143317380D02*
X93729047Y-142650714D01*
X93729047Y-142841190D02*
X93681428Y-142745952D01*
X93633809Y-142698333D01*
X93538571Y-142650714D01*
X93443333Y-142650714D01*
X92681428Y-142650714D02*
X92681428Y-143460238D01*
X92729047Y-143555476D01*
X92776666Y-143603095D01*
X92871904Y-143650714D01*
X93014761Y-143650714D01*
X93110000Y-143603095D01*
X92681428Y-143269761D02*
X92776666Y-143317380D01*
X92967142Y-143317380D01*
X93062380Y-143269761D01*
X93110000Y-143222142D01*
X93157619Y-143126904D01*
X93157619Y-142841190D01*
X93110000Y-142745952D01*
X93062380Y-142698333D01*
X92967142Y-142650714D01*
X92776666Y-142650714D01*
X92681428Y-142698333D01*
X91824285Y-143269761D02*
X91919523Y-143317380D01*
X92110000Y-143317380D01*
X92205238Y-143269761D01*
X92252857Y-143174523D01*
X92252857Y-142793571D01*
X92205238Y-142698333D01*
X92110000Y-142650714D01*
X91919523Y-142650714D01*
X91824285Y-142698333D01*
X91776666Y-142793571D01*
X91776666Y-142888809D01*
X92252857Y-142984047D01*
X90395714Y-142317380D02*
X90205238Y-142317380D01*
X90110000Y-142365000D01*
X90014761Y-142460238D01*
X89967142Y-142650714D01*
X89967142Y-142984047D01*
X90014761Y-143174523D01*
X90110000Y-143269761D01*
X90205238Y-143317380D01*
X90395714Y-143317380D01*
X90490952Y-143269761D01*
X90586190Y-143174523D01*
X90633809Y-142984047D01*
X90633809Y-142650714D01*
X90586190Y-142460238D01*
X90490952Y-142365000D01*
X90395714Y-142317380D01*
X89538571Y-143317380D02*
X89538571Y-142650714D01*
X89538571Y-142841190D02*
X89490952Y-142745952D01*
X89443333Y-142698333D01*
X89348095Y-142650714D01*
X89252857Y-142650714D01*
X89062380Y-142650714D02*
X88681428Y-142650714D01*
X88919523Y-142317380D02*
X88919523Y-143174523D01*
X88871904Y-143269761D01*
X88776666Y-143317380D01*
X88681428Y-143317380D01*
X88348095Y-143317380D02*
X88348095Y-142650714D01*
X88348095Y-142317380D02*
X88395714Y-142365000D01*
X88348095Y-142412619D01*
X88300476Y-142365000D01*
X88348095Y-142317380D01*
X88348095Y-142412619D01*
X87443333Y-142650714D02*
X87443333Y-143460238D01*
X87490952Y-143555476D01*
X87538571Y-143603095D01*
X87633809Y-143650714D01*
X87776666Y-143650714D01*
X87871904Y-143603095D01*
X87443333Y-143269761D02*
X87538571Y-143317380D01*
X87729047Y-143317380D01*
X87824285Y-143269761D01*
X87871904Y-143222142D01*
X87919523Y-143126904D01*
X87919523Y-142841190D01*
X87871904Y-142745952D01*
X87824285Y-142698333D01*
X87729047Y-142650714D01*
X87538571Y-142650714D01*
X87443333Y-142698333D01*
X86824285Y-143317380D02*
X86919523Y-143269761D01*
X86967142Y-143222142D01*
X87014761Y-143126904D01*
X87014761Y-142841190D01*
X86967142Y-142745952D01*
X86919523Y-142698333D01*
X86824285Y-142650714D01*
X86681428Y-142650714D01*
X86586190Y-142698333D01*
X86538571Y-142745952D01*
X86490952Y-142841190D01*
X86490952Y-143126904D01*
X86538571Y-143222142D01*
X86586190Y-143269761D01*
X86681428Y-143317380D01*
X86824285Y-143317380D01*
X86110000Y-143269761D02*
X86014761Y-143317380D01*
X85824285Y-143317380D01*
X85729047Y-143269761D01*
X85681428Y-143174523D01*
X85681428Y-143126904D01*
X85729047Y-143031666D01*
X85824285Y-142984047D01*
X85967142Y-142984047D01*
X86062380Y-142936428D01*
X86110000Y-142841190D01*
X86110000Y-142793571D01*
X86062380Y-142698333D01*
X85967142Y-142650714D01*
X85824285Y-142650714D01*
X85729047Y-142698333D01*
X85110000Y-143317380D02*
X85205238Y-143269761D01*
X85252857Y-143222142D01*
X85300476Y-143126904D01*
X85300476Y-142841190D01*
X85252857Y-142745952D01*
X85205238Y-142698333D01*
X85110000Y-142650714D01*
X84967142Y-142650714D01*
X84871904Y-142698333D01*
X84824285Y-142745952D01*
X84776666Y-142841190D01*
X84776666Y-143126904D01*
X84824285Y-143222142D01*
X84871904Y-143269761D01*
X84967142Y-143317380D01*
X85110000Y-143317380D01*
M02*
