%TF.GenerationSoftware,KiCad,Pcbnew,(6.0.1)*%
%TF.CreationDate,2023-06-10T19:21:27+02:00*%
%TF.ProjectId,mixerfront,6d697865-7266-4726-9f6e-742e6b696361,rev?*%
%TF.SameCoordinates,Original*%
%TF.FileFunction,Profile,NP*%
%FSLAX46Y46*%
G04 Gerber Fmt 4.6, Leading zero omitted, Abs format (unit mm)*
G04 Created by KiCad (PCBNEW (6.0.1)) date 2023-06-10 19:21:27*
%MOMM*%
%LPD*%
G01*
G04 APERTURE LIST*
%TA.AperFunction,Profile*%
%ADD10C,0.100000*%
%TD*%
G04 APERTURE END LIST*
D10*
X100600000Y-123250000D02*
G75*
G03*
X100600000Y-123250000I-3600000J0D01*
G01*
X82500000Y-173900000D02*
X84100000Y-173900000D01*
X100600000Y-84250000D02*
G75*
G03*
X100600000Y-84250000I-3600000J0D01*
G01*
X75000000Y-169249999D02*
X75000000Y-178499999D01*
X100600000Y-103750000D02*
G75*
G03*
X100600000Y-103750000I-3600000J0D01*
G01*
X105000000Y-178499998D02*
X105000000Y-169250000D01*
X82500000Y-177100000D02*
X84100000Y-177100000D01*
X97500000Y-54600000D02*
X95900000Y-54600000D01*
X105000000Y-59250000D02*
X105000000Y-50000000D01*
X105000000Y-59250000D02*
X105000000Y-169250000D01*
X97500000Y-51400000D02*
X95900000Y-51400000D01*
X86100000Y-123250000D02*
G75*
G03*
X86100000Y-123250000I-3100000J0D01*
G01*
X86100000Y-103750000D02*
G75*
G03*
X86100000Y-103750000I-3100000J0D01*
G01*
X86100000Y-84250000D02*
G75*
G03*
X86100000Y-84250000I-3100000J0D01*
G01*
X75000000Y-50000000D02*
X75000000Y-59250000D01*
X84100000Y-177100000D02*
G75*
G03*
X84100000Y-173900000I0J1600000D01*
G01*
X105000000Y-50000000D02*
X75000000Y-50000000D01*
X75000000Y-169250000D02*
X75000000Y-59250000D01*
X86100000Y-160250000D02*
G75*
G03*
X86100000Y-160250000I-3100000J0D01*
G01*
X75000000Y-178499999D02*
X105000000Y-178499998D01*
X82500000Y-173900000D02*
G75*
G03*
X82500000Y-177100000I0J-1600000D01*
G01*
X100100000Y-160250000D02*
G75*
G03*
X100100000Y-160250000I-3100000J0D01*
G01*
X95900000Y-51400000D02*
G75*
G03*
X95900000Y-54600000I0J-1600000D01*
G01*
X97500000Y-54600000D02*
G75*
G03*
X97500000Y-51400000I0J1600000D01*
G01*
M02*
