G04 #@! TF.GenerationSoftware,KiCad,Pcbnew,(6.0.1)*
G04 #@! TF.CreationDate,2023-06-10T19:20:07+02:00*
G04 #@! TF.ProjectId,mixer,6d697865-722e-46b6-9963-61645f706362,rev?*
G04 #@! TF.SameCoordinates,Original*
G04 #@! TF.FileFunction,Legend,Top*
G04 #@! TF.FilePolarity,Positive*
%FSLAX46Y46*%
G04 Gerber Fmt 4.6, Leading zero omitted, Abs format (unit mm)*
G04 Created by KiCad (PCBNEW (6.0.1)) date 2023-06-10 19:20:07*
%MOMM*%
%LPD*%
G01*
G04 APERTURE LIST*
G04 Aperture macros list*
%AMRoundRect*
0 Rectangle with rounded corners*
0 $1 Rounding radius*
0 $2 $3 $4 $5 $6 $7 $8 $9 X,Y pos of 4 corners*
0 Add a 4 corners polygon primitive as box body*
4,1,4,$2,$3,$4,$5,$6,$7,$8,$9,$2,$3,0*
0 Add four circle primitives for the rounded corners*
1,1,$1+$1,$2,$3*
1,1,$1+$1,$4,$5*
1,1,$1+$1,$6,$7*
1,1,$1+$1,$8,$9*
0 Add four rect primitives between the rounded corners*
20,1,$1+$1,$2,$3,$4,$5,0*
20,1,$1+$1,$4,$5,$6,$7,0*
20,1,$1+$1,$6,$7,$8,$9,0*
20,1,$1+$1,$8,$9,$2,$3,0*%
G04 Aperture macros list end*
%ADD10C,0.011565*%
%ADD11C,0.121440*%
%ADD12C,0.399019*%
%ADD13C,0.112766*%
%ADD14C,0.150000*%
%ADD15C,0.120000*%
%ADD16C,0.200000*%
%ADD17O,2.720000X3.240000*%
%ADD18R,1.800000X1.800000*%
%ADD19C,1.800000*%
%ADD20O,3.100000X2.100000*%
%ADD21RoundRect,0.650000X-0.650000X-0.650000X0.650000X-0.650000X0.650000X0.650000X-0.650000X0.650000X0*%
%ADD22C,1.400000*%
%ADD23O,1.400000X1.400000*%
%ADD24C,1.600000*%
%ADD25R,2.200000X2.200000*%
%ADD26O,2.200000X2.200000*%
%ADD27R,1.200000X1.200000*%
%ADD28C,1.200000*%
%ADD29R,1.600000X1.600000*%
%ADD30O,1.600000X1.600000*%
%ADD31RoundRect,0.250000X0.600000X-0.600000X0.600000X0.600000X-0.600000X0.600000X-0.600000X-0.600000X0*%
%ADD32C,1.700000*%
G04 APERTURE END LIST*
D10*
X66189923Y-95373929D02*
X66335003Y-95724391D01*
X66335003Y-95724391D02*
X66108874Y-95724391D01*
X66108874Y-95724391D02*
X65983133Y-95411576D01*
X65983133Y-95411576D02*
X65776342Y-95411576D01*
X65776342Y-95411576D02*
X65776342Y-95724391D01*
X65776342Y-95724391D02*
X65570795Y-95724391D01*
X65570795Y-95724391D02*
X65570795Y-94902404D01*
X65570795Y-94902404D02*
X66053263Y-94902404D01*
X66053263Y-94902404D02*
X66066676Y-94902735D01*
X66066676Y-94902735D02*
X66079923Y-94903719D01*
X66079923Y-94903719D02*
X66092987Y-94905339D01*
X66092987Y-94905339D02*
X66105852Y-94907579D01*
X66105852Y-94907579D02*
X66118499Y-94910423D01*
X66118499Y-94910423D02*
X66130913Y-94913854D01*
X66130913Y-94913854D02*
X66143075Y-94917858D01*
X66143075Y-94917858D02*
X66154969Y-94922416D01*
X66154969Y-94922416D02*
X66166578Y-94927514D01*
X66166578Y-94927514D02*
X66177885Y-94933134D01*
X66177885Y-94933134D02*
X66188873Y-94939262D01*
X66188873Y-94939262D02*
X66199524Y-94945880D01*
X66199524Y-94945880D02*
X66209822Y-94952973D01*
X66209822Y-94952973D02*
X66219749Y-94960524D01*
X66219749Y-94960524D02*
X66229289Y-94968517D01*
X66229289Y-94968517D02*
X66238425Y-94976937D01*
X66238425Y-94976937D02*
X66247139Y-94985766D01*
X66247139Y-94985766D02*
X66255414Y-94994990D01*
X66255414Y-94994990D02*
X66263233Y-95004590D01*
X66263233Y-95004590D02*
X66270580Y-95014552D01*
X66270580Y-95014552D02*
X66277438Y-95024860D01*
X66277438Y-95024860D02*
X66283788Y-95035496D01*
X66283788Y-95035496D02*
X66289614Y-95046446D01*
X66289614Y-95046446D02*
X66294900Y-95057692D01*
X66294900Y-95057692D02*
X66299627Y-95069219D01*
X66299627Y-95069219D02*
X66303780Y-95081011D01*
X66303780Y-95081011D02*
X66307340Y-95093050D01*
X66307340Y-95093050D02*
X66310292Y-95105322D01*
X66310292Y-95105322D02*
X66312617Y-95117810D01*
X66312617Y-95117810D02*
X66314299Y-95130498D01*
X66314299Y-95130498D02*
X66315320Y-95143369D01*
X66315320Y-95143369D02*
X66315665Y-95156408D01*
X66315665Y-95156408D02*
X66315076Y-95173475D01*
X66315076Y-95173475D02*
X66313335Y-95190256D01*
X66313335Y-95190256D02*
X66310482Y-95206713D01*
X66310482Y-95206713D02*
X66306556Y-95222808D01*
X66306556Y-95222808D02*
X66301595Y-95238503D01*
X66301595Y-95238503D02*
X66295638Y-95253760D01*
X66295638Y-95253760D02*
X66288725Y-95268541D01*
X66288725Y-95268541D02*
X66280895Y-95282809D01*
X66280895Y-95282809D02*
X66272187Y-95296526D01*
X66272187Y-95296526D02*
X66262640Y-95309654D01*
X66262640Y-95309654D02*
X66252293Y-95322154D01*
X66252293Y-95322154D02*
X66241184Y-95333990D01*
X66241184Y-95333990D02*
X66229354Y-95345124D01*
X66229354Y-95345124D02*
X66216841Y-95355516D01*
X66216841Y-95355516D02*
X66203684Y-95365131D01*
X66203684Y-95365131D02*
X66189922Y-95373929D01*
X66189922Y-95373929D02*
X66189923Y-95373929D01*
X66189923Y-95373929D02*
X66189923Y-95373929D01*
G36*
X66066676Y-94902735D02*
G01*
X66079923Y-94903719D01*
X66092987Y-94905339D01*
X66105852Y-94907579D01*
X66118499Y-94910423D01*
X66130913Y-94913854D01*
X66143075Y-94917858D01*
X66154969Y-94922416D01*
X66166578Y-94927514D01*
X66177885Y-94933134D01*
X66188873Y-94939262D01*
X66199524Y-94945880D01*
X66209822Y-94952973D01*
X66219749Y-94960524D01*
X66229289Y-94968517D01*
X66238425Y-94976937D01*
X66247139Y-94985766D01*
X66255414Y-94994990D01*
X66263233Y-95004590D01*
X66270580Y-95014552D01*
X66277438Y-95024860D01*
X66283788Y-95035496D01*
X66289614Y-95046446D01*
X66294900Y-95057692D01*
X66299627Y-95069219D01*
X66303780Y-95081011D01*
X66307340Y-95093050D01*
X66310292Y-95105322D01*
X66312617Y-95117810D01*
X66314299Y-95130498D01*
X66315320Y-95143369D01*
X66315665Y-95156408D01*
X66315076Y-95173475D01*
X66313335Y-95190256D01*
X66310482Y-95206713D01*
X66306556Y-95222808D01*
X66301595Y-95238503D01*
X66295638Y-95253760D01*
X66288725Y-95268541D01*
X66280895Y-95282809D01*
X66272187Y-95296526D01*
X66262640Y-95309654D01*
X66252293Y-95322154D01*
X66241184Y-95333990D01*
X66229354Y-95345124D01*
X66216841Y-95355516D01*
X66203684Y-95365131D01*
X66189922Y-95373929D01*
X66189923Y-95373929D01*
X66335003Y-95724391D01*
X66108874Y-95724391D01*
X65983133Y-95411576D01*
X65776342Y-95411576D01*
X65776342Y-95724391D01*
X65570795Y-95724391D01*
X65570795Y-94902404D01*
X66053263Y-94902404D01*
X66066676Y-94902735D01*
G37*
X66066676Y-94902735D02*
X66079923Y-94903719D01*
X66092987Y-94905339D01*
X66105852Y-94907579D01*
X66118499Y-94910423D01*
X66130913Y-94913854D01*
X66143075Y-94917858D01*
X66154969Y-94922416D01*
X66166578Y-94927514D01*
X66177885Y-94933134D01*
X66188873Y-94939262D01*
X66199524Y-94945880D01*
X66209822Y-94952973D01*
X66219749Y-94960524D01*
X66229289Y-94968517D01*
X66238425Y-94976937D01*
X66247139Y-94985766D01*
X66255414Y-94994990D01*
X66263233Y-95004590D01*
X66270580Y-95014552D01*
X66277438Y-95024860D01*
X66283788Y-95035496D01*
X66289614Y-95046446D01*
X66294900Y-95057692D01*
X66299627Y-95069219D01*
X66303780Y-95081011D01*
X66307340Y-95093050D01*
X66310292Y-95105322D01*
X66312617Y-95117810D01*
X66314299Y-95130498D01*
X66315320Y-95143369D01*
X66315665Y-95156408D01*
X66315076Y-95173475D01*
X66313335Y-95190256D01*
X66310482Y-95206713D01*
X66306556Y-95222808D01*
X66301595Y-95238503D01*
X66295638Y-95253760D01*
X66288725Y-95268541D01*
X66280895Y-95282809D01*
X66272187Y-95296526D01*
X66262640Y-95309654D01*
X66252293Y-95322154D01*
X66241184Y-95333990D01*
X66229354Y-95345124D01*
X66216841Y-95355516D01*
X66203684Y-95365131D01*
X66189922Y-95373929D01*
X66189923Y-95373929D01*
X66335003Y-95724391D01*
X66108874Y-95724391D01*
X65983133Y-95411576D01*
X65776342Y-95411576D01*
X65776342Y-95724391D01*
X65570795Y-95724391D01*
X65570795Y-94902404D01*
X66053263Y-94902404D01*
X66066676Y-94902735D01*
D11*
X63867203Y-95228349D02*
X63812635Y-95275450D01*
D12*
X64729060Y-95458278D02*
X64690506Y-95484939D01*
D11*
X64166745Y-94527393D02*
X64186640Y-94474175D01*
D10*
X66108874Y-95156408D02*
X66108801Y-95153666D01*
X66108801Y-95153666D02*
X66108582Y-95150956D01*
X66108582Y-95150956D02*
X66108222Y-95148280D01*
X66108222Y-95148280D02*
X66107725Y-95145643D01*
X66107725Y-95145643D02*
X66107094Y-95143049D01*
X66107094Y-95143049D02*
X66106333Y-95140500D01*
X66106333Y-95140500D02*
X66105446Y-95138001D01*
X66105446Y-95138001D02*
X66104437Y-95135555D01*
X66104437Y-95135555D02*
X66103309Y-95133166D01*
X66103309Y-95133166D02*
X66102066Y-95130838D01*
X66102066Y-95130838D02*
X66100712Y-95128574D01*
X66100712Y-95128574D02*
X66099250Y-95126378D01*
X66099250Y-95126378D02*
X66097685Y-95124253D01*
X66097685Y-95124253D02*
X66096020Y-95122203D01*
X66096020Y-95122203D02*
X66094259Y-95120232D01*
X66094259Y-95120232D02*
X66092406Y-95118344D01*
X66092406Y-95118344D02*
X66090464Y-95116542D01*
X66090464Y-95116542D02*
X66088438Y-95114829D01*
X66088438Y-95114829D02*
X66086330Y-95113210D01*
X66086330Y-95113210D02*
X66084145Y-95111688D01*
X66084145Y-95111688D02*
X66081886Y-95110267D01*
X66081886Y-95110267D02*
X66079558Y-95108950D01*
X66079558Y-95108950D02*
X66077164Y-95107742D01*
X66077164Y-95107742D02*
X66074707Y-95106645D01*
X66074707Y-95106645D02*
X66072192Y-95105663D01*
X66072192Y-95105663D02*
X66069622Y-95104801D01*
X66069622Y-95104801D02*
X66067001Y-95104061D01*
X66067001Y-95104061D02*
X66064333Y-95103447D01*
X66064333Y-95103447D02*
X66061621Y-95102963D01*
X66061621Y-95102963D02*
X66058870Y-95102613D01*
X66058870Y-95102613D02*
X66056083Y-95102401D01*
X66056083Y-95102401D02*
X66053263Y-95102329D01*
X66053263Y-95102329D02*
X65776342Y-95102329D01*
X65776342Y-95102329D02*
X65776342Y-95211693D01*
X65776342Y-95211693D02*
X66053263Y-95211693D01*
X66053263Y-95211693D02*
X66056083Y-95211622D01*
X66056083Y-95211622D02*
X66058870Y-95211409D01*
X66058870Y-95211409D02*
X66061621Y-95211058D01*
X66061621Y-95211058D02*
X66064333Y-95210573D01*
X66064333Y-95210573D02*
X66067001Y-95209958D01*
X66067001Y-95209958D02*
X66069622Y-95209214D01*
X66069622Y-95209214D02*
X66072192Y-95208347D01*
X66072192Y-95208347D02*
X66074707Y-95207359D01*
X66074707Y-95207359D02*
X66077164Y-95206254D01*
X66077164Y-95206254D02*
X66079558Y-95205036D01*
X66079558Y-95205036D02*
X66081886Y-95203707D01*
X66081886Y-95203707D02*
X66084145Y-95202271D01*
X66084145Y-95202271D02*
X66086330Y-95200732D01*
X66086330Y-95200732D02*
X66088438Y-95199093D01*
X66088438Y-95199093D02*
X66090464Y-95197357D01*
X66090464Y-95197357D02*
X66092406Y-95195529D01*
X66092406Y-95195529D02*
X66094259Y-95193610D01*
X66094259Y-95193610D02*
X66096020Y-95191606D01*
X66096020Y-95191606D02*
X66097685Y-95189518D01*
X66097685Y-95189518D02*
X66099250Y-95187351D01*
X66099250Y-95187351D02*
X66100712Y-95185109D01*
X66100712Y-95185109D02*
X66102066Y-95182793D01*
X66102066Y-95182793D02*
X66103309Y-95180409D01*
X66103309Y-95180409D02*
X66104437Y-95177959D01*
X66104437Y-95177959D02*
X66105446Y-95175447D01*
X66105446Y-95175447D02*
X66106333Y-95172876D01*
X66106333Y-95172876D02*
X66107094Y-95170249D01*
X66107094Y-95170249D02*
X66107725Y-95167571D01*
X66107725Y-95167571D02*
X66108222Y-95164844D01*
X66108222Y-95164844D02*
X66108582Y-95162073D01*
X66108582Y-95162073D02*
X66108801Y-95159259D01*
X66108801Y-95159259D02*
X66108874Y-95156408D01*
X66108874Y-95156408D02*
X66108874Y-95156408D01*
G36*
X66056083Y-95102401D02*
G01*
X66058870Y-95102613D01*
X66061621Y-95102963D01*
X66064333Y-95103447D01*
X66067001Y-95104061D01*
X66069622Y-95104801D01*
X66072192Y-95105663D01*
X66074707Y-95106645D01*
X66077164Y-95107742D01*
X66079558Y-95108950D01*
X66081886Y-95110267D01*
X66084145Y-95111688D01*
X66086330Y-95113210D01*
X66088438Y-95114829D01*
X66090464Y-95116542D01*
X66092406Y-95118344D01*
X66094259Y-95120232D01*
X66096020Y-95122203D01*
X66097685Y-95124253D01*
X66099250Y-95126378D01*
X66100712Y-95128574D01*
X66102066Y-95130838D01*
X66103309Y-95133166D01*
X66104437Y-95135555D01*
X66105446Y-95138001D01*
X66106333Y-95140500D01*
X66107094Y-95143049D01*
X66107725Y-95145643D01*
X66108222Y-95148280D01*
X66108582Y-95150956D01*
X66108801Y-95153666D01*
X66108874Y-95156408D01*
X66108801Y-95159259D01*
X66108582Y-95162073D01*
X66108222Y-95164844D01*
X66107725Y-95167571D01*
X66107094Y-95170249D01*
X66106333Y-95172876D01*
X66105446Y-95175447D01*
X66104437Y-95177959D01*
X66103309Y-95180409D01*
X66102066Y-95182793D01*
X66100712Y-95185109D01*
X66099250Y-95187351D01*
X66097685Y-95189518D01*
X66096020Y-95191606D01*
X66094259Y-95193610D01*
X66092406Y-95195529D01*
X66090464Y-95197357D01*
X66088438Y-95199093D01*
X66086330Y-95200732D01*
X66084145Y-95202271D01*
X66081886Y-95203707D01*
X66079558Y-95205036D01*
X66077164Y-95206254D01*
X66074707Y-95207359D01*
X66072192Y-95208347D01*
X66069622Y-95209214D01*
X66067001Y-95209958D01*
X66064333Y-95210573D01*
X66061621Y-95211058D01*
X66058870Y-95211409D01*
X66056083Y-95211622D01*
X66053263Y-95211693D01*
X65776342Y-95211693D01*
X65776342Y-95102329D01*
X66053263Y-95102329D01*
X66056083Y-95102401D01*
G37*
X66056083Y-95102401D02*
X66058870Y-95102613D01*
X66061621Y-95102963D01*
X66064333Y-95103447D01*
X66067001Y-95104061D01*
X66069622Y-95104801D01*
X66072192Y-95105663D01*
X66074707Y-95106645D01*
X66077164Y-95107742D01*
X66079558Y-95108950D01*
X66081886Y-95110267D01*
X66084145Y-95111688D01*
X66086330Y-95113210D01*
X66088438Y-95114829D01*
X66090464Y-95116542D01*
X66092406Y-95118344D01*
X66094259Y-95120232D01*
X66096020Y-95122203D01*
X66097685Y-95124253D01*
X66099250Y-95126378D01*
X66100712Y-95128574D01*
X66102066Y-95130838D01*
X66103309Y-95133166D01*
X66104437Y-95135555D01*
X66105446Y-95138001D01*
X66106333Y-95140500D01*
X66107094Y-95143049D01*
X66107725Y-95145643D01*
X66108222Y-95148280D01*
X66108582Y-95150956D01*
X66108801Y-95153666D01*
X66108874Y-95156408D01*
X66108801Y-95159259D01*
X66108582Y-95162073D01*
X66108222Y-95164844D01*
X66107725Y-95167571D01*
X66107094Y-95170249D01*
X66106333Y-95172876D01*
X66105446Y-95175447D01*
X66104437Y-95177959D01*
X66103309Y-95180409D01*
X66102066Y-95182793D01*
X66100712Y-95185109D01*
X66099250Y-95187351D01*
X66097685Y-95189518D01*
X66096020Y-95191606D01*
X66094259Y-95193610D01*
X66092406Y-95195529D01*
X66090464Y-95197357D01*
X66088438Y-95199093D01*
X66086330Y-95200732D01*
X66084145Y-95202271D01*
X66081886Y-95203707D01*
X66079558Y-95205036D01*
X66077164Y-95206254D01*
X66074707Y-95207359D01*
X66072192Y-95208347D01*
X66069622Y-95209214D01*
X66067001Y-95209958D01*
X66064333Y-95210573D01*
X66061621Y-95211058D01*
X66058870Y-95211409D01*
X66056083Y-95211622D01*
X66053263Y-95211693D01*
X65776342Y-95211693D01*
X65776342Y-95102329D01*
X66053263Y-95102329D01*
X66056083Y-95102401D01*
D12*
X64090078Y-93736995D02*
X64140680Y-93735750D01*
D11*
X65422822Y-93718261D02*
X65523130Y-93696643D01*
D12*
X63630781Y-93874183D02*
X63671961Y-93851159D01*
X63157321Y-94691998D02*
X63157321Y-94691998D01*
X60179086Y-95040293D02*
X60197463Y-95084610D01*
X65118973Y-94789768D02*
X65112720Y-94837624D01*
D11*
X64657394Y-94004717D02*
X64728532Y-93965532D01*
D12*
X65046776Y-95064212D02*
X65027084Y-95106570D01*
X64928699Y-95264137D02*
X64899506Y-95300262D01*
D11*
X62218648Y-95803783D02*
X62105094Y-95810928D01*
D12*
X63168652Y-94837624D02*
X63162398Y-94789768D01*
X64981692Y-95187847D02*
X64956114Y-95226646D01*
X65093093Y-94453007D02*
X65104073Y-94499272D01*
D13*
X64140679Y-93062725D02*
X64140679Y-96321284D01*
D12*
X63234600Y-95064212D02*
X63216993Y-95020787D01*
X61799256Y-95424554D02*
X61762826Y-95455318D01*
X62082985Y-94990924D02*
X62067208Y-95036435D01*
D10*
X71329339Y-95311654D02*
X71329044Y-95300258D01*
X71329044Y-95300258D02*
X71328168Y-95289013D01*
X71328168Y-95289013D02*
X71326725Y-95277934D01*
X71326725Y-95277934D02*
X71324729Y-95267035D01*
X71324729Y-95267035D02*
X71322196Y-95256328D01*
X71322196Y-95256328D02*
X71319138Y-95245829D01*
X71319138Y-95245829D02*
X71315569Y-95235550D01*
X71315569Y-95235550D02*
X71311505Y-95225505D01*
X71311505Y-95225505D02*
X71306960Y-95215709D01*
X71306960Y-95215709D02*
X71301946Y-95206175D01*
X71301946Y-95206175D02*
X71296479Y-95196917D01*
X71296479Y-95196917D02*
X71290573Y-95187948D01*
X71290573Y-95187948D02*
X71284242Y-95179282D01*
X71284242Y-95179282D02*
X71277500Y-95170934D01*
X71277500Y-95170934D02*
X71270361Y-95162916D01*
X71270361Y-95162916D02*
X71262840Y-95155243D01*
X71262840Y-95155243D02*
X71254950Y-95147928D01*
X71254950Y-95147928D02*
X71246706Y-95140985D01*
X71246706Y-95140985D02*
X71238122Y-95134429D01*
X71238122Y-95134429D02*
X71229212Y-95128272D01*
X71229212Y-95128272D02*
X71219990Y-95122528D01*
X71219990Y-95122528D02*
X71210471Y-95117212D01*
X71210471Y-95117212D02*
X71200668Y-95112336D01*
X71200668Y-95112336D02*
X71190596Y-95107916D01*
X71190596Y-95107916D02*
X71180269Y-95103964D01*
X71180269Y-95103964D02*
X71169701Y-95100494D01*
X71169701Y-95100494D02*
X71158906Y-95097520D01*
X71158906Y-95097520D02*
X71147898Y-95095056D01*
X71147898Y-95095056D02*
X71136692Y-95093115D01*
X71136692Y-95093115D02*
X71125302Y-95091712D01*
X71125302Y-95091712D02*
X71113742Y-95090860D01*
X71113742Y-95090860D02*
X71102026Y-95090573D01*
X71102026Y-95090573D02*
X71090415Y-95090860D01*
X71090415Y-95090860D02*
X71078946Y-95091712D01*
X71078946Y-95091712D02*
X71067635Y-95093115D01*
X71067635Y-95093115D02*
X71056495Y-95095056D01*
X71056495Y-95095056D02*
X71045542Y-95097520D01*
X71045542Y-95097520D02*
X71034791Y-95100494D01*
X71034791Y-95100494D02*
X71024257Y-95103964D01*
X71024257Y-95103964D02*
X71013953Y-95107916D01*
X71013953Y-95107916D02*
X71003896Y-95112336D01*
X71003896Y-95112336D02*
X70994100Y-95117212D01*
X70994100Y-95117212D02*
X70984580Y-95122528D01*
X70984580Y-95122528D02*
X70975351Y-95128272D01*
X70975351Y-95128272D02*
X70966427Y-95134429D01*
X70966427Y-95134429D02*
X70957823Y-95140985D01*
X70957823Y-95140985D02*
X70949555Y-95147928D01*
X70949555Y-95147928D02*
X70941637Y-95155243D01*
X70941637Y-95155243D02*
X70934084Y-95162916D01*
X70934084Y-95162916D02*
X70926910Y-95170934D01*
X70926910Y-95170934D02*
X70920131Y-95179282D01*
X70920131Y-95179282D02*
X70913762Y-95187948D01*
X70913762Y-95187948D02*
X70907816Y-95196917D01*
X70907816Y-95196917D02*
X70902310Y-95206175D01*
X70902310Y-95206175D02*
X70897258Y-95215709D01*
X70897258Y-95215709D02*
X70892675Y-95225505D01*
X70892675Y-95225505D02*
X70888575Y-95235550D01*
X70888575Y-95235550D02*
X70884974Y-95245829D01*
X70884974Y-95245829D02*
X70881886Y-95256328D01*
X70881886Y-95256328D02*
X70879326Y-95267035D01*
X70879326Y-95267035D02*
X70877310Y-95277934D01*
X70877310Y-95277934D02*
X70875851Y-95289013D01*
X70875851Y-95289013D02*
X70874964Y-95300258D01*
X70874964Y-95300258D02*
X70874666Y-95311654D01*
X70874666Y-95311654D02*
X70874964Y-95323047D01*
X70874964Y-95323047D02*
X70875851Y-95334289D01*
X70875851Y-95334289D02*
X70877310Y-95345365D01*
X70877310Y-95345365D02*
X70879326Y-95356262D01*
X70879326Y-95356262D02*
X70881886Y-95366966D01*
X70881886Y-95366966D02*
X70884974Y-95377463D01*
X70884974Y-95377463D02*
X70888575Y-95387740D01*
X70888575Y-95387740D02*
X70892675Y-95397782D01*
X70892675Y-95397782D02*
X70897258Y-95407577D01*
X70897258Y-95407577D02*
X70902310Y-95417109D01*
X70902310Y-95417109D02*
X70907816Y-95426366D01*
X70907816Y-95426366D02*
X70913762Y-95435334D01*
X70913762Y-95435334D02*
X70920131Y-95443998D01*
X70920131Y-95443998D02*
X70926910Y-95452346D01*
X70926910Y-95452346D02*
X70934084Y-95460362D01*
X70934084Y-95460362D02*
X70941637Y-95468035D01*
X70941637Y-95468035D02*
X70949555Y-95475349D01*
X70949555Y-95475349D02*
X70957823Y-95482291D01*
X70957823Y-95482291D02*
X70966427Y-95488847D01*
X70966427Y-95488847D02*
X70975351Y-95495004D01*
X70975351Y-95495004D02*
X70984580Y-95500747D01*
X70984580Y-95500747D02*
X70994100Y-95506063D01*
X70994100Y-95506063D02*
X71003896Y-95510938D01*
X71003896Y-95510938D02*
X71013953Y-95515359D01*
X71013953Y-95515359D02*
X71024257Y-95519311D01*
X71024257Y-95519311D02*
X71034791Y-95522780D01*
X71034791Y-95522780D02*
X71045542Y-95525754D01*
X71045542Y-95525754D02*
X71056495Y-95528218D01*
X71056495Y-95528218D02*
X71067635Y-95530158D01*
X71067635Y-95530158D02*
X71078946Y-95531562D01*
X71078946Y-95531562D02*
X71090415Y-95532413D01*
X71090415Y-95532413D02*
X71102026Y-95532701D01*
X71102026Y-95532701D02*
X71113742Y-95532413D01*
X71113742Y-95532413D02*
X71125302Y-95531562D01*
X71125302Y-95531562D02*
X71136692Y-95530158D01*
X71136692Y-95530158D02*
X71147898Y-95528218D01*
X71147898Y-95528218D02*
X71158906Y-95525754D01*
X71158906Y-95525754D02*
X71169701Y-95522780D01*
X71169701Y-95522780D02*
X71180269Y-95519311D01*
X71180269Y-95519311D02*
X71190596Y-95515359D01*
X71190596Y-95515359D02*
X71200668Y-95510938D01*
X71200668Y-95510938D02*
X71210471Y-95506063D01*
X71210471Y-95506063D02*
X71219990Y-95500747D01*
X71219990Y-95500747D02*
X71229212Y-95495004D01*
X71229212Y-95495004D02*
X71238122Y-95488847D01*
X71238122Y-95488847D02*
X71246706Y-95482291D01*
X71246706Y-95482291D02*
X71254950Y-95475349D01*
X71254950Y-95475349D02*
X71262840Y-95468035D01*
X71262840Y-95468035D02*
X71270361Y-95460362D01*
X71270361Y-95460362D02*
X71277500Y-95452346D01*
X71277500Y-95452346D02*
X71284242Y-95443998D01*
X71284242Y-95443998D02*
X71290573Y-95435334D01*
X71290573Y-95435334D02*
X71296479Y-95426366D01*
X71296479Y-95426366D02*
X71301946Y-95417109D01*
X71301946Y-95417109D02*
X71306960Y-95407577D01*
X71306960Y-95407577D02*
X71311505Y-95397782D01*
X71311505Y-95397782D02*
X71315569Y-95387740D01*
X71315569Y-95387740D02*
X71319138Y-95377463D01*
X71319138Y-95377463D02*
X71322196Y-95366966D01*
X71322196Y-95366966D02*
X71324729Y-95356262D01*
X71324729Y-95356262D02*
X71326725Y-95345365D01*
X71326725Y-95345365D02*
X71328168Y-95334289D01*
X71328168Y-95334289D02*
X71329044Y-95323047D01*
X71329044Y-95323047D02*
X71329339Y-95311654D01*
X71329339Y-95311654D02*
X71329339Y-95311654D01*
G36*
X71113742Y-95090860D02*
G01*
X71125302Y-95091712D01*
X71136692Y-95093115D01*
X71147898Y-95095056D01*
X71158906Y-95097520D01*
X71169701Y-95100494D01*
X71180269Y-95103964D01*
X71190596Y-95107916D01*
X71200668Y-95112336D01*
X71210471Y-95117212D01*
X71219990Y-95122528D01*
X71229212Y-95128272D01*
X71238122Y-95134429D01*
X71246706Y-95140985D01*
X71254950Y-95147928D01*
X71262840Y-95155243D01*
X71270361Y-95162916D01*
X71277500Y-95170934D01*
X71284242Y-95179282D01*
X71290573Y-95187948D01*
X71296479Y-95196917D01*
X71301946Y-95206175D01*
X71306960Y-95215709D01*
X71311505Y-95225505D01*
X71315569Y-95235550D01*
X71319138Y-95245829D01*
X71322196Y-95256328D01*
X71324729Y-95267035D01*
X71326725Y-95277934D01*
X71328168Y-95289013D01*
X71329044Y-95300258D01*
X71329339Y-95311654D01*
X71329044Y-95323047D01*
X71328168Y-95334289D01*
X71326725Y-95345365D01*
X71324729Y-95356262D01*
X71322196Y-95366966D01*
X71319138Y-95377463D01*
X71315569Y-95387740D01*
X71311505Y-95397782D01*
X71306960Y-95407577D01*
X71301946Y-95417109D01*
X71296479Y-95426366D01*
X71290573Y-95435334D01*
X71284242Y-95443998D01*
X71277500Y-95452346D01*
X71270361Y-95460362D01*
X71262840Y-95468035D01*
X71254950Y-95475349D01*
X71246706Y-95482291D01*
X71238122Y-95488847D01*
X71229212Y-95495004D01*
X71219990Y-95500747D01*
X71210471Y-95506063D01*
X71200668Y-95510938D01*
X71190596Y-95515359D01*
X71180269Y-95519311D01*
X71169701Y-95522780D01*
X71158906Y-95525754D01*
X71147898Y-95528218D01*
X71136692Y-95530158D01*
X71125302Y-95531562D01*
X71113742Y-95532413D01*
X71102026Y-95532701D01*
X71090415Y-95532413D01*
X71078946Y-95531562D01*
X71067635Y-95530158D01*
X71056495Y-95528218D01*
X71045542Y-95525754D01*
X71034791Y-95522780D01*
X71024257Y-95519311D01*
X71013953Y-95515359D01*
X71003896Y-95510938D01*
X70994100Y-95506063D01*
X70984580Y-95500747D01*
X70975351Y-95495004D01*
X70966427Y-95488847D01*
X70957823Y-95482291D01*
X70949555Y-95475349D01*
X70941637Y-95468035D01*
X70934084Y-95460362D01*
X70926910Y-95452346D01*
X70920131Y-95443998D01*
X70913762Y-95435334D01*
X70907816Y-95426366D01*
X70902310Y-95417109D01*
X70897258Y-95407577D01*
X70892675Y-95397782D01*
X70888575Y-95387740D01*
X70884974Y-95377463D01*
X70881886Y-95366966D01*
X70879326Y-95356262D01*
X70877310Y-95345365D01*
X70875851Y-95334289D01*
X70874964Y-95323047D01*
X70874666Y-95311654D01*
X70874964Y-95300258D01*
X70875851Y-95289013D01*
X70877310Y-95277934D01*
X70879326Y-95267035D01*
X70881886Y-95256328D01*
X70884974Y-95245829D01*
X70888575Y-95235550D01*
X70892675Y-95225505D01*
X70897258Y-95215709D01*
X70902310Y-95206175D01*
X70907816Y-95196917D01*
X70913762Y-95187948D01*
X70920131Y-95179282D01*
X70926910Y-95170934D01*
X70934084Y-95162916D01*
X70941637Y-95155243D01*
X70949555Y-95147928D01*
X70957823Y-95140985D01*
X70966427Y-95134429D01*
X70975351Y-95128272D01*
X70984580Y-95122528D01*
X70994100Y-95117212D01*
X71003896Y-95112336D01*
X71013953Y-95107916D01*
X71024257Y-95103964D01*
X71034791Y-95100494D01*
X71045542Y-95097520D01*
X71056495Y-95095056D01*
X71067635Y-95093115D01*
X71078946Y-95091712D01*
X71090415Y-95090860D01*
X71102026Y-95090573D01*
X71113742Y-95090860D01*
G37*
X71113742Y-95090860D02*
X71125302Y-95091712D01*
X71136692Y-95093115D01*
X71147898Y-95095056D01*
X71158906Y-95097520D01*
X71169701Y-95100494D01*
X71180269Y-95103964D01*
X71190596Y-95107916D01*
X71200668Y-95112336D01*
X71210471Y-95117212D01*
X71219990Y-95122528D01*
X71229212Y-95128272D01*
X71238122Y-95134429D01*
X71246706Y-95140985D01*
X71254950Y-95147928D01*
X71262840Y-95155243D01*
X71270361Y-95162916D01*
X71277500Y-95170934D01*
X71284242Y-95179282D01*
X71290573Y-95187948D01*
X71296479Y-95196917D01*
X71301946Y-95206175D01*
X71306960Y-95215709D01*
X71311505Y-95225505D01*
X71315569Y-95235550D01*
X71319138Y-95245829D01*
X71322196Y-95256328D01*
X71324729Y-95267035D01*
X71326725Y-95277934D01*
X71328168Y-95289013D01*
X71329044Y-95300258D01*
X71329339Y-95311654D01*
X71329044Y-95323047D01*
X71328168Y-95334289D01*
X71326725Y-95345365D01*
X71324729Y-95356262D01*
X71322196Y-95366966D01*
X71319138Y-95377463D01*
X71315569Y-95387740D01*
X71311505Y-95397782D01*
X71306960Y-95407577D01*
X71301946Y-95417109D01*
X71296479Y-95426366D01*
X71290573Y-95435334D01*
X71284242Y-95443998D01*
X71277500Y-95452346D01*
X71270361Y-95460362D01*
X71262840Y-95468035D01*
X71254950Y-95475349D01*
X71246706Y-95482291D01*
X71238122Y-95488847D01*
X71229212Y-95495004D01*
X71219990Y-95500747D01*
X71210471Y-95506063D01*
X71200668Y-95510938D01*
X71190596Y-95515359D01*
X71180269Y-95519311D01*
X71169701Y-95522780D01*
X71158906Y-95525754D01*
X71147898Y-95528218D01*
X71136692Y-95530158D01*
X71125302Y-95531562D01*
X71113742Y-95532413D01*
X71102026Y-95532701D01*
X71090415Y-95532413D01*
X71078946Y-95531562D01*
X71067635Y-95530158D01*
X71056495Y-95528218D01*
X71045542Y-95525754D01*
X71034791Y-95522780D01*
X71024257Y-95519311D01*
X71013953Y-95515359D01*
X71003896Y-95510938D01*
X70994100Y-95506063D01*
X70984580Y-95500747D01*
X70975351Y-95495004D01*
X70966427Y-95488847D01*
X70957823Y-95482291D01*
X70949555Y-95475349D01*
X70941637Y-95468035D01*
X70934084Y-95460362D01*
X70926910Y-95452346D01*
X70920131Y-95443998D01*
X70913762Y-95435334D01*
X70907816Y-95426366D01*
X70902310Y-95417109D01*
X70897258Y-95407577D01*
X70892675Y-95397782D01*
X70888575Y-95387740D01*
X70884974Y-95377463D01*
X70881886Y-95366966D01*
X70879326Y-95356262D01*
X70877310Y-95345365D01*
X70875851Y-95334289D01*
X70874964Y-95323047D01*
X70874666Y-95311654D01*
X70874964Y-95300258D01*
X70875851Y-95289013D01*
X70877310Y-95277934D01*
X70879326Y-95267035D01*
X70881886Y-95256328D01*
X70884974Y-95245829D01*
X70888575Y-95235550D01*
X70892675Y-95225505D01*
X70897258Y-95215709D01*
X70902310Y-95206175D01*
X70907816Y-95196917D01*
X70913762Y-95187948D01*
X70920131Y-95179282D01*
X70926910Y-95170934D01*
X70934084Y-95162916D01*
X70941637Y-95155243D01*
X70949555Y-95147928D01*
X70957823Y-95140985D01*
X70966427Y-95134429D01*
X70975351Y-95128272D01*
X70984580Y-95122528D01*
X70994100Y-95117212D01*
X71003896Y-95112336D01*
X71013953Y-95107916D01*
X71024257Y-95103964D01*
X71034791Y-95100494D01*
X71045542Y-95097520D01*
X71056495Y-95095056D01*
X71067635Y-95093115D01*
X71078946Y-95091712D01*
X71090415Y-95090860D01*
X71102026Y-95090573D01*
X71113742Y-95090860D01*
D12*
X61276881Y-95667503D02*
X61226592Y-95673724D01*
X64433116Y-93778739D02*
X64478809Y-93793772D01*
X63990928Y-93746768D02*
X64040140Y-93740687D01*
X63894929Y-95618150D02*
X63848266Y-95605264D01*
X60829128Y-95633016D02*
X60876921Y-95645786D01*
X64191287Y-93736995D02*
X64241229Y-93740687D01*
X64928699Y-94119848D02*
X64956115Y-94157338D01*
X60148943Y-94948559D02*
X60162892Y-94994922D01*
X64433116Y-95605264D02*
X64386450Y-95618150D01*
D11*
X65731203Y-93660345D02*
X65838684Y-93645800D01*
D12*
X65093093Y-94930978D02*
X65079842Y-94976355D01*
X62116535Y-94848798D02*
X62107711Y-94897044D01*
X64567026Y-93830042D02*
X64609427Y-93851159D01*
X64140679Y-95648257D02*
X64140679Y-95648257D01*
D11*
X64211902Y-94421894D02*
X64242389Y-94370618D01*
D12*
X60121204Y-94804123D02*
X60128036Y-94853099D01*
X60487305Y-95456506D02*
X60525501Y-95485231D01*
X63158600Y-94642787D02*
X63162398Y-94594222D01*
X63201532Y-94976355D02*
X63188281Y-94930978D01*
X60291524Y-95250135D02*
X60319861Y-95288276D01*
X63479499Y-95399834D02*
X63445347Y-95368170D01*
X60162892Y-94994922D02*
X60179086Y-95040293D01*
X65064383Y-95020787D02*
X65046776Y-95064212D01*
X63158600Y-94741206D02*
X63157321Y-94691998D01*
D11*
X64728532Y-93965532D02*
X64803478Y-93928028D01*
D12*
X62096507Y-94944440D02*
X62082985Y-94990924D01*
X64338873Y-93755177D02*
X64386450Y-93765854D01*
X63671961Y-95532839D02*
X63630780Y-95509813D01*
D11*
X64468246Y-94131686D02*
X64527110Y-94087862D01*
D12*
X64290445Y-93746768D02*
X64338873Y-93755177D01*
X64191286Y-95647012D02*
X64140679Y-95648257D01*
X65027084Y-95106570D02*
X65005369Y-95147802D01*
D11*
X63049376Y-95654023D02*
X62954414Y-95681088D01*
X64186640Y-94474175D02*
X64211902Y-94421894D01*
D12*
X60197463Y-95084610D02*
X60217958Y-95127814D01*
D11*
X62440133Y-95781353D02*
X62330375Y-95793901D01*
D12*
X63757920Y-95573107D02*
X63714361Y-95553957D01*
X60876921Y-95645786D02*
X60925628Y-95656289D01*
D11*
X62653172Y-95748541D02*
X62547779Y-95766210D01*
D12*
X64868600Y-94049028D02*
X64899507Y-94083724D01*
D11*
X64803478Y-93928028D02*
X64882091Y-93892273D01*
X65325187Y-93742102D02*
X65422822Y-93718261D01*
X64038822Y-95026657D02*
X64003199Y-95078932D01*
D12*
X64690506Y-93899055D02*
X64729060Y-93925715D01*
D11*
X64128983Y-94807083D02*
X64114577Y-94863407D01*
D12*
X64567025Y-95553957D02*
X64523465Y-95573107D01*
X61422640Y-95634791D02*
X61374968Y-95647975D01*
D11*
X63690495Y-95365173D02*
X63623208Y-95407654D01*
D12*
X63515180Y-93954102D02*
X63552329Y-93925715D01*
X60450593Y-95426059D02*
X60487305Y-95456506D01*
D11*
X62954414Y-95681088D02*
X62856632Y-95705910D01*
X63551964Y-95448454D02*
X63476907Y-95487504D01*
D12*
X60128036Y-94853099D02*
X60137303Y-94901264D01*
X63445347Y-94015818D02*
X63479499Y-93984156D01*
X64478808Y-95590230D02*
X64433116Y-95605264D01*
X63990928Y-95637238D02*
X63942504Y-95628828D01*
D10*
X68273504Y-95246969D02*
X68650800Y-95246969D01*
X68650800Y-95246969D02*
X68650800Y-95575019D01*
X68650800Y-95575019D02*
X68621763Y-95604420D01*
X68621763Y-95604420D02*
X68606659Y-95618649D01*
X68606659Y-95618649D02*
X68590418Y-95632209D01*
X68590418Y-95632209D02*
X68573125Y-95645066D01*
X68573125Y-95645066D02*
X68554862Y-95657186D01*
X68554862Y-95657186D02*
X68535714Y-95668535D01*
X68535714Y-95668535D02*
X68515763Y-95679078D01*
X68515763Y-95679078D02*
X68495093Y-95688780D01*
X68495093Y-95688780D02*
X68473787Y-95697607D01*
X68473787Y-95697607D02*
X68451929Y-95705525D01*
X68451929Y-95705525D02*
X68429602Y-95712498D01*
X68429602Y-95712498D02*
X68406889Y-95718494D01*
X68406889Y-95718494D02*
X68383874Y-95723476D01*
X68383874Y-95723476D02*
X68360641Y-95727412D01*
X68360641Y-95727412D02*
X68337272Y-95730265D01*
X68337272Y-95730265D02*
X68313851Y-95732003D01*
X68313851Y-95732003D02*
X68290461Y-95732590D01*
X68290461Y-95732590D02*
X68268260Y-95732043D01*
X68268260Y-95732043D02*
X68246348Y-95730420D01*
X68246348Y-95730420D02*
X68224753Y-95727748D01*
X68224753Y-95727748D02*
X68203502Y-95724053D01*
X68203502Y-95724053D02*
X68182623Y-95719362D01*
X68182623Y-95719362D02*
X68162142Y-95713701D01*
X68162142Y-95713701D02*
X68142088Y-95707096D01*
X68142088Y-95707096D02*
X68122486Y-95699575D01*
X68122486Y-95699575D02*
X68103365Y-95691162D01*
X68103365Y-95691162D02*
X68084751Y-95681886D01*
X68084751Y-95681886D02*
X68066672Y-95671772D01*
X68066672Y-95671772D02*
X68049155Y-95660848D01*
X68049155Y-95660848D02*
X68032227Y-95649138D01*
X68032227Y-95649138D02*
X68015915Y-95636671D01*
X68015915Y-95636671D02*
X68000247Y-95623472D01*
X68000247Y-95623472D02*
X67985250Y-95609568D01*
X67985250Y-95609568D02*
X67970951Y-95594985D01*
X67970951Y-95594985D02*
X67957377Y-95579750D01*
X67957377Y-95579750D02*
X67944556Y-95563890D01*
X67944556Y-95563890D02*
X67932514Y-95547430D01*
X67932514Y-95547430D02*
X67921280Y-95530398D01*
X67921280Y-95530398D02*
X67910879Y-95512819D01*
X67910879Y-95512819D02*
X67901340Y-95494721D01*
X67901340Y-95494721D02*
X67892689Y-95476129D01*
X67892689Y-95476129D02*
X67884954Y-95457071D01*
X67884954Y-95457071D02*
X67878163Y-95437572D01*
X67878163Y-95437572D02*
X67872341Y-95417659D01*
X67872341Y-95417659D02*
X67867517Y-95397359D01*
X67867517Y-95397359D02*
X67863717Y-95376699D01*
X67863717Y-95376699D02*
X67860970Y-95355704D01*
X67860970Y-95355704D02*
X67859301Y-95334401D01*
X67859301Y-95334401D02*
X67858739Y-95312816D01*
X67858739Y-95312816D02*
X67859301Y-95291231D01*
X67859301Y-95291231D02*
X67860970Y-95269926D01*
X67860970Y-95269926D02*
X67863717Y-95248930D01*
X67863717Y-95248930D02*
X67867517Y-95228267D01*
X67867517Y-95228267D02*
X67872341Y-95207966D01*
X67872341Y-95207966D02*
X67878163Y-95188052D01*
X67878163Y-95188052D02*
X67884954Y-95168551D01*
X67884954Y-95168551D02*
X67892689Y-95149491D01*
X67892689Y-95149491D02*
X67901340Y-95130897D01*
X67901340Y-95130897D02*
X67910879Y-95112797D01*
X67910879Y-95112797D02*
X67921280Y-95095216D01*
X67921280Y-95095216D02*
X67932514Y-95078182D01*
X67932514Y-95078182D02*
X67944556Y-95061720D01*
X67944556Y-95061720D02*
X67957377Y-95045858D01*
X67957377Y-95045858D02*
X67970951Y-95030621D01*
X67970951Y-95030621D02*
X67985250Y-95016036D01*
X67985250Y-95016036D02*
X68000247Y-95002130D01*
X68000247Y-95002130D02*
X68015915Y-94988929D01*
X68015915Y-94988929D02*
X68032227Y-94976460D01*
X68032227Y-94976460D02*
X68049155Y-94964749D01*
X68049155Y-94964749D02*
X68066672Y-94953823D01*
X68066672Y-94953823D02*
X68084751Y-94943708D01*
X68084751Y-94943708D02*
X68103365Y-94934430D01*
X68103365Y-94934430D02*
X68122486Y-94926016D01*
X68122486Y-94926016D02*
X68142088Y-94918494D01*
X68142088Y-94918494D02*
X68162142Y-94911888D01*
X68162142Y-94911888D02*
X68182623Y-94906226D01*
X68182623Y-94906226D02*
X68203502Y-94901533D01*
X68203502Y-94901533D02*
X68224753Y-94897838D01*
X68224753Y-94897838D02*
X68246348Y-94895165D01*
X68246348Y-94895165D02*
X68268260Y-94893542D01*
X68268260Y-94893542D02*
X68290461Y-94892996D01*
X68290461Y-94892996D02*
X68313960Y-94893626D01*
X68313960Y-94893626D02*
X68337270Y-94895501D01*
X68337270Y-94895501D02*
X68360347Y-94898600D01*
X68360347Y-94898600D02*
X68383145Y-94902899D01*
X68383145Y-94902899D02*
X68405616Y-94908377D01*
X68405616Y-94908377D02*
X68427716Y-94915010D01*
X68427716Y-94915010D02*
X68449398Y-94922777D01*
X68449398Y-94922777D02*
X68470616Y-94931656D01*
X68470616Y-94931656D02*
X68491325Y-94941623D01*
X68491325Y-94941623D02*
X68511477Y-94952657D01*
X68511477Y-94952657D02*
X68531027Y-94964735D01*
X68531027Y-94964735D02*
X68549930Y-94977835D01*
X68549930Y-94977835D02*
X68568138Y-94991934D01*
X68568138Y-94991934D02*
X68585606Y-95007011D01*
X68585606Y-95007011D02*
X68602289Y-95023043D01*
X68602289Y-95023043D02*
X68618139Y-95040007D01*
X68618139Y-95040007D02*
X68462151Y-95170526D01*
X68462151Y-95170526D02*
X68453768Y-95161513D01*
X68453768Y-95161513D02*
X68444956Y-95153008D01*
X68444956Y-95153008D02*
X68435740Y-95145020D01*
X68435740Y-95145020D02*
X68426144Y-95137560D01*
X68426144Y-95137560D02*
X68416194Y-95130638D01*
X68416194Y-95130638D02*
X68405914Y-95124265D01*
X68405914Y-95124265D02*
X68395329Y-95118450D01*
X68395329Y-95118450D02*
X68384465Y-95113203D01*
X68384465Y-95113203D02*
X68373345Y-95108536D01*
X68373345Y-95108536D02*
X68361996Y-95104457D01*
X68361996Y-95104457D02*
X68350441Y-95100978D01*
X68350441Y-95100978D02*
X68338706Y-95098109D01*
X68338706Y-95098109D02*
X68326816Y-95095859D01*
X68326816Y-95095859D02*
X68314795Y-95094240D01*
X68314795Y-95094240D02*
X68302669Y-95093261D01*
X68302669Y-95093261D02*
X68290461Y-95092932D01*
X68290461Y-95092932D02*
X68278854Y-95093219D01*
X68278854Y-95093219D02*
X68267396Y-95094071D01*
X68267396Y-95094071D02*
X68256101Y-95095473D01*
X68256101Y-95095473D02*
X68244984Y-95097412D01*
X68244984Y-95097412D02*
X68234059Y-95099874D01*
X68234059Y-95099874D02*
X68223341Y-95102844D01*
X68223341Y-95102844D02*
X68212844Y-95106310D01*
X68212844Y-95106310D02*
X68202583Y-95110256D01*
X68202583Y-95110256D02*
X68192571Y-95114668D01*
X68192571Y-95114668D02*
X68182824Y-95119534D01*
X68182824Y-95119534D02*
X68173355Y-95124838D01*
X68173355Y-95124838D02*
X68164180Y-95130568D01*
X68164180Y-95130568D02*
X68155311Y-95136708D01*
X68155311Y-95136708D02*
X68146765Y-95143244D01*
X68146765Y-95143244D02*
X68138554Y-95150164D01*
X68138554Y-95150164D02*
X68130694Y-95157452D01*
X68130694Y-95157452D02*
X68123199Y-95165096D01*
X68123199Y-95165096D02*
X68116083Y-95173080D01*
X68116083Y-95173080D02*
X68109361Y-95181391D01*
X68109361Y-95181391D02*
X68103047Y-95190015D01*
X68103047Y-95190015D02*
X68097156Y-95198938D01*
X68097156Y-95198938D02*
X68091701Y-95208146D01*
X68091701Y-95208146D02*
X68086697Y-95217624D01*
X68086697Y-95217624D02*
X68082159Y-95227360D01*
X68082159Y-95227360D02*
X68078102Y-95237339D01*
X68078102Y-95237339D02*
X68074538Y-95247546D01*
X68074538Y-95247546D02*
X68071483Y-95257969D01*
X68071483Y-95257969D02*
X68068952Y-95268592D01*
X68068952Y-95268592D02*
X68066958Y-95279403D01*
X68066958Y-95279403D02*
X68065516Y-95290386D01*
X68065516Y-95290386D02*
X68064640Y-95301529D01*
X68064640Y-95301529D02*
X68064345Y-95312816D01*
X68064345Y-95312816D02*
X68064640Y-95324100D01*
X68064640Y-95324100D02*
X68065516Y-95335233D01*
X68065516Y-95335233D02*
X68066958Y-95346201D01*
X68066958Y-95346201D02*
X68068952Y-95356990D01*
X68068952Y-95356990D02*
X68071483Y-95367587D01*
X68071483Y-95367587D02*
X68074538Y-95377979D01*
X68074538Y-95377979D02*
X68078102Y-95388152D01*
X68078102Y-95388152D02*
X68082159Y-95398091D01*
X68082159Y-95398091D02*
X68086697Y-95407785D01*
X68086697Y-95407785D02*
X68091701Y-95417218D01*
X68091701Y-95417218D02*
X68097156Y-95426378D01*
X68097156Y-95426378D02*
X68103047Y-95435251D01*
X68103047Y-95435251D02*
X68109361Y-95443824D01*
X68109361Y-95443824D02*
X68116083Y-95452082D01*
X68116083Y-95452082D02*
X68123199Y-95460013D01*
X68123199Y-95460013D02*
X68130694Y-95467602D01*
X68130694Y-95467602D02*
X68138554Y-95474837D01*
X68138554Y-95474837D02*
X68146765Y-95481703D01*
X68146765Y-95481703D02*
X68155311Y-95488187D01*
X68155311Y-95488187D02*
X68164180Y-95494276D01*
X68164180Y-95494276D02*
X68173355Y-95499955D01*
X68173355Y-95499955D02*
X68182824Y-95505212D01*
X68182824Y-95505212D02*
X68192571Y-95510032D01*
X68192571Y-95510032D02*
X68202583Y-95514403D01*
X68202583Y-95514403D02*
X68212844Y-95518310D01*
X68212844Y-95518310D02*
X68223341Y-95521741D01*
X68223341Y-95521741D02*
X68234059Y-95524681D01*
X68234059Y-95524681D02*
X68244984Y-95527116D01*
X68244984Y-95527116D02*
X68256101Y-95529034D01*
X68256101Y-95529034D02*
X68267396Y-95530421D01*
X68267396Y-95530421D02*
X68278854Y-95531263D01*
X68278854Y-95531263D02*
X68290461Y-95531547D01*
X68290461Y-95531547D02*
X68300499Y-95531343D01*
X68300499Y-95531343D02*
X68310646Y-95530738D01*
X68310646Y-95530738D02*
X68320869Y-95529748D01*
X68320869Y-95529748D02*
X68331133Y-95528386D01*
X68331133Y-95528386D02*
X68341405Y-95526665D01*
X68341405Y-95526665D02*
X68351651Y-95524599D01*
X68351651Y-95524599D02*
X68361837Y-95522203D01*
X68361837Y-95522203D02*
X68371930Y-95519490D01*
X68371930Y-95519490D02*
X68381895Y-95516473D01*
X68381895Y-95516473D02*
X68391700Y-95513166D01*
X68391700Y-95513166D02*
X68401309Y-95509584D01*
X68401309Y-95509584D02*
X68410690Y-95505740D01*
X68410690Y-95505740D02*
X68419809Y-95501647D01*
X68419809Y-95501647D02*
X68428631Y-95497320D01*
X68428631Y-95497320D02*
X68437124Y-95492772D01*
X68437124Y-95492772D02*
X68445253Y-95488017D01*
X68445253Y-95488017D02*
X68445253Y-95446860D01*
X68445253Y-95446860D02*
X68273504Y-95446860D01*
X68273504Y-95446860D02*
X68273504Y-95246969D01*
X68273504Y-95246969D02*
X68273504Y-95246969D01*
G36*
X68313960Y-94893626D02*
G01*
X68337270Y-94895501D01*
X68360347Y-94898600D01*
X68383145Y-94902899D01*
X68405616Y-94908377D01*
X68427716Y-94915010D01*
X68449398Y-94922777D01*
X68470616Y-94931656D01*
X68491325Y-94941623D01*
X68511477Y-94952657D01*
X68531027Y-94964735D01*
X68549930Y-94977835D01*
X68568138Y-94991934D01*
X68585606Y-95007011D01*
X68602289Y-95023043D01*
X68618139Y-95040007D01*
X68462151Y-95170526D01*
X68453768Y-95161513D01*
X68444956Y-95153008D01*
X68435740Y-95145020D01*
X68426144Y-95137560D01*
X68416194Y-95130638D01*
X68405914Y-95124265D01*
X68395329Y-95118450D01*
X68384465Y-95113203D01*
X68373345Y-95108536D01*
X68361996Y-95104457D01*
X68350441Y-95100978D01*
X68338706Y-95098109D01*
X68326816Y-95095859D01*
X68314795Y-95094240D01*
X68302669Y-95093261D01*
X68290461Y-95092932D01*
X68278854Y-95093219D01*
X68267396Y-95094071D01*
X68256101Y-95095473D01*
X68244984Y-95097412D01*
X68234059Y-95099874D01*
X68223341Y-95102844D01*
X68212844Y-95106310D01*
X68202583Y-95110256D01*
X68192571Y-95114668D01*
X68182824Y-95119534D01*
X68173355Y-95124838D01*
X68164180Y-95130568D01*
X68155311Y-95136708D01*
X68146765Y-95143244D01*
X68138554Y-95150164D01*
X68130694Y-95157452D01*
X68123199Y-95165096D01*
X68116083Y-95173080D01*
X68109361Y-95181391D01*
X68103047Y-95190015D01*
X68097156Y-95198938D01*
X68091701Y-95208146D01*
X68086697Y-95217624D01*
X68082159Y-95227360D01*
X68078102Y-95237339D01*
X68074538Y-95247546D01*
X68071483Y-95257969D01*
X68068952Y-95268592D01*
X68066958Y-95279403D01*
X68065516Y-95290386D01*
X68064640Y-95301529D01*
X68064345Y-95312816D01*
X68064640Y-95324100D01*
X68065516Y-95335233D01*
X68066958Y-95346201D01*
X68068952Y-95356990D01*
X68071483Y-95367587D01*
X68074538Y-95377979D01*
X68078102Y-95388152D01*
X68082159Y-95398091D01*
X68086697Y-95407785D01*
X68091701Y-95417218D01*
X68097156Y-95426378D01*
X68103047Y-95435251D01*
X68109361Y-95443824D01*
X68116083Y-95452082D01*
X68123199Y-95460013D01*
X68130694Y-95467602D01*
X68138554Y-95474837D01*
X68146765Y-95481703D01*
X68155311Y-95488187D01*
X68164180Y-95494276D01*
X68173355Y-95499955D01*
X68182824Y-95505212D01*
X68192571Y-95510032D01*
X68202583Y-95514403D01*
X68212844Y-95518310D01*
X68223341Y-95521741D01*
X68234059Y-95524681D01*
X68244984Y-95527116D01*
X68256101Y-95529034D01*
X68267396Y-95530421D01*
X68278854Y-95531263D01*
X68290461Y-95531547D01*
X68300499Y-95531343D01*
X68310646Y-95530738D01*
X68320869Y-95529748D01*
X68331133Y-95528386D01*
X68341405Y-95526665D01*
X68351651Y-95524599D01*
X68361837Y-95522203D01*
X68371930Y-95519490D01*
X68381895Y-95516473D01*
X68391700Y-95513166D01*
X68401309Y-95509584D01*
X68410690Y-95505740D01*
X68419809Y-95501647D01*
X68428631Y-95497320D01*
X68437124Y-95492772D01*
X68445253Y-95488017D01*
X68445253Y-95446860D01*
X68273504Y-95446860D01*
X68273504Y-95246969D01*
X68650800Y-95246969D01*
X68650800Y-95575019D01*
X68621763Y-95604420D01*
X68606659Y-95618649D01*
X68590418Y-95632209D01*
X68573125Y-95645066D01*
X68554862Y-95657186D01*
X68535714Y-95668535D01*
X68515763Y-95679078D01*
X68495093Y-95688780D01*
X68473787Y-95697607D01*
X68451929Y-95705525D01*
X68429602Y-95712498D01*
X68406889Y-95718494D01*
X68383874Y-95723476D01*
X68360641Y-95727412D01*
X68337272Y-95730265D01*
X68313851Y-95732003D01*
X68290461Y-95732590D01*
X68268260Y-95732043D01*
X68246348Y-95730420D01*
X68224753Y-95727748D01*
X68203502Y-95724053D01*
X68182623Y-95719362D01*
X68162142Y-95713701D01*
X68142088Y-95707096D01*
X68122486Y-95699575D01*
X68103365Y-95691162D01*
X68084751Y-95681886D01*
X68066672Y-95671772D01*
X68049155Y-95660848D01*
X68032227Y-95649138D01*
X68015915Y-95636671D01*
X68000247Y-95623472D01*
X67985250Y-95609568D01*
X67970951Y-95594985D01*
X67957377Y-95579750D01*
X67944556Y-95563890D01*
X67932514Y-95547430D01*
X67921280Y-95530398D01*
X67910879Y-95512819D01*
X67901340Y-95494721D01*
X67892689Y-95476129D01*
X67884954Y-95457071D01*
X67878163Y-95437572D01*
X67872341Y-95417659D01*
X67867517Y-95397359D01*
X67863717Y-95376699D01*
X67860970Y-95355704D01*
X67859301Y-95334401D01*
X67858739Y-95312816D01*
X67859301Y-95291231D01*
X67860970Y-95269926D01*
X67863717Y-95248930D01*
X67867517Y-95228267D01*
X67872341Y-95207966D01*
X67878163Y-95188052D01*
X67884954Y-95168551D01*
X67892689Y-95149491D01*
X67901340Y-95130897D01*
X67910879Y-95112797D01*
X67921280Y-95095216D01*
X67932514Y-95078182D01*
X67944556Y-95061720D01*
X67957377Y-95045858D01*
X67970951Y-95030621D01*
X67985250Y-95016036D01*
X68000247Y-95002130D01*
X68015915Y-94988929D01*
X68032227Y-94976460D01*
X68049155Y-94964749D01*
X68066672Y-94953823D01*
X68084751Y-94943708D01*
X68103365Y-94934430D01*
X68122486Y-94926016D01*
X68142088Y-94918494D01*
X68162142Y-94911888D01*
X68182623Y-94906226D01*
X68203502Y-94901533D01*
X68224753Y-94897838D01*
X68246348Y-94895165D01*
X68268260Y-94893542D01*
X68290461Y-94892996D01*
X68313960Y-94893626D01*
G37*
X68313960Y-94893626D02*
X68337270Y-94895501D01*
X68360347Y-94898600D01*
X68383145Y-94902899D01*
X68405616Y-94908377D01*
X68427716Y-94915010D01*
X68449398Y-94922777D01*
X68470616Y-94931656D01*
X68491325Y-94941623D01*
X68511477Y-94952657D01*
X68531027Y-94964735D01*
X68549930Y-94977835D01*
X68568138Y-94991934D01*
X68585606Y-95007011D01*
X68602289Y-95023043D01*
X68618139Y-95040007D01*
X68462151Y-95170526D01*
X68453768Y-95161513D01*
X68444956Y-95153008D01*
X68435740Y-95145020D01*
X68426144Y-95137560D01*
X68416194Y-95130638D01*
X68405914Y-95124265D01*
X68395329Y-95118450D01*
X68384465Y-95113203D01*
X68373345Y-95108536D01*
X68361996Y-95104457D01*
X68350441Y-95100978D01*
X68338706Y-95098109D01*
X68326816Y-95095859D01*
X68314795Y-95094240D01*
X68302669Y-95093261D01*
X68290461Y-95092932D01*
X68278854Y-95093219D01*
X68267396Y-95094071D01*
X68256101Y-95095473D01*
X68244984Y-95097412D01*
X68234059Y-95099874D01*
X68223341Y-95102844D01*
X68212844Y-95106310D01*
X68202583Y-95110256D01*
X68192571Y-95114668D01*
X68182824Y-95119534D01*
X68173355Y-95124838D01*
X68164180Y-95130568D01*
X68155311Y-95136708D01*
X68146765Y-95143244D01*
X68138554Y-95150164D01*
X68130694Y-95157452D01*
X68123199Y-95165096D01*
X68116083Y-95173080D01*
X68109361Y-95181391D01*
X68103047Y-95190015D01*
X68097156Y-95198938D01*
X68091701Y-95208146D01*
X68086697Y-95217624D01*
X68082159Y-95227360D01*
X68078102Y-95237339D01*
X68074538Y-95247546D01*
X68071483Y-95257969D01*
X68068952Y-95268592D01*
X68066958Y-95279403D01*
X68065516Y-95290386D01*
X68064640Y-95301529D01*
X68064345Y-95312816D01*
X68064640Y-95324100D01*
X68065516Y-95335233D01*
X68066958Y-95346201D01*
X68068952Y-95356990D01*
X68071483Y-95367587D01*
X68074538Y-95377979D01*
X68078102Y-95388152D01*
X68082159Y-95398091D01*
X68086697Y-95407785D01*
X68091701Y-95417218D01*
X68097156Y-95426378D01*
X68103047Y-95435251D01*
X68109361Y-95443824D01*
X68116083Y-95452082D01*
X68123199Y-95460013D01*
X68130694Y-95467602D01*
X68138554Y-95474837D01*
X68146765Y-95481703D01*
X68155311Y-95488187D01*
X68164180Y-95494276D01*
X68173355Y-95499955D01*
X68182824Y-95505212D01*
X68192571Y-95510032D01*
X68202583Y-95514403D01*
X68212844Y-95518310D01*
X68223341Y-95521741D01*
X68234059Y-95524681D01*
X68244984Y-95527116D01*
X68256101Y-95529034D01*
X68267396Y-95530421D01*
X68278854Y-95531263D01*
X68290461Y-95531547D01*
X68300499Y-95531343D01*
X68310646Y-95530738D01*
X68320869Y-95529748D01*
X68331133Y-95528386D01*
X68341405Y-95526665D01*
X68351651Y-95524599D01*
X68361837Y-95522203D01*
X68371930Y-95519490D01*
X68381895Y-95516473D01*
X68391700Y-95513166D01*
X68401309Y-95509584D01*
X68410690Y-95505740D01*
X68419809Y-95501647D01*
X68428631Y-95497320D01*
X68437124Y-95492772D01*
X68445253Y-95488017D01*
X68445253Y-95446860D01*
X68273504Y-95446860D01*
X68273504Y-95246969D01*
X68650800Y-95246969D01*
X68650800Y-95575019D01*
X68621763Y-95604420D01*
X68606659Y-95618649D01*
X68590418Y-95632209D01*
X68573125Y-95645066D01*
X68554862Y-95657186D01*
X68535714Y-95668535D01*
X68515763Y-95679078D01*
X68495093Y-95688780D01*
X68473787Y-95697607D01*
X68451929Y-95705525D01*
X68429602Y-95712498D01*
X68406889Y-95718494D01*
X68383874Y-95723476D01*
X68360641Y-95727412D01*
X68337272Y-95730265D01*
X68313851Y-95732003D01*
X68290461Y-95732590D01*
X68268260Y-95732043D01*
X68246348Y-95730420D01*
X68224753Y-95727748D01*
X68203502Y-95724053D01*
X68182623Y-95719362D01*
X68162142Y-95713701D01*
X68142088Y-95707096D01*
X68122486Y-95699575D01*
X68103365Y-95691162D01*
X68084751Y-95681886D01*
X68066672Y-95671772D01*
X68049155Y-95660848D01*
X68032227Y-95649138D01*
X68015915Y-95636671D01*
X68000247Y-95623472D01*
X67985250Y-95609568D01*
X67970951Y-95594985D01*
X67957377Y-95579750D01*
X67944556Y-95563890D01*
X67932514Y-95547430D01*
X67921280Y-95530398D01*
X67910879Y-95512819D01*
X67901340Y-95494721D01*
X67892689Y-95476129D01*
X67884954Y-95457071D01*
X67878163Y-95437572D01*
X67872341Y-95417659D01*
X67867517Y-95397359D01*
X67863717Y-95376699D01*
X67860970Y-95355704D01*
X67859301Y-95334401D01*
X67858739Y-95312816D01*
X67859301Y-95291231D01*
X67860970Y-95269926D01*
X67863717Y-95248930D01*
X67867517Y-95228267D01*
X67872341Y-95207966D01*
X67878163Y-95188052D01*
X67884954Y-95168551D01*
X67892689Y-95149491D01*
X67901340Y-95130897D01*
X67910879Y-95112797D01*
X67921280Y-95095216D01*
X67932514Y-95078182D01*
X67944556Y-95061720D01*
X67957377Y-95045858D01*
X67970951Y-95030621D01*
X67985250Y-95016036D01*
X68000247Y-95002130D01*
X68015915Y-94988929D01*
X68032227Y-94976460D01*
X68049155Y-94964749D01*
X68066672Y-94953823D01*
X68084751Y-94943708D01*
X68103365Y-94934430D01*
X68122486Y-94926016D01*
X68142088Y-94918494D01*
X68162142Y-94911888D01*
X68182623Y-94906226D01*
X68203502Y-94901533D01*
X68224753Y-94897838D01*
X68246348Y-94895165D01*
X68268260Y-94893542D01*
X68290461Y-94892996D01*
X68313960Y-94893626D01*
D12*
X63412786Y-94049028D02*
X63445347Y-94015818D01*
X61374968Y-95647975D02*
X61326360Y-95658899D01*
X64338872Y-95628828D02*
X64290445Y-95637238D01*
X60265052Y-95210637D02*
X60291524Y-95250135D01*
D11*
X66173203Y-93617393D02*
X66288263Y-93613226D01*
X62105094Y-95810928D02*
X61989854Y-95815267D01*
D12*
X63671961Y-93851159D02*
X63714361Y-93830042D01*
X62006978Y-95166518D02*
X61982810Y-95207524D01*
X61469315Y-95619408D02*
X61422640Y-95634791D01*
X62067208Y-95036435D02*
X62049239Y-95080912D01*
X63157321Y-94691998D02*
X63158600Y-94642787D01*
X63848266Y-93778739D02*
X63894929Y-93765854D01*
D11*
X63398177Y-95524732D02*
X63315917Y-95560068D01*
D12*
X65118974Y-94594222D02*
X65122771Y-94642787D01*
X60415429Y-95393952D02*
X60450593Y-95426059D01*
D10*
X67447599Y-94902404D02*
X67653146Y-94902404D01*
X67653146Y-94902404D02*
X67653146Y-95722030D01*
X67653146Y-95722030D02*
X67447599Y-95722030D01*
X67447599Y-95722030D02*
X67447599Y-94902404D01*
X67447599Y-94902404D02*
X67447599Y-94902404D01*
G36*
X67653146Y-95722030D02*
G01*
X67447599Y-95722030D01*
X67447599Y-94902404D01*
X67653146Y-94902404D01*
X67653146Y-95722030D01*
G37*
X67653146Y-95722030D02*
X67447599Y-95722030D01*
X67447599Y-94902404D01*
X67653146Y-94902404D01*
X67653146Y-95722030D01*
D12*
X61867365Y-95358145D02*
X61834124Y-95392142D01*
X63445347Y-95368170D02*
X63412786Y-95334960D01*
D11*
X64527110Y-94087862D02*
X64590206Y-94045516D01*
X62330375Y-95793901D02*
X62218648Y-95803783D01*
X62547779Y-95766210D02*
X62440133Y-95781353D01*
D12*
X64868599Y-95334960D02*
X64836040Y-95368170D01*
X65079842Y-94976355D02*
X65064383Y-95020787D01*
D10*
X67217811Y-94902404D02*
X67217811Y-95102329D01*
X67217811Y-95102329D02*
X66951785Y-95102329D01*
X66951785Y-95102329D02*
X66951785Y-95724391D01*
X66951785Y-95724391D02*
X66746191Y-95724391D01*
X66746191Y-95724391D02*
X66746191Y-95102329D01*
X66746191Y-95102329D02*
X66480177Y-95102329D01*
X66480177Y-95102329D02*
X66480177Y-94902404D01*
X66480177Y-94902404D02*
X67217811Y-94902404D01*
X67217811Y-94902404D02*
X67217811Y-94902404D01*
G36*
X67217811Y-95102329D02*
G01*
X66951785Y-95102329D01*
X66951785Y-95724391D01*
X66746191Y-95724391D01*
X66746191Y-95102329D01*
X66480177Y-95102329D01*
X66480177Y-94902404D01*
X67217811Y-94902404D01*
X67217811Y-95102329D01*
G37*
X67217811Y-95102329D02*
X66951785Y-95102329D01*
X66951785Y-95724391D01*
X66746191Y-95724391D01*
X66746191Y-95102329D01*
X66480177Y-95102329D01*
X66480177Y-94902404D01*
X67217811Y-94902404D01*
X67217811Y-95102329D01*
D12*
X61898917Y-95322623D02*
X61867365Y-95358145D01*
D10*
X70076565Y-95136404D02*
X70080177Y-95144650D01*
X70080177Y-95144650D02*
X70081685Y-95147134D01*
X70081685Y-95147134D02*
X70083262Y-95149518D01*
X70083262Y-95149518D02*
X70084906Y-95151806D01*
X70084906Y-95151806D02*
X70086613Y-95154000D01*
X70086613Y-95154000D02*
X70088383Y-95156103D01*
X70088383Y-95156103D02*
X70090212Y-95158120D01*
X70090212Y-95158120D02*
X70092099Y-95160053D01*
X70092099Y-95160053D02*
X70094041Y-95161905D01*
X70094041Y-95161905D02*
X70096036Y-95163680D01*
X70096036Y-95163680D02*
X70098083Y-95165380D01*
X70098083Y-95165380D02*
X70102319Y-95168572D01*
X70102319Y-95168572D02*
X70106733Y-95171505D01*
X70106733Y-95171505D02*
X70111306Y-95174206D01*
X70111306Y-95174206D02*
X70116021Y-95176700D01*
X70116021Y-95176700D02*
X70120859Y-95179013D01*
X70120859Y-95179013D02*
X70125804Y-95181171D01*
X70125804Y-95181171D02*
X70130838Y-95183199D01*
X70130838Y-95183199D02*
X70135942Y-95185123D01*
X70135942Y-95185123D02*
X70141100Y-95186969D01*
X70141100Y-95186969D02*
X70151504Y-95190530D01*
X70151504Y-95190530D02*
X70175706Y-95197775D01*
X70175706Y-95197775D02*
X70200144Y-95204679D01*
X70200144Y-95204679D02*
X70249332Y-95218291D01*
X70249332Y-95218291D02*
X70273886Y-95225410D01*
X70273886Y-95225410D02*
X70298282Y-95233013D01*
X70298282Y-95233013D02*
X70322420Y-95241304D01*
X70322420Y-95241304D02*
X70334362Y-95245773D01*
X70334362Y-95245773D02*
X70346203Y-95250492D01*
X70346203Y-95250492D02*
X70355730Y-95254565D01*
X70355730Y-95254565D02*
X70365226Y-95258862D01*
X70365226Y-95258862D02*
X70374663Y-95263383D01*
X70374663Y-95263383D02*
X70384014Y-95268125D01*
X70384014Y-95268125D02*
X70393250Y-95273088D01*
X70393250Y-95273088D02*
X70402346Y-95278271D01*
X70402346Y-95278271D02*
X70411273Y-95283672D01*
X70411273Y-95283672D02*
X70420004Y-95289290D01*
X70420004Y-95289290D02*
X70426076Y-95293552D01*
X70426076Y-95293552D02*
X70432053Y-95297952D01*
X70432053Y-95297952D02*
X70437925Y-95302493D01*
X70437925Y-95302493D02*
X70443682Y-95307176D01*
X70443682Y-95307176D02*
X70449311Y-95312003D01*
X70449311Y-95312003D02*
X70454803Y-95316977D01*
X70454803Y-95316977D02*
X70460147Y-95322098D01*
X70460147Y-95322098D02*
X70465333Y-95327368D01*
X70465333Y-95327368D02*
X70470348Y-95332791D01*
X70470348Y-95332791D02*
X70475183Y-95338366D01*
X70475183Y-95338366D02*
X70479826Y-95344097D01*
X70479826Y-95344097D02*
X70484268Y-95349984D01*
X70484268Y-95349984D02*
X70488497Y-95356030D01*
X70488497Y-95356030D02*
X70492502Y-95362237D01*
X70492502Y-95362237D02*
X70496272Y-95368605D01*
X70496272Y-95368605D02*
X70499798Y-95375139D01*
X70499798Y-95375139D02*
X70505722Y-95387213D01*
X70505722Y-95387213D02*
X70510803Y-95399603D01*
X70510803Y-95399603D02*
X70515048Y-95412266D01*
X70515048Y-95412266D02*
X70518463Y-95425159D01*
X70518463Y-95425159D02*
X70521057Y-95438239D01*
X70521057Y-95438239D02*
X70522836Y-95451462D01*
X70522836Y-95451462D02*
X70523806Y-95464786D01*
X70523806Y-95464786D02*
X70523977Y-95478167D01*
X70523977Y-95478167D02*
X70523354Y-95491562D01*
X70523354Y-95491562D02*
X70521944Y-95504928D01*
X70521944Y-95504928D02*
X70519755Y-95518222D01*
X70519755Y-95518222D02*
X70516794Y-95531401D01*
X70516794Y-95531401D02*
X70513068Y-95544422D01*
X70513068Y-95544422D02*
X70508584Y-95557240D01*
X70508584Y-95557240D02*
X70503349Y-95569815D01*
X70503349Y-95569815D02*
X70497370Y-95582101D01*
X70497370Y-95582101D02*
X70490926Y-95593838D01*
X70490926Y-95593838D02*
X70483861Y-95605234D01*
X70483861Y-95605234D02*
X70476205Y-95616280D01*
X70476205Y-95616280D02*
X70467989Y-95626964D01*
X70467989Y-95626964D02*
X70459241Y-95637276D01*
X70459241Y-95637276D02*
X70449993Y-95647206D01*
X70449993Y-95647206D02*
X70440274Y-95656744D01*
X70440274Y-95656744D02*
X70430113Y-95665878D01*
X70430113Y-95665878D02*
X70419541Y-95674598D01*
X70419541Y-95674598D02*
X70408588Y-95682894D01*
X70408588Y-95682894D02*
X70397284Y-95690756D01*
X70397284Y-95690756D02*
X70385658Y-95698173D01*
X70385658Y-95698173D02*
X70373741Y-95705135D01*
X70373741Y-95705135D02*
X70361562Y-95711630D01*
X70361562Y-95711630D02*
X70349152Y-95717649D01*
X70349152Y-95717649D02*
X70336540Y-95723182D01*
X70336540Y-95723182D02*
X70323747Y-95728232D01*
X70323747Y-95728232D02*
X70310774Y-95732799D01*
X70310774Y-95732799D02*
X70297637Y-95736896D01*
X70297637Y-95736896D02*
X70284355Y-95740538D01*
X70284355Y-95740538D02*
X70270945Y-95743738D01*
X70270945Y-95743738D02*
X70257426Y-95746510D01*
X70257426Y-95746510D02*
X70243814Y-95748869D01*
X70243814Y-95748869D02*
X70230128Y-95750826D01*
X70230128Y-95750826D02*
X70216384Y-95752398D01*
X70216384Y-95752398D02*
X70202602Y-95753597D01*
X70202602Y-95753597D02*
X70188798Y-95754438D01*
X70188798Y-95754438D02*
X70174990Y-95754933D01*
X70174990Y-95754933D02*
X70161196Y-95755098D01*
X70161196Y-95755098D02*
X70147433Y-95754946D01*
X70147433Y-95754946D02*
X70133720Y-95754490D01*
X70133720Y-95754490D02*
X70120074Y-95753745D01*
X70120074Y-95753745D02*
X70097652Y-95751806D01*
X70097652Y-95751806D02*
X70075301Y-95749062D01*
X70075301Y-95749062D02*
X70053067Y-95745507D01*
X70053067Y-95745507D02*
X70030995Y-95741136D01*
X70030995Y-95741136D02*
X70009128Y-95735944D01*
X70009128Y-95735944D02*
X69987510Y-95729926D01*
X69987510Y-95729926D02*
X69966187Y-95723077D01*
X69966187Y-95723077D02*
X69945202Y-95715393D01*
X69945202Y-95715393D02*
X69924600Y-95706867D01*
X69924600Y-95706867D02*
X69904424Y-95697496D01*
X69904424Y-95697496D02*
X69884721Y-95687274D01*
X69884721Y-95687274D02*
X69865533Y-95676196D01*
X69865533Y-95676196D02*
X69846905Y-95664257D01*
X69846905Y-95664257D02*
X69828881Y-95651453D01*
X69828881Y-95651453D02*
X69811506Y-95637777D01*
X69811506Y-95637777D02*
X69794825Y-95623225D01*
X69794825Y-95623225D02*
X69960476Y-95473899D01*
X69960476Y-95473899D02*
X69972573Y-95485060D01*
X69972573Y-95485060D02*
X69985252Y-95495596D01*
X69985252Y-95495596D02*
X69998473Y-95505491D01*
X69998473Y-95505491D02*
X70012195Y-95514727D01*
X70012195Y-95514727D02*
X70026377Y-95523287D01*
X70026377Y-95523287D02*
X70040979Y-95531155D01*
X70040979Y-95531155D02*
X70055959Y-95538313D01*
X70055959Y-95538313D02*
X70071278Y-95544744D01*
X70071278Y-95544744D02*
X70086894Y-95550431D01*
X70086894Y-95550431D02*
X70102767Y-95555358D01*
X70102767Y-95555358D02*
X70118857Y-95559506D01*
X70118857Y-95559506D02*
X70135121Y-95562859D01*
X70135121Y-95562859D02*
X70151521Y-95565401D01*
X70151521Y-95565401D02*
X70168015Y-95567113D01*
X70168015Y-95567113D02*
X70184563Y-95567979D01*
X70184563Y-95567979D02*
X70201123Y-95567983D01*
X70201123Y-95567983D02*
X70210288Y-95567519D01*
X70210288Y-95567519D02*
X70219568Y-95566567D01*
X70219568Y-95566567D02*
X70228851Y-95565106D01*
X70228851Y-95565106D02*
X70238026Y-95563115D01*
X70238026Y-95563115D02*
X70246981Y-95560574D01*
X70246981Y-95560574D02*
X70255605Y-95557462D01*
X70255605Y-95557462D02*
X70263785Y-95553758D01*
X70263785Y-95553758D02*
X70271411Y-95549442D01*
X70271411Y-95549442D02*
X70274981Y-95547048D01*
X70274981Y-95547048D02*
X70278371Y-95544492D01*
X70278371Y-95544492D02*
X70281566Y-95541774D01*
X70281566Y-95541774D02*
X70284552Y-95538889D01*
X70284552Y-95538889D02*
X70287317Y-95535836D01*
X70287317Y-95535836D02*
X70289845Y-95532611D01*
X70289845Y-95532611D02*
X70292123Y-95529213D01*
X70292123Y-95529213D02*
X70294136Y-95525638D01*
X70294136Y-95525638D02*
X70295872Y-95521884D01*
X70295872Y-95521884D02*
X70297315Y-95517949D01*
X70297315Y-95517949D02*
X70298452Y-95513829D01*
X70298452Y-95513829D02*
X70299269Y-95509523D01*
X70299269Y-95509523D02*
X70299753Y-95505027D01*
X70299753Y-95505027D02*
X70299888Y-95500339D01*
X70299888Y-95500339D02*
X70299662Y-95495457D01*
X70299662Y-95495457D02*
X70299060Y-95490378D01*
X70299060Y-95490378D02*
X70298612Y-95488664D01*
X70298612Y-95488664D02*
X70298161Y-95487063D01*
X70298161Y-95487063D02*
X70297708Y-95485573D01*
X70297708Y-95485573D02*
X70297253Y-95484196D01*
X70297253Y-95484196D02*
X70296798Y-95482928D01*
X70296798Y-95482928D02*
X70296344Y-95481771D01*
X70296344Y-95481771D02*
X70295894Y-95480723D01*
X70295894Y-95480723D02*
X70295447Y-95479784D01*
X70295447Y-95479784D02*
X70293805Y-95476432D01*
X70293805Y-95476432D02*
X70292060Y-95473207D01*
X70292060Y-95473207D02*
X70290217Y-95470106D01*
X70290217Y-95470106D02*
X70288278Y-95467126D01*
X70288278Y-95467126D02*
X70286247Y-95464263D01*
X70286247Y-95464263D02*
X70284128Y-95461513D01*
X70284128Y-95461513D02*
X70281924Y-95458874D01*
X70281924Y-95458874D02*
X70279639Y-95456341D01*
X70279639Y-95456341D02*
X70277276Y-95453912D01*
X70277276Y-95453912D02*
X70274839Y-95451583D01*
X70274839Y-95451583D02*
X70272332Y-95449350D01*
X70272332Y-95449350D02*
X70269757Y-95447210D01*
X70269757Y-95447210D02*
X70267118Y-95445160D01*
X70267118Y-95445160D02*
X70264419Y-95443196D01*
X70264419Y-95443196D02*
X70258856Y-95439512D01*
X70258856Y-95439512D02*
X70253094Y-95436132D01*
X70253094Y-95436132D02*
X70247163Y-95433028D01*
X70247163Y-95433028D02*
X70241090Y-95430172D01*
X70241090Y-95430172D02*
X70234904Y-95427537D01*
X70234904Y-95427537D02*
X70228633Y-95425095D01*
X70228633Y-95425095D02*
X70222304Y-95422820D01*
X70222304Y-95422820D02*
X70215947Y-95420682D01*
X70215947Y-95420682D02*
X70209590Y-95418656D01*
X70209590Y-95418656D02*
X70047563Y-95372778D01*
X70047563Y-95372778D02*
X70027685Y-95365814D01*
X70027685Y-95365814D02*
X70017839Y-95362050D01*
X70017839Y-95362050D02*
X70008079Y-95358079D01*
X70008079Y-95358079D02*
X69998426Y-95353888D01*
X69998426Y-95353888D02*
X69988899Y-95349463D01*
X69988899Y-95349463D02*
X69979519Y-95344790D01*
X69979519Y-95344790D02*
X69970303Y-95339855D01*
X69970303Y-95339855D02*
X69961272Y-95334645D01*
X69961272Y-95334645D02*
X69952445Y-95329145D01*
X69952445Y-95329145D02*
X69943842Y-95323341D01*
X69943842Y-95323341D02*
X69935482Y-95317220D01*
X69935482Y-95317220D02*
X69927385Y-95310769D01*
X69927385Y-95310769D02*
X69919570Y-95303972D01*
X69919570Y-95303972D02*
X69912057Y-95296816D01*
X69912057Y-95296816D02*
X69904864Y-95289288D01*
X69904864Y-95289288D02*
X69897610Y-95281396D01*
X69897610Y-95281396D02*
X69890811Y-95273167D01*
X69890811Y-95273167D02*
X69884469Y-95264626D01*
X69884469Y-95264626D02*
X69878584Y-95255794D01*
X69878584Y-95255794D02*
X69873161Y-95246692D01*
X69873161Y-95246692D02*
X69868199Y-95237345D01*
X69868199Y-95237345D02*
X69863701Y-95227774D01*
X69863701Y-95227774D02*
X69859669Y-95218001D01*
X69859669Y-95218001D02*
X69856105Y-95208049D01*
X69856105Y-95208049D02*
X69853009Y-95197941D01*
X69853009Y-95197941D02*
X69850385Y-95187698D01*
X69850385Y-95187698D02*
X69848234Y-95177343D01*
X69848234Y-95177343D02*
X69846558Y-95166899D01*
X69846558Y-95166899D02*
X69845359Y-95156388D01*
X69845359Y-95156388D02*
X69844638Y-95145831D01*
X69844638Y-95145831D02*
X69844397Y-95135253D01*
X69844397Y-95135253D02*
X69844874Y-95124672D01*
X69844874Y-95124672D02*
X69845854Y-95114114D01*
X69845854Y-95114114D02*
X69847332Y-95103601D01*
X69847332Y-95103601D02*
X69849299Y-95093156D01*
X69849299Y-95093156D02*
X69851748Y-95082800D01*
X69851748Y-95082800D02*
X69854673Y-95072556D01*
X69854673Y-95072556D02*
X69858066Y-95062447D01*
X69858066Y-95062447D02*
X69861920Y-95052495D01*
X69861920Y-95052495D02*
X69866228Y-95042721D01*
X69866228Y-95042721D02*
X69870983Y-95033150D01*
X69870983Y-95033150D02*
X69876177Y-95023802D01*
X69876177Y-95023802D02*
X69881803Y-95014700D01*
X69881803Y-95014700D02*
X69887854Y-95005868D01*
X69887854Y-95005868D02*
X69894324Y-94997326D01*
X69894324Y-94997326D02*
X69901204Y-94989097D01*
X69901204Y-94989097D02*
X69908487Y-94981205D01*
X69908487Y-94981205D02*
X69916632Y-94972604D01*
X69916632Y-94972604D02*
X69925178Y-94964434D01*
X69925178Y-94964434D02*
X69934104Y-94956684D01*
X69934104Y-94956684D02*
X69943386Y-94949345D01*
X69943386Y-94949345D02*
X69953001Y-94942406D01*
X69953001Y-94942406D02*
X69962925Y-94935856D01*
X69962925Y-94935856D02*
X69973137Y-94929685D01*
X69973137Y-94929685D02*
X69983612Y-94923882D01*
X69983612Y-94923882D02*
X69994327Y-94918438D01*
X69994327Y-94918438D02*
X70005261Y-94913342D01*
X70005261Y-94913342D02*
X70016388Y-94908583D01*
X70016388Y-94908583D02*
X70027687Y-94904150D01*
X70027687Y-94904150D02*
X70039135Y-94900034D01*
X70039135Y-94900034D02*
X70050708Y-94896225D01*
X70050708Y-94896225D02*
X70062383Y-94892710D01*
X70062383Y-94892710D02*
X70074137Y-94889482D01*
X70074137Y-94889482D02*
X70088706Y-94885746D01*
X70088706Y-94885746D02*
X70103374Y-94882474D01*
X70103374Y-94882474D02*
X70118130Y-94879659D01*
X70118130Y-94879659D02*
X70132961Y-94877297D01*
X70132961Y-94877297D02*
X70147855Y-94875384D01*
X70147855Y-94875384D02*
X70162800Y-94873913D01*
X70162800Y-94873913D02*
X70177783Y-94872879D01*
X70177783Y-94872879D02*
X70192792Y-94872279D01*
X70192792Y-94872279D02*
X70207816Y-94872106D01*
X70207816Y-94872106D02*
X70222841Y-94872355D01*
X70222841Y-94872355D02*
X70237856Y-94873023D01*
X70237856Y-94873023D02*
X70252848Y-94874102D01*
X70252848Y-94874102D02*
X70267805Y-94875590D01*
X70267805Y-94875590D02*
X70282715Y-94877479D01*
X70282715Y-94877479D02*
X70297566Y-94879766D01*
X70297566Y-94879766D02*
X70312345Y-94882446D01*
X70312345Y-94882446D02*
X70327494Y-94885529D01*
X70327494Y-94885529D02*
X70342546Y-94889049D01*
X70342546Y-94889049D02*
X70357487Y-94893004D01*
X70357487Y-94893004D02*
X70372305Y-94897390D01*
X70372305Y-94897390D02*
X70386988Y-94902202D01*
X70386988Y-94902202D02*
X70401525Y-94907439D01*
X70401525Y-94907439D02*
X70415901Y-94913096D01*
X70415901Y-94913096D02*
X70430106Y-94919170D01*
X70430106Y-94919170D02*
X70444126Y-94925657D01*
X70444126Y-94925657D02*
X70457951Y-94932554D01*
X70457951Y-94932554D02*
X70471566Y-94939858D01*
X70471566Y-94939858D02*
X70484960Y-94947566D01*
X70484960Y-94947566D02*
X70498121Y-94955673D01*
X70498121Y-94955673D02*
X70511036Y-94964176D01*
X70511036Y-94964176D02*
X70523694Y-94973072D01*
X70523694Y-94973072D02*
X70536081Y-94982357D01*
X70536081Y-94982357D02*
X70467136Y-95047041D01*
X70467136Y-95047041D02*
X70455694Y-95058067D01*
X70455694Y-95058067D02*
X70444070Y-95069092D01*
X70444070Y-95069092D02*
X70420440Y-95091143D01*
X70420440Y-95091143D02*
X70372812Y-95135253D01*
X70372812Y-95135253D02*
X70361740Y-95123957D01*
X70361740Y-95123957D02*
X70349886Y-95113457D01*
X70349886Y-95113457D02*
X70337317Y-95103777D01*
X70337317Y-95103777D02*
X70324100Y-95094941D01*
X70324100Y-95094941D02*
X70310303Y-95086973D01*
X70310303Y-95086973D02*
X70295992Y-95079898D01*
X70295992Y-95079898D02*
X70281236Y-95073739D01*
X70281236Y-95073739D02*
X70266101Y-95068521D01*
X70266101Y-95068521D02*
X70250654Y-95064267D01*
X70250654Y-95064267D02*
X70234963Y-95061002D01*
X70234963Y-95061002D02*
X70219096Y-95058751D01*
X70219096Y-95058751D02*
X70203118Y-95057536D01*
X70203118Y-95057536D02*
X70187099Y-95057383D01*
X70187099Y-95057383D02*
X70171104Y-95058315D01*
X70171104Y-95058315D02*
X70155202Y-95060357D01*
X70155202Y-95060357D02*
X70139459Y-95063533D01*
X70139459Y-95063533D02*
X70132837Y-95065257D01*
X70132837Y-95065257D02*
X70126185Y-95067342D01*
X70126185Y-95067342D02*
X70119588Y-95069792D01*
X70119588Y-95069792D02*
X70113126Y-95072611D01*
X70113126Y-95072611D02*
X70106885Y-95075802D01*
X70106885Y-95075802D02*
X70100948Y-95079368D01*
X70100948Y-95079368D02*
X70095396Y-95083313D01*
X70095396Y-95083313D02*
X70092792Y-95085428D01*
X70092792Y-95085428D02*
X70090315Y-95087639D01*
X70090315Y-95087639D02*
X70087976Y-95089947D01*
X70087976Y-95089947D02*
X70085786Y-95092351D01*
X70085786Y-95092351D02*
X70083756Y-95094852D01*
X70083756Y-95094852D02*
X70081894Y-95097451D01*
X70081894Y-95097451D02*
X70080213Y-95100148D01*
X70080213Y-95100148D02*
X70078722Y-95102944D01*
X70078722Y-95102944D02*
X70077431Y-95105838D01*
X70077431Y-95105838D02*
X70076352Y-95108832D01*
X70076352Y-95108832D02*
X70075494Y-95111925D01*
X70075494Y-95111925D02*
X70074868Y-95115118D01*
X70074868Y-95115118D02*
X70074484Y-95118412D01*
X70074484Y-95118412D02*
X70074353Y-95121807D01*
X70074353Y-95121807D02*
X70074485Y-95125303D01*
X70074485Y-95125303D02*
X70074891Y-95128901D01*
X70074891Y-95128901D02*
X70075581Y-95132601D01*
X70075581Y-95132601D02*
X70076565Y-95136404D01*
X70076565Y-95136404D02*
X70076565Y-95136404D01*
G36*
X70222841Y-94872355D02*
G01*
X70237856Y-94873023D01*
X70252848Y-94874102D01*
X70267805Y-94875590D01*
X70282715Y-94877479D01*
X70297566Y-94879766D01*
X70312345Y-94882446D01*
X70327494Y-94885529D01*
X70342546Y-94889049D01*
X70357487Y-94893004D01*
X70372305Y-94897390D01*
X70386988Y-94902202D01*
X70401525Y-94907439D01*
X70415901Y-94913096D01*
X70430106Y-94919170D01*
X70444126Y-94925657D01*
X70457951Y-94932554D01*
X70471566Y-94939858D01*
X70484960Y-94947566D01*
X70498121Y-94955673D01*
X70511036Y-94964176D01*
X70523694Y-94973072D01*
X70536081Y-94982357D01*
X70467136Y-95047041D01*
X70455694Y-95058067D01*
X70444070Y-95069092D01*
X70420440Y-95091143D01*
X70372812Y-95135253D01*
X70361740Y-95123957D01*
X70349886Y-95113457D01*
X70337317Y-95103777D01*
X70324100Y-95094941D01*
X70310303Y-95086973D01*
X70295992Y-95079898D01*
X70281236Y-95073739D01*
X70266101Y-95068521D01*
X70250654Y-95064267D01*
X70234963Y-95061002D01*
X70219096Y-95058751D01*
X70203118Y-95057536D01*
X70187099Y-95057383D01*
X70171104Y-95058315D01*
X70155202Y-95060357D01*
X70139459Y-95063533D01*
X70132837Y-95065257D01*
X70126185Y-95067342D01*
X70119588Y-95069792D01*
X70113126Y-95072611D01*
X70106885Y-95075802D01*
X70100948Y-95079368D01*
X70095396Y-95083313D01*
X70092792Y-95085428D01*
X70090315Y-95087639D01*
X70087976Y-95089947D01*
X70085786Y-95092351D01*
X70083756Y-95094852D01*
X70081894Y-95097451D01*
X70080213Y-95100148D01*
X70078722Y-95102944D01*
X70077431Y-95105838D01*
X70076352Y-95108832D01*
X70075494Y-95111925D01*
X70074868Y-95115118D01*
X70074484Y-95118412D01*
X70074353Y-95121807D01*
X70074485Y-95125303D01*
X70074891Y-95128901D01*
X70075581Y-95132601D01*
X70076565Y-95136404D01*
X70080177Y-95144650D01*
X70081685Y-95147134D01*
X70083262Y-95149518D01*
X70084906Y-95151806D01*
X70086613Y-95154000D01*
X70088383Y-95156103D01*
X70090212Y-95158120D01*
X70092099Y-95160053D01*
X70094041Y-95161905D01*
X70096036Y-95163680D01*
X70098083Y-95165380D01*
X70102319Y-95168572D01*
X70106733Y-95171505D01*
X70111306Y-95174206D01*
X70116021Y-95176700D01*
X70120859Y-95179013D01*
X70125804Y-95181171D01*
X70130838Y-95183199D01*
X70135942Y-95185123D01*
X70141100Y-95186969D01*
X70151504Y-95190530D01*
X70175706Y-95197775D01*
X70200144Y-95204679D01*
X70249332Y-95218291D01*
X70273886Y-95225410D01*
X70298282Y-95233013D01*
X70322420Y-95241304D01*
X70334362Y-95245773D01*
X70346203Y-95250492D01*
X70355730Y-95254565D01*
X70365226Y-95258862D01*
X70374663Y-95263383D01*
X70384014Y-95268125D01*
X70393250Y-95273088D01*
X70402346Y-95278271D01*
X70411273Y-95283672D01*
X70420004Y-95289290D01*
X70426076Y-95293552D01*
X70432053Y-95297952D01*
X70437925Y-95302493D01*
X70443682Y-95307176D01*
X70449311Y-95312003D01*
X70454803Y-95316977D01*
X70460147Y-95322098D01*
X70465333Y-95327368D01*
X70470348Y-95332791D01*
X70475183Y-95338366D01*
X70479826Y-95344097D01*
X70484268Y-95349984D01*
X70488497Y-95356030D01*
X70492502Y-95362237D01*
X70496272Y-95368605D01*
X70499798Y-95375139D01*
X70505722Y-95387213D01*
X70510803Y-95399603D01*
X70515048Y-95412266D01*
X70518463Y-95425159D01*
X70521057Y-95438239D01*
X70522836Y-95451462D01*
X70523806Y-95464786D01*
X70523977Y-95478167D01*
X70523354Y-95491562D01*
X70521944Y-95504928D01*
X70519755Y-95518222D01*
X70516794Y-95531401D01*
X70513068Y-95544422D01*
X70508584Y-95557240D01*
X70503349Y-95569815D01*
X70497370Y-95582101D01*
X70490926Y-95593838D01*
X70483861Y-95605234D01*
X70476205Y-95616280D01*
X70467989Y-95626964D01*
X70459241Y-95637276D01*
X70449993Y-95647206D01*
X70440274Y-95656744D01*
X70430113Y-95665878D01*
X70419541Y-95674598D01*
X70408588Y-95682894D01*
X70397284Y-95690756D01*
X70385658Y-95698173D01*
X70373741Y-95705135D01*
X70361562Y-95711630D01*
X70349152Y-95717649D01*
X70336540Y-95723182D01*
X70323747Y-95728232D01*
X70310774Y-95732799D01*
X70297637Y-95736896D01*
X70284355Y-95740538D01*
X70270945Y-95743738D01*
X70257426Y-95746510D01*
X70243814Y-95748869D01*
X70230128Y-95750826D01*
X70216384Y-95752398D01*
X70202602Y-95753597D01*
X70188798Y-95754438D01*
X70174990Y-95754933D01*
X70161196Y-95755098D01*
X70147433Y-95754946D01*
X70133720Y-95754490D01*
X70120074Y-95753745D01*
X70097652Y-95751806D01*
X70075301Y-95749062D01*
X70053067Y-95745507D01*
X70030995Y-95741136D01*
X70009128Y-95735944D01*
X69987510Y-95729926D01*
X69966187Y-95723077D01*
X69945202Y-95715393D01*
X69924600Y-95706867D01*
X69904424Y-95697496D01*
X69884721Y-95687274D01*
X69865533Y-95676196D01*
X69846905Y-95664257D01*
X69828881Y-95651453D01*
X69811506Y-95637777D01*
X69794825Y-95623225D01*
X69960476Y-95473899D01*
X69972573Y-95485060D01*
X69985252Y-95495596D01*
X69998473Y-95505491D01*
X70012195Y-95514727D01*
X70026377Y-95523287D01*
X70040979Y-95531155D01*
X70055959Y-95538313D01*
X70071278Y-95544744D01*
X70086894Y-95550431D01*
X70102767Y-95555358D01*
X70118857Y-95559506D01*
X70135121Y-95562859D01*
X70151521Y-95565401D01*
X70168015Y-95567113D01*
X70184563Y-95567979D01*
X70201123Y-95567983D01*
X70210288Y-95567519D01*
X70219568Y-95566567D01*
X70228851Y-95565106D01*
X70238026Y-95563115D01*
X70246981Y-95560574D01*
X70255605Y-95557462D01*
X70263785Y-95553758D01*
X70271411Y-95549442D01*
X70274981Y-95547048D01*
X70278371Y-95544492D01*
X70281566Y-95541774D01*
X70284552Y-95538889D01*
X70287317Y-95535836D01*
X70289845Y-95532611D01*
X70292123Y-95529213D01*
X70294136Y-95525638D01*
X70295872Y-95521884D01*
X70297315Y-95517949D01*
X70298452Y-95513829D01*
X70299269Y-95509523D01*
X70299753Y-95505027D01*
X70299888Y-95500339D01*
X70299662Y-95495457D01*
X70299060Y-95490378D01*
X70298612Y-95488664D01*
X70298161Y-95487063D01*
X70297708Y-95485573D01*
X70297253Y-95484196D01*
X70296798Y-95482928D01*
X70296344Y-95481771D01*
X70295894Y-95480723D01*
X70295447Y-95479784D01*
X70293805Y-95476432D01*
X70292060Y-95473207D01*
X70290217Y-95470106D01*
X70288278Y-95467126D01*
X70286247Y-95464263D01*
X70284128Y-95461513D01*
X70281924Y-95458874D01*
X70279639Y-95456341D01*
X70277276Y-95453912D01*
X70274839Y-95451583D01*
X70272332Y-95449350D01*
X70269757Y-95447210D01*
X70267118Y-95445160D01*
X70264419Y-95443196D01*
X70258856Y-95439512D01*
X70253094Y-95436132D01*
X70247163Y-95433028D01*
X70241090Y-95430172D01*
X70234904Y-95427537D01*
X70228633Y-95425095D01*
X70222304Y-95422820D01*
X70215947Y-95420682D01*
X70209590Y-95418656D01*
X70047563Y-95372778D01*
X70027685Y-95365814D01*
X70017839Y-95362050D01*
X70008079Y-95358079D01*
X69998426Y-95353888D01*
X69988899Y-95349463D01*
X69979519Y-95344790D01*
X69970303Y-95339855D01*
X69961272Y-95334645D01*
X69952445Y-95329145D01*
X69943842Y-95323341D01*
X69935482Y-95317220D01*
X69927385Y-95310769D01*
X69919570Y-95303972D01*
X69912057Y-95296816D01*
X69904864Y-95289288D01*
X69897610Y-95281396D01*
X69890811Y-95273167D01*
X69884469Y-95264626D01*
X69878584Y-95255794D01*
X69873161Y-95246692D01*
X69868199Y-95237345D01*
X69863701Y-95227774D01*
X69859669Y-95218001D01*
X69856105Y-95208049D01*
X69853009Y-95197941D01*
X69850385Y-95187698D01*
X69848234Y-95177343D01*
X69846558Y-95166899D01*
X69845359Y-95156388D01*
X69844638Y-95145831D01*
X69844397Y-95135253D01*
X69844874Y-95124672D01*
X69845854Y-95114114D01*
X69847332Y-95103601D01*
X69849299Y-95093156D01*
X69851748Y-95082800D01*
X69854673Y-95072556D01*
X69858066Y-95062447D01*
X69861920Y-95052495D01*
X69866228Y-95042721D01*
X69870983Y-95033150D01*
X69876177Y-95023802D01*
X69881803Y-95014700D01*
X69887854Y-95005868D01*
X69894324Y-94997326D01*
X69901204Y-94989097D01*
X69908487Y-94981205D01*
X69916632Y-94972604D01*
X69925178Y-94964434D01*
X69934104Y-94956684D01*
X69943386Y-94949345D01*
X69953001Y-94942406D01*
X69962925Y-94935856D01*
X69973137Y-94929685D01*
X69983612Y-94923882D01*
X69994327Y-94918438D01*
X70005261Y-94913342D01*
X70016388Y-94908583D01*
X70027687Y-94904150D01*
X70039135Y-94900034D01*
X70050708Y-94896225D01*
X70062383Y-94892710D01*
X70074137Y-94889482D01*
X70088706Y-94885746D01*
X70103374Y-94882474D01*
X70118130Y-94879659D01*
X70132961Y-94877297D01*
X70147855Y-94875384D01*
X70162800Y-94873913D01*
X70177783Y-94872879D01*
X70192792Y-94872279D01*
X70207816Y-94872106D01*
X70222841Y-94872355D01*
G37*
X70222841Y-94872355D02*
X70237856Y-94873023D01*
X70252848Y-94874102D01*
X70267805Y-94875590D01*
X70282715Y-94877479D01*
X70297566Y-94879766D01*
X70312345Y-94882446D01*
X70327494Y-94885529D01*
X70342546Y-94889049D01*
X70357487Y-94893004D01*
X70372305Y-94897390D01*
X70386988Y-94902202D01*
X70401525Y-94907439D01*
X70415901Y-94913096D01*
X70430106Y-94919170D01*
X70444126Y-94925657D01*
X70457951Y-94932554D01*
X70471566Y-94939858D01*
X70484960Y-94947566D01*
X70498121Y-94955673D01*
X70511036Y-94964176D01*
X70523694Y-94973072D01*
X70536081Y-94982357D01*
X70467136Y-95047041D01*
X70455694Y-95058067D01*
X70444070Y-95069092D01*
X70420440Y-95091143D01*
X70372812Y-95135253D01*
X70361740Y-95123957D01*
X70349886Y-95113457D01*
X70337317Y-95103777D01*
X70324100Y-95094941D01*
X70310303Y-95086973D01*
X70295992Y-95079898D01*
X70281236Y-95073739D01*
X70266101Y-95068521D01*
X70250654Y-95064267D01*
X70234963Y-95061002D01*
X70219096Y-95058751D01*
X70203118Y-95057536D01*
X70187099Y-95057383D01*
X70171104Y-95058315D01*
X70155202Y-95060357D01*
X70139459Y-95063533D01*
X70132837Y-95065257D01*
X70126185Y-95067342D01*
X70119588Y-95069792D01*
X70113126Y-95072611D01*
X70106885Y-95075802D01*
X70100948Y-95079368D01*
X70095396Y-95083313D01*
X70092792Y-95085428D01*
X70090315Y-95087639D01*
X70087976Y-95089947D01*
X70085786Y-95092351D01*
X70083756Y-95094852D01*
X70081894Y-95097451D01*
X70080213Y-95100148D01*
X70078722Y-95102944D01*
X70077431Y-95105838D01*
X70076352Y-95108832D01*
X70075494Y-95111925D01*
X70074868Y-95115118D01*
X70074484Y-95118412D01*
X70074353Y-95121807D01*
X70074485Y-95125303D01*
X70074891Y-95128901D01*
X70075581Y-95132601D01*
X70076565Y-95136404D01*
X70080177Y-95144650D01*
X70081685Y-95147134D01*
X70083262Y-95149518D01*
X70084906Y-95151806D01*
X70086613Y-95154000D01*
X70088383Y-95156103D01*
X70090212Y-95158120D01*
X70092099Y-95160053D01*
X70094041Y-95161905D01*
X70096036Y-95163680D01*
X70098083Y-95165380D01*
X70102319Y-95168572D01*
X70106733Y-95171505D01*
X70111306Y-95174206D01*
X70116021Y-95176700D01*
X70120859Y-95179013D01*
X70125804Y-95181171D01*
X70130838Y-95183199D01*
X70135942Y-95185123D01*
X70141100Y-95186969D01*
X70151504Y-95190530D01*
X70175706Y-95197775D01*
X70200144Y-95204679D01*
X70249332Y-95218291D01*
X70273886Y-95225410D01*
X70298282Y-95233013D01*
X70322420Y-95241304D01*
X70334362Y-95245773D01*
X70346203Y-95250492D01*
X70355730Y-95254565D01*
X70365226Y-95258862D01*
X70374663Y-95263383D01*
X70384014Y-95268125D01*
X70393250Y-95273088D01*
X70402346Y-95278271D01*
X70411273Y-95283672D01*
X70420004Y-95289290D01*
X70426076Y-95293552D01*
X70432053Y-95297952D01*
X70437925Y-95302493D01*
X70443682Y-95307176D01*
X70449311Y-95312003D01*
X70454803Y-95316977D01*
X70460147Y-95322098D01*
X70465333Y-95327368D01*
X70470348Y-95332791D01*
X70475183Y-95338366D01*
X70479826Y-95344097D01*
X70484268Y-95349984D01*
X70488497Y-95356030D01*
X70492502Y-95362237D01*
X70496272Y-95368605D01*
X70499798Y-95375139D01*
X70505722Y-95387213D01*
X70510803Y-95399603D01*
X70515048Y-95412266D01*
X70518463Y-95425159D01*
X70521057Y-95438239D01*
X70522836Y-95451462D01*
X70523806Y-95464786D01*
X70523977Y-95478167D01*
X70523354Y-95491562D01*
X70521944Y-95504928D01*
X70519755Y-95518222D01*
X70516794Y-95531401D01*
X70513068Y-95544422D01*
X70508584Y-95557240D01*
X70503349Y-95569815D01*
X70497370Y-95582101D01*
X70490926Y-95593838D01*
X70483861Y-95605234D01*
X70476205Y-95616280D01*
X70467989Y-95626964D01*
X70459241Y-95637276D01*
X70449993Y-95647206D01*
X70440274Y-95656744D01*
X70430113Y-95665878D01*
X70419541Y-95674598D01*
X70408588Y-95682894D01*
X70397284Y-95690756D01*
X70385658Y-95698173D01*
X70373741Y-95705135D01*
X70361562Y-95711630D01*
X70349152Y-95717649D01*
X70336540Y-95723182D01*
X70323747Y-95728232D01*
X70310774Y-95732799D01*
X70297637Y-95736896D01*
X70284355Y-95740538D01*
X70270945Y-95743738D01*
X70257426Y-95746510D01*
X70243814Y-95748869D01*
X70230128Y-95750826D01*
X70216384Y-95752398D01*
X70202602Y-95753597D01*
X70188798Y-95754438D01*
X70174990Y-95754933D01*
X70161196Y-95755098D01*
X70147433Y-95754946D01*
X70133720Y-95754490D01*
X70120074Y-95753745D01*
X70097652Y-95751806D01*
X70075301Y-95749062D01*
X70053067Y-95745507D01*
X70030995Y-95741136D01*
X70009128Y-95735944D01*
X69987510Y-95729926D01*
X69966187Y-95723077D01*
X69945202Y-95715393D01*
X69924600Y-95706867D01*
X69904424Y-95697496D01*
X69884721Y-95687274D01*
X69865533Y-95676196D01*
X69846905Y-95664257D01*
X69828881Y-95651453D01*
X69811506Y-95637777D01*
X69794825Y-95623225D01*
X69960476Y-95473899D01*
X69972573Y-95485060D01*
X69985252Y-95495596D01*
X69998473Y-95505491D01*
X70012195Y-95514727D01*
X70026377Y-95523287D01*
X70040979Y-95531155D01*
X70055959Y-95538313D01*
X70071278Y-95544744D01*
X70086894Y-95550431D01*
X70102767Y-95555358D01*
X70118857Y-95559506D01*
X70135121Y-95562859D01*
X70151521Y-95565401D01*
X70168015Y-95567113D01*
X70184563Y-95567979D01*
X70201123Y-95567983D01*
X70210288Y-95567519D01*
X70219568Y-95566567D01*
X70228851Y-95565106D01*
X70238026Y-95563115D01*
X70246981Y-95560574D01*
X70255605Y-95557462D01*
X70263785Y-95553758D01*
X70271411Y-95549442D01*
X70274981Y-95547048D01*
X70278371Y-95544492D01*
X70281566Y-95541774D01*
X70284552Y-95538889D01*
X70287317Y-95535836D01*
X70289845Y-95532611D01*
X70292123Y-95529213D01*
X70294136Y-95525638D01*
X70295872Y-95521884D01*
X70297315Y-95517949D01*
X70298452Y-95513829D01*
X70299269Y-95509523D01*
X70299753Y-95505027D01*
X70299888Y-95500339D01*
X70299662Y-95495457D01*
X70299060Y-95490378D01*
X70298612Y-95488664D01*
X70298161Y-95487063D01*
X70297708Y-95485573D01*
X70297253Y-95484196D01*
X70296798Y-95482928D01*
X70296344Y-95481771D01*
X70295894Y-95480723D01*
X70295447Y-95479784D01*
X70293805Y-95476432D01*
X70292060Y-95473207D01*
X70290217Y-95470106D01*
X70288278Y-95467126D01*
X70286247Y-95464263D01*
X70284128Y-95461513D01*
X70281924Y-95458874D01*
X70279639Y-95456341D01*
X70277276Y-95453912D01*
X70274839Y-95451583D01*
X70272332Y-95449350D01*
X70269757Y-95447210D01*
X70267118Y-95445160D01*
X70264419Y-95443196D01*
X70258856Y-95439512D01*
X70253094Y-95436132D01*
X70247163Y-95433028D01*
X70241090Y-95430172D01*
X70234904Y-95427537D01*
X70228633Y-95425095D01*
X70222304Y-95422820D01*
X70215947Y-95420682D01*
X70209590Y-95418656D01*
X70047563Y-95372778D01*
X70027685Y-95365814D01*
X70017839Y-95362050D01*
X70008079Y-95358079D01*
X69998426Y-95353888D01*
X69988899Y-95349463D01*
X69979519Y-95344790D01*
X69970303Y-95339855D01*
X69961272Y-95334645D01*
X69952445Y-95329145D01*
X69943842Y-95323341D01*
X69935482Y-95317220D01*
X69927385Y-95310769D01*
X69919570Y-95303972D01*
X69912057Y-95296816D01*
X69904864Y-95289288D01*
X69897610Y-95281396D01*
X69890811Y-95273167D01*
X69884469Y-95264626D01*
X69878584Y-95255794D01*
X69873161Y-95246692D01*
X69868199Y-95237345D01*
X69863701Y-95227774D01*
X69859669Y-95218001D01*
X69856105Y-95208049D01*
X69853009Y-95197941D01*
X69850385Y-95187698D01*
X69848234Y-95177343D01*
X69846558Y-95166899D01*
X69845359Y-95156388D01*
X69844638Y-95145831D01*
X69844397Y-95135253D01*
X69844874Y-95124672D01*
X69845854Y-95114114D01*
X69847332Y-95103601D01*
X69849299Y-95093156D01*
X69851748Y-95082800D01*
X69854673Y-95072556D01*
X69858066Y-95062447D01*
X69861920Y-95052495D01*
X69866228Y-95042721D01*
X69870983Y-95033150D01*
X69876177Y-95023802D01*
X69881803Y-95014700D01*
X69887854Y-95005868D01*
X69894324Y-94997326D01*
X69901204Y-94989097D01*
X69908487Y-94981205D01*
X69916632Y-94972604D01*
X69925178Y-94964434D01*
X69934104Y-94956684D01*
X69943386Y-94949345D01*
X69953001Y-94942406D01*
X69962925Y-94935856D01*
X69973137Y-94929685D01*
X69983612Y-94923882D01*
X69994327Y-94918438D01*
X70005261Y-94913342D01*
X70016388Y-94908583D01*
X70027687Y-94904150D01*
X70039135Y-94900034D01*
X70050708Y-94896225D01*
X70062383Y-94892710D01*
X70074137Y-94889482D01*
X70088706Y-94885746D01*
X70103374Y-94882474D01*
X70118130Y-94879659D01*
X70132961Y-94877297D01*
X70147855Y-94875384D01*
X70162800Y-94873913D01*
X70177783Y-94872879D01*
X70192792Y-94872279D01*
X70207816Y-94872106D01*
X70222841Y-94872355D01*
D12*
X63188281Y-94453007D02*
X63201532Y-94407629D01*
X60240509Y-95169843D02*
X60265052Y-95210637D01*
X64801889Y-93984156D02*
X64836040Y-94015818D01*
X63177300Y-94499272D02*
X63188281Y-94453007D01*
X64040140Y-95643320D02*
X63990928Y-95637238D01*
X61175557Y-95677502D02*
X61123839Y-95678775D01*
X65027085Y-94277413D02*
X65046777Y-94319771D01*
X61956703Y-95247252D02*
X61928717Y-95285638D01*
X61602726Y-95560681D02*
X61559421Y-95582292D01*
D11*
X64114577Y-94863407D02*
X64094653Y-94918824D01*
X64152358Y-94581481D02*
X64166745Y-94527393D01*
D12*
X61982810Y-95207524D02*
X61956703Y-95247252D01*
X61559421Y-95582292D02*
X61514930Y-95601888D01*
X63325268Y-95226646D02*
X63299689Y-95187847D01*
X63352685Y-94119848D02*
X63381878Y-94083724D01*
X63188281Y-94930978D02*
X63177300Y-94884714D01*
X60975186Y-95664463D02*
X61025531Y-95670248D01*
X63552329Y-93925715D02*
X63590883Y-93899055D01*
X63299689Y-94196136D02*
X63325268Y-94157338D01*
X64836040Y-94015818D02*
X64868600Y-94049028D01*
X63254294Y-94277413D02*
X63276011Y-94236181D01*
X63381878Y-95300262D02*
X63352685Y-95264137D01*
X62049239Y-95080912D02*
X62029142Y-95124293D01*
D10*
X61218304Y-95633067D02*
X61218335Y-95630076D01*
X61218335Y-95630076D02*
X61218433Y-95627087D01*
X61218433Y-95627087D02*
X61218597Y-95624099D01*
X61218597Y-95624099D02*
X61218832Y-95621111D01*
X61218832Y-95621111D02*
X61219137Y-95618125D01*
X61219137Y-95618125D02*
X61219517Y-95615139D01*
X61219517Y-95615139D02*
X61219972Y-95612154D01*
X61219972Y-95612154D02*
X61220505Y-95609170D01*
X61220505Y-95609170D02*
X61221118Y-95606186D01*
X61221118Y-95606186D02*
X61221814Y-95603203D01*
X61221814Y-95603203D02*
X61222593Y-95600220D01*
X61222593Y-95600220D02*
X61223459Y-95597237D01*
X61223459Y-95597237D02*
X61224413Y-95594254D01*
X61224413Y-95594254D02*
X61225457Y-95591271D01*
X61225457Y-95591271D02*
X61226594Y-95588288D01*
X61226594Y-95588288D02*
X61227826Y-95585305D01*
X61227826Y-95585305D02*
X61230454Y-95579908D01*
X61230454Y-95579908D02*
X61233239Y-95574648D01*
X61233239Y-95574648D02*
X61234701Y-95572074D01*
X61234701Y-95572074D02*
X61236215Y-95569540D01*
X61236215Y-95569540D02*
X61237785Y-95567049D01*
X61237785Y-95567049D02*
X61239414Y-95564602D01*
X61239414Y-95564602D02*
X61241108Y-95562201D01*
X61241108Y-95562201D02*
X61242869Y-95559849D01*
X61242869Y-95559849D02*
X61244702Y-95557547D01*
X61244702Y-95557547D02*
X61246612Y-95555297D01*
X61246612Y-95555297D02*
X61248601Y-95553102D01*
X61248601Y-95553102D02*
X61250675Y-95550964D01*
X61250675Y-95550964D02*
X61252838Y-95548883D01*
X61252838Y-95548883D02*
X61255092Y-95546864D01*
X61255092Y-95546864D02*
X61257167Y-95544671D01*
X61257167Y-95544671D02*
X61259304Y-95542569D01*
X61259304Y-95542569D02*
X61261502Y-95540552D01*
X61261502Y-95540552D02*
X61263758Y-95538618D01*
X61263758Y-95538618D02*
X61266070Y-95536762D01*
X61266070Y-95536762D02*
X61268437Y-95534980D01*
X61268437Y-95534980D02*
X61270856Y-95533268D01*
X61270856Y-95533268D02*
X61273324Y-95531623D01*
X61273324Y-95531623D02*
X61275841Y-95530039D01*
X61275841Y-95530039D02*
X61278403Y-95528514D01*
X61278403Y-95528514D02*
X61281010Y-95527043D01*
X61281010Y-95527043D02*
X61283658Y-95525622D01*
X61283658Y-95525622D02*
X61286345Y-95524247D01*
X61286345Y-95524247D02*
X61289071Y-95522914D01*
X61289071Y-95522914D02*
X61294626Y-95520360D01*
X61294626Y-95520360D02*
X61300321Y-95518439D01*
X61300321Y-95518439D02*
X61306142Y-95516675D01*
X61306142Y-95516675D02*
X61312088Y-95515098D01*
X61312088Y-95515098D02*
X61315109Y-95514390D01*
X61315109Y-95514390D02*
X61318161Y-95513740D01*
X61318161Y-95513740D02*
X61321245Y-95513152D01*
X61321245Y-95513152D02*
X61324361Y-95512630D01*
X61324361Y-95512630D02*
X61327508Y-95512178D01*
X61327508Y-95512178D02*
X61330688Y-95511800D01*
X61330688Y-95511800D02*
X61333900Y-95511499D01*
X61333900Y-95511499D02*
X61337144Y-95511279D01*
X61337144Y-95511279D02*
X61340420Y-95511145D01*
X61340420Y-95511145D02*
X61343729Y-95511099D01*
X61343729Y-95511099D02*
X61347029Y-95511145D01*
X61347029Y-95511145D02*
X61350300Y-95511279D01*
X61350300Y-95511279D02*
X61353540Y-95511499D01*
X61353540Y-95511499D02*
X61356749Y-95511800D01*
X61356749Y-95511800D02*
X61359927Y-95512178D01*
X61359927Y-95512178D02*
X61363074Y-95512630D01*
X61363074Y-95512630D02*
X61366190Y-95513152D01*
X61366190Y-95513152D02*
X61369274Y-95513740D01*
X61369274Y-95513740D02*
X61375348Y-95515098D01*
X61375348Y-95515098D02*
X61381293Y-95516675D01*
X61381293Y-95516675D02*
X61387110Y-95518439D01*
X61387110Y-95518439D02*
X61392796Y-95520360D01*
X61392796Y-95520360D02*
X61398350Y-95522914D01*
X61398350Y-95522914D02*
X61403779Y-95525622D01*
X61403779Y-95525622D02*
X61406446Y-95527043D01*
X61406446Y-95527043D02*
X61409083Y-95528514D01*
X61409083Y-95528514D02*
X61411687Y-95530039D01*
X61411687Y-95530039D02*
X61414260Y-95531623D01*
X61414260Y-95531623D02*
X61416802Y-95533268D01*
X61416802Y-95533268D02*
X61419312Y-95534980D01*
X61419312Y-95534980D02*
X61421790Y-95536762D01*
X61421790Y-95536762D02*
X61424236Y-95538618D01*
X61424236Y-95538618D02*
X61426650Y-95540552D01*
X61426650Y-95540552D02*
X61429033Y-95542569D01*
X61429033Y-95542569D02*
X61431383Y-95544671D01*
X61431383Y-95544671D02*
X61433701Y-95546864D01*
X61433701Y-95546864D02*
X61435715Y-95548883D01*
X61435715Y-95548883D02*
X61437665Y-95550963D01*
X61437665Y-95550963D02*
X61439555Y-95553101D01*
X61439555Y-95553101D02*
X61441387Y-95555296D01*
X61441387Y-95555296D02*
X61443163Y-95557545D01*
X61443163Y-95557545D02*
X61444884Y-95559847D01*
X61444884Y-95559847D02*
X61446554Y-95562199D01*
X61446554Y-95562199D02*
X61448173Y-95564600D01*
X61448173Y-95564600D02*
X61449745Y-95567047D01*
X61449745Y-95567047D02*
X61451271Y-95569539D01*
X61451271Y-95569539D02*
X61452753Y-95572072D01*
X61452753Y-95572072D02*
X61454194Y-95574646D01*
X61454194Y-95574646D02*
X61455596Y-95577259D01*
X61455596Y-95577259D02*
X61456960Y-95579907D01*
X61456960Y-95579907D02*
X61459584Y-95585305D01*
X61459584Y-95585305D02*
X61460816Y-95588288D01*
X61460816Y-95588288D02*
X61461955Y-95591271D01*
X61461955Y-95591271D02*
X61463002Y-95594254D01*
X61463002Y-95594254D02*
X61463959Y-95597237D01*
X61463959Y-95597237D02*
X61464828Y-95600220D01*
X61464828Y-95600220D02*
X61465611Y-95603203D01*
X61465611Y-95603203D02*
X61466311Y-95606186D01*
X61466311Y-95606186D02*
X61466928Y-95609170D01*
X61466928Y-95609170D02*
X61467466Y-95612154D01*
X61467466Y-95612154D02*
X61467925Y-95615139D01*
X61467925Y-95615139D02*
X61468309Y-95618125D01*
X61468309Y-95618125D02*
X61468618Y-95621111D01*
X61468618Y-95621111D02*
X61468855Y-95624099D01*
X61468855Y-95624099D02*
X61469022Y-95627087D01*
X61469022Y-95627087D02*
X61469121Y-95630076D01*
X61469121Y-95630076D02*
X61469154Y-95633067D01*
X61469154Y-95633067D02*
X61469121Y-95636277D01*
X61469121Y-95636277D02*
X61469022Y-95639457D01*
X61469022Y-95639457D02*
X61468855Y-95642607D01*
X61468855Y-95642607D02*
X61468618Y-95645728D01*
X61468618Y-95645728D02*
X61468309Y-95648818D01*
X61468309Y-95648818D02*
X61467925Y-95651878D01*
X61467925Y-95651878D02*
X61467466Y-95654908D01*
X61467466Y-95654908D02*
X61466928Y-95657907D01*
X61466928Y-95657907D02*
X61466311Y-95660876D01*
X61466311Y-95660876D02*
X61465611Y-95663814D01*
X61465611Y-95663814D02*
X61464828Y-95666720D01*
X61464828Y-95666720D02*
X61463959Y-95669596D01*
X61463959Y-95669596D02*
X61463002Y-95672440D01*
X61463002Y-95672440D02*
X61461955Y-95675252D01*
X61461955Y-95675252D02*
X61460816Y-95678033D01*
X61460816Y-95678033D02*
X61459584Y-95680782D01*
X61459584Y-95680782D02*
X61458288Y-95683717D01*
X61458288Y-95683717D02*
X61456960Y-95686565D01*
X61456960Y-95686565D02*
X61455596Y-95689332D01*
X61455596Y-95689332D02*
X61454194Y-95692024D01*
X61454194Y-95692024D02*
X61452753Y-95694646D01*
X61452753Y-95694646D02*
X61451271Y-95697205D01*
X61451271Y-95697205D02*
X61449745Y-95699705D01*
X61449745Y-95699705D02*
X61448173Y-95702154D01*
X61448173Y-95702154D02*
X61446554Y-95704556D01*
X61446554Y-95704556D02*
X61444884Y-95706917D01*
X61444884Y-95706917D02*
X61443163Y-95709244D01*
X61443163Y-95709244D02*
X61441387Y-95711542D01*
X61441387Y-95711542D02*
X61439555Y-95713816D01*
X61439555Y-95713816D02*
X61437665Y-95716073D01*
X61437665Y-95716073D02*
X61433701Y-95720558D01*
X61433701Y-95720558D02*
X61429033Y-95724465D01*
X61429033Y-95724465D02*
X61426650Y-95726361D01*
X61426650Y-95726361D02*
X61424236Y-95728216D01*
X61424236Y-95728216D02*
X61421790Y-95730023D01*
X61421790Y-95730023D02*
X61419312Y-95731780D01*
X61419312Y-95731780D02*
X61416802Y-95733483D01*
X61416802Y-95733483D02*
X61414260Y-95735128D01*
X61414260Y-95735128D02*
X61411687Y-95736711D01*
X61411687Y-95736711D02*
X61409083Y-95738228D01*
X61409083Y-95738228D02*
X61406446Y-95739675D01*
X61406446Y-95739675D02*
X61403779Y-95741048D01*
X61403779Y-95741048D02*
X61401080Y-95742344D01*
X61401080Y-95742344D02*
X61398350Y-95743558D01*
X61398350Y-95743558D02*
X61395589Y-95744688D01*
X61395589Y-95744688D02*
X61392796Y-95745728D01*
X61392796Y-95745728D02*
X61389970Y-95746926D01*
X61389970Y-95746926D02*
X61387110Y-95748032D01*
X61387110Y-95748032D02*
X61384218Y-95749048D01*
X61384218Y-95749048D02*
X61381293Y-95749976D01*
X61381293Y-95749976D02*
X61378337Y-95750817D01*
X61378337Y-95750817D02*
X61375348Y-95751575D01*
X61375348Y-95751575D02*
X61372327Y-95752251D01*
X61372327Y-95752251D02*
X61369274Y-95752848D01*
X61369274Y-95752848D02*
X61366190Y-95753366D01*
X61366190Y-95753366D02*
X61363074Y-95753809D01*
X61363074Y-95753809D02*
X61359927Y-95754178D01*
X61359927Y-95754178D02*
X61356749Y-95754475D01*
X61356749Y-95754475D02*
X61353540Y-95754702D01*
X61353540Y-95754702D02*
X61350300Y-95754863D01*
X61350300Y-95754863D02*
X61347029Y-95754957D01*
X61347029Y-95754957D02*
X61343729Y-95754988D01*
X61343729Y-95754988D02*
X61337144Y-95754863D01*
X61337144Y-95754863D02*
X61333900Y-95754702D01*
X61333900Y-95754702D02*
X61330688Y-95754475D01*
X61330688Y-95754475D02*
X61327508Y-95754178D01*
X61327508Y-95754178D02*
X61324361Y-95753809D01*
X61324361Y-95753809D02*
X61321245Y-95753366D01*
X61321245Y-95753366D02*
X61318161Y-95752848D01*
X61318161Y-95752848D02*
X61315109Y-95752251D01*
X61315109Y-95752251D02*
X61312088Y-95751575D01*
X61312088Y-95751575D02*
X61309100Y-95750817D01*
X61309100Y-95750817D02*
X61306142Y-95749976D01*
X61306142Y-95749976D02*
X61303216Y-95749048D01*
X61303216Y-95749048D02*
X61300321Y-95748032D01*
X61300321Y-95748032D02*
X61297458Y-95746926D01*
X61297458Y-95746926D02*
X61294626Y-95745728D01*
X61294626Y-95745728D02*
X61291831Y-95744688D01*
X61291831Y-95744688D02*
X61289071Y-95743558D01*
X61289071Y-95743558D02*
X61286345Y-95742344D01*
X61286345Y-95742344D02*
X61283658Y-95741048D01*
X61283658Y-95741048D02*
X61281010Y-95739675D01*
X61281010Y-95739675D02*
X61278403Y-95738228D01*
X61278403Y-95738228D02*
X61275841Y-95736711D01*
X61275841Y-95736711D02*
X61273324Y-95735128D01*
X61273324Y-95735128D02*
X61270855Y-95733483D01*
X61270855Y-95733483D02*
X61268437Y-95731780D01*
X61268437Y-95731780D02*
X61266070Y-95730023D01*
X61266070Y-95730023D02*
X61263758Y-95728216D01*
X61263758Y-95728216D02*
X61261502Y-95726361D01*
X61261502Y-95726361D02*
X61259304Y-95724465D01*
X61259304Y-95724465D02*
X61257167Y-95722529D01*
X61257167Y-95722529D02*
X61255092Y-95720558D01*
X61255092Y-95720558D02*
X61252838Y-95718319D01*
X61252838Y-95718319D02*
X61250675Y-95716073D01*
X61250675Y-95716073D02*
X61248601Y-95713816D01*
X61248601Y-95713816D02*
X61246612Y-95711542D01*
X61246612Y-95711542D02*
X61244702Y-95709245D01*
X61244702Y-95709245D02*
X61242869Y-95706918D01*
X61242869Y-95706918D02*
X61241108Y-95704557D01*
X61241108Y-95704557D02*
X61239414Y-95702155D01*
X61239414Y-95702155D02*
X61237785Y-95699706D01*
X61237785Y-95699706D02*
X61236215Y-95697206D01*
X61236215Y-95697206D02*
X61234701Y-95694647D01*
X61234701Y-95694647D02*
X61233239Y-95692025D01*
X61233239Y-95692025D02*
X61231825Y-95689333D01*
X61231825Y-95689333D02*
X61230454Y-95686566D01*
X61230454Y-95686566D02*
X61229122Y-95683717D01*
X61229122Y-95683717D02*
X61227826Y-95680782D01*
X61227826Y-95680782D02*
X61226594Y-95678033D01*
X61226594Y-95678033D02*
X61225457Y-95675252D01*
X61225457Y-95675252D02*
X61224413Y-95672440D01*
X61224413Y-95672440D02*
X61223459Y-95669596D01*
X61223459Y-95669596D02*
X61222593Y-95666720D01*
X61222593Y-95666720D02*
X61221814Y-95663814D01*
X61221814Y-95663814D02*
X61221118Y-95660876D01*
X61221118Y-95660876D02*
X61220505Y-95657907D01*
X61220505Y-95657907D02*
X61219972Y-95654908D01*
X61219972Y-95654908D02*
X61219517Y-95651878D01*
X61219517Y-95651878D02*
X61219137Y-95648818D01*
X61219137Y-95648818D02*
X61218832Y-95645728D01*
X61218832Y-95645728D02*
X61218597Y-95642607D01*
X61218597Y-95642607D02*
X61218433Y-95639457D01*
X61218433Y-95639457D02*
X61218335Y-95636277D01*
X61218335Y-95636277D02*
X61218304Y-95633067D01*
X61218304Y-95633067D02*
X61218304Y-95633067D01*
G36*
X61347029Y-95511145D02*
G01*
X61350300Y-95511279D01*
X61353540Y-95511499D01*
X61356749Y-95511800D01*
X61359927Y-95512178D01*
X61363074Y-95512630D01*
X61366190Y-95513152D01*
X61369274Y-95513740D01*
X61375348Y-95515098D01*
X61381293Y-95516675D01*
X61387110Y-95518439D01*
X61392796Y-95520360D01*
X61398350Y-95522914D01*
X61403779Y-95525622D01*
X61406446Y-95527043D01*
X61409083Y-95528514D01*
X61411687Y-95530039D01*
X61414260Y-95531623D01*
X61416802Y-95533268D01*
X61419312Y-95534980D01*
X61421790Y-95536762D01*
X61424236Y-95538618D01*
X61426650Y-95540552D01*
X61429033Y-95542569D01*
X61431383Y-95544671D01*
X61433701Y-95546864D01*
X61435715Y-95548883D01*
X61437665Y-95550963D01*
X61439555Y-95553101D01*
X61441387Y-95555296D01*
X61443163Y-95557545D01*
X61444884Y-95559847D01*
X61446554Y-95562199D01*
X61448173Y-95564600D01*
X61449745Y-95567047D01*
X61451271Y-95569539D01*
X61452753Y-95572072D01*
X61454194Y-95574646D01*
X61455596Y-95577259D01*
X61456960Y-95579907D01*
X61459584Y-95585305D01*
X61460816Y-95588288D01*
X61461955Y-95591271D01*
X61463002Y-95594254D01*
X61463959Y-95597237D01*
X61464828Y-95600220D01*
X61465611Y-95603203D01*
X61466311Y-95606186D01*
X61466928Y-95609170D01*
X61467466Y-95612154D01*
X61467925Y-95615139D01*
X61468309Y-95618125D01*
X61468618Y-95621111D01*
X61468855Y-95624099D01*
X61469022Y-95627087D01*
X61469121Y-95630076D01*
X61469154Y-95633067D01*
X61469121Y-95636277D01*
X61469022Y-95639457D01*
X61468855Y-95642607D01*
X61468618Y-95645728D01*
X61468309Y-95648818D01*
X61467925Y-95651878D01*
X61467466Y-95654908D01*
X61466928Y-95657907D01*
X61466311Y-95660876D01*
X61465611Y-95663814D01*
X61464828Y-95666720D01*
X61463959Y-95669596D01*
X61463002Y-95672440D01*
X61461955Y-95675252D01*
X61460816Y-95678033D01*
X61459584Y-95680782D01*
X61458288Y-95683717D01*
X61456960Y-95686565D01*
X61455596Y-95689332D01*
X61454194Y-95692024D01*
X61452753Y-95694646D01*
X61451271Y-95697205D01*
X61449745Y-95699705D01*
X61448173Y-95702154D01*
X61446554Y-95704556D01*
X61444884Y-95706917D01*
X61443163Y-95709244D01*
X61441387Y-95711542D01*
X61439555Y-95713816D01*
X61437665Y-95716073D01*
X61433701Y-95720558D01*
X61429033Y-95724465D01*
X61426650Y-95726361D01*
X61424236Y-95728216D01*
X61421790Y-95730023D01*
X61419312Y-95731780D01*
X61416802Y-95733483D01*
X61414260Y-95735128D01*
X61411687Y-95736711D01*
X61409083Y-95738228D01*
X61406446Y-95739675D01*
X61403779Y-95741048D01*
X61401080Y-95742344D01*
X61398350Y-95743558D01*
X61395589Y-95744688D01*
X61392796Y-95745728D01*
X61389970Y-95746926D01*
X61387110Y-95748032D01*
X61384218Y-95749048D01*
X61381293Y-95749976D01*
X61378337Y-95750817D01*
X61375348Y-95751575D01*
X61372327Y-95752251D01*
X61369274Y-95752848D01*
X61366190Y-95753366D01*
X61363074Y-95753809D01*
X61359927Y-95754178D01*
X61356749Y-95754475D01*
X61353540Y-95754702D01*
X61350300Y-95754863D01*
X61347029Y-95754957D01*
X61343729Y-95754988D01*
X61337144Y-95754863D01*
X61333900Y-95754702D01*
X61330688Y-95754475D01*
X61327508Y-95754178D01*
X61324361Y-95753809D01*
X61321245Y-95753366D01*
X61318161Y-95752848D01*
X61315109Y-95752251D01*
X61312088Y-95751575D01*
X61309100Y-95750817D01*
X61306142Y-95749976D01*
X61303216Y-95749048D01*
X61300321Y-95748032D01*
X61297458Y-95746926D01*
X61294626Y-95745728D01*
X61291831Y-95744688D01*
X61289071Y-95743558D01*
X61286345Y-95742344D01*
X61283658Y-95741048D01*
X61281010Y-95739675D01*
X61278403Y-95738228D01*
X61275841Y-95736711D01*
X61273324Y-95735128D01*
X61270855Y-95733483D01*
X61268437Y-95731780D01*
X61266070Y-95730023D01*
X61263758Y-95728216D01*
X61261502Y-95726361D01*
X61259304Y-95724465D01*
X61257167Y-95722529D01*
X61255092Y-95720558D01*
X61252838Y-95718319D01*
X61250675Y-95716073D01*
X61248601Y-95713816D01*
X61246612Y-95711542D01*
X61244702Y-95709245D01*
X61242869Y-95706918D01*
X61241108Y-95704557D01*
X61239414Y-95702155D01*
X61237785Y-95699706D01*
X61236215Y-95697206D01*
X61234701Y-95694647D01*
X61233239Y-95692025D01*
X61231825Y-95689333D01*
X61230454Y-95686566D01*
X61229122Y-95683717D01*
X61227826Y-95680782D01*
X61226594Y-95678033D01*
X61225457Y-95675252D01*
X61224413Y-95672440D01*
X61223459Y-95669596D01*
X61222593Y-95666720D01*
X61221814Y-95663814D01*
X61221118Y-95660876D01*
X61220505Y-95657907D01*
X61219972Y-95654908D01*
X61219517Y-95651878D01*
X61219137Y-95648818D01*
X61218832Y-95645728D01*
X61218597Y-95642607D01*
X61218433Y-95639457D01*
X61218335Y-95636277D01*
X61218304Y-95633067D01*
X61218335Y-95630076D01*
X61218433Y-95627087D01*
X61218597Y-95624099D01*
X61218832Y-95621111D01*
X61219137Y-95618125D01*
X61219517Y-95615139D01*
X61219972Y-95612154D01*
X61220505Y-95609170D01*
X61221118Y-95606186D01*
X61221814Y-95603203D01*
X61222593Y-95600220D01*
X61223459Y-95597237D01*
X61224413Y-95594254D01*
X61225457Y-95591271D01*
X61226594Y-95588288D01*
X61227826Y-95585305D01*
X61230454Y-95579908D01*
X61233239Y-95574648D01*
X61234701Y-95572074D01*
X61236215Y-95569540D01*
X61237785Y-95567049D01*
X61239414Y-95564602D01*
X61241108Y-95562201D01*
X61242869Y-95559849D01*
X61244702Y-95557547D01*
X61246612Y-95555297D01*
X61248601Y-95553102D01*
X61250675Y-95550964D01*
X61252838Y-95548883D01*
X61255092Y-95546864D01*
X61257167Y-95544671D01*
X61259304Y-95542569D01*
X61261502Y-95540552D01*
X61263758Y-95538618D01*
X61266070Y-95536762D01*
X61268437Y-95534980D01*
X61270856Y-95533268D01*
X61273324Y-95531623D01*
X61275841Y-95530039D01*
X61278403Y-95528514D01*
X61281010Y-95527043D01*
X61283658Y-95525622D01*
X61286345Y-95524247D01*
X61289071Y-95522914D01*
X61294626Y-95520360D01*
X61300321Y-95518439D01*
X61306142Y-95516675D01*
X61312088Y-95515098D01*
X61315109Y-95514390D01*
X61318161Y-95513740D01*
X61321245Y-95513152D01*
X61324361Y-95512630D01*
X61327508Y-95512178D01*
X61330688Y-95511800D01*
X61333900Y-95511499D01*
X61337144Y-95511279D01*
X61340420Y-95511145D01*
X61343729Y-95511099D01*
X61347029Y-95511145D01*
G37*
X61347029Y-95511145D02*
X61350300Y-95511279D01*
X61353540Y-95511499D01*
X61356749Y-95511800D01*
X61359927Y-95512178D01*
X61363074Y-95512630D01*
X61366190Y-95513152D01*
X61369274Y-95513740D01*
X61375348Y-95515098D01*
X61381293Y-95516675D01*
X61387110Y-95518439D01*
X61392796Y-95520360D01*
X61398350Y-95522914D01*
X61403779Y-95525622D01*
X61406446Y-95527043D01*
X61409083Y-95528514D01*
X61411687Y-95530039D01*
X61414260Y-95531623D01*
X61416802Y-95533268D01*
X61419312Y-95534980D01*
X61421790Y-95536762D01*
X61424236Y-95538618D01*
X61426650Y-95540552D01*
X61429033Y-95542569D01*
X61431383Y-95544671D01*
X61433701Y-95546864D01*
X61435715Y-95548883D01*
X61437665Y-95550963D01*
X61439555Y-95553101D01*
X61441387Y-95555296D01*
X61443163Y-95557545D01*
X61444884Y-95559847D01*
X61446554Y-95562199D01*
X61448173Y-95564600D01*
X61449745Y-95567047D01*
X61451271Y-95569539D01*
X61452753Y-95572072D01*
X61454194Y-95574646D01*
X61455596Y-95577259D01*
X61456960Y-95579907D01*
X61459584Y-95585305D01*
X61460816Y-95588288D01*
X61461955Y-95591271D01*
X61463002Y-95594254D01*
X61463959Y-95597237D01*
X61464828Y-95600220D01*
X61465611Y-95603203D01*
X61466311Y-95606186D01*
X61466928Y-95609170D01*
X61467466Y-95612154D01*
X61467925Y-95615139D01*
X61468309Y-95618125D01*
X61468618Y-95621111D01*
X61468855Y-95624099D01*
X61469022Y-95627087D01*
X61469121Y-95630076D01*
X61469154Y-95633067D01*
X61469121Y-95636277D01*
X61469022Y-95639457D01*
X61468855Y-95642607D01*
X61468618Y-95645728D01*
X61468309Y-95648818D01*
X61467925Y-95651878D01*
X61467466Y-95654908D01*
X61466928Y-95657907D01*
X61466311Y-95660876D01*
X61465611Y-95663814D01*
X61464828Y-95666720D01*
X61463959Y-95669596D01*
X61463002Y-95672440D01*
X61461955Y-95675252D01*
X61460816Y-95678033D01*
X61459584Y-95680782D01*
X61458288Y-95683717D01*
X61456960Y-95686565D01*
X61455596Y-95689332D01*
X61454194Y-95692024D01*
X61452753Y-95694646D01*
X61451271Y-95697205D01*
X61449745Y-95699705D01*
X61448173Y-95702154D01*
X61446554Y-95704556D01*
X61444884Y-95706917D01*
X61443163Y-95709244D01*
X61441387Y-95711542D01*
X61439555Y-95713816D01*
X61437665Y-95716073D01*
X61433701Y-95720558D01*
X61429033Y-95724465D01*
X61426650Y-95726361D01*
X61424236Y-95728216D01*
X61421790Y-95730023D01*
X61419312Y-95731780D01*
X61416802Y-95733483D01*
X61414260Y-95735128D01*
X61411687Y-95736711D01*
X61409083Y-95738228D01*
X61406446Y-95739675D01*
X61403779Y-95741048D01*
X61401080Y-95742344D01*
X61398350Y-95743558D01*
X61395589Y-95744688D01*
X61392796Y-95745728D01*
X61389970Y-95746926D01*
X61387110Y-95748032D01*
X61384218Y-95749048D01*
X61381293Y-95749976D01*
X61378337Y-95750817D01*
X61375348Y-95751575D01*
X61372327Y-95752251D01*
X61369274Y-95752848D01*
X61366190Y-95753366D01*
X61363074Y-95753809D01*
X61359927Y-95754178D01*
X61356749Y-95754475D01*
X61353540Y-95754702D01*
X61350300Y-95754863D01*
X61347029Y-95754957D01*
X61343729Y-95754988D01*
X61337144Y-95754863D01*
X61333900Y-95754702D01*
X61330688Y-95754475D01*
X61327508Y-95754178D01*
X61324361Y-95753809D01*
X61321245Y-95753366D01*
X61318161Y-95752848D01*
X61315109Y-95752251D01*
X61312088Y-95751575D01*
X61309100Y-95750817D01*
X61306142Y-95749976D01*
X61303216Y-95749048D01*
X61300321Y-95748032D01*
X61297458Y-95746926D01*
X61294626Y-95745728D01*
X61291831Y-95744688D01*
X61289071Y-95743558D01*
X61286345Y-95742344D01*
X61283658Y-95741048D01*
X61281010Y-95739675D01*
X61278403Y-95738228D01*
X61275841Y-95736711D01*
X61273324Y-95735128D01*
X61270855Y-95733483D01*
X61268437Y-95731780D01*
X61266070Y-95730023D01*
X61263758Y-95728216D01*
X61261502Y-95726361D01*
X61259304Y-95724465D01*
X61257167Y-95722529D01*
X61255092Y-95720558D01*
X61252838Y-95718319D01*
X61250675Y-95716073D01*
X61248601Y-95713816D01*
X61246612Y-95711542D01*
X61244702Y-95709245D01*
X61242869Y-95706918D01*
X61241108Y-95704557D01*
X61239414Y-95702155D01*
X61237785Y-95699706D01*
X61236215Y-95697206D01*
X61234701Y-95694647D01*
X61233239Y-95692025D01*
X61231825Y-95689333D01*
X61230454Y-95686566D01*
X61229122Y-95683717D01*
X61227826Y-95680782D01*
X61226594Y-95678033D01*
X61225457Y-95675252D01*
X61224413Y-95672440D01*
X61223459Y-95669596D01*
X61222593Y-95666720D01*
X61221814Y-95663814D01*
X61221118Y-95660876D01*
X61220505Y-95657907D01*
X61219972Y-95654908D01*
X61219517Y-95651878D01*
X61219137Y-95648818D01*
X61218832Y-95645728D01*
X61218597Y-95642607D01*
X61218433Y-95639457D01*
X61218335Y-95636277D01*
X61218304Y-95633067D01*
X61218335Y-95630076D01*
X61218433Y-95627087D01*
X61218597Y-95624099D01*
X61218832Y-95621111D01*
X61219137Y-95618125D01*
X61219517Y-95615139D01*
X61219972Y-95612154D01*
X61220505Y-95609170D01*
X61221118Y-95606186D01*
X61221814Y-95603203D01*
X61222593Y-95600220D01*
X61223459Y-95597237D01*
X61224413Y-95594254D01*
X61225457Y-95591271D01*
X61226594Y-95588288D01*
X61227826Y-95585305D01*
X61230454Y-95579908D01*
X61233239Y-95574648D01*
X61234701Y-95572074D01*
X61236215Y-95569540D01*
X61237785Y-95567049D01*
X61239414Y-95564602D01*
X61241108Y-95562201D01*
X61242869Y-95559849D01*
X61244702Y-95557547D01*
X61246612Y-95555297D01*
X61248601Y-95553102D01*
X61250675Y-95550964D01*
X61252838Y-95548883D01*
X61255092Y-95546864D01*
X61257167Y-95544671D01*
X61259304Y-95542569D01*
X61261502Y-95540552D01*
X61263758Y-95538618D01*
X61266070Y-95536762D01*
X61268437Y-95534980D01*
X61270856Y-95533268D01*
X61273324Y-95531623D01*
X61275841Y-95530039D01*
X61278403Y-95528514D01*
X61281010Y-95527043D01*
X61283658Y-95525622D01*
X61286345Y-95524247D01*
X61289071Y-95522914D01*
X61294626Y-95520360D01*
X61300321Y-95518439D01*
X61306142Y-95516675D01*
X61312088Y-95515098D01*
X61315109Y-95514390D01*
X61318161Y-95513740D01*
X61321245Y-95513152D01*
X61324361Y-95512630D01*
X61327508Y-95512178D01*
X61330688Y-95511800D01*
X61333900Y-95511499D01*
X61337144Y-95511279D01*
X61340420Y-95511145D01*
X61343729Y-95511099D01*
X61347029Y-95511145D01*
D12*
X64140679Y-95648257D02*
X64090077Y-95647012D01*
X64386450Y-95618150D02*
X64338872Y-95628828D01*
D11*
X65049748Y-93826281D02*
X65138509Y-93796179D01*
D12*
X64290445Y-95637238D02*
X64241229Y-95643320D01*
X63216993Y-94363197D02*
X63234601Y-94319771D01*
X61226592Y-95673724D02*
X61175557Y-95677502D01*
X64729060Y-93925715D02*
X64766208Y-93954102D01*
X63942504Y-95628828D02*
X63894929Y-95618150D01*
D11*
X64964228Y-93858335D02*
X65049748Y-93826281D01*
D12*
X63276011Y-95147802D02*
X63254294Y-95106570D01*
X63325268Y-94157338D02*
X63352685Y-94119848D01*
X62122916Y-94799763D02*
X62116535Y-94848798D01*
X60782313Y-95618039D02*
X60829128Y-95633016D01*
D11*
X65838684Y-93645800D02*
X65948272Y-93633748D01*
D12*
X63802575Y-95590230D02*
X63757920Y-95573107D01*
D11*
X64363786Y-94223499D02*
X64413758Y-94176921D01*
D12*
X63352685Y-95264137D02*
X63325268Y-95226646D01*
D11*
X63315917Y-95560068D02*
X63230269Y-95593442D01*
D12*
X60350000Y-95325000D02*
X60381877Y-95360246D01*
D11*
X65138509Y-93796179D02*
X65230369Y-93768097D01*
D12*
X60115102Y-94703984D02*
X60116872Y-94754398D01*
X60606096Y-95537276D02*
X60648367Y-95560473D01*
D11*
X64140679Y-94691998D02*
X64137732Y-94749923D01*
D12*
X61076601Y-95673583D02*
X61128331Y-95674407D01*
X60116872Y-94754398D02*
X60121204Y-94804123D01*
X63848266Y-95605264D02*
X63802575Y-95590230D01*
X63412786Y-95334960D02*
X63381878Y-95300262D01*
D11*
X64318473Y-94271353D02*
X64363786Y-94223499D01*
D12*
X61025531Y-95670248D02*
X61076601Y-95673583D01*
D11*
X65230369Y-93768097D02*
X65325187Y-93742102D01*
D12*
X60565119Y-95512175D02*
X60606096Y-95537276D01*
X64140680Y-93735750D02*
X64140680Y-93735750D01*
X60217958Y-95127814D02*
X60240509Y-95169843D01*
X64956114Y-95226646D02*
X64928699Y-95264137D01*
X62107711Y-94897044D02*
X62096507Y-94944440D01*
D11*
X64413758Y-94176921D02*
X64468246Y-94131686D01*
D12*
X65104073Y-94884714D02*
X65093093Y-94930978D01*
X63168652Y-94546364D02*
X63177300Y-94499272D01*
D11*
X64277960Y-94320416D02*
X64318473Y-94271353D01*
D12*
X63714361Y-93830042D02*
X63757920Y-93810893D01*
X65124050Y-94691998D02*
X65124050Y-94691998D01*
X65005369Y-95147802D02*
X64981692Y-95187847D01*
D11*
X65625971Y-93677315D02*
X65731203Y-93660345D01*
D12*
X63162398Y-94789768D02*
X63158600Y-94741206D01*
X65104073Y-94499272D02*
X65112720Y-94546364D01*
X65079843Y-94407629D02*
X65093093Y-94453007D01*
X63201532Y-94407629D02*
X63216993Y-94363197D01*
X64523466Y-93810893D02*
X64567026Y-93830042D01*
X64609427Y-93851159D02*
X64650608Y-93874183D01*
X64766208Y-95429890D02*
X64729060Y-95458278D01*
X61762826Y-95455318D02*
X61724894Y-95484375D01*
X65046777Y-94319771D02*
X65064383Y-94363197D01*
X64523465Y-95573107D02*
X64478808Y-95590230D01*
D11*
X66288263Y-93613226D02*
X66404864Y-93611821D01*
X62856632Y-95705910D02*
X62756170Y-95728418D01*
D12*
X63276011Y-94236181D02*
X63299689Y-94196136D01*
X63590882Y-95484939D02*
X63552328Y-95458278D01*
X64981692Y-94196136D02*
X65005369Y-94236181D01*
D11*
X63753685Y-95321081D02*
X63690495Y-95365173D01*
D12*
X64899506Y-95300262D02*
X64868599Y-95334960D01*
D11*
X63812635Y-95275450D02*
X63753685Y-95321081D01*
D12*
X65122771Y-94642787D02*
X65124050Y-94691998D01*
X61834124Y-95392142D02*
X61799256Y-95424554D01*
D11*
X64137732Y-94749923D02*
X64128983Y-94807083D01*
D12*
X61928717Y-95285638D02*
X61898917Y-95322623D01*
X64650608Y-93874183D02*
X64690506Y-93899055D01*
X64241229Y-95643320D02*
X64191286Y-95647012D01*
D11*
X64003199Y-95078932D02*
X63962627Y-95130020D01*
X63962627Y-95130020D02*
X63917248Y-95179849D01*
D12*
X64956115Y-94157338D02*
X64981692Y-94196136D01*
X65005369Y-94236181D02*
X65027085Y-94277413D01*
X63515180Y-95429890D02*
X63479499Y-95399834D01*
X63299689Y-95187847D02*
X63276011Y-95147802D01*
D11*
X64242389Y-94370618D02*
X64277960Y-94320416D01*
D12*
X60736538Y-95600916D02*
X60782313Y-95618039D01*
X64690506Y-95484939D02*
X64650607Y-95509813D01*
X63552328Y-95458278D02*
X63515180Y-95429890D01*
X63381878Y-94083724D02*
X63412786Y-94049028D01*
X63942504Y-93755177D02*
X63990928Y-93746768D01*
D11*
X64069354Y-94973264D02*
X64038822Y-95026657D01*
D12*
X64090077Y-95647012D02*
X64040140Y-95643320D01*
X63590883Y-93899055D02*
X63630781Y-93874183D01*
D10*
X69492433Y-95311654D02*
X69492138Y-95300258D01*
X69492138Y-95300258D02*
X69491262Y-95289013D01*
X69491262Y-95289013D02*
X69489819Y-95277934D01*
X69489819Y-95277934D02*
X69487823Y-95267035D01*
X69487823Y-95267035D02*
X69485289Y-95256328D01*
X69485289Y-95256328D02*
X69482231Y-95245829D01*
X69482231Y-95245829D02*
X69478663Y-95235550D01*
X69478663Y-95235550D02*
X69474599Y-95225505D01*
X69474599Y-95225505D02*
X69470053Y-95215709D01*
X69470053Y-95215709D02*
X69465040Y-95206175D01*
X69465040Y-95206175D02*
X69459573Y-95196917D01*
X69459573Y-95196917D02*
X69453667Y-95187948D01*
X69453667Y-95187948D02*
X69447336Y-95179282D01*
X69447336Y-95179282D02*
X69440594Y-95170934D01*
X69440594Y-95170934D02*
X69433455Y-95162916D01*
X69433455Y-95162916D02*
X69425934Y-95155243D01*
X69425934Y-95155243D02*
X69418044Y-95147928D01*
X69418044Y-95147928D02*
X69409800Y-95140985D01*
X69409800Y-95140985D02*
X69401216Y-95134429D01*
X69401216Y-95134429D02*
X69392306Y-95128272D01*
X69392306Y-95128272D02*
X69383084Y-95122528D01*
X69383084Y-95122528D02*
X69373565Y-95117212D01*
X69373565Y-95117212D02*
X69363762Y-95112336D01*
X69363762Y-95112336D02*
X69353690Y-95107916D01*
X69353690Y-95107916D02*
X69343362Y-95103964D01*
X69343362Y-95103964D02*
X69332794Y-95100494D01*
X69332794Y-95100494D02*
X69322000Y-95097520D01*
X69322000Y-95097520D02*
X69310992Y-95095056D01*
X69310992Y-95095056D02*
X69299786Y-95093115D01*
X69299786Y-95093115D02*
X69288396Y-95091712D01*
X69288396Y-95091712D02*
X69276836Y-95090860D01*
X69276836Y-95090860D02*
X69265120Y-95090573D01*
X69265120Y-95090573D02*
X69253509Y-95090860D01*
X69253509Y-95090860D02*
X69242040Y-95091712D01*
X69242040Y-95091712D02*
X69230728Y-95093115D01*
X69230728Y-95093115D02*
X69219588Y-95095056D01*
X69219588Y-95095056D02*
X69208636Y-95097520D01*
X69208636Y-95097520D02*
X69197885Y-95100494D01*
X69197885Y-95100494D02*
X69187350Y-95103964D01*
X69187350Y-95103964D02*
X69177047Y-95107916D01*
X69177047Y-95107916D02*
X69166990Y-95112336D01*
X69166990Y-95112336D02*
X69157194Y-95117212D01*
X69157194Y-95117212D02*
X69147673Y-95122528D01*
X69147673Y-95122528D02*
X69138444Y-95128272D01*
X69138444Y-95128272D02*
X69129520Y-95134429D01*
X69129520Y-95134429D02*
X69120917Y-95140985D01*
X69120917Y-95140985D02*
X69112648Y-95147928D01*
X69112648Y-95147928D02*
X69104730Y-95155243D01*
X69104730Y-95155243D02*
X69097177Y-95162916D01*
X69097177Y-95162916D02*
X69090004Y-95170934D01*
X69090004Y-95170934D02*
X69083225Y-95179282D01*
X69083225Y-95179282D02*
X69076855Y-95187948D01*
X69076855Y-95187948D02*
X69070910Y-95196917D01*
X69070910Y-95196917D02*
X69065404Y-95206175D01*
X69065404Y-95206175D02*
X69060352Y-95215709D01*
X69060352Y-95215709D02*
X69055769Y-95225505D01*
X69055769Y-95225505D02*
X69051669Y-95235550D01*
X69051669Y-95235550D02*
X69048068Y-95245829D01*
X69048068Y-95245829D02*
X69044980Y-95256328D01*
X69044980Y-95256328D02*
X69042420Y-95267035D01*
X69042420Y-95267035D02*
X69040403Y-95277934D01*
X69040403Y-95277934D02*
X69038945Y-95289013D01*
X69038945Y-95289013D02*
X69038058Y-95300258D01*
X69038058Y-95300258D02*
X69037760Y-95311654D01*
X69037760Y-95311654D02*
X69038058Y-95323047D01*
X69038058Y-95323047D02*
X69038945Y-95334289D01*
X69038945Y-95334289D02*
X69040403Y-95345365D01*
X69040403Y-95345365D02*
X69042420Y-95356262D01*
X69042420Y-95356262D02*
X69044980Y-95366966D01*
X69044980Y-95366966D02*
X69048068Y-95377463D01*
X69048068Y-95377463D02*
X69051669Y-95387740D01*
X69051669Y-95387740D02*
X69055769Y-95397782D01*
X69055769Y-95397782D02*
X69060352Y-95407577D01*
X69060352Y-95407577D02*
X69065404Y-95417109D01*
X69065404Y-95417109D02*
X69070910Y-95426366D01*
X69070910Y-95426366D02*
X69076855Y-95435334D01*
X69076855Y-95435334D02*
X69083225Y-95443998D01*
X69083225Y-95443998D02*
X69090004Y-95452346D01*
X69090004Y-95452346D02*
X69097177Y-95460362D01*
X69097177Y-95460362D02*
X69104730Y-95468035D01*
X69104730Y-95468035D02*
X69112648Y-95475349D01*
X69112648Y-95475349D02*
X69120917Y-95482291D01*
X69120917Y-95482291D02*
X69129520Y-95488847D01*
X69129520Y-95488847D02*
X69138444Y-95495004D01*
X69138444Y-95495004D02*
X69147673Y-95500747D01*
X69147673Y-95500747D02*
X69157194Y-95506063D01*
X69157194Y-95506063D02*
X69166990Y-95510938D01*
X69166990Y-95510938D02*
X69177047Y-95515359D01*
X69177047Y-95515359D02*
X69187350Y-95519311D01*
X69187350Y-95519311D02*
X69197885Y-95522780D01*
X69197885Y-95522780D02*
X69208636Y-95525754D01*
X69208636Y-95525754D02*
X69219588Y-95528218D01*
X69219588Y-95528218D02*
X69230728Y-95530158D01*
X69230728Y-95530158D02*
X69242040Y-95531562D01*
X69242040Y-95531562D02*
X69253509Y-95532413D01*
X69253509Y-95532413D02*
X69265120Y-95532701D01*
X69265120Y-95532701D02*
X69276836Y-95532413D01*
X69276836Y-95532413D02*
X69288396Y-95531562D01*
X69288396Y-95531562D02*
X69299786Y-95530158D01*
X69299786Y-95530158D02*
X69310992Y-95528218D01*
X69310992Y-95528218D02*
X69322000Y-95525754D01*
X69322000Y-95525754D02*
X69332794Y-95522780D01*
X69332794Y-95522780D02*
X69343362Y-95519311D01*
X69343362Y-95519311D02*
X69353690Y-95515359D01*
X69353690Y-95515359D02*
X69363762Y-95510938D01*
X69363762Y-95510938D02*
X69373565Y-95506063D01*
X69373565Y-95506063D02*
X69383084Y-95500747D01*
X69383084Y-95500747D02*
X69392306Y-95495004D01*
X69392306Y-95495004D02*
X69401216Y-95488847D01*
X69401216Y-95488847D02*
X69409800Y-95482291D01*
X69409800Y-95482291D02*
X69418044Y-95475349D01*
X69418044Y-95475349D02*
X69425934Y-95468035D01*
X69425934Y-95468035D02*
X69433455Y-95460362D01*
X69433455Y-95460362D02*
X69440594Y-95452346D01*
X69440594Y-95452346D02*
X69447336Y-95443998D01*
X69447336Y-95443998D02*
X69453667Y-95435334D01*
X69453667Y-95435334D02*
X69459573Y-95426366D01*
X69459573Y-95426366D02*
X69465040Y-95417109D01*
X69465040Y-95417109D02*
X69470053Y-95407577D01*
X69470053Y-95407577D02*
X69474599Y-95397782D01*
X69474599Y-95397782D02*
X69478663Y-95387740D01*
X69478663Y-95387740D02*
X69482231Y-95377463D01*
X69482231Y-95377463D02*
X69485289Y-95366966D01*
X69485289Y-95366966D02*
X69487823Y-95356262D01*
X69487823Y-95356262D02*
X69489819Y-95345365D01*
X69489819Y-95345365D02*
X69491262Y-95334289D01*
X69491262Y-95334289D02*
X69492138Y-95323047D01*
X69492138Y-95323047D02*
X69492433Y-95311654D01*
X69492433Y-95311654D02*
X69492433Y-95311654D01*
G36*
X69276836Y-95090860D02*
G01*
X69288396Y-95091712D01*
X69299786Y-95093115D01*
X69310992Y-95095056D01*
X69322000Y-95097520D01*
X69332794Y-95100494D01*
X69343362Y-95103964D01*
X69353690Y-95107916D01*
X69363762Y-95112336D01*
X69373565Y-95117212D01*
X69383084Y-95122528D01*
X69392306Y-95128272D01*
X69401216Y-95134429D01*
X69409800Y-95140985D01*
X69418044Y-95147928D01*
X69425934Y-95155243D01*
X69433455Y-95162916D01*
X69440594Y-95170934D01*
X69447336Y-95179282D01*
X69453667Y-95187948D01*
X69459573Y-95196917D01*
X69465040Y-95206175D01*
X69470053Y-95215709D01*
X69474599Y-95225505D01*
X69478663Y-95235550D01*
X69482231Y-95245829D01*
X69485289Y-95256328D01*
X69487823Y-95267035D01*
X69489819Y-95277934D01*
X69491262Y-95289013D01*
X69492138Y-95300258D01*
X69492433Y-95311654D01*
X69492138Y-95323047D01*
X69491262Y-95334289D01*
X69489819Y-95345365D01*
X69487823Y-95356262D01*
X69485289Y-95366966D01*
X69482231Y-95377463D01*
X69478663Y-95387740D01*
X69474599Y-95397782D01*
X69470053Y-95407577D01*
X69465040Y-95417109D01*
X69459573Y-95426366D01*
X69453667Y-95435334D01*
X69447336Y-95443998D01*
X69440594Y-95452346D01*
X69433455Y-95460362D01*
X69425934Y-95468035D01*
X69418044Y-95475349D01*
X69409800Y-95482291D01*
X69401216Y-95488847D01*
X69392306Y-95495004D01*
X69383084Y-95500747D01*
X69373565Y-95506063D01*
X69363762Y-95510938D01*
X69353690Y-95515359D01*
X69343362Y-95519311D01*
X69332794Y-95522780D01*
X69322000Y-95525754D01*
X69310992Y-95528218D01*
X69299786Y-95530158D01*
X69288396Y-95531562D01*
X69276836Y-95532413D01*
X69265120Y-95532701D01*
X69253509Y-95532413D01*
X69242040Y-95531562D01*
X69230728Y-95530158D01*
X69219588Y-95528218D01*
X69208636Y-95525754D01*
X69197885Y-95522780D01*
X69187350Y-95519311D01*
X69177047Y-95515359D01*
X69166990Y-95510938D01*
X69157194Y-95506063D01*
X69147673Y-95500747D01*
X69138444Y-95495004D01*
X69129520Y-95488847D01*
X69120917Y-95482291D01*
X69112648Y-95475349D01*
X69104730Y-95468035D01*
X69097177Y-95460362D01*
X69090004Y-95452346D01*
X69083225Y-95443998D01*
X69076855Y-95435334D01*
X69070910Y-95426366D01*
X69065404Y-95417109D01*
X69060352Y-95407577D01*
X69055769Y-95397782D01*
X69051669Y-95387740D01*
X69048068Y-95377463D01*
X69044980Y-95366966D01*
X69042420Y-95356262D01*
X69040403Y-95345365D01*
X69038945Y-95334289D01*
X69038058Y-95323047D01*
X69037760Y-95311654D01*
X69038058Y-95300258D01*
X69038945Y-95289013D01*
X69040403Y-95277934D01*
X69042420Y-95267035D01*
X69044980Y-95256328D01*
X69048068Y-95245829D01*
X69051669Y-95235550D01*
X69055769Y-95225505D01*
X69060352Y-95215709D01*
X69065404Y-95206175D01*
X69070910Y-95196917D01*
X69076855Y-95187948D01*
X69083225Y-95179282D01*
X69090004Y-95170934D01*
X69097177Y-95162916D01*
X69104730Y-95155243D01*
X69112648Y-95147928D01*
X69120917Y-95140985D01*
X69129520Y-95134429D01*
X69138444Y-95128272D01*
X69147673Y-95122528D01*
X69157194Y-95117212D01*
X69166990Y-95112336D01*
X69177047Y-95107916D01*
X69187350Y-95103964D01*
X69197885Y-95100494D01*
X69208636Y-95097520D01*
X69219588Y-95095056D01*
X69230728Y-95093115D01*
X69242040Y-95091712D01*
X69253509Y-95090860D01*
X69265120Y-95090573D01*
X69276836Y-95090860D01*
G37*
X69276836Y-95090860D02*
X69288396Y-95091712D01*
X69299786Y-95093115D01*
X69310992Y-95095056D01*
X69322000Y-95097520D01*
X69332794Y-95100494D01*
X69343362Y-95103964D01*
X69353690Y-95107916D01*
X69363762Y-95112336D01*
X69373565Y-95117212D01*
X69383084Y-95122528D01*
X69392306Y-95128272D01*
X69401216Y-95134429D01*
X69409800Y-95140985D01*
X69418044Y-95147928D01*
X69425934Y-95155243D01*
X69433455Y-95162916D01*
X69440594Y-95170934D01*
X69447336Y-95179282D01*
X69453667Y-95187948D01*
X69459573Y-95196917D01*
X69465040Y-95206175D01*
X69470053Y-95215709D01*
X69474599Y-95225505D01*
X69478663Y-95235550D01*
X69482231Y-95245829D01*
X69485289Y-95256328D01*
X69487823Y-95267035D01*
X69489819Y-95277934D01*
X69491262Y-95289013D01*
X69492138Y-95300258D01*
X69492433Y-95311654D01*
X69492138Y-95323047D01*
X69491262Y-95334289D01*
X69489819Y-95345365D01*
X69487823Y-95356262D01*
X69485289Y-95366966D01*
X69482231Y-95377463D01*
X69478663Y-95387740D01*
X69474599Y-95397782D01*
X69470053Y-95407577D01*
X69465040Y-95417109D01*
X69459573Y-95426366D01*
X69453667Y-95435334D01*
X69447336Y-95443998D01*
X69440594Y-95452346D01*
X69433455Y-95460362D01*
X69425934Y-95468035D01*
X69418044Y-95475349D01*
X69409800Y-95482291D01*
X69401216Y-95488847D01*
X69392306Y-95495004D01*
X69383084Y-95500747D01*
X69373565Y-95506063D01*
X69363762Y-95510938D01*
X69353690Y-95515359D01*
X69343362Y-95519311D01*
X69332794Y-95522780D01*
X69322000Y-95525754D01*
X69310992Y-95528218D01*
X69299786Y-95530158D01*
X69288396Y-95531562D01*
X69276836Y-95532413D01*
X69265120Y-95532701D01*
X69253509Y-95532413D01*
X69242040Y-95531562D01*
X69230728Y-95530158D01*
X69219588Y-95528218D01*
X69208636Y-95525754D01*
X69197885Y-95522780D01*
X69187350Y-95519311D01*
X69177047Y-95515359D01*
X69166990Y-95510938D01*
X69157194Y-95506063D01*
X69147673Y-95500747D01*
X69138444Y-95495004D01*
X69129520Y-95488847D01*
X69120917Y-95482291D01*
X69112648Y-95475349D01*
X69104730Y-95468035D01*
X69097177Y-95460362D01*
X69090004Y-95452346D01*
X69083225Y-95443998D01*
X69076855Y-95435334D01*
X69070910Y-95426366D01*
X69065404Y-95417109D01*
X69060352Y-95407577D01*
X69055769Y-95397782D01*
X69051669Y-95387740D01*
X69048068Y-95377463D01*
X69044980Y-95366966D01*
X69042420Y-95356262D01*
X69040403Y-95345365D01*
X69038945Y-95334289D01*
X69038058Y-95323047D01*
X69037760Y-95311654D01*
X69038058Y-95300258D01*
X69038945Y-95289013D01*
X69040403Y-95277934D01*
X69042420Y-95267035D01*
X69044980Y-95256328D01*
X69048068Y-95245829D01*
X69051669Y-95235550D01*
X69055769Y-95225505D01*
X69060352Y-95215709D01*
X69065404Y-95206175D01*
X69070910Y-95196917D01*
X69076855Y-95187948D01*
X69083225Y-95179282D01*
X69090004Y-95170934D01*
X69097177Y-95162916D01*
X69104730Y-95155243D01*
X69112648Y-95147928D01*
X69120917Y-95140985D01*
X69129520Y-95134429D01*
X69138444Y-95128272D01*
X69147673Y-95122528D01*
X69157194Y-95117212D01*
X69166990Y-95112336D01*
X69177047Y-95107916D01*
X69187350Y-95103964D01*
X69197885Y-95100494D01*
X69208636Y-95097520D01*
X69219588Y-95095056D01*
X69230728Y-95093115D01*
X69242040Y-95091712D01*
X69253509Y-95090860D01*
X69265120Y-95090573D01*
X69276836Y-95090860D01*
D11*
X64140679Y-94691998D02*
X64143623Y-94636372D01*
X63141375Y-95624784D02*
X63049376Y-95654023D01*
D12*
X64609427Y-95532839D02*
X64567025Y-95553957D01*
X64836040Y-95368170D02*
X64801888Y-95399834D01*
X63234601Y-94319771D02*
X63254294Y-94277413D01*
X63894929Y-93765854D02*
X63942504Y-93755177D01*
X61514930Y-95601888D02*
X61469315Y-95619408D01*
X63714361Y-95553957D02*
X63671961Y-95532839D01*
X60925628Y-95656289D02*
X60975186Y-95664463D01*
D11*
X64143623Y-94636372D02*
X64152358Y-94581481D01*
D12*
X65124050Y-94691998D02*
X65122770Y-94741206D01*
X64386450Y-93765854D02*
X64433116Y-93778739D01*
D10*
X71534933Y-95311654D02*
X71534371Y-95333344D01*
X71534371Y-95333344D02*
X71532701Y-95354746D01*
X71532701Y-95354746D02*
X71529952Y-95375834D01*
X71529952Y-95375834D02*
X71526151Y-95396582D01*
X71526151Y-95396582D02*
X71521323Y-95416962D01*
X71521323Y-95416962D02*
X71515497Y-95436949D01*
X71515497Y-95436949D02*
X71508700Y-95456517D01*
X71508700Y-95456517D02*
X71500957Y-95475640D01*
X71500957Y-95475640D02*
X71492298Y-95494290D01*
X71492298Y-95494290D02*
X71482747Y-95512443D01*
X71482747Y-95512443D02*
X71472333Y-95530071D01*
X71472333Y-95530071D02*
X71461083Y-95547148D01*
X71461083Y-95547148D02*
X71449023Y-95563648D01*
X71449023Y-95563648D02*
X71436180Y-95579545D01*
X71436180Y-95579545D02*
X71422582Y-95594813D01*
X71422582Y-95594813D02*
X71408256Y-95609425D01*
X71408256Y-95609425D02*
X71393228Y-95623354D01*
X71393228Y-95623354D02*
X71377526Y-95636576D01*
X71377526Y-95636576D02*
X71361177Y-95649063D01*
X71361177Y-95649063D02*
X71344207Y-95660788D01*
X71344207Y-95660788D02*
X71326644Y-95671727D01*
X71326644Y-95671727D02*
X71308515Y-95681853D01*
X71308515Y-95681853D02*
X71289847Y-95691139D01*
X71289847Y-95691139D02*
X71270666Y-95699558D01*
X71270666Y-95699558D02*
X71251000Y-95707086D01*
X71251000Y-95707086D02*
X71230877Y-95713695D01*
X71230877Y-95713695D02*
X71210322Y-95719360D01*
X71210322Y-95719360D02*
X71189363Y-95724053D01*
X71189363Y-95724053D02*
X71168026Y-95727750D01*
X71168026Y-95727750D02*
X71146340Y-95730422D01*
X71146340Y-95730422D02*
X71124331Y-95732045D01*
X71124331Y-95732045D02*
X71102026Y-95732592D01*
X71102026Y-95732592D02*
X71079825Y-95732045D01*
X71079825Y-95732045D02*
X71057907Y-95730422D01*
X71057907Y-95730422D02*
X71036299Y-95727750D01*
X71036299Y-95727750D02*
X71015029Y-95724053D01*
X71015029Y-95724053D02*
X70994125Y-95719360D01*
X70994125Y-95719360D02*
X70973615Y-95713695D01*
X70973615Y-95713695D02*
X70953526Y-95707086D01*
X70953526Y-95707086D02*
X70933885Y-95699558D01*
X70933885Y-95699558D02*
X70914721Y-95691139D01*
X70914721Y-95691139D02*
X70896061Y-95681853D01*
X70896061Y-95681853D02*
X70877933Y-95671727D01*
X70877933Y-95671727D02*
X70860365Y-95660788D01*
X70860365Y-95660788D02*
X70843384Y-95649063D01*
X70843384Y-95649063D02*
X70827017Y-95636576D01*
X70827017Y-95636576D02*
X70811294Y-95623354D01*
X70811294Y-95623354D02*
X70796240Y-95609425D01*
X70796240Y-95609425D02*
X70781884Y-95594813D01*
X70781884Y-95594813D02*
X70768254Y-95579545D01*
X70768254Y-95579545D02*
X70755377Y-95563648D01*
X70755377Y-95563648D02*
X70743281Y-95547148D01*
X70743281Y-95547148D02*
X70731994Y-95530071D01*
X70731994Y-95530071D02*
X70721543Y-95512443D01*
X70721543Y-95512443D02*
X70711956Y-95494290D01*
X70711956Y-95494290D02*
X70703261Y-95475640D01*
X70703261Y-95475640D02*
X70695485Y-95456517D01*
X70695485Y-95456517D02*
X70688656Y-95436949D01*
X70688656Y-95436949D02*
X70682801Y-95416962D01*
X70682801Y-95416962D02*
X70677949Y-95396582D01*
X70677949Y-95396582D02*
X70674128Y-95375834D01*
X70674128Y-95375834D02*
X70671363Y-95354746D01*
X70671363Y-95354746D02*
X70669685Y-95333344D01*
X70669685Y-95333344D02*
X70669119Y-95311654D01*
X70669119Y-95311654D02*
X70669685Y-95290062D01*
X70669685Y-95290062D02*
X70671363Y-95268745D01*
X70671363Y-95268745D02*
X70674128Y-95247730D01*
X70674128Y-95247730D02*
X70677949Y-95227044D01*
X70677949Y-95227044D02*
X70682801Y-95206714D01*
X70682801Y-95206714D02*
X70688656Y-95186766D01*
X70688656Y-95186766D02*
X70695485Y-95167228D01*
X70695485Y-95167228D02*
X70703261Y-95148127D01*
X70703261Y-95148127D02*
X70711956Y-95129489D01*
X70711956Y-95129489D02*
X70721543Y-95111342D01*
X70721543Y-95111342D02*
X70731994Y-95093712D01*
X70731994Y-95093712D02*
X70743281Y-95076626D01*
X70743281Y-95076626D02*
X70755377Y-95060111D01*
X70755377Y-95060111D02*
X70768254Y-95044194D01*
X70768254Y-95044194D02*
X70781884Y-95028902D01*
X70781884Y-95028902D02*
X70796240Y-95014262D01*
X70796240Y-95014262D02*
X70811294Y-95000301D01*
X70811294Y-95000301D02*
X70827017Y-94987046D01*
X70827017Y-94987046D02*
X70843384Y-94974523D01*
X70843384Y-94974523D02*
X70860365Y-94962760D01*
X70860365Y-94962760D02*
X70877933Y-94951783D01*
X70877933Y-94951783D02*
X70896061Y-94941619D01*
X70896061Y-94941619D02*
X70914721Y-94932295D01*
X70914721Y-94932295D02*
X70933885Y-94923839D01*
X70933885Y-94923839D02*
X70953526Y-94916277D01*
X70953526Y-94916277D02*
X70973615Y-94909636D01*
X70973615Y-94909636D02*
X70994125Y-94903943D01*
X70994125Y-94903943D02*
X71015029Y-94899224D01*
X71015029Y-94899224D02*
X71036299Y-94895507D01*
X71036299Y-94895507D02*
X71057907Y-94892819D01*
X71057907Y-94892819D02*
X71079825Y-94891186D01*
X71079825Y-94891186D02*
X71102026Y-94890636D01*
X71102026Y-94890636D02*
X71124331Y-94891186D01*
X71124331Y-94891186D02*
X71146340Y-94892819D01*
X71146340Y-94892819D02*
X71168026Y-94895507D01*
X71168026Y-94895507D02*
X71189363Y-94899224D01*
X71189363Y-94899224D02*
X71210322Y-94903943D01*
X71210322Y-94903943D02*
X71230877Y-94909636D01*
X71230877Y-94909636D02*
X71251000Y-94916277D01*
X71251000Y-94916277D02*
X71270666Y-94923839D01*
X71270666Y-94923839D02*
X71289847Y-94932295D01*
X71289847Y-94932295D02*
X71308515Y-94941619D01*
X71308515Y-94941619D02*
X71326644Y-94951783D01*
X71326644Y-94951783D02*
X71344207Y-94962760D01*
X71344207Y-94962760D02*
X71361177Y-94974523D01*
X71361177Y-94974523D02*
X71377526Y-94987046D01*
X71377526Y-94987046D02*
X71393228Y-95000301D01*
X71393228Y-95000301D02*
X71408256Y-95014262D01*
X71408256Y-95014262D02*
X71422582Y-95028902D01*
X71422582Y-95028902D02*
X71436180Y-95044194D01*
X71436180Y-95044194D02*
X71449023Y-95060111D01*
X71449023Y-95060111D02*
X71461083Y-95076626D01*
X71461083Y-95076626D02*
X71472333Y-95093712D01*
X71472333Y-95093712D02*
X71482747Y-95111342D01*
X71482747Y-95111342D02*
X71492298Y-95129489D01*
X71492298Y-95129489D02*
X71500957Y-95148127D01*
X71500957Y-95148127D02*
X71508700Y-95167228D01*
X71508700Y-95167228D02*
X71515497Y-95186766D01*
X71515497Y-95186766D02*
X71521323Y-95206714D01*
X71521323Y-95206714D02*
X71526151Y-95227044D01*
X71526151Y-95227044D02*
X71529952Y-95247730D01*
X71529952Y-95247730D02*
X71532701Y-95268745D01*
X71532701Y-95268745D02*
X71534371Y-95290062D01*
X71534371Y-95290062D02*
X71534933Y-95311654D01*
X71534933Y-95311654D02*
X71534933Y-95311654D01*
G36*
X71124331Y-94891186D02*
G01*
X71146340Y-94892819D01*
X71168026Y-94895507D01*
X71189363Y-94899224D01*
X71210322Y-94903943D01*
X71230877Y-94909636D01*
X71251000Y-94916277D01*
X71270666Y-94923839D01*
X71289847Y-94932295D01*
X71308515Y-94941619D01*
X71326644Y-94951783D01*
X71344207Y-94962760D01*
X71361177Y-94974523D01*
X71377526Y-94987046D01*
X71393228Y-95000301D01*
X71408256Y-95014262D01*
X71422582Y-95028902D01*
X71436180Y-95044194D01*
X71449023Y-95060111D01*
X71461083Y-95076626D01*
X71472333Y-95093712D01*
X71482747Y-95111342D01*
X71492298Y-95129489D01*
X71500957Y-95148127D01*
X71508700Y-95167228D01*
X71515497Y-95186766D01*
X71521323Y-95206714D01*
X71526151Y-95227044D01*
X71529952Y-95247730D01*
X71532701Y-95268745D01*
X71534371Y-95290062D01*
X71534933Y-95311654D01*
X71534371Y-95333344D01*
X71532701Y-95354746D01*
X71529952Y-95375834D01*
X71526151Y-95396582D01*
X71521323Y-95416962D01*
X71515497Y-95436949D01*
X71508700Y-95456517D01*
X71500957Y-95475640D01*
X71492298Y-95494290D01*
X71482747Y-95512443D01*
X71472333Y-95530071D01*
X71461083Y-95547148D01*
X71449023Y-95563648D01*
X71436180Y-95579545D01*
X71422582Y-95594813D01*
X71408256Y-95609425D01*
X71393228Y-95623354D01*
X71377526Y-95636576D01*
X71361177Y-95649063D01*
X71344207Y-95660788D01*
X71326644Y-95671727D01*
X71308515Y-95681853D01*
X71289847Y-95691139D01*
X71270666Y-95699558D01*
X71251000Y-95707086D01*
X71230877Y-95713695D01*
X71210322Y-95719360D01*
X71189363Y-95724053D01*
X71168026Y-95727750D01*
X71146340Y-95730422D01*
X71124331Y-95732045D01*
X71102026Y-95732592D01*
X71079825Y-95732045D01*
X71057907Y-95730422D01*
X71036299Y-95727750D01*
X71015029Y-95724053D01*
X70994125Y-95719360D01*
X70973615Y-95713695D01*
X70953526Y-95707086D01*
X70933885Y-95699558D01*
X70914721Y-95691139D01*
X70896061Y-95681853D01*
X70877933Y-95671727D01*
X70860365Y-95660788D01*
X70843384Y-95649063D01*
X70827017Y-95636576D01*
X70811294Y-95623354D01*
X70796240Y-95609425D01*
X70781884Y-95594813D01*
X70768254Y-95579545D01*
X70755377Y-95563648D01*
X70743281Y-95547148D01*
X70731994Y-95530071D01*
X70721543Y-95512443D01*
X70711956Y-95494290D01*
X70703261Y-95475640D01*
X70695485Y-95456517D01*
X70688656Y-95436949D01*
X70682801Y-95416962D01*
X70677949Y-95396582D01*
X70674128Y-95375834D01*
X70671363Y-95354746D01*
X70669685Y-95333344D01*
X70669119Y-95311654D01*
X70669685Y-95290062D01*
X70671363Y-95268745D01*
X70674128Y-95247730D01*
X70677949Y-95227044D01*
X70682801Y-95206714D01*
X70688656Y-95186766D01*
X70695485Y-95167228D01*
X70703261Y-95148127D01*
X70711956Y-95129489D01*
X70721543Y-95111342D01*
X70731994Y-95093712D01*
X70743281Y-95076626D01*
X70755377Y-95060111D01*
X70768254Y-95044194D01*
X70781884Y-95028902D01*
X70796240Y-95014262D01*
X70811294Y-95000301D01*
X70827017Y-94987046D01*
X70843384Y-94974523D01*
X70860365Y-94962760D01*
X70877933Y-94951783D01*
X70896061Y-94941619D01*
X70914721Y-94932295D01*
X70933885Y-94923839D01*
X70953526Y-94916277D01*
X70973615Y-94909636D01*
X70994125Y-94903943D01*
X71015029Y-94899224D01*
X71036299Y-94895507D01*
X71057907Y-94892819D01*
X71079825Y-94891186D01*
X71102026Y-94890636D01*
X71124331Y-94891186D01*
G37*
X71124331Y-94891186D02*
X71146340Y-94892819D01*
X71168026Y-94895507D01*
X71189363Y-94899224D01*
X71210322Y-94903943D01*
X71230877Y-94909636D01*
X71251000Y-94916277D01*
X71270666Y-94923839D01*
X71289847Y-94932295D01*
X71308515Y-94941619D01*
X71326644Y-94951783D01*
X71344207Y-94962760D01*
X71361177Y-94974523D01*
X71377526Y-94987046D01*
X71393228Y-95000301D01*
X71408256Y-95014262D01*
X71422582Y-95028902D01*
X71436180Y-95044194D01*
X71449023Y-95060111D01*
X71461083Y-95076626D01*
X71472333Y-95093712D01*
X71482747Y-95111342D01*
X71492298Y-95129489D01*
X71500957Y-95148127D01*
X71508700Y-95167228D01*
X71515497Y-95186766D01*
X71521323Y-95206714D01*
X71526151Y-95227044D01*
X71529952Y-95247730D01*
X71532701Y-95268745D01*
X71534371Y-95290062D01*
X71534933Y-95311654D01*
X71534371Y-95333344D01*
X71532701Y-95354746D01*
X71529952Y-95375834D01*
X71526151Y-95396582D01*
X71521323Y-95416962D01*
X71515497Y-95436949D01*
X71508700Y-95456517D01*
X71500957Y-95475640D01*
X71492298Y-95494290D01*
X71482747Y-95512443D01*
X71472333Y-95530071D01*
X71461083Y-95547148D01*
X71449023Y-95563648D01*
X71436180Y-95579545D01*
X71422582Y-95594813D01*
X71408256Y-95609425D01*
X71393228Y-95623354D01*
X71377526Y-95636576D01*
X71361177Y-95649063D01*
X71344207Y-95660788D01*
X71326644Y-95671727D01*
X71308515Y-95681853D01*
X71289847Y-95691139D01*
X71270666Y-95699558D01*
X71251000Y-95707086D01*
X71230877Y-95713695D01*
X71210322Y-95719360D01*
X71189363Y-95724053D01*
X71168026Y-95727750D01*
X71146340Y-95730422D01*
X71124331Y-95732045D01*
X71102026Y-95732592D01*
X71079825Y-95732045D01*
X71057907Y-95730422D01*
X71036299Y-95727750D01*
X71015029Y-95724053D01*
X70994125Y-95719360D01*
X70973615Y-95713695D01*
X70953526Y-95707086D01*
X70933885Y-95699558D01*
X70914721Y-95691139D01*
X70896061Y-95681853D01*
X70877933Y-95671727D01*
X70860365Y-95660788D01*
X70843384Y-95649063D01*
X70827017Y-95636576D01*
X70811294Y-95623354D01*
X70796240Y-95609425D01*
X70781884Y-95594813D01*
X70768254Y-95579545D01*
X70755377Y-95563648D01*
X70743281Y-95547148D01*
X70731994Y-95530071D01*
X70721543Y-95512443D01*
X70711956Y-95494290D01*
X70703261Y-95475640D01*
X70695485Y-95456517D01*
X70688656Y-95436949D01*
X70682801Y-95416962D01*
X70677949Y-95396582D01*
X70674128Y-95375834D01*
X70671363Y-95354746D01*
X70669685Y-95333344D01*
X70669119Y-95311654D01*
X70669685Y-95290062D01*
X70671363Y-95268745D01*
X70674128Y-95247730D01*
X70677949Y-95227044D01*
X70682801Y-95206714D01*
X70688656Y-95186766D01*
X70695485Y-95167228D01*
X70703261Y-95148127D01*
X70711956Y-95129489D01*
X70721543Y-95111342D01*
X70731994Y-95093712D01*
X70743281Y-95076626D01*
X70755377Y-95060111D01*
X70768254Y-95044194D01*
X70781884Y-95028902D01*
X70796240Y-95014262D01*
X70811294Y-95000301D01*
X70827017Y-94987046D01*
X70843384Y-94974523D01*
X70860365Y-94962760D01*
X70877933Y-94951783D01*
X70896061Y-94941619D01*
X70914721Y-94932295D01*
X70933885Y-94923839D01*
X70953526Y-94916277D01*
X70973615Y-94909636D01*
X70994125Y-94903943D01*
X71015029Y-94899224D01*
X71036299Y-94895507D01*
X71057907Y-94892819D01*
X71079825Y-94891186D01*
X71102026Y-94890636D01*
X71124331Y-94891186D01*
D12*
X62126790Y-94750000D02*
X62122916Y-94799763D01*
X65112720Y-94546364D02*
X65118974Y-94594222D01*
X65122770Y-94741206D02*
X65118973Y-94789768D01*
D13*
X62531180Y-94691998D02*
X65750178Y-94691998D01*
D12*
X65064383Y-94363197D02*
X65079843Y-94407629D01*
X63177300Y-94884714D02*
X63168652Y-94837624D01*
D11*
X64882091Y-93892273D02*
X64964228Y-93858335D01*
D12*
X60648367Y-95560473D02*
X60691869Y-95581707D01*
X63630780Y-95509813D02*
X63590882Y-95484939D01*
X64766208Y-93954102D02*
X64801889Y-93984156D01*
X60525501Y-95485231D02*
X60565119Y-95512175D01*
X63479499Y-93984156D02*
X63515180Y-93954102D01*
X65112720Y-94837624D02*
X65104073Y-94884714D01*
X61326360Y-95658899D02*
X61276881Y-95667503D01*
D11*
X64094653Y-94918824D02*
X64069354Y-94973264D01*
D12*
X62128096Y-91984749D02*
X62128096Y-94699571D01*
D11*
X63230269Y-95593442D02*
X63141375Y-95624784D01*
D10*
X69698026Y-95311654D02*
X69697463Y-95333344D01*
X69697463Y-95333344D02*
X69695794Y-95354746D01*
X69695794Y-95354746D02*
X69693045Y-95375834D01*
X69693045Y-95375834D02*
X69689244Y-95396582D01*
X69689244Y-95396582D02*
X69684416Y-95416962D01*
X69684416Y-95416962D02*
X69678590Y-95436949D01*
X69678590Y-95436949D02*
X69671793Y-95456517D01*
X69671793Y-95456517D02*
X69664050Y-95475640D01*
X69664050Y-95475640D02*
X69655390Y-95494290D01*
X69655390Y-95494290D02*
X69645840Y-95512443D01*
X69645840Y-95512443D02*
X69635426Y-95530071D01*
X69635426Y-95530071D02*
X69624175Y-95547148D01*
X69624175Y-95547148D02*
X69612115Y-95563648D01*
X69612115Y-95563648D02*
X69599273Y-95579545D01*
X69599273Y-95579545D02*
X69585675Y-95594813D01*
X69585675Y-95594813D02*
X69571349Y-95609425D01*
X69571349Y-95609425D02*
X69556321Y-95623354D01*
X69556321Y-95623354D02*
X69540619Y-95636576D01*
X69540619Y-95636576D02*
X69524270Y-95649063D01*
X69524270Y-95649063D02*
X69507300Y-95660788D01*
X69507300Y-95660788D02*
X69489737Y-95671727D01*
X69489737Y-95671727D02*
X69471608Y-95681853D01*
X69471608Y-95681853D02*
X69452940Y-95691139D01*
X69452940Y-95691139D02*
X69433759Y-95699558D01*
X69433759Y-95699558D02*
X69414094Y-95707086D01*
X69414094Y-95707086D02*
X69393970Y-95713695D01*
X69393970Y-95713695D02*
X69373415Y-95719360D01*
X69373415Y-95719360D02*
X69352456Y-95724053D01*
X69352456Y-95724053D02*
X69331120Y-95727750D01*
X69331120Y-95727750D02*
X69309434Y-95730422D01*
X69309434Y-95730422D02*
X69287425Y-95732045D01*
X69287425Y-95732045D02*
X69265120Y-95732592D01*
X69265120Y-95732592D02*
X69242920Y-95732045D01*
X69242920Y-95732045D02*
X69221002Y-95730422D01*
X69221002Y-95730422D02*
X69199395Y-95727750D01*
X69199395Y-95727750D02*
X69178126Y-95724053D01*
X69178126Y-95724053D02*
X69157223Y-95719360D01*
X69157223Y-95719360D02*
X69136713Y-95713695D01*
X69136713Y-95713695D02*
X69116624Y-95707086D01*
X69116624Y-95707086D02*
X69096984Y-95699558D01*
X69096984Y-95699558D02*
X69077820Y-95691139D01*
X69077820Y-95691139D02*
X69059160Y-95681853D01*
X69059160Y-95681853D02*
X69041032Y-95671727D01*
X69041032Y-95671727D02*
X69023464Y-95660788D01*
X69023464Y-95660788D02*
X69006482Y-95649063D01*
X69006482Y-95649063D02*
X68990116Y-95636576D01*
X68990116Y-95636576D02*
X68974392Y-95623354D01*
X68974392Y-95623354D02*
X68959338Y-95609425D01*
X68959338Y-95609425D02*
X68944982Y-95594813D01*
X68944982Y-95594813D02*
X68931351Y-95579545D01*
X68931351Y-95579545D02*
X68918474Y-95563648D01*
X68918474Y-95563648D02*
X68906378Y-95547148D01*
X68906378Y-95547148D02*
X68895091Y-95530071D01*
X68895091Y-95530071D02*
X68884639Y-95512443D01*
X68884639Y-95512443D02*
X68875052Y-95494290D01*
X68875052Y-95494290D02*
X68866356Y-95475640D01*
X68866356Y-95475640D02*
X68858580Y-95456517D01*
X68858580Y-95456517D02*
X68851751Y-95436949D01*
X68851751Y-95436949D02*
X68845896Y-95416962D01*
X68845896Y-95416962D02*
X68841044Y-95396582D01*
X68841044Y-95396582D02*
X68837222Y-95375834D01*
X68837222Y-95375834D02*
X68834457Y-95354746D01*
X68834457Y-95354746D02*
X68832778Y-95333344D01*
X68832778Y-95333344D02*
X68832213Y-95311654D01*
X68832213Y-95311654D02*
X68832778Y-95290062D01*
X68832778Y-95290062D02*
X68834457Y-95268745D01*
X68834457Y-95268745D02*
X68837222Y-95247730D01*
X68837222Y-95247730D02*
X68841044Y-95227044D01*
X68841044Y-95227044D02*
X68845896Y-95206714D01*
X68845896Y-95206714D02*
X68851751Y-95186766D01*
X68851751Y-95186766D02*
X68858580Y-95167228D01*
X68858580Y-95167228D02*
X68866356Y-95148127D01*
X68866356Y-95148127D02*
X68875052Y-95129489D01*
X68875052Y-95129489D02*
X68884639Y-95111342D01*
X68884639Y-95111342D02*
X68895091Y-95093712D01*
X68895091Y-95093712D02*
X68906378Y-95076626D01*
X68906378Y-95076626D02*
X68918474Y-95060111D01*
X68918474Y-95060111D02*
X68931351Y-95044194D01*
X68931351Y-95044194D02*
X68944982Y-95028902D01*
X68944982Y-95028902D02*
X68959338Y-95014262D01*
X68959338Y-95014262D02*
X68974392Y-95000301D01*
X68974392Y-95000301D02*
X68990116Y-94987046D01*
X68990116Y-94987046D02*
X69006482Y-94974523D01*
X69006482Y-94974523D02*
X69023464Y-94962760D01*
X69023464Y-94962760D02*
X69041032Y-94951783D01*
X69041032Y-94951783D02*
X69059160Y-94941619D01*
X69059160Y-94941619D02*
X69077820Y-94932295D01*
X69077820Y-94932295D02*
X69096984Y-94923839D01*
X69096984Y-94923839D02*
X69116624Y-94916277D01*
X69116624Y-94916277D02*
X69136713Y-94909636D01*
X69136713Y-94909636D02*
X69157223Y-94903943D01*
X69157223Y-94903943D02*
X69178126Y-94899224D01*
X69178126Y-94899224D02*
X69199395Y-94895507D01*
X69199395Y-94895507D02*
X69221002Y-94892819D01*
X69221002Y-94892819D02*
X69242920Y-94891186D01*
X69242920Y-94891186D02*
X69265120Y-94890636D01*
X69265120Y-94890636D02*
X69287425Y-94891186D01*
X69287425Y-94891186D02*
X69309434Y-94892819D01*
X69309434Y-94892819D02*
X69331120Y-94895507D01*
X69331120Y-94895507D02*
X69352456Y-94899224D01*
X69352456Y-94899224D02*
X69373415Y-94903943D01*
X69373415Y-94903943D02*
X69393970Y-94909636D01*
X69393970Y-94909636D02*
X69414094Y-94916277D01*
X69414094Y-94916277D02*
X69433760Y-94923839D01*
X69433760Y-94923839D02*
X69452940Y-94932295D01*
X69452940Y-94932295D02*
X69471609Y-94941619D01*
X69471609Y-94941619D02*
X69489738Y-94951783D01*
X69489738Y-94951783D02*
X69507301Y-94962760D01*
X69507301Y-94962760D02*
X69524270Y-94974523D01*
X69524270Y-94974523D02*
X69540620Y-94987046D01*
X69540620Y-94987046D02*
X69556322Y-95000301D01*
X69556322Y-95000301D02*
X69571349Y-95014262D01*
X69571349Y-95014262D02*
X69585676Y-95028902D01*
X69585676Y-95028902D02*
X69599273Y-95044194D01*
X69599273Y-95044194D02*
X69612116Y-95060111D01*
X69612116Y-95060111D02*
X69624176Y-95076626D01*
X69624176Y-95076626D02*
X69635426Y-95093712D01*
X69635426Y-95093712D02*
X69645840Y-95111342D01*
X69645840Y-95111342D02*
X69655391Y-95129489D01*
X69655391Y-95129489D02*
X69664050Y-95148127D01*
X69664050Y-95148127D02*
X69671793Y-95167228D01*
X69671793Y-95167228D02*
X69678590Y-95186766D01*
X69678590Y-95186766D02*
X69684416Y-95206714D01*
X69684416Y-95206714D02*
X69689244Y-95227044D01*
X69689244Y-95227044D02*
X69693045Y-95247730D01*
X69693045Y-95247730D02*
X69695794Y-95268745D01*
X69695794Y-95268745D02*
X69697463Y-95290062D01*
X69697463Y-95290062D02*
X69698026Y-95311654D01*
X69698026Y-95311654D02*
X69698026Y-95311654D01*
G36*
X69287425Y-94891186D02*
G01*
X69309434Y-94892819D01*
X69331120Y-94895507D01*
X69352456Y-94899224D01*
X69373415Y-94903943D01*
X69393970Y-94909636D01*
X69414094Y-94916277D01*
X69433760Y-94923839D01*
X69452940Y-94932295D01*
X69471609Y-94941619D01*
X69489738Y-94951783D01*
X69507301Y-94962760D01*
X69524270Y-94974523D01*
X69540620Y-94987046D01*
X69556322Y-95000301D01*
X69571349Y-95014262D01*
X69585676Y-95028902D01*
X69599273Y-95044194D01*
X69612116Y-95060111D01*
X69624176Y-95076626D01*
X69635426Y-95093712D01*
X69645840Y-95111342D01*
X69655391Y-95129489D01*
X69664050Y-95148127D01*
X69671793Y-95167228D01*
X69678590Y-95186766D01*
X69684416Y-95206714D01*
X69689244Y-95227044D01*
X69693045Y-95247730D01*
X69695794Y-95268745D01*
X69697463Y-95290062D01*
X69698026Y-95311654D01*
X69697463Y-95333344D01*
X69695794Y-95354746D01*
X69693045Y-95375834D01*
X69689244Y-95396582D01*
X69684416Y-95416962D01*
X69678590Y-95436949D01*
X69671793Y-95456517D01*
X69664050Y-95475640D01*
X69655390Y-95494290D01*
X69645840Y-95512443D01*
X69635426Y-95530071D01*
X69624175Y-95547148D01*
X69612115Y-95563648D01*
X69599273Y-95579545D01*
X69585675Y-95594813D01*
X69571349Y-95609425D01*
X69556321Y-95623354D01*
X69540619Y-95636576D01*
X69524270Y-95649063D01*
X69507300Y-95660788D01*
X69489737Y-95671727D01*
X69471608Y-95681853D01*
X69452940Y-95691139D01*
X69433759Y-95699558D01*
X69414094Y-95707086D01*
X69393970Y-95713695D01*
X69373415Y-95719360D01*
X69352456Y-95724053D01*
X69331120Y-95727750D01*
X69309434Y-95730422D01*
X69287425Y-95732045D01*
X69265120Y-95732592D01*
X69242920Y-95732045D01*
X69221002Y-95730422D01*
X69199395Y-95727750D01*
X69178126Y-95724053D01*
X69157223Y-95719360D01*
X69136713Y-95713695D01*
X69116624Y-95707086D01*
X69096984Y-95699558D01*
X69077820Y-95691139D01*
X69059160Y-95681853D01*
X69041032Y-95671727D01*
X69023464Y-95660788D01*
X69006482Y-95649063D01*
X68990116Y-95636576D01*
X68974392Y-95623354D01*
X68959338Y-95609425D01*
X68944982Y-95594813D01*
X68931351Y-95579545D01*
X68918474Y-95563648D01*
X68906378Y-95547148D01*
X68895091Y-95530071D01*
X68884639Y-95512443D01*
X68875052Y-95494290D01*
X68866356Y-95475640D01*
X68858580Y-95456517D01*
X68851751Y-95436949D01*
X68845896Y-95416962D01*
X68841044Y-95396582D01*
X68837222Y-95375834D01*
X68834457Y-95354746D01*
X68832778Y-95333344D01*
X68832213Y-95311654D01*
X68832778Y-95290062D01*
X68834457Y-95268745D01*
X68837222Y-95247730D01*
X68841044Y-95227044D01*
X68845896Y-95206714D01*
X68851751Y-95186766D01*
X68858580Y-95167228D01*
X68866356Y-95148127D01*
X68875052Y-95129489D01*
X68884639Y-95111342D01*
X68895091Y-95093712D01*
X68906378Y-95076626D01*
X68918474Y-95060111D01*
X68931351Y-95044194D01*
X68944982Y-95028902D01*
X68959338Y-95014262D01*
X68974392Y-95000301D01*
X68990116Y-94987046D01*
X69006482Y-94974523D01*
X69023464Y-94962760D01*
X69041032Y-94951783D01*
X69059160Y-94941619D01*
X69077820Y-94932295D01*
X69096984Y-94923839D01*
X69116624Y-94916277D01*
X69136713Y-94909636D01*
X69157223Y-94903943D01*
X69178126Y-94899224D01*
X69199395Y-94895507D01*
X69221002Y-94892819D01*
X69242920Y-94891186D01*
X69265120Y-94890636D01*
X69287425Y-94891186D01*
G37*
X69287425Y-94891186D02*
X69309434Y-94892819D01*
X69331120Y-94895507D01*
X69352456Y-94899224D01*
X69373415Y-94903943D01*
X69393970Y-94909636D01*
X69414094Y-94916277D01*
X69433760Y-94923839D01*
X69452940Y-94932295D01*
X69471609Y-94941619D01*
X69489738Y-94951783D01*
X69507301Y-94962760D01*
X69524270Y-94974523D01*
X69540620Y-94987046D01*
X69556322Y-95000301D01*
X69571349Y-95014262D01*
X69585676Y-95028902D01*
X69599273Y-95044194D01*
X69612116Y-95060111D01*
X69624176Y-95076626D01*
X69635426Y-95093712D01*
X69645840Y-95111342D01*
X69655391Y-95129489D01*
X69664050Y-95148127D01*
X69671793Y-95167228D01*
X69678590Y-95186766D01*
X69684416Y-95206714D01*
X69689244Y-95227044D01*
X69693045Y-95247730D01*
X69695794Y-95268745D01*
X69697463Y-95290062D01*
X69698026Y-95311654D01*
X69697463Y-95333344D01*
X69695794Y-95354746D01*
X69693045Y-95375834D01*
X69689244Y-95396582D01*
X69684416Y-95416962D01*
X69678590Y-95436949D01*
X69671793Y-95456517D01*
X69664050Y-95475640D01*
X69655390Y-95494290D01*
X69645840Y-95512443D01*
X69635426Y-95530071D01*
X69624175Y-95547148D01*
X69612115Y-95563648D01*
X69599273Y-95579545D01*
X69585675Y-95594813D01*
X69571349Y-95609425D01*
X69556321Y-95623354D01*
X69540619Y-95636576D01*
X69524270Y-95649063D01*
X69507300Y-95660788D01*
X69489737Y-95671727D01*
X69471608Y-95681853D01*
X69452940Y-95691139D01*
X69433759Y-95699558D01*
X69414094Y-95707086D01*
X69393970Y-95713695D01*
X69373415Y-95719360D01*
X69352456Y-95724053D01*
X69331120Y-95727750D01*
X69309434Y-95730422D01*
X69287425Y-95732045D01*
X69265120Y-95732592D01*
X69242920Y-95732045D01*
X69221002Y-95730422D01*
X69199395Y-95727750D01*
X69178126Y-95724053D01*
X69157223Y-95719360D01*
X69136713Y-95713695D01*
X69116624Y-95707086D01*
X69096984Y-95699558D01*
X69077820Y-95691139D01*
X69059160Y-95681853D01*
X69041032Y-95671727D01*
X69023464Y-95660788D01*
X69006482Y-95649063D01*
X68990116Y-95636576D01*
X68974392Y-95623354D01*
X68959338Y-95609425D01*
X68944982Y-95594813D01*
X68931351Y-95579545D01*
X68918474Y-95563648D01*
X68906378Y-95547148D01*
X68895091Y-95530071D01*
X68884639Y-95512443D01*
X68875052Y-95494290D01*
X68866356Y-95475640D01*
X68858580Y-95456517D01*
X68851751Y-95436949D01*
X68845896Y-95416962D01*
X68841044Y-95396582D01*
X68837222Y-95375834D01*
X68834457Y-95354746D01*
X68832778Y-95333344D01*
X68832213Y-95311654D01*
X68832778Y-95290062D01*
X68834457Y-95268745D01*
X68837222Y-95247730D01*
X68841044Y-95227044D01*
X68845896Y-95206714D01*
X68851751Y-95186766D01*
X68858580Y-95167228D01*
X68866356Y-95148127D01*
X68875052Y-95129489D01*
X68884639Y-95111342D01*
X68895091Y-95093712D01*
X68906378Y-95076626D01*
X68918474Y-95060111D01*
X68931351Y-95044194D01*
X68944982Y-95028902D01*
X68959338Y-95014262D01*
X68974392Y-95000301D01*
X68990116Y-94987046D01*
X69006482Y-94974523D01*
X69023464Y-94962760D01*
X69041032Y-94951783D01*
X69059160Y-94941619D01*
X69077820Y-94932295D01*
X69096984Y-94923839D01*
X69116624Y-94916277D01*
X69136713Y-94909636D01*
X69157223Y-94903943D01*
X69178126Y-94899224D01*
X69199395Y-94895507D01*
X69221002Y-94892819D01*
X69242920Y-94891186D01*
X69265120Y-94890636D01*
X69287425Y-94891186D01*
D12*
X62029142Y-95124293D02*
X62006978Y-95166518D01*
X61724894Y-95484375D02*
X61685525Y-95511661D01*
X60137303Y-94901264D02*
X60148943Y-94948559D01*
D11*
X62756170Y-95728418D02*
X62653172Y-95748541D01*
X61989854Y-95815267D02*
X61873071Y-95816729D01*
X63917248Y-95179849D02*
X63867203Y-95228349D01*
D12*
X60691869Y-95581707D02*
X60736538Y-95600916D01*
X64040140Y-93740687D02*
X64090078Y-93736995D01*
X62128096Y-94699571D02*
X62126790Y-94750000D01*
D11*
X63476907Y-95487504D02*
X63398177Y-95524732D01*
D12*
X63216993Y-95020787D02*
X63201532Y-94976355D01*
X63802576Y-93793772D02*
X63848266Y-93778739D01*
X64801888Y-95399834D02*
X64766208Y-95429890D01*
X60381877Y-95360246D02*
X60415429Y-95393952D01*
D11*
X66059826Y-93624257D02*
X66173203Y-93617393D01*
D12*
X60319861Y-95288276D02*
X60350000Y-95325000D01*
X63757920Y-93810893D02*
X63802576Y-93793772D01*
X61644782Y-95537117D02*
X61602726Y-95560681D01*
X64650607Y-95509813D02*
X64609427Y-95532839D01*
D11*
X65523130Y-93696643D02*
X65625971Y-93677315D01*
D12*
X64478809Y-93793772D02*
X64523466Y-93810893D01*
D11*
X63623208Y-95407654D02*
X63551964Y-95448454D01*
D12*
X64899507Y-94083724D02*
X64928699Y-94119848D01*
X61685525Y-95511661D02*
X61644782Y-95537117D01*
X63162398Y-94594222D02*
X63168652Y-94546364D01*
X63254294Y-95106570D02*
X63234600Y-95064212D01*
D11*
X65948272Y-93633748D02*
X66059826Y-93624257D01*
D12*
X65124050Y-94691998D02*
X65124050Y-94691998D01*
X64140680Y-93735750D02*
X64191287Y-93736995D01*
D11*
X64590206Y-94045516D02*
X64657394Y-94004717D01*
D12*
X64241229Y-93740687D02*
X64290445Y-93746768D01*
D14*
X68391666Y-57022380D02*
X68391666Y-56022380D01*
X68629761Y-56022380D01*
X68772619Y-56070000D01*
X68867857Y-56165238D01*
X68915476Y-56260476D01*
X68963095Y-56450952D01*
X68963095Y-56593809D01*
X68915476Y-56784285D01*
X68867857Y-56879523D01*
X68772619Y-56974761D01*
X68629761Y-57022380D01*
X68391666Y-57022380D01*
X69772619Y-56974761D02*
X69677380Y-57022380D01*
X69486904Y-57022380D01*
X69391666Y-56974761D01*
X69344047Y-56879523D01*
X69344047Y-56498571D01*
X69391666Y-56403333D01*
X69486904Y-56355714D01*
X69677380Y-56355714D01*
X69772619Y-56403333D01*
X69820238Y-56498571D01*
X69820238Y-56593809D01*
X69344047Y-56689047D01*
X70201190Y-56974761D02*
X70296428Y-57022380D01*
X70486904Y-57022380D01*
X70582142Y-56974761D01*
X70629761Y-56879523D01*
X70629761Y-56831904D01*
X70582142Y-56736666D01*
X70486904Y-56689047D01*
X70344047Y-56689047D01*
X70248809Y-56641428D01*
X70201190Y-56546190D01*
X70201190Y-56498571D01*
X70248809Y-56403333D01*
X70344047Y-56355714D01*
X70486904Y-56355714D01*
X70582142Y-56403333D01*
X71058333Y-57022380D02*
X71058333Y-56355714D01*
X71058333Y-56022380D02*
X71010714Y-56070000D01*
X71058333Y-56117619D01*
X71105952Y-56070000D01*
X71058333Y-56022380D01*
X71058333Y-56117619D01*
X71963095Y-56355714D02*
X71963095Y-57165238D01*
X71915476Y-57260476D01*
X71867857Y-57308095D01*
X71772619Y-57355714D01*
X71629761Y-57355714D01*
X71534523Y-57308095D01*
X71963095Y-56974761D02*
X71867857Y-57022380D01*
X71677380Y-57022380D01*
X71582142Y-56974761D01*
X71534523Y-56927142D01*
X71486904Y-56831904D01*
X71486904Y-56546190D01*
X71534523Y-56450952D01*
X71582142Y-56403333D01*
X71677380Y-56355714D01*
X71867857Y-56355714D01*
X71963095Y-56403333D01*
X72439285Y-56355714D02*
X72439285Y-57022380D01*
X72439285Y-56450952D02*
X72486904Y-56403333D01*
X72582142Y-56355714D01*
X72725000Y-56355714D01*
X72820238Y-56403333D01*
X72867857Y-56498571D01*
X72867857Y-57022380D01*
X73725000Y-56974761D02*
X73629761Y-57022380D01*
X73439285Y-57022380D01*
X73344047Y-56974761D01*
X73296428Y-56879523D01*
X73296428Y-56498571D01*
X73344047Y-56403333D01*
X73439285Y-56355714D01*
X73629761Y-56355714D01*
X73725000Y-56403333D01*
X73772619Y-56498571D01*
X73772619Y-56593809D01*
X73296428Y-56689047D01*
X74629761Y-57022380D02*
X74629761Y-56022380D01*
X74629761Y-56974761D02*
X74534523Y-57022380D01*
X74344047Y-57022380D01*
X74248809Y-56974761D01*
X74201190Y-56927142D01*
X74153571Y-56831904D01*
X74153571Y-56546190D01*
X74201190Y-56450952D01*
X74248809Y-56403333D01*
X74344047Y-56355714D01*
X74534523Y-56355714D01*
X74629761Y-56403333D01*
X75867857Y-57022380D02*
X75867857Y-56022380D01*
X75867857Y-56403333D02*
X75963095Y-56355714D01*
X76153571Y-56355714D01*
X76248809Y-56403333D01*
X76296428Y-56450952D01*
X76344047Y-56546190D01*
X76344047Y-56831904D01*
X76296428Y-56927142D01*
X76248809Y-56974761D01*
X76153571Y-57022380D01*
X75963095Y-57022380D01*
X75867857Y-56974761D01*
X76677380Y-56355714D02*
X76915476Y-57022380D01*
X77153571Y-56355714D02*
X76915476Y-57022380D01*
X76820238Y-57260476D01*
X76772619Y-57308095D01*
X76677380Y-57355714D01*
X67725000Y-57632380D02*
X67725000Y-58346666D01*
X67677380Y-58489523D01*
X67582142Y-58584761D01*
X67439285Y-58632380D01*
X67344047Y-58632380D01*
X68344047Y-58632380D02*
X68248809Y-58584761D01*
X68201190Y-58537142D01*
X68153571Y-58441904D01*
X68153571Y-58156190D01*
X68201190Y-58060952D01*
X68248809Y-58013333D01*
X68344047Y-57965714D01*
X68486904Y-57965714D01*
X68582142Y-58013333D01*
X68629761Y-58060952D01*
X68677380Y-58156190D01*
X68677380Y-58441904D01*
X68629761Y-58537142D01*
X68582142Y-58584761D01*
X68486904Y-58632380D01*
X68344047Y-58632380D01*
X69105952Y-58632380D02*
X69105952Y-57965714D01*
X69105952Y-58156190D02*
X69153571Y-58060952D01*
X69201190Y-58013333D01*
X69296428Y-57965714D01*
X69391666Y-57965714D01*
X70153571Y-57965714D02*
X70153571Y-58775238D01*
X70105952Y-58870476D01*
X70058333Y-58918095D01*
X69963095Y-58965714D01*
X69820238Y-58965714D01*
X69725000Y-58918095D01*
X70153571Y-58584761D02*
X70058333Y-58632380D01*
X69867857Y-58632380D01*
X69772619Y-58584761D01*
X69725000Y-58537142D01*
X69677380Y-58441904D01*
X69677380Y-58156190D01*
X69725000Y-58060952D01*
X69772619Y-58013333D01*
X69867857Y-57965714D01*
X70058333Y-57965714D01*
X70153571Y-58013333D01*
X71010714Y-58584761D02*
X70915476Y-58632380D01*
X70725000Y-58632380D01*
X70629761Y-58584761D01*
X70582142Y-58489523D01*
X70582142Y-58108571D01*
X70629761Y-58013333D01*
X70725000Y-57965714D01*
X70915476Y-57965714D01*
X71010714Y-58013333D01*
X71058333Y-58108571D01*
X71058333Y-58203809D01*
X70582142Y-58299047D01*
X72439285Y-57632380D02*
X72629761Y-57632380D01*
X72725000Y-57680000D01*
X72820238Y-57775238D01*
X72867857Y-57965714D01*
X72867857Y-58299047D01*
X72820238Y-58489523D01*
X72725000Y-58584761D01*
X72629761Y-58632380D01*
X72439285Y-58632380D01*
X72344047Y-58584761D01*
X72248809Y-58489523D01*
X72201190Y-58299047D01*
X72201190Y-57965714D01*
X72248809Y-57775238D01*
X72344047Y-57680000D01*
X72439285Y-57632380D01*
X73296428Y-58632380D02*
X73296428Y-57965714D01*
X73296428Y-58156190D02*
X73344047Y-58060952D01*
X73391666Y-58013333D01*
X73486904Y-57965714D01*
X73582142Y-57965714D01*
X73772619Y-57965714D02*
X74153571Y-57965714D01*
X73915476Y-57632380D02*
X73915476Y-58489523D01*
X73963095Y-58584761D01*
X74058333Y-58632380D01*
X74153571Y-58632380D01*
X74486904Y-58632380D02*
X74486904Y-57965714D01*
X74486904Y-57632380D02*
X74439285Y-57680000D01*
X74486904Y-57727619D01*
X74534523Y-57680000D01*
X74486904Y-57632380D01*
X74486904Y-57727619D01*
X75391666Y-57965714D02*
X75391666Y-58775238D01*
X75344047Y-58870476D01*
X75296428Y-58918095D01*
X75201190Y-58965714D01*
X75058333Y-58965714D01*
X74963095Y-58918095D01*
X75391666Y-58584761D02*
X75296428Y-58632380D01*
X75105952Y-58632380D01*
X75010714Y-58584761D01*
X74963095Y-58537142D01*
X74915476Y-58441904D01*
X74915476Y-58156190D01*
X74963095Y-58060952D01*
X75010714Y-58013333D01*
X75105952Y-57965714D01*
X75296428Y-57965714D01*
X75391666Y-58013333D01*
X76010714Y-58632380D02*
X75915476Y-58584761D01*
X75867857Y-58537142D01*
X75820238Y-58441904D01*
X75820238Y-58156190D01*
X75867857Y-58060952D01*
X75915476Y-58013333D01*
X76010714Y-57965714D01*
X76153571Y-57965714D01*
X76248809Y-58013333D01*
X76296428Y-58060952D01*
X76344047Y-58156190D01*
X76344047Y-58441904D01*
X76296428Y-58537142D01*
X76248809Y-58584761D01*
X76153571Y-58632380D01*
X76010714Y-58632380D01*
X76725000Y-58584761D02*
X76820238Y-58632380D01*
X77010714Y-58632380D01*
X77105952Y-58584761D01*
X77153571Y-58489523D01*
X77153571Y-58441904D01*
X77105952Y-58346666D01*
X77010714Y-58299047D01*
X76867857Y-58299047D01*
X76772619Y-58251428D01*
X76725000Y-58156190D01*
X76725000Y-58108571D01*
X76772619Y-58013333D01*
X76867857Y-57965714D01*
X77010714Y-57965714D01*
X77105952Y-58013333D01*
X77725000Y-58632380D02*
X77629761Y-58584761D01*
X77582142Y-58537142D01*
X77534523Y-58441904D01*
X77534523Y-58156190D01*
X77582142Y-58060952D01*
X77629761Y-58013333D01*
X77725000Y-57965714D01*
X77867857Y-57965714D01*
X77963095Y-58013333D01*
X78010714Y-58060952D01*
X78058333Y-58156190D01*
X78058333Y-58441904D01*
X78010714Y-58537142D01*
X77963095Y-58584761D01*
X77867857Y-58632380D01*
X77725000Y-58632380D01*
X65312380Y-105390238D02*
X64836190Y-105723571D01*
X65312380Y-105961666D02*
X64312380Y-105961666D01*
X64312380Y-105580714D01*
X64360000Y-105485476D01*
X64407619Y-105437857D01*
X64502857Y-105390238D01*
X64645714Y-105390238D01*
X64740952Y-105437857D01*
X64788571Y-105485476D01*
X64836190Y-105580714D01*
X64836190Y-105961666D01*
X64312380Y-105104523D02*
X65312380Y-104771190D01*
X64312380Y-104437857D01*
X65312380Y-103580714D02*
X65312380Y-104152142D01*
X65312380Y-103866428D02*
X64312380Y-103866428D01*
X64455238Y-103961666D01*
X64550476Y-104056904D01*
X64598095Y-104152142D01*
X55166666Y-96652380D02*
X55166666Y-97366666D01*
X55119047Y-97509523D01*
X55023809Y-97604761D01*
X54880952Y-97652380D01*
X54785714Y-97652380D01*
X56166666Y-97652380D02*
X55595238Y-97652380D01*
X55880952Y-97652380D02*
X55880952Y-96652380D01*
X55785714Y-96795238D01*
X55690476Y-96890476D01*
X55595238Y-96938095D01*
X55166666Y-57652380D02*
X55166666Y-58366666D01*
X55119047Y-58509523D01*
X55023809Y-58604761D01*
X54880952Y-58652380D01*
X54785714Y-58652380D01*
X55595238Y-57747619D02*
X55642857Y-57700000D01*
X55738095Y-57652380D01*
X55976190Y-57652380D01*
X56071428Y-57700000D01*
X56119047Y-57747619D01*
X56166666Y-57842857D01*
X56166666Y-57938095D01*
X56119047Y-58080952D01*
X55547619Y-58652380D01*
X56166666Y-58652380D01*
X65312380Y-85885238D02*
X64836190Y-86218571D01*
X65312380Y-86456666D02*
X64312380Y-86456666D01*
X64312380Y-86075714D01*
X64360000Y-85980476D01*
X64407619Y-85932857D01*
X64502857Y-85885238D01*
X64645714Y-85885238D01*
X64740952Y-85932857D01*
X64788571Y-85980476D01*
X64836190Y-86075714D01*
X64836190Y-86456666D01*
X64312380Y-85599523D02*
X65312380Y-85266190D01*
X64312380Y-84932857D01*
X64312380Y-84694761D02*
X64312380Y-84075714D01*
X64693333Y-84409047D01*
X64693333Y-84266190D01*
X64740952Y-84170952D01*
X64788571Y-84123333D01*
X64883809Y-84075714D01*
X65121904Y-84075714D01*
X65217142Y-84123333D01*
X65264761Y-84170952D01*
X65312380Y-84266190D01*
X65312380Y-84551904D01*
X65264761Y-84647142D01*
X65217142Y-84694761D01*
X55166666Y-77152380D02*
X55166666Y-77866666D01*
X55119047Y-78009523D01*
X55023809Y-78104761D01*
X54880952Y-78152380D01*
X54785714Y-78152380D01*
X55547619Y-77152380D02*
X56166666Y-77152380D01*
X55833333Y-77533333D01*
X55976190Y-77533333D01*
X56071428Y-77580952D01*
X56119047Y-77628571D01*
X56166666Y-77723809D01*
X56166666Y-77961904D01*
X56119047Y-78057142D01*
X56071428Y-78104761D01*
X55976190Y-78152380D01*
X55690476Y-78152380D01*
X55595238Y-78104761D01*
X55547619Y-78057142D01*
X69166666Y-133652380D02*
X69166666Y-134366666D01*
X69119047Y-134509523D01*
X69023809Y-134604761D01*
X68880952Y-134652380D01*
X68785714Y-134652380D01*
X70071428Y-133985714D02*
X70071428Y-134652380D01*
X69833333Y-133604761D02*
X69595238Y-134319047D01*
X70214285Y-134319047D01*
X55166666Y-133652380D02*
X55166666Y-134366666D01*
X55119047Y-134509523D01*
X55023809Y-134604761D01*
X54880952Y-134652380D01*
X54785714Y-134652380D01*
X56119047Y-133652380D02*
X55642857Y-133652380D01*
X55595238Y-134128571D01*
X55642857Y-134080952D01*
X55738095Y-134033333D01*
X55976190Y-134033333D01*
X56071428Y-134080952D01*
X56119047Y-134128571D01*
X56166666Y-134223809D01*
X56166666Y-134461904D01*
X56119047Y-134557142D01*
X56071428Y-134604761D01*
X55976190Y-134652380D01*
X55738095Y-134652380D01*
X55642857Y-134604761D01*
X55595238Y-134557142D01*
X65312380Y-66390238D02*
X64836190Y-66723571D01*
X65312380Y-66961666D02*
X64312380Y-66961666D01*
X64312380Y-66580714D01*
X64360000Y-66485476D01*
X64407619Y-66437857D01*
X64502857Y-66390238D01*
X64645714Y-66390238D01*
X64740952Y-66437857D01*
X64788571Y-66485476D01*
X64836190Y-66580714D01*
X64836190Y-66961666D01*
X64312380Y-66104523D02*
X65312380Y-65771190D01*
X64312380Y-65437857D01*
X64407619Y-65152142D02*
X64360000Y-65104523D01*
X64312380Y-65009285D01*
X64312380Y-64771190D01*
X64360000Y-64675952D01*
X64407619Y-64628333D01*
X64502857Y-64580714D01*
X64598095Y-64580714D01*
X64740952Y-64628333D01*
X65312380Y-65199761D01*
X65312380Y-64580714D01*
D15*
X73660000Y-110625000D02*
X72830000Y-110625000D01*
X67120000Y-110625000D02*
X67120000Y-105905000D01*
X76870000Y-102095000D02*
X76870000Y-99035000D01*
X67130000Y-102095000D02*
X67130000Y-99035000D01*
X76870000Y-99035000D02*
X67130000Y-99035000D01*
X76870000Y-110625000D02*
X76870000Y-105905000D01*
X68310000Y-110625000D02*
X67130000Y-110625000D01*
X76870000Y-110625000D02*
X75380000Y-110625000D01*
X71210000Y-110625000D02*
X70680000Y-110625000D01*
D16*
X53500000Y-108500000D02*
X56500000Y-108500000D01*
X53500000Y-98000000D02*
X56400000Y-98000000D01*
X59500000Y-108500000D02*
X62500000Y-108500000D01*
X62500000Y-108500000D02*
X62500000Y-98000000D01*
X59600000Y-98000000D02*
X62500000Y-98000000D01*
X53500000Y-108500000D02*
X53500000Y-98000000D01*
D15*
X59296263Y-106588576D02*
G75*
G03*
X58000000Y-101105000I-1296263J2588576D01*
G01*
X58000000Y-101104999D02*
G75*
G03*
X56703737Y-106588577I0J-2895001D01*
G01*
X59800000Y-104000000D02*
G75*
G03*
X59800000Y-104000000I-1800000J0D01*
G01*
D16*
X53500000Y-59000000D02*
X56400000Y-59000000D01*
X53500000Y-69500000D02*
X56500000Y-69500000D01*
X53500000Y-69500000D02*
X53500000Y-59000000D01*
X59600000Y-59000000D02*
X62500000Y-59000000D01*
X62500000Y-69500000D02*
X62500000Y-59000000D01*
X59500000Y-69500000D02*
X62500000Y-69500000D01*
D15*
X58000000Y-62104999D02*
G75*
G03*
X56703737Y-67588577I0J-2895001D01*
G01*
X59296263Y-67588576D02*
G75*
G03*
X58000000Y-62105000I-1296263J2588576D01*
G01*
X59800000Y-65000000D02*
G75*
G03*
X59800000Y-65000000I-1800000J0D01*
G01*
X73660000Y-91120000D02*
X72830000Y-91120000D01*
X76870000Y-91120000D02*
X75380000Y-91120000D01*
X67130000Y-82590000D02*
X67130000Y-79530000D01*
X71210000Y-91120000D02*
X70680000Y-91120000D01*
X76870000Y-82590000D02*
X76870000Y-79530000D01*
X68310000Y-91120000D02*
X67130000Y-91120000D01*
X76870000Y-91120000D02*
X76870000Y-86400000D01*
X67120000Y-91120000D02*
X67120000Y-86400000D01*
X76870000Y-79530000D02*
X67130000Y-79530000D01*
D16*
X59600000Y-78500000D02*
X62500000Y-78500000D01*
X62500000Y-89000000D02*
X62500000Y-78500000D01*
X53500000Y-89000000D02*
X56500000Y-89000000D01*
X53500000Y-89000000D02*
X53500000Y-78500000D01*
X59500000Y-89000000D02*
X62500000Y-89000000D01*
X53500000Y-78500000D02*
X56400000Y-78500000D01*
D15*
X59296263Y-87088576D02*
G75*
G03*
X58000000Y-81605000I-1296263J2588576D01*
G01*
X58000000Y-81604999D02*
G75*
G03*
X56703737Y-87088577I0J-2895001D01*
G01*
X59800000Y-84500000D02*
G75*
G03*
X59800000Y-84500000I-1800000J0D01*
G01*
D16*
X67500000Y-145500000D02*
X70500000Y-145500000D01*
X76500000Y-145500000D02*
X76500000Y-135000000D01*
X67500000Y-145500000D02*
X67500000Y-135000000D01*
X67500000Y-135000000D02*
X70400000Y-135000000D01*
X73500000Y-145500000D02*
X76500000Y-145500000D01*
X73600000Y-135000000D02*
X76500000Y-135000000D01*
D15*
X73296263Y-143588576D02*
G75*
G03*
X72000000Y-138105000I-1296263J2588576D01*
G01*
X72000000Y-138104999D02*
G75*
G03*
X70703737Y-143588577I0J-2895001D01*
G01*
X73800000Y-141000000D02*
G75*
G03*
X73800000Y-141000000I-1800000J0D01*
G01*
D16*
X62500000Y-145500000D02*
X62500000Y-135000000D01*
X53500000Y-145500000D02*
X53500000Y-135000000D01*
X53500000Y-145500000D02*
X56500000Y-145500000D01*
X59500000Y-145500000D02*
X62500000Y-145500000D01*
X53500000Y-135000000D02*
X56400000Y-135000000D01*
X59600000Y-135000000D02*
X62500000Y-135000000D01*
D15*
X59296263Y-143588576D02*
G75*
G03*
X58000000Y-138105000I-1296263J2588576D01*
G01*
X58000000Y-138104999D02*
G75*
G03*
X56703737Y-143588577I0J-2895001D01*
G01*
X59800000Y-141000000D02*
G75*
G03*
X59800000Y-141000000I-1800000J0D01*
G01*
X67120000Y-71625000D02*
X67120000Y-66905000D01*
X67130000Y-63095000D02*
X67130000Y-60035000D01*
X76870000Y-63095000D02*
X76870000Y-60035000D01*
X76870000Y-71625000D02*
X76870000Y-66905000D01*
X71210000Y-71625000D02*
X70680000Y-71625000D01*
X76870000Y-60035000D02*
X67130000Y-60035000D01*
X76870000Y-71625000D02*
X75380000Y-71625000D01*
X68310000Y-71625000D02*
X67130000Y-71625000D01*
X73660000Y-71625000D02*
X72830000Y-71625000D01*
%LPC*%
D17*
X76800000Y-104005000D03*
X67200000Y-104005000D03*
D18*
X69500000Y-111505000D03*
D19*
X72000000Y-111505000D03*
X74500000Y-111505000D03*
D20*
X58000000Y-110480000D03*
D21*
X58000000Y-99080000D03*
X58000000Y-107380000D03*
D20*
X58000000Y-71480000D03*
D21*
X58000000Y-60080000D03*
X58000000Y-68380000D03*
D17*
X76800000Y-84500000D03*
X67200000Y-84500000D03*
D18*
X69500000Y-92000000D03*
D19*
X72000000Y-92000000D03*
X74500000Y-92000000D03*
D20*
X58000000Y-90980000D03*
D21*
X58000000Y-79580000D03*
X58000000Y-87880000D03*
D20*
X72000000Y-147480000D03*
D21*
X72000000Y-136080000D03*
X72000000Y-144380000D03*
D20*
X58000000Y-147480000D03*
D21*
X58000000Y-136080000D03*
X58000000Y-144380000D03*
D17*
X67200000Y-65005000D03*
X76800000Y-65005000D03*
D18*
X69500000Y-72505000D03*
D19*
X72000000Y-72505000D03*
X74500000Y-72505000D03*
D22*
X68190000Y-132000000D03*
D23*
X75810000Y-132000000D03*
D22*
X74000000Y-123590000D03*
D23*
X74000000Y-115970000D03*
D24*
X59750000Y-115000000D03*
X54750000Y-115000000D03*
D22*
X60000000Y-127310000D03*
D23*
X60000000Y-119690000D03*
D25*
X78080000Y-53500000D03*
D26*
X67920000Y-53500000D03*
D22*
X53520000Y-131100000D03*
D23*
X61140000Y-131100000D03*
D27*
X62027401Y-53500000D03*
D28*
X64027401Y-53500000D03*
D27*
X57900000Y-54072600D03*
D28*
X57900000Y-52072600D03*
D22*
X70160000Y-76500000D03*
D23*
X77780000Y-76500000D03*
D22*
X57000000Y-125810000D03*
D23*
X57000000Y-118190000D03*
D24*
X70750000Y-127500000D03*
X75750000Y-127500000D03*
D29*
X70800000Y-116200000D03*
D30*
X70800000Y-118740000D03*
X70800000Y-121280000D03*
X70800000Y-123820000D03*
X63180000Y-123820000D03*
X63180000Y-121280000D03*
X63180000Y-118740000D03*
X63180000Y-116200000D03*
D24*
X53500000Y-125000000D03*
X53500000Y-120000000D03*
D31*
X74000000Y-46500000D03*
D32*
X74000000Y-43960000D03*
X71460000Y-46500000D03*
X71460000Y-43960000D03*
X68920000Y-46500000D03*
X68920000Y-43960000D03*
X66380000Y-46500000D03*
X66380000Y-43960000D03*
X63840000Y-46500000D03*
X63840000Y-43960000D03*
D24*
X77500000Y-123750000D03*
X77500000Y-118750000D03*
D25*
X53400000Y-54100000D03*
D26*
X53400000Y-43940000D03*
D22*
X70190000Y-97300000D03*
D23*
X77810000Y-97300000D03*
D22*
X65000000Y-132000000D03*
D23*
X65000000Y-139620000D03*
M02*
