%FSLAX45Y45*%
G04 Gerber Fmt 4.5, Leading zero omitted, Abs format (unit mm)*
G04 Created by KiCad (PCBNEW (6.0.1)) date 2023-06-10 19:19:44*
%MOMM*%
%LPD*%
G01*
G04 APERTURE LIST*
%TA.AperFunction,Profile*%
%ADD10C,0.100000*%
%TD*%
%ADD11C,0.200000*%
G04 APERTURE END LIST*
D10*
X5000000Y-15000000D02*
X5000000Y-4000000D01*
X5000000Y-4000000D02*
X8000000Y-4000000D01*
X8000000Y-4000000D02*
X8000000Y-15000000D01*
X8000000Y-15000000D02*
X5000000Y-15000000D01*
D11*
X5252619Y-15315476D02*
X5252619Y-15115476D01*
X5300238Y-15115476D01*
X5328810Y-15125000D01*
X5347857Y-15144048D01*
X5357381Y-15163095D01*
X5366905Y-15201190D01*
X5366905Y-15229762D01*
X5357381Y-15267857D01*
X5347857Y-15286905D01*
X5328810Y-15305952D01*
X5300238Y-15315476D01*
X5252619Y-15315476D01*
X5452619Y-15315476D02*
X5452619Y-15182143D01*
X5452619Y-15220238D02*
X5462143Y-15201190D01*
X5471667Y-15191667D01*
X5490714Y-15182143D01*
X5509762Y-15182143D01*
X5576429Y-15315476D02*
X5576429Y-15182143D01*
X5576429Y-15115476D02*
X5566905Y-15125000D01*
X5576429Y-15134524D01*
X5585952Y-15125000D01*
X5576429Y-15115476D01*
X5576429Y-15134524D01*
X5700238Y-15315476D02*
X5681190Y-15305952D01*
X5671667Y-15286905D01*
X5671667Y-15115476D01*
X5805000Y-15315476D02*
X5785952Y-15305952D01*
X5776428Y-15286905D01*
X5776428Y-15115476D01*
X6033571Y-15315476D02*
X6033571Y-15115476D01*
X6100238Y-15258333D01*
X6166905Y-15115476D01*
X6166905Y-15315476D01*
X6347857Y-15315476D02*
X6347857Y-15210714D01*
X6338333Y-15191667D01*
X6319286Y-15182143D01*
X6281190Y-15182143D01*
X6262143Y-15191667D01*
X6347857Y-15305952D02*
X6328809Y-15315476D01*
X6281190Y-15315476D01*
X6262143Y-15305952D01*
X6252619Y-15286905D01*
X6252619Y-15267857D01*
X6262143Y-15248809D01*
X6281190Y-15239286D01*
X6328809Y-15239286D01*
X6347857Y-15229762D01*
X6443095Y-15182143D02*
X6443095Y-15382143D01*
X6443095Y-15191667D02*
X6462143Y-15182143D01*
X6500238Y-15182143D01*
X6519286Y-15191667D01*
X6528809Y-15201190D01*
X6538333Y-15220238D01*
X6538333Y-15277381D01*
X6528809Y-15296428D01*
X6519286Y-15305952D01*
X6500238Y-15315476D01*
X6462143Y-15315476D01*
X6443095Y-15305952D01*
X6624048Y-15296428D02*
X6633571Y-15305952D01*
X6624048Y-15315476D01*
X6614524Y-15305952D01*
X6624048Y-15296428D01*
X6624048Y-15315476D01*
X6624048Y-15191667D02*
X6633571Y-15201190D01*
X6624048Y-15210714D01*
X6614524Y-15201190D01*
X6624048Y-15191667D01*
X6624048Y-15210714D01*
M02*
