G04 #@! TF.GenerationSoftware,KiCad,Pcbnew,(6.0.1)*
G04 #@! TF.CreationDate,2023-06-10T19:20:07+02:00*
G04 #@! TF.ProjectId,mixer,6d697865-722e-46b6-9963-61645f706362,rev?*
G04 #@! TF.SameCoordinates,Original*
G04 #@! TF.FileFunction,Copper,L2,Bot*
G04 #@! TF.FilePolarity,Positive*
%FSLAX46Y46*%
G04 Gerber Fmt 4.6, Leading zero omitted, Abs format (unit mm)*
G04 Created by KiCad (PCBNEW (6.0.1)) date 2023-06-10 19:20:07*
%MOMM*%
%LPD*%
G01*
G04 APERTURE LIST*
G04 Aperture macros list*
%AMRoundRect*
0 Rectangle with rounded corners*
0 $1 Rounding radius*
0 $2 $3 $4 $5 $6 $7 $8 $9 X,Y pos of 4 corners*
0 Add a 4 corners polygon primitive as box body*
4,1,4,$2,$3,$4,$5,$6,$7,$8,$9,$2,$3,0*
0 Add four circle primitives for the rounded corners*
1,1,$1+$1,$2,$3*
1,1,$1+$1,$4,$5*
1,1,$1+$1,$6,$7*
1,1,$1+$1,$8,$9*
0 Add four rect primitives between the rounded corners*
20,1,$1+$1,$2,$3,$4,$5,0*
20,1,$1+$1,$4,$5,$6,$7,0*
20,1,$1+$1,$6,$7,$8,$9,0*
20,1,$1+$1,$8,$9,$2,$3,0*%
G04 Aperture macros list end*
G04 #@! TA.AperFunction,ComponentPad*
%ADD10O,2.720000X3.240000*%
G04 #@! TD*
G04 #@! TA.AperFunction,ComponentPad*
%ADD11R,1.800000X1.800000*%
G04 #@! TD*
G04 #@! TA.AperFunction,ComponentPad*
%ADD12C,1.800000*%
G04 #@! TD*
G04 #@! TA.AperFunction,ComponentPad*
%ADD13O,3.100000X2.100000*%
G04 #@! TD*
G04 #@! TA.AperFunction,ComponentPad*
%ADD14RoundRect,0.650000X-0.650000X-0.650000X0.650000X-0.650000X0.650000X0.650000X-0.650000X0.650000X0*%
G04 #@! TD*
G04 #@! TA.AperFunction,ComponentPad*
%ADD15C,1.400000*%
G04 #@! TD*
G04 #@! TA.AperFunction,ComponentPad*
%ADD16O,1.400000X1.400000*%
G04 #@! TD*
G04 #@! TA.AperFunction,ComponentPad*
%ADD17C,1.600000*%
G04 #@! TD*
G04 #@! TA.AperFunction,ComponentPad*
%ADD18R,2.200000X2.200000*%
G04 #@! TD*
G04 #@! TA.AperFunction,ComponentPad*
%ADD19O,2.200000X2.200000*%
G04 #@! TD*
G04 #@! TA.AperFunction,ComponentPad*
%ADD20R,1.200000X1.200000*%
G04 #@! TD*
G04 #@! TA.AperFunction,ComponentPad*
%ADD21C,1.200000*%
G04 #@! TD*
G04 #@! TA.AperFunction,ComponentPad*
%ADD22R,1.600000X1.600000*%
G04 #@! TD*
G04 #@! TA.AperFunction,ComponentPad*
%ADD23O,1.600000X1.600000*%
G04 #@! TD*
G04 #@! TA.AperFunction,ComponentPad*
%ADD24RoundRect,0.250000X0.600000X-0.600000X0.600000X0.600000X-0.600000X0.600000X-0.600000X-0.600000X0*%
G04 #@! TD*
G04 #@! TA.AperFunction,ComponentPad*
%ADD25C,1.700000*%
G04 #@! TD*
G04 #@! TA.AperFunction,ViaPad*
%ADD26C,0.800000*%
G04 #@! TD*
G04 #@! TA.AperFunction,Conductor*
%ADD27C,0.350000*%
G04 #@! TD*
G04 APERTURE END LIST*
D10*
X76800000Y-104005000D03*
X67200000Y-104005000D03*
D11*
X69500000Y-111505000D03*
D12*
X72000000Y-111505000D03*
X74500000Y-111505000D03*
D13*
X58000000Y-110480000D03*
D14*
X58000000Y-99080000D03*
X58000000Y-107380000D03*
D13*
X58000000Y-71480000D03*
D14*
X58000000Y-60080000D03*
X58000000Y-68380000D03*
D10*
X76800000Y-84500000D03*
X67200000Y-84500000D03*
D11*
X69500000Y-92000000D03*
D12*
X72000000Y-92000000D03*
X74500000Y-92000000D03*
D13*
X58000000Y-90980000D03*
D14*
X58000000Y-79580000D03*
X58000000Y-87880000D03*
D13*
X72000000Y-147480000D03*
D14*
X72000000Y-136080000D03*
X72000000Y-144380000D03*
D13*
X58000000Y-147480000D03*
D14*
X58000000Y-136080000D03*
X58000000Y-144380000D03*
D10*
X67200000Y-65005000D03*
X76800000Y-65005000D03*
D11*
X69500000Y-72505000D03*
D12*
X72000000Y-72505000D03*
X74500000Y-72505000D03*
D15*
X68190000Y-132000000D03*
D16*
X75810000Y-132000000D03*
D15*
X74000000Y-123590000D03*
D16*
X74000000Y-115970000D03*
D17*
X59750000Y-115000000D03*
X54750000Y-115000000D03*
D15*
X60000000Y-127310000D03*
D16*
X60000000Y-119690000D03*
D18*
X78080000Y-53500000D03*
D19*
X67920000Y-53500000D03*
D15*
X53520000Y-131100000D03*
D16*
X61140000Y-131100000D03*
D20*
X62027401Y-53500000D03*
D21*
X64027401Y-53500000D03*
D20*
X57900000Y-54072600D03*
D21*
X57900000Y-52072600D03*
D15*
X70160000Y-76500000D03*
D16*
X77780000Y-76500000D03*
D15*
X57000000Y-125810000D03*
D16*
X57000000Y-118190000D03*
D17*
X70750000Y-127500000D03*
X75750000Y-127500000D03*
D22*
X70800000Y-116200000D03*
D23*
X70800000Y-118740000D03*
X70800000Y-121280000D03*
X70800000Y-123820000D03*
X63180000Y-123820000D03*
X63180000Y-121280000D03*
X63180000Y-118740000D03*
X63180000Y-116200000D03*
D17*
X53500000Y-125000000D03*
X53500000Y-120000000D03*
D24*
X74000000Y-46500000D03*
D25*
X74000000Y-43960000D03*
X71460000Y-46500000D03*
X71460000Y-43960000D03*
X68920000Y-46500000D03*
X68920000Y-43960000D03*
X66380000Y-46500000D03*
X66380000Y-43960000D03*
X63840000Y-46500000D03*
X63840000Y-43960000D03*
D17*
X77500000Y-123750000D03*
X77500000Y-118750000D03*
D18*
X53400000Y-54100000D03*
D19*
X53400000Y-43940000D03*
D15*
X70190000Y-97300000D03*
D16*
X77810000Y-97300000D03*
D15*
X65000000Y-132000000D03*
D16*
X65000000Y-139620000D03*
D26*
X76500000Y-113500000D03*
X65250000Y-121500000D03*
X73000000Y-106200000D03*
X68750000Y-119750000D03*
D27*
X76500000Y-115500000D02*
X76500000Y-113500000D01*
X73260000Y-118740000D02*
X76500000Y-115500000D01*
X70800000Y-118740000D02*
X73260000Y-118740000D01*
X65250000Y-121500000D02*
X65250000Y-119750000D01*
X65250000Y-119750000D02*
X68800000Y-116200000D01*
X68800000Y-116200000D02*
X70800000Y-116200000D01*
X71750000Y-98860000D02*
X71750000Y-111255000D01*
X70190000Y-97300000D02*
X71750000Y-98860000D01*
X71750000Y-111255000D02*
X72000000Y-111505000D01*
X68190000Y-132000000D02*
X68190000Y-120310000D01*
X72000000Y-75500000D02*
X72000000Y-72505000D01*
X73000000Y-106200000D02*
X73800000Y-105400000D01*
X73800000Y-105400000D02*
X73800000Y-96450000D01*
X73750000Y-86750000D02*
X73750000Y-77250000D01*
X77000000Y-90000000D02*
X73750000Y-86750000D01*
X73800000Y-96450000D02*
X77000000Y-93250000D01*
X77000000Y-93250000D02*
X77000000Y-90000000D01*
X73750000Y-77250000D02*
X72000000Y-75500000D01*
X68190000Y-120310000D02*
X68750000Y-119750000D01*
X70160000Y-76500000D02*
X72000000Y-78340000D01*
X72000000Y-78340000D02*
X72000000Y-92000000D01*
G04 #@! TA.AperFunction,Conductor*
G36*
X79434121Y-40528002D02*
G01*
X79480614Y-40581658D01*
X79492000Y-40634000D01*
X79492000Y-51792065D01*
X79471998Y-51860186D01*
X79418342Y-51906679D01*
X79348068Y-51916783D01*
X79321769Y-51910046D01*
X79297719Y-51901030D01*
X79297717Y-51901030D01*
X79290316Y-51898255D01*
X79228134Y-51891500D01*
X76931866Y-51891500D01*
X76869684Y-51898255D01*
X76733295Y-51949385D01*
X76616739Y-52036739D01*
X76529385Y-52153295D01*
X76478255Y-52289684D01*
X76471500Y-52351866D01*
X76471500Y-54648134D01*
X76478255Y-54710316D01*
X76529385Y-54846705D01*
X76616739Y-54963261D01*
X76733295Y-55050615D01*
X76869684Y-55101745D01*
X76931866Y-55108500D01*
X79228134Y-55108500D01*
X79290316Y-55101745D01*
X79297717Y-55098970D01*
X79297719Y-55098970D01*
X79321769Y-55089954D01*
X79392576Y-55084770D01*
X79454946Y-55118690D01*
X79489075Y-55180945D01*
X79492000Y-55207935D01*
X79492000Y-149366000D01*
X79471998Y-149434121D01*
X79418342Y-149480614D01*
X79366000Y-149492000D01*
X50634000Y-149492000D01*
X50565879Y-149471998D01*
X50519386Y-149418342D01*
X50508000Y-149366000D01*
X50508000Y-147751114D01*
X55962940Y-147751114D01*
X55966117Y-147778572D01*
X55968078Y-147788476D01*
X56033587Y-148019975D01*
X56037101Y-148029424D01*
X56138782Y-148247483D01*
X56143761Y-148256247D01*
X56278993Y-148455234D01*
X56285325Y-148463109D01*
X56450621Y-148637905D01*
X56458130Y-148644666D01*
X56649253Y-148790791D01*
X56657732Y-148796255D01*
X56869764Y-148909945D01*
X56879016Y-148913987D01*
X57106493Y-148992313D01*
X57116269Y-148994824D01*
X57354428Y-149035961D01*
X57362295Y-149036816D01*
X57386953Y-149037936D01*
X57389786Y-149038000D01*
X57727885Y-149038000D01*
X57743124Y-149033525D01*
X57744329Y-149032135D01*
X57746000Y-149024452D01*
X57746000Y-149019885D01*
X58254000Y-149019885D01*
X58258475Y-149035124D01*
X58259865Y-149036329D01*
X58267548Y-149038000D01*
X58560482Y-149038000D01*
X58565514Y-149037798D01*
X58744863Y-149023368D01*
X58754816Y-149021756D01*
X58988467Y-148964366D01*
X58998037Y-148961183D01*
X59219506Y-148867174D01*
X59228448Y-148862499D01*
X59432036Y-148734293D01*
X59440109Y-148728253D01*
X59620585Y-148569143D01*
X59627588Y-148561891D01*
X59780301Y-148375975D01*
X59786057Y-148367693D01*
X59907080Y-148159754D01*
X59911440Y-148150655D01*
X59997660Y-147926045D01*
X60000509Y-147916363D01*
X60034902Y-147751736D01*
X60034852Y-147751114D01*
X69962940Y-147751114D01*
X69966117Y-147778572D01*
X69968078Y-147788476D01*
X70033587Y-148019975D01*
X70037101Y-148029424D01*
X70138782Y-148247483D01*
X70143761Y-148256247D01*
X70278993Y-148455234D01*
X70285325Y-148463109D01*
X70450621Y-148637905D01*
X70458130Y-148644666D01*
X70649253Y-148790791D01*
X70657732Y-148796255D01*
X70869764Y-148909945D01*
X70879016Y-148913987D01*
X71106493Y-148992313D01*
X71116269Y-148994824D01*
X71354428Y-149035961D01*
X71362295Y-149036816D01*
X71386953Y-149037936D01*
X71389786Y-149038000D01*
X71727885Y-149038000D01*
X71743124Y-149033525D01*
X71744329Y-149032135D01*
X71746000Y-149024452D01*
X71746000Y-149019885D01*
X72254000Y-149019885D01*
X72258475Y-149035124D01*
X72259865Y-149036329D01*
X72267548Y-149038000D01*
X72560482Y-149038000D01*
X72565514Y-149037798D01*
X72744863Y-149023368D01*
X72754816Y-149021756D01*
X72988467Y-148964366D01*
X72998037Y-148961183D01*
X73219506Y-148867174D01*
X73228448Y-148862499D01*
X73432036Y-148734293D01*
X73440109Y-148728253D01*
X73620585Y-148569143D01*
X73627588Y-148561891D01*
X73780301Y-148375975D01*
X73786057Y-148367693D01*
X73907080Y-148159754D01*
X73911440Y-148150655D01*
X73997660Y-147926045D01*
X74000509Y-147916363D01*
X74034902Y-147751736D01*
X74033779Y-147737675D01*
X74023672Y-147734000D01*
X72272115Y-147734000D01*
X72256876Y-147738475D01*
X72255671Y-147739865D01*
X72254000Y-147747548D01*
X72254000Y-149019885D01*
X71746000Y-149019885D01*
X71746000Y-147752115D01*
X71741525Y-147736876D01*
X71740135Y-147735671D01*
X71732452Y-147734000D01*
X69979075Y-147734000D01*
X69964989Y-147738136D01*
X69962940Y-147751114D01*
X60034852Y-147751114D01*
X60033779Y-147737675D01*
X60023672Y-147734000D01*
X58272115Y-147734000D01*
X58256876Y-147738475D01*
X58255671Y-147739865D01*
X58254000Y-147747548D01*
X58254000Y-149019885D01*
X57746000Y-149019885D01*
X57746000Y-147752115D01*
X57741525Y-147736876D01*
X57740135Y-147735671D01*
X57732452Y-147734000D01*
X55979075Y-147734000D01*
X55964989Y-147738136D01*
X55962940Y-147751114D01*
X50508000Y-147751114D01*
X50508000Y-147208264D01*
X55965098Y-147208264D01*
X55966221Y-147222325D01*
X55976328Y-147226000D01*
X60020925Y-147226000D01*
X60035011Y-147221864D01*
X60037060Y-147208886D01*
X60036988Y-147208264D01*
X69965098Y-147208264D01*
X69966221Y-147222325D01*
X69976328Y-147226000D01*
X74020925Y-147226000D01*
X74035011Y-147221864D01*
X74037060Y-147208886D01*
X74033883Y-147181428D01*
X74031922Y-147171524D01*
X73966413Y-146940025D01*
X73962899Y-146930576D01*
X73861218Y-146712517D01*
X73856239Y-146703753D01*
X73721007Y-146504766D01*
X73714675Y-146496891D01*
X73549379Y-146322095D01*
X73541870Y-146315334D01*
X73350747Y-146169209D01*
X73348383Y-146167686D01*
X73347660Y-146166849D01*
X73346727Y-146166136D01*
X73346875Y-146165942D01*
X73301958Y-146113972D01*
X73291943Y-146043685D01*
X73321518Y-145979142D01*
X73345180Y-145957997D01*
X73389988Y-145927144D01*
X73389989Y-145927143D01*
X73394744Y-145923869D01*
X73398825Y-145919781D01*
X73541089Y-145777270D01*
X73541093Y-145777265D01*
X73545168Y-145773183D01*
X73665613Y-145597607D01*
X73752044Y-145403021D01*
X73801568Y-145195943D01*
X73808500Y-145099237D01*
X73808499Y-143660764D01*
X73801277Y-143562047D01*
X73751391Y-143355056D01*
X73664620Y-143160622D01*
X73543869Y-142985256D01*
X73539781Y-142981175D01*
X73397270Y-142838911D01*
X73397265Y-142838907D01*
X73393183Y-142834832D01*
X73217607Y-142714387D01*
X73120314Y-142671171D01*
X73028299Y-142630300D01*
X73028295Y-142630299D01*
X73023021Y-142627956D01*
X72985753Y-142619043D01*
X72820941Y-142579627D01*
X72820937Y-142579626D01*
X72815943Y-142578432D01*
X72779715Y-142575835D01*
X72721487Y-142571661D01*
X72721479Y-142571661D01*
X72719237Y-142571500D01*
X72006457Y-142571500D01*
X71280764Y-142571501D01*
X71278471Y-142571669D01*
X71278464Y-142571669D01*
X71187182Y-142578347D01*
X71187178Y-142578348D01*
X71182047Y-142578723D01*
X70975056Y-142628609D01*
X70780622Y-142715380D01*
X70775868Y-142718653D01*
X70775867Y-142718654D01*
X70611886Y-142831566D01*
X70605256Y-142836131D01*
X70601176Y-142840218D01*
X70601175Y-142840219D01*
X70458911Y-142982730D01*
X70458907Y-142982735D01*
X70454832Y-142986817D01*
X70334387Y-143162393D01*
X70247956Y-143356979D01*
X70198432Y-143564057D01*
X70191500Y-143660763D01*
X70191501Y-145099236D01*
X70198723Y-145197953D01*
X70248609Y-145404944D01*
X70335380Y-145599378D01*
X70456131Y-145774744D01*
X70460218Y-145778824D01*
X70460219Y-145778825D01*
X70602730Y-145921089D01*
X70602735Y-145921093D01*
X70606817Y-145925168D01*
X70611578Y-145928434D01*
X70658616Y-145960702D01*
X70703474Y-146015731D01*
X70711461Y-146086277D01*
X70680040Y-146149942D01*
X70654481Y-146171224D01*
X70567969Y-146225703D01*
X70559891Y-146231747D01*
X70379415Y-146390857D01*
X70372412Y-146398109D01*
X70219699Y-146584025D01*
X70213943Y-146592307D01*
X70092920Y-146800246D01*
X70088560Y-146809345D01*
X70002340Y-147033955D01*
X69999491Y-147043637D01*
X69965098Y-147208264D01*
X60036988Y-147208264D01*
X60033883Y-147181428D01*
X60031922Y-147171524D01*
X59966413Y-146940025D01*
X59962899Y-146930576D01*
X59861218Y-146712517D01*
X59856239Y-146703753D01*
X59721007Y-146504766D01*
X59714675Y-146496891D01*
X59549379Y-146322095D01*
X59541870Y-146315334D01*
X59350747Y-146169209D01*
X59348383Y-146167686D01*
X59347660Y-146166849D01*
X59346727Y-146166136D01*
X59346875Y-146165942D01*
X59301958Y-146113972D01*
X59291943Y-146043685D01*
X59321518Y-145979142D01*
X59345180Y-145957997D01*
X59389988Y-145927144D01*
X59389989Y-145927143D01*
X59394744Y-145923869D01*
X59398825Y-145919781D01*
X59541089Y-145777270D01*
X59541093Y-145777265D01*
X59545168Y-145773183D01*
X59665613Y-145597607D01*
X59752044Y-145403021D01*
X59801568Y-145195943D01*
X59808500Y-145099237D01*
X59808499Y-143660764D01*
X59801277Y-143562047D01*
X59751391Y-143355056D01*
X59664620Y-143160622D01*
X59543869Y-142985256D01*
X59539781Y-142981175D01*
X59397270Y-142838911D01*
X59397265Y-142838907D01*
X59393183Y-142834832D01*
X59217607Y-142714387D01*
X59120314Y-142671171D01*
X59028299Y-142630300D01*
X59028295Y-142630299D01*
X59023021Y-142627956D01*
X58985753Y-142619043D01*
X58820941Y-142579627D01*
X58820937Y-142579626D01*
X58815943Y-142578432D01*
X58779715Y-142575835D01*
X58721487Y-142571661D01*
X58721479Y-142571661D01*
X58719237Y-142571500D01*
X58006457Y-142571500D01*
X57280764Y-142571501D01*
X57278471Y-142571669D01*
X57278464Y-142571669D01*
X57187182Y-142578347D01*
X57187178Y-142578348D01*
X57182047Y-142578723D01*
X56975056Y-142628609D01*
X56780622Y-142715380D01*
X56775868Y-142718653D01*
X56775867Y-142718654D01*
X56611886Y-142831566D01*
X56605256Y-142836131D01*
X56601176Y-142840218D01*
X56601175Y-142840219D01*
X56458911Y-142982730D01*
X56458907Y-142982735D01*
X56454832Y-142986817D01*
X56334387Y-143162393D01*
X56247956Y-143356979D01*
X56198432Y-143564057D01*
X56191500Y-143660763D01*
X56191501Y-145099236D01*
X56198723Y-145197953D01*
X56248609Y-145404944D01*
X56335380Y-145599378D01*
X56456131Y-145774744D01*
X56460218Y-145778824D01*
X56460219Y-145778825D01*
X56602730Y-145921089D01*
X56602735Y-145921093D01*
X56606817Y-145925168D01*
X56611578Y-145928434D01*
X56658616Y-145960702D01*
X56703474Y-146015731D01*
X56711461Y-146086277D01*
X56680040Y-146149942D01*
X56654481Y-146171224D01*
X56567969Y-146225703D01*
X56559891Y-146231747D01*
X56379415Y-146390857D01*
X56372412Y-146398109D01*
X56219699Y-146584025D01*
X56213943Y-146592307D01*
X56092920Y-146800246D01*
X56088560Y-146809345D01*
X56002340Y-147033955D01*
X55999491Y-147043637D01*
X55965098Y-147208264D01*
X50508000Y-147208264D01*
X50508000Y-139620000D01*
X63786884Y-139620000D01*
X63805314Y-139830655D01*
X63860044Y-140034910D01*
X63949411Y-140226558D01*
X64070699Y-140399776D01*
X64220224Y-140549301D01*
X64393442Y-140670589D01*
X64398420Y-140672910D01*
X64398423Y-140672912D01*
X64580108Y-140757633D01*
X64585090Y-140759956D01*
X64590398Y-140761378D01*
X64590400Y-140761379D01*
X64784030Y-140813262D01*
X64784032Y-140813262D01*
X64789345Y-140814686D01*
X65000000Y-140833116D01*
X65210655Y-140814686D01*
X65215968Y-140813262D01*
X65215970Y-140813262D01*
X65409600Y-140761379D01*
X65409602Y-140761378D01*
X65414910Y-140759956D01*
X65419892Y-140757633D01*
X65601577Y-140672912D01*
X65601580Y-140672910D01*
X65606558Y-140670589D01*
X65779776Y-140549301D01*
X65929301Y-140399776D01*
X66050589Y-140226558D01*
X66139956Y-140034910D01*
X66194686Y-139830655D01*
X66213116Y-139620000D01*
X66194686Y-139409345D01*
X66139956Y-139205090D01*
X66050589Y-139013442D01*
X65929301Y-138840224D01*
X65779776Y-138690699D01*
X65606558Y-138569411D01*
X65601580Y-138567090D01*
X65601577Y-138567088D01*
X65419892Y-138482367D01*
X65419891Y-138482366D01*
X65414910Y-138480044D01*
X65409602Y-138478622D01*
X65409600Y-138478621D01*
X65215970Y-138426738D01*
X65215968Y-138426738D01*
X65210655Y-138425314D01*
X65000000Y-138406884D01*
X64789345Y-138425314D01*
X64784032Y-138426738D01*
X64784030Y-138426738D01*
X64590400Y-138478621D01*
X64590398Y-138478622D01*
X64585090Y-138480044D01*
X64580109Y-138482366D01*
X64580108Y-138482367D01*
X64398423Y-138567088D01*
X64398420Y-138567090D01*
X64393442Y-138569411D01*
X64220224Y-138690699D01*
X64070699Y-138840224D01*
X63949411Y-139013442D01*
X63860044Y-139205090D01*
X63805314Y-139409345D01*
X63786884Y-139620000D01*
X50508000Y-139620000D01*
X50508000Y-135360763D01*
X56191500Y-135360763D01*
X56191501Y-136799236D01*
X56198723Y-136897953D01*
X56248609Y-137104944D01*
X56335380Y-137299378D01*
X56456131Y-137474744D01*
X56460218Y-137478824D01*
X56460219Y-137478825D01*
X56602730Y-137621089D01*
X56602735Y-137621093D01*
X56606817Y-137625168D01*
X56782393Y-137745613D01*
X56879686Y-137788829D01*
X56971701Y-137829700D01*
X56971705Y-137829701D01*
X56976979Y-137832044D01*
X56982600Y-137833388D01*
X56982599Y-137833388D01*
X57179059Y-137880373D01*
X57179063Y-137880374D01*
X57184057Y-137881568D01*
X57220285Y-137884165D01*
X57278513Y-137888339D01*
X57278521Y-137888339D01*
X57280763Y-137888500D01*
X57993543Y-137888500D01*
X58719236Y-137888499D01*
X58721529Y-137888331D01*
X58721536Y-137888331D01*
X58812818Y-137881653D01*
X58812822Y-137881652D01*
X58817953Y-137881277D01*
X59024944Y-137831391D01*
X59219378Y-137744620D01*
X59224133Y-137741346D01*
X59389988Y-137627144D01*
X59389989Y-137627143D01*
X59394744Y-137623869D01*
X59398825Y-137619781D01*
X59541089Y-137477270D01*
X59541093Y-137477265D01*
X59545168Y-137473183D01*
X59665613Y-137297607D01*
X59752044Y-137103021D01*
X59801568Y-136895943D01*
X59808500Y-136799237D01*
X59808499Y-135360764D01*
X59808499Y-135360763D01*
X70191500Y-135360763D01*
X70191501Y-136799236D01*
X70198723Y-136897953D01*
X70248609Y-137104944D01*
X70335380Y-137299378D01*
X70456131Y-137474744D01*
X70460218Y-137478824D01*
X70460219Y-137478825D01*
X70602730Y-137621089D01*
X70602735Y-137621093D01*
X70606817Y-137625168D01*
X70782393Y-137745613D01*
X70879686Y-137788829D01*
X70971701Y-137829700D01*
X70971705Y-137829701D01*
X70976979Y-137832044D01*
X70982600Y-137833388D01*
X70982599Y-137833388D01*
X71179059Y-137880373D01*
X71179063Y-137880374D01*
X71184057Y-137881568D01*
X71220285Y-137884165D01*
X71278513Y-137888339D01*
X71278521Y-137888339D01*
X71280763Y-137888500D01*
X71993543Y-137888500D01*
X72719236Y-137888499D01*
X72721529Y-137888331D01*
X72721536Y-137888331D01*
X72812818Y-137881653D01*
X72812822Y-137881652D01*
X72817953Y-137881277D01*
X73024944Y-137831391D01*
X73219378Y-137744620D01*
X73224133Y-137741346D01*
X73389988Y-137627144D01*
X73389989Y-137627143D01*
X73394744Y-137623869D01*
X73398825Y-137619781D01*
X73541089Y-137477270D01*
X73541093Y-137477265D01*
X73545168Y-137473183D01*
X73665613Y-137297607D01*
X73752044Y-137103021D01*
X73801568Y-136895943D01*
X73808500Y-136799237D01*
X73808499Y-135360764D01*
X73801277Y-135262047D01*
X73751391Y-135055056D01*
X73664620Y-134860622D01*
X73543869Y-134685256D01*
X73539781Y-134681175D01*
X73397270Y-134538911D01*
X73397265Y-134538907D01*
X73393183Y-134534832D01*
X73217607Y-134414387D01*
X73120314Y-134371172D01*
X73028299Y-134330300D01*
X73028295Y-134330299D01*
X73023021Y-134327956D01*
X72985753Y-134319043D01*
X72820941Y-134279627D01*
X72820937Y-134279626D01*
X72815943Y-134278432D01*
X72779715Y-134275835D01*
X72721487Y-134271661D01*
X72721479Y-134271661D01*
X72719237Y-134271500D01*
X72006457Y-134271500D01*
X71280764Y-134271501D01*
X71278471Y-134271669D01*
X71278464Y-134271669D01*
X71187182Y-134278347D01*
X71187178Y-134278348D01*
X71182047Y-134278723D01*
X70975056Y-134328609D01*
X70780622Y-134415380D01*
X70775868Y-134418653D01*
X70775867Y-134418654D01*
X70611886Y-134531566D01*
X70605256Y-134536131D01*
X70601176Y-134540218D01*
X70601175Y-134540219D01*
X70458911Y-134682730D01*
X70458907Y-134682735D01*
X70454832Y-134686817D01*
X70334387Y-134862393D01*
X70247956Y-135056979D01*
X70198432Y-135264057D01*
X70191500Y-135360763D01*
X59808499Y-135360763D01*
X59801277Y-135262047D01*
X59751391Y-135055056D01*
X59664620Y-134860622D01*
X59543869Y-134685256D01*
X59539781Y-134681175D01*
X59397270Y-134538911D01*
X59397265Y-134538907D01*
X59393183Y-134534832D01*
X59217607Y-134414387D01*
X59120314Y-134371172D01*
X59028299Y-134330300D01*
X59028295Y-134330299D01*
X59023021Y-134327956D01*
X58985753Y-134319043D01*
X58820941Y-134279627D01*
X58820937Y-134279626D01*
X58815943Y-134278432D01*
X58779715Y-134275835D01*
X58721487Y-134271661D01*
X58721479Y-134271661D01*
X58719237Y-134271500D01*
X58006457Y-134271500D01*
X57280764Y-134271501D01*
X57278471Y-134271669D01*
X57278464Y-134271669D01*
X57187182Y-134278347D01*
X57187178Y-134278348D01*
X57182047Y-134278723D01*
X56975056Y-134328609D01*
X56780622Y-134415380D01*
X56775868Y-134418653D01*
X56775867Y-134418654D01*
X56611886Y-134531566D01*
X56605256Y-134536131D01*
X56601176Y-134540218D01*
X56601175Y-134540219D01*
X56458911Y-134682730D01*
X56458907Y-134682735D01*
X56454832Y-134686817D01*
X56334387Y-134862393D01*
X56247956Y-135056979D01*
X56198432Y-135264057D01*
X56191500Y-135360763D01*
X50508000Y-135360763D01*
X50508000Y-131100000D01*
X52306884Y-131100000D01*
X52325314Y-131310655D01*
X52326738Y-131315968D01*
X52326738Y-131315970D01*
X52346290Y-131388937D01*
X52380044Y-131514910D01*
X52382366Y-131519891D01*
X52382367Y-131519892D01*
X52415246Y-131590400D01*
X52469411Y-131706558D01*
X52590699Y-131879776D01*
X52740224Y-132029301D01*
X52913442Y-132150589D01*
X52918420Y-132152910D01*
X52918423Y-132152912D01*
X53100108Y-132237633D01*
X53105090Y-132239956D01*
X53110398Y-132241378D01*
X53110400Y-132241379D01*
X53304030Y-132293262D01*
X53304032Y-132293262D01*
X53309345Y-132294686D01*
X53520000Y-132313116D01*
X53730655Y-132294686D01*
X53735968Y-132293262D01*
X53735970Y-132293262D01*
X53929600Y-132241379D01*
X53929602Y-132241378D01*
X53934910Y-132239956D01*
X53939892Y-132237633D01*
X54121577Y-132152912D01*
X54121580Y-132152910D01*
X54126558Y-132150589D01*
X54299776Y-132029301D01*
X54449301Y-131879776D01*
X54570589Y-131706558D01*
X54624755Y-131590400D01*
X54657633Y-131519892D01*
X54657634Y-131519891D01*
X54659956Y-131514910D01*
X54693711Y-131388937D01*
X54713262Y-131315970D01*
X54713262Y-131315968D01*
X54714686Y-131310655D01*
X54733116Y-131100000D01*
X59926884Y-131100000D01*
X59945314Y-131310655D01*
X59946738Y-131315968D01*
X59946738Y-131315970D01*
X59966290Y-131388937D01*
X60000044Y-131514910D01*
X60002366Y-131519891D01*
X60002367Y-131519892D01*
X60035246Y-131590400D01*
X60089411Y-131706558D01*
X60210699Y-131879776D01*
X60360224Y-132029301D01*
X60533442Y-132150589D01*
X60538420Y-132152910D01*
X60538423Y-132152912D01*
X60720108Y-132237633D01*
X60725090Y-132239956D01*
X60730398Y-132241378D01*
X60730400Y-132241379D01*
X60924030Y-132293262D01*
X60924032Y-132293262D01*
X60929345Y-132294686D01*
X61140000Y-132313116D01*
X61350655Y-132294686D01*
X61355968Y-132293262D01*
X61355970Y-132293262D01*
X61549600Y-132241379D01*
X61549602Y-132241378D01*
X61554910Y-132239956D01*
X61559892Y-132237633D01*
X61741577Y-132152912D01*
X61741580Y-132152910D01*
X61746558Y-132150589D01*
X61919776Y-132029301D01*
X61949077Y-132000000D01*
X63786884Y-132000000D01*
X63805314Y-132210655D01*
X63860044Y-132414910D01*
X63949411Y-132606558D01*
X64070699Y-132779776D01*
X64220224Y-132929301D01*
X64393442Y-133050589D01*
X64398420Y-133052910D01*
X64398423Y-133052912D01*
X64580108Y-133137633D01*
X64585090Y-133139956D01*
X64590398Y-133141378D01*
X64590400Y-133141379D01*
X64784030Y-133193262D01*
X64784032Y-133193262D01*
X64789345Y-133194686D01*
X65000000Y-133213116D01*
X65210655Y-133194686D01*
X65215968Y-133193262D01*
X65215970Y-133193262D01*
X65409600Y-133141379D01*
X65409602Y-133141378D01*
X65414910Y-133139956D01*
X65419892Y-133137633D01*
X65601577Y-133052912D01*
X65601580Y-133052910D01*
X65606558Y-133050589D01*
X65779776Y-132929301D01*
X65929301Y-132779776D01*
X66050589Y-132606558D01*
X66139956Y-132414910D01*
X66194686Y-132210655D01*
X66213116Y-132000000D01*
X66194686Y-131789345D01*
X66193262Y-131784030D01*
X66141379Y-131590400D01*
X66141378Y-131590398D01*
X66139956Y-131585090D01*
X66107231Y-131514910D01*
X66052912Y-131398423D01*
X66052910Y-131398420D01*
X66050589Y-131393442D01*
X65929301Y-131220224D01*
X65779776Y-131070699D01*
X65606558Y-130949411D01*
X65601580Y-130947090D01*
X65601577Y-130947088D01*
X65419892Y-130862367D01*
X65419891Y-130862366D01*
X65414910Y-130860044D01*
X65409602Y-130858622D01*
X65409600Y-130858621D01*
X65215970Y-130806738D01*
X65215968Y-130806738D01*
X65210655Y-130805314D01*
X65000000Y-130786884D01*
X64789345Y-130805314D01*
X64784032Y-130806738D01*
X64784030Y-130806738D01*
X64590400Y-130858621D01*
X64590398Y-130858622D01*
X64585090Y-130860044D01*
X64580109Y-130862366D01*
X64580108Y-130862367D01*
X64398423Y-130947088D01*
X64398420Y-130947090D01*
X64393442Y-130949411D01*
X64220224Y-131070699D01*
X64070699Y-131220224D01*
X63949411Y-131393442D01*
X63947090Y-131398420D01*
X63947088Y-131398423D01*
X63892769Y-131514910D01*
X63860044Y-131585090D01*
X63858622Y-131590398D01*
X63858621Y-131590400D01*
X63806738Y-131784030D01*
X63805314Y-131789345D01*
X63786884Y-132000000D01*
X61949077Y-132000000D01*
X62069301Y-131879776D01*
X62190589Y-131706558D01*
X62244755Y-131590400D01*
X62277633Y-131519892D01*
X62277634Y-131519891D01*
X62279956Y-131514910D01*
X62313711Y-131388937D01*
X62333262Y-131315970D01*
X62333262Y-131315968D01*
X62334686Y-131310655D01*
X62353116Y-131100000D01*
X62334686Y-130889345D01*
X62279956Y-130685090D01*
X62190589Y-130493442D01*
X62069301Y-130320224D01*
X61919776Y-130170699D01*
X61746558Y-130049411D01*
X61741580Y-130047090D01*
X61741577Y-130047088D01*
X61559892Y-129962367D01*
X61559891Y-129962366D01*
X61554910Y-129960044D01*
X61549602Y-129958622D01*
X61549600Y-129958621D01*
X61355970Y-129906738D01*
X61355968Y-129906738D01*
X61350655Y-129905314D01*
X61140000Y-129886884D01*
X60929345Y-129905314D01*
X60924032Y-129906738D01*
X60924030Y-129906738D01*
X60730400Y-129958621D01*
X60730398Y-129958622D01*
X60725090Y-129960044D01*
X60720109Y-129962366D01*
X60720108Y-129962367D01*
X60538423Y-130047088D01*
X60538420Y-130047090D01*
X60533442Y-130049411D01*
X60360224Y-130170699D01*
X60210699Y-130320224D01*
X60089411Y-130493442D01*
X60000044Y-130685090D01*
X59945314Y-130889345D01*
X59926884Y-131100000D01*
X54733116Y-131100000D01*
X54714686Y-130889345D01*
X54659956Y-130685090D01*
X54570589Y-130493442D01*
X54449301Y-130320224D01*
X54299776Y-130170699D01*
X54126558Y-130049411D01*
X54121580Y-130047090D01*
X54121577Y-130047088D01*
X53939892Y-129962367D01*
X53939891Y-129962366D01*
X53934910Y-129960044D01*
X53929602Y-129958622D01*
X53929600Y-129958621D01*
X53735970Y-129906738D01*
X53735968Y-129906738D01*
X53730655Y-129905314D01*
X53520000Y-129886884D01*
X53309345Y-129905314D01*
X53304032Y-129906738D01*
X53304030Y-129906738D01*
X53110400Y-129958621D01*
X53110398Y-129958622D01*
X53105090Y-129960044D01*
X53100109Y-129962366D01*
X53100108Y-129962367D01*
X52918423Y-130047088D01*
X52918420Y-130047090D01*
X52913442Y-130049411D01*
X52740224Y-130170699D01*
X52590699Y-130320224D01*
X52469411Y-130493442D01*
X52380044Y-130685090D01*
X52325314Y-130889345D01*
X52306884Y-131100000D01*
X50508000Y-131100000D01*
X50508000Y-127310000D01*
X58786884Y-127310000D01*
X58805314Y-127520655D01*
X58860044Y-127724910D01*
X58862366Y-127729891D01*
X58862367Y-127729892D01*
X58928644Y-127872022D01*
X58949411Y-127916558D01*
X59070699Y-128089776D01*
X59220224Y-128239301D01*
X59393442Y-128360589D01*
X59398420Y-128362910D01*
X59398423Y-128362912D01*
X59580108Y-128447633D01*
X59585090Y-128449956D01*
X59590398Y-128451378D01*
X59590400Y-128451379D01*
X59784030Y-128503262D01*
X59784032Y-128503262D01*
X59789345Y-128504686D01*
X60000000Y-128523116D01*
X60210655Y-128504686D01*
X60215968Y-128503262D01*
X60215970Y-128503262D01*
X60409600Y-128451379D01*
X60409602Y-128451378D01*
X60414910Y-128449956D01*
X60419892Y-128447633D01*
X60601577Y-128362912D01*
X60601580Y-128362910D01*
X60606558Y-128360589D01*
X60779776Y-128239301D01*
X60929301Y-128089776D01*
X61050589Y-127916558D01*
X61071357Y-127872022D01*
X61137633Y-127729892D01*
X61137634Y-127729891D01*
X61139956Y-127724910D01*
X61194686Y-127520655D01*
X61213116Y-127310000D01*
X61194686Y-127099345D01*
X61180332Y-127045775D01*
X61141379Y-126900400D01*
X61141378Y-126900398D01*
X61139956Y-126895090D01*
X61089921Y-126787789D01*
X61052912Y-126708423D01*
X61052910Y-126708420D01*
X61050589Y-126703442D01*
X60929301Y-126530224D01*
X60779776Y-126380699D01*
X60606558Y-126259411D01*
X60601580Y-126257090D01*
X60601577Y-126257088D01*
X60419892Y-126172367D01*
X60419891Y-126172366D01*
X60414910Y-126170044D01*
X60409602Y-126168622D01*
X60409600Y-126168621D01*
X60215970Y-126116738D01*
X60215968Y-126116738D01*
X60210655Y-126115314D01*
X60000000Y-126096884D01*
X59789345Y-126115314D01*
X59784032Y-126116738D01*
X59784030Y-126116738D01*
X59590400Y-126168621D01*
X59590398Y-126168622D01*
X59585090Y-126170044D01*
X59580109Y-126172366D01*
X59580108Y-126172367D01*
X59398423Y-126257088D01*
X59398420Y-126257090D01*
X59393442Y-126259411D01*
X59220224Y-126380699D01*
X59070699Y-126530224D01*
X58949411Y-126703442D01*
X58947090Y-126708420D01*
X58947088Y-126708423D01*
X58910079Y-126787789D01*
X58860044Y-126895090D01*
X58858622Y-126900398D01*
X58858621Y-126900400D01*
X58819668Y-127045775D01*
X58805314Y-127099345D01*
X58786884Y-127310000D01*
X50508000Y-127310000D01*
X50508000Y-125000000D01*
X52186502Y-125000000D01*
X52206457Y-125228087D01*
X52207881Y-125233400D01*
X52207881Y-125233402D01*
X52251206Y-125395090D01*
X52265716Y-125449243D01*
X52268039Y-125454224D01*
X52268039Y-125454225D01*
X52360151Y-125651762D01*
X52360154Y-125651767D01*
X52362477Y-125656749D01*
X52493802Y-125844300D01*
X52655700Y-126006198D01*
X52660208Y-126009355D01*
X52660211Y-126009357D01*
X52683937Y-126025970D01*
X52843251Y-126137523D01*
X52848233Y-126139846D01*
X52848238Y-126139849D01*
X53030654Y-126224910D01*
X53050757Y-126234284D01*
X53056065Y-126235706D01*
X53056067Y-126235707D01*
X53266598Y-126292119D01*
X53266600Y-126292119D01*
X53271913Y-126293543D01*
X53500000Y-126313498D01*
X53728087Y-126293543D01*
X53733400Y-126292119D01*
X53733402Y-126292119D01*
X53943933Y-126235707D01*
X53943935Y-126235706D01*
X53949243Y-126234284D01*
X53969346Y-126224910D01*
X54151762Y-126139849D01*
X54151767Y-126139846D01*
X54156749Y-126137523D01*
X54316063Y-126025970D01*
X54339789Y-126009357D01*
X54339792Y-126009355D01*
X54344300Y-126006198D01*
X54506198Y-125844300D01*
X54530215Y-125810000D01*
X55786884Y-125810000D01*
X55805314Y-126020655D01*
X55806738Y-126025968D01*
X55806738Y-126025970D01*
X55855104Y-126206472D01*
X55860044Y-126224910D01*
X55862366Y-126229891D01*
X55862367Y-126229892D01*
X55942587Y-126401923D01*
X55949411Y-126416558D01*
X56070699Y-126589776D01*
X56220224Y-126739301D01*
X56393442Y-126860589D01*
X56398420Y-126862910D01*
X56398423Y-126862912D01*
X56580108Y-126947633D01*
X56585090Y-126949956D01*
X56590398Y-126951378D01*
X56590400Y-126951379D01*
X56784030Y-127003262D01*
X56784032Y-127003262D01*
X56789345Y-127004686D01*
X57000000Y-127023116D01*
X57210655Y-127004686D01*
X57215968Y-127003262D01*
X57215970Y-127003262D01*
X57409600Y-126951379D01*
X57409602Y-126951378D01*
X57414910Y-126949956D01*
X57419892Y-126947633D01*
X57601577Y-126862912D01*
X57601580Y-126862910D01*
X57606558Y-126860589D01*
X57779776Y-126739301D01*
X57929301Y-126589776D01*
X58050589Y-126416558D01*
X58057414Y-126401923D01*
X58137633Y-126229892D01*
X58137634Y-126229891D01*
X58139956Y-126224910D01*
X58144897Y-126206472D01*
X58193262Y-126025970D01*
X58193262Y-126025968D01*
X58194686Y-126020655D01*
X58213116Y-125810000D01*
X58194686Y-125599345D01*
X58154466Y-125449243D01*
X58141379Y-125400400D01*
X58141378Y-125400398D01*
X58139956Y-125395090D01*
X58050589Y-125203442D01*
X57929301Y-125030224D01*
X57779776Y-124880699D01*
X57606558Y-124759411D01*
X57601580Y-124757090D01*
X57601577Y-124757088D01*
X57419892Y-124672367D01*
X57419891Y-124672366D01*
X57414910Y-124670044D01*
X57409602Y-124668622D01*
X57409600Y-124668621D01*
X57215970Y-124616738D01*
X57215968Y-124616738D01*
X57210655Y-124615314D01*
X57000000Y-124596884D01*
X56789345Y-124615314D01*
X56784032Y-124616738D01*
X56784030Y-124616738D01*
X56590400Y-124668621D01*
X56590398Y-124668622D01*
X56585090Y-124670044D01*
X56580109Y-124672366D01*
X56580108Y-124672367D01*
X56398423Y-124757088D01*
X56398420Y-124757090D01*
X56393442Y-124759411D01*
X56220224Y-124880699D01*
X56070699Y-125030224D01*
X55949411Y-125203442D01*
X55860044Y-125395090D01*
X55858622Y-125400398D01*
X55858621Y-125400400D01*
X55845534Y-125449243D01*
X55805314Y-125599345D01*
X55786884Y-125810000D01*
X54530215Y-125810000D01*
X54637523Y-125656749D01*
X54639846Y-125651767D01*
X54639849Y-125651762D01*
X54731961Y-125454225D01*
X54731961Y-125454224D01*
X54734284Y-125449243D01*
X54748795Y-125395090D01*
X54792119Y-125233402D01*
X54792119Y-125233400D01*
X54793543Y-125228087D01*
X54813498Y-125000000D01*
X54793543Y-124771913D01*
X54792119Y-124766598D01*
X54735707Y-124556067D01*
X54735706Y-124556065D01*
X54734284Y-124550757D01*
X54701876Y-124481257D01*
X54639849Y-124348238D01*
X54639846Y-124348233D01*
X54637523Y-124343251D01*
X54532969Y-124193933D01*
X54509357Y-124160211D01*
X54509355Y-124160208D01*
X54506198Y-124155700D01*
X54437020Y-124086522D01*
X61897273Y-124086522D01*
X61944764Y-124263761D01*
X61948510Y-124274053D01*
X62040586Y-124471511D01*
X62046069Y-124481007D01*
X62171028Y-124659467D01*
X62178084Y-124667875D01*
X62332125Y-124821916D01*
X62340533Y-124828972D01*
X62518993Y-124953931D01*
X62528489Y-124959414D01*
X62725947Y-125051490D01*
X62736239Y-125055236D01*
X62908503Y-125101394D01*
X62922599Y-125101058D01*
X62926000Y-125093116D01*
X62926000Y-125087967D01*
X63434000Y-125087967D01*
X63437973Y-125101498D01*
X63446522Y-125102727D01*
X63623761Y-125055236D01*
X63634053Y-125051490D01*
X63831511Y-124959414D01*
X63841007Y-124953931D01*
X64019467Y-124828972D01*
X64027875Y-124821916D01*
X64181916Y-124667875D01*
X64188972Y-124659467D01*
X64313931Y-124481007D01*
X64319414Y-124471511D01*
X64411490Y-124274053D01*
X64415236Y-124263761D01*
X64461394Y-124091497D01*
X64461058Y-124077401D01*
X64453116Y-124074000D01*
X63452115Y-124074000D01*
X63436876Y-124078475D01*
X63435671Y-124079865D01*
X63434000Y-124087548D01*
X63434000Y-125087967D01*
X62926000Y-125087967D01*
X62926000Y-124092115D01*
X62921525Y-124076876D01*
X62920135Y-124075671D01*
X62912452Y-124074000D01*
X61912033Y-124074000D01*
X61898502Y-124077973D01*
X61897273Y-124086522D01*
X54437020Y-124086522D01*
X54344300Y-123993802D01*
X54339792Y-123990645D01*
X54339789Y-123990643D01*
X54261611Y-123935902D01*
X54156749Y-123862477D01*
X54151767Y-123860154D01*
X54151762Y-123860151D01*
X53954225Y-123768039D01*
X53954224Y-123768039D01*
X53949243Y-123765716D01*
X53943935Y-123764294D01*
X53943933Y-123764293D01*
X53733402Y-123707881D01*
X53733400Y-123707881D01*
X53728087Y-123706457D01*
X53500000Y-123686502D01*
X53271913Y-123706457D01*
X53266600Y-123707881D01*
X53266598Y-123707881D01*
X53056067Y-123764293D01*
X53056065Y-123764294D01*
X53050757Y-123765716D01*
X53045776Y-123768039D01*
X53045775Y-123768039D01*
X52848238Y-123860151D01*
X52848233Y-123860154D01*
X52843251Y-123862477D01*
X52738389Y-123935902D01*
X52660211Y-123990643D01*
X52660208Y-123990645D01*
X52655700Y-123993802D01*
X52493802Y-124155700D01*
X52490645Y-124160208D01*
X52490643Y-124160211D01*
X52467031Y-124193933D01*
X52362477Y-124343251D01*
X52360154Y-124348233D01*
X52360151Y-124348238D01*
X52298124Y-124481257D01*
X52265716Y-124550757D01*
X52264294Y-124556065D01*
X52264293Y-124556067D01*
X52207881Y-124766598D01*
X52206457Y-124771913D01*
X52186502Y-125000000D01*
X50508000Y-125000000D01*
X50508000Y-120000000D01*
X52186502Y-120000000D01*
X52206457Y-120228087D01*
X52207881Y-120233400D01*
X52207881Y-120233402D01*
X52220696Y-120281226D01*
X52265716Y-120449243D01*
X52268039Y-120454224D01*
X52268039Y-120454225D01*
X52360151Y-120651762D01*
X52360154Y-120651767D01*
X52362477Y-120656749D01*
X52435902Y-120761611D01*
X52488158Y-120836239D01*
X52493802Y-120844300D01*
X52655700Y-121006198D01*
X52660208Y-121009355D01*
X52660211Y-121009357D01*
X52728814Y-121057393D01*
X52843251Y-121137523D01*
X52848233Y-121139846D01*
X52848238Y-121139849D01*
X53045775Y-121231961D01*
X53050757Y-121234284D01*
X53056065Y-121235706D01*
X53056067Y-121235707D01*
X53266598Y-121292119D01*
X53266600Y-121292119D01*
X53271913Y-121293543D01*
X53500000Y-121313498D01*
X53728087Y-121293543D01*
X53733400Y-121292119D01*
X53733402Y-121292119D01*
X53778630Y-121280000D01*
X61866502Y-121280000D01*
X61886457Y-121508087D01*
X61887881Y-121513400D01*
X61887881Y-121513402D01*
X61935182Y-121689928D01*
X61945716Y-121729243D01*
X61948039Y-121734224D01*
X61948039Y-121734225D01*
X62040151Y-121931762D01*
X62040154Y-121931767D01*
X62042477Y-121936749D01*
X62173802Y-122124300D01*
X62335700Y-122286198D01*
X62340208Y-122289355D01*
X62340211Y-122289357D01*
X62342726Y-122291118D01*
X62523251Y-122417523D01*
X62528233Y-122419846D01*
X62528238Y-122419849D01*
X62563049Y-122436081D01*
X62616334Y-122482998D01*
X62635795Y-122551275D01*
X62615253Y-122619235D01*
X62563049Y-122664471D01*
X62528489Y-122680586D01*
X62518993Y-122686069D01*
X62340533Y-122811028D01*
X62332125Y-122818084D01*
X62178084Y-122972125D01*
X62171028Y-122980533D01*
X62046069Y-123158993D01*
X62040586Y-123168489D01*
X61948510Y-123365947D01*
X61944764Y-123376239D01*
X61898606Y-123548503D01*
X61898942Y-123562599D01*
X61906884Y-123566000D01*
X64447967Y-123566000D01*
X64461498Y-123562027D01*
X64462727Y-123553478D01*
X64415236Y-123376239D01*
X64411490Y-123365947D01*
X64319414Y-123168489D01*
X64313931Y-123158993D01*
X64188972Y-122980533D01*
X64181916Y-122972125D01*
X64027875Y-122818084D01*
X64019467Y-122811028D01*
X63841007Y-122686069D01*
X63831511Y-122680586D01*
X63796951Y-122664471D01*
X63743666Y-122617554D01*
X63724205Y-122549277D01*
X63744747Y-122481317D01*
X63796951Y-122436081D01*
X63831762Y-122419849D01*
X63831767Y-122419846D01*
X63836749Y-122417523D01*
X64017274Y-122291118D01*
X64019789Y-122289357D01*
X64019792Y-122289355D01*
X64024300Y-122286198D01*
X64186198Y-122124300D01*
X64278396Y-121992628D01*
X64333852Y-121948301D01*
X64404471Y-121940992D01*
X64467832Y-121973023D01*
X64490726Y-122001898D01*
X64510960Y-122036944D01*
X64515378Y-122041851D01*
X64515379Y-122041852D01*
X64593124Y-122128197D01*
X64638747Y-122178866D01*
X64737843Y-122250864D01*
X64780583Y-122281916D01*
X64793248Y-122291118D01*
X64799276Y-122293802D01*
X64799278Y-122293803D01*
X64961681Y-122366109D01*
X64967712Y-122368794D01*
X65061113Y-122388647D01*
X65148056Y-122407128D01*
X65148061Y-122407128D01*
X65154513Y-122408500D01*
X65345487Y-122408500D01*
X65351939Y-122407128D01*
X65351944Y-122407128D01*
X65438887Y-122388647D01*
X65532288Y-122368794D01*
X65538319Y-122366109D01*
X65700722Y-122293803D01*
X65700724Y-122293802D01*
X65706752Y-122291118D01*
X65719418Y-122281916D01*
X65762157Y-122250864D01*
X65861253Y-122178866D01*
X65906876Y-122128197D01*
X65984621Y-122041852D01*
X65984622Y-122041851D01*
X65989040Y-122036944D01*
X66084527Y-121871556D01*
X66143542Y-121689928D01*
X66159931Y-121534000D01*
X66162814Y-121506565D01*
X66163504Y-121500000D01*
X66143542Y-121310072D01*
X66084527Y-121128444D01*
X65989040Y-120963056D01*
X65984620Y-120958147D01*
X65984617Y-120958143D01*
X65965865Y-120937317D01*
X65935147Y-120873310D01*
X65933500Y-120853006D01*
X65933500Y-120085305D01*
X65953502Y-120017184D01*
X65970405Y-119996210D01*
X69046210Y-116920405D01*
X69108522Y-116886379D01*
X69135305Y-116883500D01*
X69365500Y-116883500D01*
X69433621Y-116903502D01*
X69480114Y-116957158D01*
X69491500Y-117009500D01*
X69491500Y-117048134D01*
X69498255Y-117110316D01*
X69549385Y-117246705D01*
X69636739Y-117363261D01*
X69753295Y-117450615D01*
X69889684Y-117501745D01*
X69900474Y-117502917D01*
X69902606Y-117503803D01*
X69905222Y-117504425D01*
X69905121Y-117504848D01*
X69966035Y-117530155D01*
X70006463Y-117588517D01*
X70008922Y-117659471D01*
X69972629Y-117720490D01*
X69963969Y-117727489D01*
X69960207Y-117730646D01*
X69955700Y-117733802D01*
X69793802Y-117895700D01*
X69790645Y-117900208D01*
X69790643Y-117900211D01*
X69786800Y-117905700D01*
X69662477Y-118083251D01*
X69660154Y-118088233D01*
X69660151Y-118088238D01*
X69655488Y-118098238D01*
X69565716Y-118290757D01*
X69564294Y-118296065D01*
X69564293Y-118296067D01*
X69515843Y-118476884D01*
X69506457Y-118511913D01*
X69486502Y-118740000D01*
X69501790Y-118914736D01*
X69501844Y-118915356D01*
X69487855Y-118984961D01*
X69438456Y-119035953D01*
X69369330Y-119052144D01*
X69302262Y-119028274D01*
X69212094Y-118962763D01*
X69212093Y-118962762D01*
X69206752Y-118958882D01*
X69200724Y-118956198D01*
X69200722Y-118956197D01*
X69038319Y-118883891D01*
X69038318Y-118883891D01*
X69032288Y-118881206D01*
X68933233Y-118860151D01*
X68851944Y-118842872D01*
X68851939Y-118842872D01*
X68845487Y-118841500D01*
X68654513Y-118841500D01*
X68648061Y-118842872D01*
X68648056Y-118842872D01*
X68566767Y-118860151D01*
X68467712Y-118881206D01*
X68461682Y-118883891D01*
X68461681Y-118883891D01*
X68299278Y-118956197D01*
X68299276Y-118956198D01*
X68293248Y-118958882D01*
X68138747Y-119071134D01*
X68134326Y-119076044D01*
X68134325Y-119076045D01*
X68062604Y-119155700D01*
X68010960Y-119213056D01*
X67963540Y-119295190D01*
X67931798Y-119350169D01*
X67915473Y-119378444D01*
X67856458Y-119560072D01*
X67855768Y-119566633D01*
X67855768Y-119566635D01*
X67853701Y-119586302D01*
X67847739Y-119643036D01*
X67847398Y-119646277D01*
X67820385Y-119711934D01*
X67811183Y-119722202D01*
X67726541Y-119806844D01*
X67720276Y-119812698D01*
X67678330Y-119849290D01*
X67642934Y-119899655D01*
X67639022Y-119904920D01*
X67601065Y-119953328D01*
X67597939Y-119960252D01*
X67595329Y-119964561D01*
X67589958Y-119973976D01*
X67587573Y-119978424D01*
X67583205Y-119984639D01*
X67564305Y-120033115D01*
X67560858Y-120041957D01*
X67558306Y-120048029D01*
X67532986Y-120104105D01*
X67531600Y-120111582D01*
X67530090Y-120116402D01*
X67527118Y-120126835D01*
X67525870Y-120131696D01*
X67523111Y-120138772D01*
X67522120Y-120146302D01*
X67515082Y-120199762D01*
X67514050Y-120206278D01*
X67502839Y-120266767D01*
X67503276Y-120274347D01*
X67503276Y-120274348D01*
X67506291Y-120326642D01*
X67506500Y-120333894D01*
X67506500Y-130937694D01*
X67486498Y-131005815D01*
X67452771Y-131040907D01*
X67414735Y-131067540D01*
X67414732Y-131067542D01*
X67410224Y-131070699D01*
X67260699Y-131220224D01*
X67139411Y-131393442D01*
X67137090Y-131398420D01*
X67137088Y-131398423D01*
X67082769Y-131514910D01*
X67050044Y-131585090D01*
X67048622Y-131590398D01*
X67048621Y-131590400D01*
X66996738Y-131784030D01*
X66995314Y-131789345D01*
X66976884Y-132000000D01*
X66995314Y-132210655D01*
X67050044Y-132414910D01*
X67139411Y-132606558D01*
X67260699Y-132779776D01*
X67410224Y-132929301D01*
X67583442Y-133050589D01*
X67588420Y-133052910D01*
X67588423Y-133052912D01*
X67770108Y-133137633D01*
X67775090Y-133139956D01*
X67780398Y-133141378D01*
X67780400Y-133141379D01*
X67974030Y-133193262D01*
X67974032Y-133193262D01*
X67979345Y-133194686D01*
X68190000Y-133213116D01*
X68400655Y-133194686D01*
X68405968Y-133193262D01*
X68405970Y-133193262D01*
X68599600Y-133141379D01*
X68599602Y-133141378D01*
X68604910Y-133139956D01*
X68609892Y-133137633D01*
X68791577Y-133052912D01*
X68791580Y-133052910D01*
X68796558Y-133050589D01*
X68969776Y-132929301D01*
X69119301Y-132779776D01*
X69240589Y-132606558D01*
X69329956Y-132414910D01*
X69384686Y-132210655D01*
X69403116Y-132000000D01*
X74596884Y-132000000D01*
X74615314Y-132210655D01*
X74670044Y-132414910D01*
X74759411Y-132606558D01*
X74880699Y-132779776D01*
X75030224Y-132929301D01*
X75203442Y-133050589D01*
X75208420Y-133052910D01*
X75208423Y-133052912D01*
X75390108Y-133137633D01*
X75395090Y-133139956D01*
X75400398Y-133141378D01*
X75400400Y-133141379D01*
X75594030Y-133193262D01*
X75594032Y-133193262D01*
X75599345Y-133194686D01*
X75810000Y-133213116D01*
X76020655Y-133194686D01*
X76025968Y-133193262D01*
X76025970Y-133193262D01*
X76219600Y-133141379D01*
X76219602Y-133141378D01*
X76224910Y-133139956D01*
X76229892Y-133137633D01*
X76411577Y-133052912D01*
X76411580Y-133052910D01*
X76416558Y-133050589D01*
X76589776Y-132929301D01*
X76739301Y-132779776D01*
X76860589Y-132606558D01*
X76949956Y-132414910D01*
X77004686Y-132210655D01*
X77023116Y-132000000D01*
X77004686Y-131789345D01*
X77003262Y-131784030D01*
X76951379Y-131590400D01*
X76951378Y-131590398D01*
X76949956Y-131585090D01*
X76917231Y-131514910D01*
X76862912Y-131398423D01*
X76862910Y-131398420D01*
X76860589Y-131393442D01*
X76739301Y-131220224D01*
X76589776Y-131070699D01*
X76416558Y-130949411D01*
X76411580Y-130947090D01*
X76411577Y-130947088D01*
X76229892Y-130862367D01*
X76229891Y-130862366D01*
X76224910Y-130860044D01*
X76219602Y-130858622D01*
X76219600Y-130858621D01*
X76025970Y-130806738D01*
X76025968Y-130806738D01*
X76020655Y-130805314D01*
X75810000Y-130786884D01*
X75599345Y-130805314D01*
X75594032Y-130806738D01*
X75594030Y-130806738D01*
X75400400Y-130858621D01*
X75400398Y-130858622D01*
X75395090Y-130860044D01*
X75390109Y-130862366D01*
X75390108Y-130862367D01*
X75208423Y-130947088D01*
X75208420Y-130947090D01*
X75203442Y-130949411D01*
X75030224Y-131070699D01*
X74880699Y-131220224D01*
X74759411Y-131393442D01*
X74757090Y-131398420D01*
X74757088Y-131398423D01*
X74702769Y-131514910D01*
X74670044Y-131585090D01*
X74668622Y-131590398D01*
X74668621Y-131590400D01*
X74616738Y-131784030D01*
X74615314Y-131789345D01*
X74596884Y-132000000D01*
X69403116Y-132000000D01*
X69384686Y-131789345D01*
X69383262Y-131784030D01*
X69331379Y-131590400D01*
X69331378Y-131590398D01*
X69329956Y-131585090D01*
X69297231Y-131514910D01*
X69242912Y-131398423D01*
X69242910Y-131398420D01*
X69240589Y-131393442D01*
X69119301Y-131220224D01*
X68969776Y-131070699D01*
X68965268Y-131067542D01*
X68965265Y-131067540D01*
X68927229Y-131040907D01*
X68882901Y-130985449D01*
X68873500Y-130937694D01*
X68873500Y-127500000D01*
X69436502Y-127500000D01*
X69456457Y-127728087D01*
X69457881Y-127733400D01*
X69457881Y-127733402D01*
X69495025Y-127872022D01*
X69515716Y-127949243D01*
X69518039Y-127954224D01*
X69518039Y-127954225D01*
X69610151Y-128151762D01*
X69610154Y-128151767D01*
X69612477Y-128156749D01*
X69743802Y-128344300D01*
X69905700Y-128506198D01*
X69910208Y-128509355D01*
X69910211Y-128509357D01*
X69929177Y-128522637D01*
X70093251Y-128637523D01*
X70098233Y-128639846D01*
X70098238Y-128639849D01*
X70294765Y-128731490D01*
X70300757Y-128734284D01*
X70306065Y-128735706D01*
X70306067Y-128735707D01*
X70516598Y-128792119D01*
X70516600Y-128792119D01*
X70521913Y-128793543D01*
X70750000Y-128813498D01*
X70978087Y-128793543D01*
X70983400Y-128792119D01*
X70983402Y-128792119D01*
X71193933Y-128735707D01*
X71193935Y-128735706D01*
X71199243Y-128734284D01*
X71205235Y-128731490D01*
X71401762Y-128639849D01*
X71401767Y-128639846D01*
X71406749Y-128637523D01*
X71480243Y-128586062D01*
X75028493Y-128586062D01*
X75037789Y-128598077D01*
X75088994Y-128633931D01*
X75098489Y-128639414D01*
X75295947Y-128731490D01*
X75306239Y-128735236D01*
X75516688Y-128791625D01*
X75527481Y-128793528D01*
X75744525Y-128812517D01*
X75755475Y-128812517D01*
X75972519Y-128793528D01*
X75983312Y-128791625D01*
X76193761Y-128735236D01*
X76204053Y-128731490D01*
X76401511Y-128639414D01*
X76411006Y-128633931D01*
X76463048Y-128597491D01*
X76471424Y-128587012D01*
X76464356Y-128573566D01*
X75762812Y-127872022D01*
X75748868Y-127864408D01*
X75747035Y-127864539D01*
X75740420Y-127868790D01*
X75034923Y-128574287D01*
X75028493Y-128586062D01*
X71480243Y-128586062D01*
X71570823Y-128522637D01*
X71589789Y-128509357D01*
X71589792Y-128509355D01*
X71594300Y-128506198D01*
X71756198Y-128344300D01*
X71887523Y-128156749D01*
X71889846Y-128151767D01*
X71889849Y-128151762D01*
X71981961Y-127954225D01*
X71981961Y-127954224D01*
X71984284Y-127949243D01*
X72004976Y-127872022D01*
X72042119Y-127733402D01*
X72042119Y-127733400D01*
X72043543Y-127728087D01*
X72063019Y-127505475D01*
X74437483Y-127505475D01*
X74456472Y-127722519D01*
X74458375Y-127733312D01*
X74514764Y-127943761D01*
X74518510Y-127954053D01*
X74610586Y-128151511D01*
X74616069Y-128161006D01*
X74652509Y-128213048D01*
X74662988Y-128221424D01*
X74676434Y-128214356D01*
X75377978Y-127512812D01*
X75384356Y-127501132D01*
X76114408Y-127501132D01*
X76114539Y-127502965D01*
X76118790Y-127509580D01*
X76824287Y-128215077D01*
X76836062Y-128221507D01*
X76848077Y-128212211D01*
X76883931Y-128161006D01*
X76889414Y-128151511D01*
X76981490Y-127954053D01*
X76985236Y-127943761D01*
X77041625Y-127733312D01*
X77043528Y-127722519D01*
X77062517Y-127505475D01*
X77062517Y-127494525D01*
X77043528Y-127277481D01*
X77041625Y-127266688D01*
X76985236Y-127056239D01*
X76981490Y-127045947D01*
X76889414Y-126848489D01*
X76883931Y-126838994D01*
X76847491Y-126786952D01*
X76837012Y-126778576D01*
X76823566Y-126785644D01*
X76122022Y-127487188D01*
X76114408Y-127501132D01*
X75384356Y-127501132D01*
X75385592Y-127498868D01*
X75385461Y-127497035D01*
X75381210Y-127490420D01*
X74675713Y-126784923D01*
X74663938Y-126778493D01*
X74651923Y-126787789D01*
X74616069Y-126838994D01*
X74610586Y-126848489D01*
X74518510Y-127045947D01*
X74514764Y-127056239D01*
X74458375Y-127266688D01*
X74456472Y-127277481D01*
X74437483Y-127494525D01*
X74437483Y-127505475D01*
X72063019Y-127505475D01*
X72063498Y-127500000D01*
X72043543Y-127271913D01*
X72006981Y-127135461D01*
X71985707Y-127056067D01*
X71985706Y-127056065D01*
X71984284Y-127050757D01*
X71909373Y-126890108D01*
X71889849Y-126848238D01*
X71889846Y-126848233D01*
X71887523Y-126843251D01*
X71793115Y-126708423D01*
X71759357Y-126660211D01*
X71759355Y-126660208D01*
X71756198Y-126655700D01*
X71594300Y-126493802D01*
X71589792Y-126490645D01*
X71589789Y-126490643D01*
X71478886Y-126412988D01*
X75028576Y-126412988D01*
X75035644Y-126426434D01*
X75737188Y-127127978D01*
X75751132Y-127135592D01*
X75752965Y-127135461D01*
X75759580Y-127131210D01*
X76465077Y-126425713D01*
X76471507Y-126413938D01*
X76462211Y-126401923D01*
X76411006Y-126366069D01*
X76401511Y-126360586D01*
X76204053Y-126268510D01*
X76193761Y-126264764D01*
X75983312Y-126208375D01*
X75972519Y-126206472D01*
X75755475Y-126187483D01*
X75744525Y-126187483D01*
X75527481Y-126206472D01*
X75516688Y-126208375D01*
X75306239Y-126264764D01*
X75295947Y-126268510D01*
X75098489Y-126360586D01*
X75088994Y-126366069D01*
X75036952Y-126402509D01*
X75028576Y-126412988D01*
X71478886Y-126412988D01*
X71463920Y-126402509D01*
X71406749Y-126362477D01*
X71401767Y-126360154D01*
X71401762Y-126360151D01*
X71204225Y-126268039D01*
X71204224Y-126268039D01*
X71199243Y-126265716D01*
X71193935Y-126264294D01*
X71193933Y-126264293D01*
X70983402Y-126207881D01*
X70983400Y-126207881D01*
X70978087Y-126206457D01*
X70750000Y-126186502D01*
X70521913Y-126206457D01*
X70516600Y-126207881D01*
X70516598Y-126207881D01*
X70306067Y-126264293D01*
X70306065Y-126264294D01*
X70300757Y-126265716D01*
X70295776Y-126268039D01*
X70295775Y-126268039D01*
X70098238Y-126360151D01*
X70098233Y-126360154D01*
X70093251Y-126362477D01*
X70036080Y-126402509D01*
X69910211Y-126490643D01*
X69910208Y-126490645D01*
X69905700Y-126493802D01*
X69743802Y-126655700D01*
X69740645Y-126660208D01*
X69740643Y-126660211D01*
X69706885Y-126708423D01*
X69612477Y-126843251D01*
X69610154Y-126848233D01*
X69610151Y-126848238D01*
X69590627Y-126890108D01*
X69515716Y-127050757D01*
X69514294Y-127056065D01*
X69514293Y-127056067D01*
X69493019Y-127135461D01*
X69456457Y-127271913D01*
X69436502Y-127500000D01*
X68873500Y-127500000D01*
X68873500Y-123820000D01*
X69486502Y-123820000D01*
X69506457Y-124048087D01*
X69507881Y-124053400D01*
X69507881Y-124053402D01*
X69545537Y-124193933D01*
X69565716Y-124269243D01*
X69568039Y-124274224D01*
X69568039Y-124274225D01*
X69660151Y-124471762D01*
X69660154Y-124471767D01*
X69662477Y-124476749D01*
X69710810Y-124545775D01*
X69760499Y-124616738D01*
X69793802Y-124664300D01*
X69955700Y-124826198D01*
X69960208Y-124829355D01*
X69960211Y-124829357D01*
X70029024Y-124877540D01*
X70143251Y-124957523D01*
X70148233Y-124959846D01*
X70148238Y-124959849D01*
X70328750Y-125044022D01*
X70350757Y-125054284D01*
X70356065Y-125055706D01*
X70356067Y-125055707D01*
X70566598Y-125112119D01*
X70566600Y-125112119D01*
X70571913Y-125113543D01*
X70800000Y-125133498D01*
X71028087Y-125113543D01*
X71033400Y-125112119D01*
X71033402Y-125112119D01*
X71243933Y-125055707D01*
X71243935Y-125055706D01*
X71249243Y-125054284D01*
X71271250Y-125044022D01*
X71451762Y-124959849D01*
X71451767Y-124959846D01*
X71456749Y-124957523D01*
X71570976Y-124877540D01*
X71639789Y-124829357D01*
X71639792Y-124829355D01*
X71644300Y-124826198D01*
X71806198Y-124664300D01*
X71839502Y-124616738D01*
X71889190Y-124545775D01*
X71937523Y-124476749D01*
X71939846Y-124471767D01*
X71939849Y-124471762D01*
X72031961Y-124274225D01*
X72031961Y-124274224D01*
X72034284Y-124269243D01*
X72054464Y-124193933D01*
X72092119Y-124053402D01*
X72092119Y-124053400D01*
X72093543Y-124048087D01*
X72113498Y-123820000D01*
X72093543Y-123591913D01*
X72093030Y-123590000D01*
X72786884Y-123590000D01*
X72805314Y-123800655D01*
X72806738Y-123805968D01*
X72806738Y-123805970D01*
X72857068Y-123993802D01*
X72860044Y-124004910D01*
X72862366Y-124009891D01*
X72862367Y-124009892D01*
X72930359Y-124155700D01*
X72949411Y-124196558D01*
X73070699Y-124369776D01*
X73220224Y-124519301D01*
X73393442Y-124640589D01*
X73398420Y-124642910D01*
X73398423Y-124642912D01*
X73456608Y-124670044D01*
X73585090Y-124729956D01*
X73590398Y-124731378D01*
X73590400Y-124731379D01*
X73784030Y-124783262D01*
X73784032Y-124783262D01*
X73789345Y-124784686D01*
X74000000Y-124803116D01*
X74210655Y-124784686D01*
X74215968Y-124783262D01*
X74215970Y-124783262D01*
X74409600Y-124731379D01*
X74409602Y-124731378D01*
X74414910Y-124729956D01*
X74543392Y-124670044D01*
X74601577Y-124642912D01*
X74601580Y-124642910D01*
X74606558Y-124640589D01*
X74779776Y-124519301D01*
X74929301Y-124369776D01*
X75050589Y-124196558D01*
X75069642Y-124155700D01*
X75137633Y-124009892D01*
X75137634Y-124009891D01*
X75139956Y-124004910D01*
X75142933Y-123993802D01*
X75193262Y-123805970D01*
X75193262Y-123805968D01*
X75194686Y-123800655D01*
X75199118Y-123750000D01*
X76186502Y-123750000D01*
X76206457Y-123978087D01*
X76207881Y-123983400D01*
X76207881Y-123983402D01*
X76254049Y-124155700D01*
X76265716Y-124199243D01*
X76268039Y-124204224D01*
X76268039Y-124204225D01*
X76360151Y-124401762D01*
X76360154Y-124401767D01*
X76362477Y-124406749D01*
X76493802Y-124594300D01*
X76655700Y-124756198D01*
X76660208Y-124759355D01*
X76660211Y-124759357D01*
X76722706Y-124803116D01*
X76843251Y-124887523D01*
X76848233Y-124889846D01*
X76848238Y-124889849D01*
X77045775Y-124981961D01*
X77050757Y-124984284D01*
X77056065Y-124985706D01*
X77056067Y-124985707D01*
X77266598Y-125042119D01*
X77266600Y-125042119D01*
X77271913Y-125043543D01*
X77500000Y-125063498D01*
X77728087Y-125043543D01*
X77733400Y-125042119D01*
X77733402Y-125042119D01*
X77943933Y-124985707D01*
X77943935Y-124985706D01*
X77949243Y-124984284D01*
X77954225Y-124981961D01*
X78151762Y-124889849D01*
X78151767Y-124889846D01*
X78156749Y-124887523D01*
X78277294Y-124803116D01*
X78339789Y-124759357D01*
X78339792Y-124759355D01*
X78344300Y-124756198D01*
X78506198Y-124594300D01*
X78637523Y-124406749D01*
X78639846Y-124401767D01*
X78639849Y-124401762D01*
X78731961Y-124204225D01*
X78731961Y-124204224D01*
X78734284Y-124199243D01*
X78745952Y-124155700D01*
X78792119Y-123983402D01*
X78792119Y-123983400D01*
X78793543Y-123978087D01*
X78813498Y-123750000D01*
X78793543Y-123521913D01*
X78755342Y-123379345D01*
X78735707Y-123306067D01*
X78735706Y-123306065D01*
X78734284Y-123300757D01*
X78672490Y-123168238D01*
X78639849Y-123098238D01*
X78639846Y-123098233D01*
X78637523Y-123093251D01*
X78506198Y-122905700D01*
X78344300Y-122743802D01*
X78339792Y-122740645D01*
X78339789Y-122740643D01*
X78253397Y-122680151D01*
X78156749Y-122612477D01*
X78151767Y-122610154D01*
X78151762Y-122610151D01*
X77954225Y-122518039D01*
X77954224Y-122518039D01*
X77949243Y-122515716D01*
X77943935Y-122514294D01*
X77943933Y-122514293D01*
X77733402Y-122457881D01*
X77733400Y-122457881D01*
X77728087Y-122456457D01*
X77500000Y-122436502D01*
X77271913Y-122456457D01*
X77266600Y-122457881D01*
X77266598Y-122457881D01*
X77056067Y-122514293D01*
X77056065Y-122514294D01*
X77050757Y-122515716D01*
X77045776Y-122518039D01*
X77045775Y-122518039D01*
X76848238Y-122610151D01*
X76848233Y-122610154D01*
X76843251Y-122612477D01*
X76746603Y-122680151D01*
X76660211Y-122740643D01*
X76660208Y-122740645D01*
X76655700Y-122743802D01*
X76493802Y-122905700D01*
X76362477Y-123093251D01*
X76360154Y-123098233D01*
X76360151Y-123098238D01*
X76327510Y-123168238D01*
X76265716Y-123300757D01*
X76264294Y-123306065D01*
X76264293Y-123306067D01*
X76244658Y-123379345D01*
X76206457Y-123521913D01*
X76186502Y-123750000D01*
X75199118Y-123750000D01*
X75213116Y-123590000D01*
X75194686Y-123379345D01*
X75175051Y-123306067D01*
X75141379Y-123180400D01*
X75141378Y-123180398D01*
X75139956Y-123175090D01*
X75136761Y-123168238D01*
X75052912Y-122988423D01*
X75052910Y-122988420D01*
X75050589Y-122983442D01*
X74929301Y-122810224D01*
X74779776Y-122660699D01*
X74606558Y-122539411D01*
X74601580Y-122537090D01*
X74601577Y-122537088D01*
X74419892Y-122452367D01*
X74419891Y-122452366D01*
X74414910Y-122450044D01*
X74409602Y-122448622D01*
X74409600Y-122448621D01*
X74215970Y-122396738D01*
X74215968Y-122396738D01*
X74210655Y-122395314D01*
X74000000Y-122376884D01*
X73789345Y-122395314D01*
X73784032Y-122396738D01*
X73784030Y-122396738D01*
X73590400Y-122448621D01*
X73590398Y-122448622D01*
X73585090Y-122450044D01*
X73580109Y-122452366D01*
X73580108Y-122452367D01*
X73398423Y-122537088D01*
X73398420Y-122537090D01*
X73393442Y-122539411D01*
X73220224Y-122660699D01*
X73070699Y-122810224D01*
X72949411Y-122983442D01*
X72947090Y-122988420D01*
X72947088Y-122988423D01*
X72863239Y-123168238D01*
X72860044Y-123175090D01*
X72858622Y-123180398D01*
X72858621Y-123180400D01*
X72824949Y-123306067D01*
X72805314Y-123379345D01*
X72786884Y-123590000D01*
X72093030Y-123590000D01*
X72092119Y-123586598D01*
X72035707Y-123376067D01*
X72035706Y-123376065D01*
X72034284Y-123370757D01*
X71943044Y-123175090D01*
X71939849Y-123168238D01*
X71939846Y-123168233D01*
X71937523Y-123163251D01*
X71806198Y-122975700D01*
X71644300Y-122813802D01*
X71639792Y-122810645D01*
X71639789Y-122810643D01*
X71539818Y-122740643D01*
X71456749Y-122682477D01*
X71451767Y-122680154D01*
X71451762Y-122680151D01*
X71416951Y-122663919D01*
X71363666Y-122617002D01*
X71344205Y-122548725D01*
X71364747Y-122480765D01*
X71416951Y-122435529D01*
X71451511Y-122419414D01*
X71461007Y-122413931D01*
X71639467Y-122288972D01*
X71647875Y-122281916D01*
X71801916Y-122127875D01*
X71808972Y-122119467D01*
X71933931Y-121941007D01*
X71939414Y-121931511D01*
X72031490Y-121734053D01*
X72035236Y-121723761D01*
X72081394Y-121551497D01*
X72081058Y-121537401D01*
X72073116Y-121534000D01*
X69532033Y-121534000D01*
X69518502Y-121537973D01*
X69517273Y-121546522D01*
X69564764Y-121723761D01*
X69568510Y-121734053D01*
X69660586Y-121931511D01*
X69666069Y-121941007D01*
X69791028Y-122119467D01*
X69798084Y-122127875D01*
X69952125Y-122281916D01*
X69960533Y-122288972D01*
X70138993Y-122413931D01*
X70148489Y-122419414D01*
X70183049Y-122435529D01*
X70236334Y-122482446D01*
X70255795Y-122550723D01*
X70235253Y-122618683D01*
X70183049Y-122663919D01*
X70148238Y-122680151D01*
X70148233Y-122680154D01*
X70143251Y-122682477D01*
X70060182Y-122740643D01*
X69960211Y-122810643D01*
X69960208Y-122810645D01*
X69955700Y-122813802D01*
X69793802Y-122975700D01*
X69662477Y-123163251D01*
X69660154Y-123168233D01*
X69660151Y-123168238D01*
X69656956Y-123175090D01*
X69565716Y-123370757D01*
X69564294Y-123376065D01*
X69564293Y-123376067D01*
X69507881Y-123586598D01*
X69506457Y-123591913D01*
X69486502Y-123820000D01*
X68873500Y-123820000D01*
X68873500Y-120754579D01*
X68893502Y-120686458D01*
X68947158Y-120639965D01*
X68973302Y-120631333D01*
X69025824Y-120620169D01*
X69025833Y-120620166D01*
X69032288Y-120618794D01*
X69099580Y-120588834D01*
X69200722Y-120543803D01*
X69200724Y-120543802D01*
X69206752Y-120541118D01*
X69361253Y-120428866D01*
X69489040Y-120286944D01*
X69570240Y-120146302D01*
X69581223Y-120127279D01*
X69581224Y-120127278D01*
X69584527Y-120121556D01*
X69643542Y-119939928D01*
X69648151Y-119896081D01*
X69663504Y-119750000D01*
X69664971Y-119750154D01*
X69682816Y-119689381D01*
X69736472Y-119642888D01*
X69806746Y-119632784D01*
X69871326Y-119662278D01*
X69877909Y-119668407D01*
X69955700Y-119746198D01*
X69960208Y-119749355D01*
X69960211Y-119749357D01*
X69995254Y-119773894D01*
X70143251Y-119877523D01*
X70148233Y-119879846D01*
X70148238Y-119879849D01*
X70183049Y-119896081D01*
X70236334Y-119942998D01*
X70255795Y-120011275D01*
X70235253Y-120079235D01*
X70183049Y-120124471D01*
X70148489Y-120140586D01*
X70138993Y-120146069D01*
X69960533Y-120271028D01*
X69952125Y-120278084D01*
X69798084Y-120432125D01*
X69791028Y-120440533D01*
X69666069Y-120618993D01*
X69660586Y-120628489D01*
X69568510Y-120825947D01*
X69564764Y-120836239D01*
X69518606Y-121008503D01*
X69518942Y-121022599D01*
X69526884Y-121026000D01*
X72067967Y-121026000D01*
X72081498Y-121022027D01*
X72082727Y-121013478D01*
X72035236Y-120836239D01*
X72031490Y-120825947D01*
X71939414Y-120628489D01*
X71933931Y-120618993D01*
X71808972Y-120440533D01*
X71801916Y-120432125D01*
X71647875Y-120278084D01*
X71639467Y-120271028D01*
X71461007Y-120146069D01*
X71451511Y-120140586D01*
X71416951Y-120124471D01*
X71363666Y-120077554D01*
X71344205Y-120009277D01*
X71364747Y-119941317D01*
X71416951Y-119896081D01*
X71451762Y-119879849D01*
X71451767Y-119879846D01*
X71456749Y-119877523D01*
X71604746Y-119773894D01*
X71639789Y-119749357D01*
X71639792Y-119749355D01*
X71644300Y-119746198D01*
X71806198Y-119584300D01*
X71825733Y-119556402D01*
X71845619Y-119528001D01*
X71881171Y-119477228D01*
X71936627Y-119432901D01*
X71984383Y-119423500D01*
X73231955Y-119423500D01*
X73240524Y-119423792D01*
X73288458Y-119427060D01*
X73288462Y-119427060D01*
X73296034Y-119427576D01*
X73303511Y-119426271D01*
X73303514Y-119426271D01*
X73356647Y-119416998D01*
X73363171Y-119416035D01*
X73416691Y-119409558D01*
X73424235Y-119408645D01*
X73431345Y-119405958D01*
X73436248Y-119404754D01*
X73446734Y-119401886D01*
X73451526Y-119400439D01*
X73459004Y-119399134D01*
X73472231Y-119393328D01*
X73515341Y-119374405D01*
X73521446Y-119371914D01*
X73571882Y-119352855D01*
X73571885Y-119352853D01*
X73578989Y-119350169D01*
X73585246Y-119345869D01*
X73589714Y-119343533D01*
X73599160Y-119338275D01*
X73603526Y-119335693D01*
X73610485Y-119332638D01*
X73659304Y-119295177D01*
X73664623Y-119291314D01*
X73709065Y-119260769D01*
X73715326Y-119256466D01*
X73755233Y-119211676D01*
X73760213Y-119206402D01*
X74216615Y-118750000D01*
X76186502Y-118750000D01*
X76206457Y-118978087D01*
X76207881Y-118983400D01*
X76207881Y-118983402D01*
X76261614Y-119183933D01*
X76265716Y-119199243D01*
X76268039Y-119204224D01*
X76268039Y-119204225D01*
X76360151Y-119401762D01*
X76360154Y-119401767D01*
X76362477Y-119406749D01*
X76415138Y-119481957D01*
X76489529Y-119588197D01*
X76493802Y-119594300D01*
X76655700Y-119756198D01*
X76660208Y-119759355D01*
X76660211Y-119759357D01*
X76728030Y-119806844D01*
X76843251Y-119887523D01*
X76848233Y-119889846D01*
X76848238Y-119889849D01*
X77045775Y-119981961D01*
X77050757Y-119984284D01*
X77056065Y-119985706D01*
X77056067Y-119985707D01*
X77266598Y-120042119D01*
X77266600Y-120042119D01*
X77271913Y-120043543D01*
X77500000Y-120063498D01*
X77728087Y-120043543D01*
X77733400Y-120042119D01*
X77733402Y-120042119D01*
X77943933Y-119985707D01*
X77943935Y-119985706D01*
X77949243Y-119984284D01*
X77954225Y-119981961D01*
X78151762Y-119889849D01*
X78151767Y-119889846D01*
X78156749Y-119887523D01*
X78271970Y-119806844D01*
X78339789Y-119759357D01*
X78339792Y-119759355D01*
X78344300Y-119756198D01*
X78506198Y-119594300D01*
X78510472Y-119588197D01*
X78584862Y-119481957D01*
X78637523Y-119406749D01*
X78639846Y-119401767D01*
X78639849Y-119401762D01*
X78731961Y-119204225D01*
X78731961Y-119204224D01*
X78734284Y-119199243D01*
X78738387Y-119183933D01*
X78792119Y-118983402D01*
X78792119Y-118983400D01*
X78793543Y-118978087D01*
X78813498Y-118750000D01*
X78793543Y-118521913D01*
X78792119Y-118516598D01*
X78735707Y-118306067D01*
X78735706Y-118306065D01*
X78734284Y-118300757D01*
X78682638Y-118190000D01*
X78639849Y-118098238D01*
X78639846Y-118098233D01*
X78637523Y-118093251D01*
X78506198Y-117905700D01*
X78344300Y-117743802D01*
X78339792Y-117740645D01*
X78339789Y-117740643D01*
X78261611Y-117685902D01*
X78156749Y-117612477D01*
X78151767Y-117610154D01*
X78151762Y-117610151D01*
X77954225Y-117518039D01*
X77954224Y-117518039D01*
X77949243Y-117515716D01*
X77943935Y-117514294D01*
X77943933Y-117514293D01*
X77733402Y-117457881D01*
X77733400Y-117457881D01*
X77728087Y-117456457D01*
X77500000Y-117436502D01*
X77271913Y-117456457D01*
X77266600Y-117457881D01*
X77266598Y-117457881D01*
X77056067Y-117514293D01*
X77056065Y-117514294D01*
X77050757Y-117515716D01*
X77045776Y-117518039D01*
X77045775Y-117518039D01*
X76848238Y-117610151D01*
X76848233Y-117610154D01*
X76843251Y-117612477D01*
X76738389Y-117685902D01*
X76660211Y-117740643D01*
X76660208Y-117740645D01*
X76655700Y-117743802D01*
X76493802Y-117905700D01*
X76362477Y-118093251D01*
X76360154Y-118098233D01*
X76360151Y-118098238D01*
X76317362Y-118190000D01*
X76265716Y-118300757D01*
X76264294Y-118306065D01*
X76264293Y-118306067D01*
X76207881Y-118516598D01*
X76206457Y-118521913D01*
X76186502Y-118750000D01*
X74216615Y-118750000D01*
X76963459Y-116003156D01*
X76969724Y-115997302D01*
X76992546Y-115977393D01*
X77011670Y-115960710D01*
X77047066Y-115910345D01*
X77050980Y-115905077D01*
X77084248Y-115862649D01*
X77088935Y-115856672D01*
X77092061Y-115849748D01*
X77094671Y-115845439D01*
X77100042Y-115836024D01*
X77102427Y-115831576D01*
X77106795Y-115825361D01*
X77129144Y-115768039D01*
X77131698Y-115761962D01*
X77136758Y-115750757D01*
X77157014Y-115705895D01*
X77158400Y-115698418D01*
X77159910Y-115693598D01*
X77162878Y-115683182D01*
X77164131Y-115678302D01*
X77166889Y-115671228D01*
X77174921Y-115610223D01*
X77175953Y-115603710D01*
X77185777Y-115550701D01*
X77185777Y-115550699D01*
X77187161Y-115543232D01*
X77183709Y-115483357D01*
X77183500Y-115476105D01*
X77183500Y-114146994D01*
X77203502Y-114078873D01*
X77215865Y-114062683D01*
X77234617Y-114041857D01*
X77234620Y-114041853D01*
X77239040Y-114036944D01*
X77334527Y-113871556D01*
X77393542Y-113689928D01*
X77413504Y-113500000D01*
X77393542Y-113310072D01*
X77334527Y-113128444D01*
X77239040Y-112963056D01*
X77193970Y-112913000D01*
X77115675Y-112826045D01*
X77115674Y-112826044D01*
X77111253Y-112821134D01*
X76970666Y-112718991D01*
X76962094Y-112712763D01*
X76962093Y-112712762D01*
X76956752Y-112708882D01*
X76950724Y-112706198D01*
X76950722Y-112706197D01*
X76788319Y-112633891D01*
X76788318Y-112633891D01*
X76782288Y-112631206D01*
X76688012Y-112611167D01*
X76601944Y-112592872D01*
X76601939Y-112592872D01*
X76595487Y-112591500D01*
X76404513Y-112591500D01*
X76398061Y-112592872D01*
X76398056Y-112592872D01*
X76311988Y-112611167D01*
X76217712Y-112631206D01*
X76211682Y-112633891D01*
X76211681Y-112633891D01*
X76049278Y-112706197D01*
X76049276Y-112706198D01*
X76043248Y-112708882D01*
X76037907Y-112712762D01*
X76037906Y-112712763D01*
X76029334Y-112718991D01*
X75888747Y-112821134D01*
X75884326Y-112826044D01*
X75884325Y-112826045D01*
X75806031Y-112913000D01*
X75760960Y-112963056D01*
X75665473Y-113128444D01*
X75606458Y-113310072D01*
X75586496Y-113500000D01*
X75606458Y-113689928D01*
X75665473Y-113871556D01*
X75760960Y-114036944D01*
X75765380Y-114041853D01*
X75765383Y-114041857D01*
X75784135Y-114062683D01*
X75814853Y-114126690D01*
X75816500Y-114146994D01*
X75816500Y-115164695D01*
X75796498Y-115232816D01*
X75779595Y-115253790D01*
X75365773Y-115667612D01*
X75303461Y-115701638D01*
X75232646Y-115696573D01*
X75175810Y-115654026D01*
X75154971Y-115611128D01*
X75152984Y-115603710D01*
X75139956Y-115555090D01*
X75136761Y-115548238D01*
X75052912Y-115368423D01*
X75052910Y-115368420D01*
X75050589Y-115363442D01*
X74929301Y-115190224D01*
X74779776Y-115040699D01*
X74606558Y-114919411D01*
X74601580Y-114917090D01*
X74601577Y-114917088D01*
X74419892Y-114832367D01*
X74419891Y-114832366D01*
X74414910Y-114830044D01*
X74409602Y-114828622D01*
X74409600Y-114828621D01*
X74215970Y-114776738D01*
X74215968Y-114776738D01*
X74210655Y-114775314D01*
X74000000Y-114756884D01*
X73789345Y-114775314D01*
X73784032Y-114776738D01*
X73784030Y-114776738D01*
X73590400Y-114828621D01*
X73590398Y-114828622D01*
X73585090Y-114830044D01*
X73580109Y-114832366D01*
X73580108Y-114832367D01*
X73398423Y-114917088D01*
X73398420Y-114917090D01*
X73393442Y-114919411D01*
X73220224Y-115040699D01*
X73070699Y-115190224D01*
X72949411Y-115363442D01*
X72947090Y-115368420D01*
X72947088Y-115368423D01*
X72863239Y-115548238D01*
X72860044Y-115555090D01*
X72858622Y-115560398D01*
X72858621Y-115560400D01*
X72815475Y-115721424D01*
X72805314Y-115759345D01*
X72786884Y-115970000D01*
X72805314Y-116180655D01*
X72806738Y-116185968D01*
X72806738Y-116185970D01*
X72835691Y-116294022D01*
X72860044Y-116384910D01*
X72949411Y-116576558D01*
X73070699Y-116749776D01*
X73220224Y-116899301D01*
X73393442Y-117020589D01*
X73398420Y-117022910D01*
X73398423Y-117022912D01*
X73580108Y-117107633D01*
X73585090Y-117109956D01*
X73590398Y-117111378D01*
X73590400Y-117111379D01*
X73608269Y-117116167D01*
X73641129Y-117124972D01*
X73701750Y-117161922D01*
X73732772Y-117225783D01*
X73724344Y-117296277D01*
X73697612Y-117335773D01*
X73013790Y-118019595D01*
X72951478Y-118053621D01*
X72924695Y-118056500D01*
X71984383Y-118056500D01*
X71916262Y-118036498D01*
X71881170Y-118002771D01*
X71861046Y-117974030D01*
X71813200Y-117905700D01*
X71809357Y-117900211D01*
X71809355Y-117900209D01*
X71806198Y-117895700D01*
X71644300Y-117733802D01*
X71639789Y-117730643D01*
X71635576Y-117727108D01*
X71636527Y-117725974D01*
X71596529Y-117675929D01*
X71589224Y-117605310D01*
X71621258Y-117541951D01*
X71682462Y-117505970D01*
X71699517Y-117502918D01*
X71710316Y-117501745D01*
X71846705Y-117450615D01*
X71963261Y-117363261D01*
X72050615Y-117246705D01*
X72101745Y-117110316D01*
X72108500Y-117048134D01*
X72108500Y-115351866D01*
X72101745Y-115289684D01*
X72050615Y-115153295D01*
X71963261Y-115036739D01*
X71846705Y-114949385D01*
X71710316Y-114898255D01*
X71648134Y-114891500D01*
X69951866Y-114891500D01*
X69889684Y-114898255D01*
X69753295Y-114949385D01*
X69636739Y-115036739D01*
X69549385Y-115153295D01*
X69498255Y-115289684D01*
X69491500Y-115351866D01*
X69491500Y-115390500D01*
X69471498Y-115458621D01*
X69417842Y-115505114D01*
X69365500Y-115516500D01*
X68828045Y-115516500D01*
X68819476Y-115516208D01*
X68771542Y-115512940D01*
X68771538Y-115512940D01*
X68763966Y-115512424D01*
X68756489Y-115513729D01*
X68756486Y-115513729D01*
X68703353Y-115523002D01*
X68696829Y-115523965D01*
X68643309Y-115530442D01*
X68635765Y-115531355D01*
X68628655Y-115534042D01*
X68623752Y-115535246D01*
X68613266Y-115538114D01*
X68608474Y-115539561D01*
X68600996Y-115540866D01*
X68594044Y-115543918D01*
X68594043Y-115543918D01*
X68544659Y-115565595D01*
X68538554Y-115568086D01*
X68488118Y-115587145D01*
X68488115Y-115587147D01*
X68481011Y-115589831D01*
X68474754Y-115594131D01*
X68470286Y-115596467D01*
X68460840Y-115601725D01*
X68456474Y-115604307D01*
X68449515Y-115607362D01*
X68400696Y-115644823D01*
X68395377Y-115648686D01*
X68362579Y-115671228D01*
X68344674Y-115683534D01*
X68339623Y-115689203D01*
X68304768Y-115728323D01*
X68299787Y-115733598D01*
X64786541Y-119246844D01*
X64780276Y-119252698D01*
X64738330Y-119289290D01*
X64702934Y-119339655D01*
X64699022Y-119344920D01*
X64661065Y-119393328D01*
X64657939Y-119400252D01*
X64655329Y-119404561D01*
X64649958Y-119413976D01*
X64647573Y-119418424D01*
X64643205Y-119424639D01*
X64622701Y-119477229D01*
X64620858Y-119481957D01*
X64618306Y-119488029D01*
X64592986Y-119544105D01*
X64591600Y-119551582D01*
X64590090Y-119556402D01*
X64587118Y-119566835D01*
X64585870Y-119571696D01*
X64583111Y-119578772D01*
X64581661Y-119589789D01*
X64575082Y-119639762D01*
X64574050Y-119646277D01*
X64562839Y-119706767D01*
X64563276Y-119714347D01*
X64563276Y-119714348D01*
X64566291Y-119766642D01*
X64566500Y-119773894D01*
X64566500Y-120588834D01*
X64546498Y-120656955D01*
X64492842Y-120703448D01*
X64422568Y-120713552D01*
X64357988Y-120684058D01*
X64326305Y-120642084D01*
X64319849Y-120628238D01*
X64319846Y-120628233D01*
X64317523Y-120623251D01*
X64212786Y-120473671D01*
X64189357Y-120440211D01*
X64189355Y-120440208D01*
X64186198Y-120435700D01*
X64024300Y-120273802D01*
X64019792Y-120270645D01*
X64019789Y-120270643D01*
X63918560Y-120199762D01*
X63836749Y-120142477D01*
X63831767Y-120140154D01*
X63831762Y-120140151D01*
X63797543Y-120124195D01*
X63744258Y-120077278D01*
X63724797Y-120009001D01*
X63745339Y-119941041D01*
X63797543Y-119895805D01*
X63831762Y-119879849D01*
X63831767Y-119879846D01*
X63836749Y-119877523D01*
X63984746Y-119773894D01*
X64019789Y-119749357D01*
X64019792Y-119749355D01*
X64024300Y-119746198D01*
X64186198Y-119584300D01*
X64201879Y-119561906D01*
X64255851Y-119484825D01*
X64317523Y-119396749D01*
X64319846Y-119391767D01*
X64319849Y-119391762D01*
X64411961Y-119194225D01*
X64411961Y-119194224D01*
X64414284Y-119189243D01*
X64442634Y-119083442D01*
X64472119Y-118973402D01*
X64472119Y-118973400D01*
X64473543Y-118968087D01*
X64493498Y-118740000D01*
X64473543Y-118511913D01*
X64464157Y-118476884D01*
X64415707Y-118296067D01*
X64415706Y-118296065D01*
X64414284Y-118290757D01*
X64324512Y-118098238D01*
X64319849Y-118088238D01*
X64319846Y-118088233D01*
X64317523Y-118083251D01*
X64193200Y-117905700D01*
X64189357Y-117900211D01*
X64189355Y-117900208D01*
X64186198Y-117895700D01*
X64024300Y-117733802D01*
X64019792Y-117730645D01*
X64019789Y-117730643D01*
X63941611Y-117675902D01*
X63836749Y-117602477D01*
X63831767Y-117600154D01*
X63831762Y-117600151D01*
X63797543Y-117584195D01*
X63744258Y-117537278D01*
X63724797Y-117469001D01*
X63745339Y-117401041D01*
X63797543Y-117355805D01*
X63831762Y-117339849D01*
X63831767Y-117339846D01*
X63836749Y-117337523D01*
X63996330Y-117225783D01*
X64019789Y-117209357D01*
X64019792Y-117209355D01*
X64024300Y-117206198D01*
X64186198Y-117044300D01*
X64210566Y-117009500D01*
X64284786Y-116903502D01*
X64317523Y-116856749D01*
X64319846Y-116851767D01*
X64319849Y-116851762D01*
X64411961Y-116654225D01*
X64411961Y-116654224D01*
X64414284Y-116649243D01*
X64473543Y-116428087D01*
X64493498Y-116200000D01*
X64473543Y-115971913D01*
X64471879Y-115965704D01*
X64415707Y-115756067D01*
X64415706Y-115756065D01*
X64414284Y-115750757D01*
X64389018Y-115696573D01*
X64319849Y-115548238D01*
X64319846Y-115548233D01*
X64317523Y-115543251D01*
X64244098Y-115438389D01*
X64189357Y-115360211D01*
X64189355Y-115360208D01*
X64186198Y-115355700D01*
X64024300Y-115193802D01*
X64019792Y-115190645D01*
X64019789Y-115190643D01*
X63941611Y-115135902D01*
X63836749Y-115062477D01*
X63831767Y-115060154D01*
X63831762Y-115060151D01*
X63634225Y-114968039D01*
X63634224Y-114968039D01*
X63629243Y-114965716D01*
X63623935Y-114964294D01*
X63623933Y-114964293D01*
X63413402Y-114907881D01*
X63413400Y-114907881D01*
X63408087Y-114906457D01*
X63180000Y-114886502D01*
X62951913Y-114906457D01*
X62946600Y-114907881D01*
X62946598Y-114907881D01*
X62736067Y-114964293D01*
X62736065Y-114964294D01*
X62730757Y-114965716D01*
X62725776Y-114968039D01*
X62725775Y-114968039D01*
X62528238Y-115060151D01*
X62528233Y-115060154D01*
X62523251Y-115062477D01*
X62418389Y-115135902D01*
X62340211Y-115190643D01*
X62340208Y-115190645D01*
X62335700Y-115193802D01*
X62173802Y-115355700D01*
X62170645Y-115360208D01*
X62170643Y-115360211D01*
X62115902Y-115438389D01*
X62042477Y-115543251D01*
X62040154Y-115548233D01*
X62040151Y-115548238D01*
X61970982Y-115696573D01*
X61945716Y-115750757D01*
X61944294Y-115756065D01*
X61944293Y-115756067D01*
X61888121Y-115965704D01*
X61886457Y-115971913D01*
X61866502Y-116200000D01*
X61886457Y-116428087D01*
X61945716Y-116649243D01*
X61948039Y-116654224D01*
X61948039Y-116654225D01*
X62040151Y-116851762D01*
X62040154Y-116851767D01*
X62042477Y-116856749D01*
X62075214Y-116903502D01*
X62149435Y-117009500D01*
X62173802Y-117044300D01*
X62335700Y-117206198D01*
X62340208Y-117209355D01*
X62340211Y-117209357D01*
X62363670Y-117225783D01*
X62523251Y-117337523D01*
X62528233Y-117339846D01*
X62528238Y-117339849D01*
X62562457Y-117355805D01*
X62615742Y-117402722D01*
X62635203Y-117470999D01*
X62614661Y-117538959D01*
X62562457Y-117584195D01*
X62528238Y-117600151D01*
X62528233Y-117600154D01*
X62523251Y-117602477D01*
X62418389Y-117675902D01*
X62340211Y-117730643D01*
X62340208Y-117730645D01*
X62335700Y-117733802D01*
X62173802Y-117895700D01*
X62170645Y-117900208D01*
X62170643Y-117900211D01*
X62166800Y-117905700D01*
X62042477Y-118083251D01*
X62040154Y-118088233D01*
X62040151Y-118088238D01*
X62035488Y-118098238D01*
X61945716Y-118290757D01*
X61944294Y-118296065D01*
X61944293Y-118296067D01*
X61895843Y-118476884D01*
X61886457Y-118511913D01*
X61866502Y-118740000D01*
X61886457Y-118968087D01*
X61887881Y-118973400D01*
X61887881Y-118973402D01*
X61917367Y-119083442D01*
X61945716Y-119189243D01*
X61948039Y-119194224D01*
X61948039Y-119194225D01*
X62040151Y-119391762D01*
X62040154Y-119391767D01*
X62042477Y-119396749D01*
X62104149Y-119484825D01*
X62158122Y-119561906D01*
X62173802Y-119584300D01*
X62335700Y-119746198D01*
X62340208Y-119749355D01*
X62340211Y-119749357D01*
X62375254Y-119773894D01*
X62523251Y-119877523D01*
X62528233Y-119879846D01*
X62528238Y-119879849D01*
X62562457Y-119895805D01*
X62615742Y-119942722D01*
X62635203Y-120010999D01*
X62614661Y-120078959D01*
X62562457Y-120124195D01*
X62528238Y-120140151D01*
X62528233Y-120140154D01*
X62523251Y-120142477D01*
X62441440Y-120199762D01*
X62340211Y-120270643D01*
X62340208Y-120270645D01*
X62335700Y-120273802D01*
X62173802Y-120435700D01*
X62170645Y-120440208D01*
X62170643Y-120440211D01*
X62147214Y-120473671D01*
X62042477Y-120623251D01*
X62040154Y-120628233D01*
X62040151Y-120628238D01*
X61981238Y-120754579D01*
X61945716Y-120830757D01*
X61944294Y-120836065D01*
X61944293Y-120836067D01*
X61898706Y-121006198D01*
X61886457Y-121051913D01*
X61866502Y-121280000D01*
X53778630Y-121280000D01*
X53943933Y-121235707D01*
X53943935Y-121235706D01*
X53949243Y-121234284D01*
X53954225Y-121231961D01*
X54151762Y-121139849D01*
X54151767Y-121139846D01*
X54156749Y-121137523D01*
X54271186Y-121057393D01*
X54339789Y-121009357D01*
X54339792Y-121009355D01*
X54344300Y-121006198D01*
X54506198Y-120844300D01*
X54511843Y-120836239D01*
X54564098Y-120761611D01*
X54637523Y-120656749D01*
X54639846Y-120651767D01*
X54639849Y-120651762D01*
X54731961Y-120454225D01*
X54731961Y-120454224D01*
X54734284Y-120449243D01*
X54779305Y-120281226D01*
X54792119Y-120233402D01*
X54792119Y-120233400D01*
X54793543Y-120228087D01*
X54813498Y-120000000D01*
X54793543Y-119771913D01*
X54787713Y-119750154D01*
X54771595Y-119690000D01*
X58786884Y-119690000D01*
X58805314Y-119900655D01*
X58806738Y-119905968D01*
X58806738Y-119905970D01*
X58848948Y-120063498D01*
X58860044Y-120104910D01*
X58862366Y-120109891D01*
X58862367Y-120109892D01*
X58942262Y-120281226D01*
X58949411Y-120296558D01*
X59070699Y-120469776D01*
X59220224Y-120619301D01*
X59393442Y-120740589D01*
X59398420Y-120742910D01*
X59398423Y-120742912D01*
X59580108Y-120827633D01*
X59585090Y-120829956D01*
X59590398Y-120831378D01*
X59590400Y-120831379D01*
X59784030Y-120883262D01*
X59784032Y-120883262D01*
X59789345Y-120884686D01*
X60000000Y-120903116D01*
X60210655Y-120884686D01*
X60215968Y-120883262D01*
X60215970Y-120883262D01*
X60409600Y-120831379D01*
X60409602Y-120831378D01*
X60414910Y-120829956D01*
X60419892Y-120827633D01*
X60601577Y-120742912D01*
X60601580Y-120742910D01*
X60606558Y-120740589D01*
X60779776Y-120619301D01*
X60929301Y-120469776D01*
X61050589Y-120296558D01*
X61057739Y-120281226D01*
X61137633Y-120109892D01*
X61137634Y-120109891D01*
X61139956Y-120104910D01*
X61151053Y-120063498D01*
X61193262Y-119905970D01*
X61193262Y-119905968D01*
X61194686Y-119900655D01*
X61213116Y-119690000D01*
X61194686Y-119479345D01*
X61193262Y-119474030D01*
X61141379Y-119280400D01*
X61141378Y-119280398D01*
X61139956Y-119275090D01*
X61133278Y-119260769D01*
X61052912Y-119088423D01*
X61052910Y-119088420D01*
X61050589Y-119083442D01*
X60929301Y-118910224D01*
X60779776Y-118760699D01*
X60606558Y-118639411D01*
X60601580Y-118637090D01*
X60601577Y-118637088D01*
X60419892Y-118552367D01*
X60419891Y-118552366D01*
X60414910Y-118550044D01*
X60409602Y-118548622D01*
X60409600Y-118548621D01*
X60215970Y-118496738D01*
X60215968Y-118496738D01*
X60210655Y-118495314D01*
X60000000Y-118476884D01*
X59789345Y-118495314D01*
X59784032Y-118496738D01*
X59784030Y-118496738D01*
X59590400Y-118548621D01*
X59590398Y-118548622D01*
X59585090Y-118550044D01*
X59580109Y-118552366D01*
X59580108Y-118552367D01*
X59398423Y-118637088D01*
X59398420Y-118637090D01*
X59393442Y-118639411D01*
X59220224Y-118760699D01*
X59070699Y-118910224D01*
X58949411Y-119083442D01*
X58947090Y-119088420D01*
X58947088Y-119088423D01*
X58866722Y-119260769D01*
X58860044Y-119275090D01*
X58858622Y-119280398D01*
X58858621Y-119280400D01*
X58806738Y-119474030D01*
X58805314Y-119479345D01*
X58786884Y-119690000D01*
X54771595Y-119690000D01*
X54735707Y-119556067D01*
X54735706Y-119556065D01*
X54734284Y-119550757D01*
X54703540Y-119484825D01*
X54639849Y-119348238D01*
X54639846Y-119348233D01*
X54637523Y-119343251D01*
X54506198Y-119155700D01*
X54344300Y-118993802D01*
X54339792Y-118990645D01*
X54339789Y-118990643D01*
X54231382Y-118914736D01*
X54156749Y-118862477D01*
X54151767Y-118860154D01*
X54151762Y-118860151D01*
X53954225Y-118768039D01*
X53954224Y-118768039D01*
X53949243Y-118765716D01*
X53943935Y-118764294D01*
X53943933Y-118764293D01*
X53733402Y-118707881D01*
X53733400Y-118707881D01*
X53728087Y-118706457D01*
X53500000Y-118686502D01*
X53271913Y-118706457D01*
X53266600Y-118707881D01*
X53266598Y-118707881D01*
X53056067Y-118764293D01*
X53056065Y-118764294D01*
X53050757Y-118765716D01*
X53045776Y-118768039D01*
X53045775Y-118768039D01*
X52848238Y-118860151D01*
X52848233Y-118860154D01*
X52843251Y-118862477D01*
X52768618Y-118914736D01*
X52660211Y-118990643D01*
X52660208Y-118990645D01*
X52655700Y-118993802D01*
X52493802Y-119155700D01*
X52362477Y-119343251D01*
X52360154Y-119348233D01*
X52360151Y-119348238D01*
X52296460Y-119484825D01*
X52265716Y-119550757D01*
X52264294Y-119556065D01*
X52264293Y-119556067D01*
X52212287Y-119750154D01*
X52206457Y-119771913D01*
X52186502Y-120000000D01*
X50508000Y-120000000D01*
X50508000Y-118190000D01*
X55786884Y-118190000D01*
X55805314Y-118400655D01*
X55806738Y-118405968D01*
X55806738Y-118405970D01*
X55835126Y-118511913D01*
X55860044Y-118604910D01*
X55862366Y-118609891D01*
X55862367Y-118609892D01*
X55934366Y-118764293D01*
X55949411Y-118796558D01*
X56070699Y-118969776D01*
X56220224Y-119119301D01*
X56393442Y-119240589D01*
X56398420Y-119242910D01*
X56398423Y-119242912D01*
X56502222Y-119291314D01*
X56585090Y-119329956D01*
X56590398Y-119331378D01*
X56590400Y-119331379D01*
X56784030Y-119383262D01*
X56784032Y-119383262D01*
X56789345Y-119384686D01*
X57000000Y-119403116D01*
X57210655Y-119384686D01*
X57215968Y-119383262D01*
X57215970Y-119383262D01*
X57409600Y-119331379D01*
X57409602Y-119331378D01*
X57414910Y-119329956D01*
X57497778Y-119291314D01*
X57601577Y-119242912D01*
X57601580Y-119242910D01*
X57606558Y-119240589D01*
X57779776Y-119119301D01*
X57929301Y-118969776D01*
X58050589Y-118796558D01*
X58065635Y-118764293D01*
X58137633Y-118609892D01*
X58137634Y-118609891D01*
X58139956Y-118604910D01*
X58164875Y-118511913D01*
X58193262Y-118405970D01*
X58193262Y-118405968D01*
X58194686Y-118400655D01*
X58213116Y-118190000D01*
X58194686Y-117979345D01*
X58173482Y-117900211D01*
X58141379Y-117780400D01*
X58141378Y-117780398D01*
X58139956Y-117775090D01*
X58137633Y-117770108D01*
X58052912Y-117588423D01*
X58052910Y-117588420D01*
X58050589Y-117583442D01*
X57929301Y-117410224D01*
X57779776Y-117260699D01*
X57606558Y-117139411D01*
X57601580Y-117137090D01*
X57601577Y-117137088D01*
X57419892Y-117052367D01*
X57419891Y-117052366D01*
X57414910Y-117050044D01*
X57409602Y-117048622D01*
X57409600Y-117048621D01*
X57215970Y-116996738D01*
X57215968Y-116996738D01*
X57210655Y-116995314D01*
X57000000Y-116976884D01*
X56789345Y-116995314D01*
X56784032Y-116996738D01*
X56784030Y-116996738D01*
X56590400Y-117048621D01*
X56590398Y-117048622D01*
X56585090Y-117050044D01*
X56580109Y-117052366D01*
X56580108Y-117052367D01*
X56398423Y-117137088D01*
X56398420Y-117137090D01*
X56393442Y-117139411D01*
X56220224Y-117260699D01*
X56070699Y-117410224D01*
X55949411Y-117583442D01*
X55947090Y-117588420D01*
X55947088Y-117588423D01*
X55862367Y-117770108D01*
X55860044Y-117775090D01*
X55858622Y-117780398D01*
X55858621Y-117780400D01*
X55826518Y-117900211D01*
X55805314Y-117979345D01*
X55786884Y-118190000D01*
X50508000Y-118190000D01*
X50508000Y-116086062D01*
X54028493Y-116086062D01*
X54037789Y-116098077D01*
X54088994Y-116133931D01*
X54098489Y-116139414D01*
X54295947Y-116231490D01*
X54306239Y-116235236D01*
X54516688Y-116291625D01*
X54527481Y-116293528D01*
X54744525Y-116312517D01*
X54755475Y-116312517D01*
X54972519Y-116293528D01*
X54983312Y-116291625D01*
X55193761Y-116235236D01*
X55204053Y-116231490D01*
X55401511Y-116139414D01*
X55411006Y-116133931D01*
X55463048Y-116097491D01*
X55471424Y-116087012D01*
X55464356Y-116073566D01*
X54762812Y-115372022D01*
X54748868Y-115364408D01*
X54747035Y-115364539D01*
X54740420Y-115368790D01*
X54034923Y-116074287D01*
X54028493Y-116086062D01*
X50508000Y-116086062D01*
X50508000Y-115005475D01*
X53437483Y-115005475D01*
X53456472Y-115222519D01*
X53458375Y-115233312D01*
X53514764Y-115443761D01*
X53518510Y-115454053D01*
X53610586Y-115651511D01*
X53616069Y-115661006D01*
X53652509Y-115713048D01*
X53662988Y-115721424D01*
X53676434Y-115714356D01*
X54377978Y-115012812D01*
X54384356Y-115001132D01*
X55114408Y-115001132D01*
X55114539Y-115002965D01*
X55118790Y-115009580D01*
X55824287Y-115715077D01*
X55836062Y-115721507D01*
X55848077Y-115712211D01*
X55883931Y-115661006D01*
X55889414Y-115651511D01*
X55981490Y-115454053D01*
X55985236Y-115443761D01*
X56041625Y-115233312D01*
X56043528Y-115222519D01*
X56062517Y-115005475D01*
X56062517Y-115000000D01*
X58436502Y-115000000D01*
X58456457Y-115228087D01*
X58457881Y-115233400D01*
X58457881Y-115233402D01*
X58495025Y-115372022D01*
X58515716Y-115449243D01*
X58518039Y-115454224D01*
X58518039Y-115454225D01*
X58610151Y-115651762D01*
X58610154Y-115651767D01*
X58612477Y-115656749D01*
X58674814Y-115745775D01*
X58730541Y-115825361D01*
X58743802Y-115844300D01*
X58905700Y-116006198D01*
X58910208Y-116009355D01*
X58910211Y-116009357D01*
X58988389Y-116064098D01*
X59093251Y-116137523D01*
X59098233Y-116139846D01*
X59098238Y-116139849D01*
X59227234Y-116200000D01*
X59300757Y-116234284D01*
X59306065Y-116235706D01*
X59306067Y-116235707D01*
X59516598Y-116292119D01*
X59516600Y-116292119D01*
X59521913Y-116293543D01*
X59750000Y-116313498D01*
X59978087Y-116293543D01*
X59983400Y-116292119D01*
X59983402Y-116292119D01*
X60193933Y-116235707D01*
X60193935Y-116235706D01*
X60199243Y-116234284D01*
X60272766Y-116200000D01*
X60401762Y-116139849D01*
X60401767Y-116139846D01*
X60406749Y-116137523D01*
X60511611Y-116064098D01*
X60589789Y-116009357D01*
X60589792Y-116009355D01*
X60594300Y-116006198D01*
X60756198Y-115844300D01*
X60769460Y-115825361D01*
X60825186Y-115745775D01*
X60887523Y-115656749D01*
X60889846Y-115651767D01*
X60889849Y-115651762D01*
X60981961Y-115454225D01*
X60981961Y-115454224D01*
X60984284Y-115449243D01*
X61004976Y-115372022D01*
X61042119Y-115233402D01*
X61042119Y-115233400D01*
X61043543Y-115228087D01*
X61063498Y-115000000D01*
X61043543Y-114771913D01*
X61006981Y-114635461D01*
X60985707Y-114556067D01*
X60985706Y-114556065D01*
X60984284Y-114550757D01*
X60889966Y-114348489D01*
X60889849Y-114348238D01*
X60889846Y-114348233D01*
X60887523Y-114343251D01*
X60756198Y-114155700D01*
X60594300Y-113993802D01*
X60589792Y-113990645D01*
X60589789Y-113990643D01*
X60463920Y-113902509D01*
X60406749Y-113862477D01*
X60401767Y-113860154D01*
X60401762Y-113860151D01*
X60204225Y-113768039D01*
X60204224Y-113768039D01*
X60199243Y-113765716D01*
X60193935Y-113764294D01*
X60193933Y-113764293D01*
X59983402Y-113707881D01*
X59983400Y-113707881D01*
X59978087Y-113706457D01*
X59750000Y-113686502D01*
X59521913Y-113706457D01*
X59516600Y-113707881D01*
X59516598Y-113707881D01*
X59306067Y-113764293D01*
X59306065Y-113764294D01*
X59300757Y-113765716D01*
X59295776Y-113768039D01*
X59295775Y-113768039D01*
X59098238Y-113860151D01*
X59098233Y-113860154D01*
X59093251Y-113862477D01*
X59036080Y-113902509D01*
X58910211Y-113990643D01*
X58910208Y-113990645D01*
X58905700Y-113993802D01*
X58743802Y-114155700D01*
X58612477Y-114343251D01*
X58610154Y-114348233D01*
X58610151Y-114348238D01*
X58610034Y-114348489D01*
X58515716Y-114550757D01*
X58514294Y-114556065D01*
X58514293Y-114556067D01*
X58493019Y-114635461D01*
X58456457Y-114771913D01*
X58436502Y-115000000D01*
X56062517Y-115000000D01*
X56062517Y-114994525D01*
X56043528Y-114777481D01*
X56041625Y-114766688D01*
X55985236Y-114556239D01*
X55981490Y-114545947D01*
X55889414Y-114348489D01*
X55883931Y-114338994D01*
X55847491Y-114286952D01*
X55837012Y-114278576D01*
X55823566Y-114285644D01*
X55122022Y-114987188D01*
X55114408Y-115001132D01*
X54384356Y-115001132D01*
X54385592Y-114998868D01*
X54385461Y-114997035D01*
X54381210Y-114990420D01*
X53675713Y-114284923D01*
X53663938Y-114278493D01*
X53651923Y-114287789D01*
X53616069Y-114338994D01*
X53610586Y-114348489D01*
X53518510Y-114545947D01*
X53514764Y-114556239D01*
X53458375Y-114766688D01*
X53456472Y-114777481D01*
X53437483Y-114994525D01*
X53437483Y-115005475D01*
X50508000Y-115005475D01*
X50508000Y-113912988D01*
X54028576Y-113912988D01*
X54035644Y-113926434D01*
X54737188Y-114627978D01*
X54751132Y-114635592D01*
X54752965Y-114635461D01*
X54759580Y-114631210D01*
X55465077Y-113925713D01*
X55471507Y-113913938D01*
X55462211Y-113901923D01*
X55411006Y-113866069D01*
X55401511Y-113860586D01*
X55204053Y-113768510D01*
X55193761Y-113764764D01*
X54983312Y-113708375D01*
X54972519Y-113706472D01*
X54755475Y-113687483D01*
X54744525Y-113687483D01*
X54527481Y-113706472D01*
X54516688Y-113708375D01*
X54306239Y-113764764D01*
X54295947Y-113768510D01*
X54098489Y-113860586D01*
X54088994Y-113866069D01*
X54036952Y-113902509D01*
X54028576Y-113912988D01*
X50508000Y-113912988D01*
X50508000Y-112449669D01*
X68092001Y-112449669D01*
X68092371Y-112456490D01*
X68097895Y-112507352D01*
X68101521Y-112522604D01*
X68146676Y-112643054D01*
X68155214Y-112658649D01*
X68231715Y-112760724D01*
X68244276Y-112773285D01*
X68346351Y-112849786D01*
X68361946Y-112858324D01*
X68482394Y-112903478D01*
X68497649Y-112907105D01*
X68548514Y-112912631D01*
X68555328Y-112913000D01*
X69227885Y-112913000D01*
X69243124Y-112908525D01*
X69244329Y-112907135D01*
X69246000Y-112899452D01*
X69246000Y-111777115D01*
X69241525Y-111761876D01*
X69240135Y-111760671D01*
X69232452Y-111759000D01*
X68110116Y-111759000D01*
X68094877Y-111763475D01*
X68093672Y-111764865D01*
X68092001Y-111772548D01*
X68092001Y-112449669D01*
X50508000Y-112449669D01*
X50508000Y-110751114D01*
X55962940Y-110751114D01*
X55966117Y-110778572D01*
X55968078Y-110788476D01*
X56033587Y-111019975D01*
X56037101Y-111029424D01*
X56138782Y-111247483D01*
X56143761Y-111256247D01*
X56278993Y-111455234D01*
X56285325Y-111463109D01*
X56450621Y-111637905D01*
X56458130Y-111644666D01*
X56649253Y-111790791D01*
X56657732Y-111796255D01*
X56869764Y-111909945D01*
X56879016Y-111913987D01*
X57106493Y-111992313D01*
X57116269Y-111994824D01*
X57354428Y-112035961D01*
X57362295Y-112036816D01*
X57386953Y-112037936D01*
X57389786Y-112038000D01*
X57727885Y-112038000D01*
X57743124Y-112033525D01*
X57744329Y-112032135D01*
X57746000Y-112024452D01*
X57746000Y-112019885D01*
X58254000Y-112019885D01*
X58258475Y-112035124D01*
X58259865Y-112036329D01*
X58267548Y-112038000D01*
X58560482Y-112038000D01*
X58565514Y-112037798D01*
X58744863Y-112023368D01*
X58754816Y-112021756D01*
X58988467Y-111964366D01*
X58998037Y-111961183D01*
X59219506Y-111867174D01*
X59228448Y-111862499D01*
X59432036Y-111734293D01*
X59440109Y-111728253D01*
X59620585Y-111569143D01*
X59627588Y-111561891D01*
X59780301Y-111375975D01*
X59786057Y-111367693D01*
X59864517Y-111232885D01*
X68092000Y-111232885D01*
X68096475Y-111248124D01*
X68097865Y-111249329D01*
X68105548Y-111251000D01*
X69227885Y-111251000D01*
X69243124Y-111246525D01*
X69244329Y-111245135D01*
X69246000Y-111237452D01*
X69246000Y-110115116D01*
X69241525Y-110099877D01*
X69240135Y-110098672D01*
X69232452Y-110097001D01*
X68555331Y-110097001D01*
X68548510Y-110097371D01*
X68497648Y-110102895D01*
X68482396Y-110106521D01*
X68361946Y-110151676D01*
X68346351Y-110160214D01*
X68244276Y-110236715D01*
X68231715Y-110249276D01*
X68155214Y-110351351D01*
X68146676Y-110366946D01*
X68101522Y-110487394D01*
X68097895Y-110502649D01*
X68092369Y-110553514D01*
X68092000Y-110560328D01*
X68092000Y-111232885D01*
X59864517Y-111232885D01*
X59907080Y-111159754D01*
X59911440Y-111150655D01*
X59997660Y-110926045D01*
X60000509Y-110916363D01*
X60034902Y-110751736D01*
X60033779Y-110737675D01*
X60023672Y-110734000D01*
X58272115Y-110734000D01*
X58256876Y-110738475D01*
X58255671Y-110739865D01*
X58254000Y-110747548D01*
X58254000Y-112019885D01*
X57746000Y-112019885D01*
X57746000Y-110752115D01*
X57741525Y-110736876D01*
X57740135Y-110735671D01*
X57732452Y-110734000D01*
X55979075Y-110734000D01*
X55964989Y-110738136D01*
X55962940Y-110751114D01*
X50508000Y-110751114D01*
X50508000Y-110208264D01*
X55965098Y-110208264D01*
X55966221Y-110222325D01*
X55976328Y-110226000D01*
X60020925Y-110226000D01*
X60035011Y-110221864D01*
X60037060Y-110208886D01*
X60033883Y-110181428D01*
X60031922Y-110171524D01*
X59966413Y-109940025D01*
X59962899Y-109930576D01*
X59861218Y-109712517D01*
X59856239Y-109703753D01*
X59721007Y-109504766D01*
X59714675Y-109496891D01*
X59549379Y-109322095D01*
X59541870Y-109315334D01*
X59350747Y-109169209D01*
X59348383Y-109167686D01*
X59347660Y-109166849D01*
X59346727Y-109166136D01*
X59346875Y-109165942D01*
X59301958Y-109113972D01*
X59291943Y-109043685D01*
X59321518Y-108979142D01*
X59345180Y-108957997D01*
X59389988Y-108927144D01*
X59389989Y-108927143D01*
X59394744Y-108923869D01*
X59398825Y-108919781D01*
X59541089Y-108777270D01*
X59541093Y-108777265D01*
X59545168Y-108773183D01*
X59665613Y-108597607D01*
X59752044Y-108403021D01*
X59801568Y-108195943D01*
X59808500Y-108099237D01*
X59808499Y-106660764D01*
X59808331Y-106658464D01*
X59801653Y-106567182D01*
X59801652Y-106567178D01*
X59801277Y-106562047D01*
X59751391Y-106355056D01*
X59664620Y-106160622D01*
X59543869Y-105985256D01*
X59502246Y-105943705D01*
X59397270Y-105838911D01*
X59397265Y-105838907D01*
X59393183Y-105834832D01*
X59262872Y-105745439D01*
X59222371Y-105717655D01*
X59222370Y-105717655D01*
X59217607Y-105714387D01*
X59055749Y-105642493D01*
X59028299Y-105630300D01*
X59028295Y-105630299D01*
X59023021Y-105627956D01*
X58879358Y-105593598D01*
X58820941Y-105579627D01*
X58820937Y-105579626D01*
X58815943Y-105578432D01*
X58779715Y-105575835D01*
X58721487Y-105571661D01*
X58721479Y-105571661D01*
X58719237Y-105571500D01*
X58006457Y-105571500D01*
X57280764Y-105571501D01*
X57278471Y-105571669D01*
X57278464Y-105571669D01*
X57187182Y-105578347D01*
X57187178Y-105578348D01*
X57182047Y-105578723D01*
X56975056Y-105628609D01*
X56780622Y-105715380D01*
X56775868Y-105718653D01*
X56775867Y-105718654D01*
X56611886Y-105831566D01*
X56605256Y-105836131D01*
X56601176Y-105840218D01*
X56601175Y-105840219D01*
X56458911Y-105982730D01*
X56458907Y-105982735D01*
X56454832Y-105986817D01*
X56334387Y-106162393D01*
X56247956Y-106356979D01*
X56198432Y-106564057D01*
X56191500Y-106660763D01*
X56191501Y-108099236D01*
X56198723Y-108197953D01*
X56248609Y-108404944D01*
X56335380Y-108599378D01*
X56456131Y-108774744D01*
X56460218Y-108778824D01*
X56460219Y-108778825D01*
X56602730Y-108921089D01*
X56602735Y-108921093D01*
X56606817Y-108925168D01*
X56611578Y-108928434D01*
X56658616Y-108960702D01*
X56703474Y-109015731D01*
X56711461Y-109086277D01*
X56680040Y-109149942D01*
X56654481Y-109171224D01*
X56567969Y-109225703D01*
X56559891Y-109231747D01*
X56379415Y-109390857D01*
X56372412Y-109398109D01*
X56219699Y-109584025D01*
X56213943Y-109592307D01*
X56092920Y-109800246D01*
X56088560Y-109809345D01*
X56002340Y-110033955D01*
X55999491Y-110043637D01*
X55965098Y-110208264D01*
X50508000Y-110208264D01*
X50508000Y-104333884D01*
X65331500Y-104333884D01*
X65331665Y-104336152D01*
X65331665Y-104336164D01*
X65339725Y-104447238D01*
X65346125Y-104535451D01*
X65347109Y-104539906D01*
X65347109Y-104539909D01*
X65386482Y-104718240D01*
X65404585Y-104800237D01*
X65500655Y-105053810D01*
X65632324Y-105290859D01*
X65796833Y-105506417D01*
X65800099Y-105509610D01*
X65800101Y-105509612D01*
X65863574Y-105571661D01*
X65990736Y-105695970D01*
X65994428Y-105698657D01*
X65994430Y-105698659D01*
X66206279Y-105852859D01*
X66209972Y-105855547D01*
X66449947Y-105981804D01*
X66454248Y-105983323D01*
X66454253Y-105983325D01*
X66587087Y-106030233D01*
X66705634Y-106072096D01*
X66803653Y-106091415D01*
X66967206Y-106123652D01*
X66967212Y-106123653D01*
X66971678Y-106124533D01*
X66976232Y-106124760D01*
X66976234Y-106124760D01*
X67237936Y-106137789D01*
X67237942Y-106137789D01*
X67242505Y-106138016D01*
X67512441Y-106112262D01*
X67516870Y-106111178D01*
X67516877Y-106111177D01*
X67676584Y-106072096D01*
X67775832Y-106047810D01*
X67935039Y-105983325D01*
X68022931Y-105947725D01*
X68022932Y-105947725D01*
X68027160Y-105946012D01*
X68261161Y-105808999D01*
X68472932Y-105639641D01*
X68594399Y-105509612D01*
X68654921Y-105444824D01*
X68654923Y-105444821D01*
X68658037Y-105441488D01*
X68812598Y-105218688D01*
X68814627Y-105214610D01*
X68931346Y-104979997D01*
X68931347Y-104979994D01*
X68933379Y-104975910D01*
X69017847Y-104718240D01*
X69064235Y-104451075D01*
X69068500Y-104365400D01*
X69068500Y-103676116D01*
X69066328Y-103646170D01*
X69054205Y-103479100D01*
X69053875Y-103474549D01*
X69052891Y-103470091D01*
X68996400Y-103214223D01*
X68996399Y-103214219D01*
X68995415Y-103209763D01*
X68899345Y-102956190D01*
X68767676Y-102719141D01*
X68603167Y-102503583D01*
X68409264Y-102314030D01*
X68190028Y-102154453D01*
X67950053Y-102028196D01*
X67945752Y-102026677D01*
X67945747Y-102026675D01*
X67767998Y-101963906D01*
X67694366Y-101937904D01*
X67596347Y-101918585D01*
X67432794Y-101886348D01*
X67432788Y-101886347D01*
X67428322Y-101885467D01*
X67423768Y-101885240D01*
X67423766Y-101885240D01*
X67162064Y-101872211D01*
X67162058Y-101872211D01*
X67157495Y-101871984D01*
X66887559Y-101897738D01*
X66883130Y-101898822D01*
X66883123Y-101898823D01*
X66753069Y-101930648D01*
X66624168Y-101962190D01*
X66619933Y-101963905D01*
X66619931Y-101963906D01*
X66377069Y-102062275D01*
X66372840Y-102063988D01*
X66138839Y-102201001D01*
X65927068Y-102370359D01*
X65923947Y-102373700D01*
X65799224Y-102507215D01*
X65741963Y-102568512D01*
X65587402Y-102791312D01*
X65585374Y-102795388D01*
X65585373Y-102795390D01*
X65503252Y-102960460D01*
X65466621Y-103034090D01*
X65382153Y-103291760D01*
X65335765Y-103558925D01*
X65331500Y-103644600D01*
X65331500Y-104333884D01*
X50508000Y-104333884D01*
X50508000Y-98360763D01*
X56191500Y-98360763D01*
X56191501Y-99799236D01*
X56198723Y-99897953D01*
X56248609Y-100104944D01*
X56335380Y-100299378D01*
X56456131Y-100474744D01*
X56460218Y-100478824D01*
X56460219Y-100478825D01*
X56602730Y-100621089D01*
X56602735Y-100621093D01*
X56606817Y-100625168D01*
X56782393Y-100745613D01*
X56879686Y-100788829D01*
X56971701Y-100829700D01*
X56971705Y-100829701D01*
X56976979Y-100832044D01*
X56982600Y-100833388D01*
X56982599Y-100833388D01*
X57179059Y-100880373D01*
X57179063Y-100880374D01*
X57184057Y-100881568D01*
X57220285Y-100884165D01*
X57278513Y-100888339D01*
X57278521Y-100888339D01*
X57280763Y-100888500D01*
X57993543Y-100888500D01*
X58719236Y-100888499D01*
X58721529Y-100888331D01*
X58721536Y-100888331D01*
X58812818Y-100881653D01*
X58812822Y-100881652D01*
X58817953Y-100881277D01*
X59024944Y-100831391D01*
X59219378Y-100744620D01*
X59224133Y-100741346D01*
X59389988Y-100627144D01*
X59389989Y-100627143D01*
X59394744Y-100623869D01*
X59398825Y-100619781D01*
X59541089Y-100477270D01*
X59541093Y-100477265D01*
X59545168Y-100473183D01*
X59665613Y-100297607D01*
X59752044Y-100103021D01*
X59801568Y-99895943D01*
X59808500Y-99799237D01*
X59808499Y-98360764D01*
X59801277Y-98262047D01*
X59751391Y-98055056D01*
X59664620Y-97860622D01*
X59564288Y-97714910D01*
X59547144Y-97690012D01*
X59547143Y-97690011D01*
X59543869Y-97685256D01*
X59539781Y-97681175D01*
X59397270Y-97538911D01*
X59397265Y-97538907D01*
X59393183Y-97534832D01*
X59217607Y-97414387D01*
X59120314Y-97371172D01*
X59028299Y-97330300D01*
X59028295Y-97330299D01*
X59023021Y-97327956D01*
X58906127Y-97300000D01*
X58820941Y-97279627D01*
X58820937Y-97279626D01*
X58815943Y-97278432D01*
X58779715Y-97275835D01*
X58721487Y-97271661D01*
X58721479Y-97271661D01*
X58719237Y-97271500D01*
X58006457Y-97271500D01*
X57280764Y-97271501D01*
X57278471Y-97271669D01*
X57278464Y-97271669D01*
X57187182Y-97278347D01*
X57187178Y-97278348D01*
X57182047Y-97278723D01*
X56975056Y-97328609D01*
X56780622Y-97415380D01*
X56775868Y-97418653D01*
X56775867Y-97418654D01*
X56611886Y-97531566D01*
X56605256Y-97536131D01*
X56601176Y-97540218D01*
X56601175Y-97540219D01*
X56458911Y-97682730D01*
X56458907Y-97682735D01*
X56454832Y-97686817D01*
X56334387Y-97862393D01*
X56247956Y-98056979D01*
X56246612Y-98062599D01*
X56205989Y-98232460D01*
X56198432Y-98264057D01*
X56191500Y-98360763D01*
X50508000Y-98360763D01*
X50508000Y-92944669D01*
X68092001Y-92944669D01*
X68092371Y-92951490D01*
X68097895Y-93002352D01*
X68101521Y-93017604D01*
X68146676Y-93138054D01*
X68155214Y-93153649D01*
X68231715Y-93255724D01*
X68244276Y-93268285D01*
X68346351Y-93344786D01*
X68361946Y-93353324D01*
X68482394Y-93398478D01*
X68497649Y-93402105D01*
X68548514Y-93407631D01*
X68555328Y-93408000D01*
X69227885Y-93408000D01*
X69243124Y-93403525D01*
X69244329Y-93402135D01*
X69246000Y-93394452D01*
X69246000Y-92272115D01*
X69241525Y-92256876D01*
X69240135Y-92255671D01*
X69232452Y-92254000D01*
X68110116Y-92254000D01*
X68094877Y-92258475D01*
X68093672Y-92259865D01*
X68092001Y-92267548D01*
X68092001Y-92944669D01*
X50508000Y-92944669D01*
X50508000Y-91251114D01*
X55962940Y-91251114D01*
X55966117Y-91278572D01*
X55968078Y-91288476D01*
X56033587Y-91519975D01*
X56037101Y-91529424D01*
X56138782Y-91747483D01*
X56143761Y-91756247D01*
X56278993Y-91955234D01*
X56285325Y-91963109D01*
X56450621Y-92137905D01*
X56458130Y-92144666D01*
X56649253Y-92290791D01*
X56657732Y-92296255D01*
X56869764Y-92409945D01*
X56879016Y-92413987D01*
X57106493Y-92492313D01*
X57116269Y-92494824D01*
X57354428Y-92535961D01*
X57362295Y-92536816D01*
X57386953Y-92537936D01*
X57389786Y-92538000D01*
X57727885Y-92538000D01*
X57743124Y-92533525D01*
X57744329Y-92532135D01*
X57746000Y-92524452D01*
X57746000Y-92519885D01*
X58254000Y-92519885D01*
X58258475Y-92535124D01*
X58259865Y-92536329D01*
X58267548Y-92538000D01*
X58560482Y-92538000D01*
X58565514Y-92537798D01*
X58744863Y-92523368D01*
X58754816Y-92521756D01*
X58988467Y-92464366D01*
X58998037Y-92461183D01*
X59219506Y-92367174D01*
X59228448Y-92362499D01*
X59432036Y-92234293D01*
X59440109Y-92228253D01*
X59620585Y-92069143D01*
X59627588Y-92061891D01*
X59780301Y-91875975D01*
X59786057Y-91867693D01*
X59867427Y-91727885D01*
X68092000Y-91727885D01*
X68096475Y-91743124D01*
X68097865Y-91744329D01*
X68105548Y-91746000D01*
X69227885Y-91746000D01*
X69243124Y-91741525D01*
X69244329Y-91740135D01*
X69246000Y-91732452D01*
X69246000Y-90610116D01*
X69241525Y-90594877D01*
X69240135Y-90593672D01*
X69232452Y-90592001D01*
X68555331Y-90592001D01*
X68548510Y-90592371D01*
X68497648Y-90597895D01*
X68482396Y-90601521D01*
X68361946Y-90646676D01*
X68346351Y-90655214D01*
X68244276Y-90731715D01*
X68231715Y-90744276D01*
X68155214Y-90846351D01*
X68146676Y-90861946D01*
X68101522Y-90982394D01*
X68097895Y-90997649D01*
X68092369Y-91048514D01*
X68092000Y-91055328D01*
X68092000Y-91727885D01*
X59867427Y-91727885D01*
X59907080Y-91659754D01*
X59911440Y-91650655D01*
X59997660Y-91426045D01*
X60000509Y-91416363D01*
X60034902Y-91251736D01*
X60033779Y-91237675D01*
X60023672Y-91234000D01*
X58272115Y-91234000D01*
X58256876Y-91238475D01*
X58255671Y-91239865D01*
X58254000Y-91247548D01*
X58254000Y-92519885D01*
X57746000Y-92519885D01*
X57746000Y-91252115D01*
X57741525Y-91236876D01*
X57740135Y-91235671D01*
X57732452Y-91234000D01*
X55979075Y-91234000D01*
X55964989Y-91238136D01*
X55962940Y-91251114D01*
X50508000Y-91251114D01*
X50508000Y-90708264D01*
X55965098Y-90708264D01*
X55966221Y-90722325D01*
X55976328Y-90726000D01*
X60020925Y-90726000D01*
X60035011Y-90721864D01*
X60037060Y-90708886D01*
X60033883Y-90681428D01*
X60031922Y-90671524D01*
X59966413Y-90440025D01*
X59962899Y-90430576D01*
X59861218Y-90212517D01*
X59856239Y-90203753D01*
X59721007Y-90004766D01*
X59714675Y-89996891D01*
X59549379Y-89822095D01*
X59541870Y-89815334D01*
X59350747Y-89669209D01*
X59348383Y-89667686D01*
X59347660Y-89666849D01*
X59346727Y-89666136D01*
X59346875Y-89665942D01*
X59301958Y-89613972D01*
X59291943Y-89543685D01*
X59321518Y-89479142D01*
X59345180Y-89457997D01*
X59389988Y-89427144D01*
X59389989Y-89427143D01*
X59394744Y-89423869D01*
X59398825Y-89419781D01*
X59541089Y-89277270D01*
X59541093Y-89277265D01*
X59545168Y-89273183D01*
X59665613Y-89097607D01*
X59752044Y-88903021D01*
X59801568Y-88695943D01*
X59808500Y-88599237D01*
X59808499Y-87160764D01*
X59808050Y-87154623D01*
X59801653Y-87067182D01*
X59801652Y-87067178D01*
X59801277Y-87062047D01*
X59751391Y-86855056D01*
X59664620Y-86660622D01*
X59661346Y-86655867D01*
X59547144Y-86490012D01*
X59547143Y-86490011D01*
X59543869Y-86485256D01*
X59497237Y-86438705D01*
X59397270Y-86338911D01*
X59397265Y-86338907D01*
X59393183Y-86334832D01*
X59217607Y-86214387D01*
X59120314Y-86171171D01*
X59028299Y-86130300D01*
X59028295Y-86130299D01*
X59023021Y-86127956D01*
X58985753Y-86119043D01*
X58820941Y-86079627D01*
X58820937Y-86079626D01*
X58815943Y-86078432D01*
X58779715Y-86075835D01*
X58721487Y-86071661D01*
X58721479Y-86071661D01*
X58719237Y-86071500D01*
X58006457Y-86071500D01*
X57280764Y-86071501D01*
X57278471Y-86071669D01*
X57278464Y-86071669D01*
X57187182Y-86078347D01*
X57187178Y-86078348D01*
X57182047Y-86078723D01*
X56975056Y-86128609D01*
X56780622Y-86215380D01*
X56775868Y-86218653D01*
X56775867Y-86218654D01*
X56611886Y-86331566D01*
X56605256Y-86336131D01*
X56601176Y-86340218D01*
X56601175Y-86340219D01*
X56458911Y-86482730D01*
X56458907Y-86482735D01*
X56454832Y-86486817D01*
X56334387Y-86662393D01*
X56247956Y-86856979D01*
X56198432Y-87064057D01*
X56198065Y-87069179D01*
X56192135Y-87151910D01*
X56191500Y-87160763D01*
X56191501Y-88599236D01*
X56198723Y-88697953D01*
X56248609Y-88904944D01*
X56335380Y-89099378D01*
X56456131Y-89274744D01*
X56460218Y-89278824D01*
X56460219Y-89278825D01*
X56602730Y-89421089D01*
X56602735Y-89421093D01*
X56606817Y-89425168D01*
X56611578Y-89428434D01*
X56658616Y-89460702D01*
X56703474Y-89515731D01*
X56711461Y-89586277D01*
X56680040Y-89649942D01*
X56654481Y-89671224D01*
X56567969Y-89725703D01*
X56559891Y-89731747D01*
X56379415Y-89890857D01*
X56372412Y-89898109D01*
X56219699Y-90084025D01*
X56213943Y-90092307D01*
X56092920Y-90300246D01*
X56088560Y-90309345D01*
X56002340Y-90533955D01*
X55999491Y-90543637D01*
X55965098Y-90708264D01*
X50508000Y-90708264D01*
X50508000Y-84828884D01*
X65331500Y-84828884D01*
X65331665Y-84831152D01*
X65331665Y-84831164D01*
X65339725Y-84942238D01*
X65346125Y-85030451D01*
X65347109Y-85034906D01*
X65347109Y-85034909D01*
X65386482Y-85213240D01*
X65404585Y-85295237D01*
X65500655Y-85548810D01*
X65632324Y-85785859D01*
X65796833Y-86001417D01*
X65990736Y-86190970D01*
X65994428Y-86193657D01*
X65994430Y-86193659D01*
X66024272Y-86215380D01*
X66209972Y-86350547D01*
X66449947Y-86476804D01*
X66454248Y-86478323D01*
X66454253Y-86478325D01*
X66526365Y-86503790D01*
X66705634Y-86567096D01*
X66803653Y-86586415D01*
X66967206Y-86618652D01*
X66967212Y-86618653D01*
X66971678Y-86619533D01*
X66976232Y-86619760D01*
X66976234Y-86619760D01*
X67237936Y-86632789D01*
X67237942Y-86632789D01*
X67242505Y-86633016D01*
X67512441Y-86607262D01*
X67516870Y-86606178D01*
X67516877Y-86606177D01*
X67676584Y-86567096D01*
X67775832Y-86542810D01*
X67906185Y-86490012D01*
X68022931Y-86442725D01*
X68022932Y-86442725D01*
X68027160Y-86441012D01*
X68261161Y-86303999D01*
X68472932Y-86134641D01*
X68524041Y-86079929D01*
X68654921Y-85939824D01*
X68654923Y-85939821D01*
X68658037Y-85936488D01*
X68812598Y-85713688D01*
X68894624Y-85548810D01*
X68931346Y-85474997D01*
X68931347Y-85474994D01*
X68933379Y-85470910D01*
X69017847Y-85213240D01*
X69064235Y-84946075D01*
X69068500Y-84860400D01*
X69068500Y-84171116D01*
X69066328Y-84141170D01*
X69054205Y-83974100D01*
X69053875Y-83969549D01*
X69052891Y-83965091D01*
X68996400Y-83709223D01*
X68996399Y-83709219D01*
X68995415Y-83704763D01*
X68899345Y-83451190D01*
X68767676Y-83214141D01*
X68603167Y-82998583D01*
X68409264Y-82809030D01*
X68190028Y-82649453D01*
X67950053Y-82523196D01*
X67945752Y-82521677D01*
X67945747Y-82521675D01*
X67767998Y-82458906D01*
X67694366Y-82432904D01*
X67596347Y-82413585D01*
X67432794Y-82381348D01*
X67432788Y-82381347D01*
X67428322Y-82380467D01*
X67423768Y-82380240D01*
X67423766Y-82380240D01*
X67162064Y-82367211D01*
X67162058Y-82367211D01*
X67157495Y-82366984D01*
X66887559Y-82392738D01*
X66883130Y-82393822D01*
X66883123Y-82393823D01*
X66753069Y-82425648D01*
X66624168Y-82457190D01*
X66619933Y-82458905D01*
X66619931Y-82458906D01*
X66377069Y-82557275D01*
X66372840Y-82558988D01*
X66138839Y-82696001D01*
X65927068Y-82865359D01*
X65923947Y-82868700D01*
X65799224Y-83002215D01*
X65741963Y-83063512D01*
X65587402Y-83286312D01*
X65585374Y-83290388D01*
X65585373Y-83290390D01*
X65503252Y-83455460D01*
X65466621Y-83529090D01*
X65382153Y-83786760D01*
X65335765Y-84053925D01*
X65331500Y-84139600D01*
X65331500Y-84828884D01*
X50508000Y-84828884D01*
X50508000Y-78860763D01*
X56191500Y-78860763D01*
X56191501Y-80299236D01*
X56198723Y-80397953D01*
X56248609Y-80604944D01*
X56335380Y-80799378D01*
X56456131Y-80974744D01*
X56460218Y-80978824D01*
X56460219Y-80978825D01*
X56602730Y-81121089D01*
X56602735Y-81121093D01*
X56606817Y-81125168D01*
X56782393Y-81245613D01*
X56879686Y-81288828D01*
X56971701Y-81329700D01*
X56971705Y-81329701D01*
X56976979Y-81332044D01*
X56982600Y-81333388D01*
X56982599Y-81333388D01*
X57179059Y-81380373D01*
X57179063Y-81380374D01*
X57184057Y-81381568D01*
X57220285Y-81384165D01*
X57278513Y-81388339D01*
X57278521Y-81388339D01*
X57280763Y-81388500D01*
X57993543Y-81388500D01*
X58719236Y-81388499D01*
X58721529Y-81388331D01*
X58721536Y-81388331D01*
X58812818Y-81381653D01*
X58812822Y-81381652D01*
X58817953Y-81381277D01*
X59024944Y-81331391D01*
X59219378Y-81244620D01*
X59224133Y-81241346D01*
X59389988Y-81127144D01*
X59389989Y-81127143D01*
X59394744Y-81123869D01*
X59398825Y-81119781D01*
X59541089Y-80977270D01*
X59541093Y-80977265D01*
X59545168Y-80973183D01*
X59665613Y-80797607D01*
X59752044Y-80603021D01*
X59801568Y-80395943D01*
X59808500Y-80299237D01*
X59808499Y-78860764D01*
X59801277Y-78762047D01*
X59751391Y-78555056D01*
X59664620Y-78360622D01*
X59543869Y-78185256D01*
X59539781Y-78181175D01*
X59397270Y-78038911D01*
X59397265Y-78038907D01*
X59393183Y-78034832D01*
X59217607Y-77914387D01*
X59049657Y-77839787D01*
X59028299Y-77830300D01*
X59028295Y-77830299D01*
X59023021Y-77827956D01*
X58985753Y-77819043D01*
X58820941Y-77779627D01*
X58820937Y-77779626D01*
X58815943Y-77778432D01*
X58779715Y-77775835D01*
X58721487Y-77771661D01*
X58721479Y-77771661D01*
X58719237Y-77771500D01*
X58006457Y-77771500D01*
X57280764Y-77771501D01*
X57278471Y-77771669D01*
X57278464Y-77771669D01*
X57187182Y-77778347D01*
X57187178Y-77778348D01*
X57182047Y-77778723D01*
X56975056Y-77828609D01*
X56780622Y-77915380D01*
X56775868Y-77918653D01*
X56775867Y-77918654D01*
X56611886Y-78031566D01*
X56605256Y-78036131D01*
X56601176Y-78040218D01*
X56601175Y-78040219D01*
X56458911Y-78182730D01*
X56458907Y-78182735D01*
X56454832Y-78186817D01*
X56334387Y-78362393D01*
X56247956Y-78556979D01*
X56246612Y-78562599D01*
X56219658Y-78675305D01*
X56198432Y-78764057D01*
X56191500Y-78860763D01*
X50508000Y-78860763D01*
X50508000Y-76500000D01*
X68946884Y-76500000D01*
X68965314Y-76710655D01*
X68966738Y-76715968D01*
X68966738Y-76715970D01*
X69002140Y-76848090D01*
X69020044Y-76914910D01*
X69022366Y-76919891D01*
X69022367Y-76919892D01*
X69091820Y-77068833D01*
X69109411Y-77106558D01*
X69230699Y-77279776D01*
X69380224Y-77429301D01*
X69553442Y-77550589D01*
X69558420Y-77552910D01*
X69558423Y-77552912D01*
X69740108Y-77637633D01*
X69745090Y-77639956D01*
X69750398Y-77641378D01*
X69750400Y-77641379D01*
X69944030Y-77693262D01*
X69944032Y-77693262D01*
X69949345Y-77694686D01*
X70160000Y-77713116D01*
X70165475Y-77712637D01*
X70165476Y-77712637D01*
X70328141Y-77698406D01*
X70397745Y-77712395D01*
X70428217Y-77734832D01*
X71279595Y-78586210D01*
X71313621Y-78648522D01*
X71316500Y-78675305D01*
X71316500Y-90691348D01*
X71296498Y-90759469D01*
X71254901Y-90797430D01*
X71255833Y-90798910D01*
X71251461Y-90801663D01*
X71246872Y-90804052D01*
X71242739Y-90807155D01*
X71242736Y-90807157D01*
X71065790Y-90940012D01*
X71061655Y-90943117D01*
X71061066Y-90942333D01*
X71001346Y-90970484D01*
X70930955Y-90961231D01*
X70876741Y-90915391D01*
X70863925Y-90890224D01*
X70853323Y-90861944D01*
X70844786Y-90846351D01*
X70768285Y-90744276D01*
X70755724Y-90731715D01*
X70653649Y-90655214D01*
X70638054Y-90646676D01*
X70517606Y-90601522D01*
X70502351Y-90597895D01*
X70451486Y-90592369D01*
X70444672Y-90592000D01*
X69772115Y-90592000D01*
X69756876Y-90596475D01*
X69755671Y-90597865D01*
X69754000Y-90605548D01*
X69754000Y-93389884D01*
X69758475Y-93405123D01*
X69759865Y-93406328D01*
X69767548Y-93407999D01*
X70444669Y-93407999D01*
X70451490Y-93407629D01*
X70502352Y-93402105D01*
X70517604Y-93398479D01*
X70638054Y-93353324D01*
X70653649Y-93344786D01*
X70755724Y-93268285D01*
X70768285Y-93255724D01*
X70844786Y-93153649D01*
X70853325Y-93138052D01*
X70865278Y-93106167D01*
X70907919Y-93049402D01*
X70974480Y-93024702D01*
X71043829Y-93039909D01*
X71063741Y-93053448D01*
X71189349Y-93157730D01*
X71389322Y-93274584D01*
X71394147Y-93276426D01*
X71394148Y-93276427D01*
X71457702Y-93300696D01*
X71605694Y-93357209D01*
X71610760Y-93358240D01*
X71610761Y-93358240D01*
X71620469Y-93360215D01*
X71832656Y-93403385D01*
X71963324Y-93408176D01*
X72058949Y-93411683D01*
X72058953Y-93411683D01*
X72064113Y-93411872D01*
X72069233Y-93411216D01*
X72069235Y-93411216D01*
X72168668Y-93398478D01*
X72293847Y-93382442D01*
X72298795Y-93380957D01*
X72298802Y-93380956D01*
X72510747Y-93317369D01*
X72515690Y-93315886D01*
X72561931Y-93293233D01*
X72719049Y-93216262D01*
X72719052Y-93216260D01*
X72723684Y-93213991D01*
X72912243Y-93079494D01*
X73076303Y-92916005D01*
X73145370Y-92819888D01*
X73201365Y-92776240D01*
X73272068Y-92769794D01*
X73335033Y-92802597D01*
X73355128Y-92827584D01*
X73356799Y-92830311D01*
X73356804Y-92830317D01*
X73359501Y-92834719D01*
X73511147Y-93009784D01*
X73689349Y-93157730D01*
X73889322Y-93274584D01*
X73894147Y-93276426D01*
X73894148Y-93276427D01*
X73957702Y-93300696D01*
X74105694Y-93357209D01*
X74110760Y-93358240D01*
X74110761Y-93358240D01*
X74120469Y-93360215D01*
X74332656Y-93403385D01*
X74463324Y-93408176D01*
X74558949Y-93411683D01*
X74558953Y-93411683D01*
X74564113Y-93411872D01*
X74569233Y-93411216D01*
X74569235Y-93411216D01*
X74668668Y-93398478D01*
X74793847Y-93382442D01*
X74798795Y-93380957D01*
X74798802Y-93380956D01*
X75010747Y-93317369D01*
X75015690Y-93315886D01*
X75061931Y-93293233D01*
X75219049Y-93216262D01*
X75219052Y-93216260D01*
X75223684Y-93213991D01*
X75412243Y-93079494D01*
X75576303Y-92916005D01*
X75711458Y-92727917D01*
X75805906Y-92536816D01*
X75811784Y-92524922D01*
X75811785Y-92524920D01*
X75814078Y-92520280D01*
X75881408Y-92298671D01*
X75911640Y-92069041D01*
X75913327Y-92000000D01*
X75903130Y-91875975D01*
X75894773Y-91774318D01*
X75894772Y-91774312D01*
X75894349Y-91769167D01*
X75837925Y-91544533D01*
X75835866Y-91539797D01*
X75747630Y-91336868D01*
X75747628Y-91336865D01*
X75745570Y-91332131D01*
X75619764Y-91137665D01*
X75463887Y-90966358D01*
X75459836Y-90963159D01*
X75459832Y-90963155D01*
X75286177Y-90826011D01*
X75286172Y-90826008D01*
X75282123Y-90822810D01*
X75277607Y-90820317D01*
X75277604Y-90820315D01*
X75083879Y-90713373D01*
X75083875Y-90713371D01*
X75079355Y-90710876D01*
X75074486Y-90709152D01*
X75074482Y-90709150D01*
X74865903Y-90635288D01*
X74865899Y-90635287D01*
X74861028Y-90633562D01*
X74855935Y-90632655D01*
X74855932Y-90632654D01*
X74638095Y-90593851D01*
X74638089Y-90593850D01*
X74633006Y-90592945D01*
X74555644Y-90592000D01*
X74406581Y-90590179D01*
X74406579Y-90590179D01*
X74401411Y-90590116D01*
X74172464Y-90625150D01*
X73952314Y-90697106D01*
X73947726Y-90699494D01*
X73947722Y-90699496D01*
X73751461Y-90801663D01*
X73746872Y-90804052D01*
X73742739Y-90807155D01*
X73742736Y-90807157D01*
X73565790Y-90940012D01*
X73561655Y-90943117D01*
X73401639Y-91110564D01*
X73354836Y-91179174D01*
X73299927Y-91224175D01*
X73229402Y-91232346D01*
X73165655Y-91201092D01*
X73144959Y-91176609D01*
X73122577Y-91142013D01*
X73122574Y-91142009D01*
X73119764Y-91137665D01*
X72963887Y-90966358D01*
X72959836Y-90963159D01*
X72959832Y-90963155D01*
X72786181Y-90826015D01*
X72782123Y-90822810D01*
X72748605Y-90804307D01*
X72698636Y-90753877D01*
X72683500Y-90694000D01*
X72683500Y-78368056D01*
X72683792Y-78359486D01*
X72684039Y-78355867D01*
X72687577Y-78303966D01*
X72676997Y-78243342D01*
X72676034Y-78236819D01*
X72669558Y-78183308D01*
X72669558Y-78183307D01*
X72668645Y-78175765D01*
X72665959Y-78168655D01*
X72664754Y-78163752D01*
X72661886Y-78153266D01*
X72660439Y-78148474D01*
X72659134Y-78140996D01*
X72656082Y-78134043D01*
X72634405Y-78084659D01*
X72631914Y-78078554D01*
X72612855Y-78028118D01*
X72612853Y-78028115D01*
X72610169Y-78021011D01*
X72605869Y-78014754D01*
X72603533Y-78010286D01*
X72598275Y-78000840D01*
X72595693Y-77996474D01*
X72592638Y-77989515D01*
X72555177Y-77940696D01*
X72551314Y-77935377D01*
X72520769Y-77890935D01*
X72516466Y-77884674D01*
X72471676Y-77844767D01*
X72466402Y-77839787D01*
X71394832Y-76768217D01*
X71360806Y-76705905D01*
X71358406Y-76668141D01*
X71372637Y-76505476D01*
X71372637Y-76505475D01*
X71373116Y-76500000D01*
X71354686Y-76289345D01*
X71305756Y-76106736D01*
X71307446Y-76035761D01*
X71347240Y-75976965D01*
X71412504Y-75949017D01*
X71482518Y-75960790D01*
X71511282Y-75980049D01*
X71528322Y-75995231D01*
X71533598Y-76000213D01*
X73029595Y-77496210D01*
X73063621Y-77558522D01*
X73066500Y-77585305D01*
X73066500Y-86721955D01*
X73066208Y-86730523D01*
X73062424Y-86786034D01*
X73063729Y-86793511D01*
X73063729Y-86793514D01*
X73073002Y-86846647D01*
X73073965Y-86853171D01*
X73081355Y-86914235D01*
X73084042Y-86921345D01*
X73085246Y-86926248D01*
X73088114Y-86936734D01*
X73089561Y-86941526D01*
X73090866Y-86949004D01*
X73093918Y-86955956D01*
X73093918Y-86955957D01*
X73115595Y-87005341D01*
X73118086Y-87011446D01*
X73137145Y-87061882D01*
X73139831Y-87068989D01*
X73144131Y-87075246D01*
X73146467Y-87079714D01*
X73151725Y-87089160D01*
X73154307Y-87093526D01*
X73157362Y-87100485D01*
X73194823Y-87149304D01*
X73198686Y-87154623D01*
X73225283Y-87193321D01*
X73233534Y-87205326D01*
X73239203Y-87210377D01*
X73278323Y-87245232D01*
X73283598Y-87250213D01*
X76279595Y-90246210D01*
X76313621Y-90308522D01*
X76316500Y-90335305D01*
X76316500Y-92914696D01*
X76296498Y-92982817D01*
X76279595Y-93003791D01*
X73336542Y-95946843D01*
X73330277Y-95952697D01*
X73288330Y-95989290D01*
X73252934Y-96039655D01*
X73249022Y-96044920D01*
X73211065Y-96093328D01*
X73207939Y-96100252D01*
X73205329Y-96104561D01*
X73199958Y-96113976D01*
X73197573Y-96118424D01*
X73193205Y-96124639D01*
X73190446Y-96131716D01*
X73170858Y-96181957D01*
X73168306Y-96188029D01*
X73142986Y-96244105D01*
X73141600Y-96251582D01*
X73140090Y-96256402D01*
X73137118Y-96266835D01*
X73135870Y-96271696D01*
X73133111Y-96278772D01*
X73132120Y-96286302D01*
X73125082Y-96339762D01*
X73124050Y-96346278D01*
X73112839Y-96406767D01*
X73113276Y-96414347D01*
X73113276Y-96414348D01*
X73116291Y-96466642D01*
X73116500Y-96473894D01*
X73116500Y-105064695D01*
X73096498Y-105132816D01*
X73079595Y-105153790D01*
X72977050Y-105256335D01*
X72914738Y-105290361D01*
X72907654Y-105291500D01*
X72904513Y-105291500D01*
X72898060Y-105292872D01*
X72898057Y-105292872D01*
X72835487Y-105306172D01*
X72717712Y-105331206D01*
X72610748Y-105378829D01*
X72540382Y-105388263D01*
X72476085Y-105358157D01*
X72438271Y-105298068D01*
X72433500Y-105263722D01*
X72433500Y-98888045D01*
X72433792Y-98879476D01*
X72437060Y-98831542D01*
X72437060Y-98831538D01*
X72437576Y-98823966D01*
X72426998Y-98763353D01*
X72426035Y-98756829D01*
X72419558Y-98703309D01*
X72418645Y-98695765D01*
X72415958Y-98688655D01*
X72414754Y-98683752D01*
X72411886Y-98673266D01*
X72410439Y-98668474D01*
X72409134Y-98660996D01*
X72406082Y-98654043D01*
X72384405Y-98604659D01*
X72381914Y-98598554D01*
X72362855Y-98548118D01*
X72362853Y-98548115D01*
X72360169Y-98541011D01*
X72355869Y-98534754D01*
X72353533Y-98530286D01*
X72348275Y-98520840D01*
X72345693Y-98516474D01*
X72342638Y-98509515D01*
X72305177Y-98460696D01*
X72301314Y-98455377D01*
X72270769Y-98410935D01*
X72266466Y-98404674D01*
X72221676Y-98364767D01*
X72216402Y-98359787D01*
X71424832Y-97568217D01*
X71390806Y-97505905D01*
X71388406Y-97468141D01*
X71402637Y-97305476D01*
X71402637Y-97305475D01*
X71403116Y-97300000D01*
X71384686Y-97089345D01*
X71329956Y-96885090D01*
X71327633Y-96880108D01*
X71242912Y-96698423D01*
X71242910Y-96698420D01*
X71240589Y-96693442D01*
X71119301Y-96520224D01*
X70969776Y-96370699D01*
X70796558Y-96249411D01*
X70791580Y-96247090D01*
X70791577Y-96247088D01*
X70609892Y-96162367D01*
X70609891Y-96162366D01*
X70604910Y-96160044D01*
X70599602Y-96158622D01*
X70599600Y-96158621D01*
X70405970Y-96106738D01*
X70405968Y-96106738D01*
X70400655Y-96105314D01*
X70190000Y-96086884D01*
X69979345Y-96105314D01*
X69974032Y-96106738D01*
X69974030Y-96106738D01*
X69780400Y-96158621D01*
X69780398Y-96158622D01*
X69775090Y-96160044D01*
X69770109Y-96162366D01*
X69770108Y-96162367D01*
X69588423Y-96247088D01*
X69588420Y-96247090D01*
X69583442Y-96249411D01*
X69410224Y-96370699D01*
X69260699Y-96520224D01*
X69139411Y-96693442D01*
X69137090Y-96698420D01*
X69137088Y-96698423D01*
X69052367Y-96880108D01*
X69050044Y-96885090D01*
X68995314Y-97089345D01*
X68976884Y-97300000D01*
X68995314Y-97510655D01*
X68996738Y-97515968D01*
X68996738Y-97515970D01*
X69043373Y-97690012D01*
X69050044Y-97714910D01*
X69052366Y-97719891D01*
X69052367Y-97719892D01*
X69121278Y-97867671D01*
X69139411Y-97906558D01*
X69260699Y-98079776D01*
X69410224Y-98229301D01*
X69583442Y-98350589D01*
X69588420Y-98352910D01*
X69588423Y-98352912D01*
X69712854Y-98410935D01*
X69775090Y-98439956D01*
X69780398Y-98441378D01*
X69780400Y-98441379D01*
X69974030Y-98493262D01*
X69974032Y-98493262D01*
X69979345Y-98494686D01*
X70190000Y-98513116D01*
X70195475Y-98512637D01*
X70195476Y-98512637D01*
X70358141Y-98498406D01*
X70427745Y-98512395D01*
X70458217Y-98534832D01*
X71029595Y-99106210D01*
X71063621Y-99168522D01*
X71066500Y-99195305D01*
X71066500Y-110268965D01*
X71046498Y-110337086D01*
X70992842Y-110383579D01*
X70922568Y-110393683D01*
X70857988Y-110364189D01*
X70839674Y-110344530D01*
X70768285Y-110249276D01*
X70755724Y-110236715D01*
X70653649Y-110160214D01*
X70638054Y-110151676D01*
X70517606Y-110106522D01*
X70502351Y-110102895D01*
X70451486Y-110097369D01*
X70444672Y-110097000D01*
X69772115Y-110097000D01*
X69756876Y-110101475D01*
X69755671Y-110102865D01*
X69754000Y-110110548D01*
X69754000Y-112894884D01*
X69758475Y-112910123D01*
X69759865Y-112911328D01*
X69767548Y-112912999D01*
X70444669Y-112912999D01*
X70451490Y-112912629D01*
X70502352Y-112907105D01*
X70517604Y-112903479D01*
X70638054Y-112858324D01*
X70653649Y-112849786D01*
X70755724Y-112773285D01*
X70768285Y-112760724D01*
X70844786Y-112658649D01*
X70853325Y-112643052D01*
X70865278Y-112611167D01*
X70907919Y-112554402D01*
X70974480Y-112529702D01*
X71043829Y-112544909D01*
X71063741Y-112558448D01*
X71189349Y-112662730D01*
X71389322Y-112779584D01*
X71605694Y-112862209D01*
X71610760Y-112863240D01*
X71610761Y-112863240D01*
X71663846Y-112874040D01*
X71832656Y-112908385D01*
X71963324Y-112913176D01*
X72058949Y-112916683D01*
X72058953Y-112916683D01*
X72064113Y-112916872D01*
X72069233Y-112916216D01*
X72069235Y-112916216D01*
X72168668Y-112903478D01*
X72293847Y-112887442D01*
X72298795Y-112885957D01*
X72298802Y-112885956D01*
X72510747Y-112822369D01*
X72515690Y-112820886D01*
X72596236Y-112781427D01*
X72719049Y-112721262D01*
X72719052Y-112721260D01*
X72723684Y-112718991D01*
X72912243Y-112584494D01*
X73076303Y-112421005D01*
X73145370Y-112324888D01*
X73201365Y-112281240D01*
X73272068Y-112274794D01*
X73335033Y-112307597D01*
X73355128Y-112332584D01*
X73356799Y-112335311D01*
X73356804Y-112335317D01*
X73359501Y-112339719D01*
X73511147Y-112514784D01*
X73689349Y-112662730D01*
X73889322Y-112779584D01*
X74105694Y-112862209D01*
X74110760Y-112863240D01*
X74110761Y-112863240D01*
X74163846Y-112874040D01*
X74332656Y-112908385D01*
X74463324Y-112913176D01*
X74558949Y-112916683D01*
X74558953Y-112916683D01*
X74564113Y-112916872D01*
X74569233Y-112916216D01*
X74569235Y-112916216D01*
X74668668Y-112903478D01*
X74793847Y-112887442D01*
X74798795Y-112885957D01*
X74798802Y-112885956D01*
X75010747Y-112822369D01*
X75015690Y-112820886D01*
X75096236Y-112781427D01*
X75219049Y-112721262D01*
X75219052Y-112721260D01*
X75223684Y-112718991D01*
X75412243Y-112584494D01*
X75576303Y-112421005D01*
X75711458Y-112232917D01*
X75807792Y-112038000D01*
X75811784Y-112029922D01*
X75811785Y-112029920D01*
X75814078Y-112025280D01*
X75881408Y-111803671D01*
X75911640Y-111574041D01*
X75913327Y-111505000D01*
X75902038Y-111367693D01*
X75894773Y-111279318D01*
X75894772Y-111279312D01*
X75894349Y-111274167D01*
X75837925Y-111049533D01*
X75835866Y-111044797D01*
X75747630Y-110841868D01*
X75747628Y-110841865D01*
X75745570Y-110837131D01*
X75619764Y-110642665D01*
X75463887Y-110471358D01*
X75459836Y-110468159D01*
X75459832Y-110468155D01*
X75286177Y-110331011D01*
X75286172Y-110331008D01*
X75282123Y-110327810D01*
X75277607Y-110325317D01*
X75277604Y-110325315D01*
X75083879Y-110218373D01*
X75083875Y-110218371D01*
X75079355Y-110215876D01*
X75074486Y-110214152D01*
X75074482Y-110214150D01*
X74865903Y-110140288D01*
X74865899Y-110140287D01*
X74861028Y-110138562D01*
X74855935Y-110137655D01*
X74855932Y-110137654D01*
X74638095Y-110098851D01*
X74638089Y-110098850D01*
X74633006Y-110097945D01*
X74555644Y-110097000D01*
X74406581Y-110095179D01*
X74406579Y-110095179D01*
X74401411Y-110095116D01*
X74172464Y-110130150D01*
X73952314Y-110202106D01*
X73947726Y-110204494D01*
X73947722Y-110204496D01*
X73751461Y-110306663D01*
X73746872Y-110309052D01*
X73742739Y-110312155D01*
X73742736Y-110312157D01*
X73647611Y-110383579D01*
X73561655Y-110448117D01*
X73401639Y-110615564D01*
X73354836Y-110684174D01*
X73299927Y-110729175D01*
X73229402Y-110737346D01*
X73165655Y-110706092D01*
X73144959Y-110681609D01*
X73122577Y-110647013D01*
X73122574Y-110647009D01*
X73119764Y-110642665D01*
X72963887Y-110471358D01*
X72959836Y-110468159D01*
X72959832Y-110468155D01*
X72786177Y-110331011D01*
X72786172Y-110331008D01*
X72782123Y-110327810D01*
X72777607Y-110325317D01*
X72777604Y-110325315D01*
X72583879Y-110218373D01*
X72583875Y-110218371D01*
X72579355Y-110215876D01*
X72574482Y-110214150D01*
X72574479Y-110214149D01*
X72517441Y-110193951D01*
X72459904Y-110152357D01*
X72433988Y-110086260D01*
X72433500Y-110075178D01*
X72433500Y-107136278D01*
X72453502Y-107068157D01*
X72507158Y-107021664D01*
X72577432Y-107011560D01*
X72610747Y-107021171D01*
X72717712Y-107068794D01*
X72811112Y-107088647D01*
X72898056Y-107107128D01*
X72898061Y-107107128D01*
X72904513Y-107108500D01*
X73095487Y-107108500D01*
X73101939Y-107107128D01*
X73101944Y-107107128D01*
X73188887Y-107088647D01*
X73282288Y-107068794D01*
X73288319Y-107066109D01*
X73450722Y-106993803D01*
X73450724Y-106993802D01*
X73456752Y-106991118D01*
X73611253Y-106878866D01*
X73739040Y-106736944D01*
X73834527Y-106571556D01*
X73893542Y-106389928D01*
X73902602Y-106303722D01*
X73929615Y-106238066D01*
X73938817Y-106227798D01*
X74263459Y-105903156D01*
X74269724Y-105897302D01*
X74305945Y-105865704D01*
X74311670Y-105860710D01*
X74347066Y-105810345D01*
X74350980Y-105805077D01*
X74384248Y-105762649D01*
X74388935Y-105756672D01*
X74392061Y-105749748D01*
X74394671Y-105745439D01*
X74400042Y-105736024D01*
X74402427Y-105731576D01*
X74406795Y-105725361D01*
X74429144Y-105668039D01*
X74431698Y-105661962D01*
X74445995Y-105630300D01*
X74457014Y-105605895D01*
X74458400Y-105598418D01*
X74459910Y-105593598D01*
X74462878Y-105583182D01*
X74464131Y-105578302D01*
X74466889Y-105571228D01*
X74474921Y-105510223D01*
X74475953Y-105503710D01*
X74485777Y-105450701D01*
X74485777Y-105450699D01*
X74487161Y-105443232D01*
X74483709Y-105383357D01*
X74483500Y-105376105D01*
X74483500Y-104333884D01*
X74931500Y-104333884D01*
X74931665Y-104336152D01*
X74931665Y-104336164D01*
X74939725Y-104447238D01*
X74946125Y-104535451D01*
X74947109Y-104539906D01*
X74947109Y-104539909D01*
X74986482Y-104718240D01*
X75004585Y-104800237D01*
X75100655Y-105053810D01*
X75232324Y-105290859D01*
X75396833Y-105506417D01*
X75400099Y-105509610D01*
X75400101Y-105509612D01*
X75463574Y-105571661D01*
X75590736Y-105695970D01*
X75594428Y-105698657D01*
X75594430Y-105698659D01*
X75806279Y-105852859D01*
X75809972Y-105855547D01*
X76049947Y-105981804D01*
X76054248Y-105983323D01*
X76054253Y-105983325D01*
X76187087Y-106030233D01*
X76305634Y-106072096D01*
X76403653Y-106091415D01*
X76567206Y-106123652D01*
X76567212Y-106123653D01*
X76571678Y-106124533D01*
X76576232Y-106124760D01*
X76576234Y-106124760D01*
X76837936Y-106137789D01*
X76837942Y-106137789D01*
X76842505Y-106138016D01*
X77112441Y-106112262D01*
X77116870Y-106111178D01*
X77116877Y-106111177D01*
X77276584Y-106072096D01*
X77375832Y-106047810D01*
X77535039Y-105983325D01*
X77622931Y-105947725D01*
X77622932Y-105947725D01*
X77627160Y-105946012D01*
X77861161Y-105808999D01*
X78072932Y-105639641D01*
X78194399Y-105509612D01*
X78254921Y-105444824D01*
X78254923Y-105444821D01*
X78258037Y-105441488D01*
X78412598Y-105218688D01*
X78414627Y-105214610D01*
X78531346Y-104979997D01*
X78531347Y-104979994D01*
X78533379Y-104975910D01*
X78617847Y-104718240D01*
X78664235Y-104451075D01*
X78668500Y-104365400D01*
X78668500Y-103676116D01*
X78666328Y-103646170D01*
X78654205Y-103479100D01*
X78653875Y-103474549D01*
X78652891Y-103470091D01*
X78596400Y-103214223D01*
X78596399Y-103214219D01*
X78595415Y-103209763D01*
X78499345Y-102956190D01*
X78367676Y-102719141D01*
X78203167Y-102503583D01*
X78009264Y-102314030D01*
X77790028Y-102154453D01*
X77550053Y-102028196D01*
X77545752Y-102026677D01*
X77545747Y-102026675D01*
X77367998Y-101963906D01*
X77294366Y-101937904D01*
X77196347Y-101918585D01*
X77032794Y-101886348D01*
X77032788Y-101886347D01*
X77028322Y-101885467D01*
X77023768Y-101885240D01*
X77023766Y-101885240D01*
X76762064Y-101872211D01*
X76762058Y-101872211D01*
X76757495Y-101871984D01*
X76487559Y-101897738D01*
X76483130Y-101898822D01*
X76483123Y-101898823D01*
X76353069Y-101930648D01*
X76224168Y-101962190D01*
X76219933Y-101963905D01*
X76219931Y-101963906D01*
X75977069Y-102062275D01*
X75972840Y-102063988D01*
X75738839Y-102201001D01*
X75527068Y-102370359D01*
X75523947Y-102373700D01*
X75399224Y-102507215D01*
X75341963Y-102568512D01*
X75187402Y-102791312D01*
X75185374Y-102795388D01*
X75185373Y-102795390D01*
X75103252Y-102960460D01*
X75066621Y-103034090D01*
X74982153Y-103291760D01*
X74935765Y-103558925D01*
X74931500Y-103644600D01*
X74931500Y-104333884D01*
X74483500Y-104333884D01*
X74483500Y-97300000D01*
X76596884Y-97300000D01*
X76615314Y-97510655D01*
X76616738Y-97515968D01*
X76616738Y-97515970D01*
X76663373Y-97690012D01*
X76670044Y-97714910D01*
X76672366Y-97719891D01*
X76672367Y-97719892D01*
X76741278Y-97867671D01*
X76759411Y-97906558D01*
X76880699Y-98079776D01*
X77030224Y-98229301D01*
X77203442Y-98350589D01*
X77208420Y-98352910D01*
X77208423Y-98352912D01*
X77332854Y-98410935D01*
X77395090Y-98439956D01*
X77400398Y-98441378D01*
X77400400Y-98441379D01*
X77594030Y-98493262D01*
X77594032Y-98493262D01*
X77599345Y-98494686D01*
X77810000Y-98513116D01*
X78020655Y-98494686D01*
X78025968Y-98493262D01*
X78025970Y-98493262D01*
X78219600Y-98441379D01*
X78219602Y-98441378D01*
X78224910Y-98439956D01*
X78287146Y-98410935D01*
X78411577Y-98352912D01*
X78411580Y-98352910D01*
X78416558Y-98350589D01*
X78589776Y-98229301D01*
X78739301Y-98079776D01*
X78860589Y-97906558D01*
X78878723Y-97867671D01*
X78947633Y-97719892D01*
X78947634Y-97719891D01*
X78949956Y-97714910D01*
X78956628Y-97690012D01*
X79003262Y-97515970D01*
X79003262Y-97515968D01*
X79004686Y-97510655D01*
X79023116Y-97300000D01*
X79004686Y-97089345D01*
X78949956Y-96885090D01*
X78947633Y-96880108D01*
X78862912Y-96698423D01*
X78862910Y-96698420D01*
X78860589Y-96693442D01*
X78739301Y-96520224D01*
X78589776Y-96370699D01*
X78416558Y-96249411D01*
X78411580Y-96247090D01*
X78411577Y-96247088D01*
X78229892Y-96162367D01*
X78229891Y-96162366D01*
X78224910Y-96160044D01*
X78219602Y-96158622D01*
X78219600Y-96158621D01*
X78025970Y-96106738D01*
X78025968Y-96106738D01*
X78020655Y-96105314D01*
X77810000Y-96086884D01*
X77599345Y-96105314D01*
X77594032Y-96106738D01*
X77594030Y-96106738D01*
X77400400Y-96158621D01*
X77400398Y-96158622D01*
X77395090Y-96160044D01*
X77390109Y-96162366D01*
X77390108Y-96162367D01*
X77208423Y-96247088D01*
X77208420Y-96247090D01*
X77203442Y-96249411D01*
X77030224Y-96370699D01*
X76880699Y-96520224D01*
X76759411Y-96693442D01*
X76757090Y-96698420D01*
X76757088Y-96698423D01*
X76672367Y-96880108D01*
X76670044Y-96885090D01*
X76615314Y-97089345D01*
X76596884Y-97300000D01*
X74483500Y-97300000D01*
X74483500Y-96785305D01*
X74503502Y-96717184D01*
X74520405Y-96696210D01*
X77463459Y-93753156D01*
X77469724Y-93747302D01*
X77505945Y-93715704D01*
X77511670Y-93710710D01*
X77547046Y-93660374D01*
X77550972Y-93655088D01*
X77584251Y-93612646D01*
X77584252Y-93612645D01*
X77588935Y-93606672D01*
X77592060Y-93599751D01*
X77594673Y-93595436D01*
X77600042Y-93586024D01*
X77602427Y-93581576D01*
X77606795Y-93575361D01*
X77629142Y-93518044D01*
X77631697Y-93511966D01*
X77653886Y-93462823D01*
X77657014Y-93455896D01*
X77658399Y-93448424D01*
X77659919Y-93443573D01*
X77662862Y-93433243D01*
X77664130Y-93428304D01*
X77666889Y-93421228D01*
X77668679Y-93407631D01*
X77674922Y-93360215D01*
X77675953Y-93353703D01*
X77687160Y-93293233D01*
X77683709Y-93233369D01*
X77683500Y-93226117D01*
X77683500Y-90028045D01*
X77683792Y-90019476D01*
X77687060Y-89971542D01*
X77687060Y-89971538D01*
X77687576Y-89963966D01*
X77676998Y-89903353D01*
X77676035Y-89896829D01*
X77669558Y-89843309D01*
X77668645Y-89835765D01*
X77665958Y-89828655D01*
X77664754Y-89823752D01*
X77661886Y-89813266D01*
X77660439Y-89808474D01*
X77659134Y-89800996D01*
X77656082Y-89794043D01*
X77634405Y-89744659D01*
X77631914Y-89738554D01*
X77612855Y-89688118D01*
X77612853Y-89688115D01*
X77610169Y-89681011D01*
X77605869Y-89674754D01*
X77603533Y-89670286D01*
X77598275Y-89660840D01*
X77595693Y-89656474D01*
X77592638Y-89649515D01*
X77555177Y-89600696D01*
X77551314Y-89595377D01*
X77520769Y-89550935D01*
X77516466Y-89544674D01*
X77471676Y-89504767D01*
X77466402Y-89499787D01*
X74470405Y-86503790D01*
X74436379Y-86441478D01*
X74433500Y-86414695D01*
X74433500Y-84828884D01*
X74931500Y-84828884D01*
X74931665Y-84831152D01*
X74931665Y-84831164D01*
X74939725Y-84942238D01*
X74946125Y-85030451D01*
X74947109Y-85034906D01*
X74947109Y-85034909D01*
X74986482Y-85213240D01*
X75004585Y-85295237D01*
X75100655Y-85548810D01*
X75232324Y-85785859D01*
X75396833Y-86001417D01*
X75590736Y-86190970D01*
X75594428Y-86193657D01*
X75594430Y-86193659D01*
X75624272Y-86215380D01*
X75809972Y-86350547D01*
X76049947Y-86476804D01*
X76054248Y-86478323D01*
X76054253Y-86478325D01*
X76126365Y-86503790D01*
X76305634Y-86567096D01*
X76403653Y-86586415D01*
X76567206Y-86618652D01*
X76567212Y-86618653D01*
X76571678Y-86619533D01*
X76576232Y-86619760D01*
X76576234Y-86619760D01*
X76837936Y-86632789D01*
X76837942Y-86632789D01*
X76842505Y-86633016D01*
X77112441Y-86607262D01*
X77116870Y-86606178D01*
X77116877Y-86606177D01*
X77276584Y-86567096D01*
X77375832Y-86542810D01*
X77506185Y-86490012D01*
X77622931Y-86442725D01*
X77622932Y-86442725D01*
X77627160Y-86441012D01*
X77861161Y-86303999D01*
X78072932Y-86134641D01*
X78124041Y-86079929D01*
X78254921Y-85939824D01*
X78254923Y-85939821D01*
X78258037Y-85936488D01*
X78412598Y-85713688D01*
X78494624Y-85548810D01*
X78531346Y-85474997D01*
X78531347Y-85474994D01*
X78533379Y-85470910D01*
X78617847Y-85213240D01*
X78664235Y-84946075D01*
X78668500Y-84860400D01*
X78668500Y-84171116D01*
X78666328Y-84141170D01*
X78654205Y-83974100D01*
X78653875Y-83969549D01*
X78652891Y-83965091D01*
X78596400Y-83709223D01*
X78596399Y-83709219D01*
X78595415Y-83704763D01*
X78499345Y-83451190D01*
X78367676Y-83214141D01*
X78203167Y-82998583D01*
X78009264Y-82809030D01*
X77790028Y-82649453D01*
X77550053Y-82523196D01*
X77545752Y-82521677D01*
X77545747Y-82521675D01*
X77367998Y-82458906D01*
X77294366Y-82432904D01*
X77196347Y-82413585D01*
X77032794Y-82381348D01*
X77032788Y-82381347D01*
X77028322Y-82380467D01*
X77023768Y-82380240D01*
X77023766Y-82380240D01*
X76762064Y-82367211D01*
X76762058Y-82367211D01*
X76757495Y-82366984D01*
X76487559Y-82392738D01*
X76483130Y-82393822D01*
X76483123Y-82393823D01*
X76353069Y-82425648D01*
X76224168Y-82457190D01*
X76219933Y-82458905D01*
X76219931Y-82458906D01*
X75977069Y-82557275D01*
X75972840Y-82558988D01*
X75738839Y-82696001D01*
X75527068Y-82865359D01*
X75523947Y-82868700D01*
X75399224Y-83002215D01*
X75341963Y-83063512D01*
X75187402Y-83286312D01*
X75185374Y-83290388D01*
X75185373Y-83290390D01*
X75103252Y-83455460D01*
X75066621Y-83529090D01*
X74982153Y-83786760D01*
X74935765Y-84053925D01*
X74931500Y-84139600D01*
X74931500Y-84828884D01*
X74433500Y-84828884D01*
X74433500Y-77278056D01*
X74433792Y-77269486D01*
X74433863Y-77268443D01*
X74437577Y-77213966D01*
X74426997Y-77153342D01*
X74426034Y-77146819D01*
X74419558Y-77093308D01*
X74419558Y-77093307D01*
X74418645Y-77085765D01*
X74415959Y-77078655D01*
X74414754Y-77073752D01*
X74411886Y-77063266D01*
X74410439Y-77058474D01*
X74409134Y-77050996D01*
X74406082Y-77044043D01*
X74384405Y-76994659D01*
X74381914Y-76988554D01*
X74362855Y-76938118D01*
X74362853Y-76938115D01*
X74360169Y-76931011D01*
X74355869Y-76924754D01*
X74353533Y-76920286D01*
X74348275Y-76910840D01*
X74345693Y-76906474D01*
X74342638Y-76899515D01*
X74305177Y-76850696D01*
X74301314Y-76845377D01*
X74270769Y-76800935D01*
X74266466Y-76794674D01*
X74221676Y-76754767D01*
X74216402Y-76749787D01*
X73966615Y-76500000D01*
X76566884Y-76500000D01*
X76585314Y-76710655D01*
X76586738Y-76715968D01*
X76586738Y-76715970D01*
X76622140Y-76848090D01*
X76640044Y-76914910D01*
X76642366Y-76919891D01*
X76642367Y-76919892D01*
X76711820Y-77068833D01*
X76729411Y-77106558D01*
X76850699Y-77279776D01*
X77000224Y-77429301D01*
X77173442Y-77550589D01*
X77178420Y-77552910D01*
X77178423Y-77552912D01*
X77360108Y-77637633D01*
X77365090Y-77639956D01*
X77370398Y-77641378D01*
X77370400Y-77641379D01*
X77564030Y-77693262D01*
X77564032Y-77693262D01*
X77569345Y-77694686D01*
X77780000Y-77713116D01*
X77990655Y-77694686D01*
X77995968Y-77693262D01*
X77995970Y-77693262D01*
X78189600Y-77641379D01*
X78189602Y-77641378D01*
X78194910Y-77639956D01*
X78199892Y-77637633D01*
X78381577Y-77552912D01*
X78381580Y-77552910D01*
X78386558Y-77550589D01*
X78559776Y-77429301D01*
X78709301Y-77279776D01*
X78830589Y-77106558D01*
X78848181Y-77068833D01*
X78917633Y-76919892D01*
X78917634Y-76919891D01*
X78919956Y-76914910D01*
X78937861Y-76848090D01*
X78973262Y-76715970D01*
X78973262Y-76715968D01*
X78974686Y-76710655D01*
X78993116Y-76500000D01*
X78974686Y-76289345D01*
X78919956Y-76085090D01*
X78917633Y-76080108D01*
X78832912Y-75898423D01*
X78832910Y-75898420D01*
X78830589Y-75893442D01*
X78709301Y-75720224D01*
X78559776Y-75570699D01*
X78386558Y-75449411D01*
X78381580Y-75447090D01*
X78381577Y-75447088D01*
X78199892Y-75362367D01*
X78199891Y-75362366D01*
X78194910Y-75360044D01*
X78189602Y-75358622D01*
X78189600Y-75358621D01*
X77995970Y-75306738D01*
X77995968Y-75306738D01*
X77990655Y-75305314D01*
X77780000Y-75286884D01*
X77569345Y-75305314D01*
X77564032Y-75306738D01*
X77564030Y-75306738D01*
X77370400Y-75358621D01*
X77370398Y-75358622D01*
X77365090Y-75360044D01*
X77360109Y-75362366D01*
X77360108Y-75362367D01*
X77178423Y-75447088D01*
X77178420Y-75447090D01*
X77173442Y-75449411D01*
X77000224Y-75570699D01*
X76850699Y-75720224D01*
X76729411Y-75893442D01*
X76727090Y-75898420D01*
X76727088Y-75898423D01*
X76642367Y-76080108D01*
X76640044Y-76085090D01*
X76585314Y-76289345D01*
X76566884Y-76500000D01*
X73966615Y-76500000D01*
X72720405Y-75253790D01*
X72686379Y-75191478D01*
X72683500Y-75164695D01*
X72683500Y-73812548D01*
X72703502Y-73744427D01*
X72736332Y-73709969D01*
X72798900Y-73665340D01*
X72912243Y-73584494D01*
X73076303Y-73421005D01*
X73145370Y-73324888D01*
X73201365Y-73281240D01*
X73272068Y-73274794D01*
X73335033Y-73307597D01*
X73355128Y-73332584D01*
X73356799Y-73335311D01*
X73356804Y-73335317D01*
X73359501Y-73339719D01*
X73511147Y-73514784D01*
X73689349Y-73662730D01*
X73889322Y-73779584D01*
X74105694Y-73862209D01*
X74110760Y-73863240D01*
X74110761Y-73863240D01*
X74163846Y-73874040D01*
X74332656Y-73908385D01*
X74463324Y-73913176D01*
X74558949Y-73916683D01*
X74558953Y-73916683D01*
X74564113Y-73916872D01*
X74569233Y-73916216D01*
X74569235Y-73916216D01*
X74668668Y-73903478D01*
X74793847Y-73887442D01*
X74798795Y-73885957D01*
X74798802Y-73885956D01*
X75010747Y-73822369D01*
X75015690Y-73820886D01*
X75032710Y-73812548D01*
X75219049Y-73721262D01*
X75219052Y-73721260D01*
X75223684Y-73718991D01*
X75412243Y-73584494D01*
X75576303Y-73421005D01*
X75711458Y-73232917D01*
X75807792Y-73038000D01*
X75811784Y-73029922D01*
X75811785Y-73029920D01*
X75814078Y-73025280D01*
X75881408Y-72803671D01*
X75911640Y-72574041D01*
X75913327Y-72505000D01*
X75902038Y-72367693D01*
X75894773Y-72279318D01*
X75894772Y-72279312D01*
X75894349Y-72274167D01*
X75837925Y-72049533D01*
X75835866Y-72044797D01*
X75747630Y-71841868D01*
X75747628Y-71841865D01*
X75745570Y-71837131D01*
X75619764Y-71642665D01*
X75463887Y-71471358D01*
X75459836Y-71468159D01*
X75459832Y-71468155D01*
X75286177Y-71331011D01*
X75286172Y-71331008D01*
X75282123Y-71327810D01*
X75277607Y-71325317D01*
X75277604Y-71325315D01*
X75083879Y-71218373D01*
X75083875Y-71218371D01*
X75079355Y-71215876D01*
X75074486Y-71214152D01*
X75074482Y-71214150D01*
X74865903Y-71140288D01*
X74865899Y-71140287D01*
X74861028Y-71138562D01*
X74855935Y-71137655D01*
X74855932Y-71137654D01*
X74638095Y-71098851D01*
X74638089Y-71098850D01*
X74633006Y-71097945D01*
X74555644Y-71097000D01*
X74406581Y-71095179D01*
X74406579Y-71095179D01*
X74401411Y-71095116D01*
X74172464Y-71130150D01*
X73952314Y-71202106D01*
X73947726Y-71204494D01*
X73947722Y-71204496D01*
X73751461Y-71306663D01*
X73746872Y-71309052D01*
X73742739Y-71312155D01*
X73742736Y-71312157D01*
X73565790Y-71445012D01*
X73561655Y-71448117D01*
X73401639Y-71615564D01*
X73354836Y-71684174D01*
X73299927Y-71729175D01*
X73229402Y-71737346D01*
X73165655Y-71706092D01*
X73144959Y-71681609D01*
X73122577Y-71647013D01*
X73122574Y-71647009D01*
X73119764Y-71642665D01*
X72963887Y-71471358D01*
X72959836Y-71468159D01*
X72959832Y-71468155D01*
X72786177Y-71331011D01*
X72786172Y-71331008D01*
X72782123Y-71327810D01*
X72777607Y-71325317D01*
X72777604Y-71325315D01*
X72583879Y-71218373D01*
X72583875Y-71218371D01*
X72579355Y-71215876D01*
X72574486Y-71214152D01*
X72574482Y-71214150D01*
X72365903Y-71140288D01*
X72365899Y-71140287D01*
X72361028Y-71138562D01*
X72355935Y-71137655D01*
X72355932Y-71137654D01*
X72138095Y-71098851D01*
X72138089Y-71098850D01*
X72133006Y-71097945D01*
X72055644Y-71097000D01*
X71906581Y-71095179D01*
X71906579Y-71095179D01*
X71901411Y-71095116D01*
X71672464Y-71130150D01*
X71452314Y-71202106D01*
X71447726Y-71204494D01*
X71447722Y-71204496D01*
X71251461Y-71306663D01*
X71246872Y-71309052D01*
X71242739Y-71312155D01*
X71242736Y-71312157D01*
X71065790Y-71445012D01*
X71061655Y-71448117D01*
X71061066Y-71447333D01*
X71001346Y-71475484D01*
X70930955Y-71466231D01*
X70876741Y-71420391D01*
X70863925Y-71395224D01*
X70853323Y-71366944D01*
X70844786Y-71351351D01*
X70768285Y-71249276D01*
X70755724Y-71236715D01*
X70653649Y-71160214D01*
X70638054Y-71151676D01*
X70517606Y-71106522D01*
X70502351Y-71102895D01*
X70451486Y-71097369D01*
X70444672Y-71097000D01*
X69772115Y-71097000D01*
X69756876Y-71101475D01*
X69755671Y-71102865D01*
X69754000Y-71110548D01*
X69754000Y-73894884D01*
X69758475Y-73910123D01*
X69759865Y-73911328D01*
X69767548Y-73912999D01*
X70444669Y-73912999D01*
X70451490Y-73912629D01*
X70502352Y-73907105D01*
X70517604Y-73903479D01*
X70638054Y-73858324D01*
X70653649Y-73849786D01*
X70755724Y-73773285D01*
X70768285Y-73760724D01*
X70844786Y-73658649D01*
X70853325Y-73643052D01*
X70865278Y-73611167D01*
X70907919Y-73554402D01*
X70974480Y-73529702D01*
X71043829Y-73544909D01*
X71063741Y-73558448D01*
X71189349Y-73662730D01*
X71254072Y-73700551D01*
X71302794Y-73752189D01*
X71316500Y-73809338D01*
X71316500Y-75471955D01*
X71316208Y-75480523D01*
X71312424Y-75536034D01*
X71313729Y-75543511D01*
X71313729Y-75543514D01*
X71323002Y-75596647D01*
X71323965Y-75603171D01*
X71329632Y-75649998D01*
X71317959Y-75720028D01*
X71270278Y-75772631D01*
X71201727Y-75791104D01*
X71134071Y-75769584D01*
X71101334Y-75737409D01*
X71089301Y-75720224D01*
X70939776Y-75570699D01*
X70766558Y-75449411D01*
X70761580Y-75447090D01*
X70761577Y-75447088D01*
X70579892Y-75362367D01*
X70579891Y-75362366D01*
X70574910Y-75360044D01*
X70569602Y-75358622D01*
X70569600Y-75358621D01*
X70375970Y-75306738D01*
X70375968Y-75306738D01*
X70370655Y-75305314D01*
X70160000Y-75286884D01*
X69949345Y-75305314D01*
X69944032Y-75306738D01*
X69944030Y-75306738D01*
X69750400Y-75358621D01*
X69750398Y-75358622D01*
X69745090Y-75360044D01*
X69740109Y-75362366D01*
X69740108Y-75362367D01*
X69558423Y-75447088D01*
X69558420Y-75447090D01*
X69553442Y-75449411D01*
X69380224Y-75570699D01*
X69230699Y-75720224D01*
X69109411Y-75893442D01*
X69107090Y-75898420D01*
X69107088Y-75898423D01*
X69022367Y-76080108D01*
X69020044Y-76085090D01*
X68965314Y-76289345D01*
X68946884Y-76500000D01*
X50508000Y-76500000D01*
X50508000Y-73449669D01*
X68092001Y-73449669D01*
X68092371Y-73456490D01*
X68097895Y-73507352D01*
X68101521Y-73522604D01*
X68146676Y-73643054D01*
X68155214Y-73658649D01*
X68231715Y-73760724D01*
X68244276Y-73773285D01*
X68346351Y-73849786D01*
X68361946Y-73858324D01*
X68482394Y-73903478D01*
X68497649Y-73907105D01*
X68548514Y-73912631D01*
X68555328Y-73913000D01*
X69227885Y-73913000D01*
X69243124Y-73908525D01*
X69244329Y-73907135D01*
X69246000Y-73899452D01*
X69246000Y-72777115D01*
X69241525Y-72761876D01*
X69240135Y-72760671D01*
X69232452Y-72759000D01*
X68110116Y-72759000D01*
X68094877Y-72763475D01*
X68093672Y-72764865D01*
X68092001Y-72772548D01*
X68092001Y-73449669D01*
X50508000Y-73449669D01*
X50508000Y-71751114D01*
X55962940Y-71751114D01*
X55966117Y-71778572D01*
X55968078Y-71788476D01*
X56033587Y-72019975D01*
X56037101Y-72029424D01*
X56138782Y-72247483D01*
X56143761Y-72256247D01*
X56278993Y-72455234D01*
X56285325Y-72463109D01*
X56450621Y-72637905D01*
X56458130Y-72644666D01*
X56649253Y-72790791D01*
X56657732Y-72796255D01*
X56869764Y-72909945D01*
X56879016Y-72913987D01*
X57106493Y-72992313D01*
X57116269Y-72994824D01*
X57354428Y-73035961D01*
X57362295Y-73036816D01*
X57386953Y-73037936D01*
X57389786Y-73038000D01*
X57727885Y-73038000D01*
X57743124Y-73033525D01*
X57744329Y-73032135D01*
X57746000Y-73024452D01*
X57746000Y-73019885D01*
X58254000Y-73019885D01*
X58258475Y-73035124D01*
X58259865Y-73036329D01*
X58267548Y-73038000D01*
X58560482Y-73038000D01*
X58565514Y-73037798D01*
X58744863Y-73023368D01*
X58754816Y-73021756D01*
X58988467Y-72964366D01*
X58998037Y-72961183D01*
X59219506Y-72867174D01*
X59228448Y-72862499D01*
X59432036Y-72734293D01*
X59440109Y-72728253D01*
X59620585Y-72569143D01*
X59627588Y-72561891D01*
X59780301Y-72375975D01*
X59786057Y-72367693D01*
X59864517Y-72232885D01*
X68092000Y-72232885D01*
X68096475Y-72248124D01*
X68097865Y-72249329D01*
X68105548Y-72251000D01*
X69227885Y-72251000D01*
X69243124Y-72246525D01*
X69244329Y-72245135D01*
X69246000Y-72237452D01*
X69246000Y-71115116D01*
X69241525Y-71099877D01*
X69240135Y-71098672D01*
X69232452Y-71097001D01*
X68555331Y-71097001D01*
X68548510Y-71097371D01*
X68497648Y-71102895D01*
X68482396Y-71106521D01*
X68361946Y-71151676D01*
X68346351Y-71160214D01*
X68244276Y-71236715D01*
X68231715Y-71249276D01*
X68155214Y-71351351D01*
X68146676Y-71366946D01*
X68101522Y-71487394D01*
X68097895Y-71502649D01*
X68092369Y-71553514D01*
X68092000Y-71560328D01*
X68092000Y-72232885D01*
X59864517Y-72232885D01*
X59907080Y-72159754D01*
X59911440Y-72150655D01*
X59997660Y-71926045D01*
X60000509Y-71916363D01*
X60034902Y-71751736D01*
X60033779Y-71737675D01*
X60023672Y-71734000D01*
X58272115Y-71734000D01*
X58256876Y-71738475D01*
X58255671Y-71739865D01*
X58254000Y-71747548D01*
X58254000Y-73019885D01*
X57746000Y-73019885D01*
X57746000Y-71752115D01*
X57741525Y-71736876D01*
X57740135Y-71735671D01*
X57732452Y-71734000D01*
X55979075Y-71734000D01*
X55964989Y-71738136D01*
X55962940Y-71751114D01*
X50508000Y-71751114D01*
X50508000Y-71208264D01*
X55965098Y-71208264D01*
X55966221Y-71222325D01*
X55976328Y-71226000D01*
X60020925Y-71226000D01*
X60035011Y-71221864D01*
X60037060Y-71208886D01*
X60033883Y-71181428D01*
X60031922Y-71171524D01*
X59966413Y-70940025D01*
X59962899Y-70930576D01*
X59861218Y-70712517D01*
X59856239Y-70703753D01*
X59721007Y-70504766D01*
X59714675Y-70496891D01*
X59549379Y-70322095D01*
X59541870Y-70315334D01*
X59350747Y-70169209D01*
X59348383Y-70167686D01*
X59347660Y-70166849D01*
X59346727Y-70166136D01*
X59346875Y-70165942D01*
X59301958Y-70113972D01*
X59291943Y-70043685D01*
X59321518Y-69979142D01*
X59345180Y-69957997D01*
X59389988Y-69927144D01*
X59389989Y-69927143D01*
X59394744Y-69923869D01*
X59398825Y-69919781D01*
X59541089Y-69777270D01*
X59541093Y-69777265D01*
X59545168Y-69773183D01*
X59665613Y-69597607D01*
X59752044Y-69403021D01*
X59801568Y-69195943D01*
X59808500Y-69099237D01*
X59808499Y-67660764D01*
X59801277Y-67562047D01*
X59751391Y-67355056D01*
X59664620Y-67160622D01*
X59543869Y-66985256D01*
X59502246Y-66943705D01*
X59397270Y-66838911D01*
X59397265Y-66838907D01*
X59393183Y-66834832D01*
X59217607Y-66714387D01*
X59055749Y-66642493D01*
X59028299Y-66630300D01*
X59028295Y-66630299D01*
X59023021Y-66627956D01*
X58985753Y-66619043D01*
X58820941Y-66579627D01*
X58820937Y-66579626D01*
X58815943Y-66578432D01*
X58779715Y-66575835D01*
X58721487Y-66571661D01*
X58721479Y-66571661D01*
X58719237Y-66571500D01*
X58006457Y-66571500D01*
X57280764Y-66571501D01*
X57278471Y-66571669D01*
X57278464Y-66571669D01*
X57187182Y-66578347D01*
X57187178Y-66578348D01*
X57182047Y-66578723D01*
X56975056Y-66628609D01*
X56780622Y-66715380D01*
X56775868Y-66718653D01*
X56775867Y-66718654D01*
X56611886Y-66831566D01*
X56605256Y-66836131D01*
X56601176Y-66840218D01*
X56601175Y-66840219D01*
X56458911Y-66982730D01*
X56458907Y-66982735D01*
X56454832Y-66986817D01*
X56334387Y-67162393D01*
X56247956Y-67356979D01*
X56198432Y-67564057D01*
X56191500Y-67660763D01*
X56191501Y-69099236D01*
X56198723Y-69197953D01*
X56248609Y-69404944D01*
X56335380Y-69599378D01*
X56456131Y-69774744D01*
X56460218Y-69778824D01*
X56460219Y-69778825D01*
X56602730Y-69921089D01*
X56602735Y-69921093D01*
X56606817Y-69925168D01*
X56611578Y-69928434D01*
X56658616Y-69960702D01*
X56703474Y-70015731D01*
X56711461Y-70086277D01*
X56680040Y-70149942D01*
X56654481Y-70171224D01*
X56567969Y-70225703D01*
X56559891Y-70231747D01*
X56379415Y-70390857D01*
X56372412Y-70398109D01*
X56219699Y-70584025D01*
X56213943Y-70592307D01*
X56092920Y-70800246D01*
X56088560Y-70809345D01*
X56002340Y-71033955D01*
X55999491Y-71043637D01*
X55965098Y-71208264D01*
X50508000Y-71208264D01*
X50508000Y-65333884D01*
X65331500Y-65333884D01*
X65331665Y-65336152D01*
X65331665Y-65336164D01*
X65339725Y-65447238D01*
X65346125Y-65535451D01*
X65347109Y-65539906D01*
X65347109Y-65539909D01*
X65386482Y-65718240D01*
X65404585Y-65800237D01*
X65500655Y-66053810D01*
X65632324Y-66290859D01*
X65796833Y-66506417D01*
X65800099Y-66509610D01*
X65800101Y-66509612D01*
X65863574Y-66571661D01*
X65990736Y-66695970D01*
X65994428Y-66698657D01*
X65994430Y-66698659D01*
X66206279Y-66852859D01*
X66209972Y-66855547D01*
X66449947Y-66981804D01*
X66454248Y-66983323D01*
X66454253Y-66983325D01*
X66587087Y-67030233D01*
X66705634Y-67072096D01*
X66803653Y-67091415D01*
X66967206Y-67123652D01*
X66967212Y-67123653D01*
X66971678Y-67124533D01*
X66976232Y-67124760D01*
X66976234Y-67124760D01*
X67237936Y-67137789D01*
X67237942Y-67137789D01*
X67242505Y-67138016D01*
X67512441Y-67112262D01*
X67516870Y-67111178D01*
X67516877Y-67111177D01*
X67676584Y-67072096D01*
X67775832Y-67047810D01*
X67935039Y-66983325D01*
X68022931Y-66947725D01*
X68022932Y-66947725D01*
X68027160Y-66946012D01*
X68261161Y-66808999D01*
X68472932Y-66639641D01*
X68594399Y-66509612D01*
X68654921Y-66444824D01*
X68654923Y-66444821D01*
X68658037Y-66441488D01*
X68812598Y-66218688D01*
X68894624Y-66053810D01*
X68931346Y-65979997D01*
X68931347Y-65979994D01*
X68933379Y-65975910D01*
X69017847Y-65718240D01*
X69064235Y-65451075D01*
X69068500Y-65365400D01*
X69068500Y-65333884D01*
X74931500Y-65333884D01*
X74931665Y-65336152D01*
X74931665Y-65336164D01*
X74939725Y-65447238D01*
X74946125Y-65535451D01*
X74947109Y-65539906D01*
X74947109Y-65539909D01*
X74986482Y-65718240D01*
X75004585Y-65800237D01*
X75100655Y-66053810D01*
X75232324Y-66290859D01*
X75396833Y-66506417D01*
X75400099Y-66509610D01*
X75400101Y-66509612D01*
X75463574Y-66571661D01*
X75590736Y-66695970D01*
X75594428Y-66698657D01*
X75594430Y-66698659D01*
X75806279Y-66852859D01*
X75809972Y-66855547D01*
X76049947Y-66981804D01*
X76054248Y-66983323D01*
X76054253Y-66983325D01*
X76187087Y-67030233D01*
X76305634Y-67072096D01*
X76403653Y-67091415D01*
X76567206Y-67123652D01*
X76567212Y-67123653D01*
X76571678Y-67124533D01*
X76576232Y-67124760D01*
X76576234Y-67124760D01*
X76837936Y-67137789D01*
X76837942Y-67137789D01*
X76842505Y-67138016D01*
X77112441Y-67112262D01*
X77116870Y-67111178D01*
X77116877Y-67111177D01*
X77276584Y-67072096D01*
X77375832Y-67047810D01*
X77535039Y-66983325D01*
X77622931Y-66947725D01*
X77622932Y-66947725D01*
X77627160Y-66946012D01*
X77861161Y-66808999D01*
X78072932Y-66639641D01*
X78194399Y-66509612D01*
X78254921Y-66444824D01*
X78254923Y-66444821D01*
X78258037Y-66441488D01*
X78412598Y-66218688D01*
X78494624Y-66053810D01*
X78531346Y-65979997D01*
X78531347Y-65979994D01*
X78533379Y-65975910D01*
X78617847Y-65718240D01*
X78664235Y-65451075D01*
X78668500Y-65365400D01*
X78668500Y-64676116D01*
X78666328Y-64646170D01*
X78654205Y-64479100D01*
X78653875Y-64474549D01*
X78652891Y-64470091D01*
X78596400Y-64214223D01*
X78596399Y-64214219D01*
X78595415Y-64209763D01*
X78499345Y-63956190D01*
X78367676Y-63719141D01*
X78203167Y-63503583D01*
X78009264Y-63314030D01*
X77790028Y-63154453D01*
X77550053Y-63028196D01*
X77545752Y-63026677D01*
X77545747Y-63026675D01*
X77367998Y-62963906D01*
X77294366Y-62937904D01*
X77196347Y-62918585D01*
X77032794Y-62886348D01*
X77032788Y-62886347D01*
X77028322Y-62885467D01*
X77023768Y-62885240D01*
X77023766Y-62885240D01*
X76762064Y-62872211D01*
X76762058Y-62872211D01*
X76757495Y-62871984D01*
X76487559Y-62897738D01*
X76483130Y-62898822D01*
X76483123Y-62898823D01*
X76353069Y-62930648D01*
X76224168Y-62962190D01*
X76219933Y-62963905D01*
X76219931Y-62963906D01*
X75977069Y-63062275D01*
X75972840Y-63063988D01*
X75738839Y-63201001D01*
X75527068Y-63370359D01*
X75523947Y-63373700D01*
X75399224Y-63507215D01*
X75341963Y-63568512D01*
X75187402Y-63791312D01*
X75185374Y-63795388D01*
X75185373Y-63795390D01*
X75103252Y-63960460D01*
X75066621Y-64034090D01*
X74982153Y-64291760D01*
X74935765Y-64558925D01*
X74931500Y-64644600D01*
X74931500Y-65333884D01*
X69068500Y-65333884D01*
X69068500Y-64676116D01*
X69066328Y-64646170D01*
X69054205Y-64479100D01*
X69053875Y-64474549D01*
X69052891Y-64470091D01*
X68996400Y-64214223D01*
X68996399Y-64214219D01*
X68995415Y-64209763D01*
X68899345Y-63956190D01*
X68767676Y-63719141D01*
X68603167Y-63503583D01*
X68409264Y-63314030D01*
X68190028Y-63154453D01*
X67950053Y-63028196D01*
X67945752Y-63026677D01*
X67945747Y-63026675D01*
X67767998Y-62963906D01*
X67694366Y-62937904D01*
X67596347Y-62918585D01*
X67432794Y-62886348D01*
X67432788Y-62886347D01*
X67428322Y-62885467D01*
X67423768Y-62885240D01*
X67423766Y-62885240D01*
X67162064Y-62872211D01*
X67162058Y-62872211D01*
X67157495Y-62871984D01*
X66887559Y-62897738D01*
X66883130Y-62898822D01*
X66883123Y-62898823D01*
X66753069Y-62930648D01*
X66624168Y-62962190D01*
X66619933Y-62963905D01*
X66619931Y-62963906D01*
X66377069Y-63062275D01*
X66372840Y-63063988D01*
X66138839Y-63201001D01*
X65927068Y-63370359D01*
X65923947Y-63373700D01*
X65799224Y-63507215D01*
X65741963Y-63568512D01*
X65587402Y-63791312D01*
X65585374Y-63795388D01*
X65585373Y-63795390D01*
X65503252Y-63960460D01*
X65466621Y-64034090D01*
X65382153Y-64291760D01*
X65335765Y-64558925D01*
X65331500Y-64644600D01*
X65331500Y-65333884D01*
X50508000Y-65333884D01*
X50508000Y-59360763D01*
X56191500Y-59360763D01*
X56191501Y-60799236D01*
X56198723Y-60897953D01*
X56248609Y-61104944D01*
X56335380Y-61299378D01*
X56456131Y-61474744D01*
X56460218Y-61478824D01*
X56460219Y-61478825D01*
X56602730Y-61621089D01*
X56602735Y-61621093D01*
X56606817Y-61625168D01*
X56782393Y-61745613D01*
X56879686Y-61788828D01*
X56971701Y-61829700D01*
X56971705Y-61829701D01*
X56976979Y-61832044D01*
X56982600Y-61833388D01*
X56982599Y-61833388D01*
X57179059Y-61880373D01*
X57179063Y-61880374D01*
X57184057Y-61881568D01*
X57220285Y-61884165D01*
X57278513Y-61888339D01*
X57278521Y-61888339D01*
X57280763Y-61888500D01*
X57993543Y-61888500D01*
X58719236Y-61888499D01*
X58721529Y-61888331D01*
X58721536Y-61888331D01*
X58812818Y-61881653D01*
X58812822Y-61881652D01*
X58817953Y-61881277D01*
X59024944Y-61831391D01*
X59219378Y-61744620D01*
X59224133Y-61741346D01*
X59389988Y-61627144D01*
X59389989Y-61627143D01*
X59394744Y-61623869D01*
X59398825Y-61619781D01*
X59541089Y-61477270D01*
X59541093Y-61477265D01*
X59545168Y-61473183D01*
X59665613Y-61297607D01*
X59752044Y-61103021D01*
X59801568Y-60895943D01*
X59808500Y-60799237D01*
X59808499Y-59360764D01*
X59801277Y-59262047D01*
X59751391Y-59055056D01*
X59664620Y-58860622D01*
X59543869Y-58685256D01*
X59539781Y-58681175D01*
X59397270Y-58538911D01*
X59397265Y-58538907D01*
X59393183Y-58534832D01*
X59217607Y-58414387D01*
X59120314Y-58371172D01*
X59028299Y-58330300D01*
X59028295Y-58330299D01*
X59023021Y-58327956D01*
X58985753Y-58319043D01*
X58820941Y-58279627D01*
X58820937Y-58279626D01*
X58815943Y-58278432D01*
X58779715Y-58275835D01*
X58721487Y-58271661D01*
X58721479Y-58271661D01*
X58719237Y-58271500D01*
X58006457Y-58271500D01*
X57280764Y-58271501D01*
X57278471Y-58271669D01*
X57278464Y-58271669D01*
X57187182Y-58278347D01*
X57187178Y-58278348D01*
X57182047Y-58278723D01*
X56975056Y-58328609D01*
X56780622Y-58415380D01*
X56775868Y-58418653D01*
X56775867Y-58418654D01*
X56611886Y-58531566D01*
X56605256Y-58536131D01*
X56601176Y-58540218D01*
X56601175Y-58540219D01*
X56458911Y-58682730D01*
X56458907Y-58682735D01*
X56454832Y-58686817D01*
X56334387Y-58862393D01*
X56247956Y-59056979D01*
X56198432Y-59264057D01*
X56191500Y-59360763D01*
X50508000Y-59360763D01*
X50508000Y-55248134D01*
X51791500Y-55248134D01*
X51798255Y-55310316D01*
X51849385Y-55446705D01*
X51936739Y-55563261D01*
X52053295Y-55650615D01*
X52189684Y-55701745D01*
X52251866Y-55708500D01*
X54548134Y-55708500D01*
X54610316Y-55701745D01*
X54746705Y-55650615D01*
X54863261Y-55563261D01*
X54950615Y-55446705D01*
X55001745Y-55310316D01*
X55008500Y-55248134D01*
X55008500Y-54720734D01*
X56791500Y-54720734D01*
X56798255Y-54782916D01*
X56849385Y-54919305D01*
X56936739Y-55035861D01*
X57053295Y-55123215D01*
X57189684Y-55174345D01*
X57251866Y-55181100D01*
X58548134Y-55181100D01*
X58610316Y-55174345D01*
X58746705Y-55123215D01*
X58863261Y-55035861D01*
X58950615Y-54919305D01*
X59001745Y-54782916D01*
X59008500Y-54720734D01*
X59008500Y-54144669D01*
X60919402Y-54144669D01*
X60919772Y-54151490D01*
X60925296Y-54202352D01*
X60928922Y-54217604D01*
X60974077Y-54338054D01*
X60982615Y-54353649D01*
X61059116Y-54455724D01*
X61071677Y-54468285D01*
X61173752Y-54544786D01*
X61189347Y-54553324D01*
X61309795Y-54598478D01*
X61325050Y-54602105D01*
X61375915Y-54607631D01*
X61382729Y-54608000D01*
X61755286Y-54608000D01*
X61770525Y-54603525D01*
X61771730Y-54602135D01*
X61773401Y-54594452D01*
X61773401Y-54589884D01*
X62281401Y-54589884D01*
X62285876Y-54605123D01*
X62287266Y-54606328D01*
X62294949Y-54607999D01*
X62672070Y-54607999D01*
X62678891Y-54607629D01*
X62729753Y-54602105D01*
X62745005Y-54598479D01*
X62865455Y-54553324D01*
X62881050Y-54544786D01*
X62983125Y-54468285D01*
X62995686Y-54455724D01*
X63072191Y-54353644D01*
X63076999Y-54344861D01*
X63127257Y-54294714D01*
X63196647Y-54279700D01*
X63263140Y-54304585D01*
X63275440Y-54315115D01*
X63322671Y-54361125D01*
X63322677Y-54361130D01*
X63326811Y-54365157D01*
X63331607Y-54368362D01*
X63331610Y-54368364D01*
X63462354Y-54455724D01*
X63496204Y-54478342D01*
X63501507Y-54480620D01*
X63501510Y-54480622D01*
X63590516Y-54518862D01*
X63683388Y-54558763D01*
X63756218Y-54575243D01*
X63876456Y-54602450D01*
X63876461Y-54602451D01*
X63882093Y-54603725D01*
X63887864Y-54603952D01*
X63887866Y-54603952D01*
X63948346Y-54606328D01*
X64085664Y-54611723D01*
X64287284Y-54582490D01*
X64292748Y-54580635D01*
X64292753Y-54580634D01*
X64474728Y-54518862D01*
X64474733Y-54518860D01*
X64480200Y-54517004D01*
X64657952Y-54417458D01*
X64814587Y-54287186D01*
X64944859Y-54130551D01*
X65044405Y-53952799D01*
X65046261Y-53947332D01*
X65046263Y-53947327D01*
X65108035Y-53765352D01*
X65108036Y-53765347D01*
X65109891Y-53759883D01*
X65139124Y-53558263D01*
X65140650Y-53500000D01*
X66306526Y-53500000D01*
X66326391Y-53752403D01*
X66327545Y-53757210D01*
X66327546Y-53757216D01*
X66330027Y-53767548D01*
X66385495Y-53998591D01*
X66387388Y-54003162D01*
X66387389Y-54003164D01*
X66448828Y-54151490D01*
X66482384Y-54232502D01*
X66614672Y-54448376D01*
X66779102Y-54640898D01*
X66971624Y-54805328D01*
X67187498Y-54937616D01*
X67192068Y-54939509D01*
X67192072Y-54939511D01*
X67416836Y-55032611D01*
X67421409Y-55034505D01*
X67488513Y-55050615D01*
X67662784Y-55092454D01*
X67662790Y-55092455D01*
X67667597Y-55093609D01*
X67920000Y-55113474D01*
X68172403Y-55093609D01*
X68177210Y-55092455D01*
X68177216Y-55092454D01*
X68351487Y-55050615D01*
X68418591Y-55034505D01*
X68423164Y-55032611D01*
X68647928Y-54939511D01*
X68647932Y-54939509D01*
X68652502Y-54937616D01*
X68868376Y-54805328D01*
X69060898Y-54640898D01*
X69225328Y-54448376D01*
X69357616Y-54232502D01*
X69391173Y-54151490D01*
X69452611Y-54003164D01*
X69452612Y-54003162D01*
X69454505Y-53998591D01*
X69509973Y-53767548D01*
X69512454Y-53757216D01*
X69512455Y-53757210D01*
X69513609Y-53752403D01*
X69533474Y-53500000D01*
X69513609Y-53247597D01*
X69512152Y-53241525D01*
X69455660Y-53006221D01*
X69454505Y-53001409D01*
X69408227Y-52889684D01*
X69359511Y-52772072D01*
X69359509Y-52772068D01*
X69357616Y-52767498D01*
X69225328Y-52551624D01*
X69060898Y-52359102D01*
X68868376Y-52194672D01*
X68652502Y-52062384D01*
X68647932Y-52060491D01*
X68647928Y-52060489D01*
X68423164Y-51967389D01*
X68423162Y-51967388D01*
X68418591Y-51965495D01*
X68333968Y-51945179D01*
X68177216Y-51907546D01*
X68177210Y-51907545D01*
X68172403Y-51906391D01*
X67920000Y-51886526D01*
X67667597Y-51906391D01*
X67662790Y-51907545D01*
X67662784Y-51907546D01*
X67506032Y-51945179D01*
X67421409Y-51965495D01*
X67416838Y-51967388D01*
X67416836Y-51967389D01*
X67192072Y-52060489D01*
X67192068Y-52060491D01*
X67187498Y-52062384D01*
X66971624Y-52194672D01*
X66779102Y-52359102D01*
X66614672Y-52551624D01*
X66482384Y-52767498D01*
X66480491Y-52772068D01*
X66480489Y-52772072D01*
X66431773Y-52889684D01*
X66385495Y-53001409D01*
X66384340Y-53006221D01*
X66327849Y-53241525D01*
X66326391Y-53247597D01*
X66306526Y-53500000D01*
X65140650Y-53500000D01*
X65122009Y-53297126D01*
X65107590Y-53246000D01*
X65068276Y-53106606D01*
X65068275Y-53106604D01*
X65066708Y-53101047D01*
X65053360Y-53073978D01*
X64979157Y-52923510D01*
X64976602Y-52918329D01*
X64958197Y-52893681D01*
X64858159Y-52759715D01*
X64858159Y-52759714D01*
X64854706Y-52755091D01*
X64734441Y-52643919D01*
X64709344Y-52620719D01*
X64709341Y-52620717D01*
X64705104Y-52616800D01*
X64608485Y-52555838D01*
X64537689Y-52511169D01*
X64537684Y-52511167D01*
X64532805Y-52508088D01*
X64343581Y-52432595D01*
X64161996Y-52396475D01*
X64149433Y-52393976D01*
X64149432Y-52393976D01*
X64143767Y-52392849D01*
X64137993Y-52392773D01*
X64137989Y-52392773D01*
X64034853Y-52391424D01*
X63940056Y-52390183D01*
X63934359Y-52391162D01*
X63934358Y-52391162D01*
X63824052Y-52410116D01*
X63739271Y-52424684D01*
X63548135Y-52495198D01*
X63543174Y-52498150D01*
X63543173Y-52498150D01*
X63465643Y-52544276D01*
X63373050Y-52599363D01*
X63270539Y-52689262D01*
X63206137Y-52719138D01*
X63135805Y-52709452D01*
X63081873Y-52663279D01*
X63076946Y-52655042D01*
X63072189Y-52646354D01*
X62995686Y-52544276D01*
X62983125Y-52531715D01*
X62881050Y-52455214D01*
X62865455Y-52446676D01*
X62745007Y-52401522D01*
X62729752Y-52397895D01*
X62678887Y-52392369D01*
X62672073Y-52392000D01*
X62299516Y-52392000D01*
X62284277Y-52396475D01*
X62283072Y-52397865D01*
X62281401Y-52405548D01*
X62281401Y-54589884D01*
X61773401Y-54589884D01*
X61773401Y-53772115D01*
X61768926Y-53756876D01*
X61767536Y-53755671D01*
X61759853Y-53754000D01*
X60937517Y-53754000D01*
X60922278Y-53758475D01*
X60921073Y-53759865D01*
X60919402Y-53767548D01*
X60919402Y-54144669D01*
X59008500Y-54144669D01*
X59008500Y-53424466D01*
X59001745Y-53362284D01*
X58951361Y-53227885D01*
X60919401Y-53227885D01*
X60923876Y-53243124D01*
X60925266Y-53244329D01*
X60932949Y-53246000D01*
X61755286Y-53246000D01*
X61770525Y-53241525D01*
X61771730Y-53240135D01*
X61773401Y-53232452D01*
X61773401Y-52410116D01*
X61768926Y-52394877D01*
X61767536Y-52393672D01*
X61759853Y-52392001D01*
X61382732Y-52392001D01*
X61375911Y-52392371D01*
X61325049Y-52397895D01*
X61309797Y-52401521D01*
X61189347Y-52446676D01*
X61173752Y-52455214D01*
X61071677Y-52531715D01*
X61059116Y-52544276D01*
X60982615Y-52646351D01*
X60974077Y-52661946D01*
X60928923Y-52782394D01*
X60925296Y-52797649D01*
X60919770Y-52848514D01*
X60919401Y-52855328D01*
X60919401Y-53227885D01*
X58951361Y-53227885D01*
X58950615Y-53225895D01*
X58863261Y-53109339D01*
X58746705Y-53021985D01*
X58610316Y-52970855D01*
X58548134Y-52964100D01*
X58484480Y-52964100D01*
X58416359Y-52944098D01*
X58395384Y-52927195D01*
X57912811Y-52444621D01*
X57898868Y-52437008D01*
X57897034Y-52437139D01*
X57890420Y-52441390D01*
X57404616Y-52927195D01*
X57342303Y-52961220D01*
X57315520Y-52964100D01*
X57251866Y-52964100D01*
X57189684Y-52970855D01*
X57053295Y-53021985D01*
X56936739Y-53109339D01*
X56849385Y-53225895D01*
X56798255Y-53362284D01*
X56791500Y-53424466D01*
X56791500Y-54720734D01*
X55008500Y-54720734D01*
X55008500Y-52951866D01*
X55001745Y-52889684D01*
X54950615Y-52753295D01*
X54863261Y-52636739D01*
X54746705Y-52549385D01*
X54610316Y-52498255D01*
X54548134Y-52491500D01*
X52251866Y-52491500D01*
X52189684Y-52498255D01*
X52053295Y-52549385D01*
X51936739Y-52636739D01*
X51849385Y-52753295D01*
X51798255Y-52889684D01*
X51791500Y-52951866D01*
X51791500Y-55248134D01*
X50508000Y-55248134D01*
X50508000Y-52049238D01*
X56788012Y-52049238D01*
X56800575Y-52240904D01*
X56802376Y-52252274D01*
X56849657Y-52438443D01*
X56853498Y-52449290D01*
X56933916Y-52623730D01*
X56939664Y-52633686D01*
X56945788Y-52642351D01*
X56956377Y-52650740D01*
X56969676Y-52643713D01*
X57527979Y-52085411D01*
X57534356Y-52073732D01*
X58264408Y-52073732D01*
X58264539Y-52075566D01*
X58268790Y-52082180D01*
X58830239Y-52643628D01*
X58842614Y-52650385D01*
X58849194Y-52645459D01*
X58913726Y-52530228D01*
X58918400Y-52519731D01*
X58980144Y-52337840D01*
X58982832Y-52326645D01*
X59010689Y-52134511D01*
X59011319Y-52127128D01*
X59012650Y-52076304D01*
X59012407Y-52068905D01*
X58994643Y-51875575D01*
X58992545Y-51864254D01*
X58940408Y-51679391D01*
X58936283Y-51668644D01*
X58852163Y-51498065D01*
X58844869Y-51492590D01*
X58832449Y-51499362D01*
X58272021Y-52059789D01*
X58264408Y-52073732D01*
X57534356Y-52073732D01*
X57535592Y-52071468D01*
X57535461Y-52069634D01*
X57531210Y-52063020D01*
X56968538Y-51500349D01*
X56956163Y-51493592D01*
X56950197Y-51498058D01*
X56874645Y-51641658D01*
X56870242Y-51652291D01*
X56813281Y-51835732D01*
X56810891Y-51846976D01*
X56788313Y-52037737D01*
X56788012Y-52049238D01*
X50508000Y-52049238D01*
X50508000Y-51131275D01*
X57322788Y-51131275D01*
X57326275Y-51139664D01*
X57887189Y-51700579D01*
X57901132Y-51708192D01*
X57902966Y-51708061D01*
X57909580Y-51703810D01*
X58470285Y-51143104D01*
X58477042Y-51130729D01*
X58471012Y-51122673D01*
X58410061Y-51084216D01*
X58399813Y-51078995D01*
X58221401Y-51007816D01*
X58210373Y-51004549D01*
X58021982Y-50967076D01*
X58010535Y-50965873D01*
X57818477Y-50963359D01*
X57806997Y-50964262D01*
X57617697Y-50996790D01*
X57606577Y-50999770D01*
X57426365Y-51066253D01*
X57415991Y-51071201D01*
X57332385Y-51120942D01*
X57322788Y-51131275D01*
X50508000Y-51131275D01*
X50508000Y-46466695D01*
X62477251Y-46466695D01*
X62477548Y-46471848D01*
X62477548Y-46471851D01*
X62479910Y-46512812D01*
X62490110Y-46689715D01*
X62491247Y-46694761D01*
X62491248Y-46694767D01*
X62512275Y-46788069D01*
X62539222Y-46907639D01*
X62623266Y-47114616D01*
X62660072Y-47174678D01*
X62710008Y-47256166D01*
X62739987Y-47305088D01*
X62886250Y-47473938D01*
X63058126Y-47616632D01*
X63251000Y-47729338D01*
X63459692Y-47809030D01*
X63464760Y-47810061D01*
X63464763Y-47810062D01*
X63569604Y-47831392D01*
X63678597Y-47853567D01*
X63683772Y-47853757D01*
X63683774Y-47853757D01*
X63896673Y-47861564D01*
X63896677Y-47861564D01*
X63901837Y-47861753D01*
X63906957Y-47861097D01*
X63906959Y-47861097D01*
X64118288Y-47834025D01*
X64118289Y-47834025D01*
X64123416Y-47833368D01*
X64128366Y-47831883D01*
X64332429Y-47770661D01*
X64332434Y-47770659D01*
X64337384Y-47769174D01*
X64537994Y-47670896D01*
X64602544Y-47624853D01*
X65619977Y-47624853D01*
X65625258Y-47631907D01*
X65786756Y-47726279D01*
X65796042Y-47730729D01*
X65995001Y-47806703D01*
X66004899Y-47809579D01*
X66213595Y-47852038D01*
X66223823Y-47853257D01*
X66436650Y-47861062D01*
X66446936Y-47860595D01*
X66658185Y-47833534D01*
X66668262Y-47831392D01*
X66872255Y-47770191D01*
X66881842Y-47766433D01*
X67073098Y-47672738D01*
X67081944Y-47667465D01*
X67129247Y-47633723D01*
X67136211Y-47624853D01*
X68159977Y-47624853D01*
X68165258Y-47631907D01*
X68326756Y-47726279D01*
X68336042Y-47730729D01*
X68535001Y-47806703D01*
X68544899Y-47809579D01*
X68753595Y-47852038D01*
X68763823Y-47853257D01*
X68976650Y-47861062D01*
X68986936Y-47860595D01*
X69198185Y-47833534D01*
X69208262Y-47831392D01*
X69412255Y-47770191D01*
X69421842Y-47766433D01*
X69613098Y-47672738D01*
X69621944Y-47667465D01*
X69669247Y-47633723D01*
X69676211Y-47624853D01*
X70699977Y-47624853D01*
X70705258Y-47631907D01*
X70866756Y-47726279D01*
X70876042Y-47730729D01*
X71075001Y-47806703D01*
X71084899Y-47809579D01*
X71293595Y-47852038D01*
X71303823Y-47853257D01*
X71516650Y-47861062D01*
X71526936Y-47860595D01*
X71738185Y-47833534D01*
X71748262Y-47831392D01*
X71952255Y-47770191D01*
X71961842Y-47766433D01*
X72153098Y-47672738D01*
X72161944Y-47667465D01*
X72209247Y-47633723D01*
X72217648Y-47623023D01*
X72210660Y-47609870D01*
X71472812Y-46872022D01*
X71458868Y-46864408D01*
X71457035Y-46864539D01*
X71450420Y-46868790D01*
X70706737Y-47612473D01*
X70699977Y-47624853D01*
X69676211Y-47624853D01*
X69677648Y-47623023D01*
X69670660Y-47609870D01*
X68932812Y-46872022D01*
X68918868Y-46864408D01*
X68917035Y-46864539D01*
X68910420Y-46868790D01*
X68166737Y-47612473D01*
X68159977Y-47624853D01*
X67136211Y-47624853D01*
X67137648Y-47623023D01*
X67130660Y-47609870D01*
X66392812Y-46872022D01*
X66378868Y-46864408D01*
X66377035Y-46864539D01*
X66370420Y-46868790D01*
X65626737Y-47612473D01*
X65619977Y-47624853D01*
X64602544Y-47624853D01*
X64719860Y-47541173D01*
X64878096Y-47383489D01*
X64904430Y-47346842D01*
X65008453Y-47202077D01*
X65009640Y-47202930D01*
X65056960Y-47159362D01*
X65126897Y-47147145D01*
X65192338Y-47174678D01*
X65220166Y-47206512D01*
X65246459Y-47249419D01*
X65256916Y-47258880D01*
X65265694Y-47255096D01*
X66007978Y-46512812D01*
X66014356Y-46501132D01*
X66744408Y-46501132D01*
X66744539Y-46502965D01*
X66748790Y-46509580D01*
X67490474Y-47251264D01*
X67502484Y-47257823D01*
X67514223Y-47248855D01*
X67548022Y-47201819D01*
X67549149Y-47202629D01*
X67596659Y-47158881D01*
X67666596Y-47146661D01*
X67732038Y-47174191D01*
X67759870Y-47206029D01*
X67786459Y-47249419D01*
X67796916Y-47258880D01*
X67805694Y-47255096D01*
X68547978Y-46512812D01*
X68554356Y-46501132D01*
X69284408Y-46501132D01*
X69284539Y-46502965D01*
X69288790Y-46509580D01*
X70030474Y-47251264D01*
X70042484Y-47257823D01*
X70054223Y-47248855D01*
X70088022Y-47201819D01*
X70089149Y-47202629D01*
X70136659Y-47158881D01*
X70206596Y-47146661D01*
X70272038Y-47174191D01*
X70299870Y-47206029D01*
X70326459Y-47249419D01*
X70336916Y-47258880D01*
X70345694Y-47255096D01*
X71087978Y-46512812D01*
X71094356Y-46501132D01*
X71824408Y-46501132D01*
X71824539Y-46502965D01*
X71828790Y-46509580D01*
X72570474Y-47251264D01*
X72610998Y-47273393D01*
X72623589Y-47276132D01*
X72673791Y-47326335D01*
X72682726Y-47346842D01*
X72708450Y-47423946D01*
X72801522Y-47574348D01*
X72926697Y-47699305D01*
X72932927Y-47703145D01*
X72932928Y-47703146D01*
X73070090Y-47787694D01*
X73077262Y-47792115D01*
X73129915Y-47809579D01*
X73238611Y-47845632D01*
X73238613Y-47845632D01*
X73245139Y-47847797D01*
X73251975Y-47848497D01*
X73251978Y-47848498D01*
X73286531Y-47852038D01*
X73349600Y-47858500D01*
X74650400Y-47858500D01*
X74653646Y-47858163D01*
X74653650Y-47858163D01*
X74749308Y-47848238D01*
X74749312Y-47848237D01*
X74756166Y-47847526D01*
X74762702Y-47845345D01*
X74762704Y-47845345D01*
X74894806Y-47801272D01*
X74923946Y-47791550D01*
X75074348Y-47698478D01*
X75199305Y-47573303D01*
X75221357Y-47537529D01*
X75288275Y-47428968D01*
X75288276Y-47428966D01*
X75292115Y-47422738D01*
X75347797Y-47254861D01*
X75358500Y-47150400D01*
X75358500Y-45849600D01*
X75358077Y-45845523D01*
X75348238Y-45750692D01*
X75348237Y-45750688D01*
X75347526Y-45743834D01*
X75313598Y-45642138D01*
X75293868Y-45583002D01*
X75291550Y-45576054D01*
X75198478Y-45425652D01*
X75073303Y-45300695D01*
X75058166Y-45291364D01*
X74987670Y-45247910D01*
X74922738Y-45207885D01*
X74915785Y-45205579D01*
X74914904Y-45205168D01*
X74861618Y-45158252D01*
X74842156Y-45089975D01*
X74862696Y-45022015D01*
X74880529Y-45001844D01*
X74879860Y-45001173D01*
X74993052Y-44888376D01*
X75038096Y-44843489D01*
X75097594Y-44760689D01*
X75165435Y-44666277D01*
X75168453Y-44662077D01*
X75181995Y-44634678D01*
X75265136Y-44466453D01*
X75265137Y-44466451D01*
X75267430Y-44461811D01*
X75332370Y-44248069D01*
X75361529Y-44026590D01*
X75363156Y-43960000D01*
X75344852Y-43737361D01*
X75290431Y-43520702D01*
X75201354Y-43315840D01*
X75134424Y-43212382D01*
X75082822Y-43132617D01*
X75082820Y-43132614D01*
X75080014Y-43128277D01*
X74929670Y-42963051D01*
X74925619Y-42959852D01*
X74925615Y-42959848D01*
X74758414Y-42827800D01*
X74758410Y-42827798D01*
X74754359Y-42824598D01*
X74558789Y-42716638D01*
X74553920Y-42714914D01*
X74553916Y-42714912D01*
X74353087Y-42643795D01*
X74353083Y-42643794D01*
X74348212Y-42642069D01*
X74343119Y-42641162D01*
X74343116Y-42641161D01*
X74133373Y-42603800D01*
X74133367Y-42603799D01*
X74128284Y-42602894D01*
X74054452Y-42601992D01*
X73910081Y-42600228D01*
X73910079Y-42600228D01*
X73904911Y-42600165D01*
X73684091Y-42633955D01*
X73471756Y-42703357D01*
X73393455Y-42744118D01*
X73280617Y-42802858D01*
X73273607Y-42806507D01*
X73269474Y-42809610D01*
X73269471Y-42809612D01*
X73099100Y-42937530D01*
X73094965Y-42940635D01*
X72940629Y-43102138D01*
X72867693Y-43209059D01*
X72832898Y-43260066D01*
X72777987Y-43305069D01*
X72707462Y-43313240D01*
X72643715Y-43281986D01*
X72623017Y-43257501D01*
X72593062Y-43211197D01*
X72582377Y-43201995D01*
X72572812Y-43206398D01*
X71832022Y-43947188D01*
X71824408Y-43961132D01*
X71824539Y-43962965D01*
X71828790Y-43969580D01*
X72570474Y-44711264D01*
X72582484Y-44717823D01*
X72594223Y-44708855D01*
X72628022Y-44661819D01*
X72629277Y-44662721D01*
X72676391Y-44619355D01*
X72746330Y-44607148D01*
X72811767Y-44634691D01*
X72839580Y-44666513D01*
X72897287Y-44760683D01*
X72897291Y-44760688D01*
X72899987Y-44765088D01*
X73046250Y-44933938D01*
X73116344Y-44992131D01*
X73155979Y-45051033D01*
X73157477Y-45122014D01*
X73120363Y-45182537D01*
X73089312Y-45203175D01*
X73082996Y-45206134D01*
X73076054Y-45208450D01*
X72925652Y-45301522D01*
X72800695Y-45426697D01*
X72796855Y-45432927D01*
X72796854Y-45432928D01*
X72753630Y-45503051D01*
X72707885Y-45577262D01*
X72705581Y-45584209D01*
X72683236Y-45651577D01*
X72642806Y-45709937D01*
X72616330Y-45726366D01*
X72572811Y-45746399D01*
X71832022Y-46487188D01*
X71824408Y-46501132D01*
X71094356Y-46501132D01*
X71095592Y-46498868D01*
X71095461Y-46497035D01*
X71091210Y-46490420D01*
X70349849Y-45749059D01*
X70338313Y-45742759D01*
X70326028Y-45752384D01*
X70293192Y-45800520D01*
X70238281Y-45845523D01*
X70167756Y-45853694D01*
X70104009Y-45822440D01*
X70083311Y-45797955D01*
X70053062Y-45751197D01*
X70042377Y-45741995D01*
X70032812Y-45746398D01*
X69292022Y-46487188D01*
X69284408Y-46501132D01*
X68554356Y-46501132D01*
X68555592Y-46498868D01*
X68555461Y-46497035D01*
X68551210Y-46490420D01*
X67809849Y-45749059D01*
X67798313Y-45742759D01*
X67786028Y-45752384D01*
X67753192Y-45800520D01*
X67698281Y-45845523D01*
X67627756Y-45853694D01*
X67564009Y-45822440D01*
X67543311Y-45797955D01*
X67513062Y-45751197D01*
X67502377Y-45741995D01*
X67492812Y-45746398D01*
X66752022Y-46487188D01*
X66744408Y-46501132D01*
X66014356Y-46501132D01*
X66015592Y-46498868D01*
X66015461Y-46497035D01*
X66011210Y-46490420D01*
X65269849Y-45749059D01*
X65258313Y-45742759D01*
X65246031Y-45752382D01*
X65213499Y-45800072D01*
X65158587Y-45845075D01*
X65088063Y-45853246D01*
X65024316Y-45821992D01*
X65003618Y-45797508D01*
X64922822Y-45672617D01*
X64922820Y-45672614D01*
X64920014Y-45668277D01*
X64769670Y-45503051D01*
X64765619Y-45499852D01*
X64765615Y-45499848D01*
X64598414Y-45367800D01*
X64598410Y-45367798D01*
X64594359Y-45364598D01*
X64553053Y-45341796D01*
X64503084Y-45291364D01*
X64488312Y-45221921D01*
X64513428Y-45155516D01*
X64540780Y-45128909D01*
X64602544Y-45084853D01*
X65619977Y-45084853D01*
X65625258Y-45091907D01*
X65672479Y-45119501D01*
X65721203Y-45171139D01*
X65734274Y-45240922D01*
X65707543Y-45306694D01*
X65667087Y-45340053D01*
X65658466Y-45344541D01*
X65649734Y-45350039D01*
X65629677Y-45365099D01*
X65621223Y-45376427D01*
X65627968Y-45388758D01*
X66367188Y-46127978D01*
X66381132Y-46135592D01*
X66382965Y-46135461D01*
X66389580Y-46131210D01*
X67133389Y-45387401D01*
X67140410Y-45374544D01*
X67133611Y-45365213D01*
X67129559Y-45362521D01*
X67092116Y-45341852D01*
X67042145Y-45291420D01*
X67027373Y-45221977D01*
X67052489Y-45155572D01*
X67079840Y-45128965D01*
X67129247Y-45093723D01*
X67136211Y-45084853D01*
X68159977Y-45084853D01*
X68165258Y-45091907D01*
X68212479Y-45119501D01*
X68261203Y-45171139D01*
X68274274Y-45240922D01*
X68247543Y-45306694D01*
X68207087Y-45340053D01*
X68198466Y-45344541D01*
X68189734Y-45350039D01*
X68169677Y-45365099D01*
X68161223Y-45376427D01*
X68167968Y-45388758D01*
X68907188Y-46127978D01*
X68921132Y-46135592D01*
X68922965Y-46135461D01*
X68929580Y-46131210D01*
X69673389Y-45387401D01*
X69680410Y-45374544D01*
X69673611Y-45365213D01*
X69669559Y-45362521D01*
X69632116Y-45341852D01*
X69582145Y-45291420D01*
X69567373Y-45221977D01*
X69592489Y-45155572D01*
X69619840Y-45128965D01*
X69669247Y-45093723D01*
X69676211Y-45084853D01*
X70699977Y-45084853D01*
X70705258Y-45091907D01*
X70752479Y-45119501D01*
X70801203Y-45171139D01*
X70814274Y-45240922D01*
X70787543Y-45306694D01*
X70747087Y-45340053D01*
X70738466Y-45344541D01*
X70729734Y-45350039D01*
X70709677Y-45365099D01*
X70701223Y-45376427D01*
X70707968Y-45388758D01*
X71447188Y-46127978D01*
X71461132Y-46135592D01*
X71462965Y-46135461D01*
X71469580Y-46131210D01*
X72213389Y-45387401D01*
X72220410Y-45374544D01*
X72213611Y-45365213D01*
X72209559Y-45362521D01*
X72172116Y-45341852D01*
X72122145Y-45291420D01*
X72107373Y-45221977D01*
X72132489Y-45155572D01*
X72159840Y-45128965D01*
X72209247Y-45093723D01*
X72217648Y-45083023D01*
X72210660Y-45069870D01*
X71472812Y-44332022D01*
X71458868Y-44324408D01*
X71457035Y-44324539D01*
X71450420Y-44328790D01*
X70706737Y-45072473D01*
X70699977Y-45084853D01*
X69676211Y-45084853D01*
X69677648Y-45083023D01*
X69670660Y-45069870D01*
X68932812Y-44332022D01*
X68918868Y-44324408D01*
X68917035Y-44324539D01*
X68910420Y-44328790D01*
X68166737Y-45072473D01*
X68159977Y-45084853D01*
X67136211Y-45084853D01*
X67137648Y-45083023D01*
X67130660Y-45069870D01*
X66392812Y-44332022D01*
X66378868Y-44324408D01*
X66377035Y-44324539D01*
X66370420Y-44328790D01*
X65626737Y-45072473D01*
X65619977Y-45084853D01*
X64602544Y-45084853D01*
X64719860Y-45001173D01*
X64878096Y-44843489D01*
X64937594Y-44760689D01*
X65008453Y-44662077D01*
X65009640Y-44662930D01*
X65056960Y-44619362D01*
X65126897Y-44607145D01*
X65192338Y-44634678D01*
X65220166Y-44666512D01*
X65246459Y-44709419D01*
X65256916Y-44718880D01*
X65265694Y-44715096D01*
X66007978Y-43972812D01*
X66014356Y-43961132D01*
X66744408Y-43961132D01*
X66744539Y-43962965D01*
X66748790Y-43969580D01*
X67490474Y-44711264D01*
X67502484Y-44717823D01*
X67514223Y-44708855D01*
X67548022Y-44661819D01*
X67549149Y-44662629D01*
X67596659Y-44618881D01*
X67666596Y-44606661D01*
X67732038Y-44634191D01*
X67759870Y-44666029D01*
X67786459Y-44709419D01*
X67796916Y-44718880D01*
X67805694Y-44715096D01*
X68547978Y-43972812D01*
X68554356Y-43961132D01*
X69284408Y-43961132D01*
X69284539Y-43962965D01*
X69288790Y-43969580D01*
X70030474Y-44711264D01*
X70042484Y-44717823D01*
X70054223Y-44708855D01*
X70088022Y-44661819D01*
X70089149Y-44662629D01*
X70136659Y-44618881D01*
X70206596Y-44606661D01*
X70272038Y-44634191D01*
X70299870Y-44666029D01*
X70326459Y-44709419D01*
X70336916Y-44718880D01*
X70345694Y-44715096D01*
X71087978Y-43972812D01*
X71095592Y-43958868D01*
X71095461Y-43957035D01*
X71091210Y-43950420D01*
X70349849Y-43209059D01*
X70338313Y-43202759D01*
X70326028Y-43212384D01*
X70293192Y-43260520D01*
X70238281Y-43305523D01*
X70167756Y-43313694D01*
X70104009Y-43282440D01*
X70083311Y-43257955D01*
X70053062Y-43211197D01*
X70042377Y-43201995D01*
X70032812Y-43206398D01*
X69292022Y-43947188D01*
X69284408Y-43961132D01*
X68554356Y-43961132D01*
X68555592Y-43958868D01*
X68555461Y-43957035D01*
X68551210Y-43950420D01*
X67809849Y-43209059D01*
X67798313Y-43202759D01*
X67786028Y-43212384D01*
X67753192Y-43260520D01*
X67698281Y-43305523D01*
X67627756Y-43313694D01*
X67564009Y-43282440D01*
X67543311Y-43257955D01*
X67513062Y-43211197D01*
X67502377Y-43201995D01*
X67492812Y-43206398D01*
X66752022Y-43947188D01*
X66744408Y-43961132D01*
X66014356Y-43961132D01*
X66015592Y-43958868D01*
X66015461Y-43957035D01*
X66011210Y-43950420D01*
X65269849Y-43209059D01*
X65258313Y-43202759D01*
X65246031Y-43212382D01*
X65213499Y-43260072D01*
X65158587Y-43305075D01*
X65088063Y-43313246D01*
X65024316Y-43281992D01*
X65003618Y-43257508D01*
X64922822Y-43132617D01*
X64922820Y-43132614D01*
X64920014Y-43128277D01*
X64769670Y-42963051D01*
X64765619Y-42959852D01*
X64765615Y-42959848D01*
X64609338Y-42836427D01*
X65621223Y-42836427D01*
X65627968Y-42848758D01*
X66367188Y-43587978D01*
X66381132Y-43595592D01*
X66382965Y-43595461D01*
X66389580Y-43591210D01*
X67133389Y-42847401D01*
X67139382Y-42836427D01*
X68161223Y-42836427D01*
X68167968Y-42848758D01*
X68907188Y-43587978D01*
X68921132Y-43595592D01*
X68922965Y-43595461D01*
X68929580Y-43591210D01*
X69673389Y-42847401D01*
X69679382Y-42836427D01*
X70701223Y-42836427D01*
X70707968Y-42848758D01*
X71447188Y-43587978D01*
X71461132Y-43595592D01*
X71462965Y-43595461D01*
X71469580Y-43591210D01*
X72213389Y-42847401D01*
X72220410Y-42834544D01*
X72213611Y-42825213D01*
X72209554Y-42822518D01*
X72023117Y-42719599D01*
X72013705Y-42715369D01*
X71812959Y-42644280D01*
X71802989Y-42641646D01*
X71593327Y-42604301D01*
X71583073Y-42603331D01*
X71370116Y-42600728D01*
X71359832Y-42601448D01*
X71149321Y-42633661D01*
X71139293Y-42636050D01*
X70936868Y-42702212D01*
X70927359Y-42706209D01*
X70738466Y-42804540D01*
X70729734Y-42810039D01*
X70709677Y-42825099D01*
X70701223Y-42836427D01*
X69679382Y-42836427D01*
X69680410Y-42834544D01*
X69673611Y-42825213D01*
X69669554Y-42822518D01*
X69483117Y-42719599D01*
X69473705Y-42715369D01*
X69272959Y-42644280D01*
X69262989Y-42641646D01*
X69053327Y-42604301D01*
X69043073Y-42603331D01*
X68830116Y-42600728D01*
X68819832Y-42601448D01*
X68609321Y-42633661D01*
X68599293Y-42636050D01*
X68396868Y-42702212D01*
X68387359Y-42706209D01*
X68198466Y-42804540D01*
X68189734Y-42810039D01*
X68169677Y-42825099D01*
X68161223Y-42836427D01*
X67139382Y-42836427D01*
X67140410Y-42834544D01*
X67133611Y-42825213D01*
X67129554Y-42822518D01*
X66943117Y-42719599D01*
X66933705Y-42715369D01*
X66732959Y-42644280D01*
X66722989Y-42641646D01*
X66513327Y-42604301D01*
X66503073Y-42603331D01*
X66290116Y-42600728D01*
X66279832Y-42601448D01*
X66069321Y-42633661D01*
X66059293Y-42636050D01*
X65856868Y-42702212D01*
X65847359Y-42706209D01*
X65658466Y-42804540D01*
X65649734Y-42810039D01*
X65629677Y-42825099D01*
X65621223Y-42836427D01*
X64609338Y-42836427D01*
X64598414Y-42827800D01*
X64598410Y-42827798D01*
X64594359Y-42824598D01*
X64398789Y-42716638D01*
X64393920Y-42714914D01*
X64393916Y-42714912D01*
X64193087Y-42643795D01*
X64193083Y-42643794D01*
X64188212Y-42642069D01*
X64183119Y-42641162D01*
X64183116Y-42641161D01*
X63973373Y-42603800D01*
X63973367Y-42603799D01*
X63968284Y-42602894D01*
X63894452Y-42601992D01*
X63750081Y-42600228D01*
X63750079Y-42600228D01*
X63744911Y-42600165D01*
X63524091Y-42633955D01*
X63311756Y-42703357D01*
X63233455Y-42744118D01*
X63120617Y-42802858D01*
X63113607Y-42806507D01*
X63109474Y-42809610D01*
X63109471Y-42809612D01*
X62939100Y-42937530D01*
X62934965Y-42940635D01*
X62780629Y-43102138D01*
X62654743Y-43286680D01*
X62560688Y-43489305D01*
X62500989Y-43704570D01*
X62477251Y-43926695D01*
X62477548Y-43931848D01*
X62477548Y-43931851D01*
X62483011Y-44026590D01*
X62490110Y-44149715D01*
X62491247Y-44154761D01*
X62491248Y-44154767D01*
X62498618Y-44187469D01*
X62539222Y-44367639D01*
X62623266Y-44574616D01*
X62660072Y-44634678D01*
X62737288Y-44760683D01*
X62739987Y-44765088D01*
X62886250Y-44933938D01*
X63058126Y-45076632D01*
X63072195Y-45084853D01*
X63131445Y-45119476D01*
X63180169Y-45171114D01*
X63193240Y-45240897D01*
X63166509Y-45306669D01*
X63126055Y-45340027D01*
X63113607Y-45346507D01*
X63109474Y-45349610D01*
X63109471Y-45349612D01*
X62945652Y-45472611D01*
X62934965Y-45480635D01*
X62931393Y-45484373D01*
X62848580Y-45571032D01*
X62780629Y-45642138D01*
X62654743Y-45826680D01*
X62560688Y-46029305D01*
X62500989Y-46244570D01*
X62477251Y-46466695D01*
X50508000Y-46466695D01*
X50508000Y-43940000D01*
X51786526Y-43940000D01*
X51806391Y-44192403D01*
X51807545Y-44197210D01*
X51807546Y-44197216D01*
X51819755Y-44248069D01*
X51865495Y-44438591D01*
X51867388Y-44443162D01*
X51867389Y-44443164D01*
X51959903Y-44666512D01*
X51962384Y-44672502D01*
X52094672Y-44888376D01*
X52259102Y-45080898D01*
X52451624Y-45245328D01*
X52667498Y-45377616D01*
X52672068Y-45379509D01*
X52672072Y-45379511D01*
X52896836Y-45472611D01*
X52901409Y-45474505D01*
X52926943Y-45480635D01*
X53142784Y-45532454D01*
X53142790Y-45532455D01*
X53147597Y-45533609D01*
X53400000Y-45553474D01*
X53652403Y-45533609D01*
X53657210Y-45532455D01*
X53657216Y-45532454D01*
X53873057Y-45480635D01*
X53898591Y-45474505D01*
X53903164Y-45472611D01*
X54127928Y-45379511D01*
X54127932Y-45379509D01*
X54132502Y-45377616D01*
X54348376Y-45245328D01*
X54540898Y-45080898D01*
X54705328Y-44888376D01*
X54837616Y-44672502D01*
X54840098Y-44666512D01*
X54932611Y-44443164D01*
X54932612Y-44443162D01*
X54934505Y-44438591D01*
X54980245Y-44248069D01*
X54992454Y-44197216D01*
X54992455Y-44197210D01*
X54993609Y-44192403D01*
X55013474Y-43940000D01*
X54993609Y-43687597D01*
X54971490Y-43595461D01*
X54953541Y-43520702D01*
X54934505Y-43441409D01*
X54881604Y-43313694D01*
X54839511Y-43212072D01*
X54839509Y-43212068D01*
X54837616Y-43207498D01*
X54705328Y-42991624D01*
X54549874Y-42809612D01*
X54544106Y-42802858D01*
X54540898Y-42799102D01*
X54348376Y-42634672D01*
X54132502Y-42502384D01*
X54127932Y-42500491D01*
X54127928Y-42500489D01*
X53903164Y-42407389D01*
X53903162Y-42407388D01*
X53898591Y-42405495D01*
X53813968Y-42385179D01*
X53657216Y-42347546D01*
X53657210Y-42347545D01*
X53652403Y-42346391D01*
X53400000Y-42326526D01*
X53147597Y-42346391D01*
X53142790Y-42347545D01*
X53142784Y-42347546D01*
X52986032Y-42385179D01*
X52901409Y-42405495D01*
X52896838Y-42407388D01*
X52896836Y-42407389D01*
X52672072Y-42500489D01*
X52672068Y-42500491D01*
X52667498Y-42502384D01*
X52451624Y-42634672D01*
X52259102Y-42799102D01*
X52255894Y-42802858D01*
X52250126Y-42809612D01*
X52094672Y-42991624D01*
X51962384Y-43207498D01*
X51960491Y-43212068D01*
X51960489Y-43212072D01*
X51918396Y-43313694D01*
X51865495Y-43441409D01*
X51846459Y-43520702D01*
X51828511Y-43595461D01*
X51806391Y-43687597D01*
X51786526Y-43940000D01*
X50508000Y-43940000D01*
X50508000Y-40634000D01*
X50528002Y-40565879D01*
X50581658Y-40519386D01*
X50634000Y-40508000D01*
X79366000Y-40508000D01*
X79434121Y-40528002D01*
G37*
G04 #@! TD.AperFunction*
M02*
