%FSLAX45Y45*%
G04 Gerber Fmt 4.5, Leading zero omitted, Abs format (unit mm)*
G04 Created by KiCad (PCBNEW (6.0.1)) date 2023-06-10 19:19:44*
%MOMM*%
%LPD*%
G01*
G04 APERTURE LIST*
%TA.AperFunction,Profile*%
%ADD10C,0.100000*%
%TD*%
%ADD11C,0.200000*%
%ADD12C,0.040000*%
%ADD13C,0.060000*%
%ADD14C,0.070000*%
%ADD15C,0.080000*%
%ADD16C,0.100000*%
%ADD17C,0.110000*%
G04 APERTURE END LIST*
D10*
X5000000Y-15000000D02*
X5000000Y-4000000D01*
X5000000Y-4000000D02*
X8000000Y-4000000D01*
X8000000Y-4000000D02*
X8000000Y-15000000D01*
X8000000Y-15000000D02*
X5000000Y-15000000D01*
D11*
D12*
X6505000Y-12130000D02*
X6545000Y-12170000D01*
X6545000Y-12130000D02*
X6505000Y-12170000D01*
X6855000Y-11955000D02*
X6895000Y-11995000D01*
X6895000Y-11955000D02*
X6855000Y-11995000D01*
X7280000Y-10600000D02*
X7320000Y-10640000D01*
X7320000Y-10600000D02*
X7280000Y-10640000D01*
X7630000Y-11330000D02*
X7670000Y-11370000D01*
X7670000Y-11330000D02*
X7630000Y-11370000D01*
D13*
X5820000Y-5207260D02*
G75*
G03*
X5820000Y-5207260I-30000J0D01*
G01*
X5820000Y-5407260D02*
G75*
G03*
X5820000Y-5407260I-30000J0D01*
G01*
X5830000Y-6008000D02*
G75*
G03*
X5830000Y-6008000I-30000J0D01*
G01*
D11*
X5750000Y-6028000D02*
X5850000Y-6028000D01*
X5750000Y-5988000D02*
X5850000Y-5988000D01*
X5850000Y-6028000D02*
G75*
G03*
X5850000Y-5988000I0J20000D01*
G01*
X5750000Y-5988000D02*
G75*
G03*
X5750000Y-6028000I0J-20000D01*
G01*
D13*
X5830000Y-6838000D02*
G75*
G03*
X5830000Y-6838000I-30000J0D01*
G01*
D11*
X5750000Y-6858000D02*
X5850000Y-6858000D01*
X5750000Y-6818000D02*
X5850000Y-6818000D01*
X5850000Y-6858000D02*
G75*
G03*
X5850000Y-6818000I0J20000D01*
G01*
X5750000Y-6818000D02*
G75*
G03*
X5750000Y-6858000I0J-20000D01*
G01*
D13*
X5830000Y-7148000D02*
G75*
G03*
X5830000Y-7148000I-30000J0D01*
G01*
D11*
X5750000Y-7168000D02*
X5850000Y-7168000D01*
X5750000Y-7128000D02*
X5850000Y-7128000D01*
X5850000Y-7168000D02*
G75*
G03*
X5850000Y-7128000I0J20000D01*
G01*
X5750000Y-7128000D02*
G75*
G03*
X5750000Y-7168000I0J-20000D01*
G01*
D13*
X5830000Y-7958000D02*
G75*
G03*
X5830000Y-7958000I-30000J0D01*
G01*
D11*
X5750000Y-7978000D02*
X5850000Y-7978000D01*
X5750000Y-7938000D02*
X5850000Y-7938000D01*
X5850000Y-7978000D02*
G75*
G03*
X5850000Y-7938000I0J20000D01*
G01*
X5750000Y-7938000D02*
G75*
G03*
X5750000Y-7978000I0J-20000D01*
G01*
D13*
X5830000Y-8788000D02*
G75*
G03*
X5830000Y-8788000I-30000J0D01*
G01*
D11*
X5750000Y-8808000D02*
X5850000Y-8808000D01*
X5750000Y-8768000D02*
X5850000Y-8768000D01*
X5850000Y-8808000D02*
G75*
G03*
X5850000Y-8768000I0J20000D01*
G01*
X5750000Y-8768000D02*
G75*
G03*
X5750000Y-8808000I0J-20000D01*
G01*
D13*
X5830000Y-9098000D02*
G75*
G03*
X5830000Y-9098000I-30000J0D01*
G01*
D11*
X5750000Y-9118000D02*
X5850000Y-9118000D01*
X5750000Y-9078000D02*
X5850000Y-9078000D01*
X5850000Y-9118000D02*
G75*
G03*
X5850000Y-9078000I0J20000D01*
G01*
X5750000Y-9078000D02*
G75*
G03*
X5750000Y-9118000I0J-20000D01*
G01*
D13*
X5830000Y-9908000D02*
G75*
G03*
X5830000Y-9908000I-30000J0D01*
G01*
D11*
X5750000Y-9928000D02*
X5850000Y-9928000D01*
X5750000Y-9888000D02*
X5850000Y-9888000D01*
X5850000Y-9928000D02*
G75*
G03*
X5850000Y-9888000I0J20000D01*
G01*
X5750000Y-9888000D02*
G75*
G03*
X5750000Y-9928000I0J-20000D01*
G01*
D13*
X5830000Y-10738000D02*
G75*
G03*
X5830000Y-10738000I-30000J0D01*
G01*
D11*
X5750000Y-10758000D02*
X5850000Y-10758000D01*
X5750000Y-10718000D02*
X5850000Y-10718000D01*
X5850000Y-10758000D02*
G75*
G03*
X5850000Y-10718000I0J20000D01*
G01*
X5750000Y-10718000D02*
G75*
G03*
X5750000Y-10758000I0J-20000D01*
G01*
D13*
X5830000Y-11048000D02*
G75*
G03*
X5830000Y-11048000I-30000J0D01*
G01*
D11*
X5750000Y-11068000D02*
X5850000Y-11068000D01*
X5750000Y-11028000D02*
X5850000Y-11028000D01*
X5850000Y-11068000D02*
G75*
G03*
X5850000Y-11028000I0J20000D01*
G01*
X5750000Y-11028000D02*
G75*
G03*
X5750000Y-11068000I0J-20000D01*
G01*
D13*
X5830000Y-13608000D02*
G75*
G03*
X5830000Y-13608000I-30000J0D01*
G01*
D11*
X5750000Y-13628000D02*
X5850000Y-13628000D01*
X5750000Y-13588000D02*
X5850000Y-13588000D01*
X5850000Y-13628000D02*
G75*
G03*
X5850000Y-13588000I0J20000D01*
G01*
X5750000Y-13588000D02*
G75*
G03*
X5750000Y-13628000I0J-20000D01*
G01*
D13*
X5830000Y-14438000D02*
G75*
G03*
X5830000Y-14438000I-30000J0D01*
G01*
D11*
X5750000Y-14458000D02*
X5850000Y-14458000D01*
X5750000Y-14418000D02*
X5850000Y-14418000D01*
X5850000Y-14458000D02*
G75*
G03*
X5850000Y-14418000I0J20000D01*
G01*
X5750000Y-14418000D02*
G75*
G03*
X5750000Y-14458000I0J-20000D01*
G01*
D13*
X5830000Y-14748000D02*
G75*
G03*
X5830000Y-14748000I-30000J0D01*
G01*
D11*
X5750000Y-14768000D02*
X5850000Y-14768000D01*
X5750000Y-14728000D02*
X5850000Y-14728000D01*
X5850000Y-14768000D02*
G75*
G03*
X5850000Y-14728000I0J20000D01*
G01*
X5750000Y-14728000D02*
G75*
G03*
X5750000Y-14768000I0J-20000D01*
G01*
D13*
X6232740Y-5350000D02*
G75*
G03*
X6232740Y-5350000I-30000J0D01*
G01*
X6432740Y-5350000D02*
G75*
G03*
X6432740Y-5350000I-30000J0D01*
G01*
X7230000Y-13608000D02*
G75*
G03*
X7230000Y-13608000I-30000J0D01*
G01*
D11*
X7150000Y-13628000D02*
X7250000Y-13628000D01*
X7150000Y-13588000D02*
X7250000Y-13588000D01*
X7250000Y-13628000D02*
G75*
G03*
X7250000Y-13588000I0J20000D01*
G01*
X7150000Y-13588000D02*
G75*
G03*
X7150000Y-13628000I0J-20000D01*
G01*
D13*
X7230000Y-14438000D02*
G75*
G03*
X7230000Y-14438000I-30000J0D01*
G01*
D11*
X7150000Y-14458000D02*
X7250000Y-14458000D01*
X7150000Y-14418000D02*
X7250000Y-14418000D01*
X7250000Y-14458000D02*
G75*
G03*
X7250000Y-14418000I0J20000D01*
G01*
X7150000Y-14418000D02*
G75*
G03*
X7150000Y-14458000I0J-20000D01*
G01*
D13*
X7230000Y-14748000D02*
G75*
G03*
X7230000Y-14748000I-30000J0D01*
G01*
D11*
X7150000Y-14768000D02*
X7250000Y-14768000D01*
X7150000Y-14728000D02*
X7250000Y-14728000D01*
X7250000Y-14768000D02*
G75*
G03*
X7250000Y-14728000I0J20000D01*
G01*
X7150000Y-14728000D02*
G75*
G03*
X7150000Y-14768000I0J-20000D01*
G01*
D14*
X5352000Y-13075000D02*
X5352000Y-13145000D01*
X5317000Y-13110000D02*
X5387000Y-13110000D01*
X5700000Y-11784000D02*
X5700000Y-11854000D01*
X5665000Y-11819000D02*
X5735000Y-11819000D01*
X5700000Y-12546000D02*
X5700000Y-12616000D01*
X5665000Y-12581000D02*
X5735000Y-12581000D01*
X6000000Y-11934000D02*
X6000000Y-12004000D01*
X5965000Y-11969000D02*
X6035000Y-11969000D01*
X6000000Y-12696000D02*
X6000000Y-12766000D01*
X5965000Y-12731000D02*
X6035000Y-12731000D01*
X6114000Y-13075000D02*
X6114000Y-13145000D01*
X6079000Y-13110000D02*
X6149000Y-13110000D01*
X6500000Y-13165000D02*
X6500000Y-13235000D01*
X6465000Y-13200000D02*
X6535000Y-13200000D01*
X6500000Y-13927000D02*
X6500000Y-13997000D01*
X6465000Y-13962000D02*
X6535000Y-13962000D01*
X6819000Y-13165000D02*
X6819000Y-13235000D01*
X6784000Y-13200000D02*
X6854000Y-13200000D01*
X7016000Y-7615000D02*
X7016000Y-7685000D01*
X6981000Y-7650000D02*
X7051000Y-7650000D01*
X7019000Y-9695000D02*
X7019000Y-9765000D01*
X6984000Y-9730000D02*
X7054000Y-9730000D01*
X7400000Y-11562000D02*
X7400000Y-11632000D01*
X7365000Y-11597000D02*
X7435000Y-11597000D01*
X7400000Y-12324000D02*
X7400000Y-12394000D01*
X7365000Y-12359000D02*
X7435000Y-12359000D01*
X7581000Y-13165000D02*
X7581000Y-13235000D01*
X7546000Y-13200000D02*
X7616000Y-13200000D01*
X7778000Y-7615000D02*
X7778000Y-7685000D01*
X7743000Y-7650000D02*
X7813000Y-7650000D01*
X7781000Y-9695000D02*
X7781000Y-9765000D01*
X7746000Y-9730000D02*
X7816000Y-9730000D01*
D15*
X5378285Y-12028284D02*
X5378285Y-11971715D01*
X5321716Y-11971715D01*
X5321716Y-12028284D01*
X5378285Y-12028284D01*
X5378285Y-12528284D02*
X5378285Y-12471715D01*
X5321716Y-12471715D01*
X5321716Y-12528284D01*
X5378285Y-12528284D01*
X5503285Y-11528284D02*
X5503285Y-11471715D01*
X5446716Y-11471715D01*
X5446716Y-11528284D01*
X5503285Y-11528284D01*
X6003284Y-11528284D02*
X6003284Y-11471715D01*
X5946715Y-11471715D01*
X5946715Y-11528284D01*
X6003284Y-11528284D01*
X6346284Y-11648284D02*
X6346284Y-11591715D01*
X6289715Y-11591715D01*
X6289715Y-11648284D01*
X6346284Y-11648284D01*
X6346284Y-11902284D02*
X6346284Y-11845715D01*
X6289715Y-11845715D01*
X6289715Y-11902284D01*
X6346284Y-11902284D01*
X6346284Y-12156284D02*
X6346284Y-12099715D01*
X6289715Y-12099715D01*
X6289715Y-12156284D01*
X6346284Y-12156284D01*
X6346284Y-12410284D02*
X6346284Y-12353715D01*
X6289715Y-12353715D01*
X6289715Y-12410284D01*
X6346284Y-12410284D01*
X7103284Y-12778284D02*
X7103284Y-12721715D01*
X7046715Y-12721715D01*
X7046715Y-12778284D01*
X7103284Y-12778284D01*
X7108284Y-11648284D02*
X7108284Y-11591715D01*
X7051715Y-11591715D01*
X7051715Y-11648284D01*
X7108284Y-11648284D01*
X7108284Y-11902284D02*
X7108284Y-11845715D01*
X7051715Y-11845715D01*
X7051715Y-11902284D01*
X7108284Y-11902284D01*
X7108284Y-12156284D02*
X7108284Y-12099715D01*
X7051715Y-12099715D01*
X7051715Y-12156284D01*
X7108284Y-12156284D01*
X7108284Y-12410284D02*
X7108284Y-12353715D01*
X7051715Y-12353715D01*
X7051715Y-12410284D01*
X7108284Y-12410284D01*
X7603284Y-12778284D02*
X7603284Y-12721715D01*
X7546715Y-12721715D01*
X7546715Y-12778284D01*
X7603284Y-12778284D01*
X7778284Y-11903284D02*
X7778284Y-11846715D01*
X7721715Y-11846715D01*
X7721715Y-11903284D01*
X7778284Y-11903284D01*
X7778284Y-12403284D02*
X7778284Y-12346715D01*
X7721715Y-12346715D01*
X7721715Y-12403284D01*
X7778284Y-12403284D01*
D16*
X6384000Y-4446000D02*
X6434000Y-4396000D01*
X6384000Y-4346000D01*
X6334000Y-4396000D01*
X6384000Y-4446000D01*
X6384000Y-4700000D02*
X6434000Y-4650000D01*
X6384000Y-4600000D01*
X6334000Y-4650000D01*
X6384000Y-4700000D01*
X6638000Y-4446000D02*
X6688000Y-4396000D01*
X6638000Y-4346000D01*
X6588000Y-4396000D01*
X6638000Y-4446000D01*
X6638000Y-4700000D02*
X6688000Y-4650000D01*
X6638000Y-4600000D01*
X6588000Y-4650000D01*
X6638000Y-4700000D01*
X6892000Y-4446000D02*
X6942000Y-4396000D01*
X6892000Y-4346000D01*
X6842000Y-4396000D01*
X6892000Y-4446000D01*
X6892000Y-4700000D02*
X6942000Y-4650000D01*
X6892000Y-4600000D01*
X6842000Y-4650000D01*
X6892000Y-4700000D01*
X6950000Y-7300500D02*
X7000000Y-7250500D01*
X6950000Y-7200500D01*
X6900000Y-7250500D01*
X6950000Y-7300500D01*
X6950000Y-9250000D02*
X7000000Y-9200000D01*
X6950000Y-9150000D01*
X6900000Y-9200000D01*
X6950000Y-9250000D01*
X6950000Y-11200500D02*
X7000000Y-11150500D01*
X6950000Y-11100500D01*
X6900000Y-11150500D01*
X6950000Y-11200500D01*
X7146000Y-4446000D02*
X7196000Y-4396000D01*
X7146000Y-4346000D01*
X7096000Y-4396000D01*
X7146000Y-4446000D01*
X7146000Y-4700000D02*
X7196000Y-4650000D01*
X7146000Y-4600000D01*
X7096000Y-4650000D01*
X7146000Y-4700000D01*
X7200000Y-7300500D02*
X7250000Y-7250500D01*
X7200000Y-7200500D01*
X7150000Y-7250500D01*
X7200000Y-7300500D01*
X7200000Y-9250000D02*
X7250000Y-9200000D01*
X7200000Y-9150000D01*
X7150000Y-9200000D01*
X7200000Y-9250000D01*
X7200000Y-11200500D02*
X7250000Y-11150500D01*
X7200000Y-11100500D01*
X7150000Y-11150500D01*
X7200000Y-11200500D01*
X7400000Y-4446000D02*
X7450000Y-4396000D01*
X7400000Y-4346000D01*
X7350000Y-4396000D01*
X7400000Y-4446000D01*
X7400000Y-4700000D02*
X7450000Y-4650000D01*
X7400000Y-4600000D01*
X7350000Y-4650000D01*
X7400000Y-4700000D01*
X7450000Y-7300500D02*
X7500000Y-7250500D01*
X7450000Y-7200500D01*
X7400000Y-7250500D01*
X7450000Y-7300500D01*
X7450000Y-9250000D02*
X7500000Y-9200000D01*
X7450000Y-9150000D01*
X7400000Y-9200000D01*
X7450000Y-9250000D01*
X7450000Y-11200500D02*
X7500000Y-11150500D01*
X7450000Y-11100500D01*
X7400000Y-11150500D01*
X7450000Y-11200500D01*
D17*
X5285000Y-4339000D02*
X5395000Y-4449000D01*
X5395000Y-4339000D02*
X5285000Y-4449000D01*
X5395000Y-4394000D02*
G75*
G03*
X5395000Y-4394000I-55000J0D01*
G01*
X5285000Y-5355000D02*
X5395000Y-5465000D01*
X5395000Y-5355000D02*
X5285000Y-5465000D01*
X5395000Y-5410000D02*
G75*
G03*
X5395000Y-5410000I-55000J0D01*
G01*
X6665000Y-6445500D02*
X6775000Y-6555500D01*
X6775000Y-6445500D02*
X6665000Y-6555500D01*
X6775000Y-6500500D02*
G75*
G03*
X6775000Y-6500500I-55000J0D01*
G01*
D11*
X6765000Y-6535500D02*
X6765000Y-6465500D01*
X6675000Y-6535500D02*
X6675000Y-6465500D01*
X6765000Y-6465500D02*
G75*
G03*
X6675000Y-6465500I-45000J0D01*
G01*
X6675000Y-6535500D02*
G75*
G03*
X6765000Y-6535500I45000J0D01*
G01*
D17*
X6665000Y-8395000D02*
X6775000Y-8505000D01*
X6775000Y-8395000D02*
X6665000Y-8505000D01*
X6775000Y-8450000D02*
G75*
G03*
X6775000Y-8450000I-55000J0D01*
G01*
D11*
X6765000Y-8485000D02*
X6765000Y-8415000D01*
X6675000Y-8485000D02*
X6675000Y-8415000D01*
X6765000Y-8415000D02*
G75*
G03*
X6675000Y-8415000I-45000J0D01*
G01*
X6675000Y-8485000D02*
G75*
G03*
X6765000Y-8485000I45000J0D01*
G01*
D17*
X6665000Y-10345500D02*
X6775000Y-10455500D01*
X6775000Y-10345500D02*
X6665000Y-10455500D01*
X6775000Y-10400500D02*
G75*
G03*
X6775000Y-10400500I-55000J0D01*
G01*
D11*
X6765000Y-10435500D02*
X6765000Y-10365500D01*
X6675000Y-10435500D02*
X6675000Y-10365500D01*
X6765000Y-10365500D02*
G75*
G03*
X6675000Y-10365500I-45000J0D01*
G01*
X6675000Y-10435500D02*
G75*
G03*
X6765000Y-10435500I45000J0D01*
G01*
D17*
X6737000Y-5295000D02*
X6847000Y-5405000D01*
X6847000Y-5295000D02*
X6737000Y-5405000D01*
X6847000Y-5350000D02*
G75*
G03*
X6847000Y-5350000I-55000J0D01*
G01*
X7625000Y-6445500D02*
X7735000Y-6555500D01*
X7735000Y-6445500D02*
X7625000Y-6555500D01*
X7735000Y-6500500D02*
G75*
G03*
X7735000Y-6500500I-55000J0D01*
G01*
D11*
X7725000Y-6535500D02*
X7725000Y-6465500D01*
X7635000Y-6535500D02*
X7635000Y-6465500D01*
X7725000Y-6465500D02*
G75*
G03*
X7635000Y-6465500I-45000J0D01*
G01*
X7635000Y-6535500D02*
G75*
G03*
X7725000Y-6535500I45000J0D01*
G01*
D17*
X7625000Y-8395000D02*
X7735000Y-8505000D01*
X7735000Y-8395000D02*
X7625000Y-8505000D01*
X7735000Y-8450000D02*
G75*
G03*
X7735000Y-8450000I-55000J0D01*
G01*
D11*
X7725000Y-8485000D02*
X7725000Y-8415000D01*
X7635000Y-8485000D02*
X7635000Y-8415000D01*
X7725000Y-8415000D02*
G75*
G03*
X7635000Y-8415000I-45000J0D01*
G01*
X7635000Y-8485000D02*
G75*
G03*
X7725000Y-8485000I45000J0D01*
G01*
D17*
X7625000Y-10345500D02*
X7735000Y-10455500D01*
X7735000Y-10345500D02*
X7625000Y-10455500D01*
X7735000Y-10400500D02*
G75*
G03*
X7735000Y-10400500I-55000J0D01*
G01*
D11*
X7725000Y-10435500D02*
X7725000Y-10365500D01*
X7635000Y-10435500D02*
X7635000Y-10365500D01*
X7725000Y-10365500D02*
G75*
G03*
X7635000Y-10365500I-45000J0D01*
G01*
X7635000Y-10435500D02*
G75*
G03*
X7725000Y-10435500I45000J0D01*
G01*
D17*
X7753000Y-5295000D02*
X7863000Y-5405000D01*
X7863000Y-5295000D02*
X7753000Y-5405000D01*
X7863000Y-5350000D02*
G75*
G03*
X7863000Y-5350000I-55000J0D01*
G01*
D11*
X5252619Y-15315476D02*
X5252619Y-15115476D01*
X5300238Y-15115476D01*
X5328810Y-15125000D01*
X5347857Y-15144048D01*
X5357381Y-15163095D01*
X5366905Y-15201190D01*
X5366905Y-15229762D01*
X5357381Y-15267857D01*
X5347857Y-15286905D01*
X5328810Y-15305952D01*
X5300238Y-15315476D01*
X5252619Y-15315476D01*
X5452619Y-15315476D02*
X5452619Y-15182143D01*
X5452619Y-15220238D02*
X5462143Y-15201190D01*
X5471667Y-15191667D01*
X5490714Y-15182143D01*
X5509762Y-15182143D01*
X5576429Y-15315476D02*
X5576429Y-15182143D01*
X5576429Y-15115476D02*
X5566905Y-15125000D01*
X5576429Y-15134524D01*
X5585952Y-15125000D01*
X5576429Y-15115476D01*
X5576429Y-15134524D01*
X5700238Y-15315476D02*
X5681190Y-15305952D01*
X5671667Y-15286905D01*
X5671667Y-15115476D01*
X5805000Y-15315476D02*
X5785952Y-15305952D01*
X5776428Y-15286905D01*
X5776428Y-15115476D01*
X6033571Y-15315476D02*
X6033571Y-15115476D01*
X6100238Y-15258333D01*
X6166905Y-15115476D01*
X6166905Y-15315476D01*
X6347857Y-15315476D02*
X6347857Y-15210714D01*
X6338333Y-15191667D01*
X6319286Y-15182143D01*
X6281190Y-15182143D01*
X6262143Y-15191667D01*
X6347857Y-15305952D02*
X6328809Y-15315476D01*
X6281190Y-15315476D01*
X6262143Y-15305952D01*
X6252619Y-15286905D01*
X6252619Y-15267857D01*
X6262143Y-15248809D01*
X6281190Y-15239286D01*
X6328809Y-15239286D01*
X6347857Y-15229762D01*
X6443095Y-15182143D02*
X6443095Y-15382143D01*
X6443095Y-15191667D02*
X6462143Y-15182143D01*
X6500238Y-15182143D01*
X6519286Y-15191667D01*
X6528809Y-15201190D01*
X6538333Y-15220238D01*
X6538333Y-15277381D01*
X6528809Y-15296428D01*
X6519286Y-15305952D01*
X6500238Y-15315476D01*
X6462143Y-15315476D01*
X6443095Y-15305952D01*
X6624048Y-15296428D02*
X6633571Y-15305952D01*
X6624048Y-15315476D01*
X6614524Y-15305952D01*
X6624048Y-15296428D01*
X6624048Y-15315476D01*
X6624048Y-15191667D02*
X6633571Y-15201190D01*
X6624048Y-15210714D01*
X6614524Y-15201190D01*
X6624048Y-15191667D01*
X6624048Y-15210714D01*
D12*
X4955000Y-15625000D02*
X4995000Y-15665000D01*
X4995000Y-15625000D02*
X4955000Y-15665000D01*
D11*
X5290714Y-15535476D02*
X5309762Y-15535476D01*
X5328810Y-15545000D01*
X5338333Y-15554524D01*
X5347857Y-15573571D01*
X5357381Y-15611667D01*
X5357381Y-15659286D01*
X5347857Y-15697381D01*
X5338333Y-15716428D01*
X5328810Y-15725952D01*
X5309762Y-15735476D01*
X5290714Y-15735476D01*
X5271667Y-15725952D01*
X5262143Y-15716428D01*
X5252619Y-15697381D01*
X5243095Y-15659286D01*
X5243095Y-15611667D01*
X5252619Y-15573571D01*
X5262143Y-15554524D01*
X5271667Y-15545000D01*
X5290714Y-15535476D01*
X5443095Y-15716428D02*
X5452619Y-15725952D01*
X5443095Y-15735476D01*
X5433571Y-15725952D01*
X5443095Y-15716428D01*
X5443095Y-15735476D01*
X5624048Y-15602143D02*
X5624048Y-15735476D01*
X5576429Y-15525952D02*
X5528810Y-15668809D01*
X5652619Y-15668809D01*
X5766905Y-15535476D02*
X5785952Y-15535476D01*
X5805000Y-15545000D01*
X5814524Y-15554524D01*
X5824048Y-15573571D01*
X5833571Y-15611667D01*
X5833571Y-15659286D01*
X5824048Y-15697381D01*
X5814524Y-15716428D01*
X5805000Y-15725952D01*
X5785952Y-15735476D01*
X5766905Y-15735476D01*
X5747857Y-15725952D01*
X5738333Y-15716428D01*
X5728809Y-15697381D01*
X5719286Y-15659286D01*
X5719286Y-15611667D01*
X5728809Y-15573571D01*
X5738333Y-15554524D01*
X5747857Y-15545000D01*
X5766905Y-15535476D01*
X5957381Y-15535476D02*
X5976428Y-15535476D01*
X5995476Y-15545000D01*
X6005000Y-15554524D01*
X6014524Y-15573571D01*
X6024048Y-15611667D01*
X6024048Y-15659286D01*
X6014524Y-15697381D01*
X6005000Y-15716428D01*
X5995476Y-15725952D01*
X5976428Y-15735476D01*
X5957381Y-15735476D01*
X5938333Y-15725952D01*
X5928809Y-15716428D01*
X5919286Y-15697381D01*
X5909762Y-15659286D01*
X5909762Y-15611667D01*
X5919286Y-15573571D01*
X5928809Y-15554524D01*
X5938333Y-15545000D01*
X5957381Y-15535476D01*
X6109762Y-15735476D02*
X6109762Y-15602143D01*
X6109762Y-15621190D02*
X6119286Y-15611667D01*
X6138333Y-15602143D01*
X6166905Y-15602143D01*
X6185952Y-15611667D01*
X6195476Y-15630714D01*
X6195476Y-15735476D01*
X6195476Y-15630714D02*
X6205000Y-15611667D01*
X6224048Y-15602143D01*
X6252619Y-15602143D01*
X6271667Y-15611667D01*
X6281190Y-15630714D01*
X6281190Y-15735476D01*
X6376428Y-15735476D02*
X6376428Y-15602143D01*
X6376428Y-15621190D02*
X6385952Y-15611667D01*
X6405000Y-15602143D01*
X6433571Y-15602143D01*
X6452619Y-15611667D01*
X6462143Y-15630714D01*
X6462143Y-15735476D01*
X6462143Y-15630714D02*
X6471667Y-15611667D01*
X6490714Y-15602143D01*
X6519286Y-15602143D01*
X6538333Y-15611667D01*
X6547857Y-15630714D01*
X6547857Y-15735476D01*
X6938333Y-15525952D02*
X6766905Y-15783095D01*
X7195476Y-15535476D02*
X7214524Y-15535476D01*
X7233571Y-15545000D01*
X7243095Y-15554524D01*
X7252619Y-15573571D01*
X7262143Y-15611667D01*
X7262143Y-15659286D01*
X7252619Y-15697381D01*
X7243095Y-15716428D01*
X7233571Y-15725952D01*
X7214524Y-15735476D01*
X7195476Y-15735476D01*
X7176428Y-15725952D01*
X7166905Y-15716428D01*
X7157381Y-15697381D01*
X7147857Y-15659286D01*
X7147857Y-15611667D01*
X7157381Y-15573571D01*
X7166905Y-15554524D01*
X7176428Y-15545000D01*
X7195476Y-15535476D01*
X7347857Y-15716428D02*
X7357381Y-15725952D01*
X7347857Y-15735476D01*
X7338333Y-15725952D01*
X7347857Y-15716428D01*
X7347857Y-15735476D01*
X7481190Y-15535476D02*
X7500238Y-15535476D01*
X7519286Y-15545000D01*
X7528809Y-15554524D01*
X7538333Y-15573571D01*
X7547857Y-15611667D01*
X7547857Y-15659286D01*
X7538333Y-15697381D01*
X7528809Y-15716428D01*
X7519286Y-15725952D01*
X7500238Y-15735476D01*
X7481190Y-15735476D01*
X7462143Y-15725952D01*
X7452619Y-15716428D01*
X7443095Y-15697381D01*
X7433571Y-15659286D01*
X7433571Y-15611667D01*
X7443095Y-15573571D01*
X7452619Y-15554524D01*
X7462143Y-15545000D01*
X7481190Y-15535476D01*
X7738333Y-15735476D02*
X7624048Y-15735476D01*
X7681190Y-15735476D02*
X7681190Y-15535476D01*
X7662143Y-15564048D01*
X7643095Y-15583095D01*
X7624048Y-15592619D01*
X7919286Y-15535476D02*
X7824048Y-15535476D01*
X7814524Y-15630714D01*
X7824048Y-15621190D01*
X7843095Y-15611667D01*
X7890714Y-15611667D01*
X7909762Y-15621190D01*
X7919286Y-15630714D01*
X7928809Y-15649762D01*
X7928809Y-15697381D01*
X7919286Y-15716428D01*
X7909762Y-15725952D01*
X7890714Y-15735476D01*
X7843095Y-15735476D01*
X7824048Y-15725952D01*
X7814524Y-15716428D01*
X7995476Y-15535476D02*
X8128809Y-15535476D01*
X8043095Y-15735476D01*
X8195476Y-15535476D02*
X8195476Y-15573571D01*
X8271667Y-15535476D02*
X8271667Y-15573571D01*
X8566905Y-15811667D02*
X8557381Y-15802143D01*
X8538333Y-15773571D01*
X8528810Y-15754524D01*
X8519286Y-15725952D01*
X8509762Y-15678333D01*
X8509762Y-15640238D01*
X8519286Y-15592619D01*
X8528810Y-15564048D01*
X8538333Y-15545000D01*
X8557381Y-15516428D01*
X8566905Y-15506905D01*
X8728810Y-15602143D02*
X8728810Y-15735476D01*
X8681190Y-15525952D02*
X8633571Y-15668809D01*
X8757381Y-15668809D01*
X8985952Y-15735476D02*
X8985952Y-15535476D01*
X9071667Y-15735476D02*
X9071667Y-15630714D01*
X9062143Y-15611667D01*
X9043095Y-15602143D01*
X9014524Y-15602143D01*
X8995476Y-15611667D01*
X8985952Y-15621190D01*
X9195476Y-15735476D02*
X9176429Y-15725952D01*
X9166905Y-15716428D01*
X9157381Y-15697381D01*
X9157381Y-15640238D01*
X9166905Y-15621190D01*
X9176429Y-15611667D01*
X9195476Y-15602143D01*
X9224048Y-15602143D01*
X9243095Y-15611667D01*
X9252619Y-15621190D01*
X9262143Y-15640238D01*
X9262143Y-15697381D01*
X9252619Y-15716428D01*
X9243095Y-15725952D01*
X9224048Y-15735476D01*
X9195476Y-15735476D01*
X9376429Y-15735476D02*
X9357381Y-15725952D01*
X9347857Y-15706905D01*
X9347857Y-15535476D01*
X9528810Y-15725952D02*
X9509762Y-15735476D01*
X9471667Y-15735476D01*
X9452619Y-15725952D01*
X9443095Y-15706905D01*
X9443095Y-15630714D01*
X9452619Y-15611667D01*
X9471667Y-15602143D01*
X9509762Y-15602143D01*
X9528810Y-15611667D01*
X9538333Y-15630714D01*
X9538333Y-15649762D01*
X9443095Y-15668809D01*
X9614524Y-15725952D02*
X9633571Y-15735476D01*
X9671667Y-15735476D01*
X9690714Y-15725952D01*
X9700238Y-15706905D01*
X9700238Y-15697381D01*
X9690714Y-15678333D01*
X9671667Y-15668809D01*
X9643095Y-15668809D01*
X9624048Y-15659286D01*
X9614524Y-15640238D01*
X9614524Y-15630714D01*
X9624048Y-15611667D01*
X9643095Y-15602143D01*
X9671667Y-15602143D01*
X9690714Y-15611667D01*
X9766905Y-15811667D02*
X9776429Y-15802143D01*
X9795476Y-15773571D01*
X9805000Y-15754524D01*
X9814524Y-15725952D01*
X9824048Y-15678333D01*
X9824048Y-15640238D01*
X9814524Y-15592619D01*
X9805000Y-15564048D01*
X9795476Y-15545000D01*
X9776429Y-15516428D01*
X9766905Y-15506905D01*
D13*
X4995000Y-15909000D02*
G75*
G03*
X4995000Y-15909000I-30000J0D01*
G01*
D11*
X5290714Y-15799476D02*
X5309762Y-15799476D01*
X5328810Y-15809000D01*
X5338333Y-15818524D01*
X5347857Y-15837571D01*
X5357381Y-15875667D01*
X5357381Y-15923286D01*
X5347857Y-15961381D01*
X5338333Y-15980428D01*
X5328810Y-15989952D01*
X5309762Y-15999476D01*
X5290714Y-15999476D01*
X5271667Y-15989952D01*
X5262143Y-15980428D01*
X5252619Y-15961381D01*
X5243095Y-15923286D01*
X5243095Y-15875667D01*
X5252619Y-15837571D01*
X5262143Y-15818524D01*
X5271667Y-15809000D01*
X5290714Y-15799476D01*
X5443095Y-15980428D02*
X5452619Y-15989952D01*
X5443095Y-15999476D01*
X5433571Y-15989952D01*
X5443095Y-15980428D01*
X5443095Y-15999476D01*
X5624048Y-15799476D02*
X5585952Y-15799476D01*
X5566905Y-15809000D01*
X5557381Y-15818524D01*
X5538333Y-15847095D01*
X5528810Y-15885190D01*
X5528810Y-15961381D01*
X5538333Y-15980428D01*
X5547857Y-15989952D01*
X5566905Y-15999476D01*
X5605000Y-15999476D01*
X5624048Y-15989952D01*
X5633571Y-15980428D01*
X5643095Y-15961381D01*
X5643095Y-15913762D01*
X5633571Y-15894714D01*
X5624048Y-15885190D01*
X5605000Y-15875667D01*
X5566905Y-15875667D01*
X5547857Y-15885190D01*
X5538333Y-15894714D01*
X5528810Y-15913762D01*
X5766905Y-15799476D02*
X5785952Y-15799476D01*
X5805000Y-15809000D01*
X5814524Y-15818524D01*
X5824048Y-15837571D01*
X5833571Y-15875667D01*
X5833571Y-15923286D01*
X5824048Y-15961381D01*
X5814524Y-15980428D01*
X5805000Y-15989952D01*
X5785952Y-15999476D01*
X5766905Y-15999476D01*
X5747857Y-15989952D01*
X5738333Y-15980428D01*
X5728809Y-15961381D01*
X5719286Y-15923286D01*
X5719286Y-15875667D01*
X5728809Y-15837571D01*
X5738333Y-15818524D01*
X5747857Y-15809000D01*
X5766905Y-15799476D01*
X5957381Y-15799476D02*
X5976428Y-15799476D01*
X5995476Y-15809000D01*
X6005000Y-15818524D01*
X6014524Y-15837571D01*
X6024048Y-15875667D01*
X6024048Y-15923286D01*
X6014524Y-15961381D01*
X6005000Y-15980428D01*
X5995476Y-15989952D01*
X5976428Y-15999476D01*
X5957381Y-15999476D01*
X5938333Y-15989952D01*
X5928809Y-15980428D01*
X5919286Y-15961381D01*
X5909762Y-15923286D01*
X5909762Y-15875667D01*
X5919286Y-15837571D01*
X5928809Y-15818524D01*
X5938333Y-15809000D01*
X5957381Y-15799476D01*
X6109762Y-15999476D02*
X6109762Y-15866143D01*
X6109762Y-15885190D02*
X6119286Y-15875667D01*
X6138333Y-15866143D01*
X6166905Y-15866143D01*
X6185952Y-15875667D01*
X6195476Y-15894714D01*
X6195476Y-15999476D01*
X6195476Y-15894714D02*
X6205000Y-15875667D01*
X6224048Y-15866143D01*
X6252619Y-15866143D01*
X6271667Y-15875667D01*
X6281190Y-15894714D01*
X6281190Y-15999476D01*
X6376428Y-15999476D02*
X6376428Y-15866143D01*
X6376428Y-15885190D02*
X6385952Y-15875667D01*
X6405000Y-15866143D01*
X6433571Y-15866143D01*
X6452619Y-15875667D01*
X6462143Y-15894714D01*
X6462143Y-15999476D01*
X6462143Y-15894714D02*
X6471667Y-15875667D01*
X6490714Y-15866143D01*
X6519286Y-15866143D01*
X6538333Y-15875667D01*
X6547857Y-15894714D01*
X6547857Y-15999476D01*
X6938333Y-15789952D02*
X6766905Y-16047095D01*
X7195476Y-15799476D02*
X7214524Y-15799476D01*
X7233571Y-15809000D01*
X7243095Y-15818524D01*
X7252619Y-15837571D01*
X7262143Y-15875667D01*
X7262143Y-15923286D01*
X7252619Y-15961381D01*
X7243095Y-15980428D01*
X7233571Y-15989952D01*
X7214524Y-15999476D01*
X7195476Y-15999476D01*
X7176428Y-15989952D01*
X7166905Y-15980428D01*
X7157381Y-15961381D01*
X7147857Y-15923286D01*
X7147857Y-15875667D01*
X7157381Y-15837571D01*
X7166905Y-15818524D01*
X7176428Y-15809000D01*
X7195476Y-15799476D01*
X7347857Y-15980428D02*
X7357381Y-15989952D01*
X7347857Y-15999476D01*
X7338333Y-15989952D01*
X7347857Y-15980428D01*
X7347857Y-15999476D01*
X7481190Y-15799476D02*
X7500238Y-15799476D01*
X7519286Y-15809000D01*
X7528809Y-15818524D01*
X7538333Y-15837571D01*
X7547857Y-15875667D01*
X7547857Y-15923286D01*
X7538333Y-15961381D01*
X7528809Y-15980428D01*
X7519286Y-15989952D01*
X7500238Y-15999476D01*
X7481190Y-15999476D01*
X7462143Y-15989952D01*
X7452619Y-15980428D01*
X7443095Y-15961381D01*
X7433571Y-15923286D01*
X7433571Y-15875667D01*
X7443095Y-15837571D01*
X7452619Y-15818524D01*
X7462143Y-15809000D01*
X7481190Y-15799476D01*
X7624048Y-15818524D02*
X7633571Y-15809000D01*
X7652619Y-15799476D01*
X7700238Y-15799476D01*
X7719286Y-15809000D01*
X7728809Y-15818524D01*
X7738333Y-15837571D01*
X7738333Y-15856619D01*
X7728809Y-15885190D01*
X7614524Y-15999476D01*
X7738333Y-15999476D01*
X7805000Y-15799476D02*
X7928809Y-15799476D01*
X7862143Y-15875667D01*
X7890714Y-15875667D01*
X7909762Y-15885190D01*
X7919286Y-15894714D01*
X7928809Y-15913762D01*
X7928809Y-15961381D01*
X7919286Y-15980428D01*
X7909762Y-15989952D01*
X7890714Y-15999476D01*
X7833571Y-15999476D01*
X7814524Y-15989952D01*
X7805000Y-15980428D01*
X8100238Y-15799476D02*
X8062143Y-15799476D01*
X8043095Y-15809000D01*
X8033571Y-15818524D01*
X8014524Y-15847095D01*
X8005000Y-15885190D01*
X8005000Y-15961381D01*
X8014524Y-15980428D01*
X8024048Y-15989952D01*
X8043095Y-15999476D01*
X8081190Y-15999476D01*
X8100238Y-15989952D01*
X8109762Y-15980428D01*
X8119286Y-15961381D01*
X8119286Y-15913762D01*
X8109762Y-15894714D01*
X8100238Y-15885190D01*
X8081190Y-15875667D01*
X8043095Y-15875667D01*
X8024048Y-15885190D01*
X8014524Y-15894714D01*
X8005000Y-15913762D01*
X8195476Y-15799476D02*
X8195476Y-15837571D01*
X8271667Y-15799476D02*
X8271667Y-15837571D01*
X8566905Y-16075667D02*
X8557381Y-16066143D01*
X8538333Y-16037571D01*
X8528810Y-16018524D01*
X8519286Y-15989952D01*
X8509762Y-15942333D01*
X8509762Y-15904238D01*
X8519286Y-15856619D01*
X8528810Y-15828048D01*
X8538333Y-15809000D01*
X8557381Y-15780428D01*
X8566905Y-15770905D01*
X8728810Y-15866143D02*
X8728810Y-15999476D01*
X8681190Y-15789952D02*
X8633571Y-15932809D01*
X8757381Y-15932809D01*
X8985952Y-15999476D02*
X8985952Y-15799476D01*
X9071667Y-15999476D02*
X9071667Y-15894714D01*
X9062143Y-15875667D01*
X9043095Y-15866143D01*
X9014524Y-15866143D01*
X8995476Y-15875667D01*
X8985952Y-15885190D01*
X9195476Y-15999476D02*
X9176429Y-15989952D01*
X9166905Y-15980428D01*
X9157381Y-15961381D01*
X9157381Y-15904238D01*
X9166905Y-15885190D01*
X9176429Y-15875667D01*
X9195476Y-15866143D01*
X9224048Y-15866143D01*
X9243095Y-15875667D01*
X9252619Y-15885190D01*
X9262143Y-15904238D01*
X9262143Y-15961381D01*
X9252619Y-15980428D01*
X9243095Y-15989952D01*
X9224048Y-15999476D01*
X9195476Y-15999476D01*
X9376429Y-15999476D02*
X9357381Y-15989952D01*
X9347857Y-15970905D01*
X9347857Y-15799476D01*
X9528810Y-15989952D02*
X9509762Y-15999476D01*
X9471667Y-15999476D01*
X9452619Y-15989952D01*
X9443095Y-15970905D01*
X9443095Y-15894714D01*
X9452619Y-15875667D01*
X9471667Y-15866143D01*
X9509762Y-15866143D01*
X9528810Y-15875667D01*
X9538333Y-15894714D01*
X9538333Y-15913762D01*
X9443095Y-15932809D01*
X9614524Y-15989952D02*
X9633571Y-15999476D01*
X9671667Y-15999476D01*
X9690714Y-15989952D01*
X9700238Y-15970905D01*
X9700238Y-15961381D01*
X9690714Y-15942333D01*
X9671667Y-15932809D01*
X9643095Y-15932809D01*
X9624048Y-15923286D01*
X9614524Y-15904238D01*
X9614524Y-15894714D01*
X9624048Y-15875667D01*
X9643095Y-15866143D01*
X9671667Y-15866143D01*
X9690714Y-15875667D01*
X9938333Y-15923286D02*
X10090714Y-15923286D01*
X10014524Y-15999476D02*
X10014524Y-15847095D01*
X10443095Y-15999476D02*
X10328810Y-15999476D01*
X10385952Y-15999476D02*
X10385952Y-15799476D01*
X10366905Y-15828048D01*
X10347857Y-15847095D01*
X10328810Y-15856619D01*
X10624048Y-15799476D02*
X10528810Y-15799476D01*
X10519286Y-15894714D01*
X10528810Y-15885190D01*
X10547857Y-15875667D01*
X10595476Y-15875667D01*
X10614524Y-15885190D01*
X10624048Y-15894714D01*
X10633571Y-15913762D01*
X10633571Y-15961381D01*
X10624048Y-15980428D01*
X10614524Y-15989952D01*
X10595476Y-15999476D01*
X10547857Y-15999476D01*
X10528810Y-15989952D01*
X10519286Y-15980428D01*
X10862143Y-15989952D02*
X10881190Y-15999476D01*
X10919286Y-15999476D01*
X10938333Y-15989952D01*
X10947857Y-15970905D01*
X10947857Y-15961381D01*
X10938333Y-15942333D01*
X10919286Y-15932809D01*
X10890714Y-15932809D01*
X10871667Y-15923286D01*
X10862143Y-15904238D01*
X10862143Y-15894714D01*
X10871667Y-15875667D01*
X10890714Y-15866143D01*
X10919286Y-15866143D01*
X10938333Y-15875667D01*
X11062143Y-15999476D02*
X11043095Y-15989952D01*
X11033571Y-15970905D01*
X11033571Y-15799476D01*
X11166905Y-15999476D02*
X11147857Y-15989952D01*
X11138333Y-15980428D01*
X11128810Y-15961381D01*
X11128810Y-15904238D01*
X11138333Y-15885190D01*
X11147857Y-15875667D01*
X11166905Y-15866143D01*
X11195476Y-15866143D01*
X11214524Y-15875667D01*
X11224048Y-15885190D01*
X11233571Y-15904238D01*
X11233571Y-15961381D01*
X11224048Y-15980428D01*
X11214524Y-15989952D01*
X11195476Y-15999476D01*
X11166905Y-15999476D01*
X11290714Y-15866143D02*
X11366905Y-15866143D01*
X11319286Y-15799476D02*
X11319286Y-15970905D01*
X11328809Y-15989952D01*
X11347857Y-15999476D01*
X11366905Y-15999476D01*
X11424048Y-15989952D02*
X11443095Y-15999476D01*
X11481190Y-15999476D01*
X11500238Y-15989952D01*
X11509762Y-15970905D01*
X11509762Y-15961381D01*
X11500238Y-15942333D01*
X11481190Y-15932809D01*
X11452619Y-15932809D01*
X11433571Y-15923286D01*
X11424048Y-15904238D01*
X11424048Y-15894714D01*
X11433571Y-15875667D01*
X11452619Y-15866143D01*
X11481190Y-15866143D01*
X11500238Y-15875667D01*
X11576428Y-16075667D02*
X11585952Y-16066143D01*
X11605000Y-16037571D01*
X11614524Y-16018524D01*
X11624048Y-15989952D01*
X11633571Y-15942333D01*
X11633571Y-15904238D01*
X11624048Y-15856619D01*
X11614524Y-15828048D01*
X11605000Y-15809000D01*
X11585952Y-15780428D01*
X11576428Y-15770905D01*
D14*
X4960000Y-16138000D02*
X4960000Y-16208000D01*
X4925000Y-16173000D02*
X4995000Y-16173000D01*
D11*
X5290714Y-16063476D02*
X5309762Y-16063476D01*
X5328810Y-16073000D01*
X5338333Y-16082524D01*
X5347857Y-16101571D01*
X5357381Y-16139667D01*
X5357381Y-16187286D01*
X5347857Y-16225381D01*
X5338333Y-16244428D01*
X5328810Y-16253952D01*
X5309762Y-16263476D01*
X5290714Y-16263476D01*
X5271667Y-16253952D01*
X5262143Y-16244428D01*
X5252619Y-16225381D01*
X5243095Y-16187286D01*
X5243095Y-16139667D01*
X5252619Y-16101571D01*
X5262143Y-16082524D01*
X5271667Y-16073000D01*
X5290714Y-16063476D01*
X5443095Y-16244428D02*
X5452619Y-16253952D01*
X5443095Y-16263476D01*
X5433571Y-16253952D01*
X5443095Y-16244428D01*
X5443095Y-16263476D01*
X5519286Y-16063476D02*
X5652619Y-16063476D01*
X5566905Y-16263476D01*
X5766905Y-16063476D02*
X5785952Y-16063476D01*
X5805000Y-16073000D01*
X5814524Y-16082524D01*
X5824048Y-16101571D01*
X5833571Y-16139667D01*
X5833571Y-16187286D01*
X5824048Y-16225381D01*
X5814524Y-16244428D01*
X5805000Y-16253952D01*
X5785952Y-16263476D01*
X5766905Y-16263476D01*
X5747857Y-16253952D01*
X5738333Y-16244428D01*
X5728809Y-16225381D01*
X5719286Y-16187286D01*
X5719286Y-16139667D01*
X5728809Y-16101571D01*
X5738333Y-16082524D01*
X5747857Y-16073000D01*
X5766905Y-16063476D01*
X5957381Y-16063476D02*
X5976428Y-16063476D01*
X5995476Y-16073000D01*
X6005000Y-16082524D01*
X6014524Y-16101571D01*
X6024048Y-16139667D01*
X6024048Y-16187286D01*
X6014524Y-16225381D01*
X6005000Y-16244428D01*
X5995476Y-16253952D01*
X5976428Y-16263476D01*
X5957381Y-16263476D01*
X5938333Y-16253952D01*
X5928809Y-16244428D01*
X5919286Y-16225381D01*
X5909762Y-16187286D01*
X5909762Y-16139667D01*
X5919286Y-16101571D01*
X5928809Y-16082524D01*
X5938333Y-16073000D01*
X5957381Y-16063476D01*
X6109762Y-16263476D02*
X6109762Y-16130143D01*
X6109762Y-16149190D02*
X6119286Y-16139667D01*
X6138333Y-16130143D01*
X6166905Y-16130143D01*
X6185952Y-16139667D01*
X6195476Y-16158714D01*
X6195476Y-16263476D01*
X6195476Y-16158714D02*
X6205000Y-16139667D01*
X6224048Y-16130143D01*
X6252619Y-16130143D01*
X6271667Y-16139667D01*
X6281190Y-16158714D01*
X6281190Y-16263476D01*
X6376428Y-16263476D02*
X6376428Y-16130143D01*
X6376428Y-16149190D02*
X6385952Y-16139667D01*
X6405000Y-16130143D01*
X6433571Y-16130143D01*
X6452619Y-16139667D01*
X6462143Y-16158714D01*
X6462143Y-16263476D01*
X6462143Y-16158714D02*
X6471667Y-16139667D01*
X6490714Y-16130143D01*
X6519286Y-16130143D01*
X6538333Y-16139667D01*
X6547857Y-16158714D01*
X6547857Y-16263476D01*
X6938333Y-16053952D02*
X6766905Y-16311095D01*
X7195476Y-16063476D02*
X7214524Y-16063476D01*
X7233571Y-16073000D01*
X7243095Y-16082524D01*
X7252619Y-16101571D01*
X7262143Y-16139667D01*
X7262143Y-16187286D01*
X7252619Y-16225381D01*
X7243095Y-16244428D01*
X7233571Y-16253952D01*
X7214524Y-16263476D01*
X7195476Y-16263476D01*
X7176428Y-16253952D01*
X7166905Y-16244428D01*
X7157381Y-16225381D01*
X7147857Y-16187286D01*
X7147857Y-16139667D01*
X7157381Y-16101571D01*
X7166905Y-16082524D01*
X7176428Y-16073000D01*
X7195476Y-16063476D01*
X7347857Y-16244428D02*
X7357381Y-16253952D01*
X7347857Y-16263476D01*
X7338333Y-16253952D01*
X7347857Y-16244428D01*
X7347857Y-16263476D01*
X7481190Y-16063476D02*
X7500238Y-16063476D01*
X7519286Y-16073000D01*
X7528809Y-16082524D01*
X7538333Y-16101571D01*
X7547857Y-16139667D01*
X7547857Y-16187286D01*
X7538333Y-16225381D01*
X7528809Y-16244428D01*
X7519286Y-16253952D01*
X7500238Y-16263476D01*
X7481190Y-16263476D01*
X7462143Y-16253952D01*
X7452619Y-16244428D01*
X7443095Y-16225381D01*
X7433571Y-16187286D01*
X7433571Y-16139667D01*
X7443095Y-16101571D01*
X7452619Y-16082524D01*
X7462143Y-16073000D01*
X7481190Y-16063476D01*
X7624048Y-16082524D02*
X7633571Y-16073000D01*
X7652619Y-16063476D01*
X7700238Y-16063476D01*
X7719286Y-16073000D01*
X7728809Y-16082524D01*
X7738333Y-16101571D01*
X7738333Y-16120619D01*
X7728809Y-16149190D01*
X7614524Y-16263476D01*
X7738333Y-16263476D01*
X7805000Y-16063476D02*
X7938333Y-16063476D01*
X7852619Y-16263476D01*
X8100238Y-16063476D02*
X8062143Y-16063476D01*
X8043095Y-16073000D01*
X8033571Y-16082524D01*
X8014524Y-16111095D01*
X8005000Y-16149190D01*
X8005000Y-16225381D01*
X8014524Y-16244428D01*
X8024048Y-16253952D01*
X8043095Y-16263476D01*
X8081190Y-16263476D01*
X8100238Y-16253952D01*
X8109762Y-16244428D01*
X8119286Y-16225381D01*
X8119286Y-16177762D01*
X8109762Y-16158714D01*
X8100238Y-16149190D01*
X8081190Y-16139667D01*
X8043095Y-16139667D01*
X8024048Y-16149190D01*
X8014524Y-16158714D01*
X8005000Y-16177762D01*
X8195476Y-16063476D02*
X8195476Y-16101571D01*
X8271667Y-16063476D02*
X8271667Y-16101571D01*
X8566905Y-16339667D02*
X8557381Y-16330143D01*
X8538333Y-16301571D01*
X8528810Y-16282524D01*
X8519286Y-16253952D01*
X8509762Y-16206333D01*
X8509762Y-16168238D01*
X8519286Y-16120619D01*
X8528810Y-16092048D01*
X8538333Y-16073000D01*
X8557381Y-16044428D01*
X8566905Y-16034905D01*
X8747857Y-16263476D02*
X8633571Y-16263476D01*
X8690714Y-16263476D02*
X8690714Y-16063476D01*
X8671667Y-16092048D01*
X8652619Y-16111095D01*
X8633571Y-16120619D01*
X8919286Y-16063476D02*
X8881190Y-16063476D01*
X8862143Y-16073000D01*
X8852619Y-16082524D01*
X8833571Y-16111095D01*
X8824048Y-16149190D01*
X8824048Y-16225381D01*
X8833571Y-16244428D01*
X8843095Y-16253952D01*
X8862143Y-16263476D01*
X8900238Y-16263476D01*
X8919286Y-16253952D01*
X8928810Y-16244428D01*
X8938333Y-16225381D01*
X8938333Y-16177762D01*
X8928810Y-16158714D01*
X8919286Y-16149190D01*
X8900238Y-16139667D01*
X8862143Y-16139667D01*
X8843095Y-16149190D01*
X8833571Y-16158714D01*
X8824048Y-16177762D01*
X9176429Y-16263476D02*
X9176429Y-16063476D01*
X9262143Y-16263476D02*
X9262143Y-16158714D01*
X9252619Y-16139667D01*
X9233571Y-16130143D01*
X9205000Y-16130143D01*
X9185952Y-16139667D01*
X9176429Y-16149190D01*
X9385952Y-16263476D02*
X9366905Y-16253952D01*
X9357381Y-16244428D01*
X9347857Y-16225381D01*
X9347857Y-16168238D01*
X9357381Y-16149190D01*
X9366905Y-16139667D01*
X9385952Y-16130143D01*
X9414524Y-16130143D01*
X9433571Y-16139667D01*
X9443095Y-16149190D01*
X9452619Y-16168238D01*
X9452619Y-16225381D01*
X9443095Y-16244428D01*
X9433571Y-16253952D01*
X9414524Y-16263476D01*
X9385952Y-16263476D01*
X9566905Y-16263476D02*
X9547857Y-16253952D01*
X9538333Y-16234905D01*
X9538333Y-16063476D01*
X9719286Y-16253952D02*
X9700238Y-16263476D01*
X9662143Y-16263476D01*
X9643095Y-16253952D01*
X9633571Y-16234905D01*
X9633571Y-16158714D01*
X9643095Y-16139667D01*
X9662143Y-16130143D01*
X9700238Y-16130143D01*
X9719286Y-16139667D01*
X9728810Y-16158714D01*
X9728810Y-16177762D01*
X9633571Y-16196809D01*
X9805000Y-16253952D02*
X9824048Y-16263476D01*
X9862143Y-16263476D01*
X9881190Y-16253952D01*
X9890714Y-16234905D01*
X9890714Y-16225381D01*
X9881190Y-16206333D01*
X9862143Y-16196809D01*
X9833571Y-16196809D01*
X9814524Y-16187286D01*
X9805000Y-16168238D01*
X9805000Y-16158714D01*
X9814524Y-16139667D01*
X9833571Y-16130143D01*
X9862143Y-16130143D01*
X9881190Y-16139667D01*
X9957381Y-16339667D02*
X9966905Y-16330143D01*
X9985952Y-16301571D01*
X9995476Y-16282524D01*
X10005000Y-16253952D01*
X10014524Y-16206333D01*
X10014524Y-16168238D01*
X10005000Y-16120619D01*
X9995476Y-16092048D01*
X9985952Y-16073000D01*
X9966905Y-16044428D01*
X9957381Y-16034905D01*
D15*
X4983285Y-16465284D02*
X4983285Y-16408715D01*
X4926716Y-16408715D01*
X4926716Y-16465284D01*
X4983285Y-16465284D01*
D11*
X5290714Y-16327476D02*
X5309762Y-16327476D01*
X5328810Y-16337000D01*
X5338333Y-16346524D01*
X5347857Y-16365571D01*
X5357381Y-16403667D01*
X5357381Y-16451286D01*
X5347857Y-16489381D01*
X5338333Y-16508428D01*
X5328810Y-16517952D01*
X5309762Y-16527476D01*
X5290714Y-16527476D01*
X5271667Y-16517952D01*
X5262143Y-16508428D01*
X5252619Y-16489381D01*
X5243095Y-16451286D01*
X5243095Y-16403667D01*
X5252619Y-16365571D01*
X5262143Y-16346524D01*
X5271667Y-16337000D01*
X5290714Y-16327476D01*
X5443095Y-16508428D02*
X5452619Y-16517952D01*
X5443095Y-16527476D01*
X5433571Y-16517952D01*
X5443095Y-16508428D01*
X5443095Y-16527476D01*
X5566905Y-16413190D02*
X5547857Y-16403667D01*
X5538333Y-16394143D01*
X5528810Y-16375095D01*
X5528810Y-16365571D01*
X5538333Y-16346524D01*
X5547857Y-16337000D01*
X5566905Y-16327476D01*
X5605000Y-16327476D01*
X5624048Y-16337000D01*
X5633571Y-16346524D01*
X5643095Y-16365571D01*
X5643095Y-16375095D01*
X5633571Y-16394143D01*
X5624048Y-16403667D01*
X5605000Y-16413190D01*
X5566905Y-16413190D01*
X5547857Y-16422714D01*
X5538333Y-16432238D01*
X5528810Y-16451286D01*
X5528810Y-16489381D01*
X5538333Y-16508428D01*
X5547857Y-16517952D01*
X5566905Y-16527476D01*
X5605000Y-16527476D01*
X5624048Y-16517952D01*
X5633571Y-16508428D01*
X5643095Y-16489381D01*
X5643095Y-16451286D01*
X5633571Y-16432238D01*
X5624048Y-16422714D01*
X5605000Y-16413190D01*
X5766905Y-16327476D02*
X5785952Y-16327476D01*
X5805000Y-16337000D01*
X5814524Y-16346524D01*
X5824048Y-16365571D01*
X5833571Y-16403667D01*
X5833571Y-16451286D01*
X5824048Y-16489381D01*
X5814524Y-16508428D01*
X5805000Y-16517952D01*
X5785952Y-16527476D01*
X5766905Y-16527476D01*
X5747857Y-16517952D01*
X5738333Y-16508428D01*
X5728809Y-16489381D01*
X5719286Y-16451286D01*
X5719286Y-16403667D01*
X5728809Y-16365571D01*
X5738333Y-16346524D01*
X5747857Y-16337000D01*
X5766905Y-16327476D01*
X5957381Y-16327476D02*
X5976428Y-16327476D01*
X5995476Y-16337000D01*
X6005000Y-16346524D01*
X6014524Y-16365571D01*
X6024048Y-16403667D01*
X6024048Y-16451286D01*
X6014524Y-16489381D01*
X6005000Y-16508428D01*
X5995476Y-16517952D01*
X5976428Y-16527476D01*
X5957381Y-16527476D01*
X5938333Y-16517952D01*
X5928809Y-16508428D01*
X5919286Y-16489381D01*
X5909762Y-16451286D01*
X5909762Y-16403667D01*
X5919286Y-16365571D01*
X5928809Y-16346524D01*
X5938333Y-16337000D01*
X5957381Y-16327476D01*
X6109762Y-16527476D02*
X6109762Y-16394143D01*
X6109762Y-16413190D02*
X6119286Y-16403667D01*
X6138333Y-16394143D01*
X6166905Y-16394143D01*
X6185952Y-16403667D01*
X6195476Y-16422714D01*
X6195476Y-16527476D01*
X6195476Y-16422714D02*
X6205000Y-16403667D01*
X6224048Y-16394143D01*
X6252619Y-16394143D01*
X6271667Y-16403667D01*
X6281190Y-16422714D01*
X6281190Y-16527476D01*
X6376428Y-16527476D02*
X6376428Y-16394143D01*
X6376428Y-16413190D02*
X6385952Y-16403667D01*
X6405000Y-16394143D01*
X6433571Y-16394143D01*
X6452619Y-16403667D01*
X6462143Y-16422714D01*
X6462143Y-16527476D01*
X6462143Y-16422714D02*
X6471667Y-16403667D01*
X6490714Y-16394143D01*
X6519286Y-16394143D01*
X6538333Y-16403667D01*
X6547857Y-16422714D01*
X6547857Y-16527476D01*
X6938333Y-16317952D02*
X6766905Y-16575095D01*
X7195476Y-16327476D02*
X7214524Y-16327476D01*
X7233571Y-16337000D01*
X7243095Y-16346524D01*
X7252619Y-16365571D01*
X7262143Y-16403667D01*
X7262143Y-16451286D01*
X7252619Y-16489381D01*
X7243095Y-16508428D01*
X7233571Y-16517952D01*
X7214524Y-16527476D01*
X7195476Y-16527476D01*
X7176428Y-16517952D01*
X7166905Y-16508428D01*
X7157381Y-16489381D01*
X7147857Y-16451286D01*
X7147857Y-16403667D01*
X7157381Y-16365571D01*
X7166905Y-16346524D01*
X7176428Y-16337000D01*
X7195476Y-16327476D01*
X7347857Y-16508428D02*
X7357381Y-16517952D01*
X7347857Y-16527476D01*
X7338333Y-16517952D01*
X7347857Y-16508428D01*
X7347857Y-16527476D01*
X7481190Y-16327476D02*
X7500238Y-16327476D01*
X7519286Y-16337000D01*
X7528809Y-16346524D01*
X7538333Y-16365571D01*
X7547857Y-16403667D01*
X7547857Y-16451286D01*
X7538333Y-16489381D01*
X7528809Y-16508428D01*
X7519286Y-16517952D01*
X7500238Y-16527476D01*
X7481190Y-16527476D01*
X7462143Y-16517952D01*
X7452619Y-16508428D01*
X7443095Y-16489381D01*
X7433571Y-16451286D01*
X7433571Y-16403667D01*
X7443095Y-16365571D01*
X7452619Y-16346524D01*
X7462143Y-16337000D01*
X7481190Y-16327476D01*
X7614524Y-16327476D02*
X7738333Y-16327476D01*
X7671667Y-16403667D01*
X7700238Y-16403667D01*
X7719286Y-16413190D01*
X7728809Y-16422714D01*
X7738333Y-16441762D01*
X7738333Y-16489381D01*
X7728809Y-16508428D01*
X7719286Y-16517952D01*
X7700238Y-16527476D01*
X7643095Y-16527476D01*
X7624048Y-16517952D01*
X7614524Y-16508428D01*
X7928809Y-16527476D02*
X7814524Y-16527476D01*
X7871667Y-16527476D02*
X7871667Y-16327476D01*
X7852619Y-16356048D01*
X7833571Y-16375095D01*
X7814524Y-16384619D01*
X8109762Y-16327476D02*
X8014524Y-16327476D01*
X8005000Y-16422714D01*
X8014524Y-16413190D01*
X8033571Y-16403667D01*
X8081190Y-16403667D01*
X8100238Y-16413190D01*
X8109762Y-16422714D01*
X8119286Y-16441762D01*
X8119286Y-16489381D01*
X8109762Y-16508428D01*
X8100238Y-16517952D01*
X8081190Y-16527476D01*
X8033571Y-16527476D01*
X8014524Y-16517952D01*
X8005000Y-16508428D01*
X8195476Y-16327476D02*
X8195476Y-16365571D01*
X8271667Y-16327476D02*
X8271667Y-16365571D01*
X8566905Y-16603667D02*
X8557381Y-16594143D01*
X8538333Y-16565571D01*
X8528810Y-16546524D01*
X8519286Y-16517952D01*
X8509762Y-16470333D01*
X8509762Y-16432238D01*
X8519286Y-16384619D01*
X8528810Y-16356048D01*
X8538333Y-16337000D01*
X8557381Y-16308428D01*
X8566905Y-16298905D01*
X8747857Y-16527476D02*
X8633571Y-16527476D01*
X8690714Y-16527476D02*
X8690714Y-16327476D01*
X8671667Y-16356048D01*
X8652619Y-16375095D01*
X8633571Y-16384619D01*
X8919286Y-16327476D02*
X8881190Y-16327476D01*
X8862143Y-16337000D01*
X8852619Y-16346524D01*
X8833571Y-16375095D01*
X8824048Y-16413190D01*
X8824048Y-16489381D01*
X8833571Y-16508428D01*
X8843095Y-16517952D01*
X8862143Y-16527476D01*
X8900238Y-16527476D01*
X8919286Y-16517952D01*
X8928810Y-16508428D01*
X8938333Y-16489381D01*
X8938333Y-16441762D01*
X8928810Y-16422714D01*
X8919286Y-16413190D01*
X8900238Y-16403667D01*
X8862143Y-16403667D01*
X8843095Y-16413190D01*
X8833571Y-16422714D01*
X8824048Y-16441762D01*
X9176429Y-16527476D02*
X9176429Y-16327476D01*
X9262143Y-16527476D02*
X9262143Y-16422714D01*
X9252619Y-16403667D01*
X9233571Y-16394143D01*
X9205000Y-16394143D01*
X9185952Y-16403667D01*
X9176429Y-16413190D01*
X9385952Y-16527476D02*
X9366905Y-16517952D01*
X9357381Y-16508428D01*
X9347857Y-16489381D01*
X9347857Y-16432238D01*
X9357381Y-16413190D01*
X9366905Y-16403667D01*
X9385952Y-16394143D01*
X9414524Y-16394143D01*
X9433571Y-16403667D01*
X9443095Y-16413190D01*
X9452619Y-16432238D01*
X9452619Y-16489381D01*
X9443095Y-16508428D01*
X9433571Y-16517952D01*
X9414524Y-16527476D01*
X9385952Y-16527476D01*
X9566905Y-16527476D02*
X9547857Y-16517952D01*
X9538333Y-16498905D01*
X9538333Y-16327476D01*
X9719286Y-16517952D02*
X9700238Y-16527476D01*
X9662143Y-16527476D01*
X9643095Y-16517952D01*
X9633571Y-16498905D01*
X9633571Y-16422714D01*
X9643095Y-16403667D01*
X9662143Y-16394143D01*
X9700238Y-16394143D01*
X9719286Y-16403667D01*
X9728810Y-16422714D01*
X9728810Y-16441762D01*
X9633571Y-16460809D01*
X9805000Y-16517952D02*
X9824048Y-16527476D01*
X9862143Y-16527476D01*
X9881190Y-16517952D01*
X9890714Y-16498905D01*
X9890714Y-16489381D01*
X9881190Y-16470333D01*
X9862143Y-16460809D01*
X9833571Y-16460809D01*
X9814524Y-16451286D01*
X9805000Y-16432238D01*
X9805000Y-16422714D01*
X9814524Y-16403667D01*
X9833571Y-16394143D01*
X9862143Y-16394143D01*
X9881190Y-16403667D01*
X9957381Y-16603667D02*
X9966905Y-16594143D01*
X9985952Y-16565571D01*
X9995476Y-16546524D01*
X10005000Y-16517952D01*
X10014524Y-16470333D01*
X10014524Y-16432238D01*
X10005000Y-16384619D01*
X9995476Y-16356048D01*
X9985952Y-16337000D01*
X9966905Y-16308428D01*
X9957381Y-16298905D01*
D16*
X4945000Y-16751000D02*
X4995000Y-16701000D01*
X4945000Y-16651000D01*
X4895000Y-16701000D01*
X4945000Y-16751000D01*
D11*
X5357381Y-16791476D02*
X5243095Y-16791476D01*
X5300238Y-16791476D02*
X5300238Y-16591476D01*
X5281190Y-16620048D01*
X5262143Y-16639095D01*
X5243095Y-16648619D01*
X5443095Y-16772428D02*
X5452619Y-16781952D01*
X5443095Y-16791476D01*
X5433571Y-16781952D01*
X5443095Y-16772428D01*
X5443095Y-16791476D01*
X5576429Y-16591476D02*
X5595476Y-16591476D01*
X5614524Y-16601000D01*
X5624048Y-16610524D01*
X5633571Y-16629571D01*
X5643095Y-16667667D01*
X5643095Y-16715286D01*
X5633571Y-16753381D01*
X5624048Y-16772428D01*
X5614524Y-16781952D01*
X5595476Y-16791476D01*
X5576429Y-16791476D01*
X5557381Y-16781952D01*
X5547857Y-16772428D01*
X5538333Y-16753381D01*
X5528810Y-16715286D01*
X5528810Y-16667667D01*
X5538333Y-16629571D01*
X5547857Y-16610524D01*
X5557381Y-16601000D01*
X5576429Y-16591476D01*
X5766905Y-16591476D02*
X5785952Y-16591476D01*
X5805000Y-16601000D01*
X5814524Y-16610524D01*
X5824048Y-16629571D01*
X5833571Y-16667667D01*
X5833571Y-16715286D01*
X5824048Y-16753381D01*
X5814524Y-16772428D01*
X5805000Y-16781952D01*
X5785952Y-16791476D01*
X5766905Y-16791476D01*
X5747857Y-16781952D01*
X5738333Y-16772428D01*
X5728809Y-16753381D01*
X5719286Y-16715286D01*
X5719286Y-16667667D01*
X5728809Y-16629571D01*
X5738333Y-16610524D01*
X5747857Y-16601000D01*
X5766905Y-16591476D01*
X5957381Y-16591476D02*
X5976428Y-16591476D01*
X5995476Y-16601000D01*
X6005000Y-16610524D01*
X6014524Y-16629571D01*
X6024048Y-16667667D01*
X6024048Y-16715286D01*
X6014524Y-16753381D01*
X6005000Y-16772428D01*
X5995476Y-16781952D01*
X5976428Y-16791476D01*
X5957381Y-16791476D01*
X5938333Y-16781952D01*
X5928809Y-16772428D01*
X5919286Y-16753381D01*
X5909762Y-16715286D01*
X5909762Y-16667667D01*
X5919286Y-16629571D01*
X5928809Y-16610524D01*
X5938333Y-16601000D01*
X5957381Y-16591476D01*
X6109762Y-16791476D02*
X6109762Y-16658143D01*
X6109762Y-16677190D02*
X6119286Y-16667667D01*
X6138333Y-16658143D01*
X6166905Y-16658143D01*
X6185952Y-16667667D01*
X6195476Y-16686714D01*
X6195476Y-16791476D01*
X6195476Y-16686714D02*
X6205000Y-16667667D01*
X6224048Y-16658143D01*
X6252619Y-16658143D01*
X6271667Y-16667667D01*
X6281190Y-16686714D01*
X6281190Y-16791476D01*
X6376428Y-16791476D02*
X6376428Y-16658143D01*
X6376428Y-16677190D02*
X6385952Y-16667667D01*
X6405000Y-16658143D01*
X6433571Y-16658143D01*
X6452619Y-16667667D01*
X6462143Y-16686714D01*
X6462143Y-16791476D01*
X6462143Y-16686714D02*
X6471667Y-16667667D01*
X6490714Y-16658143D01*
X6519286Y-16658143D01*
X6538333Y-16667667D01*
X6547857Y-16686714D01*
X6547857Y-16791476D01*
X6938333Y-16581952D02*
X6766905Y-16839095D01*
X7195476Y-16591476D02*
X7214524Y-16591476D01*
X7233571Y-16601000D01*
X7243095Y-16610524D01*
X7252619Y-16629571D01*
X7262143Y-16667667D01*
X7262143Y-16715286D01*
X7252619Y-16753381D01*
X7243095Y-16772428D01*
X7233571Y-16781952D01*
X7214524Y-16791476D01*
X7195476Y-16791476D01*
X7176428Y-16781952D01*
X7166905Y-16772428D01*
X7157381Y-16753381D01*
X7147857Y-16715286D01*
X7147857Y-16667667D01*
X7157381Y-16629571D01*
X7166905Y-16610524D01*
X7176428Y-16601000D01*
X7195476Y-16591476D01*
X7347857Y-16772428D02*
X7357381Y-16781952D01*
X7347857Y-16791476D01*
X7338333Y-16781952D01*
X7347857Y-16772428D01*
X7347857Y-16791476D01*
X7481190Y-16591476D02*
X7500238Y-16591476D01*
X7519286Y-16601000D01*
X7528809Y-16610524D01*
X7538333Y-16629571D01*
X7547857Y-16667667D01*
X7547857Y-16715286D01*
X7538333Y-16753381D01*
X7528809Y-16772428D01*
X7519286Y-16781952D01*
X7500238Y-16791476D01*
X7481190Y-16791476D01*
X7462143Y-16781952D01*
X7452619Y-16772428D01*
X7443095Y-16753381D01*
X7433571Y-16715286D01*
X7433571Y-16667667D01*
X7443095Y-16629571D01*
X7452619Y-16610524D01*
X7462143Y-16601000D01*
X7481190Y-16591476D01*
X7614524Y-16591476D02*
X7738333Y-16591476D01*
X7671667Y-16667667D01*
X7700238Y-16667667D01*
X7719286Y-16677190D01*
X7728809Y-16686714D01*
X7738333Y-16705762D01*
X7738333Y-16753381D01*
X7728809Y-16772428D01*
X7719286Y-16781952D01*
X7700238Y-16791476D01*
X7643095Y-16791476D01*
X7624048Y-16781952D01*
X7614524Y-16772428D01*
X7833571Y-16791476D02*
X7871667Y-16791476D01*
X7890714Y-16781952D01*
X7900238Y-16772428D01*
X7919286Y-16743857D01*
X7928809Y-16705762D01*
X7928809Y-16629571D01*
X7919286Y-16610524D01*
X7909762Y-16601000D01*
X7890714Y-16591476D01*
X7852619Y-16591476D01*
X7833571Y-16601000D01*
X7824048Y-16610524D01*
X7814524Y-16629571D01*
X7814524Y-16677190D01*
X7824048Y-16696238D01*
X7833571Y-16705762D01*
X7852619Y-16715286D01*
X7890714Y-16715286D01*
X7909762Y-16705762D01*
X7919286Y-16696238D01*
X7928809Y-16677190D01*
X8100238Y-16658143D02*
X8100238Y-16791476D01*
X8052619Y-16581952D02*
X8005000Y-16724809D01*
X8128809Y-16724809D01*
X8195476Y-16591476D02*
X8195476Y-16629571D01*
X8271667Y-16591476D02*
X8271667Y-16629571D01*
X8566905Y-16867667D02*
X8557381Y-16858143D01*
X8538333Y-16829571D01*
X8528810Y-16810524D01*
X8519286Y-16781952D01*
X8509762Y-16734333D01*
X8509762Y-16696238D01*
X8519286Y-16648619D01*
X8528810Y-16620048D01*
X8538333Y-16601000D01*
X8557381Y-16572428D01*
X8566905Y-16562905D01*
X8747857Y-16791476D02*
X8633571Y-16791476D01*
X8690714Y-16791476D02*
X8690714Y-16591476D01*
X8671667Y-16620048D01*
X8652619Y-16639095D01*
X8633571Y-16648619D01*
X8843095Y-16791476D02*
X8881190Y-16791476D01*
X8900238Y-16781952D01*
X8909762Y-16772428D01*
X8928810Y-16743857D01*
X8938333Y-16705762D01*
X8938333Y-16629571D01*
X8928810Y-16610524D01*
X8919286Y-16601000D01*
X8900238Y-16591476D01*
X8862143Y-16591476D01*
X8843095Y-16601000D01*
X8833571Y-16610524D01*
X8824048Y-16629571D01*
X8824048Y-16677190D01*
X8833571Y-16696238D01*
X8843095Y-16705762D01*
X8862143Y-16715286D01*
X8900238Y-16715286D01*
X8919286Y-16705762D01*
X8928810Y-16696238D01*
X8938333Y-16677190D01*
X9176429Y-16791476D02*
X9176429Y-16591476D01*
X9262143Y-16791476D02*
X9262143Y-16686714D01*
X9252619Y-16667667D01*
X9233571Y-16658143D01*
X9205000Y-16658143D01*
X9185952Y-16667667D01*
X9176429Y-16677190D01*
X9385952Y-16791476D02*
X9366905Y-16781952D01*
X9357381Y-16772428D01*
X9347857Y-16753381D01*
X9347857Y-16696238D01*
X9357381Y-16677190D01*
X9366905Y-16667667D01*
X9385952Y-16658143D01*
X9414524Y-16658143D01*
X9433571Y-16667667D01*
X9443095Y-16677190D01*
X9452619Y-16696238D01*
X9452619Y-16753381D01*
X9443095Y-16772428D01*
X9433571Y-16781952D01*
X9414524Y-16791476D01*
X9385952Y-16791476D01*
X9566905Y-16791476D02*
X9547857Y-16781952D01*
X9538333Y-16762905D01*
X9538333Y-16591476D01*
X9719286Y-16781952D02*
X9700238Y-16791476D01*
X9662143Y-16791476D01*
X9643095Y-16781952D01*
X9633571Y-16762905D01*
X9633571Y-16686714D01*
X9643095Y-16667667D01*
X9662143Y-16658143D01*
X9700238Y-16658143D01*
X9719286Y-16667667D01*
X9728810Y-16686714D01*
X9728810Y-16705762D01*
X9633571Y-16724809D01*
X9805000Y-16781952D02*
X9824048Y-16791476D01*
X9862143Y-16791476D01*
X9881190Y-16781952D01*
X9890714Y-16762905D01*
X9890714Y-16753381D01*
X9881190Y-16734333D01*
X9862143Y-16724809D01*
X9833571Y-16724809D01*
X9814524Y-16715286D01*
X9805000Y-16696238D01*
X9805000Y-16686714D01*
X9814524Y-16667667D01*
X9833571Y-16658143D01*
X9862143Y-16658143D01*
X9881190Y-16667667D01*
X9957381Y-16867667D02*
X9966905Y-16858143D01*
X9985952Y-16829571D01*
X9995476Y-16810524D01*
X10005000Y-16781952D01*
X10014524Y-16734333D01*
X10014524Y-16696238D01*
X10005000Y-16648619D01*
X9995476Y-16620048D01*
X9985952Y-16601000D01*
X9966905Y-16572428D01*
X9957381Y-16562905D01*
D17*
X4885000Y-16910000D02*
X4995000Y-17020000D01*
X4995000Y-16910000D02*
X4885000Y-17020000D01*
X4995000Y-16965000D02*
G75*
G03*
X4995000Y-16965000I-55000J0D01*
G01*
D11*
X5357381Y-17055476D02*
X5243095Y-17055476D01*
X5300238Y-17055476D02*
X5300238Y-16855476D01*
X5281190Y-16884048D01*
X5262143Y-16903095D01*
X5243095Y-16912619D01*
X5443095Y-17036429D02*
X5452619Y-17045952D01*
X5443095Y-17055476D01*
X5433571Y-17045952D01*
X5443095Y-17036429D01*
X5443095Y-17055476D01*
X5643095Y-17055476D02*
X5528810Y-17055476D01*
X5585952Y-17055476D02*
X5585952Y-16855476D01*
X5566905Y-16884048D01*
X5547857Y-16903095D01*
X5528810Y-16912619D01*
X5766905Y-16855476D02*
X5785952Y-16855476D01*
X5805000Y-16865000D01*
X5814524Y-16874524D01*
X5824048Y-16893571D01*
X5833571Y-16931667D01*
X5833571Y-16979286D01*
X5824048Y-17017381D01*
X5814524Y-17036429D01*
X5805000Y-17045952D01*
X5785952Y-17055476D01*
X5766905Y-17055476D01*
X5747857Y-17045952D01*
X5738333Y-17036429D01*
X5728809Y-17017381D01*
X5719286Y-16979286D01*
X5719286Y-16931667D01*
X5728809Y-16893571D01*
X5738333Y-16874524D01*
X5747857Y-16865000D01*
X5766905Y-16855476D01*
X5957381Y-16855476D02*
X5976428Y-16855476D01*
X5995476Y-16865000D01*
X6005000Y-16874524D01*
X6014524Y-16893571D01*
X6024048Y-16931667D01*
X6024048Y-16979286D01*
X6014524Y-17017381D01*
X6005000Y-17036429D01*
X5995476Y-17045952D01*
X5976428Y-17055476D01*
X5957381Y-17055476D01*
X5938333Y-17045952D01*
X5928809Y-17036429D01*
X5919286Y-17017381D01*
X5909762Y-16979286D01*
X5909762Y-16931667D01*
X5919286Y-16893571D01*
X5928809Y-16874524D01*
X5938333Y-16865000D01*
X5957381Y-16855476D01*
X6109762Y-17055476D02*
X6109762Y-16922143D01*
X6109762Y-16941190D02*
X6119286Y-16931667D01*
X6138333Y-16922143D01*
X6166905Y-16922143D01*
X6185952Y-16931667D01*
X6195476Y-16950714D01*
X6195476Y-17055476D01*
X6195476Y-16950714D02*
X6205000Y-16931667D01*
X6224048Y-16922143D01*
X6252619Y-16922143D01*
X6271667Y-16931667D01*
X6281190Y-16950714D01*
X6281190Y-17055476D01*
X6376428Y-17055476D02*
X6376428Y-16922143D01*
X6376428Y-16941190D02*
X6385952Y-16931667D01*
X6405000Y-16922143D01*
X6433571Y-16922143D01*
X6452619Y-16931667D01*
X6462143Y-16950714D01*
X6462143Y-17055476D01*
X6462143Y-16950714D02*
X6471667Y-16931667D01*
X6490714Y-16922143D01*
X6519286Y-16922143D01*
X6538333Y-16931667D01*
X6547857Y-16950714D01*
X6547857Y-17055476D01*
X6938333Y-16845952D02*
X6766905Y-17103095D01*
X7195476Y-16855476D02*
X7214524Y-16855476D01*
X7233571Y-16865000D01*
X7243095Y-16874524D01*
X7252619Y-16893571D01*
X7262143Y-16931667D01*
X7262143Y-16979286D01*
X7252619Y-17017381D01*
X7243095Y-17036429D01*
X7233571Y-17045952D01*
X7214524Y-17055476D01*
X7195476Y-17055476D01*
X7176428Y-17045952D01*
X7166905Y-17036429D01*
X7157381Y-17017381D01*
X7147857Y-16979286D01*
X7147857Y-16931667D01*
X7157381Y-16893571D01*
X7166905Y-16874524D01*
X7176428Y-16865000D01*
X7195476Y-16855476D01*
X7347857Y-17036429D02*
X7357381Y-17045952D01*
X7347857Y-17055476D01*
X7338333Y-17045952D01*
X7347857Y-17036429D01*
X7347857Y-17055476D01*
X7481190Y-16855476D02*
X7500238Y-16855476D01*
X7519286Y-16865000D01*
X7528809Y-16874524D01*
X7538333Y-16893571D01*
X7547857Y-16931667D01*
X7547857Y-16979286D01*
X7538333Y-17017381D01*
X7528809Y-17036429D01*
X7519286Y-17045952D01*
X7500238Y-17055476D01*
X7481190Y-17055476D01*
X7462143Y-17045952D01*
X7452619Y-17036429D01*
X7443095Y-17017381D01*
X7433571Y-16979286D01*
X7433571Y-16931667D01*
X7443095Y-16893571D01*
X7452619Y-16874524D01*
X7462143Y-16865000D01*
X7481190Y-16855476D01*
X7719286Y-16922143D02*
X7719286Y-17055476D01*
X7671667Y-16845952D02*
X7624048Y-16988810D01*
X7747857Y-16988810D01*
X7805000Y-16855476D02*
X7928809Y-16855476D01*
X7862143Y-16931667D01*
X7890714Y-16931667D01*
X7909762Y-16941190D01*
X7919286Y-16950714D01*
X7928809Y-16969762D01*
X7928809Y-17017381D01*
X7919286Y-17036429D01*
X7909762Y-17045952D01*
X7890714Y-17055476D01*
X7833571Y-17055476D01*
X7814524Y-17045952D01*
X7805000Y-17036429D01*
X7995476Y-16855476D02*
X8119286Y-16855476D01*
X8052619Y-16931667D01*
X8081190Y-16931667D01*
X8100238Y-16941190D01*
X8109762Y-16950714D01*
X8119286Y-16969762D01*
X8119286Y-17017381D01*
X8109762Y-17036429D01*
X8100238Y-17045952D01*
X8081190Y-17055476D01*
X8024048Y-17055476D01*
X8005000Y-17045952D01*
X7995476Y-17036429D01*
X8195476Y-16855476D02*
X8195476Y-16893571D01*
X8271667Y-16855476D02*
X8271667Y-16893571D01*
X8566905Y-17131667D02*
X8557381Y-17122143D01*
X8538333Y-17093571D01*
X8528810Y-17074524D01*
X8519286Y-17045952D01*
X8509762Y-16998333D01*
X8509762Y-16960238D01*
X8519286Y-16912619D01*
X8528810Y-16884048D01*
X8538333Y-16865000D01*
X8557381Y-16836429D01*
X8566905Y-16826905D01*
X8728810Y-16922143D02*
X8728810Y-17055476D01*
X8681190Y-16845952D02*
X8633571Y-16988810D01*
X8757381Y-16988810D01*
X8985952Y-17055476D02*
X8985952Y-16855476D01*
X9071667Y-17055476D02*
X9071667Y-16950714D01*
X9062143Y-16931667D01*
X9043095Y-16922143D01*
X9014524Y-16922143D01*
X8995476Y-16931667D01*
X8985952Y-16941190D01*
X9195476Y-17055476D02*
X9176429Y-17045952D01*
X9166905Y-17036429D01*
X9157381Y-17017381D01*
X9157381Y-16960238D01*
X9166905Y-16941190D01*
X9176429Y-16931667D01*
X9195476Y-16922143D01*
X9224048Y-16922143D01*
X9243095Y-16931667D01*
X9252619Y-16941190D01*
X9262143Y-16960238D01*
X9262143Y-17017381D01*
X9252619Y-17036429D01*
X9243095Y-17045952D01*
X9224048Y-17055476D01*
X9195476Y-17055476D01*
X9376429Y-17055476D02*
X9357381Y-17045952D01*
X9347857Y-17026905D01*
X9347857Y-16855476D01*
X9528810Y-17045952D02*
X9509762Y-17055476D01*
X9471667Y-17055476D01*
X9452619Y-17045952D01*
X9443095Y-17026905D01*
X9443095Y-16950714D01*
X9452619Y-16931667D01*
X9471667Y-16922143D01*
X9509762Y-16922143D01*
X9528810Y-16931667D01*
X9538333Y-16950714D01*
X9538333Y-16969762D01*
X9443095Y-16988810D01*
X9614524Y-17045952D02*
X9633571Y-17055476D01*
X9671667Y-17055476D01*
X9690714Y-17045952D01*
X9700238Y-17026905D01*
X9700238Y-17017381D01*
X9690714Y-16998333D01*
X9671667Y-16988810D01*
X9643095Y-16988810D01*
X9624048Y-16979286D01*
X9614524Y-16960238D01*
X9614524Y-16950714D01*
X9624048Y-16931667D01*
X9643095Y-16922143D01*
X9671667Y-16922143D01*
X9690714Y-16931667D01*
X9938333Y-16979286D02*
X10090714Y-16979286D01*
X10014524Y-17055476D02*
X10014524Y-16903095D01*
X10424048Y-16855476D02*
X10385952Y-16855476D01*
X10366905Y-16865000D01*
X10357381Y-16874524D01*
X10338333Y-16903095D01*
X10328810Y-16941190D01*
X10328810Y-17017381D01*
X10338333Y-17036429D01*
X10347857Y-17045952D01*
X10366905Y-17055476D01*
X10405000Y-17055476D01*
X10424048Y-17045952D01*
X10433571Y-17036429D01*
X10443095Y-17017381D01*
X10443095Y-16969762D01*
X10433571Y-16950714D01*
X10424048Y-16941190D01*
X10405000Y-16931667D01*
X10366905Y-16931667D01*
X10347857Y-16941190D01*
X10338333Y-16950714D01*
X10328810Y-16969762D01*
X10671667Y-17045952D02*
X10690714Y-17055476D01*
X10728810Y-17055476D01*
X10747857Y-17045952D01*
X10757381Y-17026905D01*
X10757381Y-17017381D01*
X10747857Y-16998333D01*
X10728810Y-16988810D01*
X10700238Y-16988810D01*
X10681190Y-16979286D01*
X10671667Y-16960238D01*
X10671667Y-16950714D01*
X10681190Y-16931667D01*
X10700238Y-16922143D01*
X10728810Y-16922143D01*
X10747857Y-16931667D01*
X10871667Y-17055476D02*
X10852619Y-17045952D01*
X10843095Y-17026905D01*
X10843095Y-16855476D01*
X10976429Y-17055476D02*
X10957381Y-17045952D01*
X10947857Y-17036429D01*
X10938333Y-17017381D01*
X10938333Y-16960238D01*
X10947857Y-16941190D01*
X10957381Y-16931667D01*
X10976429Y-16922143D01*
X11005000Y-16922143D01*
X11024048Y-16931667D01*
X11033571Y-16941190D01*
X11043095Y-16960238D01*
X11043095Y-17017381D01*
X11033571Y-17036429D01*
X11024048Y-17045952D01*
X11005000Y-17055476D01*
X10976429Y-17055476D01*
X11100238Y-16922143D02*
X11176429Y-16922143D01*
X11128810Y-16855476D02*
X11128810Y-17026905D01*
X11138333Y-17045952D01*
X11157381Y-17055476D01*
X11176429Y-17055476D01*
X11233571Y-17045952D02*
X11252619Y-17055476D01*
X11290714Y-17055476D01*
X11309762Y-17045952D01*
X11319286Y-17026905D01*
X11319286Y-17017381D01*
X11309762Y-16998333D01*
X11290714Y-16988810D01*
X11262143Y-16988810D01*
X11243095Y-16979286D01*
X11233571Y-16960238D01*
X11233571Y-16950714D01*
X11243095Y-16931667D01*
X11262143Y-16922143D01*
X11290714Y-16922143D01*
X11309762Y-16931667D01*
X11385952Y-17131667D02*
X11395476Y-17122143D01*
X11414524Y-17093571D01*
X11424048Y-17074524D01*
X11433571Y-17045952D01*
X11443095Y-16998333D01*
X11443095Y-16960238D01*
X11433571Y-16912619D01*
X11424048Y-16884048D01*
X11414524Y-16865000D01*
X11395476Y-16836429D01*
X11385952Y-16826905D01*
M02*
