%TF.GenerationSoftware,KiCad,Pcbnew,(6.0.1)*%
%TF.CreationDate,2023-06-10T19:18:39+02:00*%
%TF.ProjectId,mixer,6d697865-722e-46b6-9963-61645f706362,rev?*%
%TF.SameCoordinates,Original*%
%TF.FileFunction,Soldermask,Top*%
%TF.FilePolarity,Negative*%
%FSLAX46Y46*%
G04 Gerber Fmt 4.6, Leading zero omitted, Abs format (unit mm)*
G04 Created by KiCad (PCBNEW (6.0.1)) date 2023-06-10 19:18:39*
%MOMM*%
%LPD*%
G01*
G04 APERTURE LIST*
G04 Aperture macros list*
%AMRoundRect*
0 Rectangle with rounded corners*
0 $1 Rounding radius*
0 $2 $3 $4 $5 $6 $7 $8 $9 X,Y pos of 4 corners*
0 Add a 4 corners polygon primitive as box body*
4,1,4,$2,$3,$4,$5,$6,$7,$8,$9,$2,$3,0*
0 Add four circle primitives for the rounded corners*
1,1,$1+$1,$2,$3*
1,1,$1+$1,$4,$5*
1,1,$1+$1,$6,$7*
1,1,$1+$1,$8,$9*
0 Add four rect primitives between the rounded corners*
20,1,$1+$1,$2,$3,$4,$5,0*
20,1,$1+$1,$4,$5,$6,$7,0*
20,1,$1+$1,$6,$7,$8,$9,0*
20,1,$1+$1,$8,$9,$2,$3,0*%
G04 Aperture macros list end*
%ADD10O,2.720000X3.240000*%
%ADD11R,1.800000X1.800000*%
%ADD12C,1.800000*%
%ADD13O,3.100000X2.100000*%
%ADD14RoundRect,0.650000X-0.650000X-0.650000X0.650000X-0.650000X0.650000X0.650000X-0.650000X0.650000X0*%
%ADD15C,1.400000*%
%ADD16O,1.400000X1.400000*%
%ADD17C,1.600000*%
%ADD18R,2.200000X2.200000*%
%ADD19O,2.200000X2.200000*%
%ADD20R,1.200000X1.200000*%
%ADD21C,1.200000*%
%ADD22R,1.600000X1.600000*%
%ADD23O,1.600000X1.600000*%
%ADD24RoundRect,0.250000X0.600000X-0.600000X0.600000X0.600000X-0.600000X0.600000X-0.600000X-0.600000X0*%
%ADD25C,1.700000*%
G04 APERTURE END LIST*
D10*
%TO.C,RV1*%
X76800000Y-104005000D03*
X67200000Y-104005000D03*
D11*
X69500000Y-111505000D03*
D12*
X72000000Y-111505000D03*
X74500000Y-111505000D03*
%TD*%
D13*
%TO.C,J1*%
X58000000Y-110480000D03*
D14*
X58000000Y-99080000D03*
X58000000Y-107380000D03*
%TD*%
D13*
%TO.C,J2*%
X58000000Y-71480000D03*
D14*
X58000000Y-60080000D03*
X58000000Y-68380000D03*
%TD*%
D10*
%TO.C,RV3*%
X76800000Y-84500000D03*
X67200000Y-84500000D03*
D11*
X69500000Y-92000000D03*
D12*
X72000000Y-92000000D03*
X74500000Y-92000000D03*
%TD*%
D13*
%TO.C,J3*%
X58000000Y-90980000D03*
D14*
X58000000Y-79580000D03*
X58000000Y-87880000D03*
%TD*%
D13*
%TO.C,J4*%
X72000000Y-147480000D03*
D14*
X72000000Y-136080000D03*
X72000000Y-144380000D03*
%TD*%
D13*
%TO.C,J5*%
X58000000Y-147480000D03*
D14*
X58000000Y-136080000D03*
X58000000Y-144380000D03*
%TD*%
D10*
%TO.C,RV2*%
X67200000Y-65005000D03*
X76800000Y-65005000D03*
D11*
X69500000Y-72505000D03*
D12*
X72000000Y-72505000D03*
X74500000Y-72505000D03*
%TD*%
D15*
%TO.C,R2*%
X68190000Y-132000000D03*
D16*
X75810000Y-132000000D03*
%TD*%
D15*
%TO.C,R4*%
X74000000Y-123590000D03*
D16*
X74000000Y-115970000D03*
%TD*%
D17*
%TO.C,C3*%
X59750000Y-115000000D03*
X54750000Y-115000000D03*
%TD*%
D15*
%TO.C,R5*%
X60000000Y-127310000D03*
D16*
X60000000Y-119690000D03*
%TD*%
D18*
%TO.C,D2*%
X78080000Y-53500000D03*
D19*
X67920000Y-53500000D03*
%TD*%
D15*
%TO.C,R8*%
X53520000Y-131100000D03*
D16*
X61140000Y-131100000D03*
%TD*%
D20*
%TO.C,C5*%
X62027401Y-53500000D03*
D21*
X64027401Y-53500000D03*
%TD*%
D20*
%TO.C,C4*%
X57900000Y-54072600D03*
D21*
X57900000Y-52072600D03*
%TD*%
D15*
%TO.C,R3*%
X70160000Y-76500000D03*
D16*
X77780000Y-76500000D03*
%TD*%
D15*
%TO.C,R6*%
X57000000Y-125810000D03*
D16*
X57000000Y-118190000D03*
%TD*%
D17*
%TO.C,C6*%
X70750000Y-127500000D03*
X75750000Y-127500000D03*
%TD*%
D22*
%TO.C,U1*%
X70800000Y-116200000D03*
D23*
X70800000Y-118740000D03*
X70800000Y-121280000D03*
X70800000Y-123820000D03*
X63180000Y-123820000D03*
X63180000Y-121280000D03*
X63180000Y-118740000D03*
X63180000Y-116200000D03*
%TD*%
D17*
%TO.C,C2*%
X53500000Y-125000000D03*
X53500000Y-120000000D03*
%TD*%
D24*
%TO.C,J6*%
X74000000Y-46500000D03*
D25*
X74000000Y-43960000D03*
X71460000Y-46500000D03*
X71460000Y-43960000D03*
X68920000Y-46500000D03*
X68920000Y-43960000D03*
X66380000Y-46500000D03*
X66380000Y-43960000D03*
X63840000Y-46500000D03*
X63840000Y-43960000D03*
%TD*%
D17*
%TO.C,C1*%
X77500000Y-123750000D03*
X77500000Y-118750000D03*
%TD*%
D18*
%TO.C,D1*%
X53400000Y-54100000D03*
D19*
X53400000Y-43940000D03*
%TD*%
D15*
%TO.C,R1*%
X70190000Y-97300000D03*
D16*
X77810000Y-97300000D03*
%TD*%
D15*
%TO.C,R7*%
X65000000Y-132000000D03*
D16*
X65000000Y-139620000D03*
%TD*%
M02*
