M48
; DRILL file {KiCad (6.0.1)} date Sat Jun 10 19:18:54 2023
; FORMAT={-:-/ absolute / metric / decimal}
; #@! TF.CreationDate,2023-06-10T19:18:54+02:00
; #@! TF.GenerationSoftware,Kicad,Pcbnew,(6.0.1)
; #@! TF.FileFunction,MixedPlating,1,2
FMAT,2
METRIC
; #@! TA.AperFunction,Plated,PTH,ViaDrill
T1C0.400
; #@! TA.AperFunction,Plated,PTH,ComponentDrill
T2C0.600
; #@! TA.AperFunction,Plated,PTH,ComponentDrill
T3C0.700
; #@! TA.AperFunction,Plated,PTH,ComponentDrill
T4C0.800
; #@! TA.AperFunction,Plated,PTH,ComponentDrill
T5C1.000
; #@! TA.AperFunction,Plated,PTH,ComponentDrill
T6C1.100
%
G90
G05
T1
X65.25Y-121.5
X68.75Y-119.75
X73.0Y-106.2
X76.5Y-113.5
T2
X57.9Y-52.073
X57.9Y-54.073
X62.027Y-53.5
X64.027Y-53.5
T3
X53.52Y-131.1
X57.0Y-118.19
X57.0Y-125.81
X60.0Y-119.69
X60.0Y-127.31
X61.14Y-131.1
X65.0Y-132.0
X65.0Y-139.62
X68.19Y-132.0
X70.16Y-76.5
X70.19Y-97.3
X74.0Y-115.97
X74.0Y-123.59
X75.81Y-132.0
X77.78Y-76.5
X77.81Y-97.3
T4
X53.5Y-120.0
X53.5Y-125.0
X54.75Y-115.0
X59.75Y-115.0
X63.18Y-116.2
X63.18Y-118.74
X63.18Y-121.28
X63.18Y-123.82
X70.75Y-127.5
X70.8Y-116.2
X70.8Y-118.74
X70.8Y-121.28
X70.8Y-123.82
X75.75Y-127.5
X77.5Y-118.75
X77.5Y-123.75
T5
X63.84Y-43.96
X63.84Y-46.5
X66.38Y-43.96
X66.38Y-46.5
X68.92Y-43.96
X68.92Y-46.5
X69.5Y-72.505
X69.5Y-92.0
X69.5Y-111.505
X71.46Y-43.96
X71.46Y-46.5
X72.0Y-72.505
X72.0Y-92.0
X72.0Y-111.505
X74.0Y-43.96
X74.0Y-46.5
X74.5Y-72.505
X74.5Y-92.0
X74.5Y-111.505
T6
X53.4Y-43.94
X53.4Y-54.1
X67.92Y-53.5
X78.08Y-53.5
T2
X57.5Y-60.08G85X58.5Y-60.08
G05
X57.5Y-68.38G85X58.5Y-68.38
G05
X57.5Y-71.48G85X58.5Y-71.48
G05
X57.5Y-79.58G85X58.5Y-79.58
G05
X57.5Y-87.88G85X58.5Y-87.88
G05
X57.5Y-90.98G85X58.5Y-90.98
G05
X57.5Y-99.08G85X58.5Y-99.08
G05
X57.5Y-107.38G85X58.5Y-107.38
G05
X57.5Y-110.48G85X58.5Y-110.48
G05
X57.5Y-136.08G85X58.5Y-136.08
G05
X57.5Y-144.38G85X58.5Y-144.38
G05
X57.5Y-147.48G85X58.5Y-147.48
G05
X71.5Y-136.08G85X72.5Y-136.08
G05
X71.5Y-144.38G85X72.5Y-144.38
G05
X71.5Y-147.48G85X72.5Y-147.48
G05
T6
X67.2Y-65.355G85X67.2Y-64.655
G05
X67.2Y-84.85G85X67.2Y-84.15
G05
X67.2Y-104.355G85X67.2Y-103.655
G05
X76.8Y-65.355G85X76.8Y-64.655
G05
X76.8Y-84.85G85X76.8Y-84.15
G05
X76.8Y-104.355G85X76.8Y-103.655
G05
T0
M30
