%TF.GenerationSoftware,KiCad,Pcbnew,(6.0.1)*%
%TF.CreationDate,2023-06-10T19:18:39+02:00*%
%TF.ProjectId,mixer,6d697865-722e-46b6-9963-61645f706362,rev?*%
%TF.SameCoordinates,Original*%
%TF.FileFunction,Legend,Bot*%
%TF.FilePolarity,Positive*%
%FSLAX46Y46*%
G04 Gerber Fmt 4.6, Leading zero omitted, Abs format (unit mm)*
G04 Created by KiCad (PCBNEW (6.0.1)) date 2023-06-10 19:18:39*
%MOMM*%
%LPD*%
G01*
G04 APERTURE LIST*
%ADD10C,0.011565*%
%ADD11C,0.399019*%
%ADD12C,0.121440*%
%ADD13C,0.112766*%
%ADD14C,0.150000*%
%ADD15C,0.120000*%
G04 APERTURE END LIST*
D10*
X76689920Y-60399394D02*
X76689889Y-60396403D01*
X76689889Y-60396403D02*
X76689791Y-60393414D01*
X76689791Y-60393414D02*
X76689627Y-60390426D01*
X76689627Y-60390426D02*
X76689392Y-60387438D01*
X76689392Y-60387438D02*
X76689087Y-60384452D01*
X76689087Y-60384452D02*
X76688707Y-60381466D01*
X76688707Y-60381466D02*
X76688252Y-60378481D01*
X76688252Y-60378481D02*
X76687719Y-60375497D01*
X76687719Y-60375497D02*
X76687106Y-60372513D01*
X76687106Y-60372513D02*
X76686410Y-60369530D01*
X76686410Y-60369530D02*
X76685631Y-60366547D01*
X76685631Y-60366547D02*
X76684765Y-60363564D01*
X76684765Y-60363564D02*
X76683811Y-60360581D01*
X76683811Y-60360581D02*
X76682767Y-60357598D01*
X76682767Y-60357598D02*
X76681630Y-60354615D01*
X76681630Y-60354615D02*
X76680398Y-60351632D01*
X76680398Y-60351632D02*
X76677770Y-60346235D01*
X76677770Y-60346235D02*
X76674985Y-60340975D01*
X76674985Y-60340975D02*
X76673523Y-60338401D01*
X76673523Y-60338401D02*
X76672009Y-60335867D01*
X76672009Y-60335867D02*
X76670439Y-60333376D01*
X76670439Y-60333376D02*
X76668810Y-60330929D01*
X76668810Y-60330929D02*
X76667116Y-60328528D01*
X76667116Y-60328528D02*
X76665355Y-60326176D01*
X76665355Y-60326176D02*
X76663522Y-60323874D01*
X76663522Y-60323874D02*
X76661612Y-60321624D01*
X76661612Y-60321624D02*
X76659623Y-60319429D01*
X76659623Y-60319429D02*
X76657549Y-60317291D01*
X76657549Y-60317291D02*
X76655386Y-60315210D01*
X76655386Y-60315210D02*
X76653132Y-60313191D01*
X76653132Y-60313191D02*
X76651057Y-60310998D01*
X76651057Y-60310998D02*
X76648920Y-60308896D01*
X76648920Y-60308896D02*
X76646722Y-60306879D01*
X76646722Y-60306879D02*
X76644466Y-60304945D01*
X76644466Y-60304945D02*
X76642154Y-60303089D01*
X76642154Y-60303089D02*
X76639787Y-60301307D01*
X76639787Y-60301307D02*
X76637368Y-60299595D01*
X76637368Y-60299595D02*
X76634900Y-60297950D01*
X76634900Y-60297950D02*
X76632383Y-60296366D01*
X76632383Y-60296366D02*
X76629821Y-60294841D01*
X76629821Y-60294841D02*
X76627214Y-60293370D01*
X76627214Y-60293370D02*
X76624566Y-60291949D01*
X76624566Y-60291949D02*
X76621879Y-60290574D01*
X76621879Y-60290574D02*
X76619153Y-60289241D01*
X76619153Y-60289241D02*
X76613598Y-60286687D01*
X76613598Y-60286687D02*
X76607903Y-60284766D01*
X76607903Y-60284766D02*
X76602082Y-60283002D01*
X76602082Y-60283002D02*
X76596136Y-60281425D01*
X76596136Y-60281425D02*
X76593115Y-60280717D01*
X76593115Y-60280717D02*
X76590063Y-60280067D01*
X76590063Y-60280067D02*
X76586979Y-60279479D01*
X76586979Y-60279479D02*
X76583863Y-60278957D01*
X76583863Y-60278957D02*
X76580716Y-60278505D01*
X76580716Y-60278505D02*
X76577536Y-60278127D01*
X76577536Y-60278127D02*
X76574324Y-60277826D01*
X76574324Y-60277826D02*
X76571080Y-60277606D01*
X76571080Y-60277606D02*
X76567804Y-60277472D01*
X76567804Y-60277472D02*
X76564495Y-60277426D01*
X76564495Y-60277426D02*
X76561195Y-60277472D01*
X76561195Y-60277472D02*
X76557924Y-60277606D01*
X76557924Y-60277606D02*
X76554684Y-60277826D01*
X76554684Y-60277826D02*
X76551475Y-60278127D01*
X76551475Y-60278127D02*
X76548297Y-60278505D01*
X76548297Y-60278505D02*
X76545150Y-60278957D01*
X76545150Y-60278957D02*
X76542034Y-60279479D01*
X76542034Y-60279479D02*
X76538950Y-60280067D01*
X76538950Y-60280067D02*
X76532876Y-60281425D01*
X76532876Y-60281425D02*
X76526931Y-60283002D01*
X76526931Y-60283002D02*
X76521114Y-60284766D01*
X76521114Y-60284766D02*
X76515428Y-60286687D01*
X76515428Y-60286687D02*
X76509874Y-60289241D01*
X76509874Y-60289241D02*
X76504445Y-60291949D01*
X76504445Y-60291949D02*
X76501778Y-60293370D01*
X76501778Y-60293370D02*
X76499141Y-60294841D01*
X76499141Y-60294841D02*
X76496537Y-60296366D01*
X76496537Y-60296366D02*
X76493964Y-60297950D01*
X76493964Y-60297950D02*
X76491422Y-60299595D01*
X76491422Y-60299595D02*
X76488912Y-60301307D01*
X76488912Y-60301307D02*
X76486434Y-60303089D01*
X76486434Y-60303089D02*
X76483988Y-60304945D01*
X76483988Y-60304945D02*
X76481574Y-60306879D01*
X76481574Y-60306879D02*
X76479191Y-60308896D01*
X76479191Y-60308896D02*
X76476841Y-60310998D01*
X76476841Y-60310998D02*
X76474523Y-60313191D01*
X76474523Y-60313191D02*
X76472509Y-60315210D01*
X76472509Y-60315210D02*
X76470559Y-60317290D01*
X76470559Y-60317290D02*
X76468669Y-60319428D01*
X76468669Y-60319428D02*
X76466837Y-60321623D01*
X76466837Y-60321623D02*
X76465061Y-60323872D01*
X76465061Y-60323872D02*
X76463340Y-60326174D01*
X76463340Y-60326174D02*
X76461670Y-60328526D01*
X76461670Y-60328526D02*
X76460051Y-60330927D01*
X76460051Y-60330927D02*
X76458479Y-60333374D01*
X76458479Y-60333374D02*
X76456953Y-60335866D01*
X76456953Y-60335866D02*
X76455471Y-60338399D01*
X76455471Y-60338399D02*
X76454030Y-60340973D01*
X76454030Y-60340973D02*
X76452628Y-60343586D01*
X76452628Y-60343586D02*
X76451264Y-60346234D01*
X76451264Y-60346234D02*
X76448640Y-60351632D01*
X76448640Y-60351632D02*
X76447408Y-60354615D01*
X76447408Y-60354615D02*
X76446269Y-60357598D01*
X76446269Y-60357598D02*
X76445222Y-60360581D01*
X76445222Y-60360581D02*
X76444265Y-60363564D01*
X76444265Y-60363564D02*
X76443396Y-60366547D01*
X76443396Y-60366547D02*
X76442613Y-60369530D01*
X76442613Y-60369530D02*
X76441913Y-60372513D01*
X76441913Y-60372513D02*
X76441296Y-60375497D01*
X76441296Y-60375497D02*
X76440758Y-60378481D01*
X76440758Y-60378481D02*
X76440299Y-60381466D01*
X76440299Y-60381466D02*
X76439915Y-60384452D01*
X76439915Y-60384452D02*
X76439606Y-60387438D01*
X76439606Y-60387438D02*
X76439369Y-60390426D01*
X76439369Y-60390426D02*
X76439202Y-60393414D01*
X76439202Y-60393414D02*
X76439103Y-60396403D01*
X76439103Y-60396403D02*
X76439070Y-60399394D01*
X76439070Y-60399394D02*
X76439103Y-60402604D01*
X76439103Y-60402604D02*
X76439202Y-60405784D01*
X76439202Y-60405784D02*
X76439369Y-60408934D01*
X76439369Y-60408934D02*
X76439606Y-60412055D01*
X76439606Y-60412055D02*
X76439915Y-60415145D01*
X76439915Y-60415145D02*
X76440299Y-60418205D01*
X76440299Y-60418205D02*
X76440758Y-60421235D01*
X76440758Y-60421235D02*
X76441296Y-60424234D01*
X76441296Y-60424234D02*
X76441913Y-60427203D01*
X76441913Y-60427203D02*
X76442613Y-60430141D01*
X76442613Y-60430141D02*
X76443396Y-60433047D01*
X76443396Y-60433047D02*
X76444265Y-60435923D01*
X76444265Y-60435923D02*
X76445222Y-60438767D01*
X76445222Y-60438767D02*
X76446269Y-60441579D01*
X76446269Y-60441579D02*
X76447408Y-60444360D01*
X76447408Y-60444360D02*
X76448640Y-60447109D01*
X76448640Y-60447109D02*
X76449936Y-60450044D01*
X76449936Y-60450044D02*
X76451264Y-60452892D01*
X76451264Y-60452892D02*
X76452628Y-60455659D01*
X76452628Y-60455659D02*
X76454030Y-60458351D01*
X76454030Y-60458351D02*
X76455471Y-60460973D01*
X76455471Y-60460973D02*
X76456953Y-60463532D01*
X76456953Y-60463532D02*
X76458479Y-60466032D01*
X76458479Y-60466032D02*
X76460051Y-60468481D01*
X76460051Y-60468481D02*
X76461670Y-60470883D01*
X76461670Y-60470883D02*
X76463340Y-60473244D01*
X76463340Y-60473244D02*
X76465061Y-60475571D01*
X76465061Y-60475571D02*
X76466837Y-60477869D01*
X76466837Y-60477869D02*
X76468669Y-60480143D01*
X76468669Y-60480143D02*
X76470559Y-60482400D01*
X76470559Y-60482400D02*
X76474523Y-60486885D01*
X76474523Y-60486885D02*
X76479191Y-60490792D01*
X76479191Y-60490792D02*
X76481574Y-60492688D01*
X76481574Y-60492688D02*
X76483988Y-60494543D01*
X76483988Y-60494543D02*
X76486434Y-60496350D01*
X76486434Y-60496350D02*
X76488912Y-60498107D01*
X76488912Y-60498107D02*
X76491422Y-60499810D01*
X76491422Y-60499810D02*
X76493964Y-60501455D01*
X76493964Y-60501455D02*
X76496537Y-60503038D01*
X76496537Y-60503038D02*
X76499141Y-60504555D01*
X76499141Y-60504555D02*
X76501778Y-60506002D01*
X76501778Y-60506002D02*
X76504445Y-60507375D01*
X76504445Y-60507375D02*
X76507144Y-60508671D01*
X76507144Y-60508671D02*
X76509874Y-60509885D01*
X76509874Y-60509885D02*
X76512635Y-60511015D01*
X76512635Y-60511015D02*
X76515428Y-60512055D01*
X76515428Y-60512055D02*
X76518254Y-60513253D01*
X76518254Y-60513253D02*
X76521114Y-60514359D01*
X76521114Y-60514359D02*
X76524006Y-60515375D01*
X76524006Y-60515375D02*
X76526931Y-60516303D01*
X76526931Y-60516303D02*
X76529887Y-60517144D01*
X76529887Y-60517144D02*
X76532876Y-60517902D01*
X76532876Y-60517902D02*
X76535897Y-60518578D01*
X76535897Y-60518578D02*
X76538950Y-60519175D01*
X76538950Y-60519175D02*
X76542034Y-60519693D01*
X76542034Y-60519693D02*
X76545150Y-60520136D01*
X76545150Y-60520136D02*
X76548297Y-60520505D01*
X76548297Y-60520505D02*
X76551475Y-60520802D01*
X76551475Y-60520802D02*
X76554684Y-60521029D01*
X76554684Y-60521029D02*
X76557924Y-60521190D01*
X76557924Y-60521190D02*
X76561195Y-60521284D01*
X76561195Y-60521284D02*
X76564495Y-60521315D01*
X76564495Y-60521315D02*
X76571080Y-60521190D01*
X76571080Y-60521190D02*
X76574324Y-60521029D01*
X76574324Y-60521029D02*
X76577536Y-60520802D01*
X76577536Y-60520802D02*
X76580716Y-60520505D01*
X76580716Y-60520505D02*
X76583863Y-60520136D01*
X76583863Y-60520136D02*
X76586979Y-60519693D01*
X76586979Y-60519693D02*
X76590063Y-60519175D01*
X76590063Y-60519175D02*
X76593115Y-60518578D01*
X76593115Y-60518578D02*
X76596136Y-60517902D01*
X76596136Y-60517902D02*
X76599124Y-60517144D01*
X76599124Y-60517144D02*
X76602082Y-60516303D01*
X76602082Y-60516303D02*
X76605008Y-60515375D01*
X76605008Y-60515375D02*
X76607903Y-60514359D01*
X76607903Y-60514359D02*
X76610766Y-60513253D01*
X76610766Y-60513253D02*
X76613598Y-60512055D01*
X76613598Y-60512055D02*
X76616393Y-60511015D01*
X76616393Y-60511015D02*
X76619153Y-60509885D01*
X76619153Y-60509885D02*
X76621879Y-60508671D01*
X76621879Y-60508671D02*
X76624566Y-60507375D01*
X76624566Y-60507375D02*
X76627214Y-60506002D01*
X76627214Y-60506002D02*
X76629821Y-60504555D01*
X76629821Y-60504555D02*
X76632383Y-60503038D01*
X76632383Y-60503038D02*
X76634900Y-60501455D01*
X76634900Y-60501455D02*
X76637369Y-60499810D01*
X76637369Y-60499810D02*
X76639787Y-60498107D01*
X76639787Y-60498107D02*
X76642154Y-60496350D01*
X76642154Y-60496350D02*
X76644466Y-60494543D01*
X76644466Y-60494543D02*
X76646722Y-60492688D01*
X76646722Y-60492688D02*
X76648920Y-60490792D01*
X76648920Y-60490792D02*
X76651057Y-60488856D01*
X76651057Y-60488856D02*
X76653132Y-60486885D01*
X76653132Y-60486885D02*
X76655386Y-60484646D01*
X76655386Y-60484646D02*
X76657549Y-60482400D01*
X76657549Y-60482400D02*
X76659623Y-60480143D01*
X76659623Y-60480143D02*
X76661612Y-60477869D01*
X76661612Y-60477869D02*
X76663522Y-60475572D01*
X76663522Y-60475572D02*
X76665355Y-60473245D01*
X76665355Y-60473245D02*
X76667116Y-60470884D01*
X76667116Y-60470884D02*
X76668810Y-60468482D01*
X76668810Y-60468482D02*
X76670439Y-60466033D01*
X76670439Y-60466033D02*
X76672009Y-60463533D01*
X76672009Y-60463533D02*
X76673523Y-60460974D01*
X76673523Y-60460974D02*
X76674985Y-60458352D01*
X76674985Y-60458352D02*
X76676399Y-60455660D01*
X76676399Y-60455660D02*
X76677770Y-60452893D01*
X76677770Y-60452893D02*
X76679102Y-60450044D01*
X76679102Y-60450044D02*
X76680398Y-60447109D01*
X76680398Y-60447109D02*
X76681630Y-60444360D01*
X76681630Y-60444360D02*
X76682767Y-60441579D01*
X76682767Y-60441579D02*
X76683811Y-60438767D01*
X76683811Y-60438767D02*
X76684765Y-60435923D01*
X76684765Y-60435923D02*
X76685631Y-60433047D01*
X76685631Y-60433047D02*
X76686410Y-60430141D01*
X76686410Y-60430141D02*
X76687106Y-60427203D01*
X76687106Y-60427203D02*
X76687719Y-60424234D01*
X76687719Y-60424234D02*
X76688252Y-60421235D01*
X76688252Y-60421235D02*
X76688707Y-60418205D01*
X76688707Y-60418205D02*
X76689087Y-60415145D01*
X76689087Y-60415145D02*
X76689392Y-60412055D01*
X76689392Y-60412055D02*
X76689627Y-60408934D01*
X76689627Y-60408934D02*
X76689791Y-60405784D01*
X76689791Y-60405784D02*
X76689889Y-60402604D01*
X76689889Y-60402604D02*
X76689920Y-60399394D01*
X76689920Y-60399394D02*
X76689920Y-60399394D01*
G36*
X76567804Y-60277472D02*
G01*
X76571080Y-60277606D01*
X76574324Y-60277826D01*
X76577536Y-60278127D01*
X76580716Y-60278505D01*
X76583863Y-60278957D01*
X76586979Y-60279479D01*
X76590063Y-60280067D01*
X76593115Y-60280717D01*
X76596136Y-60281425D01*
X76602082Y-60283002D01*
X76607903Y-60284766D01*
X76613598Y-60286687D01*
X76619153Y-60289241D01*
X76621879Y-60290574D01*
X76624566Y-60291949D01*
X76627214Y-60293370D01*
X76629821Y-60294841D01*
X76632383Y-60296366D01*
X76634900Y-60297950D01*
X76637368Y-60299595D01*
X76639787Y-60301307D01*
X76642154Y-60303089D01*
X76644466Y-60304945D01*
X76646722Y-60306879D01*
X76648920Y-60308896D01*
X76651057Y-60310998D01*
X76653132Y-60313191D01*
X76655386Y-60315210D01*
X76657549Y-60317291D01*
X76659623Y-60319429D01*
X76661612Y-60321624D01*
X76663522Y-60323874D01*
X76665355Y-60326176D01*
X76667116Y-60328528D01*
X76668810Y-60330929D01*
X76670439Y-60333376D01*
X76672009Y-60335867D01*
X76673523Y-60338401D01*
X76674985Y-60340975D01*
X76677770Y-60346235D01*
X76680398Y-60351632D01*
X76681630Y-60354615D01*
X76682767Y-60357598D01*
X76683811Y-60360581D01*
X76684765Y-60363564D01*
X76685631Y-60366547D01*
X76686410Y-60369530D01*
X76687106Y-60372513D01*
X76687719Y-60375497D01*
X76688252Y-60378481D01*
X76688707Y-60381466D01*
X76689087Y-60384452D01*
X76689392Y-60387438D01*
X76689627Y-60390426D01*
X76689791Y-60393414D01*
X76689889Y-60396403D01*
X76689920Y-60399394D01*
X76689889Y-60402604D01*
X76689791Y-60405784D01*
X76689627Y-60408934D01*
X76689392Y-60412055D01*
X76689087Y-60415145D01*
X76688707Y-60418205D01*
X76688252Y-60421235D01*
X76687719Y-60424234D01*
X76687106Y-60427203D01*
X76686410Y-60430141D01*
X76685631Y-60433047D01*
X76684765Y-60435923D01*
X76683811Y-60438767D01*
X76682767Y-60441579D01*
X76681630Y-60444360D01*
X76680398Y-60447109D01*
X76679102Y-60450044D01*
X76677770Y-60452893D01*
X76676399Y-60455660D01*
X76674985Y-60458352D01*
X76673523Y-60460974D01*
X76672009Y-60463533D01*
X76670439Y-60466033D01*
X76668810Y-60468482D01*
X76667116Y-60470884D01*
X76665355Y-60473245D01*
X76663522Y-60475572D01*
X76661612Y-60477869D01*
X76659623Y-60480143D01*
X76657549Y-60482400D01*
X76655386Y-60484646D01*
X76653132Y-60486885D01*
X76651057Y-60488856D01*
X76648920Y-60490792D01*
X76646722Y-60492688D01*
X76644466Y-60494543D01*
X76642154Y-60496350D01*
X76639787Y-60498107D01*
X76637369Y-60499810D01*
X76634900Y-60501455D01*
X76632383Y-60503038D01*
X76629821Y-60504555D01*
X76627214Y-60506002D01*
X76624566Y-60507375D01*
X76621879Y-60508671D01*
X76619153Y-60509885D01*
X76616393Y-60511015D01*
X76613598Y-60512055D01*
X76610766Y-60513253D01*
X76607903Y-60514359D01*
X76605008Y-60515375D01*
X76602082Y-60516303D01*
X76599124Y-60517144D01*
X76596136Y-60517902D01*
X76593115Y-60518578D01*
X76590063Y-60519175D01*
X76586979Y-60519693D01*
X76583863Y-60520136D01*
X76580716Y-60520505D01*
X76577536Y-60520802D01*
X76574324Y-60521029D01*
X76571080Y-60521190D01*
X76564495Y-60521315D01*
X76561195Y-60521284D01*
X76557924Y-60521190D01*
X76554684Y-60521029D01*
X76551475Y-60520802D01*
X76548297Y-60520505D01*
X76545150Y-60520136D01*
X76542034Y-60519693D01*
X76538950Y-60519175D01*
X76535897Y-60518578D01*
X76532876Y-60517902D01*
X76529887Y-60517144D01*
X76526931Y-60516303D01*
X76524006Y-60515375D01*
X76521114Y-60514359D01*
X76518254Y-60513253D01*
X76515428Y-60512055D01*
X76512635Y-60511015D01*
X76509874Y-60509885D01*
X76507144Y-60508671D01*
X76504445Y-60507375D01*
X76501778Y-60506002D01*
X76499141Y-60504555D01*
X76496537Y-60503038D01*
X76493964Y-60501455D01*
X76491422Y-60499810D01*
X76488912Y-60498107D01*
X76486434Y-60496350D01*
X76483988Y-60494543D01*
X76481574Y-60492688D01*
X76479191Y-60490792D01*
X76474523Y-60486885D01*
X76470559Y-60482400D01*
X76468669Y-60480143D01*
X76466837Y-60477869D01*
X76465061Y-60475571D01*
X76463340Y-60473244D01*
X76461670Y-60470883D01*
X76460051Y-60468481D01*
X76458479Y-60466032D01*
X76456953Y-60463532D01*
X76455471Y-60460973D01*
X76454030Y-60458351D01*
X76452628Y-60455659D01*
X76451264Y-60452892D01*
X76449936Y-60450044D01*
X76448640Y-60447109D01*
X76447408Y-60444360D01*
X76446269Y-60441579D01*
X76445222Y-60438767D01*
X76444265Y-60435923D01*
X76443396Y-60433047D01*
X76442613Y-60430141D01*
X76441913Y-60427203D01*
X76441296Y-60424234D01*
X76440758Y-60421235D01*
X76440299Y-60418205D01*
X76439915Y-60415145D01*
X76439606Y-60412055D01*
X76439369Y-60408934D01*
X76439202Y-60405784D01*
X76439103Y-60402604D01*
X76439070Y-60399394D01*
X76439103Y-60396403D01*
X76439202Y-60393414D01*
X76439369Y-60390426D01*
X76439606Y-60387438D01*
X76439915Y-60384452D01*
X76440299Y-60381466D01*
X76440758Y-60378481D01*
X76441296Y-60375497D01*
X76441913Y-60372513D01*
X76442613Y-60369530D01*
X76443396Y-60366547D01*
X76444265Y-60363564D01*
X76445222Y-60360581D01*
X76446269Y-60357598D01*
X76447408Y-60354615D01*
X76448640Y-60351632D01*
X76451264Y-60346234D01*
X76452628Y-60343586D01*
X76454030Y-60340973D01*
X76455471Y-60338399D01*
X76456953Y-60335866D01*
X76458479Y-60333374D01*
X76460051Y-60330927D01*
X76461670Y-60328526D01*
X76463340Y-60326174D01*
X76465061Y-60323872D01*
X76466837Y-60321623D01*
X76468669Y-60319428D01*
X76470559Y-60317290D01*
X76472509Y-60315210D01*
X76474523Y-60313191D01*
X76476841Y-60310998D01*
X76479191Y-60308896D01*
X76481574Y-60306879D01*
X76483988Y-60304945D01*
X76486434Y-60303089D01*
X76488912Y-60301307D01*
X76491422Y-60299595D01*
X76493964Y-60297950D01*
X76496537Y-60296366D01*
X76499141Y-60294841D01*
X76501778Y-60293370D01*
X76504445Y-60291949D01*
X76509874Y-60289241D01*
X76515428Y-60286687D01*
X76521114Y-60284766D01*
X76526931Y-60283002D01*
X76532876Y-60281425D01*
X76538950Y-60280067D01*
X76542034Y-60279479D01*
X76545150Y-60278957D01*
X76548297Y-60278505D01*
X76551475Y-60278127D01*
X76554684Y-60277826D01*
X76557924Y-60277606D01*
X76561195Y-60277472D01*
X76564495Y-60277426D01*
X76567804Y-60277472D01*
G37*
X76567804Y-60277472D02*
X76571080Y-60277606D01*
X76574324Y-60277826D01*
X76577536Y-60278127D01*
X76580716Y-60278505D01*
X76583863Y-60278957D01*
X76586979Y-60279479D01*
X76590063Y-60280067D01*
X76593115Y-60280717D01*
X76596136Y-60281425D01*
X76602082Y-60283002D01*
X76607903Y-60284766D01*
X76613598Y-60286687D01*
X76619153Y-60289241D01*
X76621879Y-60290574D01*
X76624566Y-60291949D01*
X76627214Y-60293370D01*
X76629821Y-60294841D01*
X76632383Y-60296366D01*
X76634900Y-60297950D01*
X76637368Y-60299595D01*
X76639787Y-60301307D01*
X76642154Y-60303089D01*
X76644466Y-60304945D01*
X76646722Y-60306879D01*
X76648920Y-60308896D01*
X76651057Y-60310998D01*
X76653132Y-60313191D01*
X76655386Y-60315210D01*
X76657549Y-60317291D01*
X76659623Y-60319429D01*
X76661612Y-60321624D01*
X76663522Y-60323874D01*
X76665355Y-60326176D01*
X76667116Y-60328528D01*
X76668810Y-60330929D01*
X76670439Y-60333376D01*
X76672009Y-60335867D01*
X76673523Y-60338401D01*
X76674985Y-60340975D01*
X76677770Y-60346235D01*
X76680398Y-60351632D01*
X76681630Y-60354615D01*
X76682767Y-60357598D01*
X76683811Y-60360581D01*
X76684765Y-60363564D01*
X76685631Y-60366547D01*
X76686410Y-60369530D01*
X76687106Y-60372513D01*
X76687719Y-60375497D01*
X76688252Y-60378481D01*
X76688707Y-60381466D01*
X76689087Y-60384452D01*
X76689392Y-60387438D01*
X76689627Y-60390426D01*
X76689791Y-60393414D01*
X76689889Y-60396403D01*
X76689920Y-60399394D01*
X76689889Y-60402604D01*
X76689791Y-60405784D01*
X76689627Y-60408934D01*
X76689392Y-60412055D01*
X76689087Y-60415145D01*
X76688707Y-60418205D01*
X76688252Y-60421235D01*
X76687719Y-60424234D01*
X76687106Y-60427203D01*
X76686410Y-60430141D01*
X76685631Y-60433047D01*
X76684765Y-60435923D01*
X76683811Y-60438767D01*
X76682767Y-60441579D01*
X76681630Y-60444360D01*
X76680398Y-60447109D01*
X76679102Y-60450044D01*
X76677770Y-60452893D01*
X76676399Y-60455660D01*
X76674985Y-60458352D01*
X76673523Y-60460974D01*
X76672009Y-60463533D01*
X76670439Y-60466033D01*
X76668810Y-60468482D01*
X76667116Y-60470884D01*
X76665355Y-60473245D01*
X76663522Y-60475572D01*
X76661612Y-60477869D01*
X76659623Y-60480143D01*
X76657549Y-60482400D01*
X76655386Y-60484646D01*
X76653132Y-60486885D01*
X76651057Y-60488856D01*
X76648920Y-60490792D01*
X76646722Y-60492688D01*
X76644466Y-60494543D01*
X76642154Y-60496350D01*
X76639787Y-60498107D01*
X76637369Y-60499810D01*
X76634900Y-60501455D01*
X76632383Y-60503038D01*
X76629821Y-60504555D01*
X76627214Y-60506002D01*
X76624566Y-60507375D01*
X76621879Y-60508671D01*
X76619153Y-60509885D01*
X76616393Y-60511015D01*
X76613598Y-60512055D01*
X76610766Y-60513253D01*
X76607903Y-60514359D01*
X76605008Y-60515375D01*
X76602082Y-60516303D01*
X76599124Y-60517144D01*
X76596136Y-60517902D01*
X76593115Y-60518578D01*
X76590063Y-60519175D01*
X76586979Y-60519693D01*
X76583863Y-60520136D01*
X76580716Y-60520505D01*
X76577536Y-60520802D01*
X76574324Y-60521029D01*
X76571080Y-60521190D01*
X76564495Y-60521315D01*
X76561195Y-60521284D01*
X76557924Y-60521190D01*
X76554684Y-60521029D01*
X76551475Y-60520802D01*
X76548297Y-60520505D01*
X76545150Y-60520136D01*
X76542034Y-60519693D01*
X76538950Y-60519175D01*
X76535897Y-60518578D01*
X76532876Y-60517902D01*
X76529887Y-60517144D01*
X76526931Y-60516303D01*
X76524006Y-60515375D01*
X76521114Y-60514359D01*
X76518254Y-60513253D01*
X76515428Y-60512055D01*
X76512635Y-60511015D01*
X76509874Y-60509885D01*
X76507144Y-60508671D01*
X76504445Y-60507375D01*
X76501778Y-60506002D01*
X76499141Y-60504555D01*
X76496537Y-60503038D01*
X76493964Y-60501455D01*
X76491422Y-60499810D01*
X76488912Y-60498107D01*
X76486434Y-60496350D01*
X76483988Y-60494543D01*
X76481574Y-60492688D01*
X76479191Y-60490792D01*
X76474523Y-60486885D01*
X76470559Y-60482400D01*
X76468669Y-60480143D01*
X76466837Y-60477869D01*
X76465061Y-60475571D01*
X76463340Y-60473244D01*
X76461670Y-60470883D01*
X76460051Y-60468481D01*
X76458479Y-60466032D01*
X76456953Y-60463532D01*
X76455471Y-60460973D01*
X76454030Y-60458351D01*
X76452628Y-60455659D01*
X76451264Y-60452892D01*
X76449936Y-60450044D01*
X76448640Y-60447109D01*
X76447408Y-60444360D01*
X76446269Y-60441579D01*
X76445222Y-60438767D01*
X76444265Y-60435923D01*
X76443396Y-60433047D01*
X76442613Y-60430141D01*
X76441913Y-60427203D01*
X76441296Y-60424234D01*
X76440758Y-60421235D01*
X76440299Y-60418205D01*
X76439915Y-60415145D01*
X76439606Y-60412055D01*
X76439369Y-60408934D01*
X76439202Y-60405784D01*
X76439103Y-60402604D01*
X76439070Y-60399394D01*
X76439103Y-60396403D01*
X76439202Y-60393414D01*
X76439369Y-60390426D01*
X76439606Y-60387438D01*
X76439915Y-60384452D01*
X76440299Y-60381466D01*
X76440758Y-60378481D01*
X76441296Y-60375497D01*
X76441913Y-60372513D01*
X76442613Y-60369530D01*
X76443396Y-60366547D01*
X76444265Y-60363564D01*
X76445222Y-60360581D01*
X76446269Y-60357598D01*
X76447408Y-60354615D01*
X76448640Y-60351632D01*
X76451264Y-60346234D01*
X76452628Y-60343586D01*
X76454030Y-60340973D01*
X76455471Y-60338399D01*
X76456953Y-60335866D01*
X76458479Y-60333374D01*
X76460051Y-60330927D01*
X76461670Y-60328526D01*
X76463340Y-60326174D01*
X76465061Y-60323872D01*
X76466837Y-60321623D01*
X76468669Y-60319428D01*
X76470559Y-60317290D01*
X76472509Y-60315210D01*
X76474523Y-60313191D01*
X76476841Y-60310998D01*
X76479191Y-60308896D01*
X76481574Y-60306879D01*
X76483988Y-60304945D01*
X76486434Y-60303089D01*
X76488912Y-60301307D01*
X76491422Y-60299595D01*
X76493964Y-60297950D01*
X76496537Y-60296366D01*
X76499141Y-60294841D01*
X76501778Y-60293370D01*
X76504445Y-60291949D01*
X76509874Y-60289241D01*
X76515428Y-60286687D01*
X76521114Y-60284766D01*
X76526931Y-60283002D01*
X76532876Y-60281425D01*
X76538950Y-60280067D01*
X76542034Y-60279479D01*
X76545150Y-60278957D01*
X76548297Y-60278505D01*
X76551475Y-60278127D01*
X76554684Y-60277826D01*
X76557924Y-60277606D01*
X76561195Y-60277472D01*
X76564495Y-60277426D01*
X76567804Y-60277472D01*
D11*
X73008718Y-60066589D02*
X72979525Y-60030464D01*
X76263442Y-60303444D02*
X76222699Y-60277988D01*
D12*
X72069540Y-58412127D02*
X72177021Y-58426672D01*
D11*
X77558224Y-60091327D02*
X77588363Y-60054603D01*
X74706692Y-59173956D02*
X74719943Y-59219334D01*
D10*
X70690413Y-59668731D02*
X70690413Y-59868656D01*
X70690413Y-59868656D02*
X70956439Y-59868656D01*
X70956439Y-59868656D02*
X70956439Y-60490718D01*
X70956439Y-60490718D02*
X71162033Y-60490718D01*
X71162033Y-60490718D02*
X71162033Y-59868656D01*
X71162033Y-59868656D02*
X71428047Y-59868656D01*
X71428047Y-59868656D02*
X71428047Y-59668731D01*
X71428047Y-59668731D02*
X70690413Y-59668731D01*
X70690413Y-59668731D02*
X70690413Y-59668731D01*
G36*
X71428047Y-59868656D02*
G01*
X71162033Y-59868656D01*
X71162033Y-60490718D01*
X70956439Y-60490718D01*
X70956439Y-59868656D01*
X70690413Y-59868656D01*
X70690413Y-59668731D01*
X71428047Y-59668731D01*
X71428047Y-59868656D01*
G37*
X71428047Y-59868656D02*
X71162033Y-59868656D01*
X71162033Y-60490718D01*
X70956439Y-60490718D01*
X70956439Y-59868656D01*
X70690413Y-59868656D01*
X70690413Y-59668731D01*
X71428047Y-59668731D01*
X71428047Y-59868656D01*
D11*
X75951521Y-60013579D02*
X75925414Y-59973851D01*
D12*
X73770492Y-59516250D02*
X73767545Y-59458325D01*
D11*
X74355896Y-60224605D02*
X74317342Y-60251266D01*
X77780188Y-59619426D02*
X77787020Y-59570450D01*
X74555539Y-60030464D02*
X74526346Y-60066589D01*
X74150304Y-60339434D02*
X74105649Y-60356557D01*
X76485584Y-60401118D02*
X76438909Y-60385735D01*
D12*
X75577849Y-60560228D02*
X75468091Y-60547680D01*
X73318018Y-58811843D02*
X73381114Y-58854189D01*
D11*
X77643172Y-59976964D02*
X77667715Y-59936170D01*
D12*
X73990976Y-59946176D02*
X73945597Y-59896347D01*
D11*
X73965720Y-60395155D02*
X73917296Y-60403565D01*
X74105648Y-58560099D02*
X74150304Y-58577220D01*
X74277444Y-60276140D02*
X74236263Y-60299166D01*
X73868084Y-60409647D02*
X73818147Y-60413339D01*
X74277443Y-58640510D02*
X74317341Y-58665382D01*
X74355895Y-58692042D02*
X74393044Y-58720429D01*
X76305498Y-60327008D02*
X76263442Y-60303444D01*
X73917296Y-60403565D02*
X73868084Y-60409647D01*
D12*
X74953810Y-60447415D02*
X74858848Y-60420350D01*
D11*
X72784174Y-59458325D02*
X72784174Y-59458325D01*
X75858985Y-59847239D02*
X75841016Y-59802762D01*
X75781434Y-59516327D02*
X75780128Y-59465898D01*
X77787020Y-59570450D02*
X77791352Y-59520725D01*
X77745332Y-59761249D02*
X77759281Y-59714886D01*
X76631343Y-60433830D02*
X76581864Y-60425226D01*
D12*
X72282253Y-58443642D02*
X72385094Y-58462970D01*
X72858476Y-58592608D02*
X72943996Y-58624662D01*
D11*
X75979507Y-60051965D02*
X75951521Y-60013579D01*
X72902855Y-59914129D02*
X72881140Y-59872897D01*
X74673624Y-59830539D02*
X74653930Y-59872897D01*
X74632213Y-59002508D02*
X74653930Y-59043740D01*
X77343105Y-60278502D02*
X77382723Y-60251558D01*
D12*
X72583037Y-58508429D02*
X72677855Y-58534424D01*
D11*
X75785308Y-59566090D02*
X75781434Y-59516327D01*
X74739572Y-59312691D02*
X74745826Y-59360549D01*
X76393294Y-60368215D02*
X76348803Y-60348619D01*
X73106335Y-58750483D02*
X73142016Y-58720429D01*
X72804151Y-59651041D02*
X72795504Y-59603951D01*
X77382723Y-60251558D02*
X77420919Y-60222833D01*
X72789251Y-59556095D02*
X72785454Y-59507533D01*
X73039625Y-60101287D02*
X73008718Y-60066589D01*
D12*
X73179692Y-58731859D02*
X73250830Y-58771044D01*
D11*
X76222699Y-60277988D02*
X76183330Y-60250702D01*
X77492795Y-60160279D02*
X77526347Y-60126573D01*
X73475108Y-58545066D02*
X73521774Y-58532181D01*
X75791689Y-59615125D02*
X75785308Y-59566090D01*
X72926532Y-58962463D02*
X72952109Y-58923665D01*
X76348803Y-60348619D02*
X76305498Y-60327008D01*
X77125911Y-60384366D02*
X77171686Y-60367243D01*
X74608535Y-58962463D02*
X74632213Y-59002508D01*
X73142016Y-58720429D02*
X73179164Y-58692042D01*
X76933038Y-60430790D02*
X76982596Y-60422616D01*
D12*
X73589751Y-59037680D02*
X73630264Y-59086743D01*
D11*
X74582956Y-59992973D02*
X74555539Y-60030464D01*
D10*
X69634720Y-60013296D02*
X69257424Y-60013296D01*
X69257424Y-60013296D02*
X69257424Y-60341346D01*
X69257424Y-60341346D02*
X69286461Y-60370747D01*
X69286461Y-60370747D02*
X69301565Y-60384976D01*
X69301565Y-60384976D02*
X69317806Y-60398536D01*
X69317806Y-60398536D02*
X69335099Y-60411393D01*
X69335099Y-60411393D02*
X69353362Y-60423513D01*
X69353362Y-60423513D02*
X69372510Y-60434862D01*
X69372510Y-60434862D02*
X69392461Y-60445405D01*
X69392461Y-60445405D02*
X69413131Y-60455107D01*
X69413131Y-60455107D02*
X69434437Y-60463934D01*
X69434437Y-60463934D02*
X69456295Y-60471852D01*
X69456295Y-60471852D02*
X69478622Y-60478825D01*
X69478622Y-60478825D02*
X69501335Y-60484821D01*
X69501335Y-60484821D02*
X69524350Y-60489803D01*
X69524350Y-60489803D02*
X69547583Y-60493739D01*
X69547583Y-60493739D02*
X69570952Y-60496592D01*
X69570952Y-60496592D02*
X69594373Y-60498330D01*
X69594373Y-60498330D02*
X69617763Y-60498917D01*
X69617763Y-60498917D02*
X69639964Y-60498370D01*
X69639964Y-60498370D02*
X69661876Y-60496747D01*
X69661876Y-60496747D02*
X69683471Y-60494075D01*
X69683471Y-60494075D02*
X69704722Y-60490380D01*
X69704722Y-60490380D02*
X69725601Y-60485689D01*
X69725601Y-60485689D02*
X69746082Y-60480028D01*
X69746082Y-60480028D02*
X69766136Y-60473423D01*
X69766136Y-60473423D02*
X69785738Y-60465902D01*
X69785738Y-60465902D02*
X69804859Y-60457489D01*
X69804859Y-60457489D02*
X69823473Y-60448213D01*
X69823473Y-60448213D02*
X69841552Y-60438099D01*
X69841552Y-60438099D02*
X69859069Y-60427175D01*
X69859069Y-60427175D02*
X69875997Y-60415465D01*
X69875997Y-60415465D02*
X69892309Y-60402998D01*
X69892309Y-60402998D02*
X69907977Y-60389799D01*
X69907977Y-60389799D02*
X69922974Y-60375895D01*
X69922974Y-60375895D02*
X69937273Y-60361312D01*
X69937273Y-60361312D02*
X69950847Y-60346077D01*
X69950847Y-60346077D02*
X69963668Y-60330217D01*
X69963668Y-60330217D02*
X69975710Y-60313757D01*
X69975710Y-60313757D02*
X69986944Y-60296725D01*
X69986944Y-60296725D02*
X69997345Y-60279146D01*
X69997345Y-60279146D02*
X70006884Y-60261048D01*
X70006884Y-60261048D02*
X70015535Y-60242456D01*
X70015535Y-60242456D02*
X70023270Y-60223398D01*
X70023270Y-60223398D02*
X70030061Y-60203899D01*
X70030061Y-60203899D02*
X70035883Y-60183986D01*
X70035883Y-60183986D02*
X70040707Y-60163686D01*
X70040707Y-60163686D02*
X70044507Y-60143026D01*
X70044507Y-60143026D02*
X70047254Y-60122031D01*
X70047254Y-60122031D02*
X70048923Y-60100728D01*
X70048923Y-60100728D02*
X70049485Y-60079143D01*
X70049485Y-60079143D02*
X70048923Y-60057558D01*
X70048923Y-60057558D02*
X70047254Y-60036253D01*
X70047254Y-60036253D02*
X70044507Y-60015257D01*
X70044507Y-60015257D02*
X70040707Y-59994594D01*
X70040707Y-59994594D02*
X70035883Y-59974293D01*
X70035883Y-59974293D02*
X70030061Y-59954379D01*
X70030061Y-59954379D02*
X70023270Y-59934878D01*
X70023270Y-59934878D02*
X70015535Y-59915818D01*
X70015535Y-59915818D02*
X70006884Y-59897224D01*
X70006884Y-59897224D02*
X69997345Y-59879124D01*
X69997345Y-59879124D02*
X69986944Y-59861543D01*
X69986944Y-59861543D02*
X69975710Y-59844509D01*
X69975710Y-59844509D02*
X69963668Y-59828047D01*
X69963668Y-59828047D02*
X69950847Y-59812185D01*
X69950847Y-59812185D02*
X69937273Y-59796948D01*
X69937273Y-59796948D02*
X69922974Y-59782363D01*
X69922974Y-59782363D02*
X69907977Y-59768457D01*
X69907977Y-59768457D02*
X69892309Y-59755256D01*
X69892309Y-59755256D02*
X69875997Y-59742787D01*
X69875997Y-59742787D02*
X69859069Y-59731076D01*
X69859069Y-59731076D02*
X69841552Y-59720150D01*
X69841552Y-59720150D02*
X69823473Y-59710035D01*
X69823473Y-59710035D02*
X69804859Y-59700757D01*
X69804859Y-59700757D02*
X69785738Y-59692343D01*
X69785738Y-59692343D02*
X69766136Y-59684821D01*
X69766136Y-59684821D02*
X69746082Y-59678215D01*
X69746082Y-59678215D02*
X69725601Y-59672553D01*
X69725601Y-59672553D02*
X69704722Y-59667860D01*
X69704722Y-59667860D02*
X69683471Y-59664165D01*
X69683471Y-59664165D02*
X69661876Y-59661492D01*
X69661876Y-59661492D02*
X69639964Y-59659869D01*
X69639964Y-59659869D02*
X69617763Y-59659323D01*
X69617763Y-59659323D02*
X69594264Y-59659953D01*
X69594264Y-59659953D02*
X69570954Y-59661828D01*
X69570954Y-59661828D02*
X69547877Y-59664927D01*
X69547877Y-59664927D02*
X69525079Y-59669226D01*
X69525079Y-59669226D02*
X69502608Y-59674704D01*
X69502608Y-59674704D02*
X69480508Y-59681337D01*
X69480508Y-59681337D02*
X69458826Y-59689104D01*
X69458826Y-59689104D02*
X69437608Y-59697983D01*
X69437608Y-59697983D02*
X69416899Y-59707950D01*
X69416899Y-59707950D02*
X69396747Y-59718984D01*
X69396747Y-59718984D02*
X69377197Y-59731062D01*
X69377197Y-59731062D02*
X69358294Y-59744162D01*
X69358294Y-59744162D02*
X69340086Y-59758261D01*
X69340086Y-59758261D02*
X69322618Y-59773338D01*
X69322618Y-59773338D02*
X69305935Y-59789370D01*
X69305935Y-59789370D02*
X69290085Y-59806334D01*
X69290085Y-59806334D02*
X69446073Y-59936853D01*
X69446073Y-59936853D02*
X69454456Y-59927840D01*
X69454456Y-59927840D02*
X69463268Y-59919335D01*
X69463268Y-59919335D02*
X69472484Y-59911347D01*
X69472484Y-59911347D02*
X69482080Y-59903887D01*
X69482080Y-59903887D02*
X69492030Y-59896965D01*
X69492030Y-59896965D02*
X69502310Y-59890592D01*
X69502310Y-59890592D02*
X69512895Y-59884777D01*
X69512895Y-59884777D02*
X69523759Y-59879530D01*
X69523759Y-59879530D02*
X69534879Y-59874863D01*
X69534879Y-59874863D02*
X69546228Y-59870784D01*
X69546228Y-59870784D02*
X69557783Y-59867305D01*
X69557783Y-59867305D02*
X69569518Y-59864436D01*
X69569518Y-59864436D02*
X69581408Y-59862186D01*
X69581408Y-59862186D02*
X69593429Y-59860567D01*
X69593429Y-59860567D02*
X69605555Y-59859588D01*
X69605555Y-59859588D02*
X69617763Y-59859259D01*
X69617763Y-59859259D02*
X69629370Y-59859546D01*
X69629370Y-59859546D02*
X69640828Y-59860398D01*
X69640828Y-59860398D02*
X69652123Y-59861800D01*
X69652123Y-59861800D02*
X69663240Y-59863739D01*
X69663240Y-59863739D02*
X69674165Y-59866201D01*
X69674165Y-59866201D02*
X69684883Y-59869171D01*
X69684883Y-59869171D02*
X69695380Y-59872637D01*
X69695380Y-59872637D02*
X69705641Y-59876583D01*
X69705641Y-59876583D02*
X69715653Y-59880995D01*
X69715653Y-59880995D02*
X69725400Y-59885861D01*
X69725400Y-59885861D02*
X69734869Y-59891165D01*
X69734869Y-59891165D02*
X69744044Y-59896895D01*
X69744044Y-59896895D02*
X69752913Y-59903035D01*
X69752913Y-59903035D02*
X69761459Y-59909571D01*
X69761459Y-59909571D02*
X69769670Y-59916491D01*
X69769670Y-59916491D02*
X69777530Y-59923779D01*
X69777530Y-59923779D02*
X69785025Y-59931423D01*
X69785025Y-59931423D02*
X69792141Y-59939407D01*
X69792141Y-59939407D02*
X69798863Y-59947718D01*
X69798863Y-59947718D02*
X69805177Y-59956342D01*
X69805177Y-59956342D02*
X69811068Y-59965265D01*
X69811068Y-59965265D02*
X69816523Y-59974473D01*
X69816523Y-59974473D02*
X69821527Y-59983951D01*
X69821527Y-59983951D02*
X69826065Y-59993687D01*
X69826065Y-59993687D02*
X69830122Y-60003666D01*
X69830122Y-60003666D02*
X69833686Y-60013873D01*
X69833686Y-60013873D02*
X69836741Y-60024296D01*
X69836741Y-60024296D02*
X69839272Y-60034919D01*
X69839272Y-60034919D02*
X69841266Y-60045730D01*
X69841266Y-60045730D02*
X69842708Y-60056713D01*
X69842708Y-60056713D02*
X69843584Y-60067856D01*
X69843584Y-60067856D02*
X69843879Y-60079143D01*
X69843879Y-60079143D02*
X69843584Y-60090427D01*
X69843584Y-60090427D02*
X69842708Y-60101560D01*
X69842708Y-60101560D02*
X69841266Y-60112528D01*
X69841266Y-60112528D02*
X69839272Y-60123317D01*
X69839272Y-60123317D02*
X69836741Y-60133914D01*
X69836741Y-60133914D02*
X69833686Y-60144306D01*
X69833686Y-60144306D02*
X69830122Y-60154479D01*
X69830122Y-60154479D02*
X69826065Y-60164418D01*
X69826065Y-60164418D02*
X69821527Y-60174112D01*
X69821527Y-60174112D02*
X69816523Y-60183545D01*
X69816523Y-60183545D02*
X69811068Y-60192705D01*
X69811068Y-60192705D02*
X69805177Y-60201578D01*
X69805177Y-60201578D02*
X69798863Y-60210151D01*
X69798863Y-60210151D02*
X69792141Y-60218409D01*
X69792141Y-60218409D02*
X69785025Y-60226340D01*
X69785025Y-60226340D02*
X69777530Y-60233929D01*
X69777530Y-60233929D02*
X69769670Y-60241164D01*
X69769670Y-60241164D02*
X69761459Y-60248030D01*
X69761459Y-60248030D02*
X69752913Y-60254514D01*
X69752913Y-60254514D02*
X69744044Y-60260603D01*
X69744044Y-60260603D02*
X69734869Y-60266282D01*
X69734869Y-60266282D02*
X69725400Y-60271539D01*
X69725400Y-60271539D02*
X69715653Y-60276359D01*
X69715653Y-60276359D02*
X69705641Y-60280730D01*
X69705641Y-60280730D02*
X69695380Y-60284637D01*
X69695380Y-60284637D02*
X69684883Y-60288068D01*
X69684883Y-60288068D02*
X69674165Y-60291008D01*
X69674165Y-60291008D02*
X69663240Y-60293443D01*
X69663240Y-60293443D02*
X69652123Y-60295361D01*
X69652123Y-60295361D02*
X69640828Y-60296748D01*
X69640828Y-60296748D02*
X69629370Y-60297590D01*
X69629370Y-60297590D02*
X69617763Y-60297874D01*
X69617763Y-60297874D02*
X69607725Y-60297670D01*
X69607725Y-60297670D02*
X69597578Y-60297065D01*
X69597578Y-60297065D02*
X69587355Y-60296075D01*
X69587355Y-60296075D02*
X69577091Y-60294713D01*
X69577091Y-60294713D02*
X69566819Y-60292992D01*
X69566819Y-60292992D02*
X69556573Y-60290926D01*
X69556573Y-60290926D02*
X69546387Y-60288530D01*
X69546387Y-60288530D02*
X69536294Y-60285817D01*
X69536294Y-60285817D02*
X69526329Y-60282800D01*
X69526329Y-60282800D02*
X69516524Y-60279493D01*
X69516524Y-60279493D02*
X69506915Y-60275911D01*
X69506915Y-60275911D02*
X69497534Y-60272067D01*
X69497534Y-60272067D02*
X69488415Y-60267974D01*
X69488415Y-60267974D02*
X69479593Y-60263647D01*
X69479593Y-60263647D02*
X69471100Y-60259099D01*
X69471100Y-60259099D02*
X69462971Y-60254344D01*
X69462971Y-60254344D02*
X69462971Y-60213187D01*
X69462971Y-60213187D02*
X69634720Y-60213187D01*
X69634720Y-60213187D02*
X69634720Y-60013296D01*
X69634720Y-60013296D02*
X69634720Y-60013296D01*
G36*
X69639964Y-59659869D02*
G01*
X69661876Y-59661492D01*
X69683471Y-59664165D01*
X69704722Y-59667860D01*
X69725601Y-59672553D01*
X69746082Y-59678215D01*
X69766136Y-59684821D01*
X69785738Y-59692343D01*
X69804859Y-59700757D01*
X69823473Y-59710035D01*
X69841552Y-59720150D01*
X69859069Y-59731076D01*
X69875997Y-59742787D01*
X69892309Y-59755256D01*
X69907977Y-59768457D01*
X69922974Y-59782363D01*
X69937273Y-59796948D01*
X69950847Y-59812185D01*
X69963668Y-59828047D01*
X69975710Y-59844509D01*
X69986944Y-59861543D01*
X69997345Y-59879124D01*
X70006884Y-59897224D01*
X70015535Y-59915818D01*
X70023270Y-59934878D01*
X70030061Y-59954379D01*
X70035883Y-59974293D01*
X70040707Y-59994594D01*
X70044507Y-60015257D01*
X70047254Y-60036253D01*
X70048923Y-60057558D01*
X70049485Y-60079143D01*
X70048923Y-60100728D01*
X70047254Y-60122031D01*
X70044507Y-60143026D01*
X70040707Y-60163686D01*
X70035883Y-60183986D01*
X70030061Y-60203899D01*
X70023270Y-60223398D01*
X70015535Y-60242456D01*
X70006884Y-60261048D01*
X69997345Y-60279146D01*
X69986944Y-60296725D01*
X69975710Y-60313757D01*
X69963668Y-60330217D01*
X69950847Y-60346077D01*
X69937273Y-60361312D01*
X69922974Y-60375895D01*
X69907977Y-60389799D01*
X69892309Y-60402998D01*
X69875997Y-60415465D01*
X69859069Y-60427175D01*
X69841552Y-60438099D01*
X69823473Y-60448213D01*
X69804859Y-60457489D01*
X69785738Y-60465902D01*
X69766136Y-60473423D01*
X69746082Y-60480028D01*
X69725601Y-60485689D01*
X69704722Y-60490380D01*
X69683471Y-60494075D01*
X69661876Y-60496747D01*
X69639964Y-60498370D01*
X69617763Y-60498917D01*
X69594373Y-60498330D01*
X69570952Y-60496592D01*
X69547583Y-60493739D01*
X69524350Y-60489803D01*
X69501335Y-60484821D01*
X69478622Y-60478825D01*
X69456295Y-60471852D01*
X69434437Y-60463934D01*
X69413131Y-60455107D01*
X69392461Y-60445405D01*
X69372510Y-60434862D01*
X69353362Y-60423513D01*
X69335099Y-60411393D01*
X69317806Y-60398536D01*
X69301565Y-60384976D01*
X69286461Y-60370747D01*
X69257424Y-60341346D01*
X69257424Y-60013296D01*
X69634720Y-60013296D01*
X69634720Y-60213187D01*
X69462971Y-60213187D01*
X69462971Y-60254344D01*
X69471100Y-60259099D01*
X69479593Y-60263647D01*
X69488415Y-60267974D01*
X69497534Y-60272067D01*
X69506915Y-60275911D01*
X69516524Y-60279493D01*
X69526329Y-60282800D01*
X69536294Y-60285817D01*
X69546387Y-60288530D01*
X69556573Y-60290926D01*
X69566819Y-60292992D01*
X69577091Y-60294713D01*
X69587355Y-60296075D01*
X69597578Y-60297065D01*
X69607725Y-60297670D01*
X69617763Y-60297874D01*
X69629370Y-60297590D01*
X69640828Y-60296748D01*
X69652123Y-60295361D01*
X69663240Y-60293443D01*
X69674165Y-60291008D01*
X69684883Y-60288068D01*
X69695380Y-60284637D01*
X69705641Y-60280730D01*
X69715653Y-60276359D01*
X69725400Y-60271539D01*
X69734869Y-60266282D01*
X69744044Y-60260603D01*
X69752913Y-60254514D01*
X69761459Y-60248030D01*
X69769670Y-60241164D01*
X69777530Y-60233929D01*
X69785025Y-60226340D01*
X69792141Y-60218409D01*
X69798863Y-60210151D01*
X69805177Y-60201578D01*
X69811068Y-60192705D01*
X69816523Y-60183545D01*
X69821527Y-60174112D01*
X69826065Y-60164418D01*
X69830122Y-60154479D01*
X69833686Y-60144306D01*
X69836741Y-60133914D01*
X69839272Y-60123317D01*
X69841266Y-60112528D01*
X69842708Y-60101560D01*
X69843584Y-60090427D01*
X69843879Y-60079143D01*
X69843584Y-60067856D01*
X69842708Y-60056713D01*
X69841266Y-60045730D01*
X69839272Y-60034919D01*
X69836741Y-60024296D01*
X69833686Y-60013873D01*
X69830122Y-60003666D01*
X69826065Y-59993687D01*
X69821527Y-59983951D01*
X69816523Y-59974473D01*
X69811068Y-59965265D01*
X69805177Y-59956342D01*
X69798863Y-59947718D01*
X69792141Y-59939407D01*
X69785025Y-59931423D01*
X69777530Y-59923779D01*
X69769670Y-59916491D01*
X69761459Y-59909571D01*
X69752913Y-59903035D01*
X69744044Y-59896895D01*
X69734869Y-59891165D01*
X69725400Y-59885861D01*
X69715653Y-59880995D01*
X69705641Y-59876583D01*
X69695380Y-59872637D01*
X69684883Y-59869171D01*
X69674165Y-59866201D01*
X69663240Y-59863739D01*
X69652123Y-59861800D01*
X69640828Y-59860398D01*
X69629370Y-59859546D01*
X69617763Y-59859259D01*
X69605555Y-59859588D01*
X69593429Y-59860567D01*
X69581408Y-59862186D01*
X69569518Y-59864436D01*
X69557783Y-59867305D01*
X69546228Y-59870784D01*
X69534879Y-59874863D01*
X69523759Y-59879530D01*
X69512895Y-59884777D01*
X69502310Y-59890592D01*
X69492030Y-59896965D01*
X69482080Y-59903887D01*
X69472484Y-59911347D01*
X69463268Y-59919335D01*
X69454456Y-59927840D01*
X69446073Y-59936853D01*
X69290085Y-59806334D01*
X69305935Y-59789370D01*
X69322618Y-59773338D01*
X69340086Y-59758261D01*
X69358294Y-59744162D01*
X69377197Y-59731062D01*
X69396747Y-59718984D01*
X69416899Y-59707950D01*
X69437608Y-59697983D01*
X69458826Y-59689104D01*
X69480508Y-59681337D01*
X69502608Y-59674704D01*
X69525079Y-59669226D01*
X69547877Y-59664927D01*
X69570954Y-59661828D01*
X69594264Y-59659953D01*
X69617763Y-59659323D01*
X69639964Y-59659869D01*
G37*
X69639964Y-59659869D02*
X69661876Y-59661492D01*
X69683471Y-59664165D01*
X69704722Y-59667860D01*
X69725601Y-59672553D01*
X69746082Y-59678215D01*
X69766136Y-59684821D01*
X69785738Y-59692343D01*
X69804859Y-59700757D01*
X69823473Y-59710035D01*
X69841552Y-59720150D01*
X69859069Y-59731076D01*
X69875997Y-59742787D01*
X69892309Y-59755256D01*
X69907977Y-59768457D01*
X69922974Y-59782363D01*
X69937273Y-59796948D01*
X69950847Y-59812185D01*
X69963668Y-59828047D01*
X69975710Y-59844509D01*
X69986944Y-59861543D01*
X69997345Y-59879124D01*
X70006884Y-59897224D01*
X70015535Y-59915818D01*
X70023270Y-59934878D01*
X70030061Y-59954379D01*
X70035883Y-59974293D01*
X70040707Y-59994594D01*
X70044507Y-60015257D01*
X70047254Y-60036253D01*
X70048923Y-60057558D01*
X70049485Y-60079143D01*
X70048923Y-60100728D01*
X70047254Y-60122031D01*
X70044507Y-60143026D01*
X70040707Y-60163686D01*
X70035883Y-60183986D01*
X70030061Y-60203899D01*
X70023270Y-60223398D01*
X70015535Y-60242456D01*
X70006884Y-60261048D01*
X69997345Y-60279146D01*
X69986944Y-60296725D01*
X69975710Y-60313757D01*
X69963668Y-60330217D01*
X69950847Y-60346077D01*
X69937273Y-60361312D01*
X69922974Y-60375895D01*
X69907977Y-60389799D01*
X69892309Y-60402998D01*
X69875997Y-60415465D01*
X69859069Y-60427175D01*
X69841552Y-60438099D01*
X69823473Y-60448213D01*
X69804859Y-60457489D01*
X69785738Y-60465902D01*
X69766136Y-60473423D01*
X69746082Y-60480028D01*
X69725601Y-60485689D01*
X69704722Y-60490380D01*
X69683471Y-60494075D01*
X69661876Y-60496747D01*
X69639964Y-60498370D01*
X69617763Y-60498917D01*
X69594373Y-60498330D01*
X69570952Y-60496592D01*
X69547583Y-60493739D01*
X69524350Y-60489803D01*
X69501335Y-60484821D01*
X69478622Y-60478825D01*
X69456295Y-60471852D01*
X69434437Y-60463934D01*
X69413131Y-60455107D01*
X69392461Y-60445405D01*
X69372510Y-60434862D01*
X69353362Y-60423513D01*
X69335099Y-60411393D01*
X69317806Y-60398536D01*
X69301565Y-60384976D01*
X69286461Y-60370747D01*
X69257424Y-60341346D01*
X69257424Y-60013296D01*
X69634720Y-60013296D01*
X69634720Y-60213187D01*
X69462971Y-60213187D01*
X69462971Y-60254344D01*
X69471100Y-60259099D01*
X69479593Y-60263647D01*
X69488415Y-60267974D01*
X69497534Y-60272067D01*
X69506915Y-60275911D01*
X69516524Y-60279493D01*
X69526329Y-60282800D01*
X69536294Y-60285817D01*
X69546387Y-60288530D01*
X69556573Y-60290926D01*
X69566819Y-60292992D01*
X69577091Y-60294713D01*
X69587355Y-60296075D01*
X69597578Y-60297065D01*
X69607725Y-60297670D01*
X69617763Y-60297874D01*
X69629370Y-60297590D01*
X69640828Y-60296748D01*
X69652123Y-60295361D01*
X69663240Y-60293443D01*
X69674165Y-60291008D01*
X69684883Y-60288068D01*
X69695380Y-60284637D01*
X69705641Y-60280730D01*
X69715653Y-60276359D01*
X69725400Y-60271539D01*
X69734869Y-60266282D01*
X69744044Y-60260603D01*
X69752913Y-60254514D01*
X69761459Y-60248030D01*
X69769670Y-60241164D01*
X69777530Y-60233929D01*
X69785025Y-60226340D01*
X69792141Y-60218409D01*
X69798863Y-60210151D01*
X69805177Y-60201578D01*
X69811068Y-60192705D01*
X69816523Y-60183545D01*
X69821527Y-60174112D01*
X69826065Y-60164418D01*
X69830122Y-60154479D01*
X69833686Y-60144306D01*
X69836741Y-60133914D01*
X69839272Y-60123317D01*
X69841266Y-60112528D01*
X69842708Y-60101560D01*
X69843584Y-60090427D01*
X69843879Y-60079143D01*
X69843584Y-60067856D01*
X69842708Y-60056713D01*
X69841266Y-60045730D01*
X69839272Y-60034919D01*
X69836741Y-60024296D01*
X69833686Y-60013873D01*
X69830122Y-60003666D01*
X69826065Y-59993687D01*
X69821527Y-59983951D01*
X69816523Y-59974473D01*
X69811068Y-59965265D01*
X69805177Y-59956342D01*
X69798863Y-59947718D01*
X69792141Y-59939407D01*
X69785025Y-59931423D01*
X69777530Y-59923779D01*
X69769670Y-59916491D01*
X69761459Y-59909571D01*
X69752913Y-59903035D01*
X69744044Y-59896895D01*
X69734869Y-59891165D01*
X69725400Y-59885861D01*
X69715653Y-59880995D01*
X69705641Y-59876583D01*
X69695380Y-59872637D01*
X69684883Y-59869171D01*
X69674165Y-59866201D01*
X69663240Y-59863739D01*
X69652123Y-59861800D01*
X69640828Y-59860398D01*
X69629370Y-59859546D01*
X69617763Y-59859259D01*
X69605555Y-59859588D01*
X69593429Y-59860567D01*
X69581408Y-59862186D01*
X69569518Y-59864436D01*
X69557783Y-59867305D01*
X69546228Y-59870784D01*
X69534879Y-59874863D01*
X69523759Y-59879530D01*
X69512895Y-59884777D01*
X69502310Y-59890592D01*
X69492030Y-59896965D01*
X69482080Y-59903887D01*
X69472484Y-59911347D01*
X69463268Y-59919335D01*
X69454456Y-59927840D01*
X69446073Y-59936853D01*
X69290085Y-59806334D01*
X69305935Y-59789370D01*
X69322618Y-59773338D01*
X69340086Y-59758261D01*
X69358294Y-59744162D01*
X69377197Y-59731062D01*
X69396747Y-59718984D01*
X69416899Y-59707950D01*
X69437608Y-59697983D01*
X69458826Y-59689104D01*
X69480508Y-59681337D01*
X69502608Y-59674704D01*
X69525079Y-59669226D01*
X69547877Y-59664927D01*
X69570954Y-59661828D01*
X69594264Y-59659953D01*
X69617763Y-59659323D01*
X69639964Y-59659869D01*
D11*
X73617779Y-58513095D02*
X73666995Y-58507014D01*
X74730924Y-59265599D02*
X74739572Y-59312691D01*
X77302128Y-60303603D02*
X77343105Y-60278502D01*
X74236263Y-60299166D02*
X74193863Y-60320284D01*
X74526346Y-60066589D02*
X74495438Y-60101287D01*
D13*
X73767545Y-61087611D02*
X73767545Y-57829052D01*
D11*
X74691231Y-59787114D02*
X74673624Y-59830539D01*
X74719943Y-59697305D02*
X74706692Y-59742682D01*
X72902855Y-59002508D02*
X72926532Y-58962463D01*
X74059958Y-60371591D02*
X74013295Y-60384477D01*
X76779893Y-60440734D02*
X76831623Y-60439910D01*
X76732667Y-60443829D02*
X76681632Y-60440051D01*
X74393044Y-60196217D02*
X74355896Y-60224605D01*
X74749624Y-59507533D02*
X74745826Y-59556095D01*
X74750903Y-59458325D02*
X74749624Y-59507533D01*
D12*
X73905025Y-59845259D02*
X73869402Y-59792984D01*
X73869402Y-59792984D02*
X73838870Y-59739591D01*
D11*
X74691231Y-59129524D02*
X74706692Y-59173956D01*
D13*
X72158046Y-59458325D02*
X75377044Y-59458325D01*
D12*
X73721584Y-59240502D02*
X73741479Y-59293720D01*
D11*
X74526346Y-58850051D02*
X74555539Y-58886175D01*
X77791352Y-59520725D02*
X77793122Y-59470311D01*
X75825239Y-59757251D02*
X75811717Y-59710767D01*
X72881139Y-59043740D02*
X72902855Y-59002508D01*
X72815131Y-59697305D02*
X72804151Y-59651041D01*
X73521774Y-58532181D02*
X73569351Y-58521504D01*
X77690266Y-59894141D02*
X77710761Y-59850937D01*
D12*
X72485402Y-58484588D02*
X72583037Y-58508429D01*
D11*
X75811717Y-59710767D02*
X75800513Y-59663371D01*
X75901246Y-59932845D02*
X75879082Y-59890620D01*
X74317341Y-58665382D02*
X74355895Y-58692042D01*
X73767545Y-60414584D02*
X73767545Y-60414584D01*
X73767544Y-58502077D02*
X73767544Y-58502077D01*
X74495438Y-60101287D02*
X74462877Y-60134497D01*
X73666995Y-58507014D02*
X73716937Y-58503322D01*
D12*
X74154539Y-60087408D02*
X74095589Y-60041777D01*
D11*
X72926532Y-59954174D02*
X72902855Y-59914129D01*
X73429415Y-58560099D02*
X73475108Y-58545066D01*
X74719943Y-59219334D02*
X74730924Y-59265599D01*
X73569352Y-60395155D02*
X73521774Y-60384477D01*
X74673623Y-59086098D02*
X74691231Y-59129524D01*
X73818146Y-58503322D02*
X73868084Y-58507014D01*
D12*
X72943996Y-58624662D02*
X73026133Y-58658600D01*
D11*
X73475108Y-60371591D02*
X73429416Y-60356557D01*
D12*
X73439978Y-58898013D02*
X73494466Y-58943248D01*
X73104746Y-58694355D02*
X73179692Y-58731859D01*
D11*
X76009307Y-60088950D02*
X75979507Y-60051965D01*
X72861447Y-59086098D02*
X72881139Y-59043740D01*
X73106336Y-60166161D02*
X73072184Y-60134497D01*
X72815131Y-59219334D02*
X72828381Y-59173956D01*
D12*
X72769715Y-58562506D02*
X72858476Y-58592608D01*
X73755866Y-59347808D02*
X73764601Y-59402699D01*
X74858848Y-60420350D02*
X74766849Y-60391111D01*
D11*
X76581864Y-60425226D02*
X76533256Y-60414302D01*
X74653930Y-59043740D02*
X74673623Y-59086098D01*
X76882693Y-60436575D02*
X76933038Y-60430790D01*
D12*
X73381114Y-58854189D02*
X73439978Y-58898013D01*
D11*
X72789250Y-59360549D02*
X72795504Y-59312691D01*
D12*
X73945597Y-59896347D02*
X73905025Y-59845259D01*
X71503360Y-58378148D02*
X71619961Y-58379553D01*
X74431317Y-60253831D02*
X74356260Y-60214781D01*
D11*
X72795504Y-59312691D02*
X72804151Y-59265599D01*
X74428725Y-60166161D02*
X74393044Y-60196217D01*
X73965720Y-58521504D02*
X74013295Y-58532181D01*
X77770921Y-59667591D02*
X77780188Y-59619426D01*
X73039624Y-58815355D02*
X73072184Y-58782145D01*
X77216355Y-60348034D02*
X77259857Y-60326800D01*
X77710761Y-59850937D02*
X77729138Y-59806620D01*
X72828381Y-59173956D02*
X72843841Y-59129524D01*
D10*
X70460625Y-59668731D02*
X70255078Y-59668731D01*
X70255078Y-59668731D02*
X70255078Y-60488357D01*
X70255078Y-60488357D02*
X70460625Y-60488357D01*
X70460625Y-60488357D02*
X70460625Y-59668731D01*
X70460625Y-59668731D02*
X70460625Y-59668731D01*
G36*
X70460625Y-60488357D02*
G01*
X70255078Y-60488357D01*
X70255078Y-59668731D01*
X70460625Y-59668731D01*
X70460625Y-60488357D01*
G37*
X70460625Y-60488357D02*
X70255078Y-60488357D01*
X70255078Y-59668731D01*
X70460625Y-59668731D01*
X70460625Y-60488357D01*
D12*
X75918370Y-60581594D02*
X75803130Y-60577255D01*
D11*
X72785454Y-59507533D02*
X72784174Y-59458325D01*
D12*
X74766849Y-60391111D02*
X74677955Y-60359769D01*
X73026133Y-58658600D02*
X73104746Y-58694355D01*
X74285016Y-60173981D02*
X74217729Y-60131500D01*
D11*
X73384759Y-60339434D02*
X73341199Y-60320284D01*
D10*
X71718301Y-60140256D02*
X71573221Y-60490718D01*
X71573221Y-60490718D02*
X71799350Y-60490718D01*
X71799350Y-60490718D02*
X71925091Y-60177903D01*
X71925091Y-60177903D02*
X72131882Y-60177903D01*
X72131882Y-60177903D02*
X72131882Y-60490718D01*
X72131882Y-60490718D02*
X72337429Y-60490718D01*
X72337429Y-60490718D02*
X72337429Y-59668731D01*
X72337429Y-59668731D02*
X71854961Y-59668731D01*
X71854961Y-59668731D02*
X71841548Y-59669062D01*
X71841548Y-59669062D02*
X71828301Y-59670046D01*
X71828301Y-59670046D02*
X71815237Y-59671666D01*
X71815237Y-59671666D02*
X71802372Y-59673906D01*
X71802372Y-59673906D02*
X71789725Y-59676750D01*
X71789725Y-59676750D02*
X71777311Y-59680181D01*
X71777311Y-59680181D02*
X71765149Y-59684185D01*
X71765149Y-59684185D02*
X71753255Y-59688743D01*
X71753255Y-59688743D02*
X71741646Y-59693841D01*
X71741646Y-59693841D02*
X71730339Y-59699461D01*
X71730339Y-59699461D02*
X71719351Y-59705589D01*
X71719351Y-59705589D02*
X71708700Y-59712207D01*
X71708700Y-59712207D02*
X71698402Y-59719300D01*
X71698402Y-59719300D02*
X71688475Y-59726851D01*
X71688475Y-59726851D02*
X71678935Y-59734844D01*
X71678935Y-59734844D02*
X71669799Y-59743264D01*
X71669799Y-59743264D02*
X71661085Y-59752093D01*
X71661085Y-59752093D02*
X71652810Y-59761317D01*
X71652810Y-59761317D02*
X71644991Y-59770917D01*
X71644991Y-59770917D02*
X71637644Y-59780879D01*
X71637644Y-59780879D02*
X71630786Y-59791187D01*
X71630786Y-59791187D02*
X71624436Y-59801823D01*
X71624436Y-59801823D02*
X71618610Y-59812773D01*
X71618610Y-59812773D02*
X71613324Y-59824019D01*
X71613324Y-59824019D02*
X71608597Y-59835546D01*
X71608597Y-59835546D02*
X71604444Y-59847338D01*
X71604444Y-59847338D02*
X71600884Y-59859377D01*
X71600884Y-59859377D02*
X71597932Y-59871649D01*
X71597932Y-59871649D02*
X71595607Y-59884137D01*
X71595607Y-59884137D02*
X71593925Y-59896825D01*
X71593925Y-59896825D02*
X71592904Y-59909696D01*
X71592904Y-59909696D02*
X71592559Y-59922735D01*
X71592559Y-59922735D02*
X71593148Y-59939802D01*
X71593148Y-59939802D02*
X71594889Y-59956583D01*
X71594889Y-59956583D02*
X71597742Y-59973040D01*
X71597742Y-59973040D02*
X71601668Y-59989135D01*
X71601668Y-59989135D02*
X71606629Y-60004830D01*
X71606629Y-60004830D02*
X71612586Y-60020087D01*
X71612586Y-60020087D02*
X71619499Y-60034868D01*
X71619499Y-60034868D02*
X71627329Y-60049136D01*
X71627329Y-60049136D02*
X71636037Y-60062853D01*
X71636037Y-60062853D02*
X71645584Y-60075981D01*
X71645584Y-60075981D02*
X71655931Y-60088481D01*
X71655931Y-60088481D02*
X71667040Y-60100317D01*
X71667040Y-60100317D02*
X71678870Y-60111451D01*
X71678870Y-60111451D02*
X71691383Y-60121843D01*
X71691383Y-60121843D02*
X71704540Y-60131458D01*
X71704540Y-60131458D02*
X71718302Y-60140256D01*
X71718302Y-60140256D02*
X71718301Y-60140256D01*
X71718301Y-60140256D02*
X71718301Y-60140256D01*
G36*
X72337429Y-60490718D02*
G01*
X72131882Y-60490718D01*
X72131882Y-60177903D01*
X71925091Y-60177903D01*
X71799350Y-60490718D01*
X71573221Y-60490718D01*
X71718301Y-60140256D01*
X71718302Y-60140256D01*
X71704540Y-60131458D01*
X71691383Y-60121843D01*
X71678870Y-60111451D01*
X71667040Y-60100317D01*
X71655931Y-60088481D01*
X71645584Y-60075981D01*
X71636037Y-60062853D01*
X71627329Y-60049136D01*
X71619499Y-60034868D01*
X71612586Y-60020087D01*
X71606629Y-60004830D01*
X71601668Y-59989135D01*
X71597742Y-59973040D01*
X71594889Y-59956583D01*
X71593148Y-59939802D01*
X71592559Y-59922735D01*
X71592904Y-59909696D01*
X71593925Y-59896825D01*
X71595607Y-59884137D01*
X71597932Y-59871649D01*
X71600884Y-59859377D01*
X71604444Y-59847338D01*
X71608597Y-59835546D01*
X71613324Y-59824019D01*
X71618610Y-59812773D01*
X71624436Y-59801823D01*
X71630786Y-59791187D01*
X71637644Y-59780879D01*
X71644991Y-59770917D01*
X71652810Y-59761317D01*
X71661085Y-59752093D01*
X71669799Y-59743264D01*
X71678935Y-59734844D01*
X71688475Y-59726851D01*
X71698402Y-59719300D01*
X71708700Y-59712207D01*
X71719351Y-59705589D01*
X71730339Y-59699461D01*
X71741646Y-59693841D01*
X71753255Y-59688743D01*
X71765149Y-59684185D01*
X71777311Y-59680181D01*
X71789725Y-59676750D01*
X71802372Y-59673906D01*
X71815237Y-59671666D01*
X71828301Y-59670046D01*
X71841548Y-59669062D01*
X71854961Y-59668731D01*
X72337429Y-59668731D01*
X72337429Y-60490718D01*
G37*
X72337429Y-60490718D02*
X72131882Y-60490718D01*
X72131882Y-60177903D01*
X71925091Y-60177903D01*
X71799350Y-60490718D01*
X71573221Y-60490718D01*
X71718301Y-60140256D01*
X71718302Y-60140256D01*
X71704540Y-60131458D01*
X71691383Y-60121843D01*
X71678870Y-60111451D01*
X71667040Y-60100317D01*
X71655931Y-60088481D01*
X71645584Y-60075981D01*
X71636037Y-60062853D01*
X71627329Y-60049136D01*
X71619499Y-60034868D01*
X71612586Y-60020087D01*
X71606629Y-60004830D01*
X71601668Y-59989135D01*
X71597742Y-59973040D01*
X71594889Y-59956583D01*
X71593148Y-59939802D01*
X71592559Y-59922735D01*
X71592904Y-59909696D01*
X71593925Y-59896825D01*
X71595607Y-59884137D01*
X71597932Y-59871649D01*
X71600884Y-59859377D01*
X71604444Y-59847338D01*
X71608597Y-59835546D01*
X71613324Y-59824019D01*
X71618610Y-59812773D01*
X71624436Y-59801823D01*
X71630786Y-59791187D01*
X71637644Y-59780879D01*
X71644991Y-59770917D01*
X71652810Y-59761317D01*
X71661085Y-59752093D01*
X71669799Y-59743264D01*
X71678935Y-59734844D01*
X71688475Y-59726851D01*
X71698402Y-59719300D01*
X71708700Y-59712207D01*
X71719351Y-59705589D01*
X71730339Y-59699461D01*
X71741646Y-59693841D01*
X71753255Y-59688743D01*
X71765149Y-59684185D01*
X71777311Y-59680181D01*
X71789725Y-59676750D01*
X71802372Y-59673906D01*
X71815237Y-59671666D01*
X71828301Y-59670046D01*
X71841548Y-59669062D01*
X71854961Y-59668731D01*
X72337429Y-59668731D01*
X72337429Y-60490718D01*
D11*
X72785453Y-59409114D02*
X72789250Y-59360549D01*
X75800513Y-59663371D02*
X75791689Y-59615125D01*
D12*
X75689576Y-60570110D02*
X75577849Y-60560228D01*
D11*
X72979525Y-58886175D02*
X73008717Y-58850051D01*
X72795504Y-59603951D02*
X72789251Y-59556095D01*
X76040859Y-60124472D02*
X76009307Y-60088950D01*
X76183330Y-60250702D02*
X76145398Y-60221645D01*
X74393044Y-58720429D02*
X74428725Y-58750483D01*
X76145398Y-60221645D02*
X76108968Y-60190881D01*
X74555539Y-58886175D02*
X74582956Y-58923665D01*
X74462877Y-60134497D02*
X74428725Y-60166161D01*
X73072184Y-58782145D02*
X73106335Y-58750483D01*
X73072184Y-60134497D02*
X73039625Y-60101287D01*
D12*
X72677855Y-58534424D02*
X72769715Y-58562506D01*
X74510047Y-60291059D02*
X74431317Y-60253831D01*
X71735021Y-58383720D02*
X71848398Y-58390584D01*
D10*
X66578885Y-60077981D02*
X66579180Y-60066585D01*
X66579180Y-60066585D02*
X66580056Y-60055340D01*
X66580056Y-60055340D02*
X66581499Y-60044261D01*
X66581499Y-60044261D02*
X66583495Y-60033362D01*
X66583495Y-60033362D02*
X66586028Y-60022655D01*
X66586028Y-60022655D02*
X66589086Y-60012156D01*
X66589086Y-60012156D02*
X66592655Y-60001877D01*
X66592655Y-60001877D02*
X66596719Y-59991832D01*
X66596719Y-59991832D02*
X66601264Y-59982036D01*
X66601264Y-59982036D02*
X66606278Y-59972502D01*
X66606278Y-59972502D02*
X66611745Y-59963244D01*
X66611745Y-59963244D02*
X66617651Y-59954275D01*
X66617651Y-59954275D02*
X66623982Y-59945609D01*
X66623982Y-59945609D02*
X66630724Y-59937261D01*
X66630724Y-59937261D02*
X66637863Y-59929243D01*
X66637863Y-59929243D02*
X66645384Y-59921570D01*
X66645384Y-59921570D02*
X66653274Y-59914255D01*
X66653274Y-59914255D02*
X66661518Y-59907312D01*
X66661518Y-59907312D02*
X66670102Y-59900756D01*
X66670102Y-59900756D02*
X66679012Y-59894599D01*
X66679012Y-59894599D02*
X66688234Y-59888855D01*
X66688234Y-59888855D02*
X66697753Y-59883539D01*
X66697753Y-59883539D02*
X66707556Y-59878663D01*
X66707556Y-59878663D02*
X66717628Y-59874243D01*
X66717628Y-59874243D02*
X66727955Y-59870291D01*
X66727955Y-59870291D02*
X66738523Y-59866821D01*
X66738523Y-59866821D02*
X66749318Y-59863847D01*
X66749318Y-59863847D02*
X66760326Y-59861383D01*
X66760326Y-59861383D02*
X66771532Y-59859442D01*
X66771532Y-59859442D02*
X66782922Y-59858039D01*
X66782922Y-59858039D02*
X66794482Y-59857187D01*
X66794482Y-59857187D02*
X66806198Y-59856900D01*
X66806198Y-59856900D02*
X66817809Y-59857187D01*
X66817809Y-59857187D02*
X66829278Y-59858039D01*
X66829278Y-59858039D02*
X66840589Y-59859442D01*
X66840589Y-59859442D02*
X66851729Y-59861383D01*
X66851729Y-59861383D02*
X66862682Y-59863847D01*
X66862682Y-59863847D02*
X66873433Y-59866821D01*
X66873433Y-59866821D02*
X66883967Y-59870291D01*
X66883967Y-59870291D02*
X66894271Y-59874243D01*
X66894271Y-59874243D02*
X66904328Y-59878663D01*
X66904328Y-59878663D02*
X66914124Y-59883539D01*
X66914124Y-59883539D02*
X66923644Y-59888855D01*
X66923644Y-59888855D02*
X66932873Y-59894599D01*
X66932873Y-59894599D02*
X66941797Y-59900756D01*
X66941797Y-59900756D02*
X66950401Y-59907312D01*
X66950401Y-59907312D02*
X66958669Y-59914255D01*
X66958669Y-59914255D02*
X66966587Y-59921570D01*
X66966587Y-59921570D02*
X66974140Y-59929243D01*
X66974140Y-59929243D02*
X66981314Y-59937261D01*
X66981314Y-59937261D02*
X66988093Y-59945609D01*
X66988093Y-59945609D02*
X66994462Y-59954275D01*
X66994462Y-59954275D02*
X67000408Y-59963244D01*
X67000408Y-59963244D02*
X67005914Y-59972502D01*
X67005914Y-59972502D02*
X67010966Y-59982036D01*
X67010966Y-59982036D02*
X67015549Y-59991832D01*
X67015549Y-59991832D02*
X67019649Y-60001877D01*
X67019649Y-60001877D02*
X67023250Y-60012156D01*
X67023250Y-60012156D02*
X67026338Y-60022655D01*
X67026338Y-60022655D02*
X67028898Y-60033362D01*
X67028898Y-60033362D02*
X67030914Y-60044261D01*
X67030914Y-60044261D02*
X67032373Y-60055340D01*
X67032373Y-60055340D02*
X67033260Y-60066585D01*
X67033260Y-60066585D02*
X67033558Y-60077981D01*
X67033558Y-60077981D02*
X67033260Y-60089374D01*
X67033260Y-60089374D02*
X67032373Y-60100616D01*
X67032373Y-60100616D02*
X67030914Y-60111692D01*
X67030914Y-60111692D02*
X67028898Y-60122589D01*
X67028898Y-60122589D02*
X67026338Y-60133293D01*
X67026338Y-60133293D02*
X67023250Y-60143790D01*
X67023250Y-60143790D02*
X67019649Y-60154067D01*
X67019649Y-60154067D02*
X67015549Y-60164109D01*
X67015549Y-60164109D02*
X67010966Y-60173904D01*
X67010966Y-60173904D02*
X67005914Y-60183436D01*
X67005914Y-60183436D02*
X67000408Y-60192693D01*
X67000408Y-60192693D02*
X66994462Y-60201661D01*
X66994462Y-60201661D02*
X66988093Y-60210325D01*
X66988093Y-60210325D02*
X66981314Y-60218673D01*
X66981314Y-60218673D02*
X66974140Y-60226689D01*
X66974140Y-60226689D02*
X66966587Y-60234362D01*
X66966587Y-60234362D02*
X66958669Y-60241676D01*
X66958669Y-60241676D02*
X66950401Y-60248618D01*
X66950401Y-60248618D02*
X66941797Y-60255174D01*
X66941797Y-60255174D02*
X66932873Y-60261331D01*
X66932873Y-60261331D02*
X66923644Y-60267074D01*
X66923644Y-60267074D02*
X66914124Y-60272390D01*
X66914124Y-60272390D02*
X66904328Y-60277265D01*
X66904328Y-60277265D02*
X66894271Y-60281686D01*
X66894271Y-60281686D02*
X66883967Y-60285638D01*
X66883967Y-60285638D02*
X66873433Y-60289107D01*
X66873433Y-60289107D02*
X66862682Y-60292081D01*
X66862682Y-60292081D02*
X66851729Y-60294545D01*
X66851729Y-60294545D02*
X66840589Y-60296485D01*
X66840589Y-60296485D02*
X66829278Y-60297889D01*
X66829278Y-60297889D02*
X66817809Y-60298740D01*
X66817809Y-60298740D02*
X66806198Y-60299028D01*
X66806198Y-60299028D02*
X66794482Y-60298740D01*
X66794482Y-60298740D02*
X66782922Y-60297889D01*
X66782922Y-60297889D02*
X66771532Y-60296485D01*
X66771532Y-60296485D02*
X66760326Y-60294545D01*
X66760326Y-60294545D02*
X66749318Y-60292081D01*
X66749318Y-60292081D02*
X66738523Y-60289107D01*
X66738523Y-60289107D02*
X66727955Y-60285638D01*
X66727955Y-60285638D02*
X66717628Y-60281686D01*
X66717628Y-60281686D02*
X66707556Y-60277265D01*
X66707556Y-60277265D02*
X66697753Y-60272390D01*
X66697753Y-60272390D02*
X66688234Y-60267074D01*
X66688234Y-60267074D02*
X66679012Y-60261331D01*
X66679012Y-60261331D02*
X66670102Y-60255174D01*
X66670102Y-60255174D02*
X66661518Y-60248618D01*
X66661518Y-60248618D02*
X66653274Y-60241676D01*
X66653274Y-60241676D02*
X66645384Y-60234362D01*
X66645384Y-60234362D02*
X66637863Y-60226689D01*
X66637863Y-60226689D02*
X66630724Y-60218673D01*
X66630724Y-60218673D02*
X66623982Y-60210325D01*
X66623982Y-60210325D02*
X66617651Y-60201661D01*
X66617651Y-60201661D02*
X66611745Y-60192693D01*
X66611745Y-60192693D02*
X66606278Y-60183436D01*
X66606278Y-60183436D02*
X66601264Y-60173904D01*
X66601264Y-60173904D02*
X66596719Y-60164109D01*
X66596719Y-60164109D02*
X66592655Y-60154067D01*
X66592655Y-60154067D02*
X66589086Y-60143790D01*
X66589086Y-60143790D02*
X66586028Y-60133293D01*
X66586028Y-60133293D02*
X66583495Y-60122589D01*
X66583495Y-60122589D02*
X66581499Y-60111692D01*
X66581499Y-60111692D02*
X66580056Y-60100616D01*
X66580056Y-60100616D02*
X66579180Y-60089374D01*
X66579180Y-60089374D02*
X66578885Y-60077981D01*
X66578885Y-60077981D02*
X66578885Y-60077981D01*
G36*
X66817809Y-59857187D02*
G01*
X66829278Y-59858039D01*
X66840589Y-59859442D01*
X66851729Y-59861383D01*
X66862682Y-59863847D01*
X66873433Y-59866821D01*
X66883967Y-59870291D01*
X66894271Y-59874243D01*
X66904328Y-59878663D01*
X66914124Y-59883539D01*
X66923644Y-59888855D01*
X66932873Y-59894599D01*
X66941797Y-59900756D01*
X66950401Y-59907312D01*
X66958669Y-59914255D01*
X66966587Y-59921570D01*
X66974140Y-59929243D01*
X66981314Y-59937261D01*
X66988093Y-59945609D01*
X66994462Y-59954275D01*
X67000408Y-59963244D01*
X67005914Y-59972502D01*
X67010966Y-59982036D01*
X67015549Y-59991832D01*
X67019649Y-60001877D01*
X67023250Y-60012156D01*
X67026338Y-60022655D01*
X67028898Y-60033362D01*
X67030914Y-60044261D01*
X67032373Y-60055340D01*
X67033260Y-60066585D01*
X67033558Y-60077981D01*
X67033260Y-60089374D01*
X67032373Y-60100616D01*
X67030914Y-60111692D01*
X67028898Y-60122589D01*
X67026338Y-60133293D01*
X67023250Y-60143790D01*
X67019649Y-60154067D01*
X67015549Y-60164109D01*
X67010966Y-60173904D01*
X67005914Y-60183436D01*
X67000408Y-60192693D01*
X66994462Y-60201661D01*
X66988093Y-60210325D01*
X66981314Y-60218673D01*
X66974140Y-60226689D01*
X66966587Y-60234362D01*
X66958669Y-60241676D01*
X66950401Y-60248618D01*
X66941797Y-60255174D01*
X66932873Y-60261331D01*
X66923644Y-60267074D01*
X66914124Y-60272390D01*
X66904328Y-60277265D01*
X66894271Y-60281686D01*
X66883967Y-60285638D01*
X66873433Y-60289107D01*
X66862682Y-60292081D01*
X66851729Y-60294545D01*
X66840589Y-60296485D01*
X66829278Y-60297889D01*
X66817809Y-60298740D01*
X66806198Y-60299028D01*
X66794482Y-60298740D01*
X66782922Y-60297889D01*
X66771532Y-60296485D01*
X66760326Y-60294545D01*
X66749318Y-60292081D01*
X66738523Y-60289107D01*
X66727955Y-60285638D01*
X66717628Y-60281686D01*
X66707556Y-60277265D01*
X66697753Y-60272390D01*
X66688234Y-60267074D01*
X66679012Y-60261331D01*
X66670102Y-60255174D01*
X66661518Y-60248618D01*
X66653274Y-60241676D01*
X66645384Y-60234362D01*
X66637863Y-60226689D01*
X66630724Y-60218673D01*
X66623982Y-60210325D01*
X66617651Y-60201661D01*
X66611745Y-60192693D01*
X66606278Y-60183436D01*
X66601264Y-60173904D01*
X66596719Y-60164109D01*
X66592655Y-60154067D01*
X66589086Y-60143790D01*
X66586028Y-60133293D01*
X66583495Y-60122589D01*
X66581499Y-60111692D01*
X66580056Y-60100616D01*
X66579180Y-60089374D01*
X66578885Y-60077981D01*
X66579180Y-60066585D01*
X66580056Y-60055340D01*
X66581499Y-60044261D01*
X66583495Y-60033362D01*
X66586028Y-60022655D01*
X66589086Y-60012156D01*
X66592655Y-60001877D01*
X66596719Y-59991832D01*
X66601264Y-59982036D01*
X66606278Y-59972502D01*
X66611745Y-59963244D01*
X66617651Y-59954275D01*
X66623982Y-59945609D01*
X66630724Y-59937261D01*
X66637863Y-59929243D01*
X66645384Y-59921570D01*
X66653274Y-59914255D01*
X66661518Y-59907312D01*
X66670102Y-59900756D01*
X66679012Y-59894599D01*
X66688234Y-59888855D01*
X66697753Y-59883539D01*
X66707556Y-59878663D01*
X66717628Y-59874243D01*
X66727955Y-59870291D01*
X66738523Y-59866821D01*
X66749318Y-59863847D01*
X66760326Y-59861383D01*
X66771532Y-59859442D01*
X66782922Y-59858039D01*
X66794482Y-59857187D01*
X66806198Y-59856900D01*
X66817809Y-59857187D01*
G37*
X66817809Y-59857187D02*
X66829278Y-59858039D01*
X66840589Y-59859442D01*
X66851729Y-59861383D01*
X66862682Y-59863847D01*
X66873433Y-59866821D01*
X66883967Y-59870291D01*
X66894271Y-59874243D01*
X66904328Y-59878663D01*
X66914124Y-59883539D01*
X66923644Y-59888855D01*
X66932873Y-59894599D01*
X66941797Y-59900756D01*
X66950401Y-59907312D01*
X66958669Y-59914255D01*
X66966587Y-59921570D01*
X66974140Y-59929243D01*
X66981314Y-59937261D01*
X66988093Y-59945609D01*
X66994462Y-59954275D01*
X67000408Y-59963244D01*
X67005914Y-59972502D01*
X67010966Y-59982036D01*
X67015549Y-59991832D01*
X67019649Y-60001877D01*
X67023250Y-60012156D01*
X67026338Y-60022655D01*
X67028898Y-60033362D01*
X67030914Y-60044261D01*
X67032373Y-60055340D01*
X67033260Y-60066585D01*
X67033558Y-60077981D01*
X67033260Y-60089374D01*
X67032373Y-60100616D01*
X67030914Y-60111692D01*
X67028898Y-60122589D01*
X67026338Y-60133293D01*
X67023250Y-60143790D01*
X67019649Y-60154067D01*
X67015549Y-60164109D01*
X67010966Y-60173904D01*
X67005914Y-60183436D01*
X67000408Y-60192693D01*
X66994462Y-60201661D01*
X66988093Y-60210325D01*
X66981314Y-60218673D01*
X66974140Y-60226689D01*
X66966587Y-60234362D01*
X66958669Y-60241676D01*
X66950401Y-60248618D01*
X66941797Y-60255174D01*
X66932873Y-60261331D01*
X66923644Y-60267074D01*
X66914124Y-60272390D01*
X66904328Y-60277265D01*
X66894271Y-60281686D01*
X66883967Y-60285638D01*
X66873433Y-60289107D01*
X66862682Y-60292081D01*
X66851729Y-60294545D01*
X66840589Y-60296485D01*
X66829278Y-60297889D01*
X66817809Y-60298740D01*
X66806198Y-60299028D01*
X66794482Y-60298740D01*
X66782922Y-60297889D01*
X66771532Y-60296485D01*
X66760326Y-60294545D01*
X66749318Y-60292081D01*
X66738523Y-60289107D01*
X66727955Y-60285638D01*
X66717628Y-60281686D01*
X66707556Y-60277265D01*
X66697753Y-60272390D01*
X66688234Y-60267074D01*
X66679012Y-60261331D01*
X66670102Y-60255174D01*
X66661518Y-60248618D01*
X66653274Y-60241676D01*
X66645384Y-60234362D01*
X66637863Y-60226689D01*
X66630724Y-60218673D01*
X66623982Y-60210325D01*
X66617651Y-60201661D01*
X66611745Y-60192693D01*
X66606278Y-60183436D01*
X66601264Y-60173904D01*
X66596719Y-60164109D01*
X66592655Y-60154067D01*
X66589086Y-60143790D01*
X66586028Y-60133293D01*
X66583495Y-60122589D01*
X66581499Y-60111692D01*
X66580056Y-60100616D01*
X66579180Y-60089374D01*
X66578885Y-60077981D01*
X66579180Y-60066585D01*
X66580056Y-60055340D01*
X66581499Y-60044261D01*
X66583495Y-60033362D01*
X66586028Y-60022655D01*
X66589086Y-60012156D01*
X66592655Y-60001877D01*
X66596719Y-59991832D01*
X66601264Y-59982036D01*
X66606278Y-59972502D01*
X66611745Y-59963244D01*
X66617651Y-59954275D01*
X66623982Y-59945609D01*
X66630724Y-59937261D01*
X66637863Y-59929243D01*
X66645384Y-59921570D01*
X66653274Y-59914255D01*
X66661518Y-59907312D01*
X66670102Y-59900756D01*
X66679012Y-59894599D01*
X66688234Y-59888855D01*
X66697753Y-59883539D01*
X66707556Y-59878663D01*
X66717628Y-59874243D01*
X66727955Y-59870291D01*
X66738523Y-59866821D01*
X66749318Y-59863847D01*
X66760326Y-59861383D01*
X66771532Y-59859442D01*
X66782922Y-59858039D01*
X66794482Y-59857187D01*
X66806198Y-59856900D01*
X66817809Y-59857187D01*
D12*
X71848398Y-58390584D02*
X71959952Y-58400075D01*
D10*
X68210198Y-60077981D02*
X68210761Y-60099671D01*
X68210761Y-60099671D02*
X68212430Y-60121073D01*
X68212430Y-60121073D02*
X68215179Y-60142161D01*
X68215179Y-60142161D02*
X68218980Y-60162909D01*
X68218980Y-60162909D02*
X68223808Y-60183289D01*
X68223808Y-60183289D02*
X68229634Y-60203276D01*
X68229634Y-60203276D02*
X68236431Y-60222844D01*
X68236431Y-60222844D02*
X68244174Y-60241967D01*
X68244174Y-60241967D02*
X68252834Y-60260617D01*
X68252834Y-60260617D02*
X68262384Y-60278770D01*
X68262384Y-60278770D02*
X68272798Y-60296398D01*
X68272798Y-60296398D02*
X68284049Y-60313475D01*
X68284049Y-60313475D02*
X68296109Y-60329975D01*
X68296109Y-60329975D02*
X68308951Y-60345872D01*
X68308951Y-60345872D02*
X68322549Y-60361140D01*
X68322549Y-60361140D02*
X68336875Y-60375752D01*
X68336875Y-60375752D02*
X68351903Y-60389681D01*
X68351903Y-60389681D02*
X68367605Y-60402903D01*
X68367605Y-60402903D02*
X68383954Y-60415390D01*
X68383954Y-60415390D02*
X68400924Y-60427115D01*
X68400924Y-60427115D02*
X68418487Y-60438054D01*
X68418487Y-60438054D02*
X68436616Y-60448180D01*
X68436616Y-60448180D02*
X68455284Y-60457466D01*
X68455284Y-60457466D02*
X68474465Y-60465885D01*
X68474465Y-60465885D02*
X68494130Y-60473413D01*
X68494130Y-60473413D02*
X68514254Y-60480022D01*
X68514254Y-60480022D02*
X68534809Y-60485687D01*
X68534809Y-60485687D02*
X68555768Y-60490380D01*
X68555768Y-60490380D02*
X68577104Y-60494077D01*
X68577104Y-60494077D02*
X68598790Y-60496749D01*
X68598790Y-60496749D02*
X68620799Y-60498372D01*
X68620799Y-60498372D02*
X68643104Y-60498919D01*
X68643104Y-60498919D02*
X68665304Y-60498372D01*
X68665304Y-60498372D02*
X68687222Y-60496749D01*
X68687222Y-60496749D02*
X68708829Y-60494077D01*
X68708829Y-60494077D02*
X68730098Y-60490380D01*
X68730098Y-60490380D02*
X68751001Y-60485687D01*
X68751001Y-60485687D02*
X68771511Y-60480022D01*
X68771511Y-60480022D02*
X68791600Y-60473413D01*
X68791600Y-60473413D02*
X68811240Y-60465885D01*
X68811240Y-60465885D02*
X68830404Y-60457466D01*
X68830404Y-60457466D02*
X68849064Y-60448180D01*
X68849064Y-60448180D02*
X68867192Y-60438054D01*
X68867192Y-60438054D02*
X68884760Y-60427115D01*
X68884760Y-60427115D02*
X68901742Y-60415390D01*
X68901742Y-60415390D02*
X68918108Y-60402903D01*
X68918108Y-60402903D02*
X68933832Y-60389681D01*
X68933832Y-60389681D02*
X68948886Y-60375752D01*
X68948886Y-60375752D02*
X68963242Y-60361140D01*
X68963242Y-60361140D02*
X68976873Y-60345872D01*
X68976873Y-60345872D02*
X68989750Y-60329975D01*
X68989750Y-60329975D02*
X69001846Y-60313475D01*
X69001846Y-60313475D02*
X69013133Y-60296398D01*
X69013133Y-60296398D02*
X69023585Y-60278770D01*
X69023585Y-60278770D02*
X69033172Y-60260617D01*
X69033172Y-60260617D02*
X69041868Y-60241967D01*
X69041868Y-60241967D02*
X69049644Y-60222844D01*
X69049644Y-60222844D02*
X69056473Y-60203276D01*
X69056473Y-60203276D02*
X69062328Y-60183289D01*
X69062328Y-60183289D02*
X69067180Y-60162909D01*
X69067180Y-60162909D02*
X69071002Y-60142161D01*
X69071002Y-60142161D02*
X69073767Y-60121073D01*
X69073767Y-60121073D02*
X69075446Y-60099671D01*
X69075446Y-60099671D02*
X69076011Y-60077981D01*
X69076011Y-60077981D02*
X69075446Y-60056389D01*
X69075446Y-60056389D02*
X69073767Y-60035072D01*
X69073767Y-60035072D02*
X69071002Y-60014057D01*
X69071002Y-60014057D02*
X69067180Y-59993371D01*
X69067180Y-59993371D02*
X69062328Y-59973041D01*
X69062328Y-59973041D02*
X69056473Y-59953093D01*
X69056473Y-59953093D02*
X69049644Y-59933555D01*
X69049644Y-59933555D02*
X69041868Y-59914454D01*
X69041868Y-59914454D02*
X69033172Y-59895816D01*
X69033172Y-59895816D02*
X69023585Y-59877669D01*
X69023585Y-59877669D02*
X69013133Y-59860039D01*
X69013133Y-59860039D02*
X69001846Y-59842953D01*
X69001846Y-59842953D02*
X68989750Y-59826438D01*
X68989750Y-59826438D02*
X68976873Y-59810521D01*
X68976873Y-59810521D02*
X68963242Y-59795229D01*
X68963242Y-59795229D02*
X68948886Y-59780589D01*
X68948886Y-59780589D02*
X68933832Y-59766628D01*
X68933832Y-59766628D02*
X68918108Y-59753373D01*
X68918108Y-59753373D02*
X68901742Y-59740850D01*
X68901742Y-59740850D02*
X68884760Y-59729087D01*
X68884760Y-59729087D02*
X68867192Y-59718110D01*
X68867192Y-59718110D02*
X68849064Y-59707946D01*
X68849064Y-59707946D02*
X68830404Y-59698622D01*
X68830404Y-59698622D02*
X68811240Y-59690166D01*
X68811240Y-59690166D02*
X68791600Y-59682604D01*
X68791600Y-59682604D02*
X68771511Y-59675963D01*
X68771511Y-59675963D02*
X68751001Y-59670270D01*
X68751001Y-59670270D02*
X68730098Y-59665551D01*
X68730098Y-59665551D02*
X68708829Y-59661834D01*
X68708829Y-59661834D02*
X68687222Y-59659146D01*
X68687222Y-59659146D02*
X68665304Y-59657513D01*
X68665304Y-59657513D02*
X68643104Y-59656963D01*
X68643104Y-59656963D02*
X68620799Y-59657513D01*
X68620799Y-59657513D02*
X68598790Y-59659146D01*
X68598790Y-59659146D02*
X68577104Y-59661834D01*
X68577104Y-59661834D02*
X68555768Y-59665551D01*
X68555768Y-59665551D02*
X68534809Y-59670270D01*
X68534809Y-59670270D02*
X68514254Y-59675963D01*
X68514254Y-59675963D02*
X68494130Y-59682604D01*
X68494130Y-59682604D02*
X68474464Y-59690166D01*
X68474464Y-59690166D02*
X68455284Y-59698622D01*
X68455284Y-59698622D02*
X68436615Y-59707946D01*
X68436615Y-59707946D02*
X68418486Y-59718110D01*
X68418486Y-59718110D02*
X68400923Y-59729087D01*
X68400923Y-59729087D02*
X68383954Y-59740850D01*
X68383954Y-59740850D02*
X68367604Y-59753373D01*
X68367604Y-59753373D02*
X68351902Y-59766628D01*
X68351902Y-59766628D02*
X68336875Y-59780589D01*
X68336875Y-59780589D02*
X68322548Y-59795229D01*
X68322548Y-59795229D02*
X68308951Y-59810521D01*
X68308951Y-59810521D02*
X68296108Y-59826438D01*
X68296108Y-59826438D02*
X68284048Y-59842953D01*
X68284048Y-59842953D02*
X68272798Y-59860039D01*
X68272798Y-59860039D02*
X68262384Y-59877669D01*
X68262384Y-59877669D02*
X68252833Y-59895816D01*
X68252833Y-59895816D02*
X68244174Y-59914454D01*
X68244174Y-59914454D02*
X68236431Y-59933555D01*
X68236431Y-59933555D02*
X68229634Y-59953093D01*
X68229634Y-59953093D02*
X68223808Y-59973041D01*
X68223808Y-59973041D02*
X68218980Y-59993371D01*
X68218980Y-59993371D02*
X68215179Y-60014057D01*
X68215179Y-60014057D02*
X68212430Y-60035072D01*
X68212430Y-60035072D02*
X68210761Y-60056389D01*
X68210761Y-60056389D02*
X68210198Y-60077981D01*
X68210198Y-60077981D02*
X68210198Y-60077981D01*
G36*
X68665304Y-59657513D02*
G01*
X68687222Y-59659146D01*
X68708829Y-59661834D01*
X68730098Y-59665551D01*
X68751001Y-59670270D01*
X68771511Y-59675963D01*
X68791600Y-59682604D01*
X68811240Y-59690166D01*
X68830404Y-59698622D01*
X68849064Y-59707946D01*
X68867192Y-59718110D01*
X68884760Y-59729087D01*
X68901742Y-59740850D01*
X68918108Y-59753373D01*
X68933832Y-59766628D01*
X68948886Y-59780589D01*
X68963242Y-59795229D01*
X68976873Y-59810521D01*
X68989750Y-59826438D01*
X69001846Y-59842953D01*
X69013133Y-59860039D01*
X69023585Y-59877669D01*
X69033172Y-59895816D01*
X69041868Y-59914454D01*
X69049644Y-59933555D01*
X69056473Y-59953093D01*
X69062328Y-59973041D01*
X69067180Y-59993371D01*
X69071002Y-60014057D01*
X69073767Y-60035072D01*
X69075446Y-60056389D01*
X69076011Y-60077981D01*
X69075446Y-60099671D01*
X69073767Y-60121073D01*
X69071002Y-60142161D01*
X69067180Y-60162909D01*
X69062328Y-60183289D01*
X69056473Y-60203276D01*
X69049644Y-60222844D01*
X69041868Y-60241967D01*
X69033172Y-60260617D01*
X69023585Y-60278770D01*
X69013133Y-60296398D01*
X69001846Y-60313475D01*
X68989750Y-60329975D01*
X68976873Y-60345872D01*
X68963242Y-60361140D01*
X68948886Y-60375752D01*
X68933832Y-60389681D01*
X68918108Y-60402903D01*
X68901742Y-60415390D01*
X68884760Y-60427115D01*
X68867192Y-60438054D01*
X68849064Y-60448180D01*
X68830404Y-60457466D01*
X68811240Y-60465885D01*
X68791600Y-60473413D01*
X68771511Y-60480022D01*
X68751001Y-60485687D01*
X68730098Y-60490380D01*
X68708829Y-60494077D01*
X68687222Y-60496749D01*
X68665304Y-60498372D01*
X68643104Y-60498919D01*
X68620799Y-60498372D01*
X68598790Y-60496749D01*
X68577104Y-60494077D01*
X68555768Y-60490380D01*
X68534809Y-60485687D01*
X68514254Y-60480022D01*
X68494130Y-60473413D01*
X68474465Y-60465885D01*
X68455284Y-60457466D01*
X68436616Y-60448180D01*
X68418487Y-60438054D01*
X68400924Y-60427115D01*
X68383954Y-60415390D01*
X68367605Y-60402903D01*
X68351903Y-60389681D01*
X68336875Y-60375752D01*
X68322549Y-60361140D01*
X68308951Y-60345872D01*
X68296109Y-60329975D01*
X68284049Y-60313475D01*
X68272798Y-60296398D01*
X68262384Y-60278770D01*
X68252834Y-60260617D01*
X68244174Y-60241967D01*
X68236431Y-60222844D01*
X68229634Y-60203276D01*
X68223808Y-60183289D01*
X68218980Y-60162909D01*
X68215179Y-60142161D01*
X68212430Y-60121073D01*
X68210761Y-60099671D01*
X68210198Y-60077981D01*
X68210761Y-60056389D01*
X68212430Y-60035072D01*
X68215179Y-60014057D01*
X68218980Y-59993371D01*
X68223808Y-59973041D01*
X68229634Y-59953093D01*
X68236431Y-59933555D01*
X68244174Y-59914454D01*
X68252833Y-59895816D01*
X68262384Y-59877669D01*
X68272798Y-59860039D01*
X68284048Y-59842953D01*
X68296108Y-59826438D01*
X68308951Y-59810521D01*
X68322548Y-59795229D01*
X68336875Y-59780589D01*
X68351902Y-59766628D01*
X68367604Y-59753373D01*
X68383954Y-59740850D01*
X68400923Y-59729087D01*
X68418486Y-59718110D01*
X68436615Y-59707946D01*
X68455284Y-59698622D01*
X68474464Y-59690166D01*
X68494130Y-59682604D01*
X68514254Y-59675963D01*
X68534809Y-59670270D01*
X68555768Y-59665551D01*
X68577104Y-59661834D01*
X68598790Y-59659146D01*
X68620799Y-59657513D01*
X68643104Y-59656963D01*
X68665304Y-59657513D01*
G37*
X68665304Y-59657513D02*
X68687222Y-59659146D01*
X68708829Y-59661834D01*
X68730098Y-59665551D01*
X68751001Y-59670270D01*
X68771511Y-59675963D01*
X68791600Y-59682604D01*
X68811240Y-59690166D01*
X68830404Y-59698622D01*
X68849064Y-59707946D01*
X68867192Y-59718110D01*
X68884760Y-59729087D01*
X68901742Y-59740850D01*
X68918108Y-59753373D01*
X68933832Y-59766628D01*
X68948886Y-59780589D01*
X68963242Y-59795229D01*
X68976873Y-59810521D01*
X68989750Y-59826438D01*
X69001846Y-59842953D01*
X69013133Y-59860039D01*
X69023585Y-59877669D01*
X69033172Y-59895816D01*
X69041868Y-59914454D01*
X69049644Y-59933555D01*
X69056473Y-59953093D01*
X69062328Y-59973041D01*
X69067180Y-59993371D01*
X69071002Y-60014057D01*
X69073767Y-60035072D01*
X69075446Y-60056389D01*
X69076011Y-60077981D01*
X69075446Y-60099671D01*
X69073767Y-60121073D01*
X69071002Y-60142161D01*
X69067180Y-60162909D01*
X69062328Y-60183289D01*
X69056473Y-60203276D01*
X69049644Y-60222844D01*
X69041868Y-60241967D01*
X69033172Y-60260617D01*
X69023585Y-60278770D01*
X69013133Y-60296398D01*
X69001846Y-60313475D01*
X68989750Y-60329975D01*
X68976873Y-60345872D01*
X68963242Y-60361140D01*
X68948886Y-60375752D01*
X68933832Y-60389681D01*
X68918108Y-60402903D01*
X68901742Y-60415390D01*
X68884760Y-60427115D01*
X68867192Y-60438054D01*
X68849064Y-60448180D01*
X68830404Y-60457466D01*
X68811240Y-60465885D01*
X68791600Y-60473413D01*
X68771511Y-60480022D01*
X68751001Y-60485687D01*
X68730098Y-60490380D01*
X68708829Y-60494077D01*
X68687222Y-60496749D01*
X68665304Y-60498372D01*
X68643104Y-60498919D01*
X68620799Y-60498372D01*
X68598790Y-60496749D01*
X68577104Y-60494077D01*
X68555768Y-60490380D01*
X68534809Y-60485687D01*
X68514254Y-60480022D01*
X68494130Y-60473413D01*
X68474465Y-60465885D01*
X68455284Y-60457466D01*
X68436616Y-60448180D01*
X68418487Y-60438054D01*
X68400924Y-60427115D01*
X68383954Y-60415390D01*
X68367605Y-60402903D01*
X68351903Y-60389681D01*
X68336875Y-60375752D01*
X68322549Y-60361140D01*
X68308951Y-60345872D01*
X68296109Y-60329975D01*
X68284049Y-60313475D01*
X68272798Y-60296398D01*
X68262384Y-60278770D01*
X68252834Y-60260617D01*
X68244174Y-60241967D01*
X68236431Y-60222844D01*
X68229634Y-60203276D01*
X68223808Y-60183289D01*
X68218980Y-60162909D01*
X68215179Y-60142161D01*
X68212430Y-60121073D01*
X68210761Y-60099671D01*
X68210198Y-60077981D01*
X68210761Y-60056389D01*
X68212430Y-60035072D01*
X68215179Y-60014057D01*
X68218980Y-59993371D01*
X68223808Y-59973041D01*
X68229634Y-59953093D01*
X68236431Y-59933555D01*
X68244174Y-59914454D01*
X68252833Y-59895816D01*
X68262384Y-59877669D01*
X68272798Y-59860039D01*
X68284048Y-59842953D01*
X68296108Y-59826438D01*
X68308951Y-59810521D01*
X68322548Y-59795229D01*
X68336875Y-59780589D01*
X68351902Y-59766628D01*
X68367604Y-59753373D01*
X68383954Y-59740850D01*
X68400923Y-59729087D01*
X68418486Y-59718110D01*
X68436615Y-59707946D01*
X68455284Y-59698622D01*
X68474464Y-59690166D01*
X68494130Y-59682604D01*
X68514254Y-59675963D01*
X68534809Y-59670270D01*
X68555768Y-59665551D01*
X68577104Y-59661834D01*
X68598790Y-59659146D01*
X68620799Y-59657513D01*
X68643104Y-59656963D01*
X68665304Y-59657513D01*
D11*
X73217718Y-58665382D02*
X73257616Y-58640510D01*
D12*
X74217729Y-60131500D02*
X74154539Y-60087408D01*
X72385094Y-58462970D02*
X72485402Y-58484588D01*
D11*
X77588363Y-60054603D02*
X77616700Y-60016462D01*
X74730924Y-59651041D02*
X74719943Y-59697305D01*
D12*
X73838870Y-59739591D02*
X73813571Y-59685151D01*
D11*
X74739572Y-59603951D02*
X74730924Y-59651041D01*
D12*
X73741479Y-59293720D02*
X73755866Y-59347808D01*
D11*
X74105649Y-60356557D02*
X74059958Y-60371591D01*
X73341198Y-58596369D02*
X73384758Y-58577220D01*
D12*
X75255052Y-60514868D02*
X75152054Y-60494745D01*
D11*
X74428725Y-58750483D02*
X74462877Y-58782145D01*
X74193863Y-58596369D02*
X74236263Y-58617486D01*
X75841016Y-59802762D02*
X75825239Y-59757251D01*
D12*
X73764601Y-59402699D02*
X73767545Y-59458325D01*
D11*
X76074100Y-60158469D02*
X76040859Y-60124472D01*
X72843841Y-59129524D02*
X72861447Y-59086098D01*
X76438909Y-60385735D02*
X76393294Y-60368215D01*
X73818147Y-60413339D02*
X73767545Y-60414584D01*
X73142016Y-60196217D02*
X73106336Y-60166161D01*
X73868084Y-58507014D02*
X73917296Y-58513095D01*
X74608535Y-59954174D02*
X74582956Y-59992973D01*
X72784174Y-59458325D02*
X72784174Y-59458325D01*
X73008717Y-58850051D02*
X73039624Y-58815355D01*
X74059958Y-58545066D02*
X74105648Y-58560099D01*
X74317342Y-60251266D02*
X74277444Y-60276140D01*
X77729138Y-59806620D02*
X77745332Y-59761249D01*
D12*
X73250830Y-58771044D02*
X73318018Y-58811843D01*
D11*
X76831623Y-60439910D02*
X76882693Y-60436575D01*
X73179164Y-58692042D02*
X73217718Y-58665382D01*
D12*
X75152054Y-60494745D02*
X75051592Y-60472237D01*
D11*
X72784174Y-59458325D02*
X72785453Y-59409114D01*
X76982596Y-60422616D02*
X77031303Y-60412113D01*
D12*
X75051592Y-60472237D02*
X74953810Y-60447415D01*
D11*
X73384758Y-58577220D02*
X73429415Y-58560099D01*
X73298797Y-58617486D02*
X73341198Y-58596369D01*
X73341199Y-60320284D02*
X73298797Y-60299166D01*
X74193863Y-60320284D02*
X74150304Y-60339434D01*
X73716938Y-60413339D02*
X73666995Y-60409647D01*
X73298797Y-60299166D02*
X73257617Y-60276140D01*
X75879082Y-59890620D02*
X75858985Y-59847239D01*
D12*
X73696322Y-59188221D02*
X73721584Y-59240502D01*
D11*
X73767544Y-58502077D02*
X73818146Y-58503322D01*
X72952109Y-58923665D02*
X72979525Y-58886175D01*
D12*
X74677955Y-60359769D02*
X74592307Y-60326395D01*
D11*
X74013295Y-60384477D02*
X73965720Y-60395155D01*
X74706692Y-59742682D02*
X74691231Y-59787114D01*
D12*
X73665835Y-59136945D02*
X73696322Y-59188221D01*
X74041021Y-59994676D02*
X73990976Y-59946176D01*
D10*
X67831659Y-59902731D02*
X67828047Y-59910977D01*
X67828047Y-59910977D02*
X67826539Y-59913461D01*
X67826539Y-59913461D02*
X67824962Y-59915845D01*
X67824962Y-59915845D02*
X67823318Y-59918133D01*
X67823318Y-59918133D02*
X67821611Y-59920327D01*
X67821611Y-59920327D02*
X67819841Y-59922430D01*
X67819841Y-59922430D02*
X67818012Y-59924447D01*
X67818012Y-59924447D02*
X67816125Y-59926380D01*
X67816125Y-59926380D02*
X67814183Y-59928232D01*
X67814183Y-59928232D02*
X67812188Y-59930007D01*
X67812188Y-59930007D02*
X67810141Y-59931707D01*
X67810141Y-59931707D02*
X67805905Y-59934899D01*
X67805905Y-59934899D02*
X67801491Y-59937832D01*
X67801491Y-59937832D02*
X67796918Y-59940533D01*
X67796918Y-59940533D02*
X67792203Y-59943027D01*
X67792203Y-59943027D02*
X67787365Y-59945340D01*
X67787365Y-59945340D02*
X67782420Y-59947498D01*
X67782420Y-59947498D02*
X67777386Y-59949526D01*
X67777386Y-59949526D02*
X67772282Y-59951450D01*
X67772282Y-59951450D02*
X67767124Y-59953296D01*
X67767124Y-59953296D02*
X67756720Y-59956857D01*
X67756720Y-59956857D02*
X67732518Y-59964102D01*
X67732518Y-59964102D02*
X67708080Y-59971006D01*
X67708080Y-59971006D02*
X67658892Y-59984618D01*
X67658892Y-59984618D02*
X67634338Y-59991737D01*
X67634338Y-59991737D02*
X67609942Y-59999340D01*
X67609942Y-59999340D02*
X67585804Y-60007631D01*
X67585804Y-60007631D02*
X67573862Y-60012100D01*
X67573862Y-60012100D02*
X67562021Y-60016819D01*
X67562021Y-60016819D02*
X67552494Y-60020892D01*
X67552494Y-60020892D02*
X67542998Y-60025189D01*
X67542998Y-60025189D02*
X67533561Y-60029710D01*
X67533561Y-60029710D02*
X67524210Y-60034452D01*
X67524210Y-60034452D02*
X67514974Y-60039415D01*
X67514974Y-60039415D02*
X67505878Y-60044598D01*
X67505878Y-60044598D02*
X67496951Y-60049999D01*
X67496951Y-60049999D02*
X67488220Y-60055617D01*
X67488220Y-60055617D02*
X67482148Y-60059879D01*
X67482148Y-60059879D02*
X67476171Y-60064279D01*
X67476171Y-60064279D02*
X67470299Y-60068820D01*
X67470299Y-60068820D02*
X67464542Y-60073503D01*
X67464542Y-60073503D02*
X67458913Y-60078330D01*
X67458913Y-60078330D02*
X67453421Y-60083304D01*
X67453421Y-60083304D02*
X67448077Y-60088425D01*
X67448077Y-60088425D02*
X67442891Y-60093695D01*
X67442891Y-60093695D02*
X67437876Y-60099118D01*
X67437876Y-60099118D02*
X67433041Y-60104693D01*
X67433041Y-60104693D02*
X67428398Y-60110424D01*
X67428398Y-60110424D02*
X67423956Y-60116311D01*
X67423956Y-60116311D02*
X67419727Y-60122357D01*
X67419727Y-60122357D02*
X67415722Y-60128564D01*
X67415722Y-60128564D02*
X67411952Y-60134932D01*
X67411952Y-60134932D02*
X67408426Y-60141466D01*
X67408426Y-60141466D02*
X67402502Y-60153540D01*
X67402502Y-60153540D02*
X67397421Y-60165930D01*
X67397421Y-60165930D02*
X67393176Y-60178593D01*
X67393176Y-60178593D02*
X67389761Y-60191486D01*
X67389761Y-60191486D02*
X67387167Y-60204566D01*
X67387167Y-60204566D02*
X67385388Y-60217789D01*
X67385388Y-60217789D02*
X67384418Y-60231113D01*
X67384418Y-60231113D02*
X67384247Y-60244494D01*
X67384247Y-60244494D02*
X67384870Y-60257889D01*
X67384870Y-60257889D02*
X67386280Y-60271255D01*
X67386280Y-60271255D02*
X67388469Y-60284549D01*
X67388469Y-60284549D02*
X67391430Y-60297728D01*
X67391430Y-60297728D02*
X67395156Y-60310749D01*
X67395156Y-60310749D02*
X67399640Y-60323567D01*
X67399640Y-60323567D02*
X67404875Y-60336142D01*
X67404875Y-60336142D02*
X67410854Y-60348428D01*
X67410854Y-60348428D02*
X67417298Y-60360165D01*
X67417298Y-60360165D02*
X67424363Y-60371561D01*
X67424363Y-60371561D02*
X67432019Y-60382607D01*
X67432019Y-60382607D02*
X67440235Y-60393291D01*
X67440235Y-60393291D02*
X67448983Y-60403603D01*
X67448983Y-60403603D02*
X67458231Y-60413533D01*
X67458231Y-60413533D02*
X67467950Y-60423071D01*
X67467950Y-60423071D02*
X67478111Y-60432205D01*
X67478111Y-60432205D02*
X67488683Y-60440925D01*
X67488683Y-60440925D02*
X67499636Y-60449221D01*
X67499636Y-60449221D02*
X67510940Y-60457083D01*
X67510940Y-60457083D02*
X67522566Y-60464500D01*
X67522566Y-60464500D02*
X67534483Y-60471462D01*
X67534483Y-60471462D02*
X67546662Y-60477957D01*
X67546662Y-60477957D02*
X67559072Y-60483976D01*
X67559072Y-60483976D02*
X67571684Y-60489509D01*
X67571684Y-60489509D02*
X67584477Y-60494559D01*
X67584477Y-60494559D02*
X67597450Y-60499126D01*
X67597450Y-60499126D02*
X67610587Y-60503223D01*
X67610587Y-60503223D02*
X67623869Y-60506865D01*
X67623869Y-60506865D02*
X67637279Y-60510065D01*
X67637279Y-60510065D02*
X67650798Y-60512837D01*
X67650798Y-60512837D02*
X67664410Y-60515196D01*
X67664410Y-60515196D02*
X67678096Y-60517153D01*
X67678096Y-60517153D02*
X67691840Y-60518725D01*
X67691840Y-60518725D02*
X67705622Y-60519924D01*
X67705622Y-60519924D02*
X67719426Y-60520765D01*
X67719426Y-60520765D02*
X67733234Y-60521260D01*
X67733234Y-60521260D02*
X67747028Y-60521425D01*
X67747028Y-60521425D02*
X67760791Y-60521273D01*
X67760791Y-60521273D02*
X67774504Y-60520817D01*
X67774504Y-60520817D02*
X67788150Y-60520072D01*
X67788150Y-60520072D02*
X67810572Y-60518133D01*
X67810572Y-60518133D02*
X67832923Y-60515389D01*
X67832923Y-60515389D02*
X67855157Y-60511834D01*
X67855157Y-60511834D02*
X67877229Y-60507463D01*
X67877229Y-60507463D02*
X67899096Y-60502271D01*
X67899096Y-60502271D02*
X67920714Y-60496253D01*
X67920714Y-60496253D02*
X67942037Y-60489404D01*
X67942037Y-60489404D02*
X67963022Y-60481720D01*
X67963022Y-60481720D02*
X67983624Y-60473194D01*
X67983624Y-60473194D02*
X68003800Y-60463823D01*
X68003800Y-60463823D02*
X68023503Y-60453601D01*
X68023503Y-60453601D02*
X68042691Y-60442523D01*
X68042691Y-60442523D02*
X68061319Y-60430584D01*
X68061319Y-60430584D02*
X68079343Y-60417780D01*
X68079343Y-60417780D02*
X68096718Y-60404104D01*
X68096718Y-60404104D02*
X68113399Y-60389552D01*
X68113399Y-60389552D02*
X67947748Y-60240226D01*
X67947748Y-60240226D02*
X67935651Y-60251387D01*
X67935651Y-60251387D02*
X67922972Y-60261923D01*
X67922972Y-60261923D02*
X67909751Y-60271818D01*
X67909751Y-60271818D02*
X67896029Y-60281054D01*
X67896029Y-60281054D02*
X67881847Y-60289614D01*
X67881847Y-60289614D02*
X67867245Y-60297482D01*
X67867245Y-60297482D02*
X67852265Y-60304640D01*
X67852265Y-60304640D02*
X67836946Y-60311071D01*
X67836946Y-60311071D02*
X67821330Y-60316758D01*
X67821330Y-60316758D02*
X67805457Y-60321685D01*
X67805457Y-60321685D02*
X67789367Y-60325833D01*
X67789367Y-60325833D02*
X67773103Y-60329186D01*
X67773103Y-60329186D02*
X67756703Y-60331728D01*
X67756703Y-60331728D02*
X67740209Y-60333440D01*
X67740209Y-60333440D02*
X67723661Y-60334306D01*
X67723661Y-60334306D02*
X67707101Y-60334310D01*
X67707101Y-60334310D02*
X67697936Y-60333846D01*
X67697936Y-60333846D02*
X67688656Y-60332894D01*
X67688656Y-60332894D02*
X67679373Y-60331433D01*
X67679373Y-60331433D02*
X67670198Y-60329442D01*
X67670198Y-60329442D02*
X67661243Y-60326901D01*
X67661243Y-60326901D02*
X67652619Y-60323789D01*
X67652619Y-60323789D02*
X67644439Y-60320085D01*
X67644439Y-60320085D02*
X67636813Y-60315769D01*
X67636813Y-60315769D02*
X67633243Y-60313375D01*
X67633243Y-60313375D02*
X67629853Y-60310819D01*
X67629853Y-60310819D02*
X67626658Y-60308101D01*
X67626658Y-60308101D02*
X67623672Y-60305216D01*
X67623672Y-60305216D02*
X67620907Y-60302163D01*
X67620907Y-60302163D02*
X67618379Y-60298938D01*
X67618379Y-60298938D02*
X67616101Y-60295540D01*
X67616101Y-60295540D02*
X67614088Y-60291965D01*
X67614088Y-60291965D02*
X67612352Y-60288211D01*
X67612352Y-60288211D02*
X67610909Y-60284276D01*
X67610909Y-60284276D02*
X67609772Y-60280156D01*
X67609772Y-60280156D02*
X67608955Y-60275850D01*
X67608955Y-60275850D02*
X67608471Y-60271354D01*
X67608471Y-60271354D02*
X67608336Y-60266666D01*
X67608336Y-60266666D02*
X67608562Y-60261784D01*
X67608562Y-60261784D02*
X67609164Y-60256705D01*
X67609164Y-60256705D02*
X67609612Y-60254991D01*
X67609612Y-60254991D02*
X67610063Y-60253390D01*
X67610063Y-60253390D02*
X67610516Y-60251900D01*
X67610516Y-60251900D02*
X67610971Y-60250523D01*
X67610971Y-60250523D02*
X67611426Y-60249255D01*
X67611426Y-60249255D02*
X67611880Y-60248098D01*
X67611880Y-60248098D02*
X67612330Y-60247050D01*
X67612330Y-60247050D02*
X67612777Y-60246111D01*
X67612777Y-60246111D02*
X67614419Y-60242759D01*
X67614419Y-60242759D02*
X67616164Y-60239534D01*
X67616164Y-60239534D02*
X67618007Y-60236433D01*
X67618007Y-60236433D02*
X67619946Y-60233453D01*
X67619946Y-60233453D02*
X67621977Y-60230590D01*
X67621977Y-60230590D02*
X67624096Y-60227840D01*
X67624096Y-60227840D02*
X67626300Y-60225201D01*
X67626300Y-60225201D02*
X67628585Y-60222668D01*
X67628585Y-60222668D02*
X67630948Y-60220239D01*
X67630948Y-60220239D02*
X67633385Y-60217910D01*
X67633385Y-60217910D02*
X67635892Y-60215677D01*
X67635892Y-60215677D02*
X67638467Y-60213537D01*
X67638467Y-60213537D02*
X67641106Y-60211487D01*
X67641106Y-60211487D02*
X67643805Y-60209523D01*
X67643805Y-60209523D02*
X67649368Y-60205839D01*
X67649368Y-60205839D02*
X67655130Y-60202459D01*
X67655130Y-60202459D02*
X67661061Y-60199355D01*
X67661061Y-60199355D02*
X67667134Y-60196499D01*
X67667134Y-60196499D02*
X67673320Y-60193864D01*
X67673320Y-60193864D02*
X67679591Y-60191422D01*
X67679591Y-60191422D02*
X67685920Y-60189147D01*
X67685920Y-60189147D02*
X67692277Y-60187009D01*
X67692277Y-60187009D02*
X67698634Y-60184983D01*
X67698634Y-60184983D02*
X67860661Y-60139105D01*
X67860661Y-60139105D02*
X67880539Y-60132141D01*
X67880539Y-60132141D02*
X67890385Y-60128377D01*
X67890385Y-60128377D02*
X67900145Y-60124406D01*
X67900145Y-60124406D02*
X67909798Y-60120215D01*
X67909798Y-60120215D02*
X67919325Y-60115790D01*
X67919325Y-60115790D02*
X67928705Y-60111117D01*
X67928705Y-60111117D02*
X67937921Y-60106182D01*
X67937921Y-60106182D02*
X67946952Y-60100972D01*
X67946952Y-60100972D02*
X67955779Y-60095472D01*
X67955779Y-60095472D02*
X67964382Y-60089668D01*
X67964382Y-60089668D02*
X67972742Y-60083547D01*
X67972742Y-60083547D02*
X67980839Y-60077096D01*
X67980839Y-60077096D02*
X67988654Y-60070299D01*
X67988654Y-60070299D02*
X67996167Y-60063143D01*
X67996167Y-60063143D02*
X68003360Y-60055615D01*
X68003360Y-60055615D02*
X68010614Y-60047723D01*
X68010614Y-60047723D02*
X68017413Y-60039494D01*
X68017413Y-60039494D02*
X68023755Y-60030953D01*
X68023755Y-60030953D02*
X68029640Y-60022121D01*
X68029640Y-60022121D02*
X68035063Y-60013019D01*
X68035063Y-60013019D02*
X68040025Y-60003672D01*
X68040025Y-60003672D02*
X68044523Y-59994101D01*
X68044523Y-59994101D02*
X68048555Y-59984328D01*
X68048555Y-59984328D02*
X68052119Y-59974376D01*
X68052119Y-59974376D02*
X68055215Y-59964268D01*
X68055215Y-59964268D02*
X68057839Y-59954025D01*
X68057839Y-59954025D02*
X68059990Y-59943670D01*
X68059990Y-59943670D02*
X68061666Y-59933226D01*
X68061666Y-59933226D02*
X68062865Y-59922715D01*
X68062865Y-59922715D02*
X68063586Y-59912158D01*
X68063586Y-59912158D02*
X68063827Y-59901580D01*
X68063827Y-59901580D02*
X68063350Y-59890999D01*
X68063350Y-59890999D02*
X68062370Y-59880441D01*
X68062370Y-59880441D02*
X68060892Y-59869928D01*
X68060892Y-59869928D02*
X68058925Y-59859483D01*
X68058925Y-59859483D02*
X68056476Y-59849127D01*
X68056476Y-59849127D02*
X68053551Y-59838883D01*
X68053551Y-59838883D02*
X68050158Y-59828774D01*
X68050158Y-59828774D02*
X68046304Y-59818822D01*
X68046304Y-59818822D02*
X68041996Y-59809048D01*
X68041996Y-59809048D02*
X68037241Y-59799477D01*
X68037241Y-59799477D02*
X68032047Y-59790129D01*
X68032047Y-59790129D02*
X68026421Y-59781027D01*
X68026421Y-59781027D02*
X68020370Y-59772195D01*
X68020370Y-59772195D02*
X68013900Y-59763653D01*
X68013900Y-59763653D02*
X68007020Y-59755424D01*
X68007020Y-59755424D02*
X67999737Y-59747532D01*
X67999737Y-59747532D02*
X67991592Y-59738931D01*
X67991592Y-59738931D02*
X67983046Y-59730761D01*
X67983046Y-59730761D02*
X67974120Y-59723011D01*
X67974120Y-59723011D02*
X67964838Y-59715672D01*
X67964838Y-59715672D02*
X67955223Y-59708733D01*
X67955223Y-59708733D02*
X67945299Y-59702183D01*
X67945299Y-59702183D02*
X67935087Y-59696012D01*
X67935087Y-59696012D02*
X67924612Y-59690209D01*
X67924612Y-59690209D02*
X67913897Y-59684765D01*
X67913897Y-59684765D02*
X67902963Y-59679669D01*
X67902963Y-59679669D02*
X67891836Y-59674910D01*
X67891836Y-59674910D02*
X67880537Y-59670477D01*
X67880537Y-59670477D02*
X67869089Y-59666361D01*
X67869089Y-59666361D02*
X67857516Y-59662552D01*
X67857516Y-59662552D02*
X67845841Y-59659037D01*
X67845841Y-59659037D02*
X67834087Y-59655809D01*
X67834087Y-59655809D02*
X67819518Y-59652073D01*
X67819518Y-59652073D02*
X67804850Y-59648801D01*
X67804850Y-59648801D02*
X67790094Y-59645986D01*
X67790094Y-59645986D02*
X67775263Y-59643624D01*
X67775263Y-59643624D02*
X67760369Y-59641711D01*
X67760369Y-59641711D02*
X67745424Y-59640240D01*
X67745424Y-59640240D02*
X67730441Y-59639206D01*
X67730441Y-59639206D02*
X67715432Y-59638606D01*
X67715432Y-59638606D02*
X67700408Y-59638433D01*
X67700408Y-59638433D02*
X67685383Y-59638682D01*
X67685383Y-59638682D02*
X67670368Y-59639350D01*
X67670368Y-59639350D02*
X67655376Y-59640429D01*
X67655376Y-59640429D02*
X67640419Y-59641917D01*
X67640419Y-59641917D02*
X67625509Y-59643806D01*
X67625509Y-59643806D02*
X67610658Y-59646093D01*
X67610658Y-59646093D02*
X67595879Y-59648773D01*
X67595879Y-59648773D02*
X67580730Y-59651856D01*
X67580730Y-59651856D02*
X67565678Y-59655376D01*
X67565678Y-59655376D02*
X67550737Y-59659331D01*
X67550737Y-59659331D02*
X67535919Y-59663717D01*
X67535919Y-59663717D02*
X67521236Y-59668529D01*
X67521236Y-59668529D02*
X67506699Y-59673766D01*
X67506699Y-59673766D02*
X67492323Y-59679423D01*
X67492323Y-59679423D02*
X67478118Y-59685497D01*
X67478118Y-59685497D02*
X67464098Y-59691984D01*
X67464098Y-59691984D02*
X67450273Y-59698881D01*
X67450273Y-59698881D02*
X67436658Y-59706185D01*
X67436658Y-59706185D02*
X67423264Y-59713893D01*
X67423264Y-59713893D02*
X67410103Y-59722000D01*
X67410103Y-59722000D02*
X67397188Y-59730503D01*
X67397188Y-59730503D02*
X67384530Y-59739399D01*
X67384530Y-59739399D02*
X67372143Y-59748684D01*
X67372143Y-59748684D02*
X67441088Y-59813368D01*
X67441088Y-59813368D02*
X67452530Y-59824394D01*
X67452530Y-59824394D02*
X67464154Y-59835419D01*
X67464154Y-59835419D02*
X67487784Y-59857470D01*
X67487784Y-59857470D02*
X67535412Y-59901580D01*
X67535412Y-59901580D02*
X67546484Y-59890284D01*
X67546484Y-59890284D02*
X67558338Y-59879784D01*
X67558338Y-59879784D02*
X67570907Y-59870104D01*
X67570907Y-59870104D02*
X67584124Y-59861268D01*
X67584124Y-59861268D02*
X67597921Y-59853300D01*
X67597921Y-59853300D02*
X67612232Y-59846225D01*
X67612232Y-59846225D02*
X67626988Y-59840066D01*
X67626988Y-59840066D02*
X67642123Y-59834848D01*
X67642123Y-59834848D02*
X67657570Y-59830594D01*
X67657570Y-59830594D02*
X67673261Y-59827329D01*
X67673261Y-59827329D02*
X67689128Y-59825078D01*
X67689128Y-59825078D02*
X67705106Y-59823863D01*
X67705106Y-59823863D02*
X67721125Y-59823710D01*
X67721125Y-59823710D02*
X67737120Y-59824642D01*
X67737120Y-59824642D02*
X67753022Y-59826684D01*
X67753022Y-59826684D02*
X67768765Y-59829860D01*
X67768765Y-59829860D02*
X67775387Y-59831584D01*
X67775387Y-59831584D02*
X67782039Y-59833669D01*
X67782039Y-59833669D02*
X67788636Y-59836119D01*
X67788636Y-59836119D02*
X67795098Y-59838938D01*
X67795098Y-59838938D02*
X67801339Y-59842129D01*
X67801339Y-59842129D02*
X67807276Y-59845695D01*
X67807276Y-59845695D02*
X67812828Y-59849640D01*
X67812828Y-59849640D02*
X67815432Y-59851755D01*
X67815432Y-59851755D02*
X67817909Y-59853966D01*
X67817909Y-59853966D02*
X67820248Y-59856274D01*
X67820248Y-59856274D02*
X67822438Y-59858678D01*
X67822438Y-59858678D02*
X67824468Y-59861179D01*
X67824468Y-59861179D02*
X67826330Y-59863778D01*
X67826330Y-59863778D02*
X67828011Y-59866475D01*
X67828011Y-59866475D02*
X67829502Y-59869271D01*
X67829502Y-59869271D02*
X67830793Y-59872165D01*
X67830793Y-59872165D02*
X67831872Y-59875159D01*
X67831872Y-59875159D02*
X67832730Y-59878252D01*
X67832730Y-59878252D02*
X67833356Y-59881445D01*
X67833356Y-59881445D02*
X67833740Y-59884739D01*
X67833740Y-59884739D02*
X67833871Y-59888134D01*
X67833871Y-59888134D02*
X67833739Y-59891630D01*
X67833739Y-59891630D02*
X67833333Y-59895228D01*
X67833333Y-59895228D02*
X67832643Y-59898928D01*
X67832643Y-59898928D02*
X67831659Y-59902731D01*
X67831659Y-59902731D02*
X67831659Y-59902731D01*
G36*
X67715432Y-59638606D02*
G01*
X67730441Y-59639206D01*
X67745424Y-59640240D01*
X67760369Y-59641711D01*
X67775263Y-59643624D01*
X67790094Y-59645986D01*
X67804850Y-59648801D01*
X67819518Y-59652073D01*
X67834087Y-59655809D01*
X67845841Y-59659037D01*
X67857516Y-59662552D01*
X67869089Y-59666361D01*
X67880537Y-59670477D01*
X67891836Y-59674910D01*
X67902963Y-59679669D01*
X67913897Y-59684765D01*
X67924612Y-59690209D01*
X67935087Y-59696012D01*
X67945299Y-59702183D01*
X67955223Y-59708733D01*
X67964838Y-59715672D01*
X67974120Y-59723011D01*
X67983046Y-59730761D01*
X67991592Y-59738931D01*
X67999737Y-59747532D01*
X68007020Y-59755424D01*
X68013900Y-59763653D01*
X68020370Y-59772195D01*
X68026421Y-59781027D01*
X68032047Y-59790129D01*
X68037241Y-59799477D01*
X68041996Y-59809048D01*
X68046304Y-59818822D01*
X68050158Y-59828774D01*
X68053551Y-59838883D01*
X68056476Y-59849127D01*
X68058925Y-59859483D01*
X68060892Y-59869928D01*
X68062370Y-59880441D01*
X68063350Y-59890999D01*
X68063827Y-59901580D01*
X68063586Y-59912158D01*
X68062865Y-59922715D01*
X68061666Y-59933226D01*
X68059990Y-59943670D01*
X68057839Y-59954025D01*
X68055215Y-59964268D01*
X68052119Y-59974376D01*
X68048555Y-59984328D01*
X68044523Y-59994101D01*
X68040025Y-60003672D01*
X68035063Y-60013019D01*
X68029640Y-60022121D01*
X68023755Y-60030953D01*
X68017413Y-60039494D01*
X68010614Y-60047723D01*
X68003360Y-60055615D01*
X67996167Y-60063143D01*
X67988654Y-60070299D01*
X67980839Y-60077096D01*
X67972742Y-60083547D01*
X67964382Y-60089668D01*
X67955779Y-60095472D01*
X67946952Y-60100972D01*
X67937921Y-60106182D01*
X67928705Y-60111117D01*
X67919325Y-60115790D01*
X67909798Y-60120215D01*
X67900145Y-60124406D01*
X67890385Y-60128377D01*
X67880539Y-60132141D01*
X67860661Y-60139105D01*
X67698634Y-60184983D01*
X67692277Y-60187009D01*
X67685920Y-60189147D01*
X67679591Y-60191422D01*
X67673320Y-60193864D01*
X67667134Y-60196499D01*
X67661061Y-60199355D01*
X67655130Y-60202459D01*
X67649368Y-60205839D01*
X67643805Y-60209523D01*
X67641106Y-60211487D01*
X67638467Y-60213537D01*
X67635892Y-60215677D01*
X67633385Y-60217910D01*
X67630948Y-60220239D01*
X67628585Y-60222668D01*
X67626300Y-60225201D01*
X67624096Y-60227840D01*
X67621977Y-60230590D01*
X67619946Y-60233453D01*
X67618007Y-60236433D01*
X67616164Y-60239534D01*
X67614419Y-60242759D01*
X67612777Y-60246111D01*
X67612330Y-60247050D01*
X67611880Y-60248098D01*
X67611426Y-60249255D01*
X67610971Y-60250523D01*
X67610516Y-60251900D01*
X67610063Y-60253390D01*
X67609612Y-60254991D01*
X67609164Y-60256705D01*
X67608562Y-60261784D01*
X67608336Y-60266666D01*
X67608471Y-60271354D01*
X67608955Y-60275850D01*
X67609772Y-60280156D01*
X67610909Y-60284276D01*
X67612352Y-60288211D01*
X67614088Y-60291965D01*
X67616101Y-60295540D01*
X67618379Y-60298938D01*
X67620907Y-60302163D01*
X67623672Y-60305216D01*
X67626658Y-60308101D01*
X67629853Y-60310819D01*
X67633243Y-60313375D01*
X67636813Y-60315769D01*
X67644439Y-60320085D01*
X67652619Y-60323789D01*
X67661243Y-60326901D01*
X67670198Y-60329442D01*
X67679373Y-60331433D01*
X67688656Y-60332894D01*
X67697936Y-60333846D01*
X67707101Y-60334310D01*
X67723661Y-60334306D01*
X67740209Y-60333440D01*
X67756703Y-60331728D01*
X67773103Y-60329186D01*
X67789367Y-60325833D01*
X67805457Y-60321685D01*
X67821330Y-60316758D01*
X67836946Y-60311071D01*
X67852265Y-60304640D01*
X67867245Y-60297482D01*
X67881847Y-60289614D01*
X67896029Y-60281054D01*
X67909751Y-60271818D01*
X67922972Y-60261923D01*
X67935651Y-60251387D01*
X67947748Y-60240226D01*
X68113399Y-60389552D01*
X68096718Y-60404104D01*
X68079343Y-60417780D01*
X68061319Y-60430584D01*
X68042691Y-60442523D01*
X68023503Y-60453601D01*
X68003800Y-60463823D01*
X67983624Y-60473194D01*
X67963022Y-60481720D01*
X67942037Y-60489404D01*
X67920714Y-60496253D01*
X67899096Y-60502271D01*
X67877229Y-60507463D01*
X67855157Y-60511834D01*
X67832923Y-60515389D01*
X67810572Y-60518133D01*
X67788150Y-60520072D01*
X67774504Y-60520817D01*
X67760791Y-60521273D01*
X67747028Y-60521425D01*
X67733234Y-60521260D01*
X67719426Y-60520765D01*
X67705622Y-60519924D01*
X67691840Y-60518725D01*
X67678096Y-60517153D01*
X67664410Y-60515196D01*
X67650798Y-60512837D01*
X67637279Y-60510065D01*
X67623869Y-60506865D01*
X67610587Y-60503223D01*
X67597450Y-60499126D01*
X67584477Y-60494559D01*
X67571684Y-60489509D01*
X67559072Y-60483976D01*
X67546662Y-60477957D01*
X67534483Y-60471462D01*
X67522566Y-60464500D01*
X67510940Y-60457083D01*
X67499636Y-60449221D01*
X67488683Y-60440925D01*
X67478111Y-60432205D01*
X67467950Y-60423071D01*
X67458231Y-60413533D01*
X67448983Y-60403603D01*
X67440235Y-60393291D01*
X67432019Y-60382607D01*
X67424363Y-60371561D01*
X67417298Y-60360165D01*
X67410854Y-60348428D01*
X67404875Y-60336142D01*
X67399640Y-60323567D01*
X67395156Y-60310749D01*
X67391430Y-60297728D01*
X67388469Y-60284549D01*
X67386280Y-60271255D01*
X67384870Y-60257889D01*
X67384247Y-60244494D01*
X67384418Y-60231113D01*
X67385388Y-60217789D01*
X67387167Y-60204566D01*
X67389761Y-60191486D01*
X67393176Y-60178593D01*
X67397421Y-60165930D01*
X67402502Y-60153540D01*
X67408426Y-60141466D01*
X67411952Y-60134932D01*
X67415722Y-60128564D01*
X67419727Y-60122357D01*
X67423956Y-60116311D01*
X67428398Y-60110424D01*
X67433041Y-60104693D01*
X67437876Y-60099118D01*
X67442891Y-60093695D01*
X67448077Y-60088425D01*
X67453421Y-60083304D01*
X67458913Y-60078330D01*
X67464542Y-60073503D01*
X67470299Y-60068820D01*
X67476171Y-60064279D01*
X67482148Y-60059879D01*
X67488220Y-60055617D01*
X67496951Y-60049999D01*
X67505878Y-60044598D01*
X67514974Y-60039415D01*
X67524210Y-60034452D01*
X67533561Y-60029710D01*
X67542998Y-60025189D01*
X67552494Y-60020892D01*
X67562021Y-60016819D01*
X67573862Y-60012100D01*
X67585804Y-60007631D01*
X67609942Y-59999340D01*
X67634338Y-59991737D01*
X67658892Y-59984618D01*
X67708080Y-59971006D01*
X67732518Y-59964102D01*
X67756720Y-59956857D01*
X67767124Y-59953296D01*
X67772282Y-59951450D01*
X67777386Y-59949526D01*
X67782420Y-59947498D01*
X67787365Y-59945340D01*
X67792203Y-59943027D01*
X67796918Y-59940533D01*
X67801491Y-59937832D01*
X67805905Y-59934899D01*
X67810141Y-59931707D01*
X67812188Y-59930007D01*
X67814183Y-59928232D01*
X67816125Y-59926380D01*
X67818012Y-59924447D01*
X67819841Y-59922430D01*
X67821611Y-59920327D01*
X67823318Y-59918133D01*
X67824962Y-59915845D01*
X67826539Y-59913461D01*
X67828047Y-59910977D01*
X67831659Y-59902731D01*
X67832643Y-59898928D01*
X67833333Y-59895228D01*
X67833739Y-59891630D01*
X67833871Y-59888134D01*
X67833740Y-59884739D01*
X67833356Y-59881445D01*
X67832730Y-59878252D01*
X67831872Y-59875159D01*
X67830793Y-59872165D01*
X67829502Y-59869271D01*
X67828011Y-59866475D01*
X67826330Y-59863778D01*
X67824468Y-59861179D01*
X67822438Y-59858678D01*
X67820248Y-59856274D01*
X67817909Y-59853966D01*
X67815432Y-59851755D01*
X67812828Y-59849640D01*
X67807276Y-59845695D01*
X67801339Y-59842129D01*
X67795098Y-59838938D01*
X67788636Y-59836119D01*
X67782039Y-59833669D01*
X67775387Y-59831584D01*
X67768765Y-59829860D01*
X67753022Y-59826684D01*
X67737120Y-59824642D01*
X67721125Y-59823710D01*
X67705106Y-59823863D01*
X67689128Y-59825078D01*
X67673261Y-59827329D01*
X67657570Y-59830594D01*
X67642123Y-59834848D01*
X67626988Y-59840066D01*
X67612232Y-59846225D01*
X67597921Y-59853300D01*
X67584124Y-59861268D01*
X67570907Y-59870104D01*
X67558338Y-59879784D01*
X67546484Y-59890284D01*
X67535412Y-59901580D01*
X67487784Y-59857470D01*
X67464154Y-59835419D01*
X67452530Y-59824394D01*
X67441088Y-59813368D01*
X67372143Y-59748684D01*
X67384530Y-59739399D01*
X67397188Y-59730503D01*
X67410103Y-59722000D01*
X67423264Y-59713893D01*
X67436658Y-59706185D01*
X67450273Y-59698881D01*
X67464098Y-59691984D01*
X67478118Y-59685497D01*
X67492323Y-59679423D01*
X67506699Y-59673766D01*
X67521236Y-59668529D01*
X67535919Y-59663717D01*
X67550737Y-59659331D01*
X67565678Y-59655376D01*
X67580730Y-59651856D01*
X67595879Y-59648773D01*
X67610658Y-59646093D01*
X67625509Y-59643806D01*
X67640419Y-59641917D01*
X67655376Y-59640429D01*
X67670368Y-59639350D01*
X67685383Y-59638682D01*
X67700408Y-59638433D01*
X67715432Y-59638606D01*
G37*
X67715432Y-59638606D02*
X67730441Y-59639206D01*
X67745424Y-59640240D01*
X67760369Y-59641711D01*
X67775263Y-59643624D01*
X67790094Y-59645986D01*
X67804850Y-59648801D01*
X67819518Y-59652073D01*
X67834087Y-59655809D01*
X67845841Y-59659037D01*
X67857516Y-59662552D01*
X67869089Y-59666361D01*
X67880537Y-59670477D01*
X67891836Y-59674910D01*
X67902963Y-59679669D01*
X67913897Y-59684765D01*
X67924612Y-59690209D01*
X67935087Y-59696012D01*
X67945299Y-59702183D01*
X67955223Y-59708733D01*
X67964838Y-59715672D01*
X67974120Y-59723011D01*
X67983046Y-59730761D01*
X67991592Y-59738931D01*
X67999737Y-59747532D01*
X68007020Y-59755424D01*
X68013900Y-59763653D01*
X68020370Y-59772195D01*
X68026421Y-59781027D01*
X68032047Y-59790129D01*
X68037241Y-59799477D01*
X68041996Y-59809048D01*
X68046304Y-59818822D01*
X68050158Y-59828774D01*
X68053551Y-59838883D01*
X68056476Y-59849127D01*
X68058925Y-59859483D01*
X68060892Y-59869928D01*
X68062370Y-59880441D01*
X68063350Y-59890999D01*
X68063827Y-59901580D01*
X68063586Y-59912158D01*
X68062865Y-59922715D01*
X68061666Y-59933226D01*
X68059990Y-59943670D01*
X68057839Y-59954025D01*
X68055215Y-59964268D01*
X68052119Y-59974376D01*
X68048555Y-59984328D01*
X68044523Y-59994101D01*
X68040025Y-60003672D01*
X68035063Y-60013019D01*
X68029640Y-60022121D01*
X68023755Y-60030953D01*
X68017413Y-60039494D01*
X68010614Y-60047723D01*
X68003360Y-60055615D01*
X67996167Y-60063143D01*
X67988654Y-60070299D01*
X67980839Y-60077096D01*
X67972742Y-60083547D01*
X67964382Y-60089668D01*
X67955779Y-60095472D01*
X67946952Y-60100972D01*
X67937921Y-60106182D01*
X67928705Y-60111117D01*
X67919325Y-60115790D01*
X67909798Y-60120215D01*
X67900145Y-60124406D01*
X67890385Y-60128377D01*
X67880539Y-60132141D01*
X67860661Y-60139105D01*
X67698634Y-60184983D01*
X67692277Y-60187009D01*
X67685920Y-60189147D01*
X67679591Y-60191422D01*
X67673320Y-60193864D01*
X67667134Y-60196499D01*
X67661061Y-60199355D01*
X67655130Y-60202459D01*
X67649368Y-60205839D01*
X67643805Y-60209523D01*
X67641106Y-60211487D01*
X67638467Y-60213537D01*
X67635892Y-60215677D01*
X67633385Y-60217910D01*
X67630948Y-60220239D01*
X67628585Y-60222668D01*
X67626300Y-60225201D01*
X67624096Y-60227840D01*
X67621977Y-60230590D01*
X67619946Y-60233453D01*
X67618007Y-60236433D01*
X67616164Y-60239534D01*
X67614419Y-60242759D01*
X67612777Y-60246111D01*
X67612330Y-60247050D01*
X67611880Y-60248098D01*
X67611426Y-60249255D01*
X67610971Y-60250523D01*
X67610516Y-60251900D01*
X67610063Y-60253390D01*
X67609612Y-60254991D01*
X67609164Y-60256705D01*
X67608562Y-60261784D01*
X67608336Y-60266666D01*
X67608471Y-60271354D01*
X67608955Y-60275850D01*
X67609772Y-60280156D01*
X67610909Y-60284276D01*
X67612352Y-60288211D01*
X67614088Y-60291965D01*
X67616101Y-60295540D01*
X67618379Y-60298938D01*
X67620907Y-60302163D01*
X67623672Y-60305216D01*
X67626658Y-60308101D01*
X67629853Y-60310819D01*
X67633243Y-60313375D01*
X67636813Y-60315769D01*
X67644439Y-60320085D01*
X67652619Y-60323789D01*
X67661243Y-60326901D01*
X67670198Y-60329442D01*
X67679373Y-60331433D01*
X67688656Y-60332894D01*
X67697936Y-60333846D01*
X67707101Y-60334310D01*
X67723661Y-60334306D01*
X67740209Y-60333440D01*
X67756703Y-60331728D01*
X67773103Y-60329186D01*
X67789367Y-60325833D01*
X67805457Y-60321685D01*
X67821330Y-60316758D01*
X67836946Y-60311071D01*
X67852265Y-60304640D01*
X67867245Y-60297482D01*
X67881847Y-60289614D01*
X67896029Y-60281054D01*
X67909751Y-60271818D01*
X67922972Y-60261923D01*
X67935651Y-60251387D01*
X67947748Y-60240226D01*
X68113399Y-60389552D01*
X68096718Y-60404104D01*
X68079343Y-60417780D01*
X68061319Y-60430584D01*
X68042691Y-60442523D01*
X68023503Y-60453601D01*
X68003800Y-60463823D01*
X67983624Y-60473194D01*
X67963022Y-60481720D01*
X67942037Y-60489404D01*
X67920714Y-60496253D01*
X67899096Y-60502271D01*
X67877229Y-60507463D01*
X67855157Y-60511834D01*
X67832923Y-60515389D01*
X67810572Y-60518133D01*
X67788150Y-60520072D01*
X67774504Y-60520817D01*
X67760791Y-60521273D01*
X67747028Y-60521425D01*
X67733234Y-60521260D01*
X67719426Y-60520765D01*
X67705622Y-60519924D01*
X67691840Y-60518725D01*
X67678096Y-60517153D01*
X67664410Y-60515196D01*
X67650798Y-60512837D01*
X67637279Y-60510065D01*
X67623869Y-60506865D01*
X67610587Y-60503223D01*
X67597450Y-60499126D01*
X67584477Y-60494559D01*
X67571684Y-60489509D01*
X67559072Y-60483976D01*
X67546662Y-60477957D01*
X67534483Y-60471462D01*
X67522566Y-60464500D01*
X67510940Y-60457083D01*
X67499636Y-60449221D01*
X67488683Y-60440925D01*
X67478111Y-60432205D01*
X67467950Y-60423071D01*
X67458231Y-60413533D01*
X67448983Y-60403603D01*
X67440235Y-60393291D01*
X67432019Y-60382607D01*
X67424363Y-60371561D01*
X67417298Y-60360165D01*
X67410854Y-60348428D01*
X67404875Y-60336142D01*
X67399640Y-60323567D01*
X67395156Y-60310749D01*
X67391430Y-60297728D01*
X67388469Y-60284549D01*
X67386280Y-60271255D01*
X67384870Y-60257889D01*
X67384247Y-60244494D01*
X67384418Y-60231113D01*
X67385388Y-60217789D01*
X67387167Y-60204566D01*
X67389761Y-60191486D01*
X67393176Y-60178593D01*
X67397421Y-60165930D01*
X67402502Y-60153540D01*
X67408426Y-60141466D01*
X67411952Y-60134932D01*
X67415722Y-60128564D01*
X67419727Y-60122357D01*
X67423956Y-60116311D01*
X67428398Y-60110424D01*
X67433041Y-60104693D01*
X67437876Y-60099118D01*
X67442891Y-60093695D01*
X67448077Y-60088425D01*
X67453421Y-60083304D01*
X67458913Y-60078330D01*
X67464542Y-60073503D01*
X67470299Y-60068820D01*
X67476171Y-60064279D01*
X67482148Y-60059879D01*
X67488220Y-60055617D01*
X67496951Y-60049999D01*
X67505878Y-60044598D01*
X67514974Y-60039415D01*
X67524210Y-60034452D01*
X67533561Y-60029710D01*
X67542998Y-60025189D01*
X67552494Y-60020892D01*
X67562021Y-60016819D01*
X67573862Y-60012100D01*
X67585804Y-60007631D01*
X67609942Y-59999340D01*
X67634338Y-59991737D01*
X67658892Y-59984618D01*
X67708080Y-59971006D01*
X67732518Y-59964102D01*
X67756720Y-59956857D01*
X67767124Y-59953296D01*
X67772282Y-59951450D01*
X67777386Y-59949526D01*
X67782420Y-59947498D01*
X67787365Y-59945340D01*
X67792203Y-59943027D01*
X67796918Y-59940533D01*
X67801491Y-59937832D01*
X67805905Y-59934899D01*
X67810141Y-59931707D01*
X67812188Y-59930007D01*
X67814183Y-59928232D01*
X67816125Y-59926380D01*
X67818012Y-59924447D01*
X67819841Y-59922430D01*
X67821611Y-59920327D01*
X67823318Y-59918133D01*
X67824962Y-59915845D01*
X67826539Y-59913461D01*
X67828047Y-59910977D01*
X67831659Y-59902731D01*
X67832643Y-59898928D01*
X67833333Y-59895228D01*
X67833739Y-59891630D01*
X67833871Y-59888134D01*
X67833740Y-59884739D01*
X67833356Y-59881445D01*
X67832730Y-59878252D01*
X67831872Y-59875159D01*
X67830793Y-59872165D01*
X67829502Y-59869271D01*
X67828011Y-59866475D01*
X67826330Y-59863778D01*
X67824468Y-59861179D01*
X67822438Y-59858678D01*
X67820248Y-59856274D01*
X67817909Y-59853966D01*
X67815432Y-59851755D01*
X67812828Y-59849640D01*
X67807276Y-59845695D01*
X67801339Y-59842129D01*
X67795098Y-59838938D01*
X67788636Y-59836119D01*
X67782039Y-59833669D01*
X67775387Y-59831584D01*
X67768765Y-59829860D01*
X67753022Y-59826684D01*
X67737120Y-59824642D01*
X67721125Y-59823710D01*
X67705106Y-59823863D01*
X67689128Y-59825078D01*
X67673261Y-59827329D01*
X67657570Y-59830594D01*
X67642123Y-59834848D01*
X67626988Y-59840066D01*
X67612232Y-59846225D01*
X67597921Y-59853300D01*
X67584124Y-59861268D01*
X67570907Y-59870104D01*
X67558338Y-59879784D01*
X67546484Y-59890284D01*
X67535412Y-59901580D01*
X67487784Y-59857470D01*
X67464154Y-59835419D01*
X67452530Y-59824394D01*
X67441088Y-59813368D01*
X67372143Y-59748684D01*
X67384530Y-59739399D01*
X67397188Y-59730503D01*
X67410103Y-59722000D01*
X67423264Y-59713893D01*
X67436658Y-59706185D01*
X67450273Y-59698881D01*
X67464098Y-59691984D01*
X67478118Y-59685497D01*
X67492323Y-59679423D01*
X67506699Y-59673766D01*
X67521236Y-59668529D01*
X67535919Y-59663717D01*
X67550737Y-59659331D01*
X67565678Y-59655376D01*
X67580730Y-59651856D01*
X67595879Y-59648773D01*
X67610658Y-59646093D01*
X67625509Y-59643806D01*
X67640419Y-59641917D01*
X67655376Y-59640429D01*
X67670368Y-59639350D01*
X67685383Y-59638682D01*
X67700408Y-59638433D01*
X67715432Y-59638606D01*
D11*
X74150304Y-58577220D02*
X74193863Y-58596369D01*
X73617779Y-60403565D02*
X73569352Y-60395155D01*
X74495438Y-58815355D02*
X74526346Y-58850051D01*
D12*
X73494466Y-58943248D02*
X73544438Y-58989826D01*
D11*
X77420919Y-60222833D02*
X77457631Y-60192386D01*
X73217718Y-60251266D02*
X73179164Y-60224605D01*
X76681632Y-60440051D02*
X76631343Y-60433830D01*
X75780128Y-59465898D02*
X75780128Y-56751076D01*
X73666995Y-60409647D02*
X73617779Y-60403565D01*
X74745826Y-59360549D02*
X74749624Y-59409114D01*
D12*
X75803130Y-60577255D02*
X75689576Y-60570110D01*
D11*
X76533256Y-60414302D02*
X76485584Y-60401118D01*
D12*
X74095589Y-60041777D02*
X74041021Y-59994676D01*
D11*
X74749624Y-59409114D02*
X74750903Y-59458325D01*
D12*
X75468091Y-60547680D02*
X75360445Y-60532537D01*
X71619961Y-58379553D02*
X71735021Y-58383720D01*
D11*
X73767545Y-60414584D02*
X73716938Y-60413339D01*
X72828382Y-59742682D02*
X72815131Y-59697305D01*
X73521774Y-60384477D02*
X73475108Y-60371591D01*
X73257617Y-60276140D02*
X73217718Y-60251266D01*
D10*
X71799350Y-59922735D02*
X71799423Y-59919993D01*
X71799423Y-59919993D02*
X71799642Y-59917283D01*
X71799642Y-59917283D02*
X71800002Y-59914607D01*
X71800002Y-59914607D02*
X71800499Y-59911970D01*
X71800499Y-59911970D02*
X71801130Y-59909376D01*
X71801130Y-59909376D02*
X71801891Y-59906827D01*
X71801891Y-59906827D02*
X71802778Y-59904328D01*
X71802778Y-59904328D02*
X71803787Y-59901882D01*
X71803787Y-59901882D02*
X71804915Y-59899493D01*
X71804915Y-59899493D02*
X71806158Y-59897165D01*
X71806158Y-59897165D02*
X71807512Y-59894901D01*
X71807512Y-59894901D02*
X71808974Y-59892705D01*
X71808974Y-59892705D02*
X71810539Y-59890580D01*
X71810539Y-59890580D02*
X71812204Y-59888530D01*
X71812204Y-59888530D02*
X71813965Y-59886559D01*
X71813965Y-59886559D02*
X71815818Y-59884671D01*
X71815818Y-59884671D02*
X71817760Y-59882869D01*
X71817760Y-59882869D02*
X71819786Y-59881156D01*
X71819786Y-59881156D02*
X71821894Y-59879537D01*
X71821894Y-59879537D02*
X71824079Y-59878015D01*
X71824079Y-59878015D02*
X71826338Y-59876594D01*
X71826338Y-59876594D02*
X71828666Y-59875277D01*
X71828666Y-59875277D02*
X71831060Y-59874069D01*
X71831060Y-59874069D02*
X71833517Y-59872972D01*
X71833517Y-59872972D02*
X71836032Y-59871990D01*
X71836032Y-59871990D02*
X71838602Y-59871128D01*
X71838602Y-59871128D02*
X71841223Y-59870388D01*
X71841223Y-59870388D02*
X71843891Y-59869774D01*
X71843891Y-59869774D02*
X71846603Y-59869290D01*
X71846603Y-59869290D02*
X71849354Y-59868940D01*
X71849354Y-59868940D02*
X71852141Y-59868728D01*
X71852141Y-59868728D02*
X71854961Y-59868656D01*
X71854961Y-59868656D02*
X72131882Y-59868656D01*
X72131882Y-59868656D02*
X72131882Y-59978020D01*
X72131882Y-59978020D02*
X71854961Y-59978020D01*
X71854961Y-59978020D02*
X71852141Y-59977949D01*
X71852141Y-59977949D02*
X71849354Y-59977736D01*
X71849354Y-59977736D02*
X71846603Y-59977385D01*
X71846603Y-59977385D02*
X71843891Y-59976900D01*
X71843891Y-59976900D02*
X71841223Y-59976285D01*
X71841223Y-59976285D02*
X71838602Y-59975541D01*
X71838602Y-59975541D02*
X71836032Y-59974674D01*
X71836032Y-59974674D02*
X71833517Y-59973686D01*
X71833517Y-59973686D02*
X71831060Y-59972581D01*
X71831060Y-59972581D02*
X71828666Y-59971363D01*
X71828666Y-59971363D02*
X71826338Y-59970034D01*
X71826338Y-59970034D02*
X71824079Y-59968598D01*
X71824079Y-59968598D02*
X71821894Y-59967059D01*
X71821894Y-59967059D02*
X71819786Y-59965420D01*
X71819786Y-59965420D02*
X71817760Y-59963684D01*
X71817760Y-59963684D02*
X71815818Y-59961856D01*
X71815818Y-59961856D02*
X71813965Y-59959937D01*
X71813965Y-59959937D02*
X71812204Y-59957933D01*
X71812204Y-59957933D02*
X71810539Y-59955845D01*
X71810539Y-59955845D02*
X71808974Y-59953678D01*
X71808974Y-59953678D02*
X71807512Y-59951436D01*
X71807512Y-59951436D02*
X71806158Y-59949120D01*
X71806158Y-59949120D02*
X71804915Y-59946736D01*
X71804915Y-59946736D02*
X71803787Y-59944286D01*
X71803787Y-59944286D02*
X71802778Y-59941774D01*
X71802778Y-59941774D02*
X71801891Y-59939203D01*
X71801891Y-59939203D02*
X71801130Y-59936576D01*
X71801130Y-59936576D02*
X71800499Y-59933898D01*
X71800499Y-59933898D02*
X71800002Y-59931171D01*
X71800002Y-59931171D02*
X71799642Y-59928400D01*
X71799642Y-59928400D02*
X71799423Y-59925586D01*
X71799423Y-59925586D02*
X71799350Y-59922735D01*
X71799350Y-59922735D02*
X71799350Y-59922735D01*
G36*
X72131882Y-59978020D02*
G01*
X71854961Y-59978020D01*
X71852141Y-59977949D01*
X71849354Y-59977736D01*
X71846603Y-59977385D01*
X71843891Y-59976900D01*
X71841223Y-59976285D01*
X71838602Y-59975541D01*
X71836032Y-59974674D01*
X71833517Y-59973686D01*
X71831060Y-59972581D01*
X71828666Y-59971363D01*
X71826338Y-59970034D01*
X71824079Y-59968598D01*
X71821894Y-59967059D01*
X71819786Y-59965420D01*
X71817760Y-59963684D01*
X71815818Y-59961856D01*
X71813965Y-59959937D01*
X71812204Y-59957933D01*
X71810539Y-59955845D01*
X71808974Y-59953678D01*
X71807512Y-59951436D01*
X71806158Y-59949120D01*
X71804915Y-59946736D01*
X71803787Y-59944286D01*
X71802778Y-59941774D01*
X71801891Y-59939203D01*
X71801130Y-59936576D01*
X71800499Y-59933898D01*
X71800002Y-59931171D01*
X71799642Y-59928400D01*
X71799423Y-59925586D01*
X71799350Y-59922735D01*
X71799423Y-59919993D01*
X71799642Y-59917283D01*
X71800002Y-59914607D01*
X71800499Y-59911970D01*
X71801130Y-59909376D01*
X71801891Y-59906827D01*
X71802778Y-59904328D01*
X71803787Y-59901882D01*
X71804915Y-59899493D01*
X71806158Y-59897165D01*
X71807512Y-59894901D01*
X71808974Y-59892705D01*
X71810539Y-59890580D01*
X71812204Y-59888530D01*
X71813965Y-59886559D01*
X71815818Y-59884671D01*
X71817760Y-59882869D01*
X71819786Y-59881156D01*
X71821894Y-59879537D01*
X71824079Y-59878015D01*
X71826338Y-59876594D01*
X71828666Y-59875277D01*
X71831060Y-59874069D01*
X71833517Y-59872972D01*
X71836032Y-59871990D01*
X71838602Y-59871128D01*
X71841223Y-59870388D01*
X71843891Y-59869774D01*
X71846603Y-59869290D01*
X71849354Y-59868940D01*
X71852141Y-59868728D01*
X71854961Y-59868656D01*
X72131882Y-59868656D01*
X72131882Y-59978020D01*
G37*
X72131882Y-59978020D02*
X71854961Y-59978020D01*
X71852141Y-59977949D01*
X71849354Y-59977736D01*
X71846603Y-59977385D01*
X71843891Y-59976900D01*
X71841223Y-59976285D01*
X71838602Y-59975541D01*
X71836032Y-59974674D01*
X71833517Y-59973686D01*
X71831060Y-59972581D01*
X71828666Y-59971363D01*
X71826338Y-59970034D01*
X71824079Y-59968598D01*
X71821894Y-59967059D01*
X71819786Y-59965420D01*
X71817760Y-59963684D01*
X71815818Y-59961856D01*
X71813965Y-59959937D01*
X71812204Y-59957933D01*
X71810539Y-59955845D01*
X71808974Y-59953678D01*
X71807512Y-59951436D01*
X71806158Y-59949120D01*
X71804915Y-59946736D01*
X71803787Y-59944286D01*
X71802778Y-59941774D01*
X71801891Y-59939203D01*
X71801130Y-59936576D01*
X71800499Y-59933898D01*
X71800002Y-59931171D01*
X71799642Y-59928400D01*
X71799423Y-59925586D01*
X71799350Y-59922735D01*
X71799423Y-59919993D01*
X71799642Y-59917283D01*
X71800002Y-59914607D01*
X71800499Y-59911970D01*
X71801130Y-59909376D01*
X71801891Y-59906827D01*
X71802778Y-59904328D01*
X71803787Y-59901882D01*
X71804915Y-59899493D01*
X71806158Y-59897165D01*
X71807512Y-59894901D01*
X71808974Y-59892705D01*
X71810539Y-59890580D01*
X71812204Y-59888530D01*
X71813965Y-59886559D01*
X71815818Y-59884671D01*
X71817760Y-59882869D01*
X71819786Y-59881156D01*
X71821894Y-59879537D01*
X71824079Y-59878015D01*
X71826338Y-59876594D01*
X71828666Y-59875277D01*
X71831060Y-59874069D01*
X71833517Y-59872972D01*
X71836032Y-59871990D01*
X71838602Y-59871128D01*
X71841223Y-59870388D01*
X71843891Y-59869774D01*
X71846603Y-59869290D01*
X71849354Y-59868940D01*
X71852141Y-59868728D01*
X71854961Y-59868656D01*
X72131882Y-59868656D01*
X72131882Y-59978020D01*
D11*
X77171686Y-60367243D02*
X77216355Y-60348034D01*
X77079096Y-60399343D02*
X77125911Y-60384366D01*
D12*
X71959952Y-58400075D02*
X72069540Y-58412127D01*
D11*
X76108968Y-60190881D02*
X76074100Y-60158469D01*
X77667715Y-59936170D02*
X77690266Y-59894141D01*
X77526347Y-60126573D02*
X77558224Y-60091327D01*
D12*
X73544438Y-58989826D02*
X73589751Y-59037680D01*
X73779241Y-59573410D02*
X73770492Y-59516250D01*
X73793647Y-59629734D02*
X73779241Y-59573410D01*
D11*
X77457631Y-60192386D02*
X77492795Y-60160279D01*
X74462877Y-58782145D02*
X74495438Y-58815355D01*
D12*
X75360445Y-60532537D02*
X75255052Y-60514868D01*
D11*
X72861448Y-59830539D02*
X72843841Y-59787114D01*
X74632213Y-59914129D02*
X74608535Y-59954174D01*
X74653930Y-59872897D02*
X74632213Y-59914129D01*
D10*
X66373291Y-60077981D02*
X66373853Y-60099671D01*
X66373853Y-60099671D02*
X66375523Y-60121073D01*
X66375523Y-60121073D02*
X66378272Y-60142161D01*
X66378272Y-60142161D02*
X66382073Y-60162909D01*
X66382073Y-60162909D02*
X66386901Y-60183289D01*
X66386901Y-60183289D02*
X66392727Y-60203276D01*
X66392727Y-60203276D02*
X66399524Y-60222844D01*
X66399524Y-60222844D02*
X66407267Y-60241967D01*
X66407267Y-60241967D02*
X66415926Y-60260617D01*
X66415926Y-60260617D02*
X66425477Y-60278770D01*
X66425477Y-60278770D02*
X66435891Y-60296398D01*
X66435891Y-60296398D02*
X66447141Y-60313475D01*
X66447141Y-60313475D02*
X66459201Y-60329975D01*
X66459201Y-60329975D02*
X66472044Y-60345872D01*
X66472044Y-60345872D02*
X66485642Y-60361140D01*
X66485642Y-60361140D02*
X66499968Y-60375752D01*
X66499968Y-60375752D02*
X66514996Y-60389681D01*
X66514996Y-60389681D02*
X66530698Y-60402903D01*
X66530698Y-60402903D02*
X66547047Y-60415390D01*
X66547047Y-60415390D02*
X66564017Y-60427115D01*
X66564017Y-60427115D02*
X66581580Y-60438054D01*
X66581580Y-60438054D02*
X66599709Y-60448180D01*
X66599709Y-60448180D02*
X66618377Y-60457466D01*
X66618377Y-60457466D02*
X66637558Y-60465885D01*
X66637558Y-60465885D02*
X66657224Y-60473413D01*
X66657224Y-60473413D02*
X66677347Y-60480022D01*
X66677347Y-60480022D02*
X66697902Y-60485687D01*
X66697902Y-60485687D02*
X66718861Y-60490380D01*
X66718861Y-60490380D02*
X66740198Y-60494077D01*
X66740198Y-60494077D02*
X66761884Y-60496749D01*
X66761884Y-60496749D02*
X66783893Y-60498372D01*
X66783893Y-60498372D02*
X66806198Y-60498919D01*
X66806198Y-60498919D02*
X66828399Y-60498372D01*
X66828399Y-60498372D02*
X66850317Y-60496749D01*
X66850317Y-60496749D02*
X66871925Y-60494077D01*
X66871925Y-60494077D02*
X66893195Y-60490380D01*
X66893195Y-60490380D02*
X66914099Y-60485687D01*
X66914099Y-60485687D02*
X66934609Y-60480022D01*
X66934609Y-60480022D02*
X66954698Y-60473413D01*
X66954698Y-60473413D02*
X66974339Y-60465885D01*
X66974339Y-60465885D02*
X66993503Y-60457466D01*
X66993503Y-60457466D02*
X67012163Y-60448180D01*
X67012163Y-60448180D02*
X67030291Y-60438054D01*
X67030291Y-60438054D02*
X67047859Y-60427115D01*
X67047859Y-60427115D02*
X67064840Y-60415390D01*
X67064840Y-60415390D02*
X67081207Y-60402903D01*
X67081207Y-60402903D02*
X67096930Y-60389681D01*
X67096930Y-60389681D02*
X67111984Y-60375752D01*
X67111984Y-60375752D02*
X67126340Y-60361140D01*
X67126340Y-60361140D02*
X67139970Y-60345872D01*
X67139970Y-60345872D02*
X67152847Y-60329975D01*
X67152847Y-60329975D02*
X67164943Y-60313475D01*
X67164943Y-60313475D02*
X67176230Y-60296398D01*
X67176230Y-60296398D02*
X67186681Y-60278770D01*
X67186681Y-60278770D02*
X67196268Y-60260617D01*
X67196268Y-60260617D02*
X67204963Y-60241967D01*
X67204963Y-60241967D02*
X67212739Y-60222844D01*
X67212739Y-60222844D02*
X67219568Y-60203276D01*
X67219568Y-60203276D02*
X67225423Y-60183289D01*
X67225423Y-60183289D02*
X67230275Y-60162909D01*
X67230275Y-60162909D02*
X67234096Y-60142161D01*
X67234096Y-60142161D02*
X67236861Y-60121073D01*
X67236861Y-60121073D02*
X67238539Y-60099671D01*
X67238539Y-60099671D02*
X67239105Y-60077981D01*
X67239105Y-60077981D02*
X67238539Y-60056389D01*
X67238539Y-60056389D02*
X67236861Y-60035072D01*
X67236861Y-60035072D02*
X67234096Y-60014057D01*
X67234096Y-60014057D02*
X67230275Y-59993371D01*
X67230275Y-59993371D02*
X67225423Y-59973041D01*
X67225423Y-59973041D02*
X67219568Y-59953093D01*
X67219568Y-59953093D02*
X67212739Y-59933555D01*
X67212739Y-59933555D02*
X67204963Y-59914454D01*
X67204963Y-59914454D02*
X67196268Y-59895816D01*
X67196268Y-59895816D02*
X67186681Y-59877669D01*
X67186681Y-59877669D02*
X67176230Y-59860039D01*
X67176230Y-59860039D02*
X67164943Y-59842953D01*
X67164943Y-59842953D02*
X67152847Y-59826438D01*
X67152847Y-59826438D02*
X67139970Y-59810521D01*
X67139970Y-59810521D02*
X67126340Y-59795229D01*
X67126340Y-59795229D02*
X67111984Y-59780589D01*
X67111984Y-59780589D02*
X67096930Y-59766628D01*
X67096930Y-59766628D02*
X67081207Y-59753373D01*
X67081207Y-59753373D02*
X67064840Y-59740850D01*
X67064840Y-59740850D02*
X67047859Y-59729087D01*
X67047859Y-59729087D02*
X67030291Y-59718110D01*
X67030291Y-59718110D02*
X67012163Y-59707946D01*
X67012163Y-59707946D02*
X66993503Y-59698622D01*
X66993503Y-59698622D02*
X66974339Y-59690166D01*
X66974339Y-59690166D02*
X66954698Y-59682604D01*
X66954698Y-59682604D02*
X66934609Y-59675963D01*
X66934609Y-59675963D02*
X66914099Y-59670270D01*
X66914099Y-59670270D02*
X66893195Y-59665551D01*
X66893195Y-59665551D02*
X66871925Y-59661834D01*
X66871925Y-59661834D02*
X66850317Y-59659146D01*
X66850317Y-59659146D02*
X66828399Y-59657513D01*
X66828399Y-59657513D02*
X66806198Y-59656963D01*
X66806198Y-59656963D02*
X66783893Y-59657513D01*
X66783893Y-59657513D02*
X66761884Y-59659146D01*
X66761884Y-59659146D02*
X66740198Y-59661834D01*
X66740198Y-59661834D02*
X66718861Y-59665551D01*
X66718861Y-59665551D02*
X66697902Y-59670270D01*
X66697902Y-59670270D02*
X66677347Y-59675963D01*
X66677347Y-59675963D02*
X66657224Y-59682604D01*
X66657224Y-59682604D02*
X66637558Y-59690166D01*
X66637558Y-59690166D02*
X66618377Y-59698622D01*
X66618377Y-59698622D02*
X66599709Y-59707946D01*
X66599709Y-59707946D02*
X66581580Y-59718110D01*
X66581580Y-59718110D02*
X66564017Y-59729087D01*
X66564017Y-59729087D02*
X66547047Y-59740850D01*
X66547047Y-59740850D02*
X66530698Y-59753373D01*
X66530698Y-59753373D02*
X66514996Y-59766628D01*
X66514996Y-59766628D02*
X66499968Y-59780589D01*
X66499968Y-59780589D02*
X66485642Y-59795229D01*
X66485642Y-59795229D02*
X66472044Y-59810521D01*
X66472044Y-59810521D02*
X66459201Y-59826438D01*
X66459201Y-59826438D02*
X66447141Y-59842953D01*
X66447141Y-59842953D02*
X66435891Y-59860039D01*
X66435891Y-59860039D02*
X66425477Y-59877669D01*
X66425477Y-59877669D02*
X66415926Y-59895816D01*
X66415926Y-59895816D02*
X66407267Y-59914454D01*
X66407267Y-59914454D02*
X66399524Y-59933555D01*
X66399524Y-59933555D02*
X66392727Y-59953093D01*
X66392727Y-59953093D02*
X66386901Y-59973041D01*
X66386901Y-59973041D02*
X66382073Y-59993371D01*
X66382073Y-59993371D02*
X66378272Y-60014057D01*
X66378272Y-60014057D02*
X66375523Y-60035072D01*
X66375523Y-60035072D02*
X66373853Y-60056389D01*
X66373853Y-60056389D02*
X66373291Y-60077981D01*
X66373291Y-60077981D02*
X66373291Y-60077981D01*
G36*
X66828399Y-59657513D02*
G01*
X66850317Y-59659146D01*
X66871925Y-59661834D01*
X66893195Y-59665551D01*
X66914099Y-59670270D01*
X66934609Y-59675963D01*
X66954698Y-59682604D01*
X66974339Y-59690166D01*
X66993503Y-59698622D01*
X67012163Y-59707946D01*
X67030291Y-59718110D01*
X67047859Y-59729087D01*
X67064840Y-59740850D01*
X67081207Y-59753373D01*
X67096930Y-59766628D01*
X67111984Y-59780589D01*
X67126340Y-59795229D01*
X67139970Y-59810521D01*
X67152847Y-59826438D01*
X67164943Y-59842953D01*
X67176230Y-59860039D01*
X67186681Y-59877669D01*
X67196268Y-59895816D01*
X67204963Y-59914454D01*
X67212739Y-59933555D01*
X67219568Y-59953093D01*
X67225423Y-59973041D01*
X67230275Y-59993371D01*
X67234096Y-60014057D01*
X67236861Y-60035072D01*
X67238539Y-60056389D01*
X67239105Y-60077981D01*
X67238539Y-60099671D01*
X67236861Y-60121073D01*
X67234096Y-60142161D01*
X67230275Y-60162909D01*
X67225423Y-60183289D01*
X67219568Y-60203276D01*
X67212739Y-60222844D01*
X67204963Y-60241967D01*
X67196268Y-60260617D01*
X67186681Y-60278770D01*
X67176230Y-60296398D01*
X67164943Y-60313475D01*
X67152847Y-60329975D01*
X67139970Y-60345872D01*
X67126340Y-60361140D01*
X67111984Y-60375752D01*
X67096930Y-60389681D01*
X67081207Y-60402903D01*
X67064840Y-60415390D01*
X67047859Y-60427115D01*
X67030291Y-60438054D01*
X67012163Y-60448180D01*
X66993503Y-60457466D01*
X66974339Y-60465885D01*
X66954698Y-60473413D01*
X66934609Y-60480022D01*
X66914099Y-60485687D01*
X66893195Y-60490380D01*
X66871925Y-60494077D01*
X66850317Y-60496749D01*
X66828399Y-60498372D01*
X66806198Y-60498919D01*
X66783893Y-60498372D01*
X66761884Y-60496749D01*
X66740198Y-60494077D01*
X66718861Y-60490380D01*
X66697902Y-60485687D01*
X66677347Y-60480022D01*
X66657224Y-60473413D01*
X66637558Y-60465885D01*
X66618377Y-60457466D01*
X66599709Y-60448180D01*
X66581580Y-60438054D01*
X66564017Y-60427115D01*
X66547047Y-60415390D01*
X66530698Y-60402903D01*
X66514996Y-60389681D01*
X66499968Y-60375752D01*
X66485642Y-60361140D01*
X66472044Y-60345872D01*
X66459201Y-60329975D01*
X66447141Y-60313475D01*
X66435891Y-60296398D01*
X66425477Y-60278770D01*
X66415926Y-60260617D01*
X66407267Y-60241967D01*
X66399524Y-60222844D01*
X66392727Y-60203276D01*
X66386901Y-60183289D01*
X66382073Y-60162909D01*
X66378272Y-60142161D01*
X66375523Y-60121073D01*
X66373853Y-60099671D01*
X66373291Y-60077981D01*
X66373853Y-60056389D01*
X66375523Y-60035072D01*
X66378272Y-60014057D01*
X66382073Y-59993371D01*
X66386901Y-59973041D01*
X66392727Y-59953093D01*
X66399524Y-59933555D01*
X66407267Y-59914454D01*
X66415926Y-59895816D01*
X66425477Y-59877669D01*
X66435891Y-59860039D01*
X66447141Y-59842953D01*
X66459201Y-59826438D01*
X66472044Y-59810521D01*
X66485642Y-59795229D01*
X66499968Y-59780589D01*
X66514996Y-59766628D01*
X66530698Y-59753373D01*
X66547047Y-59740850D01*
X66564017Y-59729087D01*
X66581580Y-59718110D01*
X66599709Y-59707946D01*
X66618377Y-59698622D01*
X66637558Y-59690166D01*
X66657224Y-59682604D01*
X66677347Y-59675963D01*
X66697902Y-59670270D01*
X66718861Y-59665551D01*
X66740198Y-59661834D01*
X66761884Y-59659146D01*
X66783893Y-59657513D01*
X66806198Y-59656963D01*
X66828399Y-59657513D01*
G37*
X66828399Y-59657513D02*
X66850317Y-59659146D01*
X66871925Y-59661834D01*
X66893195Y-59665551D01*
X66914099Y-59670270D01*
X66934609Y-59675963D01*
X66954698Y-59682604D01*
X66974339Y-59690166D01*
X66993503Y-59698622D01*
X67012163Y-59707946D01*
X67030291Y-59718110D01*
X67047859Y-59729087D01*
X67064840Y-59740850D01*
X67081207Y-59753373D01*
X67096930Y-59766628D01*
X67111984Y-59780589D01*
X67126340Y-59795229D01*
X67139970Y-59810521D01*
X67152847Y-59826438D01*
X67164943Y-59842953D01*
X67176230Y-59860039D01*
X67186681Y-59877669D01*
X67196268Y-59895816D01*
X67204963Y-59914454D01*
X67212739Y-59933555D01*
X67219568Y-59953093D01*
X67225423Y-59973041D01*
X67230275Y-59993371D01*
X67234096Y-60014057D01*
X67236861Y-60035072D01*
X67238539Y-60056389D01*
X67239105Y-60077981D01*
X67238539Y-60099671D01*
X67236861Y-60121073D01*
X67234096Y-60142161D01*
X67230275Y-60162909D01*
X67225423Y-60183289D01*
X67219568Y-60203276D01*
X67212739Y-60222844D01*
X67204963Y-60241967D01*
X67196268Y-60260617D01*
X67186681Y-60278770D01*
X67176230Y-60296398D01*
X67164943Y-60313475D01*
X67152847Y-60329975D01*
X67139970Y-60345872D01*
X67126340Y-60361140D01*
X67111984Y-60375752D01*
X67096930Y-60389681D01*
X67081207Y-60402903D01*
X67064840Y-60415390D01*
X67047859Y-60427115D01*
X67030291Y-60438054D01*
X67012163Y-60448180D01*
X66993503Y-60457466D01*
X66974339Y-60465885D01*
X66954698Y-60473413D01*
X66934609Y-60480022D01*
X66914099Y-60485687D01*
X66893195Y-60490380D01*
X66871925Y-60494077D01*
X66850317Y-60496749D01*
X66828399Y-60498372D01*
X66806198Y-60498919D01*
X66783893Y-60498372D01*
X66761884Y-60496749D01*
X66740198Y-60494077D01*
X66718861Y-60490380D01*
X66697902Y-60485687D01*
X66677347Y-60480022D01*
X66657224Y-60473413D01*
X66637558Y-60465885D01*
X66618377Y-60457466D01*
X66599709Y-60448180D01*
X66581580Y-60438054D01*
X66564017Y-60427115D01*
X66547047Y-60415390D01*
X66530698Y-60402903D01*
X66514996Y-60389681D01*
X66499968Y-60375752D01*
X66485642Y-60361140D01*
X66472044Y-60345872D01*
X66459201Y-60329975D01*
X66447141Y-60313475D01*
X66435891Y-60296398D01*
X66425477Y-60278770D01*
X66415926Y-60260617D01*
X66407267Y-60241967D01*
X66399524Y-60222844D01*
X66392727Y-60203276D01*
X66386901Y-60183289D01*
X66382073Y-60162909D01*
X66378272Y-60142161D01*
X66375523Y-60121073D01*
X66373853Y-60099671D01*
X66373291Y-60077981D01*
X66373853Y-60056389D01*
X66375523Y-60035072D01*
X66378272Y-60014057D01*
X66382073Y-59993371D01*
X66386901Y-59973041D01*
X66392727Y-59953093D01*
X66399524Y-59933555D01*
X66407267Y-59914454D01*
X66415926Y-59895816D01*
X66425477Y-59877669D01*
X66435891Y-59860039D01*
X66447141Y-59842953D01*
X66459201Y-59826438D01*
X66472044Y-59810521D01*
X66485642Y-59795229D01*
X66499968Y-59780589D01*
X66514996Y-59766628D01*
X66530698Y-59753373D01*
X66547047Y-59740850D01*
X66564017Y-59729087D01*
X66581580Y-59718110D01*
X66599709Y-59707946D01*
X66618377Y-59698622D01*
X66637558Y-59690166D01*
X66657224Y-59682604D01*
X66677347Y-59675963D01*
X66697902Y-59670270D01*
X66718861Y-59665551D01*
X66740198Y-59661834D01*
X66761884Y-59659146D01*
X66783893Y-59657513D01*
X66806198Y-59656963D01*
X66828399Y-59657513D01*
D12*
X74356260Y-60214781D02*
X74285016Y-60173981D01*
X73630264Y-59086743D02*
X73665835Y-59136945D01*
D11*
X77616700Y-60016462D02*
X77643172Y-59976964D01*
X72952110Y-59992973D02*
X72926532Y-59954174D01*
D12*
X73813571Y-59685151D02*
X73793647Y-59629734D01*
D11*
X72843841Y-59787114D02*
X72828382Y-59742682D01*
X72804151Y-59265599D02*
X72815131Y-59219334D01*
X74013295Y-58532181D02*
X74059958Y-58545066D01*
X73716937Y-58503322D02*
X73767544Y-58502077D01*
D12*
X76035153Y-60583056D02*
X75918370Y-60581594D01*
D10*
X68415791Y-60077981D02*
X68416086Y-60066585D01*
X68416086Y-60066585D02*
X68416962Y-60055340D01*
X68416962Y-60055340D02*
X68418405Y-60044261D01*
X68418405Y-60044261D02*
X68420401Y-60033362D01*
X68420401Y-60033362D02*
X68422935Y-60022655D01*
X68422935Y-60022655D02*
X68425993Y-60012156D01*
X68425993Y-60012156D02*
X68429561Y-60001877D01*
X68429561Y-60001877D02*
X68433625Y-59991832D01*
X68433625Y-59991832D02*
X68438171Y-59982036D01*
X68438171Y-59982036D02*
X68443184Y-59972502D01*
X68443184Y-59972502D02*
X68448651Y-59963244D01*
X68448651Y-59963244D02*
X68454557Y-59954275D01*
X68454557Y-59954275D02*
X68460888Y-59945609D01*
X68460888Y-59945609D02*
X68467630Y-59937261D01*
X68467630Y-59937261D02*
X68474769Y-59929243D01*
X68474769Y-59929243D02*
X68482290Y-59921570D01*
X68482290Y-59921570D02*
X68490180Y-59914255D01*
X68490180Y-59914255D02*
X68498424Y-59907312D01*
X68498424Y-59907312D02*
X68507008Y-59900756D01*
X68507008Y-59900756D02*
X68515918Y-59894599D01*
X68515918Y-59894599D02*
X68525140Y-59888855D01*
X68525140Y-59888855D02*
X68534659Y-59883539D01*
X68534659Y-59883539D02*
X68544462Y-59878663D01*
X68544462Y-59878663D02*
X68554534Y-59874243D01*
X68554534Y-59874243D02*
X68564862Y-59870291D01*
X68564862Y-59870291D02*
X68575430Y-59866821D01*
X68575430Y-59866821D02*
X68586224Y-59863847D01*
X68586224Y-59863847D02*
X68597232Y-59861383D01*
X68597232Y-59861383D02*
X68608438Y-59859442D01*
X68608438Y-59859442D02*
X68619828Y-59858039D01*
X68619828Y-59858039D02*
X68631388Y-59857187D01*
X68631388Y-59857187D02*
X68643104Y-59856900D01*
X68643104Y-59856900D02*
X68654715Y-59857187D01*
X68654715Y-59857187D02*
X68666184Y-59858039D01*
X68666184Y-59858039D02*
X68677496Y-59859442D01*
X68677496Y-59859442D02*
X68688636Y-59861383D01*
X68688636Y-59861383D02*
X68699588Y-59863847D01*
X68699588Y-59863847D02*
X68710339Y-59866821D01*
X68710339Y-59866821D02*
X68720874Y-59870291D01*
X68720874Y-59870291D02*
X68731177Y-59874243D01*
X68731177Y-59874243D02*
X68741234Y-59878663D01*
X68741234Y-59878663D02*
X68751030Y-59883539D01*
X68751030Y-59883539D02*
X68760551Y-59888855D01*
X68760551Y-59888855D02*
X68769780Y-59894599D01*
X68769780Y-59894599D02*
X68778704Y-59900756D01*
X68778704Y-59900756D02*
X68787307Y-59907312D01*
X68787307Y-59907312D02*
X68795576Y-59914255D01*
X68795576Y-59914255D02*
X68803494Y-59921570D01*
X68803494Y-59921570D02*
X68811047Y-59929243D01*
X68811047Y-59929243D02*
X68818220Y-59937261D01*
X68818220Y-59937261D02*
X68824999Y-59945609D01*
X68824999Y-59945609D02*
X68831369Y-59954275D01*
X68831369Y-59954275D02*
X68837314Y-59963244D01*
X68837314Y-59963244D02*
X68842820Y-59972502D01*
X68842820Y-59972502D02*
X68847872Y-59982036D01*
X68847872Y-59982036D02*
X68852455Y-59991832D01*
X68852455Y-59991832D02*
X68856555Y-60001877D01*
X68856555Y-60001877D02*
X68860156Y-60012156D01*
X68860156Y-60012156D02*
X68863244Y-60022655D01*
X68863244Y-60022655D02*
X68865804Y-60033362D01*
X68865804Y-60033362D02*
X68867821Y-60044261D01*
X68867821Y-60044261D02*
X68869279Y-60055340D01*
X68869279Y-60055340D02*
X68870166Y-60066585D01*
X68870166Y-60066585D02*
X68870464Y-60077981D01*
X68870464Y-60077981D02*
X68870166Y-60089374D01*
X68870166Y-60089374D02*
X68869279Y-60100616D01*
X68869279Y-60100616D02*
X68867821Y-60111692D01*
X68867821Y-60111692D02*
X68865804Y-60122589D01*
X68865804Y-60122589D02*
X68863244Y-60133293D01*
X68863244Y-60133293D02*
X68860156Y-60143790D01*
X68860156Y-60143790D02*
X68856555Y-60154067D01*
X68856555Y-60154067D02*
X68852455Y-60164109D01*
X68852455Y-60164109D02*
X68847872Y-60173904D01*
X68847872Y-60173904D02*
X68842820Y-60183436D01*
X68842820Y-60183436D02*
X68837314Y-60192693D01*
X68837314Y-60192693D02*
X68831369Y-60201661D01*
X68831369Y-60201661D02*
X68824999Y-60210325D01*
X68824999Y-60210325D02*
X68818220Y-60218673D01*
X68818220Y-60218673D02*
X68811047Y-60226689D01*
X68811047Y-60226689D02*
X68803494Y-60234362D01*
X68803494Y-60234362D02*
X68795576Y-60241676D01*
X68795576Y-60241676D02*
X68787307Y-60248618D01*
X68787307Y-60248618D02*
X68778704Y-60255174D01*
X68778704Y-60255174D02*
X68769780Y-60261331D01*
X68769780Y-60261331D02*
X68760551Y-60267074D01*
X68760551Y-60267074D02*
X68751030Y-60272390D01*
X68751030Y-60272390D02*
X68741234Y-60277265D01*
X68741234Y-60277265D02*
X68731177Y-60281686D01*
X68731177Y-60281686D02*
X68720874Y-60285638D01*
X68720874Y-60285638D02*
X68710339Y-60289107D01*
X68710339Y-60289107D02*
X68699588Y-60292081D01*
X68699588Y-60292081D02*
X68688636Y-60294545D01*
X68688636Y-60294545D02*
X68677496Y-60296485D01*
X68677496Y-60296485D02*
X68666184Y-60297889D01*
X68666184Y-60297889D02*
X68654715Y-60298740D01*
X68654715Y-60298740D02*
X68643104Y-60299028D01*
X68643104Y-60299028D02*
X68631388Y-60298740D01*
X68631388Y-60298740D02*
X68619828Y-60297889D01*
X68619828Y-60297889D02*
X68608438Y-60296485D01*
X68608438Y-60296485D02*
X68597232Y-60294545D01*
X68597232Y-60294545D02*
X68586224Y-60292081D01*
X68586224Y-60292081D02*
X68575430Y-60289107D01*
X68575430Y-60289107D02*
X68564862Y-60285638D01*
X68564862Y-60285638D02*
X68554534Y-60281686D01*
X68554534Y-60281686D02*
X68544462Y-60277265D01*
X68544462Y-60277265D02*
X68534659Y-60272390D01*
X68534659Y-60272390D02*
X68525140Y-60267074D01*
X68525140Y-60267074D02*
X68515918Y-60261331D01*
X68515918Y-60261331D02*
X68507008Y-60255174D01*
X68507008Y-60255174D02*
X68498424Y-60248618D01*
X68498424Y-60248618D02*
X68490180Y-60241676D01*
X68490180Y-60241676D02*
X68482290Y-60234362D01*
X68482290Y-60234362D02*
X68474769Y-60226689D01*
X68474769Y-60226689D02*
X68467630Y-60218673D01*
X68467630Y-60218673D02*
X68460888Y-60210325D01*
X68460888Y-60210325D02*
X68454557Y-60201661D01*
X68454557Y-60201661D02*
X68448651Y-60192693D01*
X68448651Y-60192693D02*
X68443184Y-60183436D01*
X68443184Y-60183436D02*
X68438171Y-60173904D01*
X68438171Y-60173904D02*
X68433625Y-60164109D01*
X68433625Y-60164109D02*
X68429561Y-60154067D01*
X68429561Y-60154067D02*
X68425993Y-60143790D01*
X68425993Y-60143790D02*
X68422935Y-60133293D01*
X68422935Y-60133293D02*
X68420401Y-60122589D01*
X68420401Y-60122589D02*
X68418405Y-60111692D01*
X68418405Y-60111692D02*
X68416962Y-60100616D01*
X68416962Y-60100616D02*
X68416086Y-60089374D01*
X68416086Y-60089374D02*
X68415791Y-60077981D01*
X68415791Y-60077981D02*
X68415791Y-60077981D01*
G36*
X68654715Y-59857187D02*
G01*
X68666184Y-59858039D01*
X68677496Y-59859442D01*
X68688636Y-59861383D01*
X68699588Y-59863847D01*
X68710339Y-59866821D01*
X68720874Y-59870291D01*
X68731177Y-59874243D01*
X68741234Y-59878663D01*
X68751030Y-59883539D01*
X68760551Y-59888855D01*
X68769780Y-59894599D01*
X68778704Y-59900756D01*
X68787307Y-59907312D01*
X68795576Y-59914255D01*
X68803494Y-59921570D01*
X68811047Y-59929243D01*
X68818220Y-59937261D01*
X68824999Y-59945609D01*
X68831369Y-59954275D01*
X68837314Y-59963244D01*
X68842820Y-59972502D01*
X68847872Y-59982036D01*
X68852455Y-59991832D01*
X68856555Y-60001877D01*
X68860156Y-60012156D01*
X68863244Y-60022655D01*
X68865804Y-60033362D01*
X68867821Y-60044261D01*
X68869279Y-60055340D01*
X68870166Y-60066585D01*
X68870464Y-60077981D01*
X68870166Y-60089374D01*
X68869279Y-60100616D01*
X68867821Y-60111692D01*
X68865804Y-60122589D01*
X68863244Y-60133293D01*
X68860156Y-60143790D01*
X68856555Y-60154067D01*
X68852455Y-60164109D01*
X68847872Y-60173904D01*
X68842820Y-60183436D01*
X68837314Y-60192693D01*
X68831369Y-60201661D01*
X68824999Y-60210325D01*
X68818220Y-60218673D01*
X68811047Y-60226689D01*
X68803494Y-60234362D01*
X68795576Y-60241676D01*
X68787307Y-60248618D01*
X68778704Y-60255174D01*
X68769780Y-60261331D01*
X68760551Y-60267074D01*
X68751030Y-60272390D01*
X68741234Y-60277265D01*
X68731177Y-60281686D01*
X68720874Y-60285638D01*
X68710339Y-60289107D01*
X68699588Y-60292081D01*
X68688636Y-60294545D01*
X68677496Y-60296485D01*
X68666184Y-60297889D01*
X68654715Y-60298740D01*
X68643104Y-60299028D01*
X68631388Y-60298740D01*
X68619828Y-60297889D01*
X68608438Y-60296485D01*
X68597232Y-60294545D01*
X68586224Y-60292081D01*
X68575430Y-60289107D01*
X68564862Y-60285638D01*
X68554534Y-60281686D01*
X68544462Y-60277265D01*
X68534659Y-60272390D01*
X68525140Y-60267074D01*
X68515918Y-60261331D01*
X68507008Y-60255174D01*
X68498424Y-60248618D01*
X68490180Y-60241676D01*
X68482290Y-60234362D01*
X68474769Y-60226689D01*
X68467630Y-60218673D01*
X68460888Y-60210325D01*
X68454557Y-60201661D01*
X68448651Y-60192693D01*
X68443184Y-60183436D01*
X68438171Y-60173904D01*
X68433625Y-60164109D01*
X68429561Y-60154067D01*
X68425993Y-60143790D01*
X68422935Y-60133293D01*
X68420401Y-60122589D01*
X68418405Y-60111692D01*
X68416962Y-60100616D01*
X68416086Y-60089374D01*
X68415791Y-60077981D01*
X68416086Y-60066585D01*
X68416962Y-60055340D01*
X68418405Y-60044261D01*
X68420401Y-60033362D01*
X68422935Y-60022655D01*
X68425993Y-60012156D01*
X68429561Y-60001877D01*
X68433625Y-59991832D01*
X68438171Y-59982036D01*
X68443184Y-59972502D01*
X68448651Y-59963244D01*
X68454557Y-59954275D01*
X68460888Y-59945609D01*
X68467630Y-59937261D01*
X68474769Y-59929243D01*
X68482290Y-59921570D01*
X68490180Y-59914255D01*
X68498424Y-59907312D01*
X68507008Y-59900756D01*
X68515918Y-59894599D01*
X68525140Y-59888855D01*
X68534659Y-59883539D01*
X68544462Y-59878663D01*
X68554534Y-59874243D01*
X68564862Y-59870291D01*
X68575430Y-59866821D01*
X68586224Y-59863847D01*
X68597232Y-59861383D01*
X68608438Y-59859442D01*
X68619828Y-59858039D01*
X68631388Y-59857187D01*
X68643104Y-59856900D01*
X68654715Y-59857187D01*
G37*
X68654715Y-59857187D02*
X68666184Y-59858039D01*
X68677496Y-59859442D01*
X68688636Y-59861383D01*
X68699588Y-59863847D01*
X68710339Y-59866821D01*
X68720874Y-59870291D01*
X68731177Y-59874243D01*
X68741234Y-59878663D01*
X68751030Y-59883539D01*
X68760551Y-59888855D01*
X68769780Y-59894599D01*
X68778704Y-59900756D01*
X68787307Y-59907312D01*
X68795576Y-59914255D01*
X68803494Y-59921570D01*
X68811047Y-59929243D01*
X68818220Y-59937261D01*
X68824999Y-59945609D01*
X68831369Y-59954275D01*
X68837314Y-59963244D01*
X68842820Y-59972502D01*
X68847872Y-59982036D01*
X68852455Y-59991832D01*
X68856555Y-60001877D01*
X68860156Y-60012156D01*
X68863244Y-60022655D01*
X68865804Y-60033362D01*
X68867821Y-60044261D01*
X68869279Y-60055340D01*
X68870166Y-60066585D01*
X68870464Y-60077981D01*
X68870166Y-60089374D01*
X68869279Y-60100616D01*
X68867821Y-60111692D01*
X68865804Y-60122589D01*
X68863244Y-60133293D01*
X68860156Y-60143790D01*
X68856555Y-60154067D01*
X68852455Y-60164109D01*
X68847872Y-60173904D01*
X68842820Y-60183436D01*
X68837314Y-60192693D01*
X68831369Y-60201661D01*
X68824999Y-60210325D01*
X68818220Y-60218673D01*
X68811047Y-60226689D01*
X68803494Y-60234362D01*
X68795576Y-60241676D01*
X68787307Y-60248618D01*
X68778704Y-60255174D01*
X68769780Y-60261331D01*
X68760551Y-60267074D01*
X68751030Y-60272390D01*
X68741234Y-60277265D01*
X68731177Y-60281686D01*
X68720874Y-60285638D01*
X68710339Y-60289107D01*
X68699588Y-60292081D01*
X68688636Y-60294545D01*
X68677496Y-60296485D01*
X68666184Y-60297889D01*
X68654715Y-60298740D01*
X68643104Y-60299028D01*
X68631388Y-60298740D01*
X68619828Y-60297889D01*
X68608438Y-60296485D01*
X68597232Y-60294545D01*
X68586224Y-60292081D01*
X68575430Y-60289107D01*
X68564862Y-60285638D01*
X68554534Y-60281686D01*
X68544462Y-60277265D01*
X68534659Y-60272390D01*
X68525140Y-60267074D01*
X68515918Y-60261331D01*
X68507008Y-60255174D01*
X68498424Y-60248618D01*
X68490180Y-60241676D01*
X68482290Y-60234362D01*
X68474769Y-60226689D01*
X68467630Y-60218673D01*
X68460888Y-60210325D01*
X68454557Y-60201661D01*
X68448651Y-60192693D01*
X68443184Y-60183436D01*
X68438171Y-60173904D01*
X68433625Y-60164109D01*
X68429561Y-60154067D01*
X68425993Y-60143790D01*
X68422935Y-60133293D01*
X68420401Y-60122589D01*
X68418405Y-60111692D01*
X68416962Y-60100616D01*
X68416086Y-60089374D01*
X68415791Y-60077981D01*
X68416086Y-60066585D01*
X68416962Y-60055340D01*
X68418405Y-60044261D01*
X68420401Y-60033362D01*
X68422935Y-60022655D01*
X68425993Y-60012156D01*
X68429561Y-60001877D01*
X68433625Y-59991832D01*
X68438171Y-59982036D01*
X68443184Y-59972502D01*
X68448651Y-59963244D01*
X68454557Y-59954275D01*
X68460888Y-59945609D01*
X68467630Y-59937261D01*
X68474769Y-59929243D01*
X68482290Y-59921570D01*
X68490180Y-59914255D01*
X68498424Y-59907312D01*
X68507008Y-59900756D01*
X68515918Y-59894599D01*
X68525140Y-59888855D01*
X68534659Y-59883539D01*
X68544462Y-59878663D01*
X68554534Y-59874243D01*
X68564862Y-59870291D01*
X68575430Y-59866821D01*
X68586224Y-59863847D01*
X68597232Y-59861383D01*
X68608438Y-59859442D01*
X68619828Y-59858039D01*
X68631388Y-59857187D01*
X68643104Y-59856900D01*
X68654715Y-59857187D01*
D11*
X73429416Y-60356557D02*
X73384759Y-60339434D01*
X74582956Y-58923665D02*
X74608535Y-58962463D01*
X72881140Y-59872897D02*
X72861448Y-59830539D01*
X72979525Y-60030464D02*
X72952110Y-59992973D01*
X73917296Y-58513095D02*
X73965720Y-58521504D01*
X74236263Y-58617486D02*
X74277443Y-58640510D01*
X73179164Y-60224605D02*
X73142016Y-60196217D01*
D12*
X74592307Y-60326395D02*
X74510047Y-60291059D01*
D11*
X75925414Y-59973851D02*
X75901246Y-59932845D01*
X73569351Y-58521504D02*
X73617779Y-58513095D01*
X77031303Y-60412113D02*
X77079096Y-60399343D01*
X74750903Y-59458325D02*
X74750903Y-59458325D01*
X76784385Y-60445102D02*
X76732667Y-60443829D01*
X73257616Y-58640510D02*
X73298797Y-58617486D01*
D12*
X72177021Y-58426672D02*
X72282253Y-58443642D01*
D11*
X77259857Y-60326800D02*
X77302128Y-60303603D01*
X77759281Y-59714886D02*
X77770921Y-59667591D01*
X74745826Y-59556095D02*
X74739572Y-59603951D01*
D14*
X62533333Y-74672380D02*
X62533333Y-73672380D01*
X62295238Y-73672380D01*
X62152380Y-73720000D01*
X62057142Y-73815238D01*
X62009523Y-73910476D01*
X61961904Y-74100952D01*
X61961904Y-74243809D01*
X62009523Y-74434285D01*
X62057142Y-74529523D01*
X62152380Y-74624761D01*
X62295238Y-74672380D01*
X62533333Y-74672380D01*
X61152380Y-74624761D02*
X61247619Y-74672380D01*
X61438095Y-74672380D01*
X61533333Y-74624761D01*
X61580952Y-74529523D01*
X61580952Y-74148571D01*
X61533333Y-74053333D01*
X61438095Y-74005714D01*
X61247619Y-74005714D01*
X61152380Y-74053333D01*
X61104761Y-74148571D01*
X61104761Y-74243809D01*
X61580952Y-74339047D01*
X60723809Y-74624761D02*
X60628571Y-74672380D01*
X60438095Y-74672380D01*
X60342857Y-74624761D01*
X60295238Y-74529523D01*
X60295238Y-74481904D01*
X60342857Y-74386666D01*
X60438095Y-74339047D01*
X60580952Y-74339047D01*
X60676190Y-74291428D01*
X60723809Y-74196190D01*
X60723809Y-74148571D01*
X60676190Y-74053333D01*
X60580952Y-74005714D01*
X60438095Y-74005714D01*
X60342857Y-74053333D01*
X59866666Y-74672380D02*
X59866666Y-74005714D01*
X59866666Y-73672380D02*
X59914285Y-73720000D01*
X59866666Y-73767619D01*
X59819047Y-73720000D01*
X59866666Y-73672380D01*
X59866666Y-73767619D01*
X58961904Y-74005714D02*
X58961904Y-74815238D01*
X59009523Y-74910476D01*
X59057142Y-74958095D01*
X59152380Y-75005714D01*
X59295238Y-75005714D01*
X59390476Y-74958095D01*
X58961904Y-74624761D02*
X59057142Y-74672380D01*
X59247619Y-74672380D01*
X59342857Y-74624761D01*
X59390476Y-74577142D01*
X59438095Y-74481904D01*
X59438095Y-74196190D01*
X59390476Y-74100952D01*
X59342857Y-74053333D01*
X59247619Y-74005714D01*
X59057142Y-74005714D01*
X58961904Y-74053333D01*
X58485714Y-74005714D02*
X58485714Y-74672380D01*
X58485714Y-74100952D02*
X58438095Y-74053333D01*
X58342857Y-74005714D01*
X58200000Y-74005714D01*
X58104761Y-74053333D01*
X58057142Y-74148571D01*
X58057142Y-74672380D01*
X57200000Y-74624761D02*
X57295238Y-74672380D01*
X57485714Y-74672380D01*
X57580952Y-74624761D01*
X57628571Y-74529523D01*
X57628571Y-74148571D01*
X57580952Y-74053333D01*
X57485714Y-74005714D01*
X57295238Y-74005714D01*
X57200000Y-74053333D01*
X57152380Y-74148571D01*
X57152380Y-74243809D01*
X57628571Y-74339047D01*
X56295238Y-74672380D02*
X56295238Y-73672380D01*
X56295238Y-74624761D02*
X56390476Y-74672380D01*
X56580952Y-74672380D01*
X56676190Y-74624761D01*
X56723809Y-74577142D01*
X56771428Y-74481904D01*
X56771428Y-74196190D01*
X56723809Y-74100952D01*
X56676190Y-74053333D01*
X56580952Y-74005714D01*
X56390476Y-74005714D01*
X56295238Y-74053333D01*
X55057142Y-74672380D02*
X55057142Y-73672380D01*
X55057142Y-74053333D02*
X54961904Y-74005714D01*
X54771428Y-74005714D01*
X54676190Y-74053333D01*
X54628571Y-74100952D01*
X54580952Y-74196190D01*
X54580952Y-74481904D01*
X54628571Y-74577142D01*
X54676190Y-74624761D01*
X54771428Y-74672380D01*
X54961904Y-74672380D01*
X55057142Y-74624761D01*
X54247619Y-74005714D02*
X54009523Y-74672380D01*
X53771428Y-74005714D02*
X54009523Y-74672380D01*
X54104761Y-74910476D01*
X54152380Y-74958095D01*
X54247619Y-75005714D01*
X63200000Y-75282380D02*
X63200000Y-75996666D01*
X63247619Y-76139523D01*
X63342857Y-76234761D01*
X63485714Y-76282380D01*
X63580952Y-76282380D01*
X62580952Y-76282380D02*
X62676190Y-76234761D01*
X62723809Y-76187142D01*
X62771428Y-76091904D01*
X62771428Y-75806190D01*
X62723809Y-75710952D01*
X62676190Y-75663333D01*
X62580952Y-75615714D01*
X62438095Y-75615714D01*
X62342857Y-75663333D01*
X62295238Y-75710952D01*
X62247619Y-75806190D01*
X62247619Y-76091904D01*
X62295238Y-76187142D01*
X62342857Y-76234761D01*
X62438095Y-76282380D01*
X62580952Y-76282380D01*
X61819047Y-76282380D02*
X61819047Y-75615714D01*
X61819047Y-75806190D02*
X61771428Y-75710952D01*
X61723809Y-75663333D01*
X61628571Y-75615714D01*
X61533333Y-75615714D01*
X60771428Y-75615714D02*
X60771428Y-76425238D01*
X60819047Y-76520476D01*
X60866666Y-76568095D01*
X60961904Y-76615714D01*
X61104761Y-76615714D01*
X61200000Y-76568095D01*
X60771428Y-76234761D02*
X60866666Y-76282380D01*
X61057142Y-76282380D01*
X61152380Y-76234761D01*
X61200000Y-76187142D01*
X61247619Y-76091904D01*
X61247619Y-75806190D01*
X61200000Y-75710952D01*
X61152380Y-75663333D01*
X61057142Y-75615714D01*
X60866666Y-75615714D01*
X60771428Y-75663333D01*
X59914285Y-76234761D02*
X60009523Y-76282380D01*
X60200000Y-76282380D01*
X60295238Y-76234761D01*
X60342857Y-76139523D01*
X60342857Y-75758571D01*
X60295238Y-75663333D01*
X60200000Y-75615714D01*
X60009523Y-75615714D01*
X59914285Y-75663333D01*
X59866666Y-75758571D01*
X59866666Y-75853809D01*
X60342857Y-75949047D01*
X58485714Y-75282380D02*
X58295238Y-75282380D01*
X58200000Y-75330000D01*
X58104761Y-75425238D01*
X58057142Y-75615714D01*
X58057142Y-75949047D01*
X58104761Y-76139523D01*
X58200000Y-76234761D01*
X58295238Y-76282380D01*
X58485714Y-76282380D01*
X58580952Y-76234761D01*
X58676190Y-76139523D01*
X58723809Y-75949047D01*
X58723809Y-75615714D01*
X58676190Y-75425238D01*
X58580952Y-75330000D01*
X58485714Y-75282380D01*
X57628571Y-76282380D02*
X57628571Y-75615714D01*
X57628571Y-75806190D02*
X57580952Y-75710952D01*
X57533333Y-75663333D01*
X57438095Y-75615714D01*
X57342857Y-75615714D01*
X57152380Y-75615714D02*
X56771428Y-75615714D01*
X57009523Y-75282380D02*
X57009523Y-76139523D01*
X56961904Y-76234761D01*
X56866666Y-76282380D01*
X56771428Y-76282380D01*
X56438095Y-76282380D02*
X56438095Y-75615714D01*
X56438095Y-75282380D02*
X56485714Y-75330000D01*
X56438095Y-75377619D01*
X56390476Y-75330000D01*
X56438095Y-75282380D01*
X56438095Y-75377619D01*
X55533333Y-75615714D02*
X55533333Y-76425238D01*
X55580952Y-76520476D01*
X55628571Y-76568095D01*
X55723809Y-76615714D01*
X55866666Y-76615714D01*
X55961904Y-76568095D01*
X55533333Y-76234761D02*
X55628571Y-76282380D01*
X55819047Y-76282380D01*
X55914285Y-76234761D01*
X55961904Y-76187142D01*
X56009523Y-76091904D01*
X56009523Y-75806190D01*
X55961904Y-75710952D01*
X55914285Y-75663333D01*
X55819047Y-75615714D01*
X55628571Y-75615714D01*
X55533333Y-75663333D01*
X54914285Y-76282380D02*
X55009523Y-76234761D01*
X55057142Y-76187142D01*
X55104761Y-76091904D01*
X55104761Y-75806190D01*
X55057142Y-75710952D01*
X55009523Y-75663333D01*
X54914285Y-75615714D01*
X54771428Y-75615714D01*
X54676190Y-75663333D01*
X54628571Y-75710952D01*
X54580952Y-75806190D01*
X54580952Y-76091904D01*
X54628571Y-76187142D01*
X54676190Y-76234761D01*
X54771428Y-76282380D01*
X54914285Y-76282380D01*
X54200000Y-76234761D02*
X54104761Y-76282380D01*
X53914285Y-76282380D01*
X53819047Y-76234761D01*
X53771428Y-76139523D01*
X53771428Y-76091904D01*
X53819047Y-75996666D01*
X53914285Y-75949047D01*
X54057142Y-75949047D01*
X54152380Y-75901428D01*
X54200000Y-75806190D01*
X54200000Y-75758571D01*
X54152380Y-75663333D01*
X54057142Y-75615714D01*
X53914285Y-75615714D01*
X53819047Y-75663333D01*
X53200000Y-76282380D02*
X53295238Y-76234761D01*
X53342857Y-76187142D01*
X53390476Y-76091904D01*
X53390476Y-75806190D01*
X53342857Y-75710952D01*
X53295238Y-75663333D01*
X53200000Y-75615714D01*
X53057142Y-75615714D01*
X52961904Y-75663333D01*
X52914285Y-75710952D01*
X52866666Y-75806190D01*
X52866666Y-76091904D01*
X52914285Y-76187142D01*
X52961904Y-76234761D01*
X53057142Y-76282380D01*
X53200000Y-76282380D01*
%TO.C,R2*%
X74086666Y-130452380D02*
X74420000Y-129976190D01*
X74658095Y-130452380D02*
X74658095Y-129452380D01*
X74277142Y-129452380D01*
X74181904Y-129500000D01*
X74134285Y-129547619D01*
X74086666Y-129642857D01*
X74086666Y-129785714D01*
X74134285Y-129880952D01*
X74181904Y-129928571D01*
X74277142Y-129976190D01*
X74658095Y-129976190D01*
X73705714Y-129547619D02*
X73658095Y-129500000D01*
X73562857Y-129452380D01*
X73324761Y-129452380D01*
X73229523Y-129500000D01*
X73181904Y-129547619D01*
X73134285Y-129642857D01*
X73134285Y-129738095D01*
X73181904Y-129880952D01*
X73753333Y-130452380D01*
X73134285Y-130452380D01*
%TO.C,R4*%
X74166666Y-114452380D02*
X74500000Y-113976190D01*
X74738095Y-114452380D02*
X74738095Y-113452380D01*
X74357142Y-113452380D01*
X74261904Y-113500000D01*
X74214285Y-113547619D01*
X74166666Y-113642857D01*
X74166666Y-113785714D01*
X74214285Y-113880952D01*
X74261904Y-113928571D01*
X74357142Y-113976190D01*
X74738095Y-113976190D01*
X73309523Y-113785714D02*
X73309523Y-114452380D01*
X73547619Y-113404761D02*
X73785714Y-114119047D01*
X73166666Y-114119047D01*
%TO.C,C3*%
X54416666Y-117857142D02*
X54464285Y-117904761D01*
X54607142Y-117952380D01*
X54702380Y-117952380D01*
X54845238Y-117904761D01*
X54940476Y-117809523D01*
X54988095Y-117714285D01*
X55035714Y-117523809D01*
X55035714Y-117380952D01*
X54988095Y-117190476D01*
X54940476Y-117095238D01*
X54845238Y-117000000D01*
X54702380Y-116952380D01*
X54607142Y-116952380D01*
X54464285Y-117000000D01*
X54416666Y-117047619D01*
X54083333Y-116952380D02*
X53464285Y-116952380D01*
X53797619Y-117333333D01*
X53654761Y-117333333D01*
X53559523Y-117380952D01*
X53511904Y-117428571D01*
X53464285Y-117523809D01*
X53464285Y-117761904D01*
X53511904Y-117857142D01*
X53559523Y-117904761D01*
X53654761Y-117952380D01*
X53940476Y-117952380D01*
X54035714Y-117904761D01*
X54083333Y-117857142D01*
%TO.C,R5*%
X62516666Y-127952380D02*
X62850000Y-127476190D01*
X63088095Y-127952380D02*
X63088095Y-126952380D01*
X62707142Y-126952380D01*
X62611904Y-127000000D01*
X62564285Y-127047619D01*
X62516666Y-127142857D01*
X62516666Y-127285714D01*
X62564285Y-127380952D01*
X62611904Y-127428571D01*
X62707142Y-127476190D01*
X63088095Y-127476190D01*
X61611904Y-126952380D02*
X62088095Y-126952380D01*
X62135714Y-127428571D01*
X62088095Y-127380952D01*
X61992857Y-127333333D01*
X61754761Y-127333333D01*
X61659523Y-127380952D01*
X61611904Y-127428571D01*
X61564285Y-127523809D01*
X61564285Y-127761904D01*
X61611904Y-127857142D01*
X61659523Y-127904761D01*
X61754761Y-127952380D01*
X61992857Y-127952380D01*
X62088095Y-127904761D01*
X62135714Y-127857142D01*
%TO.C,D2*%
X72238096Y-56452380D02*
X72238096Y-55452380D01*
X72000001Y-55452380D01*
X71857143Y-55500000D01*
X71761905Y-55595238D01*
X71714286Y-55690476D01*
X71666667Y-55880952D01*
X71666667Y-56023809D01*
X71714286Y-56214285D01*
X71761905Y-56309523D01*
X71857143Y-56404761D01*
X72000001Y-56452380D01*
X72238096Y-56452380D01*
X71285715Y-55547619D02*
X71238096Y-55500000D01*
X71142858Y-55452380D01*
X70904762Y-55452380D01*
X70809524Y-55500000D01*
X70761905Y-55547619D01*
X70714286Y-55642857D01*
X70714286Y-55738095D01*
X70761905Y-55880952D01*
X71333334Y-56452380D01*
X70714286Y-56452380D01*
X78341904Y-56452380D02*
X78341904Y-55452380D01*
X77770476Y-56452380D02*
X78199047Y-55880952D01*
X77770476Y-55452380D02*
X78341904Y-56023809D01*
%TO.C,R8*%
X57496666Y-133472380D02*
X57830000Y-132996190D01*
X58068095Y-133472380D02*
X58068095Y-132472380D01*
X57687142Y-132472380D01*
X57591904Y-132520000D01*
X57544285Y-132567619D01*
X57496666Y-132662857D01*
X57496666Y-132805714D01*
X57544285Y-132900952D01*
X57591904Y-132948571D01*
X57687142Y-132996190D01*
X58068095Y-132996190D01*
X56925238Y-132900952D02*
X57020476Y-132853333D01*
X57068095Y-132805714D01*
X57115714Y-132710476D01*
X57115714Y-132662857D01*
X57068095Y-132567619D01*
X57020476Y-132520000D01*
X56925238Y-132472380D01*
X56734761Y-132472380D01*
X56639523Y-132520000D01*
X56591904Y-132567619D01*
X56544285Y-132662857D01*
X56544285Y-132710476D01*
X56591904Y-132805714D01*
X56639523Y-132853333D01*
X56734761Y-132900952D01*
X56925238Y-132900952D01*
X57020476Y-132948571D01*
X57068095Y-132996190D01*
X57115714Y-133091428D01*
X57115714Y-133281904D01*
X57068095Y-133377142D01*
X57020476Y-133424761D01*
X56925238Y-133472380D01*
X56734761Y-133472380D01*
X56639523Y-133424761D01*
X56591904Y-133377142D01*
X56544285Y-133281904D01*
X56544285Y-133091428D01*
X56591904Y-132996190D01*
X56639523Y-132948571D01*
X56734761Y-132900952D01*
%TO.C,C5*%
X60666667Y-51357142D02*
X60714286Y-51404761D01*
X60857143Y-51452380D01*
X60952381Y-51452380D01*
X61095239Y-51404761D01*
X61190477Y-51309523D01*
X61238096Y-51214285D01*
X61285715Y-51023809D01*
X61285715Y-50880952D01*
X61238096Y-50690476D01*
X61190477Y-50595238D01*
X61095239Y-50500000D01*
X60952381Y-50452380D01*
X60857143Y-50452380D01*
X60714286Y-50500000D01*
X60666667Y-50547619D01*
X59761905Y-50452380D02*
X60238096Y-50452380D01*
X60285715Y-50928571D01*
X60238096Y-50880952D01*
X60142858Y-50833333D01*
X59904762Y-50833333D01*
X59809524Y-50880952D01*
X59761905Y-50928571D01*
X59714286Y-51023809D01*
X59714286Y-51261904D01*
X59761905Y-51357142D01*
X59809524Y-51404761D01*
X59904762Y-51452380D01*
X60142858Y-51452380D01*
X60238096Y-51404761D01*
X60285715Y-51357142D01*
%TO.C,C4*%
X57566666Y-50457143D02*
X57614285Y-50504762D01*
X57757142Y-50552381D01*
X57852380Y-50552381D01*
X57995238Y-50504762D01*
X58090476Y-50409524D01*
X58138095Y-50314286D01*
X58185714Y-50123810D01*
X58185714Y-49980953D01*
X58138095Y-49790477D01*
X58090476Y-49695239D01*
X57995238Y-49600001D01*
X57852380Y-49552381D01*
X57757142Y-49552381D01*
X57614285Y-49600001D01*
X57566666Y-49647620D01*
X56709523Y-49885715D02*
X56709523Y-50552381D01*
X56947619Y-49504762D02*
X57185714Y-50219048D01*
X56566666Y-50219048D01*
%TO.C,R3*%
X74136666Y-78872380D02*
X74470000Y-78396190D01*
X74708095Y-78872380D02*
X74708095Y-77872380D01*
X74327142Y-77872380D01*
X74231904Y-77920000D01*
X74184285Y-77967619D01*
X74136666Y-78062857D01*
X74136666Y-78205714D01*
X74184285Y-78300952D01*
X74231904Y-78348571D01*
X74327142Y-78396190D01*
X74708095Y-78396190D01*
X73803333Y-77872380D02*
X73184285Y-77872380D01*
X73517619Y-78253333D01*
X73374761Y-78253333D01*
X73279523Y-78300952D01*
X73231904Y-78348571D01*
X73184285Y-78443809D01*
X73184285Y-78681904D01*
X73231904Y-78777142D01*
X73279523Y-78824761D01*
X73374761Y-78872380D01*
X73660476Y-78872380D01*
X73755714Y-78824761D01*
X73803333Y-78777142D01*
%TO.C,R6*%
X57166666Y-128452380D02*
X57500000Y-127976190D01*
X57738095Y-128452380D02*
X57738095Y-127452380D01*
X57357142Y-127452380D01*
X57261904Y-127500000D01*
X57214285Y-127547619D01*
X57166666Y-127642857D01*
X57166666Y-127785714D01*
X57214285Y-127880952D01*
X57261904Y-127928571D01*
X57357142Y-127976190D01*
X57738095Y-127976190D01*
X56309523Y-127452380D02*
X56500000Y-127452380D01*
X56595238Y-127500000D01*
X56642857Y-127547619D01*
X56738095Y-127690476D01*
X56785714Y-127880952D01*
X56785714Y-128261904D01*
X56738095Y-128357142D01*
X56690476Y-128404761D01*
X56595238Y-128452380D01*
X56404761Y-128452380D01*
X56309523Y-128404761D01*
X56261904Y-128357142D01*
X56214285Y-128261904D01*
X56214285Y-128023809D01*
X56261904Y-127928571D01*
X56309523Y-127880952D01*
X56404761Y-127833333D01*
X56595238Y-127833333D01*
X56690476Y-127880952D01*
X56738095Y-127928571D01*
X56785714Y-128023809D01*
%TO.C,C6*%
X67916666Y-128057142D02*
X67964285Y-128104761D01*
X68107142Y-128152380D01*
X68202380Y-128152380D01*
X68345238Y-128104761D01*
X68440476Y-128009523D01*
X68488095Y-127914285D01*
X68535714Y-127723809D01*
X68535714Y-127580952D01*
X68488095Y-127390476D01*
X68440476Y-127295238D01*
X68345238Y-127200000D01*
X68202380Y-127152380D01*
X68107142Y-127152380D01*
X67964285Y-127200000D01*
X67916666Y-127247619D01*
X67059523Y-127152380D02*
X67250000Y-127152380D01*
X67345238Y-127200000D01*
X67392857Y-127247619D01*
X67488095Y-127390476D01*
X67535714Y-127580952D01*
X67535714Y-127961904D01*
X67488095Y-128057142D01*
X67440476Y-128104761D01*
X67345238Y-128152380D01*
X67154761Y-128152380D01*
X67059523Y-128104761D01*
X67011904Y-128057142D01*
X66964285Y-127961904D01*
X66964285Y-127723809D01*
X67011904Y-127628571D01*
X67059523Y-127580952D01*
X67154761Y-127533333D01*
X67345238Y-127533333D01*
X67440476Y-127580952D01*
X67488095Y-127628571D01*
X67535714Y-127723809D01*
%TO.C,U1*%
X67751904Y-113322380D02*
X67751904Y-114131904D01*
X67704285Y-114227142D01*
X67656666Y-114274761D01*
X67561428Y-114322380D01*
X67370952Y-114322380D01*
X67275714Y-114274761D01*
X67228095Y-114227142D01*
X67180476Y-114131904D01*
X67180476Y-113322380D01*
X66180476Y-114322380D02*
X66751904Y-114322380D01*
X66466190Y-114322380D02*
X66466190Y-113322380D01*
X66561428Y-113465238D01*
X66656666Y-113560476D01*
X66751904Y-113608095D01*
%TO.C,C2*%
X53666666Y-127857142D02*
X53714285Y-127904761D01*
X53857142Y-127952380D01*
X53952380Y-127952380D01*
X54095238Y-127904761D01*
X54190476Y-127809523D01*
X54238095Y-127714285D01*
X54285714Y-127523809D01*
X54285714Y-127380952D01*
X54238095Y-127190476D01*
X54190476Y-127095238D01*
X54095238Y-127000000D01*
X53952380Y-126952380D01*
X53857142Y-126952380D01*
X53714285Y-127000000D01*
X53666666Y-127047619D01*
X53285714Y-127047619D02*
X53238095Y-127000000D01*
X53142857Y-126952380D01*
X52904761Y-126952380D01*
X52809523Y-127000000D01*
X52761904Y-127047619D01*
X52714285Y-127142857D01*
X52714285Y-127238095D01*
X52761904Y-127380952D01*
X53333333Y-127952380D01*
X52714285Y-127952380D01*
%TO.C,J6*%
X71283333Y-50302380D02*
X71283333Y-51016666D01*
X71330952Y-51159523D01*
X71426190Y-51254761D01*
X71569047Y-51302380D01*
X71664285Y-51302380D01*
X70378571Y-50302380D02*
X70569047Y-50302380D01*
X70664285Y-50350000D01*
X70711904Y-50397619D01*
X70807142Y-50540476D01*
X70854761Y-50730952D01*
X70854761Y-51111904D01*
X70807142Y-51207142D01*
X70759523Y-51254761D01*
X70664285Y-51302380D01*
X70473809Y-51302380D01*
X70378571Y-51254761D01*
X70330952Y-51207142D01*
X70283333Y-51111904D01*
X70283333Y-50873809D01*
X70330952Y-50778571D01*
X70378571Y-50730952D01*
X70473809Y-50683333D01*
X70664285Y-50683333D01*
X70759523Y-50730952D01*
X70807142Y-50778571D01*
X70854761Y-50873809D01*
%TO.C,C1*%
X77666666Y-117107142D02*
X77714285Y-117154761D01*
X77857142Y-117202380D01*
X77952380Y-117202380D01*
X78095238Y-117154761D01*
X78190476Y-117059523D01*
X78238095Y-116964285D01*
X78285714Y-116773809D01*
X78285714Y-116630952D01*
X78238095Y-116440476D01*
X78190476Y-116345238D01*
X78095238Y-116250000D01*
X77952380Y-116202380D01*
X77857142Y-116202380D01*
X77714285Y-116250000D01*
X77666666Y-116297619D01*
X76714285Y-117202380D02*
X77285714Y-117202380D01*
X77000000Y-117202380D02*
X77000000Y-116202380D01*
X77095238Y-116345238D01*
X77190476Y-116440476D01*
X77285714Y-116488095D01*
%TO.C,D1*%
X56322380Y-48281904D02*
X55322380Y-48281904D01*
X55322380Y-48520000D01*
X55370000Y-48662857D01*
X55465238Y-48758095D01*
X55560476Y-48805714D01*
X55750952Y-48853333D01*
X55893809Y-48853333D01*
X56084285Y-48805714D01*
X56179523Y-48758095D01*
X56274761Y-48662857D01*
X56322380Y-48520000D01*
X56322380Y-48281904D01*
X56322380Y-49805714D02*
X56322380Y-49234285D01*
X56322380Y-49520000D02*
X55322380Y-49520000D01*
X55465238Y-49424761D01*
X55560476Y-49329523D01*
X55608095Y-49234285D01*
X53721904Y-56892380D02*
X53721904Y-55892380D01*
X53150476Y-56892380D02*
X53579047Y-56320952D01*
X53150476Y-55892380D02*
X53721904Y-56463809D01*
%TO.C,R1*%
X74166666Y-99672380D02*
X74500000Y-99196190D01*
X74738095Y-99672380D02*
X74738095Y-98672380D01*
X74357142Y-98672380D01*
X74261904Y-98720000D01*
X74214285Y-98767619D01*
X74166666Y-98862857D01*
X74166666Y-99005714D01*
X74214285Y-99100952D01*
X74261904Y-99148571D01*
X74357142Y-99196190D01*
X74738095Y-99196190D01*
X73214285Y-99672380D02*
X73785714Y-99672380D01*
X73500000Y-99672380D02*
X73500000Y-98672380D01*
X73595238Y-98815238D01*
X73690476Y-98910476D01*
X73785714Y-98958095D01*
%TO.C,R7*%
X63532380Y-135643333D02*
X63056190Y-135310000D01*
X63532380Y-135071904D02*
X62532380Y-135071904D01*
X62532380Y-135452857D01*
X62580000Y-135548095D01*
X62627619Y-135595714D01*
X62722857Y-135643333D01*
X62865714Y-135643333D01*
X62960952Y-135595714D01*
X63008571Y-135548095D01*
X63056190Y-135452857D01*
X63056190Y-135071904D01*
X62532380Y-135976666D02*
X62532380Y-136643333D01*
X63532380Y-136214761D01*
D15*
%TO.C,R2*%
X74870000Y-132000000D02*
X73920000Y-132000000D01*
X70080000Y-131080000D02*
X73920000Y-131080000D01*
X69130000Y-132000000D02*
X70080000Y-132000000D01*
X70080000Y-132920000D02*
X70080000Y-131080000D01*
X73920000Y-132920000D02*
X70080000Y-132920000D01*
X73920000Y-131080000D02*
X73920000Y-132920000D01*
%TO.C,R4*%
X73080000Y-117860000D02*
X74920000Y-117860000D01*
X74920000Y-117860000D02*
X74920000Y-121700000D01*
X73080000Y-121700000D02*
X73080000Y-117860000D01*
X74000000Y-122650000D02*
X74000000Y-121700000D01*
X74920000Y-121700000D02*
X73080000Y-121700000D01*
X74000000Y-116910000D02*
X74000000Y-117860000D01*
%TO.C,C3*%
X59870000Y-116055000D02*
X59870000Y-116370000D01*
X54630000Y-113630000D02*
X54630000Y-113945000D01*
X54630000Y-116055000D02*
X54630000Y-116370000D01*
X59870000Y-116370000D02*
X54630000Y-116370000D01*
X59870000Y-113630000D02*
X54630000Y-113630000D01*
X59870000Y-113630000D02*
X59870000Y-113945000D01*
%TO.C,R5*%
X59080000Y-125420000D02*
X59080000Y-121580000D01*
X60920000Y-125420000D02*
X59080000Y-125420000D01*
X59080000Y-121580000D02*
X60920000Y-121580000D01*
X60000000Y-126370000D02*
X60000000Y-125420000D01*
X60920000Y-121580000D02*
X60920000Y-125420000D01*
X60000000Y-120630000D02*
X60000000Y-121580000D01*
%TO.C,D2*%
X70280000Y-54970000D02*
X70280000Y-52030000D01*
X74940000Y-52030000D02*
X74940000Y-54970000D01*
X69260000Y-53500000D02*
X70280000Y-53500000D01*
X76740000Y-53500000D02*
X75720000Y-53500000D01*
X74700000Y-52030000D02*
X74700000Y-54970000D01*
X70280000Y-52030000D02*
X75720000Y-52030000D01*
X75720000Y-52030000D02*
X75720000Y-54970000D01*
X74820000Y-52030000D02*
X74820000Y-54970000D01*
X75720000Y-54970000D02*
X70280000Y-54970000D01*
%TO.C,R8*%
X55410000Y-132020000D02*
X55410000Y-130180000D01*
X59250000Y-130180000D02*
X59250000Y-132020000D01*
X59250000Y-132020000D02*
X55410000Y-132020000D01*
X54460000Y-131100000D02*
X55410000Y-131100000D01*
X60200000Y-131100000D02*
X59250000Y-131100000D01*
X55410000Y-130180000D02*
X59250000Y-130180000D01*
%TO.C,C5*%
X64268401Y-55180000D02*
X64268401Y-54340000D01*
X64108401Y-55285000D02*
X64108401Y-54340000D01*
X64308401Y-55150000D02*
X64308401Y-54340000D01*
X63948401Y-52660000D02*
X63948401Y-51630000D01*
X63547401Y-55516000D02*
X63547401Y-54340000D01*
X64788401Y-54642000D02*
X64788401Y-54340000D01*
X64588401Y-54896000D02*
X64588401Y-54340000D01*
X63147401Y-55577000D02*
X63147401Y-51423000D01*
X64428401Y-52660000D02*
X64428401Y-51948000D01*
X63547401Y-52660000D02*
X63547401Y-51484000D01*
X63587401Y-55505000D02*
X63587401Y-54340000D01*
X63387401Y-55550000D02*
X63387401Y-54340000D01*
X64548401Y-52660000D02*
X64548401Y-52062000D01*
X63667401Y-52660000D02*
X63667401Y-51518000D01*
X64668401Y-52660000D02*
X64668401Y-52196000D01*
X63227401Y-55571000D02*
X63227401Y-54340000D01*
X63507401Y-55525000D02*
X63507401Y-54340000D01*
X65068401Y-54037000D02*
X65068401Y-52963000D01*
X64188401Y-55235000D02*
X64188401Y-54340000D01*
X63627401Y-52660000D02*
X63627401Y-51506000D01*
X64588401Y-52660000D02*
X64588401Y-52104000D01*
X64148401Y-52660000D02*
X64148401Y-51740000D01*
X63748401Y-52660000D02*
X63748401Y-51546000D01*
X63587401Y-52660000D02*
X63587401Y-51495000D01*
X64708401Y-52660000D02*
X64708401Y-52246000D01*
X64988401Y-54268000D02*
X64988401Y-52732000D01*
X64468401Y-52660000D02*
X64468401Y-51984000D01*
X63107401Y-55579000D02*
X63107401Y-51421000D01*
X65028401Y-54164000D02*
X65028401Y-52836000D01*
X63788401Y-55440000D02*
X63788401Y-54340000D01*
X64108401Y-52660000D02*
X64108401Y-51715000D01*
X63187401Y-55574000D02*
X63187401Y-51426000D01*
X64428401Y-55052000D02*
X64428401Y-54340000D01*
X64068401Y-55308000D02*
X64068401Y-54340000D01*
X64548401Y-54938000D02*
X64548401Y-54340000D01*
X64508401Y-52660000D02*
X64508401Y-52022000D01*
X64628401Y-52660000D02*
X64628401Y-52149000D01*
X63868401Y-52660000D02*
X63868401Y-51593000D01*
X63828401Y-52660000D02*
X63828401Y-51576000D01*
X64508401Y-54978000D02*
X64508401Y-54340000D01*
X60957600Y-54895000D02*
X60957600Y-54495000D01*
X64868401Y-54513000D02*
X64868401Y-52487000D01*
X63908401Y-52660000D02*
X63908401Y-51611000D01*
X64268401Y-52660000D02*
X64268401Y-51820000D01*
X64468401Y-55016000D02*
X64468401Y-54340000D01*
X64828401Y-54580000D02*
X64828401Y-54340000D01*
X63467401Y-55534000D02*
X63467401Y-54340000D01*
X63307401Y-52660000D02*
X63307401Y-51438000D01*
X63748401Y-55454000D02*
X63748401Y-54340000D01*
X63988401Y-55351000D02*
X63988401Y-54340000D01*
X63467401Y-52660000D02*
X63467401Y-51466000D01*
X64388401Y-52660000D02*
X64388401Y-51913000D01*
X64308401Y-52660000D02*
X64308401Y-51850000D01*
X63707401Y-52660000D02*
X63707401Y-51532000D01*
X63788401Y-52660000D02*
X63788401Y-51560000D01*
X64068401Y-52660000D02*
X64068401Y-51692000D01*
X64668401Y-54804000D02*
X64668401Y-54340000D01*
X63908401Y-55389000D02*
X63908401Y-54340000D01*
X63507401Y-52660000D02*
X63507401Y-51475000D01*
X64708401Y-54754000D02*
X64708401Y-54340000D01*
X63067401Y-55580000D02*
X63067401Y-51420000D01*
X64028401Y-55330000D02*
X64028401Y-54340000D01*
X64148401Y-55260000D02*
X64148401Y-54340000D01*
X63227401Y-52660000D02*
X63227401Y-51429000D01*
X64748401Y-54700000D02*
X64748401Y-54340000D01*
X63307401Y-55562000D02*
X63307401Y-54340000D01*
X63988401Y-52660000D02*
X63988401Y-51649000D01*
X63667401Y-55482000D02*
X63667401Y-54340000D01*
X63027401Y-55580000D02*
X63027401Y-51420000D01*
X63707401Y-55468000D02*
X63707401Y-54340000D01*
X63868401Y-55407000D02*
X63868401Y-54340000D01*
X64388401Y-55087000D02*
X64388401Y-54340000D01*
X60757600Y-54695000D02*
X61157600Y-54695000D01*
X64828401Y-52660000D02*
X64828401Y-52420000D01*
X63427401Y-52660000D02*
X63427401Y-51458000D01*
X64348401Y-55119000D02*
X64348401Y-54340000D01*
X64228401Y-55208000D02*
X64228401Y-54340000D01*
X64628401Y-54851000D02*
X64628401Y-54340000D01*
X63347401Y-55556000D02*
X63347401Y-54340000D01*
X63347401Y-52660000D02*
X63347401Y-51444000D01*
X63828401Y-55424000D02*
X63828401Y-54340000D01*
X63387401Y-52660000D02*
X63387401Y-51450000D01*
X63427401Y-55542000D02*
X63427401Y-54340000D01*
X64788401Y-52660000D02*
X64788401Y-52358000D01*
X64348401Y-52660000D02*
X64348401Y-51881000D01*
X64948401Y-54359000D02*
X64948401Y-52641000D01*
X63267401Y-52660000D02*
X63267401Y-51433000D01*
X64188401Y-52660000D02*
X64188401Y-51765000D01*
X63948401Y-55370000D02*
X63948401Y-54340000D01*
X63627401Y-55494000D02*
X63627401Y-54340000D01*
X64228401Y-52660000D02*
X64228401Y-51792000D01*
X65108401Y-53870000D02*
X65108401Y-53130000D01*
X64028401Y-52660000D02*
X64028401Y-51670000D01*
X64908401Y-54440000D02*
X64908401Y-52560000D01*
X64748401Y-52660000D02*
X64748401Y-52300000D01*
X63267401Y-55567000D02*
X63267401Y-54340000D01*
X65147401Y-53500000D02*
G75*
G03*
X65147401Y-53500000I-2120000J0D01*
G01*
%TO.C,C4*%
X57060000Y-51391600D02*
X56646000Y-51391600D01*
X57060000Y-51511600D02*
X56504000Y-51511600D01*
X57060000Y-52672600D02*
X55858000Y-52672600D01*
X57060000Y-51711600D02*
X56313000Y-51711600D01*
X59882000Y-52432600D02*
X58740000Y-52432600D01*
X59934000Y-52632600D02*
X58740000Y-52632600D01*
X59338000Y-51551600D02*
X58740000Y-51551600D01*
X59751000Y-52111600D02*
X58740000Y-52111600D01*
X57060000Y-52271600D02*
X55976000Y-52271600D01*
X59971000Y-52872600D02*
X58740000Y-52872600D01*
X57060000Y-52031600D02*
X56092000Y-52031600D01*
X57060000Y-52632600D02*
X55866000Y-52632600D01*
X59962000Y-52792600D02*
X58740000Y-52792600D01*
X57060000Y-51951600D02*
X56140000Y-51951600D01*
X59608000Y-51871600D02*
X58740000Y-51871600D01*
X59925000Y-52592600D02*
X58740000Y-52592600D01*
X58840000Y-51191600D02*
X56960000Y-51191600D01*
X57060000Y-51911600D02*
X56165000Y-51911600D01*
X59416000Y-51631600D02*
X58740000Y-51631600D01*
X59251000Y-51471600D02*
X58740000Y-51471600D01*
X59296000Y-51511600D02*
X58740000Y-51511600D01*
X57060000Y-52872600D02*
X55829000Y-52872600D01*
X57060000Y-52592600D02*
X55875000Y-52592600D01*
X59974000Y-52912600D02*
X55826000Y-52912600D01*
X57060000Y-52311600D02*
X55960000Y-52311600D01*
X57060000Y-51871600D02*
X56192000Y-51871600D01*
X57060000Y-51431600D02*
X56596000Y-51431600D01*
X58759000Y-51151600D02*
X57041000Y-51151600D01*
X59868000Y-52392600D02*
X58740000Y-52392600D01*
X59950000Y-52712600D02*
X58740000Y-52712600D01*
X57060000Y-52191600D02*
X56011000Y-52191600D01*
X58437000Y-51031600D02*
X57363000Y-51031600D01*
X57060000Y-51991600D02*
X56115000Y-51991600D01*
X59685000Y-51991600D02*
X58740000Y-51991600D01*
X57060000Y-51471600D02*
X56549000Y-51471600D01*
X59452000Y-51671600D02*
X58740000Y-51671600D01*
X57060000Y-52832600D02*
X55833000Y-52832600D01*
X58564000Y-51071600D02*
X57236000Y-51071600D01*
X59979000Y-52992600D02*
X55821000Y-52992600D01*
X57060000Y-51631600D02*
X56384000Y-51631600D01*
X57060000Y-52792600D02*
X55838000Y-52792600D01*
X59095000Y-55342401D02*
X59095000Y-54942401D01*
X58980000Y-51271600D02*
X58740000Y-51271600D01*
X57060000Y-52752600D02*
X55844000Y-52752600D01*
X58270000Y-50991600D02*
X57530000Y-50991600D01*
X58913000Y-51231600D02*
X56887000Y-51231600D01*
X59789000Y-52191600D02*
X58740000Y-52191600D01*
X59154000Y-51391600D02*
X58740000Y-51391600D01*
X59580000Y-51831600D02*
X58740000Y-51831600D01*
X57060000Y-52432600D02*
X55918000Y-52432600D01*
X57060000Y-51751600D02*
X56281000Y-51751600D01*
X57060000Y-52392600D02*
X55932000Y-52392600D01*
X57060000Y-52552600D02*
X55884000Y-52552600D01*
X59204000Y-51431600D02*
X58740000Y-51431600D01*
X59519000Y-51751600D02*
X58740000Y-51751600D01*
X59042000Y-51311600D02*
X58740000Y-51311600D01*
X59487000Y-51711600D02*
X58740000Y-51711600D01*
X57060000Y-51791600D02*
X56250000Y-51791600D01*
X57060000Y-52151600D02*
X56030000Y-52151600D01*
X59550000Y-51791600D02*
X58740000Y-51791600D01*
X59770000Y-52151600D02*
X58740000Y-52151600D01*
X59295000Y-55142401D02*
X58895000Y-55142401D01*
X57060000Y-52071600D02*
X56070000Y-52071600D01*
X59635000Y-51911600D02*
X58740000Y-51911600D01*
X59905000Y-52512600D02*
X58740000Y-52512600D01*
X57060000Y-52712600D02*
X55850000Y-52712600D01*
X59708000Y-52031600D02*
X58740000Y-52031600D01*
X57060000Y-51591600D02*
X56422000Y-51591600D01*
X59980000Y-53072600D02*
X55820000Y-53072600D01*
X58668000Y-51111600D02*
X57132000Y-51111600D01*
X57060000Y-51831600D02*
X56220000Y-51831600D01*
X57060000Y-51671600D02*
X56348000Y-51671600D01*
X59956000Y-52752600D02*
X58740000Y-52752600D01*
X59894000Y-52472600D02*
X58740000Y-52472600D01*
X57060000Y-51351600D02*
X56700000Y-51351600D01*
X57060000Y-52472600D02*
X55906000Y-52472600D01*
X57060000Y-51271600D02*
X56820000Y-51271600D01*
X59378000Y-51591600D02*
X58740000Y-51591600D01*
X57060000Y-52231600D02*
X55993000Y-52231600D01*
X57060000Y-52351600D02*
X55946000Y-52351600D01*
X59100000Y-51351600D02*
X58740000Y-51351600D01*
X57060000Y-52512600D02*
X55895000Y-52512600D01*
X59807000Y-52231600D02*
X58740000Y-52231600D01*
X59854000Y-52351600D02*
X58740000Y-52351600D01*
X59942000Y-52672600D02*
X58740000Y-52672600D01*
X59977000Y-52952600D02*
X55823000Y-52952600D01*
X59916000Y-52552600D02*
X58740000Y-52552600D01*
X59824000Y-52271600D02*
X58740000Y-52271600D01*
X59840000Y-52311600D02*
X58740000Y-52311600D01*
X57060000Y-51551600D02*
X56462000Y-51551600D01*
X59967000Y-52832600D02*
X58740000Y-52832600D01*
X59980000Y-53032600D02*
X55820000Y-53032600D01*
X57060000Y-51311600D02*
X56758000Y-51311600D01*
X57060000Y-52111600D02*
X56049000Y-52111600D01*
X59660000Y-51951600D02*
X58740000Y-51951600D01*
X59730000Y-52071600D02*
X58740000Y-52071600D01*
X60020000Y-53072600D02*
G75*
G03*
X60020000Y-53072600I-2120000J0D01*
G01*
%TO.C,R3*%
X75890000Y-75580000D02*
X75890000Y-77420000D01*
X72050000Y-77420000D02*
X72050000Y-75580000D01*
X75890000Y-77420000D02*
X72050000Y-77420000D01*
X76840000Y-76500000D02*
X75890000Y-76500000D01*
X71100000Y-76500000D02*
X72050000Y-76500000D01*
X72050000Y-75580000D02*
X75890000Y-75580000D01*
%TO.C,R6*%
X57920000Y-123920000D02*
X56080000Y-123920000D01*
X57920000Y-120080000D02*
X57920000Y-123920000D01*
X57000000Y-124870000D02*
X57000000Y-123920000D01*
X57000000Y-119130000D02*
X57000000Y-120080000D01*
X56080000Y-120080000D02*
X57920000Y-120080000D01*
X56080000Y-123920000D02*
X56080000Y-120080000D01*
%TO.C,C6*%
X75870000Y-128870000D02*
X75870000Y-128555000D01*
X75870000Y-126445000D02*
X75870000Y-126130000D01*
X70630000Y-126445000D02*
X70630000Y-126130000D01*
X70630000Y-128870000D02*
X70630000Y-128555000D01*
X70630000Y-128870000D02*
X75870000Y-128870000D01*
X70630000Y-126130000D02*
X75870000Y-126130000D01*
%TO.C,U1*%
X72130000Y-125210000D02*
X61850000Y-125210000D01*
X69640000Y-125150000D02*
X64340000Y-125150000D01*
X61850000Y-125210000D02*
X61850000Y-114810000D01*
X64340000Y-125150000D02*
X64340000Y-114870000D01*
X69640000Y-114870000D02*
X69640000Y-125150000D01*
X72130000Y-114810000D02*
X72130000Y-125210000D01*
X64340000Y-114870000D02*
X65990000Y-114870000D01*
X61850000Y-114810000D02*
X72130000Y-114810000D01*
X67990000Y-114870000D02*
X69640000Y-114870000D01*
X65990000Y-114870000D02*
G75*
G03*
X67990000Y-114870000I1000000J0D01*
G01*
%TO.C,C2*%
X52130000Y-125120000D02*
X52130000Y-119880000D01*
X54870000Y-125120000D02*
X54555000Y-125120000D01*
X54870000Y-125120000D02*
X54870000Y-119880000D01*
X52445000Y-125120000D02*
X52130000Y-125120000D01*
X52445000Y-119880000D02*
X52130000Y-119880000D01*
X54870000Y-119880000D02*
X54555000Y-119880000D01*
%TO.C,J6*%
X66870000Y-48480000D02*
X66870000Y-48480000D01*
X59930000Y-41980000D02*
X59930000Y-48480000D01*
X74500000Y-51180000D02*
X73500000Y-51180000D01*
X79210000Y-49790000D02*
X79210000Y-40670000D01*
X74000000Y-50180000D02*
X74500000Y-51180000D01*
X79210000Y-40670000D02*
X58630000Y-40670000D01*
X58630000Y-40670000D02*
X58630000Y-49790000D01*
X77910000Y-41980000D02*
X59930000Y-41980000D01*
X77910000Y-48480000D02*
X77910000Y-41980000D01*
X73500000Y-51180000D02*
X74000000Y-50180000D01*
X58630000Y-49790000D02*
X79210000Y-49790000D01*
X66870000Y-48480000D02*
X66870000Y-49790000D01*
X70970000Y-48480000D02*
X77910000Y-48480000D01*
X70970000Y-49790000D02*
X70970000Y-48480000D01*
X59930000Y-48480000D02*
X66870000Y-48480000D01*
%TO.C,C1*%
X76445000Y-123870000D02*
X76130000Y-123870000D01*
X78870000Y-123870000D02*
X78870000Y-118630000D01*
X76445000Y-118630000D02*
X76130000Y-118630000D01*
X76130000Y-123870000D02*
X76130000Y-118630000D01*
X78870000Y-118630000D02*
X78555000Y-118630000D01*
X78870000Y-123870000D02*
X78555000Y-123870000D01*
%TO.C,D1*%
X54870000Y-46300000D02*
X54870000Y-51740000D01*
X53400000Y-52760000D02*
X53400000Y-51740000D01*
X53400000Y-45280000D02*
X53400000Y-46300000D01*
X54870000Y-50720000D02*
X51930000Y-50720000D01*
X51930000Y-51740000D02*
X51930000Y-46300000D01*
X54870000Y-50960000D02*
X51930000Y-50960000D01*
X54870000Y-50840000D02*
X51930000Y-50840000D01*
X54870000Y-51740000D02*
X51930000Y-51740000D01*
X51930000Y-46300000D02*
X54870000Y-46300000D01*
%TO.C,R1*%
X71130000Y-97300000D02*
X72080000Y-97300000D01*
X75920000Y-98220000D02*
X72080000Y-98220000D01*
X76870000Y-97300000D02*
X75920000Y-97300000D01*
X72080000Y-96380000D02*
X75920000Y-96380000D01*
X75920000Y-96380000D02*
X75920000Y-98220000D01*
X72080000Y-98220000D02*
X72080000Y-96380000D01*
%TO.C,R7*%
X65920000Y-133890000D02*
X65920000Y-137730000D01*
X65000000Y-132940000D02*
X65000000Y-133890000D01*
X64080000Y-133890000D02*
X65920000Y-133890000D01*
X65000000Y-138680000D02*
X65000000Y-137730000D01*
X65920000Y-137730000D02*
X64080000Y-137730000D01*
X64080000Y-137730000D02*
X64080000Y-133890000D01*
%TD*%
M02*
