%TF.GenerationSoftware,KiCad,Pcbnew,(6.0.1)*%
%TF.CreationDate,2023-06-10T19:18:38+02:00*%
%TF.ProjectId,mixer,6d697865-722e-46b6-9963-61645f706362,rev?*%
%TF.SameCoordinates,Original*%
%TF.FileFunction,Copper,L1,Top*%
%TF.FilePolarity,Positive*%
%FSLAX46Y46*%
G04 Gerber Fmt 4.6, Leading zero omitted, Abs format (unit mm)*
G04 Created by KiCad (PCBNEW (6.0.1)) date 2023-06-10 19:18:38*
%MOMM*%
%LPD*%
G01*
G04 APERTURE LIST*
G04 Aperture macros list*
%AMRoundRect*
0 Rectangle with rounded corners*
0 $1 Rounding radius*
0 $2 $3 $4 $5 $6 $7 $8 $9 X,Y pos of 4 corners*
0 Add a 4 corners polygon primitive as box body*
4,1,4,$2,$3,$4,$5,$6,$7,$8,$9,$2,$3,0*
0 Add four circle primitives for the rounded corners*
1,1,$1+$1,$2,$3*
1,1,$1+$1,$4,$5*
1,1,$1+$1,$6,$7*
1,1,$1+$1,$8,$9*
0 Add four rect primitives between the rounded corners*
20,1,$1+$1,$2,$3,$4,$5,0*
20,1,$1+$1,$4,$5,$6,$7,0*
20,1,$1+$1,$6,$7,$8,$9,0*
20,1,$1+$1,$8,$9,$2,$3,0*%
G04 Aperture macros list end*
%TA.AperFunction,ComponentPad*%
%ADD10O,2.720000X3.240000*%
%TD*%
%TA.AperFunction,ComponentPad*%
%ADD11R,1.800000X1.800000*%
%TD*%
%TA.AperFunction,ComponentPad*%
%ADD12C,1.800000*%
%TD*%
%TA.AperFunction,ComponentPad*%
%ADD13O,3.100000X2.100000*%
%TD*%
%TA.AperFunction,ComponentPad*%
%ADD14RoundRect,0.650000X-0.650000X-0.650000X0.650000X-0.650000X0.650000X0.650000X-0.650000X0.650000X0*%
%TD*%
%TA.AperFunction,ComponentPad*%
%ADD15C,1.400000*%
%TD*%
%TA.AperFunction,ComponentPad*%
%ADD16O,1.400000X1.400000*%
%TD*%
%TA.AperFunction,ComponentPad*%
%ADD17C,1.600000*%
%TD*%
%TA.AperFunction,ComponentPad*%
%ADD18R,2.200000X2.200000*%
%TD*%
%TA.AperFunction,ComponentPad*%
%ADD19O,2.200000X2.200000*%
%TD*%
%TA.AperFunction,ComponentPad*%
%ADD20R,1.200000X1.200000*%
%TD*%
%TA.AperFunction,ComponentPad*%
%ADD21C,1.200000*%
%TD*%
%TA.AperFunction,ComponentPad*%
%ADD22R,1.600000X1.600000*%
%TD*%
%TA.AperFunction,ComponentPad*%
%ADD23O,1.600000X1.600000*%
%TD*%
%TA.AperFunction,ComponentPad*%
%ADD24RoundRect,0.250000X0.600000X-0.600000X0.600000X0.600000X-0.600000X0.600000X-0.600000X-0.600000X0*%
%TD*%
%TA.AperFunction,ComponentPad*%
%ADD25C,1.700000*%
%TD*%
%TA.AperFunction,ViaPad*%
%ADD26C,0.800000*%
%TD*%
%TA.AperFunction,Conductor*%
%ADD27C,0.350000*%
%TD*%
%TA.AperFunction,Conductor*%
%ADD28C,0.500000*%
%TD*%
G04 APERTURE END LIST*
D10*
%TO.P,RV1,*%
%TO.N,*%
X76800000Y-104005000D03*
X67200000Y-104005000D03*
D11*
%TO.P,RV1,1,1*%
%TO.N,GND*%
X69500000Y-111505000D03*
D12*
%TO.P,RV1,2,2*%
%TO.N,Net-(R1-Pad1)*%
X72000000Y-111505000D03*
%TO.P,RV1,3,3*%
%TO.N,/In3*%
X74500000Y-111505000D03*
%TD*%
D13*
%TO.P,J1,S*%
%TO.N,GND*%
X58000000Y-110480000D03*
D14*
%TO.P,J1,T*%
%TO.N,/In3*%
X58000000Y-99080000D03*
%TO.P,J1,TN*%
%TO.N,unconnected-(J1-PadTN)*%
X58000000Y-107380000D03*
%TD*%
D13*
%TO.P,J2,S*%
%TO.N,GND*%
X58000000Y-71480000D03*
D14*
%TO.P,J2,T*%
%TO.N,/In1*%
X58000000Y-60080000D03*
%TO.P,J2,TN*%
%TO.N,unconnected-(J2-PadTN)*%
X58000000Y-68380000D03*
%TD*%
D10*
%TO.P,RV3,*%
%TO.N,*%
X76800000Y-84500000D03*
X67200000Y-84500000D03*
D11*
%TO.P,RV3,1,1*%
%TO.N,GND*%
X69500000Y-92000000D03*
D12*
%TO.P,RV3,2,2*%
%TO.N,Net-(R3-Pad1)*%
X72000000Y-92000000D03*
%TO.P,RV3,3,3*%
%TO.N,/In2*%
X74500000Y-92000000D03*
%TD*%
D13*
%TO.P,J3,S*%
%TO.N,GND*%
X58000000Y-90980000D03*
D14*
%TO.P,J3,T*%
%TO.N,/In2*%
X58000000Y-79580000D03*
%TO.P,J3,TN*%
%TO.N,unconnected-(J3-PadTN)*%
X58000000Y-87880000D03*
%TD*%
D13*
%TO.P,J4,S*%
%TO.N,GND*%
X72000000Y-147480000D03*
D14*
%TO.P,J4,T*%
%TO.N,/Out*%
X72000000Y-136080000D03*
%TO.P,J4,TN*%
%TO.N,unconnected-(J4-PadTN)*%
X72000000Y-144380000D03*
%TD*%
D13*
%TO.P,J5,S*%
%TO.N,GND*%
X58000000Y-147480000D03*
D14*
%TO.P,J5,T*%
%TO.N,/InvOut*%
X58000000Y-136080000D03*
%TO.P,J5,TN*%
%TO.N,unconnected-(J5-PadTN)*%
X58000000Y-144380000D03*
%TD*%
D10*
%TO.P,RV2,*%
%TO.N,*%
X67200000Y-65005000D03*
X76800000Y-65005000D03*
D11*
%TO.P,RV2,1,1*%
%TO.N,GND*%
X69500000Y-72505000D03*
D12*
%TO.P,RV2,2,2*%
%TO.N,Net-(R2-Pad1)*%
X72000000Y-72505000D03*
%TO.P,RV2,3,3*%
%TO.N,/In1*%
X74500000Y-72505000D03*
%TD*%
D15*
%TO.P,R2,1*%
%TO.N,Net-(R2-Pad1)*%
X68190000Y-132000000D03*
D16*
%TO.P,R2,2*%
%TO.N,Net-(C1-Pad1)*%
X75810000Y-132000000D03*
%TD*%
D15*
%TO.P,R4,1*%
%TO.N,Net-(C1-Pad1)*%
X74000000Y-123590000D03*
D16*
%TO.P,R4,2*%
%TO.N,Net-(C1-Pad2)*%
X74000000Y-115970000D03*
%TD*%
D17*
%TO.P,C3,1*%
%TO.N,+12V*%
X59750000Y-115000000D03*
%TO.P,C3,2*%
%TO.N,GND*%
X54750000Y-115000000D03*
%TD*%
D15*
%TO.P,R5,1*%
%TO.N,Net-(C1-Pad2)*%
X60000000Y-127310000D03*
D16*
%TO.P,R5,2*%
%TO.N,Net-(C2-Pad1)*%
X60000000Y-119690000D03*
%TD*%
D18*
%TO.P,D2,1,K*%
%TO.N,/-12PD*%
X78080000Y-53500000D03*
D19*
%TO.P,D2,2,A*%
%TO.N,-12V*%
X67920000Y-53500000D03*
%TD*%
D15*
%TO.P,R8,1*%
%TO.N,Net-(C1-Pad2)*%
X53520000Y-131100000D03*
D16*
%TO.P,R8,2*%
%TO.N,/InvOut*%
X61140000Y-131100000D03*
%TD*%
D20*
%TO.P,C5,1*%
%TO.N,GND*%
X62027401Y-53500000D03*
D21*
%TO.P,C5,2*%
%TO.N,-12V*%
X64027401Y-53500000D03*
%TD*%
D20*
%TO.P,C4,1*%
%TO.N,+12V*%
X57900000Y-54072600D03*
D21*
%TO.P,C4,2*%
%TO.N,GND*%
X57900000Y-52072600D03*
%TD*%
D15*
%TO.P,R3,1*%
%TO.N,Net-(R3-Pad1)*%
X70160000Y-76500000D03*
D16*
%TO.P,R3,2*%
%TO.N,Net-(C1-Pad1)*%
X77780000Y-76500000D03*
%TD*%
D15*
%TO.P,R6,1*%
%TO.N,Net-(C2-Pad1)*%
X57000000Y-125810000D03*
D16*
%TO.P,R6,2*%
%TO.N,Net-(C2-Pad2)*%
X57000000Y-118190000D03*
%TD*%
D17*
%TO.P,C6,1*%
%TO.N,-12V*%
X70750000Y-127500000D03*
%TO.P,C6,2*%
%TO.N,GND*%
X75750000Y-127500000D03*
%TD*%
D22*
%TO.P,U1,1*%
%TO.N,Net-(C1-Pad2)*%
X70800000Y-116200000D03*
D23*
%TO.P,U1,2,-*%
%TO.N,Net-(C1-Pad1)*%
X70800000Y-118740000D03*
%TO.P,U1,3,+*%
%TO.N,GND*%
X70800000Y-121280000D03*
%TO.P,U1,4,V-*%
%TO.N,-12V*%
X70800000Y-123820000D03*
%TO.P,U1,5,+*%
%TO.N,GND*%
X63180000Y-123820000D03*
%TO.P,U1,6,-*%
%TO.N,Net-(C2-Pad1)*%
X63180000Y-121280000D03*
%TO.P,U1,7*%
%TO.N,Net-(C2-Pad2)*%
X63180000Y-118740000D03*
%TO.P,U1,8,V+*%
%TO.N,+12V*%
X63180000Y-116200000D03*
%TD*%
D17*
%TO.P,C2,1*%
%TO.N,Net-(C2-Pad1)*%
X53500000Y-125000000D03*
%TO.P,C2,2*%
%TO.N,Net-(C2-Pad2)*%
X53500000Y-120000000D03*
%TD*%
D24*
%TO.P,J6,1,Pin_1*%
%TO.N,/-12PD*%
X74000000Y-46500000D03*
D25*
%TO.P,J6,2,Pin_2*%
X74000000Y-43960000D03*
%TO.P,J6,3,Pin_3*%
%TO.N,GND*%
X71460000Y-46500000D03*
%TO.P,J6,4,Pin_4*%
X71460000Y-43960000D03*
%TO.P,J6,5,Pin_5*%
X68920000Y-46500000D03*
%TO.P,J6,6,Pin_6*%
X68920000Y-43960000D03*
%TO.P,J6,7,Pin_7*%
X66380000Y-46500000D03*
%TO.P,J6,8,Pin_8*%
X66380000Y-43960000D03*
%TO.P,J6,9,Pin_9*%
%TO.N,/+12PD*%
X63840000Y-46500000D03*
%TO.P,J6,10,Pin_10*%
X63840000Y-43960000D03*
%TD*%
D17*
%TO.P,C1,1*%
%TO.N,Net-(C1-Pad1)*%
X77500000Y-123750000D03*
%TO.P,C1,2*%
%TO.N,Net-(C1-Pad2)*%
X77500000Y-118750000D03*
%TD*%
D18*
%TO.P,D1,1,K*%
%TO.N,+12V*%
X53400000Y-54100000D03*
D19*
%TO.P,D1,2,A*%
%TO.N,/+12PD*%
X53400000Y-43940000D03*
%TD*%
D15*
%TO.P,R1,1*%
%TO.N,Net-(R1-Pad1)*%
X70190000Y-97300000D03*
D16*
%TO.P,R1,2*%
%TO.N,Net-(C1-Pad1)*%
X77810000Y-97300000D03*
%TD*%
D15*
%TO.P,R7,1*%
%TO.N,Net-(C2-Pad2)*%
X65000000Y-132000000D03*
D16*
%TO.P,R7,2*%
%TO.N,/Out*%
X65000000Y-139620000D03*
%TD*%
D26*
%TO.N,Net-(C1-Pad1)*%
X76500000Y-113500000D03*
%TO.N,Net-(C1-Pad2)*%
X65250000Y-121500000D03*
%TO.N,Net-(R2-Pad1)*%
X73000000Y-106200000D03*
X68750000Y-119750000D03*
%TD*%
D27*
%TO.N,Net-(C1-Pad1)*%
X77500000Y-123750000D02*
X77500000Y-130310000D01*
X77810000Y-97300000D02*
X77810000Y-88690000D01*
X76500000Y-113500000D02*
X78534520Y-111465480D01*
X74000000Y-119500000D02*
X74000000Y-123590000D01*
X77340000Y-123590000D02*
X77500000Y-123750000D01*
X77500000Y-130310000D02*
X75810000Y-132000000D01*
X79000000Y-77720000D02*
X77780000Y-76500000D01*
X70800000Y-118740000D02*
X73240000Y-118740000D01*
X73240000Y-118740000D02*
X74000000Y-119500000D01*
X74000000Y-123590000D02*
X77340000Y-123590000D01*
X78534520Y-98024520D02*
X77810000Y-97300000D01*
X77810000Y-88690000D02*
X79000000Y-87500000D01*
X78534520Y-111465480D02*
X78534520Y-98024520D01*
X79000000Y-87500000D02*
X79000000Y-77720000D01*
%TO.N,Net-(C1-Pad2)*%
X56210000Y-131100000D02*
X60000000Y-127310000D01*
X70800000Y-116200000D02*
X73770000Y-116200000D01*
X74720000Y-115970000D02*
X74000000Y-115970000D01*
X65250000Y-125750000D02*
X63690000Y-127310000D01*
X63690000Y-127310000D02*
X60000000Y-127310000D01*
X65250000Y-121500000D02*
X65250000Y-125750000D01*
X53520000Y-131100000D02*
X56210000Y-131100000D01*
X77500000Y-118750000D02*
X74720000Y-115970000D01*
X73770000Y-116200000D02*
X74000000Y-115970000D01*
%TO.N,Net-(C2-Pad1)*%
X60000000Y-119690000D02*
X61590000Y-119690000D01*
X60000000Y-119690000D02*
X57000000Y-122690000D01*
X57000000Y-122690000D02*
X57000000Y-125810000D01*
X61590000Y-119690000D02*
X63180000Y-121280000D01*
X54310000Y-125810000D02*
X53500000Y-125000000D01*
X57000000Y-125810000D02*
X54310000Y-125810000D01*
%TO.N,Net-(C2-Pad2)*%
X66250000Y-127250000D02*
X66250000Y-119750000D01*
X65000000Y-132000000D02*
X65000000Y-128500000D01*
X65000000Y-128500000D02*
X66250000Y-127250000D01*
X65240000Y-118740000D02*
X63180000Y-118740000D01*
X57000000Y-118190000D02*
X55310000Y-118190000D01*
X62630000Y-118190000D02*
X63180000Y-118740000D01*
X66250000Y-119750000D02*
X65240000Y-118740000D01*
X57000000Y-118190000D02*
X62630000Y-118190000D01*
X55310000Y-118190000D02*
X53500000Y-120000000D01*
D28*
%TO.N,+12V*%
X57900000Y-54072600D02*
X53427400Y-54072600D01*
X52100000Y-55400000D02*
X52100000Y-107350000D01*
X60950000Y-116200000D02*
X63180000Y-116200000D01*
X52100000Y-107350000D02*
X60950000Y-116200000D01*
X53427400Y-54072600D02*
X52100000Y-55400000D01*
%TO.N,-12V*%
X62750000Y-113000000D02*
X66874519Y-117124519D01*
X61277401Y-56250000D02*
X55250000Y-56250000D01*
X67920000Y-53500000D02*
X64027401Y-53500000D01*
X66874519Y-117124519D02*
X66874519Y-119894519D01*
X55250000Y-56250000D02*
X54000000Y-57500000D01*
X54000000Y-99750000D02*
X62750000Y-108500000D01*
X66874519Y-119894519D02*
X70800000Y-123820000D01*
X62750000Y-108500000D02*
X62750000Y-113000000D01*
X70800000Y-123820000D02*
X70800000Y-127450000D01*
X64027401Y-53500000D02*
X61277401Y-56250000D01*
X70800000Y-127450000D02*
X70750000Y-127500000D01*
X54000000Y-57500000D02*
X54000000Y-99750000D01*
%TO.N,/+12PD*%
X61790000Y-41910000D02*
X63840000Y-43960000D01*
X54210000Y-41910000D02*
X61790000Y-41910000D01*
X63840000Y-46500000D02*
X63840000Y-43960000D01*
X53500000Y-42620000D02*
X54210000Y-41910000D01*
%TO.N,/-12PD*%
X78080000Y-53500000D02*
X78080000Y-50580000D01*
X74000000Y-43960000D02*
X74000000Y-46500000D01*
X78080000Y-50580000D02*
X74000000Y-46500000D01*
D27*
%TO.N,Net-(R2-Pad1)*%
X65750000Y-110500000D02*
X65750000Y-113500000D01*
X65750000Y-113500000D02*
X68750000Y-116500000D01*
X70050000Y-106200000D02*
X65750000Y-110500000D01*
X73000000Y-106200000D02*
X70050000Y-106200000D01*
X68750000Y-116500000D02*
X68750000Y-119750000D01*
%TO.N,/In3*%
X74500000Y-111505000D02*
X74500000Y-103500000D01*
X70080000Y-99080000D02*
X58000000Y-99080000D01*
X74500000Y-103500000D02*
X70080000Y-99080000D01*
%TO.N,/In1*%
X58000000Y-60080000D02*
X69080000Y-60080000D01*
X74500000Y-65500000D02*
X74500000Y-72505000D01*
X69080000Y-60080000D02*
X74500000Y-65500000D01*
%TO.N,/In2*%
X74500000Y-86500000D02*
X74500000Y-92000000D01*
X67580000Y-79580000D02*
X74500000Y-86500000D01*
X58000000Y-79580000D02*
X67580000Y-79580000D01*
%TO.N,/Out*%
X65000000Y-139620000D02*
X68460000Y-139620000D01*
X68460000Y-139620000D02*
X72000000Y-136080000D01*
%TO.N,/InvOut*%
X61140000Y-132940000D02*
X58000000Y-136080000D01*
X61140000Y-131100000D02*
X61140000Y-132940000D01*
%TD*%
M02*
